<svg width="420" height="129" viewBox="0 0 420 129" fill="none" xmlns="http://www.w3.org/2000/svg">
<g filter="url(#filter0_b)">
<rect x="1.5" y="1.5" width="417" height="126" rx="24.5" stroke="url(#paint0_linear)" stroke-width="3"/>
</g>
<path d="M198.86 45.624C198.86 43.992 199.236 42.528 199.988 41.232C200.756 39.936 201.788 38.928 203.084 38.208C204.396 37.472 205.828 37.104 207.38 37.104C209.156 37.104 210.732 37.544 212.108 38.424C213.5 39.288 214.508 40.52 215.132 42.12H211.844C211.412 41.24 210.812 40.584 210.044 40.152C209.276 39.72 208.388 39.504 207.38 39.504C206.276 39.504 205.292 39.752 204.428 40.248C203.564 40.744 202.884 41.456 202.388 42.384C201.908 43.312 201.668 44.392 201.668 45.624C201.668 46.856 201.908 47.936 202.388 48.864C202.884 49.792 203.564 50.512 204.428 51.024C205.292 51.52 206.276 51.768 207.38 51.768C208.388 51.768 209.276 51.552 210.044 51.12C210.812 50.688 211.412 50.032 211.844 49.152H215.132C214.508 50.752 213.5 51.984 212.108 52.848C210.732 53.712 209.156 54.144 207.38 54.144C205.812 54.144 204.38 53.784 203.084 53.064C201.788 52.328 200.756 51.312 199.988 50.016C199.236 48.72 198.86 47.256 198.86 45.624ZM224.07 54.216C222.822 54.216 221.694 53.936 220.686 53.376C219.678 52.8 218.886 52 218.31 50.976C217.734 49.936 217.446 48.736 217.446 47.376C217.446 46.032 217.742 44.84 218.334 43.8C218.926 42.76 219.734 41.96 220.758 41.4C221.782 40.84 222.926 40.56 224.19 40.56C225.454 40.56 226.598 40.84 227.622 41.4C228.646 41.96 229.454 42.76 230.046 43.8C230.638 44.84 230.934 46.032 230.934 47.376C230.934 48.72 230.63 49.912 230.022 50.952C229.414 51.992 228.582 52.8 227.526 53.376C226.486 53.936 225.334 54.216 224.07 54.216ZM224.07 51.84C224.774 51.84 225.43 51.672 226.038 51.336C226.662 51 227.166 50.496 227.55 49.824C227.934 49.152 228.126 48.336 228.126 47.376C228.126 46.416 227.942 45.608 227.574 44.952C227.206 44.28 226.718 43.776 226.11 43.44C225.502 43.104 224.846 42.936 224.142 42.936C223.438 42.936 222.782 43.104 222.174 43.44C221.582 43.776 221.11 44.28 220.758 44.952C220.406 45.608 220.23 46.416 220.23 47.376C220.23 48.8 220.59 49.904 221.31 50.688C222.046 51.456 222.966 51.84 224.07 51.84ZM249.647 40.56C250.687 40.56 251.615 40.776 252.431 41.208C253.263 41.64 253.911 42.28 254.375 43.128C254.855 43.976 255.095 45 255.095 46.2V54H252.383V46.608C252.383 45.424 252.087 44.52 251.495 43.896C250.903 43.256 250.095 42.936 249.071 42.936C248.047 42.936 247.231 43.256 246.623 43.896C246.031 44.52 245.735 45.424 245.735 46.608V54H243.023V46.608C243.023 45.424 242.727 44.52 242.135 43.896C241.543 43.256 240.735 42.936 239.711 42.936C238.687 42.936 237.871 43.256 237.263 43.896C236.671 44.52 236.375 45.424 236.375 46.608V54H233.639V40.776H236.375V42.288C236.823 41.744 237.391 41.32 238.079 41.016C238.767 40.712 239.503 40.56 240.287 40.56C241.343 40.56 242.287 40.784 243.119 41.232C243.951 41.68 244.591 42.328 245.039 43.176C245.439 42.376 246.063 41.744 246.911 41.28C247.759 40.8 248.671 40.56 249.647 40.56ZM259.969 39.024C259.473 39.024 259.057 38.856 258.721 38.52C258.385 38.184 258.217 37.768 258.217 37.272C258.217 36.776 258.385 36.36 258.721 36.024C259.057 35.688 259.473 35.52 259.969 35.52C260.449 35.52 260.857 35.688 261.193 36.024C261.529 36.36 261.697 36.776 261.697 37.272C261.697 37.768 261.529 38.184 261.193 38.52C260.857 38.856 260.449 39.024 259.969 39.024ZM261.313 40.776V54H258.577V40.776H261.313ZM271.577 40.56C272.617 40.56 273.545 40.776 274.361 41.208C275.193 41.64 275.841 42.28 276.305 43.128C276.769 43.976 277.001 45 277.001 46.2V54H274.289V46.608C274.289 45.424 273.993 44.52 273.401 43.896C272.809 43.256 272.001 42.936 270.977 42.936C269.953 42.936 269.137 43.256 268.529 43.896C267.937 44.52 267.641 45.424 267.641 46.608V54H264.905V40.776H267.641V42.288C268.089 41.744 268.657 41.32 269.345 41.016C270.049 40.712 270.793 40.56 271.577 40.56ZM285.819 40.56C286.843 40.56 287.747 40.768 288.531 41.184C289.331 41.584 289.955 42.088 290.403 42.696V40.776H293.163V54.216C293.163 55.432 292.907 56.512 292.395 57.456C291.883 58.416 291.139 59.168 290.163 59.712C289.203 60.256 288.051 60.528 286.707 60.528C284.915 60.528 283.427 60.104 282.243 59.256C281.059 58.424 280.387 57.288 280.227 55.848H282.939C283.147 56.536 283.587 57.088 284.259 57.504C284.947 57.936 285.763 58.152 286.707 58.152C287.811 58.152 288.699 57.816 289.371 57.144C290.059 56.472 290.403 55.496 290.403 54.216V52.008C289.939 52.632 289.307 53.16 288.507 53.592C287.723 54.008 286.827 54.216 285.819 54.216C284.667 54.216 283.611 53.928 282.651 53.352C281.707 52.76 280.955 51.944 280.395 50.904C279.851 49.848 279.579 48.656 279.579 47.328C279.579 46 279.851 44.824 280.395 43.8C280.955 42.776 281.707 41.984 282.651 41.424C283.611 40.848 284.667 40.56 285.819 40.56ZM290.403 47.376C290.403 46.464 290.211 45.672 289.827 45C289.459 44.328 288.971 43.816 288.363 43.464C287.755 43.112 287.099 42.936 286.395 42.936C285.691 42.936 285.035 43.112 284.427 43.464C283.819 43.8 283.323 44.304 282.939 44.976C282.571 45.632 282.387 46.416 282.387 47.328C282.387 48.24 282.571 49.04 282.939 49.728C283.323 50.416 283.819 50.944 284.427 51.312C285.051 51.664 285.707 51.84 286.395 51.84C287.099 51.84 287.755 51.664 288.363 51.312C288.971 50.96 289.459 50.448 289.827 49.776C290.211 49.088 290.403 48.288 290.403 47.376ZM308.727 54.216C307.479 54.216 306.351 53.936 305.343 53.376C304.335 52.8 303.543 52 302.967 50.976C302.391 49.936 302.103 48.736 302.103 47.376C302.103 46.032 302.399 44.84 302.991 43.8C303.583 42.76 304.391 41.96 305.415 41.4C306.439 40.84 307.583 40.56 308.847 40.56C310.111 40.56 311.255 40.84 312.279 41.4C313.303 41.96 314.111 42.76 314.703 43.8C315.295 44.84 315.591 46.032 315.591 47.376C315.591 48.72 315.287 49.912 314.679 50.952C314.071 51.992 313.239 52.8 312.183 53.376C311.143 53.936 309.991 54.216 308.727 54.216ZM308.727 51.84C309.431 51.84 310.087 51.672 310.695 51.336C311.319 51 311.823 50.496 312.207 49.824C312.591 49.152 312.783 48.336 312.783 47.376C312.783 46.416 312.599 45.608 312.231 44.952C311.863 44.28 311.375 43.776 310.767 43.44C310.159 43.104 309.503 42.936 308.799 42.936C308.095 42.936 307.439 43.104 306.831 43.44C306.239 43.776 305.767 44.28 305.415 44.952C305.063 45.608 304.887 46.416 304.887 47.376C304.887 48.8 305.247 49.904 305.967 50.688C306.703 51.456 307.623 51.84 308.727 51.84ZM324.967 40.56C326.007 40.56 326.935 40.776 327.751 41.208C328.583 41.64 329.231 42.28 329.695 43.128C330.159 43.976 330.391 45 330.391 46.2V54H327.679V46.608C327.679 45.424 327.383 44.52 326.791 43.896C326.199 43.256 325.391 42.936 324.367 42.936C323.343 42.936 322.527 43.256 321.919 43.896C321.327 44.52 321.031 45.424 321.031 46.608V54H318.295V40.776H321.031V42.288C321.479 41.744 322.047 41.32 322.735 41.016C323.439 40.712 324.183 40.56 324.967 40.56ZM208.876 90.528H201.54L200.364 94H195.352L202.464 74.344H208.008L215.12 94H210.052L208.876 90.528ZM207.644 86.832L205.208 79.636L202.8 86.832H207.644ZM222.072 80.588C222.539 79.86 223.183 79.272 224.004 78.824C224.825 78.376 225.787 78.152 226.888 78.152C228.176 78.152 229.343 78.4787 230.388 79.132C231.433 79.7853 232.255 80.7187 232.852 81.932C233.468 83.1453 233.776 84.5547 233.776 86.16C233.776 87.7653 233.468 89.184 232.852 90.416C232.255 91.6293 231.433 92.572 230.388 93.244C229.343 93.8973 228.176 94.224 226.888 94.224C225.805 94.224 224.844 94 224.004 93.552C223.183 93.104 222.539 92.5253 222.072 91.816V101.448H217.284V78.376H222.072V80.588ZM228.904 86.16C228.904 84.9653 228.568 84.032 227.896 83.36C227.243 82.6693 226.431 82.324 225.46 82.324C224.508 82.324 223.696 82.6693 223.024 83.36C222.371 84.0507 222.044 84.9933 222.044 86.188C222.044 87.3827 222.371 88.3253 223.024 89.016C223.696 89.7067 224.508 90.052 225.46 90.052C226.412 90.052 227.224 89.7067 227.896 89.016C228.568 88.3067 228.904 87.3547 228.904 86.16ZM241.076 80.588C241.543 79.86 242.187 79.272 243.008 78.824C243.829 78.376 244.791 78.152 245.892 78.152C247.18 78.152 248.347 78.4787 249.392 79.132C250.437 79.7853 251.259 80.7187 251.856 81.932C252.472 83.1453 252.78 84.5547 252.78 86.16C252.78 87.7653 252.472 89.184 251.856 90.416C251.259 91.6293 250.437 92.572 249.392 93.244C248.347 93.8973 247.18 94.224 245.892 94.224C244.809 94.224 243.848 94 243.008 93.552C242.187 93.104 241.543 92.5253 241.076 91.816V101.448H236.288V78.376H241.076V80.588ZM247.908 86.16C247.908 84.9653 247.572 84.032 246.9 83.36C246.247 82.6693 245.435 82.324 244.464 82.324C243.512 82.324 242.7 82.6693 242.028 83.36C241.375 84.0507 241.048 84.9933 241.048 86.188C241.048 87.3827 241.375 88.3253 242.028 89.016C242.7 89.7067 243.512 90.052 244.464 90.052C245.416 90.052 246.228 89.7067 246.9 89.016C247.572 88.3067 247.908 87.3547 247.908 86.16ZM268.338 94.196C266.9 94.196 265.612 93.9627 264.474 93.496C263.335 93.0293 262.42 92.3387 261.73 91.424C261.058 90.5093 260.703 89.408 260.666 88.12H265.762C265.836 88.848 266.088 89.408 266.518 89.8C266.947 90.1733 267.507 90.36 268.198 90.36C268.907 90.36 269.467 90.2013 269.878 89.884C270.288 89.548 270.494 89.0907 270.494 88.512C270.494 88.0267 270.326 87.6253 269.99 87.308C269.672 86.9907 269.271 86.7293 268.786 86.524C268.319 86.3187 267.647 86.0853 266.77 85.824C265.5 85.432 264.464 85.04 263.662 84.648C262.859 84.256 262.168 83.6773 261.59 82.912C261.011 82.1467 260.722 81.148 260.722 79.916C260.722 78.0867 261.384 76.6587 262.71 75.632C264.035 74.5867 265.762 74.064 267.89 74.064C270.055 74.064 271.8 74.5867 273.126 75.632C274.451 76.6587 275.16 78.096 275.254 79.944H270.074C270.036 79.3093 269.803 78.8147 269.374 78.46C268.944 78.0867 268.394 77.9 267.722 77.9C267.143 77.9 266.676 78.0587 266.322 78.376C265.967 78.6747 265.79 79.1133 265.79 79.692C265.79 80.3267 266.088 80.8213 266.686 81.176C267.283 81.5307 268.216 81.9133 269.486 82.324C270.755 82.7533 271.782 83.164 272.566 83.556C273.368 83.948 274.059 84.5173 274.638 85.264C275.216 86.0107 275.506 86.972 275.506 88.148C275.506 89.268 275.216 90.2853 274.638 91.2C274.078 92.1147 273.256 92.8427 272.174 93.384C271.091 93.9253 269.812 94.196 268.338 94.196ZM287.16 89.94V94H284.724C282.988 94 281.635 93.58 280.664 92.74C279.693 91.8813 279.208 90.4907 279.208 88.568V82.352H277.304V78.376H279.208V74.568H283.996V78.376H287.132V82.352H283.996V88.624C283.996 89.0907 284.108 89.4267 284.332 89.632C284.556 89.8373 284.929 89.94 285.452 89.94H287.16ZM296.939 94.224C295.408 94.224 294.027 93.8973 292.795 93.244C291.582 92.5907 290.62 91.6573 289.911 90.444C289.22 89.2307 288.875 87.812 288.875 86.188C288.875 84.5827 289.23 83.1733 289.939 81.96C290.648 80.728 291.619 79.7853 292.851 79.132C294.083 78.4787 295.464 78.152 296.995 78.152C298.526 78.152 299.907 78.4787 301.139 79.132C302.371 79.7853 303.342 80.728 304.051 81.96C304.76 83.1733 305.115 84.5827 305.115 86.188C305.115 87.7933 304.751 89.212 304.023 90.444C303.314 91.6573 302.334 92.5907 301.083 93.244C299.851 93.8973 298.47 94.224 296.939 94.224ZM296.939 90.08C297.854 90.08 298.628 89.744 299.263 89.072C299.916 88.4 300.243 87.4387 300.243 86.188C300.243 84.9373 299.926 83.976 299.291 83.304C298.675 82.632 297.91 82.296 296.995 82.296C296.062 82.296 295.287 82.632 294.671 83.304C294.055 83.9573 293.747 84.9187 293.747 86.188C293.747 87.4387 294.046 88.4 294.643 89.072C295.259 89.744 296.024 90.08 296.939 90.08ZM312.443 80.98C313.003 80.1213 313.703 79.4493 314.543 78.964C315.383 78.46 316.317 78.208 317.343 78.208V83.276H316.027C314.833 83.276 313.937 83.5373 313.339 84.06C312.742 84.564 312.443 85.46 312.443 86.748V94H307.655V78.376H312.443V80.98ZM334.36 85.936C334.36 86.384 334.332 86.8507 334.276 87.336H323.44C323.514 88.3067 323.822 89.0533 324.364 89.576C324.924 90.08 325.605 90.332 326.408 90.332C327.602 90.332 328.433 89.828 328.9 88.82H333.996C333.734 89.8467 333.258 90.7707 332.568 91.592C331.896 92.4133 331.046 93.0573 330.02 93.524C328.993 93.9907 327.845 94.224 326.576 94.224C325.045 94.224 323.682 93.8973 322.488 93.244C321.293 92.5907 320.36 91.6573 319.688 90.444C319.016 89.2307 318.68 87.812 318.68 86.188C318.68 84.564 319.006 83.1453 319.66 81.932C320.332 80.7187 321.265 79.7853 322.46 79.132C323.654 78.4787 325.026 78.152 326.576 78.152C328.088 78.152 329.432 78.4693 330.608 79.104C331.784 79.7387 332.698 80.644 333.352 81.82C334.024 82.996 334.36 84.368 334.36 85.936ZM329.46 84.676C329.46 83.8547 329.18 83.2013 328.62 82.716C328.06 82.2307 327.36 81.988 326.52 81.988C325.717 81.988 325.036 82.2213 324.476 82.688C323.934 83.1547 323.598 83.8173 323.468 84.676H329.46Z" fill="#7FDB9C"/>
<path d="M123.908 88.1853C122.708 90.9825 121.225 93.6498 119.483 96.1457C117.156 99.4693 115.245 101.766 113.781 103.044C111.506 105.133 109.062 106.208 106.449 106.268C104.577 106.268 102.315 105.735 99.68 104.652C97.0367 103.573 94.61 103.044 92.387 103.044C90.06 103.044 87.564 103.573 84.8903 104.652C82.221 105.735 80.063 106.303 78.412 106.355C75.9117 106.463 73.4113 105.363 70.9197 103.044C69.3293 101.658 67.3403 99.2743 64.9527 95.903C62.396 92.3107 60.2943 88.129 58.6477 83.3753C56.884 78.2317 56 73.257 56 68.4383C56 62.922 57.1917 58.1597 59.5793 54.173C61.3852 51.042 63.967 48.4289 67.076 46.5853C70.1417 44.7466 73.6414 43.7565 77.216 43.7167C79.2093 43.7167 81.8223 44.332 85.0593 45.5453C88.2963 46.7587 90.3763 47.374 91.282 47.374C91.9667 47.374 94.2677 46.6503 98.185 45.216C101.881 43.8857 105.001 43.3353 107.558 43.552C114.491 44.111 119.696 46.841 123.158 51.7637C116.961 55.5207 113.898 60.777 113.958 67.524C114.01 72.7803 115.921 77.1527 119.665 80.6237C121.321 82.2076 123.252 83.4751 125.364 84.3633C124.904 85.6937 124.419 86.9633 123.908 88.1853ZM108.017 25.651C108.017 29.7677 106.509 33.6157 103.515 37.1733C99.8923 41.4027 95.5157 43.851 90.7707 43.4653C90.7086 42.9477 90.6782 42.4267 90.6797 41.9053C90.6797 37.949 92.3957 33.7197 95.4593 30.2573C96.9847 28.5067 98.926 27.0463 101.279 25.885C103.628 24.741 105.846 24.1083 107.935 24C107.991 24.5547 108.017 25.105 108.017 25.651Z" fill="white"/>
<defs>
<filter id="filter0_b" x="-50" y="-50" width="520" height="229" filterUnits="userSpaceOnUse" color-interpolation-filters="sRGB">
<feFlood flood-opacity="0" result="BackgroundImageFix"/>
<feGaussianBlur in="BackgroundImage" stdDeviation="25"/>
<feComposite in2="SourceAlpha" operator="in" result="effect1_backgroundBlur"/>
<feBlend mode="normal" in="SourceGraphic" in2="effect1_backgroundBlur" result="shape"/>
</filter>
<linearGradient id="paint0_linear" x1="0" y1="63.5652" x2="420" y2="63.5652" gradientUnits="userSpaceOnUse">
<stop stop-color="#7FDB9C"/>
<stop offset="1" stop-color="#EA5757"/>
</linearGradient>
</defs>
</svg>
