<svg width="418" height="54" viewBox="0 0 418 54" fill="none" xmlns="http://www.w3.org/2000/svg">
<rect width="418" height="54" rx="26" fill="url(#paint0_linear)"/>
<path d="M60.9949 27.04C62.4589 27.352 63.6349 28.084 64.5229 29.236C65.4109 30.364 65.8549 31.66 65.8549 33.124C65.8549 35.236 65.1109 36.916 63.6229 38.164C62.1589 39.388 60.1069 40 57.4669 40H45.6949V14.728H57.0709C59.6389 14.728 61.6429 15.316 63.0829 16.492C64.5469 17.668 65.2789 19.264 65.2789 21.28C65.2789 22.768 64.8829 24.004 64.0909 24.988C63.3229 25.972 62.2909 26.656 60.9949 27.04ZM51.8509 24.952H55.8829C56.8909 24.952 57.6589 24.736 58.1869 24.304C58.7389 23.848 59.0149 23.188 59.0149 22.324C59.0149 21.46 58.7389 20.8 58.1869 20.344C57.6589 19.888 56.8909 19.66 55.8829 19.66H51.8509V24.952ZM56.3869 35.032C57.4189 35.032 58.2109 34.804 58.7629 34.348C59.3389 33.868 59.6269 33.184 59.6269 32.296C59.6269 31.408 59.3269 30.712 58.7269 30.208C58.1509 29.704 57.3469 29.452 56.3149 29.452H51.8509V35.032H56.3869ZM72.5214 17.824C71.4414 17.824 70.5534 17.512 69.8574 16.888C69.1854 16.24 68.8494 15.448 68.8494 14.512C68.8494 13.552 69.1854 12.76 69.8574 12.136C70.5534 11.488 71.4414 11.164 72.5214 11.164C73.5774 11.164 74.4414 11.488 75.1134 12.136C75.8094 12.76 76.1574 13.552 76.1574 14.512C76.1574 15.448 75.8094 16.24 75.1134 16.888C74.4414 17.512 73.5774 17.824 72.5214 17.824ZM75.5814 19.912V40H69.4254V19.912H75.5814ZM89.1865 40.288C87.2185 40.288 85.4425 39.868 83.8585 39.028C82.2985 38.188 81.0625 36.988 80.1505 35.428C79.2625 33.868 78.8185 32.044 78.8185 29.956C78.8185 27.892 79.2745 26.08 80.1865 24.52C81.0985 22.936 82.3465 21.724 83.9305 20.884C85.5145 20.044 87.2905 19.624 89.2585 19.624C91.2265 19.624 93.0025 20.044 94.5865 20.884C96.1705 21.724 97.4185 22.936 98.3305 24.52C99.2425 26.08 99.6985 27.892 99.6985 29.956C99.6985 32.02 99.2305 33.844 98.2945 35.428C97.3825 36.988 96.1225 38.188 94.5145 39.028C92.9305 39.868 91.1545 40.288 89.1865 40.288ZM89.1865 34.96C90.3625 34.96 91.3585 34.528 92.1745 33.664C93.0145 32.8 93.4345 31.564 93.4345 29.956C93.4345 28.348 93.0265 27.112 92.2105 26.248C91.4185 25.384 90.4345 24.952 89.2585 24.952C88.0585 24.952 87.0625 25.384 86.2705 26.248C85.4785 27.088 85.0825 28.324 85.0825 29.956C85.0825 31.564 85.4665 32.8 86.2345 33.664C87.0265 34.528 88.0105 34.96 89.1865 34.96ZM128.596 19.696C131.092 19.696 133.072 20.452 134.536 21.964C136.024 23.476 136.768 25.576 136.768 28.264V40H130.648V29.092C130.648 27.796 130.3 26.8 129.604 26.104C128.932 25.384 127.996 25.024 126.796 25.024C125.596 25.024 124.648 25.384 123.952 26.104C123.28 26.8 122.944 27.796 122.944 29.092V40H116.824V29.092C116.824 27.796 116.476 26.8 115.78 26.104C115.108 25.384 114.172 25.024 112.972 25.024C111.772 25.024 110.824 25.384 110.128 26.104C109.456 26.8 109.12 27.796 109.12 29.092V40H102.964V19.912H109.12V22.432C109.744 21.592 110.56 20.932 111.568 20.452C112.576 19.948 113.716 19.696 114.988 19.696C116.5 19.696 117.844 20.02 119.02 20.668C120.22 21.316 121.156 22.24 121.828 23.44C122.524 22.336 123.472 21.436 124.672 20.74C125.872 20.044 127.18 19.696 128.596 19.696ZM160.01 29.632C160.01 30.208 159.974 30.808 159.902 31.432H145.97C146.066 32.68 146.462 33.64 147.158 34.312C147.878 34.96 148.754 35.284 149.786 35.284C151.322 35.284 152.39 34.636 152.99 33.34H159.542C159.206 34.66 158.594 35.848 157.706 36.904C156.842 37.96 155.75 38.788 154.43 39.388C153.11 39.988 151.634 40.288 150.002 40.288C148.034 40.288 146.282 39.868 144.746 39.028C143.21 38.188 142.01 36.988 141.146 35.428C140.282 33.868 139.85 32.044 139.85 29.956C139.85 27.868 140.27 26.044 141.11 24.484C141.974 22.924 143.174 21.724 144.71 20.884C146.246 20.044 148.01 19.624 150.002 19.624C151.946 19.624 153.674 20.032 155.186 20.848C156.698 21.664 157.874 22.828 158.714 24.34C159.578 25.852 160.01 27.616 160.01 29.632ZM153.71 28.012C153.71 26.956 153.35 26.116 152.63 25.492C151.91 24.868 151.01 24.556 149.93 24.556C148.898 24.556 148.022 24.856 147.302 25.456C146.606 26.056 146.174 26.908 146.006 28.012H153.71ZM174.453 34.78V40H171.321C169.089 40 167.349 39.46 166.101 38.38C164.853 37.276 164.229 35.488 164.229 33.016V25.024H161.781V19.912H164.229V15.016H170.385V19.912H174.417V25.024H170.385V33.088C170.385 33.688 170.529 34.12 170.817 34.384C171.105 34.648 171.585 34.78 172.257 34.78H174.453ZM184.038 23.26C184.758 22.156 185.658 21.292 186.738 20.668C187.818 20.02 189.018 19.696 190.338 19.696V26.212H188.646C187.11 26.212 185.958 26.548 185.19 27.22C184.422 27.868 184.038 29.02 184.038 30.676V40H177.882V19.912H184.038V23.26ZM196.377 17.824C195.297 17.824 194.409 17.512 193.713 16.888C193.041 16.24 192.705 15.448 192.705 14.512C192.705 13.552 193.041 12.76 193.713 12.136C194.409 11.488 195.297 11.164 196.377 11.164C197.433 11.164 198.297 11.488 198.969 12.136C199.665 12.76 200.013 13.552 200.013 14.512C200.013 15.448 199.665 16.24 198.969 16.888C198.297 17.512 197.433 17.824 196.377 17.824ZM199.437 19.912V40H193.281V19.912H199.437ZM202.674 29.956C202.674 27.868 203.094 26.044 203.934 24.484C204.798 22.924 205.986 21.724 207.498 20.884C209.034 20.044 210.786 19.624 212.754 19.624C215.274 19.624 217.374 20.284 219.054 21.604C220.758 22.924 221.874 24.784 222.402 27.184H215.85C215.298 25.648 214.23 24.88 212.646 24.88C211.518 24.88 210.618 25.324 209.946 26.212C209.274 27.076 208.938 28.324 208.938 29.956C208.938 31.588 209.274 32.848 209.946 33.736C210.618 34.6 211.518 35.032 212.646 35.032C214.23 35.032 215.298 34.264 215.85 32.728H222.402C221.874 35.08 220.758 36.928 219.054 38.272C217.35 39.616 215.25 40.288 212.754 40.288C210.786 40.288 209.034 39.868 207.498 39.028C205.986 38.188 204.798 36.988 203.934 35.428C203.094 33.868 202.674 32.044 202.674 29.956ZM233.867 40.288C232.115 40.288 230.555 39.988 229.187 39.388C227.819 38.788 226.739 37.972 225.947 36.94C225.155 35.884 224.711 34.708 224.615 33.412H230.699C230.771 34.108 231.095 34.672 231.671 35.104C232.247 35.536 232.955 35.752 233.795 35.752C234.563 35.752 235.151 35.608 235.559 35.32C235.991 35.008 236.207 34.612 236.207 34.132C236.207 33.556 235.907 33.136 235.307 32.872C234.707 32.584 233.735 32.272 232.391 31.936C230.951 31.6 229.751 31.252 228.791 30.892C227.831 30.508 227.003 29.92 226.307 29.128C225.611 28.312 225.263 27.22 225.263 25.852C225.263 24.7 225.575 23.656 226.199 22.72C226.847 21.76 227.783 21.004 229.007 20.452C230.255 19.9 231.731 19.624 233.435 19.624C235.955 19.624 237.935 20.248 239.375 21.496C240.839 22.744 241.679 24.4 241.895 26.464H236.207C236.111 25.768 235.799 25.216 235.271 24.808C234.767 24.4 234.095 24.196 233.255 24.196C232.535 24.196 231.983 24.34 231.599 24.628C231.215 24.892 231.023 25.264 231.023 25.744C231.023 26.32 231.323 26.752 231.923 27.04C232.547 27.328 233.507 27.616 234.803 27.904C236.291 28.288 237.503 28.672 238.439 29.056C239.375 29.416 240.191 30.016 240.887 30.856C241.607 31.672 241.979 32.776 242.003 34.168C242.003 35.344 241.667 36.4 240.995 37.336C240.347 38.248 239.399 38.968 238.151 39.496C236.927 40.024 235.499 40.288 233.867 40.288ZM262.866 14.728C265.53 14.728 267.858 15.256 269.85 16.312C271.842 17.368 273.378 18.856 274.458 20.776C275.562 22.672 276.114 24.868 276.114 27.364C276.114 29.836 275.562 32.032 274.458 33.952C273.378 35.872 271.83 37.36 269.814 38.416C267.822 39.472 265.506 40 262.866 40H253.398V14.728H262.866ZM262.47 34.672C264.798 34.672 266.61 34.036 267.906 32.764C269.202 31.492 269.85 29.692 269.85 27.364C269.85 25.036 269.202 23.224 267.906 21.928C266.61 20.632 264.798 19.984 262.47 19.984H259.554V34.672H262.47ZM298.49 29.632C298.49 30.208 298.454 30.808 298.382 31.432H284.45C284.546 32.68 284.942 33.64 285.638 34.312C286.358 34.96 287.234 35.284 288.266 35.284C289.802 35.284 290.87 34.636 291.47 33.34H298.022C297.686 34.66 297.074 35.848 296.186 36.904C295.322 37.96 294.23 38.788 292.91 39.388C291.59 39.988 290.114 40.288 288.482 40.288C286.514 40.288 284.762 39.868 283.226 39.028C281.69 38.188 280.49 36.988 279.626 35.428C278.762 33.868 278.33 32.044 278.33 29.956C278.33 27.868 278.75 26.044 279.59 24.484C280.454 22.924 281.654 21.724 283.19 20.884C284.726 20.044 286.49 19.624 288.482 19.624C290.426 19.624 292.154 20.032 293.666 20.848C295.178 21.664 296.354 22.828 297.194 24.34C298.058 25.852 298.49 27.616 298.49 29.632ZM292.19 28.012C292.19 26.956 291.83 26.116 291.11 25.492C290.39 24.868 289.49 24.556 288.41 24.556C287.378 24.556 286.502 24.856 285.782 25.456C285.086 26.056 284.654 26.908 284.486 28.012H292.19ZM327.37 19.696C329.866 19.696 331.846 20.452 333.31 21.964C334.798 23.476 335.542 25.576 335.542 28.264V40H329.422V29.092C329.422 27.796 329.074 26.8 328.378 26.104C327.706 25.384 326.77 25.024 325.57 25.024C324.37 25.024 323.422 25.384 322.726 26.104C322.054 26.8 321.718 27.796 321.718 29.092V40H315.598V29.092C315.598 27.796 315.25 26.8 314.554 26.104C313.882 25.384 312.946 25.024 311.746 25.024C310.546 25.024 309.598 25.384 308.902 26.104C308.23 26.8 307.894 27.796 307.894 29.092V40H301.738V19.912H307.894V22.432C308.518 21.592 309.334 20.932 310.342 20.452C311.35 19.948 312.49 19.696 313.762 19.696C315.274 19.696 316.618 20.02 317.794 20.668C318.994 21.316 319.93 22.24 320.602 23.44C321.298 22.336 322.246 21.436 323.446 20.74C324.646 20.044 325.954 19.696 327.37 19.696ZM348.991 40.288C347.023 40.288 345.247 39.868 343.663 39.028C342.103 38.188 340.867 36.988 339.955 35.428C339.067 33.868 338.623 32.044 338.623 29.956C338.623 27.892 339.079 26.08 339.991 24.52C340.903 22.936 342.151 21.724 343.735 20.884C345.319 20.044 347.095 19.624 349.063 19.624C351.031 19.624 352.807 20.044 354.391 20.884C355.975 21.724 357.223 22.936 358.135 24.52C359.047 26.08 359.503 27.892 359.503 29.956C359.503 32.02 359.035 33.844 358.099 35.428C357.187 36.988 355.927 38.188 354.319 39.028C352.735 39.868 350.959 40.288 348.991 40.288ZM348.991 34.96C350.167 34.96 351.163 34.528 351.979 33.664C352.819 32.8 353.239 31.564 353.239 29.956C353.239 28.348 352.831 27.112 352.015 26.248C351.223 25.384 350.239 24.952 349.063 24.952C347.863 24.952 346.867 25.384 346.075 26.248C345.283 27.088 344.887 28.324 344.887 29.956C344.887 31.564 345.271 32.8 346.039 33.664C346.831 34.528 347.815 34.96 348.991 34.96Z" fill="#333333"/>
<path d="M376.52 18.3496L387.706 27.0075L376.523 35.6681C376.2 35.9276 376.021 36.2752 376.025 36.6359C376.029 36.9967 376.216 37.3419 376.545 37.597C376.875 37.8521 377.32 37.9968 377.786 37.9999C378.252 38.0031 378.701 37.8644 379.036 37.6137L391.477 27.9817C391.643 27.8543 391.774 27.7027 391.864 27.5358C391.954 27.3688 392 27.1897 392 27.0088C392 26.828 391.954 26.6489 391.864 26.4819C391.774 26.3149 391.643 26.1634 391.477 26.036L379.036 16.4039C378.703 16.1456 378.251 16.0003 377.779 16C377.308 15.9997 376.855 16.1445 376.522 16.4026C376.188 16.6606 376 17.0107 376 17.3758C376 17.7409 376.187 18.0912 376.52 18.3496Z" fill="#333333"/>
<defs>
<linearGradient id="paint0_linear" x1="115.5" y1="27.0001" x2="398" y2="27.0001" gradientUnits="userSpaceOnUse">
<stop stop-color="#94EECB"/>
<stop offset="1" stop-color="#EA5757"/>
</linearGradient>
</defs>
</svg>
