<svg width="271" height="50" viewBox="0 0 271 50" fill="none" xmlns="http://www.w3.org/2000/svg">
<g filter="url(#filter0_d)">
<path d="M23.492 20.864C23.492 22.328 23.156 23.672 22.484 24.896C21.812 26.096 20.78 27.068 19.388 27.812C17.996 28.556 16.268 28.928 14.204 28.928H10.388V38H4.232V12.728H14.204C16.22 12.728 17.924 13.076 19.316 13.772C20.708 14.468 21.752 15.428 22.448 16.652C23.144 17.876 23.492 19.28 23.492 20.864ZM13.736 24.032C14.912 24.032 15.788 23.756 16.364 23.204C16.94 22.652 17.228 21.872 17.228 20.864C17.228 19.856 16.94 19.076 16.364 18.524C15.788 17.972 14.912 17.696 13.736 17.696H10.388V24.032H13.736ZM32.8528 21.26C33.5728 20.156 34.4728 19.292 35.5528 18.668C36.6328 18.02 37.8328 17.696 39.1528 17.696V24.212H37.4608C35.9248 24.212 34.7728 24.548 34.0048 25.22C33.2368 25.868 32.8528 27.02 32.8528 28.676V38H26.6968V17.912H32.8528V21.26ZM51.2393 38.288C49.2713 38.288 47.4953 37.868 45.9113 37.028C44.3513 36.188 43.1153 34.988 42.2033 33.428C41.3153 31.868 40.8713 30.044 40.8713 27.956C40.8713 25.892 41.3273 24.08 42.2393 22.52C43.1513 20.936 44.3993 19.724 45.9833 18.884C47.5673 18.044 49.3433 17.624 51.3113 17.624C53.2793 17.624 55.0553 18.044 56.6393 18.884C58.2233 19.724 59.4713 20.936 60.3833 22.52C61.2953 24.08 61.7513 25.892 61.7513 27.956C61.7513 30.02 61.2833 31.844 60.3473 33.428C59.4353 34.988 58.1753 36.188 56.5673 37.028C54.9833 37.868 53.2073 38.288 51.2393 38.288ZM51.2393 32.96C52.4153 32.96 53.4113 32.528 54.2273 31.664C55.0673 30.8 55.4873 29.564 55.4873 27.956C55.4873 26.348 55.0793 25.112 54.2633 24.248C53.4713 23.384 52.4873 22.952 51.3113 22.952C50.1113 22.952 49.1153 23.384 48.3233 24.248C47.5313 25.088 47.1353 26.324 47.1353 27.956C47.1353 29.564 47.5193 30.8 48.2873 31.664C49.0793 32.528 50.0633 32.96 51.2393 32.96ZM90.6492 17.696C93.1452 17.696 95.1252 18.452 96.5892 19.964C98.0772 21.476 98.8212 23.576 98.8212 26.264V38H92.7012V27.092C92.7012 25.796 92.3532 24.8 91.6572 24.104C90.9852 23.384 90.0492 23.024 88.8492 23.024C87.6492 23.024 86.7012 23.384 86.0052 24.104C85.3332 24.8 84.9972 25.796 84.9972 27.092V38H78.8772V27.092C78.8772 25.796 78.5292 24.8 77.8332 24.104C77.1612 23.384 76.2252 23.024 75.0252 23.024C73.8252 23.024 72.8772 23.384 72.1812 24.104C71.5092 24.8 71.1732 25.796 71.1732 27.092V38H65.0172V17.912H71.1732V20.432C71.7972 19.592 72.6132 18.932 73.6212 18.452C74.6292 17.948 75.7692 17.696 77.0412 17.696C78.5532 17.696 79.8972 18.02 81.0732 18.668C82.2732 19.316 83.2092 20.24 83.8812 21.44C84.5772 20.336 85.5252 19.436 86.7252 18.74C87.9252 18.044 89.2332 17.696 90.6492 17.696ZM112.271 38.288C110.303 38.288 108.527 37.868 106.943 37.028C105.383 36.188 104.147 34.988 103.235 33.428C102.347 31.868 101.903 30.044 101.903 27.956C101.903 25.892 102.359 24.08 103.271 22.52C104.183 20.936 105.431 19.724 107.015 18.884C108.599 18.044 110.375 17.624 112.343 17.624C114.311 17.624 116.087 18.044 117.671 18.884C119.255 19.724 120.503 20.936 121.415 22.52C122.327 24.08 122.783 25.892 122.783 27.956C122.783 30.02 122.315 31.844 121.379 33.428C120.467 34.988 119.207 36.188 117.599 37.028C116.015 37.868 114.239 38.288 112.271 38.288ZM112.271 32.96C113.447 32.96 114.443 32.528 115.259 31.664C116.099 30.8 116.519 29.564 116.519 27.956C116.519 26.348 116.111 25.112 115.295 24.248C114.503 23.384 113.519 22.952 112.343 22.952C111.143 22.952 110.147 23.384 109.355 24.248C108.563 25.088 108.167 26.324 108.167 27.956C108.167 29.564 108.551 30.8 109.319 31.664C110.111 32.528 111.095 32.96 112.271 32.96ZM157.401 12.728L148.437 38H140.733L131.769 12.728H138.321L144.585 31.808L150.885 12.728H157.401ZM163.07 15.824C161.99 15.824 161.102 15.512 160.406 14.888C159.734 14.24 159.398 13.448 159.398 12.512C159.398 11.552 159.734 10.76 160.406 10.136C161.102 9.488 161.99 9.164 163.07 9.164C164.126 9.164 164.99 9.488 165.662 10.136C166.358 10.76 166.706 11.552 166.706 12.512C166.706 13.448 166.358 14.24 165.662 14.888C164.99 15.512 164.126 15.824 163.07 15.824ZM166.13 17.912V38H159.974V17.912H166.13ZM169.367 27.92C169.367 25.856 169.751 24.044 170.519 22.484C171.311 20.924 172.379 19.724 173.723 18.884C175.067 18.044 176.567 17.624 178.223 17.624C179.543 17.624 180.743 17.9 181.823 18.452C182.927 19.004 183.791 19.748 184.415 20.684V11.36H190.571V38H184.415V35.12C183.839 36.08 183.011 36.848 181.931 37.424C180.875 38 179.639 38.288 178.223 38.288C176.567 38.288 175.067 37.868 173.723 37.028C172.379 36.164 171.311 34.952 170.519 33.392C169.751 31.808 169.367 29.984 169.367 27.92ZM184.415 27.956C184.415 26.42 183.983 25.208 183.119 24.32C182.279 23.432 181.247 22.988 180.023 22.988C178.799 22.988 177.755 23.432 176.891 24.32C176.051 25.184 175.631 26.384 175.631 27.92C175.631 29.456 176.051 30.68 176.891 31.592C177.755 32.48 178.799 32.924 180.023 32.924C181.247 32.924 182.279 32.48 183.119 31.592C183.983 30.704 184.415 29.492 184.415 27.956ZM213.961 27.632C213.961 28.208 213.925 28.808 213.853 29.432H199.921C200.017 30.68 200.413 31.64 201.109 32.312C201.829 32.96 202.705 33.284 203.737 33.284C205.273 33.284 206.341 32.636 206.941 31.34H213.493C213.157 32.66 212.545 33.848 211.657 34.904C210.793 35.96 209.701 36.788 208.381 37.388C207.061 37.988 205.585 38.288 203.953 38.288C201.985 38.288 200.233 37.868 198.697 37.028C197.161 36.188 195.961 34.988 195.097 33.428C194.233 31.868 193.801 30.044 193.801 27.956C193.801 25.868 194.221 24.044 195.061 22.484C195.925 20.924 197.125 19.724 198.661 18.884C200.197 18.044 201.961 17.624 203.953 17.624C205.897 17.624 207.625 18.032 209.137 18.848C210.649 19.664 211.825 20.828 212.665 22.34C213.529 23.852 213.961 25.616 213.961 27.632ZM207.661 26.012C207.661 24.956 207.301 24.116 206.581 23.492C205.861 22.868 204.961 22.556 203.881 22.556C202.849 22.556 201.973 22.856 201.253 23.456C200.557 24.056 200.125 24.908 199.957 26.012H207.661ZM226.353 38.288C224.385 38.288 222.609 37.868 221.025 37.028C219.465 36.188 218.229 34.988 217.317 33.428C216.429 31.868 215.985 30.044 215.985 27.956C215.985 25.892 216.441 24.08 217.353 22.52C218.265 20.936 219.513 19.724 221.097 18.884C222.681 18.044 224.457 17.624 226.425 17.624C228.393 17.624 230.169 18.044 231.753 18.884C233.337 19.724 234.585 20.936 235.497 22.52C236.409 24.08 236.865 25.892 236.865 27.956C236.865 30.02 236.397 31.844 235.461 33.428C234.549 34.988 233.289 36.188 231.681 37.028C230.097 37.868 228.321 38.288 226.353 38.288ZM226.353 32.96C227.529 32.96 228.525 32.528 229.341 31.664C230.181 30.8 230.601 29.564 230.601 27.956C230.601 26.348 230.193 25.112 229.377 24.248C228.585 23.384 227.601 22.952 226.425 22.952C225.225 22.952 224.229 23.384 223.437 24.248C222.645 25.088 222.249 26.324 222.249 27.956C222.249 29.564 222.633 30.8 223.401 31.664C224.193 32.528 225.177 32.96 226.353 32.96Z" fill="#94EECB"/>
<path d="M251.52 17.3496L262.706 26.0075L251.523 34.6681C251.2 34.9276 251.021 35.2752 251.025 35.6359C251.029 35.9967 251.216 36.3419 251.545 36.597C251.875 36.8521 252.32 36.9968 252.786 36.9999C253.252 37.0031 253.701 36.8644 254.036 36.6137L266.477 26.9817C266.643 26.8543 266.774 26.7027 266.864 26.5358C266.954 26.3688 267 26.1897 267 26.0088C267 25.828 266.954 25.6489 266.864 25.4819C266.774 25.3149 266.643 25.1634 266.477 25.036L254.036 15.4039C253.703 15.1456 253.251 15.0003 252.779 15C252.308 14.9997 251.855 15.1445 251.522 15.4026C251.188 15.6606 251 16.0107 251 16.3758C251 16.7409 251.187 17.0912 251.52 17.3496Z" fill="#94EECB"/>
</g>
<defs>
<filter id="filter0_d" x="0.231995" y="9.16406" width="270.768" height="37.124" filterUnits="userSpaceOnUse" color-interpolation-filters="sRGB">
<feFlood flood-opacity="0" result="BackgroundImageFix"/>
<feColorMatrix in="SourceAlpha" type="matrix" values="0 0 0 0 0 0 0 0 0 0 0 0 0 0 0 0 0 0 127 0" result="hardAlpha"/>
<feOffset dy="4"/>
<feGaussianBlur stdDeviation="2"/>
<feComposite in2="hardAlpha" operator="out"/>
<feColorMatrix type="matrix" values="0 0 0 0 0 0 0 0 0 0 0 0 0 0 0 0 0 0 0.25 0"/>
<feBlend mode="normal" in2="BackgroundImageFix" result="effect1_dropShadow"/>
<feBlend mode="normal" in="SourceGraphic" in2="effect1_dropShadow" result="shape"/>
</filter>
</defs>
</svg>
