<svg xmlns="http://www.w3.org/2000/svg" viewBox="0 0 238.99 100.14"><defs><style>.cls-1{fill:#fff;}.cls-2{fill:#f15e5a;}</style></defs><g id="Layer_2" data-name="Layer 2"><g id="Layer_1-2" data-name="Layer 1"><path class="cls-1" d="M24.35,100.14H3.88A3.89,3.89,0,0,1,0,96.25V75.35a3.88,3.88,0,0,1,7.76,0v17H24.35a3.89,3.89,0,0,1,0,7.77Z"/><path class="cls-1" d="M96.25,100.14H75.73a3.89,3.89,0,0,1,0-7.77H92.37V74.26a3.89,3.89,0,0,1,7.77,0v22A3.89,3.89,0,0,1,96.25,100.14Z"/><path class="cls-1" d="M96.25,26.58a3.88,3.88,0,0,1-3.88-3.88V7.76H75.73a3.88,3.88,0,0,1,0-7.76H96.25a3.89,3.89,0,0,1,3.89,3.88V22.7A3.89,3.89,0,0,1,96.25,26.58Z"/><path class="cls-1" d="M3.88,26.58A3.88,3.88,0,0,1,0,22.7V3.88A3.88,3.88,0,0,1,3.88,0H23.24a3.88,3.88,0,1,1,0,7.76H7.76V22.7A3.88,3.88,0,0,1,3.88,26.58Z"/><path class="cls-1" d="M79.75,55.29a3.36,3.36,0,0,0-.88-1.95A3,3,0,0,0,77,52.67a7.85,7.85,0,0,0-2.54.59l-.54.16v0l-6.52,3c1.76,3.2,1.51,5,1.29,6.35a6.1,6.1,0,0,0-.11,1.31,20.89,20.89,0,0,1-.27,5.54L72,65.65c.16-.48.32-1,.47-1.51a.94.94,0,0,1,0-.16l.5.17a4.56,4.56,0,0,0,1.55.29,4.12,4.12,0,0,0,2-.59,5.36,5.36,0,0,0,1.81-1.58,7,7,0,0,0,.89-1.88,10.6,10.6,0,0,0,.62-2.51A7.2,7.2,0,0,0,79.75,55.29Z"/><path class="cls-1" d="M67.49,72a3.36,3.36,0,0,1-.33.44.72.72,0,0,1-.19.11l0,0H33.18a.53.53,0,0,1-.27-.13,2.92,2.92,0,0,1-.45-.66L29,67.93A25.73,25.73,0,0,0,35.07,78a20.78,20.78,0,0,0,8.56,5.32A22.42,22.42,0,0,0,57.07,83a20.4,20.4,0,0,0,5.75-3.1,23.1,23.1,0,0,0,6.05-7.38,33.82,33.82,0,0,0,2.18-4.45Z"/><path class="cls-1" d="M27.67,63.9c.14.53.3,1.08.47,1.63l3.61,4a21.43,21.43,0,0,1-.25-5.42,5.52,5.52,0,0,0-.11-1.31c-.22-1.41-.46-3.15,1.31-6.36l-6.57-3.11v0l-.43-.12a7.89,7.89,0,0,0-2.55-.59,3,3,0,0,0-1.88.66,3.34,3.34,0,0,0-.89,2,7.64,7.64,0,0,0-.07,2.58,10.27,10.27,0,0,0,.63,2.51,6.58,6.58,0,0,0,.88,1.88,5.36,5.36,0,0,0,1.81,1.59,4.15,4.15,0,0,0,2,.59,4.51,4.51,0,0,0,1.55-.29Z"/><rect class="cls-1" x="12.47" y="40.58" width="75.09" height="2.77" rx="1.39"/><path class="cls-1" d="M26.13,40.58c0,.5,0,1-.06,1.57a95.06,95.06,0,0,0,0,10l7.45,3.53H66.59L74,52.26c0-.27,0-.53.06-.82.06-.84.3-4.43.3-9.15,0-.47,0-1,0-1.71Z"/><path class="cls-2" d="M27.84,30.48c-.62,1.43-1.18,3.19-1.53,7.33H74.18c-.09-1.14-.23-2.41-.44-3.78a13.86,13.86,0,0,0-1.47-5,14,14,0,0,0-2.81-3.4,12,12,0,0,0-1.81-1.26h.56a29.12,29.12,0,0,0-3.88-3.15,31.76,31.76,0,0,0-4.64-2.61,29.12,29.12,0,0,0-5.65-2A26.85,26.85,0,0,0,50.72,16a22.61,22.61,0,0,0-3.21-.11c-.74,0-1,.06-1,.16s1,.54,1.93.83c2,.65,3.56.92,3.55,1a5,5,0,0,1-.95-.06,61.89,61.89,0,0,0-7.91-.33c-.18,0,0,0-6.42.45l-4.54.6s-.29,0-2.44.72a.91.91,0,0,0-.49.28c-.37.47.1,1.32.6,2.6a23.5,23.5,0,0,1,.84,2.49h0l.3.88-.14.06A21.29,21.29,0,0,0,27.84,30.48Zm4.95-5.83,0,0h0Zm-.84,0h0Z"/><path class="cls-1" d="M163.2,100.14H142.73a3.89,3.89,0,0,1-3.88-3.89V75.35a3.88,3.88,0,0,1,7.76,0v17H163.2a3.89,3.89,0,0,1,0,7.77Z"/><path class="cls-1" d="M235.11,100.14H214.58a3.89,3.89,0,0,1,0-7.77h16.65V74.26a3.88,3.88,0,1,1,7.76,0v22A3.89,3.89,0,0,1,235.11,100.14Z"/><path class="cls-1" d="M235.11,26.58a3.88,3.88,0,0,1-3.88-3.88V7.76H214.58a3.88,3.88,0,0,1,0-7.76h20.53A3.88,3.88,0,0,1,239,3.88V22.7A3.88,3.88,0,0,1,235.11,26.58Z"/><path class="cls-1" d="M142.73,26.58a3.88,3.88,0,0,1-3.88-3.88V3.88A3.88,3.88,0,0,1,142.73,0h19.36a3.88,3.88,0,0,1,0,7.76H146.61V22.7A3.88,3.88,0,0,1,142.73,26.58Z"/><rect class="cls-1" x="151.38" y="71.47" width="75.09" height="2.77" rx="1.39"/><path class="cls-2" d="M157.8,43.43c1.56,1.79,2.33,2.69,2.66,3,2,2.18,1.79,1.83,2.36,2.51,1.21,1.46.8,1.1,1.76,2.2.25.29,1.37,1.14,1.79,1.57a8.26,8.26,0,0,1,1.25,1.77c.94,1.63,1.41,2.44,1.85,3.4.52,1.15.83,2.06,1,2.44a28.27,28.27,0,0,1,.89,3.47c.47,2.32.75,3.73,1,4.88H211.4c.08-.29.18-.64.28-1.1.32-1.39.22-1.58.5-2.71A14.91,14.91,0,0,1,213,62.2a15.78,15.78,0,0,1,1.6-2.85c.35-.5.78-1,1.64-2,1.18-1.38,1.77-2.06,2.39-2.65s1-.94,1.9-1.83c.69-.72,1.07-1.18,1.05-1.77a2.38,2.38,0,0,0-.36-1,3.24,3.24,0,0,0-.85-1,3.51,3.51,0,0,0-1.81-.52,9.07,9.07,0,0,0-2.65,0,9.65,9.65,0,0,0-2.85,1,11.4,11.4,0,0,0-4.39,3.83,17.33,17.33,0,0,0-1.11,2c-.27.54-.47,1-.85,1.77a21.35,21.35,0,0,1-1,2,3.41,3.41,0,0,1-1.21,1.38c-.25.14-.68.39-1,.22s-.41-.46-.62-1.27-.35-1.35-.43-1.8c-.22-1.4-.29-1.08-.65-3-.31-1.64-.43-2.78-.46-3.05-.06-.62-.12-1.24-.13-2.06,0-.21,0-.56.07-1.81s.12-2,.13-2.16c.12-1.74.18-2.61.26-3.37.24-2.32.42-2.45.62-4.75.08-.94.14-1.9.16-2.29s.06-1,.1-2.3,0-1.52.07-3,.06-2.46.13-3.5c.06-.88.1-1.75.16-2.62a8.65,8.65,0,0,0,0-2,4.06,4.06,0,0,0-.52-1.7,2.42,2.42,0,0,0-.88-.92,2.65,2.65,0,0,0-1.38-.26,3.19,3.19,0,0,0-1.51.29,3.06,3.06,0,0,0-1.08.95,3.8,3.8,0,0,0-.52,1.54c-.18,1-.23,1.55-.36,2.75s-.14,1.11-.26,2.26c-.09.79-.14,1.32-.2,2-.11,1.39,0,1.31-.13,2.09a21.71,21.71,0,0,1-.49,2.75c-.18.74-.24.85-.49,1.94-.13.52-.22.93-.33,1.47-.23,1.05-.34,1.57-.43,2.06-.22,1.23-.32,2.28-.36,2.72a20.51,20.51,0,0,1-.29,2.29c-.14.71-.27,1.1-.62,1.35a1.39,1.39,0,0,1-1.05.16,1.34,1.34,0,0,1-.79-.62A2.58,2.58,0,0,1,191,44c-.13-.86-.19-1.45-.26-2,0,0-.12-.88-.33-2.56-.34-2.62-.34-2.57-.4-3.08-.18-1.57-.27-2.36-.29-2.72s-.15-.63-.23-1.11-.12-.83-.23-1.34c-.22-1-.18-.92-.39-1.8s-.22-.89-.33-1.44-.16-.8-.2-1.12c-.07-.66,0-.75-.06-1.64,0-.56-.1-1-.13-1.24s-.11-.75-.23-1.31-.18-.61-.3-1.15c0-.2-.06-.32-.23-1.41a8,8,0,0,0-.29-1.6,3.6,3.6,0,0,0-.56-1.08,2.47,2.47,0,0,0-.75-.72,2.68,2.68,0,0,0-1.08-.36,3.18,3.18,0,0,0-1.21,0,2.48,2.48,0,0,0-1.05.42,2.88,2.88,0,0,0-.69.79,4.21,4.21,0,0,0-.36.79,4.93,4.93,0,0,0,0,2.26c.13.9,0-.1.3,2.94.15,1.34.18,1.49.22,2.1,0,.45.05.66.1,2.06.08,1.83.11,2.75.13,3.15.07,1.25.1,1.29.13,2.22s0,1.15.07,1.84.09.71.23,2,.1,1.23.2,1.86.16.8.32,1.77c.11.64.09.58.27,1.71a16,16,0,0,1,.26,1.83c0,.6.07,1.73-.33,1.87-.21.07-.51-.14-.56-.17a.9.9,0,0,1-.32-.36,5.76,5.76,0,0,1-.56-1.11c-.76-1.91-.28-.69-.39-1s-.49-1.15-.92-2.29c-.5-1.32-1.67-4.24-2-4.78s-.37-.76-.49-1c-.42-.94-.58-1.17-1.05-2.19-.75-1.65-1.16-2.54-1.6-3.73-.5-1.36-1.05-2.7-1.51-4.07a2.81,2.81,0,0,0-1-1.5,2.68,2.68,0,0,0-1.47-.46,2.5,2.5,0,0,0-1.51.36,2.39,2.39,0,0,0-1,1.34,3.23,3.23,0,0,0-.07,1.15,9,9,0,0,0,.62,3.08c.74,2,.28,1.59,1.51,5.57.5,1.61.9,2.72,1.7,4.94,1.12,3.09,1.68,4.64,2,5.47s.61,1.79,1,2.65a6.35,6.35,0,0,1,.55,2.53,1,1,0,0,1-.26.75c-.25.21-.59.16-1,.1a3.62,3.62,0,0,1-1-.35,16,16,0,0,1-3-2.37c-1.32-1.16-1.34-1.38-2.81-2.66s-1.83-1.37-3.17-2.66c-.69-.65-.94-1-1.78-1.69-.46-.41-.25-.21-1.92-1.56a5,5,0,0,0-1.62-1.1,3.22,3.22,0,0,0-1.55-.15,2.28,2.28,0,0,0-1.55.74,2.13,2.13,0,0,0-.37,1.55C156.33,41.73,156.82,42.31,157.8,43.43Z"/><path class="cls-1" d="M173.08,71.47c.57,1.89,1.11,3.25,1.34,3.8,1,2.35,1,1.74,1.92,4.06a5.59,5.59,0,0,0,1.26,2.22A5,5,0,0,0,180,82.77c.37.09,1.11.24,4.26-.1,1.91-.2,2.23-.32,3.5-.36a11.38,11.38,0,0,1,2.53.1c1.43.25,1.54.63,3.27,1.08a15.32,15.32,0,0,0,2.92.43c2,.12,2.75-.18,3.08-.37.09,0,.31-.19.65-.36.58-.28.68-.24,1.05-.45a6.3,6.3,0,0,0,.88-.69,9.58,9.58,0,0,0,.72-.66,8.34,8.34,0,0,0,1-1.24,15,15,0,0,0,.78-1.31,24.82,24.82,0,0,1,1.8-2.52c.94-1.32.74-1.22,1.84-2.79.5-.72.91-1.3,1.49-2.06Z"/></g></g></svg>