<svg xmlns="http://www.w3.org/2000/svg" viewBox="0 0 100.14 100.14"><defs><style>.cls-1{fill:#fff;}.cls-2{fill:#f15e5a;}</style></defs><g id="Layer_2" data-name="Layer 2"><g id="Layer_1-2" data-name="Layer 1"><path class="cls-1" d="M24.35,100.14H3.88A3.89,3.89,0,0,1,0,96.25V75.35a3.88,3.88,0,0,1,7.76,0v17H24.35a3.89,3.89,0,0,1,0,7.77Z"/><path class="cls-1" d="M96.25,100.14H75.73a3.89,3.89,0,0,1,0-7.77H92.37V74.26a3.89,3.89,0,0,1,7.77,0v22A3.89,3.89,0,0,1,96.25,100.14Z"/><path class="cls-1" d="M96.25,26.58a3.88,3.88,0,0,1-3.88-3.88V7.76H75.73a3.88,3.88,0,0,1,0-7.76H96.25a3.89,3.89,0,0,1,3.89,3.88V22.7A3.89,3.89,0,0,1,96.25,26.58Z"/><path class="cls-1" d="M3.88,26.58A3.88,3.88,0,0,1,0,22.7V3.88A3.88,3.88,0,0,1,3.88,0H23.24a3.88,3.88,0,1,1,0,7.76H7.76V22.7A3.88,3.88,0,0,1,3.88,26.58Z"/><rect class="cls-1" x="12.51" y="72.81" width="75.09" height="2.77" rx="1.39"/><path class="cls-2" d="M20.93,60.3a7.08,7.08,0,0,0,.89,1.89,5.36,5.36,0,0,0,1.81,1.58,4.15,4.15,0,0,0,2,.59,4.56,4.56,0,0,0,1.55-.29l.5-.17c.28,1.07.62,2.18,1,3.34.33.88.68,1.82,1.09,2.8H70.2a37.53,37.53,0,0,0,2.22-5.9.94.94,0,0,0,0-.16l.5.17a4.62,4.62,0,0,0,1.55.3,4.27,4.27,0,0,0,2-.59,5.59,5.59,0,0,0,1.81-1.59,6.71,6.71,0,0,0,.88-1.88,10.4,10.4,0,0,0,.63-2.51,7.69,7.69,0,0,0-.07-2.59,3.31,3.31,0,0,0-.89-1.95A2.93,2.93,0,0,0,77,52.67a7.89,7.89,0,0,0-2.55.59l-.53.16c0-.63.09-1.28.13-2,.06-.85.3-4.44.3-9.16A54.27,54.27,0,0,0,73.75,34a13.92,13.92,0,0,0-1.48-5,13.84,13.84,0,0,0-2.8-3.4,13.37,13.37,0,0,0-1.81-1.27h.55a29.58,29.58,0,0,0-3.87-3.16,33.58,33.58,0,0,0-4.65-2.6,28.22,28.22,0,0,0-5.65-2A29.11,29.11,0,0,0,50.72,16a24.59,24.59,0,0,0-3.21-.11c-.74,0-1,.06-1,.17s1,.54,1.93.83c2,.64,3.56.92,3.55,1a4.21,4.21,0,0,1-.94-.05,60.3,60.3,0,0,0-7.92-.33c-.18,0,0,0-6.42.44l-4.54.61s-.3,0-2.44.72a.88.88,0,0,0-.5.28c-.36.47.1,1.32.61,2.6a23.05,23.05,0,0,1,.83,2.49h0l.31.87-.14.07a21.29,21.29,0,0,0-2.95,4.87c-.81,1.85-1.52,4.24-1.78,11.66a87.88,87.88,0,0,0,.07,11.16l-.44-.12a7.85,7.85,0,0,0-2.54-.59,3,3,0,0,0-1.88.66,3.34,3.34,0,0,0-.89,2,7.15,7.15,0,0,0-.07,2.58A10.34,10.34,0,0,0,20.93,60.3ZM32.79,24.65l0,0h0Zm-.84,0h0Z"/><path class="cls-1" d="M33.05,75.58A22.25,22.25,0,0,0,35.18,78a20.79,20.79,0,0,0,8.56,5.31A22.32,22.32,0,0,0,57.18,83a20.94,20.94,0,0,0,5.75-3.1,19.52,19.52,0,0,0,4.15-4.36Z"/></g></g></svg>