<svg width="420" height="129" viewBox="0 0 420 129" fill="none" xmlns="http://www.w3.org/2000/svg">
<rect x="1.5" y="1.5" width="417" height="126" rx="24.5" stroke="url(#paint0_linear)" stroke-width="3"/>
<path d="M210.86 45.624C210.86 43.992 211.236 42.528 211.988 41.232C212.756 39.936 213.788 38.928 215.084 38.208C216.396 37.472 217.828 37.104 219.38 37.104C221.156 37.104 222.732 37.544 224.108 38.424C225.5 39.288 226.508 40.52 227.132 42.12H223.844C223.412 41.24 222.812 40.584 222.044 40.152C221.276 39.72 220.388 39.504 219.38 39.504C218.276 39.504 217.292 39.752 216.428 40.248C215.564 40.744 214.884 41.456 214.388 42.384C213.908 43.312 213.668 44.392 213.668 45.624C213.668 46.856 213.908 47.936 214.388 48.864C214.884 49.792 215.564 50.512 216.428 51.024C217.292 51.52 218.276 51.768 219.38 51.768C220.388 51.768 221.276 51.552 222.044 51.12C222.812 50.688 223.412 50.032 223.844 49.152H227.132C226.508 50.752 225.5 51.984 224.108 52.848C222.732 53.712 221.156 54.144 219.38 54.144C217.812 54.144 216.38 53.784 215.084 53.064C213.788 52.328 212.756 51.312 211.988 50.016C211.236 48.72 210.86 47.256 210.86 45.624ZM236.07 54.216C234.822 54.216 233.694 53.936 232.686 53.376C231.678 52.8 230.886 52 230.31 50.976C229.734 49.936 229.446 48.736 229.446 47.376C229.446 46.032 229.742 44.84 230.334 43.8C230.926 42.76 231.734 41.96 232.758 41.4C233.782 40.84 234.926 40.56 236.19 40.56C237.454 40.56 238.598 40.84 239.622 41.4C240.646 41.96 241.454 42.76 242.046 43.8C242.638 44.84 242.934 46.032 242.934 47.376C242.934 48.72 242.63 49.912 242.022 50.952C241.414 51.992 240.582 52.8 239.526 53.376C238.486 53.936 237.334 54.216 236.07 54.216ZM236.07 51.84C236.774 51.84 237.43 51.672 238.038 51.336C238.662 51 239.166 50.496 239.55 49.824C239.934 49.152 240.126 48.336 240.126 47.376C240.126 46.416 239.942 45.608 239.574 44.952C239.206 44.28 238.718 43.776 238.11 43.44C237.502 43.104 236.846 42.936 236.142 42.936C235.438 42.936 234.782 43.104 234.174 43.44C233.582 43.776 233.11 44.28 232.758 44.952C232.406 45.608 232.23 46.416 232.23 47.376C232.23 48.8 232.59 49.904 233.31 50.688C234.046 51.456 234.966 51.84 236.07 51.84ZM261.647 40.56C262.687 40.56 263.615 40.776 264.431 41.208C265.263 41.64 265.911 42.28 266.375 43.128C266.855 43.976 267.095 45 267.095 46.2V54H264.383V46.608C264.383 45.424 264.087 44.52 263.495 43.896C262.903 43.256 262.095 42.936 261.071 42.936C260.047 42.936 259.231 43.256 258.623 43.896C258.031 44.52 257.735 45.424 257.735 46.608V54H255.023V46.608C255.023 45.424 254.727 44.52 254.135 43.896C253.543 43.256 252.735 42.936 251.711 42.936C250.687 42.936 249.871 43.256 249.263 43.896C248.671 44.52 248.375 45.424 248.375 46.608V54H245.639V40.776H248.375V42.288C248.823 41.744 249.391 41.32 250.079 41.016C250.767 40.712 251.503 40.56 252.287 40.56C253.343 40.56 254.287 40.784 255.119 41.232C255.951 41.68 256.591 42.328 257.039 43.176C257.439 42.376 258.063 41.744 258.911 41.28C259.759 40.8 260.671 40.56 261.647 40.56ZM271.969 39.024C271.473 39.024 271.057 38.856 270.721 38.52C270.385 38.184 270.217 37.768 270.217 37.272C270.217 36.776 270.385 36.36 270.721 36.024C271.057 35.688 271.473 35.52 271.969 35.52C272.449 35.52 272.857 35.688 273.193 36.024C273.529 36.36 273.697 36.776 273.697 37.272C273.697 37.768 273.529 38.184 273.193 38.52C272.857 38.856 272.449 39.024 271.969 39.024ZM273.313 40.776V54H270.577V40.776H273.313ZM283.577 40.56C284.617 40.56 285.545 40.776 286.361 41.208C287.193 41.64 287.841 42.28 288.305 43.128C288.769 43.976 289.001 45 289.001 46.2V54H286.289V46.608C286.289 45.424 285.993 44.52 285.401 43.896C284.809 43.256 284.001 42.936 282.977 42.936C281.953 42.936 281.137 43.256 280.529 43.896C279.937 44.52 279.641 45.424 279.641 46.608V54H276.905V40.776H279.641V42.288C280.089 41.744 280.657 41.32 281.345 41.016C282.049 40.712 282.793 40.56 283.577 40.56ZM297.819 40.56C298.843 40.56 299.747 40.768 300.531 41.184C301.331 41.584 301.955 42.088 302.403 42.696V40.776H305.163V54.216C305.163 55.432 304.907 56.512 304.395 57.456C303.883 58.416 303.139 59.168 302.163 59.712C301.203 60.256 300.051 60.528 298.707 60.528C296.915 60.528 295.427 60.104 294.243 59.256C293.059 58.424 292.387 57.288 292.227 55.848H294.939C295.147 56.536 295.587 57.088 296.259 57.504C296.947 57.936 297.763 58.152 298.707 58.152C299.811 58.152 300.699 57.816 301.371 57.144C302.059 56.472 302.403 55.496 302.403 54.216V52.008C301.939 52.632 301.307 53.16 300.507 53.592C299.723 54.008 298.827 54.216 297.819 54.216C296.667 54.216 295.611 53.928 294.651 53.352C293.707 52.76 292.955 51.944 292.395 50.904C291.851 49.848 291.579 48.656 291.579 47.328C291.579 46 291.851 44.824 292.395 43.8C292.955 42.776 293.707 41.984 294.651 41.424C295.611 40.848 296.667 40.56 297.819 40.56ZM302.403 47.376C302.403 46.464 302.211 45.672 301.827 45C301.459 44.328 300.971 43.816 300.363 43.464C299.755 43.112 299.099 42.936 298.395 42.936C297.691 42.936 297.035 43.112 296.427 43.464C295.819 43.8 295.323 44.304 294.939 44.976C294.571 45.632 294.387 46.416 294.387 47.328C294.387 48.24 294.571 49.04 294.939 49.728C295.323 50.416 295.819 50.944 296.427 51.312C297.051 51.664 297.707 51.84 298.395 51.84C299.099 51.84 299.755 51.664 300.363 51.312C300.971 50.96 301.459 50.448 301.827 49.776C302.211 49.088 302.403 48.288 302.403 47.376ZM320.727 54.216C319.479 54.216 318.351 53.936 317.343 53.376C316.335 52.8 315.543 52 314.967 50.976C314.391 49.936 314.103 48.736 314.103 47.376C314.103 46.032 314.399 44.84 314.991 43.8C315.583 42.76 316.391 41.96 317.415 41.4C318.439 40.84 319.583 40.56 320.847 40.56C322.111 40.56 323.255 40.84 324.279 41.4C325.303 41.96 326.111 42.76 326.703 43.8C327.295 44.84 327.591 46.032 327.591 47.376C327.591 48.72 327.287 49.912 326.679 50.952C326.071 51.992 325.239 52.8 324.183 53.376C323.143 53.936 321.991 54.216 320.727 54.216ZM320.727 51.84C321.431 51.84 322.087 51.672 322.695 51.336C323.319 51 323.823 50.496 324.207 49.824C324.591 49.152 324.783 48.336 324.783 47.376C324.783 46.416 324.599 45.608 324.231 44.952C323.863 44.28 323.375 43.776 322.767 43.44C322.159 43.104 321.503 42.936 320.799 42.936C320.095 42.936 319.439 43.104 318.831 43.44C318.239 43.776 317.767 44.28 317.415 44.952C317.063 45.608 316.887 46.416 316.887 47.376C316.887 48.8 317.247 49.904 317.967 50.688C318.703 51.456 319.623 51.84 320.727 51.84ZM336.967 40.56C338.007 40.56 338.935 40.776 339.751 41.208C340.583 41.64 341.231 42.28 341.695 43.128C342.159 43.976 342.391 45 342.391 46.2V54H339.679V46.608C339.679 45.424 339.383 44.52 338.791 43.896C338.199 43.256 337.391 42.936 336.367 42.936C335.343 42.936 334.527 43.256 333.919 43.896C333.327 44.52 333.031 45.424 333.031 46.608V54H330.295V40.776H333.031V42.288C333.479 41.744 334.047 41.32 334.735 41.016C335.439 40.712 336.183 40.56 336.967 40.56ZM206.881 80.56C206.526 79.9067 206.013 79.412 205.341 79.076C204.688 78.7213 203.913 78.544 203.017 78.544C201.468 78.544 200.226 79.0573 199.293 80.084C198.36 81.092 197.893 82.4453 197.893 84.144C197.893 85.9547 198.378 87.3733 199.349 88.4C200.338 89.408 201.692 89.912 203.409 89.912C204.585 89.912 205.574 89.6133 206.377 89.016C207.198 88.4187 207.796 87.56 208.169 86.44H202.093V82.912H212.509V87.364C212.154 88.5587 211.548 89.6693 210.689 90.696C209.849 91.7227 208.776 92.5533 207.469 93.188C206.162 93.8227 204.688 94.14 203.045 94.14C201.104 94.14 199.368 93.72 197.837 92.88C196.325 92.0213 195.14 90.836 194.281 89.324C193.441 87.812 193.021 86.0853 193.021 84.144C193.021 82.2027 193.441 80.476 194.281 78.964C195.14 77.4333 196.325 76.248 197.837 75.408C199.349 74.5493 201.076 74.12 203.017 74.12C205.369 74.12 207.348 74.6893 208.953 75.828C210.577 76.9667 211.65 78.544 212.173 80.56H206.881ZM222.273 94.224C220.742 94.224 219.361 93.8973 218.129 93.244C216.916 92.5907 215.954 91.6573 215.245 90.444C214.554 89.2307 214.209 87.812 214.209 86.188C214.209 84.5827 214.564 83.1733 215.273 81.96C215.982 80.728 216.953 79.7853 218.185 79.132C219.417 78.4787 220.798 78.152 222.329 78.152C223.86 78.152 225.241 78.4787 226.473 79.132C227.705 79.7853 228.676 80.728 229.385 81.96C230.094 83.1733 230.449 84.5827 230.449 86.188C230.449 87.7933 230.085 89.212 229.357 90.444C228.648 91.6573 227.668 92.5907 226.417 93.244C225.185 93.8973 223.804 94.224 222.273 94.224ZM222.273 90.08C223.188 90.08 223.962 89.744 224.597 89.072C225.25 88.4 225.577 87.4387 225.577 86.188C225.577 84.9373 225.26 83.976 224.625 83.304C224.009 82.632 223.244 82.296 222.329 82.296C221.396 82.296 220.621 82.632 220.005 83.304C219.389 83.9573 219.081 84.9187 219.081 86.188C219.081 87.4387 219.38 88.4 219.977 89.072C220.593 89.744 221.358 90.08 222.273 90.08ZM240.101 94.224C238.571 94.224 237.189 93.8973 235.957 93.244C234.744 92.5907 233.783 91.6573 233.073 90.444C232.383 89.2307 232.037 87.812 232.037 86.188C232.037 84.5827 232.392 83.1733 233.101 81.96C233.811 80.728 234.781 79.7853 236.013 79.132C237.245 78.4787 238.627 78.152 240.157 78.152C241.688 78.152 243.069 78.4787 244.301 79.132C245.533 79.7853 246.504 80.728 247.213 81.96C247.923 83.1733 248.277 84.5827 248.277 86.188C248.277 87.7933 247.913 89.212 247.185 90.444C246.476 91.6573 245.496 92.5907 244.245 93.244C243.013 93.8973 241.632 94.224 240.101 94.224ZM240.101 90.08C241.016 90.08 241.791 89.744 242.425 89.072C243.079 88.4 243.405 87.4387 243.405 86.188C243.405 84.9373 243.088 83.976 242.453 83.304C241.837 82.632 241.072 82.296 240.157 82.296C239.224 82.296 238.449 82.632 237.833 83.304C237.217 83.9573 236.909 84.9187 236.909 86.188C236.909 87.4387 237.208 88.4 237.805 89.072C238.421 89.744 239.187 90.08 240.101 90.08ZM256.753 78.152C257.855 78.152 258.816 78.376 259.637 78.824C260.477 79.272 261.121 79.86 261.569 80.588V78.376H266.357V93.972C266.357 95.4093 266.068 96.7067 265.489 97.864C264.929 99.04 264.061 99.9733 262.885 100.664C261.728 101.355 260.281 101.7 258.545 101.7C256.231 101.7 254.355 101.149 252.917 100.048C251.48 98.9653 250.659 97.4907 250.453 95.624H255.185C255.335 96.2213 255.689 96.688 256.249 97.024C256.809 97.3787 257.5 97.556 258.321 97.556C259.311 97.556 260.095 97.2667 260.673 96.688C261.271 96.128 261.569 95.2227 261.569 93.972V91.76C261.103 92.488 260.459 93.0853 259.637 93.552C258.816 94 257.855 94.224 256.753 94.224C255.465 94.224 254.299 93.8973 253.253 93.244C252.208 92.572 251.377 91.6293 250.761 90.416C250.164 89.184 249.865 87.7653 249.865 86.16C249.865 84.5547 250.164 83.1453 250.761 81.932C251.377 80.7187 252.208 79.7853 253.253 79.132C254.299 78.4787 255.465 78.152 256.753 78.152ZM261.569 86.188C261.569 84.9933 261.233 84.0507 260.561 83.36C259.908 82.6693 259.105 82.324 258.153 82.324C257.201 82.324 256.389 82.6693 255.717 83.36C255.064 84.032 254.737 84.9653 254.737 86.16C254.737 87.3547 255.064 88.3067 255.717 89.016C256.389 89.7067 257.201 90.052 258.153 90.052C259.105 90.052 259.908 89.7067 260.561 89.016C261.233 88.3253 261.569 87.3827 261.569 86.188ZM274.609 73.28V94H269.821V73.28H274.609ZM292.807 85.936C292.807 86.384 292.779 86.8507 292.723 87.336H281.887C281.962 88.3067 282.27 89.0533 282.811 89.576C283.371 90.08 284.052 90.332 284.855 90.332C286.05 90.332 286.88 89.828 287.347 88.82H292.443C292.182 89.8467 291.706 90.7707 291.015 91.592C290.343 92.4133 289.494 93.0573 288.467 93.524C287.44 93.9907 286.292 94.224 285.023 94.224C283.492 94.224 282.13 93.8973 280.935 93.244C279.74 92.5907 278.807 91.6573 278.135 90.444C277.463 89.2307 277.127 87.812 277.127 86.188C277.127 84.564 277.454 83.1453 278.107 81.932C278.779 80.7187 279.712 79.7853 280.907 79.132C282.102 78.4787 283.474 78.152 285.023 78.152C286.535 78.152 287.879 78.4693 289.055 79.104C290.231 79.7387 291.146 80.644 291.799 81.82C292.471 82.996 292.807 84.368 292.807 85.936ZM287.907 84.676C287.907 83.8547 287.627 83.2013 287.067 82.716C286.507 82.2307 285.807 81.988 284.967 81.988C284.164 81.988 283.483 82.2213 282.923 82.688C282.382 83.1547 282.046 83.8173 281.915 84.676H287.907ZM316.247 80.672C316.247 81.8107 315.985 82.856 315.463 83.808C314.94 84.7413 314.137 85.4973 313.055 86.076C311.972 86.6547 310.628 86.944 309.023 86.944H306.055V94H301.267V74.344H309.023C310.591 74.344 311.916 74.6147 312.999 75.156C314.081 75.6973 314.893 76.444 315.435 77.396C315.976 78.348 316.247 79.44 316.247 80.672ZM308.659 83.136C309.573 83.136 310.255 82.9213 310.703 82.492C311.151 82.0627 311.375 81.456 311.375 80.672C311.375 79.888 311.151 79.2813 310.703 78.852C310.255 78.4227 309.573 78.208 308.659 78.208H306.055V83.136H308.659ZM323.527 73.28V94H318.739V73.28H323.527ZM326.045 86.16C326.045 84.5547 326.344 83.1453 326.941 81.932C327.557 80.7187 328.388 79.7853 329.433 79.132C330.478 78.4787 331.645 78.152 332.933 78.152C334.034 78.152 334.996 78.376 335.817 78.824C336.657 79.272 337.301 79.86 337.749 80.588V78.376H342.537V94H337.749V91.788C337.282 92.516 336.629 93.104 335.789 93.552C334.968 94 334.006 94.224 332.905 94.224C331.636 94.224 330.478 93.8973 329.433 93.244C328.388 92.572 327.557 91.6293 326.941 90.416C326.344 89.184 326.045 87.7653 326.045 86.16ZM337.749 86.188C337.749 84.9933 337.413 84.0507 336.741 83.36C336.088 82.6693 335.285 82.324 334.333 82.324C333.381 82.324 332.569 82.6693 331.897 83.36C331.244 84.032 330.917 84.9653 330.917 86.16C330.917 87.3547 331.244 88.3067 331.897 89.016C332.569 89.7067 333.381 90.052 334.333 90.052C335.285 90.052 336.088 89.7067 336.741 89.016C337.413 88.3253 337.749 87.3827 337.749 86.188ZM361.961 78.376L352.161 101.42H347.009L350.593 93.468L344.237 78.376H349.585L353.197 88.148L356.781 78.376H361.961Z" fill="#7FDB9C"/>
<path d="M106.67 62.2033L78.2197 33.6768L114.417 54.4565L106.67 62.2033ZM70.7967 32C69.1199 32.8766 68 34.475 68 36.5499V93.4357C68 95.5106 69.122 97.109 70.7967 97.9856L103.875 64.9856L70.7967 32ZM125.606 61.0813L118.014 56.6861L109.545 65L118.014 73.3139L125.76 68.9188C128.081 67.0769 128.081 62.9251 125.606 61.0813ZM78.2218 96.3252L114.419 75.5456L106.672 67.7988L78.2218 96.3252Z" fill="white"/>
<defs>
<linearGradient id="paint0_linear" x1="0" y1="63.5652" x2="420" y2="63.5652" gradientUnits="userSpaceOnUse">
<stop stop-color="#7FDB9C"/>
<stop offset="1" stop-color="#EA5757"/>
</linearGradient>
</defs>
</svg>
