<svg xmlns="http://www.w3.org/2000/svg" viewBox="0 0 100.14 100.14"><defs><style>.cls-1{fill:#fff;}.cls-2{fill:#f15e5a;}.cls-3{fill:none;}</style></defs><g id="Layer_2" data-name="Layer 2"><g id="Layer_1-2" data-name="Layer 1"><path class="cls-1" d="M15.91,50.12c0-11.58.05-23.16,0-34.73a8.22,8.22,0,0,1,7.93-7.92q20.11,0,40.23,0a8.89,8.89,0,0,1,6.71,2.92c2.58,2.7,5.19,5.37,7.78,8.06,1.12,1.17,2.23,2.34,3.33,3.53a8.57,8.57,0,0,1,2.39,6.16q0,22.42,0,44.87c0,4,0,7.91,0,11.86,0,3.36-1.74,5.6-4.62,7.07a7.14,7.14,0,0,1-3.33.72q-26.16,0-52.32,0A8.22,8.22,0,0,1,16,86.45a6,6,0,0,1-.13-1.28V50.12Zm4,0V74.49c0,3.27,0,6.54,0,9.81a3.87,3.87,0,0,0,3.51,4.18c.6.06,1.21.13,1.82.13q13.05,0,26.1,0,12,0,23.94,0a8.53,8.53,0,0,0,2.13-.28,3.87,3.87,0,0,0,2.77-4c0-5.32,0-10.64,0-16q0-18.56,0-37.1A3.87,3.87,0,0,0,80,30a3.65,3.65,0,0,0-3.66-2.48c-2.09,0-4.17,0-6.26,0a4.25,4.25,0,0,1-4.56-4.59c0-2.27,0-4.53,0-6.8A12.84,12.84,0,0,0,65.31,14a3,3,0,0,0-3-2.45c-1,0-2.08,0-3.12,0q-17.27,0-34.52,0a6.61,6.61,0,0,0-2.11.34c-1.7.58-2.64,2.15-2.64,4.27Z"/><path class="cls-2" d="M50,73.24a20,20,0,1,1,20-19.78A20,20,0,0,1,50,73.24ZM43,51.13l-.7.13c-1.15.15-1.26.27-1.26,1.44V64.81a4.51,4.51,0,0,0,0,.52.88.88,0,0,0,.92.93,4.34,4.34,0,0,0,.51,0h15.2a5.72,5.72,0,0,0,.59,0,.86.86,0,0,0,.8-.81,6.1,6.1,0,0,0,0-.74V54c0-.59,0-1.18,0-1.76a.85.85,0,0,0-.76-.93c-.38-.09-.77-.1-1.21-.16,0-.27,0-.53-.06-.79,0-1.06,0-2.11,0-3.16A8.64,8.64,0,0,0,56.69,45a7,7,0,0,0-13.62,2.14c0,1,0,2.1,0,3.15A7.64,7.64,0,0,1,43,51.13Z"/><path class="cls-2" d="M54.71,51.14H45.47c0-.3-.06-.53-.06-.77,0-1,0-2.1,0-3.15a4.64,4.64,0,0,1,4.38-4.58,4.58,4.58,0,0,1,4.79,3.78A33.58,33.58,0,0,1,54.71,51.14Z"/><path class="cls-2" d="M51.62,62.75h-3c0-.19,0-.35,0-.51.08-.85.14-1.71.26-2.55a1.21,1.21,0,0,0-.23-1,1.67,1.67,0,0,1,0-2.05,1.79,1.79,0,0,1,1.79-.75,1.66,1.66,0,0,1,1.43,1.47,2.26,2.26,0,0,1-.31,1.3,1.51,1.51,0,0,0-.22,1.09C51.44,60.7,51.52,61.67,51.62,62.75Z"/><rect class="cls-3" width="100.14" height="100.14"/></g></g></svg>