<svg xmlns="http://www.w3.org/2000/svg" xmlns:xlink="http://www.w3.org/1999/xlink" viewBox="0 0 126.43 84.51"><defs><style>.cls-1,.cls-2,.cls-3{fill:#5c5470;}.cls-1{opacity:0.6;}.cls-2{opacity:0.8;}.cls-4{fill:url(#linear-gradient);}.cls-5{fill:#fff;}</style><linearGradient id="linear-gradient" y1="77.22" x2="67.33" y2="77.22" gradientUnits="userSpaceOnUse"><stop offset="0" stop-color="#5c5470" stop-opacity="0.6"/><stop offset="1" stop-color="#5c5470"/></linearGradient></defs><g id="Layer_2" data-name="Layer 2"><g id="Layer_1-2" data-name="Layer 1"><path class="cls-1" d="M89.14.05c-.88,1.12-15.6,19.53-40.24,18.27V49L48,48.34l-.12-.09a26,26,0,0,1-10.09-19l-.58-9.36V0c6.41,5.44,15.67,8.86,26,8.86S82.71,5.45,89.14.05Z"/><path class="cls-2" d="M89.19,0S84,24.5,63.21,28.84V60L48.9,49V18.32C73.54,19.58,88.26,1.17,89.14.05Z"/><path class="cls-3" d="M89.19,0V19.68l-.61,9.6a25.86,25.86,0,0,1-10.09,19L63.21,60V28.84C84,24.5,89.19,0,89.19,0Z"/><path class="cls-4" d="M9.48,78a5.45,5.45,0,0,1-3.57,1H3v5.12H0V69.94H6.11A4.88,4.88,0,0,1,9.47,71a4.26,4.26,0,0,1,1.26,3.4A4.41,4.41,0,0,1,9.48,78ZM7.21,72.88a2.37,2.37,0,0,0-1.58-.48H3v4.19H5.63a2.27,2.27,0,0,0,1.58-.51,2.07,2.07,0,0,0,.57-1.62A1.94,1.94,0,0,0,7.21,72.88Zm9.84,4.88a4,4,0,0,0,1.1-.24.82.82,0,0,0,.59-.78,1,1,0,0,0-.45-.9A2.92,2.92,0,0,0,17,75.6a1.75,1.75,0,0,0-1.4.48,1.91,1.91,0,0,0-.39,1H12.51a4,4,0,0,1,.78-2.27c.73-.93,2-1.39,3.76-1.39a6.81,6.81,0,0,1,3.08.68,2.63,2.63,0,0,1,1.35,2.59v4.82c0,.34,0,.74,0,1.22a1.51,1.51,0,0,0,.17.73.93.93,0,0,0,.4.32v.41h-3a3.48,3.48,0,0,1-.17-.6c0-.19-.06-.4-.08-.64a5.66,5.66,0,0,1-1.32,1,4,4,0,0,1-2,.51,3.51,3.51,0,0,1-2.37-.81,2.9,2.9,0,0,1-.93-2.31,3,3,0,0,1,1.5-2.81,6.92,6.92,0,0,1,2.43-.68ZM18.74,79a3.4,3.4,0,0,1-.54.27,4.31,4.31,0,0,1-.74.19l-.62.11a4,4,0,0,0-1.27.38,1.26,1.26,0,0,0-.65,1.16,1.23,1.23,0,0,0,.4,1,1.53,1.53,0,0,0,1,.32A2.94,2.94,0,0,0,18,82a2.24,2.24,0,0,0,.79-1.9Zm11-5.65.23,0v2.82a4.09,4.09,0,0,0-.46,0h-.33a2.26,2.26,0,0,0-2.22,1.08,4.08,4.08,0,0,0-.32,1.87v5H23.85V73.64h2.62v1.83A5.88,5.88,0,0,1,27.58,74a3,3,0,0,1,2-.65Zm6,4.37a4.07,4.07,0,0,0,1.1-.24.84.84,0,0,0,.59-.78,1,1,0,0,0-.45-.9,3,3,0,0,0-1.34-.24,1.77,1.77,0,0,0-1.4.48,2.1,2.1,0,0,0-.39,1H31.19A4.11,4.11,0,0,1,32,74.78a4.52,4.52,0,0,1,3.76-1.39,6.82,6.82,0,0,1,3.09.68,2.64,2.64,0,0,1,1.34,2.59v4.82c0,.34,0,.74,0,1.22a1.41,1.41,0,0,0,.17.73.88.88,0,0,0,.4.32v.41h-3a3.48,3.48,0,0,1-.17-.6,5.31,5.31,0,0,1-.08-.64,5.66,5.66,0,0,1-1.32,1,4,4,0,0,1-2,.51,3.48,3.48,0,0,1-2.37-.81,2.87,2.87,0,0,1-.94-2.31,3,3,0,0,1,1.51-2.81,6.92,6.92,0,0,1,2.43-.68ZM37.41,79a2.94,2.94,0,0,1-.53.27,4.57,4.57,0,0,1-.74.19l-.63.11a4,4,0,0,0-1.26.38,1.26,1.26,0,0,0-.65,1.16,1.2,1.2,0,0,0,.4,1,1.48,1.48,0,0,0,1,.32A2.91,2.91,0,0,0,36.62,82a2.21,2.21,0,0,0,.79-1.9Zm8,5.12H42.61V69.94h2.75Zm5.49,0H48.1V69.94h2.75Zm9.53-10.31a4.27,4.27,0,0,1,1.82,1.56A5.19,5.19,0,0,1,63,77.58a14.57,14.57,0,0,1,.09,2.09H55.47a2.53,2.53,0,0,0,1.1,2.22,2.84,2.84,0,0,0,1.52.39,2.33,2.33,0,0,0,1.52-.48,2.12,2.12,0,0,0,.57-.72H63A3.51,3.51,0,0,1,62,83a5.12,5.12,0,0,1-4,1.53,5.73,5.73,0,0,1-3.7-1.29A5.1,5.1,0,0,1,52.7,79a5.72,5.72,0,0,1,1.45-4.19,5.09,5.09,0,0,1,3.76-1.46A5.92,5.92,0,0,1,60.38,73.85Zm-4.11,2.38a2.84,2.84,0,0,0-.73,1.63h4.74a2.32,2.32,0,0,0-.74-1.67,2.44,2.44,0,0,0-1.63-.56A2.19,2.19,0,0,0,56.27,76.23Zm11.06,7.93H64.58V69.94h2.75Z"/><path class="cls-5" d="M72.17,69.94,74,78.08l.41,2.26.41-2.21,1.61-8.19H79.6l1.69,8.14.44,2.26.44-2.17,1.89-8.23h3l-4,14.22H80.24l-1.72-8.32L78,73.09l-.5,2.75L75.8,84.16H73L69,69.94Z"/><path class="cls-5" d="M92.82,77.76a4.07,4.07,0,0,0,1.1-.24.82.82,0,0,0,.59-.78,1,1,0,0,0-.45-.9,2.94,2.94,0,0,0-1.34-.24,1.74,1.74,0,0,0-1.39.48,2,2,0,0,0-.4,1H88.28a4,4,0,0,1,.78-2.27c.73-.93,2-1.39,3.76-1.39a6.81,6.81,0,0,1,3.08.68,2.63,2.63,0,0,1,1.34,2.59v4.82c0,.34,0,.74,0,1.22a1.51,1.51,0,0,0,.17.73.93.93,0,0,0,.4.32v.41h-3a3.48,3.48,0,0,1-.17-.6c0-.19-.06-.4-.08-.64a5.66,5.66,0,0,1-1.32,1,4,4,0,0,1-2,.51,3.5,3.5,0,0,1-2.37-.81,2.9,2.9,0,0,1-.94-2.31,3,3,0,0,1,1.51-2.81,6.92,6.92,0,0,1,2.43-.68ZM94.5,79a2.94,2.94,0,0,1-.53.27,4.57,4.57,0,0,1-.74.19l-.62.11a4,4,0,0,0-1.27.38,1.26,1.26,0,0,0-.65,1.16,1.23,1.23,0,0,0,.4,1,1.5,1.5,0,0,0,1,.32A2.94,2.94,0,0,0,93.72,82a2.24,2.24,0,0,0,.78-1.9Z"/><path class="cls-5" d="M102.45,84.16H99.7V69.94h2.75Z"/><path class="cls-5" d="M107.94,84.16h-2.75V69.94h2.75Z"/><path class="cls-5" d="M117.48,73.85a4.24,4.24,0,0,1,1.81,1.56,5.19,5.19,0,0,1,.84,2.17,12.11,12.11,0,0,1,.09,2.09h-7.66a2.56,2.56,0,0,0,1.1,2.22,2.84,2.84,0,0,0,1.52.39,2.35,2.35,0,0,0,1.53-.48,2.23,2.23,0,0,0,.56-.72h2.81a3.51,3.51,0,0,1-1,1.9,5.12,5.12,0,0,1-4,1.53,5.73,5.73,0,0,1-3.7-1.29A5.1,5.1,0,0,1,109.79,79a5.72,5.72,0,0,1,1.45-4.19A5.09,5.09,0,0,1,115,73.36,6,6,0,0,1,117.48,73.85Zm-4.12,2.38a2.84,2.84,0,0,0-.73,1.63h4.74a2.35,2.35,0,0,0-.73-1.67,2.47,2.47,0,0,0-1.64-.56A2.19,2.19,0,0,0,113.36,76.23Z"/><path class="cls-5" d="M120.53,75.7v-2H122V70.8h2.72v2.94h1.71v2h-1.71v5.55a1.28,1.28,0,0,0,.16.81,1.9,1.9,0,0,0,1,.16h.54v2l-1.31,0a3.54,3.54,0,0,1-2.66-.67,2,2,0,0,1-.46-1.46V75.7Z"/></g></g></svg>