<svg xmlns="http://www.w3.org/2000/svg" viewBox="0 0 126.4 84.19"><defs><style>.cls-1,.cls-2,.cls-3{fill:#fff;}.cls-1{opacity:0.6;}.cls-2{opacity:0.8;}</style></defs><g id="Layer_2" data-name="Layer 2"><g id="Layer_1-2" data-name="Layer 1"><path class="cls-1" d="M88.59.05C87.71,1.17,73,19.58,48.35,18.32V49l-.88-.68-.11-.09a26,26,0,0,1-10.09-19l-.58-9.36V0c6.41,5.44,15.67,8.86,26,8.86S82.16,5.45,88.59.05Z"/><path class="cls-2" d="M88.64,0s-5.22,24.5-26,28.84V60L48.35,49V18.32C73,19.58,87.71,1.17,88.59.05Z"/><path class="cls-3" d="M88.64,0V19.68L88,29.28a25.9,25.9,0,0,1-10.09,19L62.66,60V28.84C83.42,24.5,88.64,0,88.64,0Z"/><path class="cls-3" d="M9.53,77.64a5.44,5.44,0,0,1-3.58,1H3v5.15H0V69.53H6.14a5,5,0,0,1,3.39,1.1,4.33,4.33,0,0,1,1.26,3.43A4.43,4.43,0,0,1,9.53,77.64ZM7.25,72.49A2.4,2.4,0,0,0,5.66,72H3v4.21H5.66a2.3,2.3,0,0,0,1.59-.51,2.11,2.11,0,0,0,.57-1.63A2,2,0,0,0,7.25,72.49Z"/><path class="cls-3" d="M17.15,77.39a4.07,4.07,0,0,0,1.1-.24.83.83,0,0,0,.6-.78.92.92,0,0,0-.46-.9,2.8,2.8,0,0,0-1.34-.25,1.76,1.76,0,0,0-1.41.49,2.1,2.1,0,0,0-.39,1H12.58a4,4,0,0,1,.78-2.28A4.53,4.53,0,0,1,17.14,73a6.74,6.74,0,0,1,3.1.69,2.64,2.64,0,0,1,1.35,2.6v4.85c0,.34,0,.74,0,1.22a1.56,1.56,0,0,0,.17.74,1,1,0,0,0,.41.32v.41h-3a3.42,3.42,0,0,1-.18-.61c0-.18-.05-.4-.07-.64a5.7,5.7,0,0,1-1.33,1.06,4.06,4.06,0,0,1-2,.52,3.55,3.55,0,0,1-2.39-.82A3,3,0,0,1,12.24,81a3,3,0,0,1,1.52-2.82,6.77,6.77,0,0,1,2.44-.68Zm1.69,1.29a3.4,3.4,0,0,1-.54.27,4.31,4.31,0,0,1-.74.19l-.63.12a4,4,0,0,0-1.27.38A1.26,1.26,0,0,0,15,80.81a1.21,1.21,0,0,0,.4,1,1.51,1.51,0,0,0,1,.32,2.9,2.9,0,0,0,1.67-.53,2.21,2.21,0,0,0,.79-1.91Z"/><path class="cls-3" d="M29.88,73l.24,0v2.83l-.46,0h-.33a2.29,2.29,0,0,0-2.24,1.09,4.13,4.13,0,0,0-.32,1.88v5.06H24V73.25h2.64V75.1a5.81,5.81,0,0,1,1.12-1.45,3,3,0,0,1,2-.65Z"/><path class="cls-3" d="M35.93,77.39a4.07,4.07,0,0,0,1.1-.24.83.83,0,0,0,.6-.78.92.92,0,0,0-.46-.9,2.8,2.8,0,0,0-1.34-.25,1.76,1.76,0,0,0-1.41.49,2.1,2.1,0,0,0-.39,1H31.36a4,4,0,0,1,.78-2.28A4.53,4.53,0,0,1,35.92,73a6.71,6.71,0,0,1,3.1.69,2.65,2.65,0,0,1,1.36,2.6v4.85c0,.34,0,.74,0,1.22a1.56,1.56,0,0,0,.17.74,1,1,0,0,0,.41.32v.41H38a3.33,3.33,0,0,1-.17-.61,5.06,5.06,0,0,1-.08-.64,5.7,5.7,0,0,1-1.33,1.06,4,4,0,0,1-2,.52A3.51,3.51,0,0,1,32,83.34,2.92,2.92,0,0,1,31,81a3,3,0,0,1,1.52-2.82A6.77,6.77,0,0,1,35,77.51Zm1.69,1.29a3.4,3.4,0,0,1-.54.27,4.31,4.31,0,0,1-.74.19l-.63.12a4,4,0,0,0-1.27.38,1.26,1.26,0,0,0-.65,1.17,1.21,1.21,0,0,0,.4,1,1.51,1.51,0,0,0,1,.32,2.9,2.9,0,0,0,1.67-.53,2.21,2.21,0,0,0,.79-1.91Z"/><path class="cls-3" d="M45.61,83.83H42.85V69.53h2.76Z"/><path class="cls-3" d="M51.13,83.83H48.37V69.53h2.76Z"/><path class="cls-3" d="M60.72,73.47A4.29,4.29,0,0,1,62.55,75a5.28,5.28,0,0,1,.84,2.19,12.06,12.06,0,0,1,.09,2.09h-7.7a2.53,2.53,0,0,0,1.11,2.24,2.84,2.84,0,0,0,1.52.39A2.38,2.38,0,0,0,60,81.46a2.57,2.57,0,0,0,.57-.73h2.82a3.46,3.46,0,0,1-1,1.91,5.12,5.12,0,0,1-4,1.55,5.77,5.77,0,0,1-3.73-1.31A5.09,5.09,0,0,1,53,78.65a5.71,5.71,0,0,1,1.45-4.21A5.09,5.09,0,0,1,58.23,73,6.05,6.05,0,0,1,60.72,73.47Zm-4.13,2.38a2.84,2.84,0,0,0-.74,1.64h4.76a2.31,2.31,0,0,0-.73-1.67,2.44,2.44,0,0,0-1.64-.57A2.2,2.2,0,0,0,56.59,75.85Z"/><path class="cls-3" d="M67.7,83.83H64.94V69.53H67.7Z"/><path class="cls-3" d="M72.57,69.53l1.89,8.19L74.87,80l.41-2.23,1.61-8.23h3.16l1.7,8.18L82.18,80l.44-2.19,1.91-8.27h3l-4,14.3H80.69L79,75.46l-.5-2.76L78,75.46l-1.72,8.37H73.45l-4-14.3Z"/><path class="cls-3" d="M92.61,77.39a4.07,4.07,0,0,0,1.11-.24.84.84,0,0,0,.59-.78.93.93,0,0,0-.45-.9,2.87,2.87,0,0,0-1.35-.25,1.72,1.72,0,0,0-1.4.49,2,2,0,0,0-.4,1H88.05a3.9,3.9,0,0,1,.78-2.28c.73-.94,2-1.4,3.78-1.4a6.7,6.7,0,0,1,3.09.69,2.63,2.63,0,0,1,1.36,2.6v4.85c0,.34,0,.74,0,1.22a1.59,1.59,0,0,0,.16.74,1,1,0,0,0,.41.32v.41h-3a3.33,3.33,0,0,1-.17-.61c0-.18-.06-.4-.08-.64a5.5,5.5,0,0,1-1.33,1.06,4,4,0,0,1-2,.52,3.53,3.53,0,0,1-2.38-.82A2.92,2.92,0,0,1,87.71,81a3,3,0,0,1,1.51-2.82,6.83,6.83,0,0,1,2.45-.68Zm1.69,1.29a2.94,2.94,0,0,1-.53.27,4.57,4.57,0,0,1-.74.19l-.63.12a4.1,4.1,0,0,0-1.28.38,1.26,1.26,0,0,0-.65,1.17,1.21,1.21,0,0,0,.4,1,1.53,1.53,0,0,0,1,.32,2.88,2.88,0,0,0,1.67-.53,2.21,2.21,0,0,0,.79-1.91Z"/><path class="cls-3" d="M102.3,83.83H99.53V69.53h2.77Z"/><path class="cls-3" d="M107.82,83.83h-2.77V69.53h2.77Z"/><path class="cls-3" d="M117.4,73.47A4.29,4.29,0,0,1,119.23,75a5.14,5.14,0,0,1,.84,2.19,12.93,12.93,0,0,1,.1,2.09h-7.71a2.57,2.57,0,0,0,1.11,2.24,2.84,2.84,0,0,0,1.52.39,2.36,2.36,0,0,0,1.54-.48,2.57,2.57,0,0,0,.57-.73H120a3.44,3.44,0,0,1-1,1.91,5.15,5.15,0,0,1-4,1.55,5.77,5.77,0,0,1-3.73-1.31,5.12,5.12,0,0,1-1.61-4.23,5.67,5.67,0,0,1,1.46-4.21A5.09,5.09,0,0,1,114.92,73,6,6,0,0,1,117.4,73.47Zm-4.13,2.38a2.91,2.91,0,0,0-.74,1.64h4.76a2.31,2.31,0,0,0-.73-1.67,2.43,2.43,0,0,0-1.64-.57A2.2,2.2,0,0,0,113.27,75.85Z"/><path class="cls-3" d="M120.48,75.32v-2H122V70.4h2.74v2.95h1.71v2h-1.71v5.59a1.28,1.28,0,0,0,.16.81,1.9,1.9,0,0,0,1,.16h.54v2.06l-1.31,0a3.48,3.48,0,0,1-2.67-.68,2,2,0,0,1-.47-1.46V75.32Z"/></g></g></svg>