<svg xmlns="http://www.w3.org/2000/svg" viewBox="0 0 100.14 100.14"><defs><style>.cls-1{fill:#fff;}.cls-2{fill:#f15e5a;}</style></defs><g id="Layer_2" data-name="Layer 2"><g id="Layer_1-2" data-name="Layer 1"><path class="cls-1" d="M24.35,100.14H3.88A3.89,3.89,0,0,1,0,96.25V75.35a3.88,3.88,0,0,1,7.76,0v17H24.35a3.89,3.89,0,0,1,0,7.77Z"/><path class="cls-1" d="M96.25,100.14H75.73a3.89,3.89,0,0,1,0-7.77H92.37V74.26a3.89,3.89,0,0,1,7.77,0v22A3.89,3.89,0,0,1,96.25,100.14Z"/><path class="cls-1" d="M96.25,26.58a3.88,3.88,0,0,1-3.88-3.88V7.76H75.73a3.88,3.88,0,0,1,0-7.76H96.25a3.89,3.89,0,0,1,3.89,3.88V22.7A3.89,3.89,0,0,1,96.25,26.58Z"/><path class="cls-1" d="M3.88,26.58A3.88,3.88,0,0,1,0,22.7V3.88A3.88,3.88,0,0,1,3.88,0H23.24a3.88,3.88,0,1,1,0,7.76H7.76V22.7A3.88,3.88,0,0,1,3.88,26.58Z"/><path class="cls-1" d="M79.75,55.29a3.36,3.36,0,0,0-.88-1.95A3,3,0,0,0,77,52.67a7.85,7.85,0,0,0-2.54.59l-.54.16v0l-6.52,3c1.76,3.2,1.51,5,1.29,6.35a6.1,6.1,0,0,0-.11,1.31,20.89,20.89,0,0,1-.27,5.54L72,65.65c.16-.48.32-1,.47-1.51a.94.94,0,0,1,0-.16l.5.17a4.56,4.56,0,0,0,1.55.29,4.12,4.12,0,0,0,2-.59,5.36,5.36,0,0,0,1.81-1.58,7,7,0,0,0,.89-1.88,10.6,10.6,0,0,0,.62-2.51A7.2,7.2,0,0,0,79.75,55.29Z"/><path class="cls-1" d="M67.49,72a3.36,3.36,0,0,1-.33.44.72.72,0,0,1-.19.11l0,0H33.18a.53.53,0,0,1-.27-.13,2.92,2.92,0,0,1-.45-.66L29,67.93A25.73,25.73,0,0,0,35.07,78a20.78,20.78,0,0,0,8.56,5.32A22.42,22.42,0,0,0,57.07,83a20.4,20.4,0,0,0,5.75-3.1,23.1,23.1,0,0,0,6.05-7.38,33.82,33.82,0,0,0,2.18-4.45Z"/><path class="cls-1" d="M27.67,63.9c.14.53.3,1.08.47,1.63l3.61,4a21.43,21.43,0,0,1-.25-5.42,5.52,5.52,0,0,0-.11-1.31c-.22-1.41-.46-3.15,1.31-6.36l-6.57-3.11v0l-.43-.12a7.89,7.89,0,0,0-2.55-.59,3,3,0,0,0-1.88.66,3.34,3.34,0,0,0-.89,2,7.64,7.64,0,0,0-.07,2.58,10.27,10.27,0,0,0,.63,2.51,6.58,6.58,0,0,0,.88,1.88,5.36,5.36,0,0,0,1.81,1.59,4.15,4.15,0,0,0,2,.59,4.51,4.51,0,0,0,1.55-.29Z"/><rect class="cls-1" x="12.47" y="40.58" width="75.09" height="2.77" rx="1.39"/><path class="cls-1" d="M26.13,40.58c0,.5,0,1-.06,1.57a95.06,95.06,0,0,0,0,10l7.45,3.53H66.59L74,52.26c0-.27,0-.53.06-.82.06-.84.3-4.43.3-9.15,0-.47,0-1,0-1.71Z"/><path class="cls-2" d="M27.84,30.48c-.62,1.43-1.18,3.19-1.53,7.33H74.18c-.09-1.14-.23-2.41-.44-3.78a13.86,13.86,0,0,0-1.47-5,14,14,0,0,0-2.81-3.4,12,12,0,0,0-1.81-1.26h.56a29.12,29.12,0,0,0-3.88-3.15,31.76,31.76,0,0,0-4.64-2.61,29.12,29.12,0,0,0-5.65-2A26.85,26.85,0,0,0,50.72,16a22.61,22.61,0,0,0-3.21-.11c-.74,0-1,.06-1,.16s1,.54,1.93.83c2,.65,3.56.92,3.55,1a5,5,0,0,1-.95-.06,61.89,61.89,0,0,0-7.91-.33c-.18,0,0,0-6.42.45l-4.54.6s-.29,0-2.44.72a.91.91,0,0,0-.49.28c-.37.47.1,1.32.6,2.6a23.5,23.5,0,0,1,.84,2.49h0l.3.88-.14.06A21.29,21.29,0,0,0,27.84,30.48Zm4.95-5.83,0,0h0Zm-.84,0h0Z"/></g></g></svg>