<svg xmlns="http://www.w3.org/2000/svg" viewBox="0 0 100.14 100.14"><defs><style>.cls-1{fill:#fff;}.cls-2{fill:#f15e5a;}</style></defs><g id="Layer_2" data-name="Layer 2"><g id="Layer_1-2" data-name="Layer 1"><path class="cls-1" d="M24.35,100.14H3.88A3.89,3.89,0,0,1,0,96.25V75.35a3.88,3.88,0,0,1,7.76,0v17H24.35a3.89,3.89,0,0,1,0,7.77Z"/><path class="cls-1" d="M96.25,100.14H75.73a3.89,3.89,0,0,1,0-7.77H92.37V74.26a3.89,3.89,0,0,1,7.77,0v22A3.89,3.89,0,0,1,96.25,100.14Z"/><path class="cls-1" d="M96.25,26.58a3.88,3.88,0,0,1-3.88-3.88V7.76H75.73a3.88,3.88,0,0,1,0-7.76H96.25a3.89,3.89,0,0,1,3.89,3.88V22.7A3.89,3.89,0,0,1,96.25,26.58Z"/><path class="cls-1" d="M3.88,26.58A3.88,3.88,0,0,1,0,22.7V3.88A3.88,3.88,0,0,1,3.88,0H23.24a3.88,3.88,0,1,1,0,7.76H7.76V22.7A3.88,3.88,0,0,1,3.88,26.58Z"/><rect class="cls-1" x="12.52" y="71.47" width="75.09" height="2.77" rx="1.39"/><path class="cls-2" d="M19,43.43c1.55,1.79,2.33,2.69,2.66,3,2,2.18,1.79,1.83,2.36,2.51,1.21,1.46.8,1.1,1.76,2.2.25.29,1.37,1.14,1.79,1.57a8.62,8.62,0,0,1,1.25,1.77c.94,1.63,1.41,2.44,1.85,3.4.52,1.15.83,2.06,1,2.44a28.27,28.27,0,0,1,.89,3.47c.46,2.32.75,3.73,1,4.88H72.55c.08-.29.18-.64.28-1.1.32-1.39.22-1.58.49-2.71a15.91,15.91,0,0,1,.86-2.69,15.13,15.13,0,0,1,1.6-2.85c.35-.5.78-1,1.64-2,1.18-1.38,1.77-2.06,2.39-2.65s1-.94,1.9-1.83c.69-.72,1.07-1.18,1.05-1.77a2.38,2.38,0,0,0-.36-1,3.17,3.17,0,0,0-.86-1,3.46,3.46,0,0,0-1.8-.52,9.07,9.07,0,0,0-2.65,0,9.65,9.65,0,0,0-2.85,1,11.4,11.4,0,0,0-4.39,3.83,17.33,17.33,0,0,0-1.11,2c-.27.54-.47,1-.85,1.77a21.35,21.35,0,0,1-1,2,3.48,3.48,0,0,1-1.21,1.38c-.25.14-.68.39-1,.22s-.41-.46-.62-1.27-.35-1.35-.43-1.8c-.22-1.4-.29-1.08-.65-3-.31-1.64-.43-2.78-.46-3.05a19.51,19.51,0,0,1-.13-2.06c0-.21,0-.56.06-1.81s.13-2,.14-2.16c.12-1.74.18-2.61.26-3.37.24-2.32.42-2.45.62-4.75.08-.94.14-1.9.16-2.29s.06-1,.1-2.3,0-1.52.07-3,.06-2.46.13-3.5c0-.88.1-1.75.16-2.62a9.26,9.26,0,0,0,0-2,4.06,4.06,0,0,0-.52-1.7,2.39,2.39,0,0,0-.89-.92A2.6,2.6,0,0,0,61.24,19a3.17,3.17,0,0,0-1.51.29,3.06,3.06,0,0,0-1.08.95,3.65,3.65,0,0,0-.52,1.54c-.18,1-.23,1.55-.36,2.75s-.14,1.11-.27,2.26c-.08.79-.14,1.32-.19,2-.11,1.39-.05,1.31-.13,2.09a21.71,21.71,0,0,1-.49,2.75c-.18.74-.24.85-.5,1.94-.12.52-.21.93-.32,1.47-.23,1.05-.34,1.57-.43,2.06-.22,1.23-.32,2.28-.36,2.72a20.51,20.51,0,0,1-.29,2.29c-.14.71-.27,1.1-.63,1.35a1.36,1.36,0,0,1-1,.16,1.34,1.34,0,0,1-.79-.62A2.58,2.58,0,0,1,52.17,44c-.13-.86-.2-1.45-.27-2,0,0-.11-.88-.32-2.56-.34-2.62-.34-2.57-.4-3.08-.18-1.57-.28-2.36-.29-2.72s-.15-.63-.23-1.11-.12-.83-.23-1.34c-.22-1-.19-.92-.39-1.8s-.22-.89-.33-1.44-.16-.8-.2-1.12c-.07-.66,0-.75-.06-1.64,0-.56-.1-1-.13-1.24s-.11-.75-.23-1.31-.18-.61-.3-1.15c0-.2-.06-.32-.23-1.41a8.94,8.94,0,0,0-.29-1.6,3.86,3.86,0,0,0-.56-1.08,2.6,2.6,0,0,0-.75-.72,2.73,2.73,0,0,0-1.08-.36,3.19,3.19,0,0,0-1.21,0,2.48,2.48,0,0,0-1.05.42,2.71,2.71,0,0,0-.69.79,4.21,4.21,0,0,0-.36.79,4.93,4.93,0,0,0,0,2.26c.12.9,0-.1.29,2.94.16,1.34.19,1.49.23,2.1,0,.45,0,.66.1,2.06.07,1.83.11,2.75.13,3.15.07,1.25.1,1.29.13,2.22s0,1.15.07,1.84.09.71.23,2,.1,1.23.19,1.86.16.8.33,1.77c.11.64.09.58.26,1.71A17.3,17.3,0,0,1,44.8,44c0,.6.07,1.73-.33,1.87-.21.07-.51-.14-.56-.17a1,1,0,0,1-.33-.36A6.27,6.27,0,0,1,43,44.22c-.76-1.91-.28-.69-.4-1s-.48-1.15-.91-2.29c-.5-1.32-1.67-4.24-2-4.78s-.37-.76-.49-1c-.42-.94-.58-1.17-1-2.19-.75-1.65-1.16-2.54-1.6-3.73-.5-1.36-1-2.7-1.51-4.07a2.87,2.87,0,0,0-1-1.5,2.7,2.7,0,0,0-1.47-.46,2.5,2.5,0,0,0-1.51.36,2.39,2.39,0,0,0-1,1.34A3.23,3.23,0,0,0,30.09,26a9,9,0,0,0,.62,3.08c.74,2,.28,1.59,1.51,5.57.5,1.61.9,2.72,1.7,4.94,1.12,3.09,1.68,4.64,2,5.47s.61,1.79,1,2.65a6.35,6.35,0,0,1,.55,2.53,1,1,0,0,1-.26.75c-.25.21-.59.16-1,.1a3.62,3.62,0,0,1-1-.35,16,16,0,0,1-3-2.37c-1.32-1.16-1.35-1.38-2.81-2.66s-1.83-1.37-3.17-2.66c-.69-.65-.94-1-1.78-1.69-.46-.41-.26-.21-1.92-1.56a5,5,0,0,0-1.62-1.1,3.22,3.22,0,0,0-1.55-.15,2.28,2.28,0,0,0-1.55.74,2.08,2.08,0,0,0-.37,1.55C17.48,41.73,18,42.31,19,43.43Z"/><path class="cls-1" d="M34.23,71.47c.57,1.89,1.11,3.25,1.34,3.8,1,2.35,1,1.74,1.92,4.06a5.7,5.7,0,0,0,1.25,2.22,5.07,5.07,0,0,0,2.42,1.22c.37.09,1.11.24,4.26-.1,1.91-.2,2.23-.32,3.5-.36a11.38,11.38,0,0,1,2.53.1c1.43.25,1.54.63,3.27,1.08a15.32,15.32,0,0,0,2.92.43c2,.12,2.75-.18,3.07-.37.1,0,.32-.19.66-.36.58-.28.68-.24,1.05-.45a6.3,6.3,0,0,0,.88-.69,9.58,9.58,0,0,0,.72-.66,7.89,7.89,0,0,0,1-1.24,13.41,13.41,0,0,0,.79-1.31,24.82,24.82,0,0,1,1.8-2.52c.94-1.32.74-1.22,1.84-2.79.5-.72.91-1.3,1.48-2.06Z"/></g></g></svg>