<svg xmlns="http://www.w3.org/2000/svg" xmlns:xlink="http://www.w3.org/1999/xlink" viewBox="0 0 1203.52 396.91"><defs><style>.cls-1{fill:url(#linear-gradient);}.cls-2{fill:url(#linear-gradient-2);}.cls-3{fill:url(#linear-gradient-3);}.cls-4{fill:url(#linear-gradient-4);}.cls-5{fill:url(#linear-gradient-5);}.cls-6{font-size:181.88px;fill:#1dc1ff;font-family:Roboto-Light, Roboto;font-weight:300;}.cls-7{letter-spacing:-0.02em;}.cls-8{font-size:214.56px;fill:#2449ff;font-family:Roboto-Bold, Roboto;font-weight:700;}.cls-9{letter-spacing:-0.01em;}.cls-10{letter-spacing:-0.01em;}</style><linearGradient id="linear-gradient" x1="419.17" y1="135.4" x2="213.19" y2="135.4" gradientUnits="userSpaceOnUse"><stop offset="0" stop-color="#1ccbff"/><stop offset="0.05" stop-color="#1dbbff"/><stop offset="0.17" stop-color="#1f98ff"/><stop offset="0.3" stop-color="#217bff"/><stop offset="0.44" stop-color="#2265ff"/><stop offset="0.59" stop-color="#2355ff"/><stop offset="0.76" stop-color="#244cff"/><stop offset="1" stop-color="#2449ff"/></linearGradient><linearGradient id="linear-gradient-2" x1="0" y1="230.26" x2="251.11" y2="230.26" xlink:href="#linear-gradient"/><linearGradient id="linear-gradient-3" x1="156.45" y1="272.1" x2="198.11" y2="344.27" xlink:href="#linear-gradient"/><linearGradient id="linear-gradient-4" x1="92.46" y1="145.29" x2="298.77" y2="145.29" xlink:href="#linear-gradient"/><linearGradient id="linear-gradient-5" x1="150.51" y1="21.05" x2="196.63" y2="100.93" xlink:href="#linear-gradient"/></defs><g id="Layer_2" data-name="Layer 2"><g id="Layer_1-2" data-name="Layer 1"><path class="cls-1" d="M419.17,141.85c-1,6.88-1.75,13.8-3.06,20.62-9.93,51.77-54,94.64-106,103.09-17.68,2.87-35.4,3.41-53.09,0-2.72-.53-5.36-1.47-8.42-2.33C266,248.4,269,231.4,257.57,212c50.63,16.68,92.21-13.67,104.85-47.31,14.29-38-1.41-81.11-36.79-100.39C288.51,44.06,238.38,55.07,214.57,98c-.11-2.15-.22-3.44-.22-4.72,0-16.67,0-33.33,0-50,0-2.91.18-6-.7-8.7-1.23-3.75.38-5.42,3.11-7.4C233.58,15,251.83,6.29,272.76,4c3.76-.41,7.51-.75,11.27-1.12h5.35c6.39.73,12.81,1.25,19.17,2.23,52.94,8.19,97.23,50.65,107.54,103.15,1.33,6.81,2.07,13.73,3.08,20.6Z"/><path class="cls-2" d="M0,225.84c.52-1.82,1-3.64,1.55-5.46a35.21,35.21,0,0,1,33.58-25.76q90.66-.12,181.33,0c18.49,0,33.89,15.4,34.62,33.93.76,19-13,35.17-31.68,37-2.39.24-4.81.37-7.22.37q-86.67,0-173.32,0-31,0-38.27-30.05A3.27,3.27,0,0,0,0,235Z"/><path class="cls-3" d="M170.27,353.35c-5.57-2.06-11.09-4.14-15.27-8.7-4.66-5.06-7.6-10.9-7.67-17.77-.17-16-.06-32-.05-48.05a10.56,10.56,0,0,1,.27-1.59h56.17v44.15c0,17.3-6.54,26.27-22.95,31.49-.22.07-.39.3-.58.47Z"/><path class="cls-4" d="M195.55,180.9c-22.38,0-44.76.09-67.14,0-16.69-.09-30.13-10.29-34.57-25.91A35.51,35.51,0,0,1,109,115.13a34.31,34.31,0,0,1,18.76-5.46c45.27,0,90.55-.09,135.82,0a35.42,35.42,0,0,1,35.12,33.73c.9,21.11-15.88,37.14-33.75,37.31-23.15.22-46.29.05-69.44.05Z"/><path class="cls-5" d="M203.49,97h-56c-.09-1.18-.26-2.27-.26-3.36,0-18.07-.07-36.14,0-54.2,0-14.22,10.18-26,23.79-27.94A28.1,28.1,0,0,1,202.55,32a32.65,32.65,0,0,1,1.12,8.28c.09,18.07.05,36.14,0,54.2C203.71,95.24,203.58,96,203.49,97Z"/><text class="cls-6" transform="translate(483.35 347.62)"><tspan class="cls-7">W</tspan><tspan x="160.12" y="0">allet</tspan></text><text class="cls-8" transform="translate(474.46 183.55)"><tspan class="cls-9">P</tspan><tspan x="137.24" y="0">a</tspan><tspan class="cls-10" x="252.27" y="0">r</tspan><tspan x="327.39" y="0">allel</tspan></text></g></g></svg>