<svg id="Layer_1" data-name="Layer 1" xmlns="http://www.w3.org/2000/svg" xmlns:xlink="http://www.w3.org/1999/xlink" viewBox="0 0 927.69 831.56"><defs><style>.cls-1{fill:url(#linear-gradient);}.cls-2{fill:url(#linear-gradient-2);}.cls-3{fill:url(#linear-gradient-3);}.cls-4{fill:url(#linear-gradient-4);}.cls-5{fill:url(#linear-gradient-5);}</style><linearGradient id="linear-gradient" x1="853.64" y1="340.4" x2="465.46" y2="340.4" gradientUnits="userSpaceOnUse"><stop offset="0" stop-color="#fff"/><stop offset="0.11" stop-color="#fff"/><stop offset="1" stop-color="#fff"/></linearGradient><linearGradient id="linear-gradient-2" x1="63.69" y1="519.16" x2="536.92" y2="519.16" xlink:href="#linear-gradient"/><linearGradient id="linear-gradient-3" x1="358.52" y1="598.01" x2="437.04" y2="734.02" xlink:href="#linear-gradient"/><linearGradient id="linear-gradient-4" x1="237.94" y1="359.03" x2="626.74" y2="359.03" xlink:href="#linear-gradient"/><linearGradient id="linear-gradient-5" x1="347.34" y1="124.9" x2="434.25" y2="275.43" xlink:href="#linear-gradient"/></defs><path class="cls-1" d="M853.64,352.55c-1.89,13-3.3,26-5.76,38.86C829.16,489,746.06,569.76,648.06,585.68c-33.31,5.42-66.71,6.44-100,0-5.13-1-10.1-2.77-15.86-4.38,32.76-28,38.48-60,16.94-96.61,95.4,31.43,173.76-25.76,197.58-89.16,26.94-71.71-2.65-152.86-69.32-189.18C607.4,168.26,512.93,189,468.05,270c-.19-4.06-.41-6.48-.41-8.9,0-31.4,0-62.81-.07-94.22,0-5.49.34-11.32-1.32-16.39-2.32-7.07.71-10.22,5.87-14,31.76-23,66.15-39.43,105.61-43.73,7.07-.77,14.15-1.41,21.23-2.11H609c12.05,1.38,24.16,2.36,36.13,4.21,99.77,15.42,183.24,95.45,202.66,194.39,2.52,12.82,3.91,25.87,5.82,38.82Z"/><path class="cls-2" d="M63.69,510.83l2.91-10.29c8-28.35,33.82-48.51,63.29-48.55q170.87-.23,341.73,0c34.84.07,63.86,29,65.25,63.93,1.42,35.89-24.56,66.29-59.7,69.78-4.52.45-9.08.7-13.62.7q-163.32.06-326.63,0c-38.93,0-63-19-72.11-56.63a6.51,6.51,0,0,0-1.12-1.74Z"/><path class="cls-3" d="M384.56,751.12c-10.49-3.88-20.89-7.79-28.77-16.38-8.77-9.53-14.32-20.54-14.45-33.5-.32-30.18-.11-60.36-.09-90.55a19.83,19.83,0,0,1,.5-3H447.61V690.9c0,32.61-12.33,49.5-43.25,59.34-.41.13-.73.58-1.09.88Z"/><path class="cls-4" d="M432.22,426.14c-42.18,0-84.36.17-126.54-.05-31.45-.17-56.77-19.4-65.15-48.83a66.94,66.94,0,0,1,28.64-75.07,64.86,64.86,0,0,1,35.37-10.29c85.32,0,170.64-.16,256,.08,35.87.11,64.69,28.92,66.17,63.56,1.7,39.78-29.91,70-63.6,70.32-43.62.41-87.23.1-130.85.1Z"/><path class="cls-5" d="M447.19,268H341.7c-.18-2.21-.49-4.27-.49-6.33,0-34-.13-68.09,0-102.14.11-26.79,19.19-49,44.84-52.65,27.18-3.84,52.12,12.3,59.34,38.74a60.85,60.85,0,0,1,2.11,15.6c.18,34,.1,68.09.08,102.14C447.59,264.71,447.35,266.1,447.19,268Z"/></svg>