<svg xmlns="http://www.w3.org/2000/svg" viewBox="0 0 100 100"><defs><style>.cls-1,.cls-2,.cls-3{fill:#fff;}.cls-1{opacity:0.6;}.cls-1,.cls-2{isolation:isolate;}.cls-2{opacity:0.8;}.cls-4{fill:none;}</style></defs><g id="Layer_2" data-name="Layer 2"><g id="Layer_1-2" data-name="Layer 1"><g id="Layer_2-2" data-name="Layer 2"><g id="Layer_1-2-2" data-name="Layer 1-2"><path class="cls-1" d="M84.37,10.25C83.18,11.74,63.67,36.17,31,34.5V75.21l-1.16-.9-.14-.12A34.47,34.47,0,0,1,16.27,49L15.5,36.62V10.19C24,17.42,36.29,22,50,22S75.84,17.42,84.37,10.25Z"/><path class="cls-2" d="M84.5,10.19S77.51,42.7,50,48.46V89.81L31,75.21V34.5c32.7,1.67,52.21-22.76,53.4-24.25Z"/><path class="cls-3" d="M84.5,10.19V36.3L83.69,49A34.26,34.26,0,0,1,70.3,74.26L50,89.81V48.46C77.51,42.7,84.5,10.19,84.5,10.19Z"/></g></g><rect class="cls-4" width="100" height="100"/></g></g></svg>