<svg width="580" height="1200" viewBox="0 0 580 1200" fill="none" xmlns="http://www.w3.org/2000/svg">
<g clip-path="url(#clip0)">
<path d="M545.223 465.433C483.545 494.125 444.876 488.699 429.215 449.158C405.725 389.845 396.329 248.811 345.372 189.859C294.415 130.909 333.808 -48.8383 421.265 -79.5793C508.722 -110.32 643.522 -165.669 643.522 126.192C643.522 320.768 610.757 433.846 545.223 465.432V465.433Z" fill="#FFFA72"/>
<path d="M423.444 943.212C250.745 1023.55 142.471 1008.36 98.6219 897.642C32.8483 731.566 6.53943 336.671 -136.141 171.605C-278.818 6.54537 -168.518 -496.746 76.3616 -582.821C321.242 -668.896 698.681 -823.873 698.681 -6.6622C698.681 538.151 606.937 854.769 423.444 943.21V943.212Z" fill="white"/>
<path d="M433.592 903.397C270.145 979.431 167.671 965.052 126.171 860.269C63.9213 703.089 39.0218 329.349 -96.0147 173.126C-231.049 16.9088 -126.658 -459.421 105.104 -540.884C336.865 -622.348 694.085 -769.023 694.085 4.4088C694.085 520.035 607.256 819.692 433.592 903.395V903.397Z" fill="#F8F8F8"/>
<path d="M443.741 863.582C289.545 935.312 192.872 921.747 153.721 822.895C94.9945 674.612 71.5044 322.027 -55.8886 174.647C-183.279 27.2724 -84.7971 -422.095 133.846 -498.948C352.488 -575.8 689.488 -714.173 689.488 15.4799C689.488 501.92 607.574 784.615 443.741 863.58V863.582Z" fill="#F1F1F1"/>
<path d="M453.889 823.768C308.945 891.194 218.072 878.443 181.27 785.521C126.067 646.136 103.987 314.706 -15.7626 176.169C-135.51 37.6363 -42.9366 -384.769 162.588 -457.01C368.112 -529.252 684.892 -659.322 684.892 26.5514C684.892 483.805 607.892 749.538 453.889 823.765V823.768Z" fill="#EAEAEA"/>
<path d="M464.037 783.953C328.345 847.075 243.273 835.138 208.82 748.148C157.14 617.659 136.469 307.384 24.3634 177.69C-87.7402 47.9999 -1.0761 -347.444 191.33 -415.074C383.735 -482.704 680.295 -604.472 680.295 37.6225C680.295 465.69 608.211 714.461 464.037 783.95V783.953Z" fill="#E3E3E3"/>
<path d="M474.185 744.138C347.745 802.956 268.473 791.833 236.369 710.774C188.214 589.182 168.952 300.063 64.4895 179.211C-39.9707 58.3635 40.7845 -310.118 220.072 -373.137C399.359 -436.156 675.698 -549.621 675.698 48.6937C675.698 447.574 608.529 679.384 474.185 744.136V744.138Z" fill="#DCDCDC"/>
<path d="M484.334 704.323C367.145 758.837 293.673 748.528 263.919 673.4C219.287 560.705 201.434 292.741 104.616 180.732C7.79875 68.7271 82.645 -272.792 248.814 -331.2C414.982 -389.608 671.102 -494.771 671.102 59.7648C671.102 429.459 608.847 644.307 484.334 704.321V704.323Z" fill="#D5D5D5"/>
<path d="M494.482 664.508C386.545 714.719 318.874 705.223 291.468 636.026C250.36 532.229 233.917 285.419 144.742 182.253C55.5682 79.0907 124.506 -235.467 277.556 -289.263C430.605 -343.06 666.505 -439.921 666.505 70.8359C666.505 411.344 609.165 609.23 494.482 664.506V664.508Z" fill="#CDCDCD"/>
<path d="M504.63 624.693C405.945 670.6 344.074 661.919 319.018 598.653C281.433 503.752 266.399 278.098 184.867 183.775C103.338 89.4545 166.366 -198.141 306.297 -247.326C446.229 -296.512 661.909 -385.07 661.909 81.9073C661.909 393.229 609.484 574.154 504.63 624.691V624.693Z" fill="#C6C6C6"/>
<path d="M514.779 584.878C425.345 626.481 369.275 618.613 346.567 561.279C312.506 475.275 298.881 270.776 224.994 185.295C151.107 99.8178 208.227 -160.815 335.039 -205.39C461.852 -249.964 657.312 -330.22 657.312 92.9782C657.312 375.113 609.802 539.076 514.779 584.876V584.878Z" fill="#BFBFBF"/>
<path d="M524.927 545.063C444.745 582.362 394.475 575.309 374.117 523.905C343.579 446.799 331.364 263.454 265.12 186.817C198.877 110.182 250.087 -123.489 363.781 -163.453C477.476 -203.416 652.716 -275.37 652.716 104.05C652.716 356.998 610.12 504 524.927 545.062V545.063Z" fill="#B8B8B8"/>
<path d="M535.075 505.248C464.145 538.244 419.675 532.004 401.666 486.532C374.652 418.322 363.846 256.133 305.246 188.338C246.646 120.546 291.948 -86.1636 392.523 -121.516C493.099 -156.868 648.119 -220.519 648.119 115.121C648.119 338.883 610.438 468.923 535.075 505.247V505.248Z" fill="#B1B1B1"/>
</g>
<defs>
<clipPath id="clip0">
<rect width="1200" height="579.57" fill="white" transform="matrix(0 -1 -1 0 579.57 1200)"/>
</clipPath>
</defs>
</svg>
