<svg width="580" height="1200" viewBox="0 0 580 1200" fill="none" xmlns="http://www.w3.org/2000/svg">
<g clip-path="url(#clip0)">
<path d="M545.628 734.567C483.904 705.875 445.206 711.301 429.534 750.842C406.026 810.155 396.623 951.189 345.628 1010.14C294.634 1069.09 334.056 1248.84 421.578 1279.58C509.1 1310.32 644 1365.67 644 1073.81C644 879.232 611.21 766.154 545.628 734.568V734.567Z" fill="#FFFA72"/>
<path d="M423.758 256.788C250.931 176.45 142.577 191.643 98.6952 302.358C32.8728 468.434 6.5444 863.329 -136.242 1028.39C-279.025 1193.45 -168.643 1696.75 76.4184 1782.82C321.48 1868.9 699.2 2023.87 699.2 1206.66C699.2 661.849 607.388 345.231 423.758 256.79V256.788Z" fill="white"/>
<path d="M433.914 296.603C270.346 220.569 167.796 234.948 126.265 339.731C63.9688 496.911 39.0509 870.651 -96.0859 1026.87C-231.22 1183.09 -126.752 1659.42 105.182 1740.88C337.115 1822.35 694.6 1969.02 694.6 1195.59C694.6 679.965 607.706 380.308 433.914 296.605V296.603Z" fill="#F8F8F8"/>
<path d="M444.07 336.418C289.76 264.688 193.015 278.253 153.835 377.105C95.065 525.388 71.5575 877.973 -55.93 1025.35C-183.415 1172.73 -84.86 1622.1 133.945 1698.95C352.75 1775.8 690 1914.17 690 1184.52C690 698.08 608.025 415.385 444.07 336.42V336.418Z" fill="#F1F1F1"/>
<path d="M454.226 376.232C309.174 308.806 218.234 321.557 181.405 414.479C126.161 553.864 104.064 885.294 -15.7742 1023.83C-135.61 1162.36 -42.9683 1584.77 162.708 1657.01C368.385 1729.25 685.4 1859.32 685.4 1173.45C685.4 716.195 608.344 450.462 454.226 376.235V376.232Z" fill="#EAEAEA"/>
<path d="M464.382 416.047C328.589 352.925 243.453 364.862 208.975 451.852C157.257 582.341 136.571 892.616 24.3816 1022.31C-87.8052 1152 -1.07683 1547.44 191.472 1615.07C384.02 1682.7 680.8 1804.47 680.8 1162.38C680.8 734.31 608.662 485.539 464.382 416.05V416.047Z" fill="#E3E3E3"/>
<path d="M474.537 455.862C348.003 397.044 268.672 408.167 236.545 489.226C188.353 610.818 169.077 899.937 64.5374 1020.79C-40.0003 1141.64 40.8148 1510.12 220.235 1573.14C399.655 1636.16 676.2 1749.62 676.2 1151.31C676.2 752.426 608.981 520.616 474.537 455.864V455.862Z" fill="#DCDCDC"/>
<path d="M484.693 495.677C367.418 441.163 293.891 451.472 264.115 526.6C219.449 639.295 201.584 907.259 104.693 1019.27C7.80457 1131.27 82.7064 1472.79 248.998 1531.2C415.29 1589.61 671.6 1694.77 671.6 1140.24C671.6 770.541 609.299 555.693 484.693 495.679V495.677Z" fill="#D5D5D5"/>
<path d="M494.849 535.492C386.832 485.281 319.11 494.777 291.684 563.974C250.545 667.771 234.09 914.581 144.849 1017.75C55.6095 1120.91 124.598 1435.47 277.762 1489.26C430.925 1543.06 667 1639.92 667 1129.16C667 788.656 609.617 590.77 494.849 535.494V535.492Z" fill="#CDCDCD"/>
<path d="M505.005 575.307C406.246 529.4 344.33 538.081 319.254 601.347C281.642 696.248 266.597 921.902 185.005 1016.23C103.414 1110.55 166.49 1398.14 306.525 1447.33C446.56 1496.51 662.4 1585.07 662.4 1118.09C662.4 806.771 609.936 625.846 505.005 575.309V575.307Z" fill="#C6C6C6"/>
<path d="M515.161 615.122C425.661 573.519 369.549 581.386 346.824 638.721C312.738 724.725 299.103 929.224 225.161 1014.7C151.219 1100.18 208.381 1360.82 335.288 1405.39C462.195 1449.96 657.8 1530.22 657.8 1107.02C657.8 824.886 610.254 660.923 515.161 615.124V615.122Z" fill="#BFBFBF"/>
<path d="M525.316 654.937C445.075 617.638 394.768 624.691 374.394 676.095C343.834 753.201 331.61 936.546 265.316 1013.18C199.024 1089.82 250.273 1323.49 364.051 1363.45C477.83 1403.42 653.2 1475.37 653.2 1095.95C653.2 843.002 610.573 696 525.316 654.938V654.937Z" fill="#B8B8B8"/>
<path d="M535.472 694.752C464.49 661.756 419.987 667.996 401.964 713.468C374.93 781.678 364.116 943.867 305.472 1011.66C246.829 1079.45 292.164 1286.16 392.815 1321.52C493.465 1356.87 648.6 1420.52 648.6 1084.88C648.6 861.117 610.891 731.077 535.472 694.753V694.752Z" fill="#B1B1B1"/>
</g>
<defs>
<clipPath id="clip0">
<rect width="1200" height="580" fill="white" transform="translate(580) rotate(90)"/>
</clipPath>
</defs>
</svg>
