<svg xmlns="http://www.w3.org/2000/svg" viewBox="0 0 100.14 100.14"><defs><style>.cls-1{fill:#fff;}.cls-2{fill:#f15e5a;}.cls-3{fill:none;}</style></defs><g id="Layer_2" data-name="Layer 2"><g id="Layer_1-2" data-name="Layer 1"><path class="cls-1" d="M13.27,53H6.48c.09-.46,10.81-18.38,11.34-19,.11.14.23.26.32.4l5.73,9.53q2.53,4.2,5.05,8.41c.1.16.18.34.32.62-2.49.09-4.88,0-7.32.06,0,.4,0,.75.08,1.11a31,31,0,0,0,8,17.59A31.84,31.84,0,0,0,51.45,81.9a32.28,32.28,0,0,0,5.11-.05A30.69,30.69,0,0,0,66,79.42,32.28,32.28,0,0,0,84.26,58.54,31.46,31.46,0,0,0,81,34.17,32.71,32.71,0,0,0,68,21.88a30.2,30.2,0,0,0-10.19-3.19c-1.2-.16-2.43-.14-3.64-.27a8.08,8.08,0,0,1-2-.42,3.19,3.19,0,0,1-2-2.79,5.59,5.59,0,0,1,.2-2.63,3.86,3.86,0,0,1,3.78-2.67,42,42,0,0,1,9.21,1.23,39.76,39.76,0,0,1,13,5.9A40.21,40.21,0,0,1,93.43,45.79a43.58,43.58,0,0,1,.16,7.13,35,35,0,0,1-.9,6.19A40.53,40.53,0,0,1,65.14,88.78a42.19,42.19,0,0,1-6.38,1.39,8,8,0,0,1-1,0c-2.53,0-5.05,0-7.58,0a21.61,21.61,0,0,1-4.81-.52,39.41,39.41,0,0,1-10-3.47,40.4,40.4,0,0,1-9.52-6.67A40,40,0,0,1,17.33,68a38.58,38.58,0,0,1-3.52-11c-.2-1.2-.31-2.42-.46-3.62C13.34,53.31,13.31,53.19,13.27,53Z"/><path class="cls-2" d="M58,40.9c0,3.71,0,7.41,0,11.12a4,4,0,0,1-1.24,3q-3.7,3.69-7.4,7.4l-3.79,3.84A4.39,4.39,0,0,1,43,67.65a4,4,0,0,1-3.24-6.81q4.88-4.89,9.76-9.75A1.44,1.44,0,0,0,50,49.94q0-10,0-20a4,4,0,0,1,.93-2.83A3.8,3.8,0,0,1,52,26.22c1.53-.76,4.22-.7,5.42,1.32a3.89,3.89,0,0,1,.56,2C58,33.34,58,37.12,58,40.9Z"/><path class="cls-1" d="M53.61,75.59a2.59,2.59,0,0,1,0-5.17,2.59,2.59,0,1,1,0,5.17Z"/><path class="cls-1" d="M72.81,35a2.52,2.52,0,0,1-2.54,2.56A2.59,2.59,0,0,1,67.66,35a2.64,2.64,0,0,1,2.57-2.58A2.55,2.55,0,0,1,72.81,35Z"/><path class="cls-1" d="M72.81,65.18a2.53,2.53,0,0,1-2.56,2.56,2.6,2.6,0,0,1-2.59-2.61,2.65,2.65,0,0,1,2.64-2.56A2.56,2.56,0,0,1,72.81,65.18Z"/><path class="cls-1" d="M75.84,52.91a2.51,2.51,0,0,1-2.55-2.56,2.57,2.57,0,0,1,2.57-2.61,2.65,2.65,0,0,1,2.58,2.63A2.59,2.59,0,0,1,75.84,52.91Z"/><rect class="cls-3" width="100.14" height="100.14"/></g></g></svg>