<svg id="Layer_1" data-name="Layer 1" xmlns="http://www.w3.org/2000/svg" xmlns:xlink="http://www.w3.org/1999/xlink" viewBox="0 0 1554.27 1082.56"><defs><style>.cls-1{fill:url(#linear-gradient);}.cls-2{fill:url(#linear-gradient-2);}.cls-3{fill:url(#linear-gradient-3);}.cls-4{fill:url(#linear-gradient-4);}.cls-5{fill:url(#linear-gradient-5);}.cls-6,.cls-8{font-size:257.11px;fill:#fff;}.cls-6{font-family:Roboto-Light, Roboto;font-weight:300;letter-spacing:-0.02em;}.cls-7{letter-spacing:0em;}.cls-8{font-family:Roboto-Bold, Roboto;font-weight:700;}.cls-9{letter-spacing:-0.01em;}.cls-10{letter-spacing:-0.01em;}</style><linearGradient id="linear-gradient" x1="1223.11" y1="320.48" x2="781.19" y2="320.48" gradientUnits="userSpaceOnUse"><stop offset="0" stop-color="#fff"/><stop offset="0.11" stop-color="#fff"/><stop offset="1" stop-color="#fff"/></linearGradient><linearGradient id="linear-gradient-2" x1="323.8" y1="523.98" x2="862.54" y2="523.98" xlink:href="#linear-gradient"/><linearGradient id="linear-gradient-3" x1="659.45" y1="613.75" x2="748.84" y2="768.58" xlink:href="#linear-gradient"/><linearGradient id="linear-gradient-4" x1="522.18" y1="341.68" x2="964.79" y2="341.68" xlink:href="#linear-gradient"/><linearGradient id="linear-gradient-5" x1="646.71" y1="75.14" x2="745.66" y2="246.52" xlink:href="#linear-gradient"/></defs><path class="cls-1" d="M1223.11,334.3c-2.16,14.76-3.76,29.62-6.56,44.24-21.31,111.08-115.92,203.05-227.48,221.17-37.92,6.17-75.94,7.33-113.89,0-5.83-1.12-11.5-3.15-18.06-5,37.3-31.85,43.81-68.3,19.28-110,108.62,35.78,197.82-29.32,224.94-101.5,30.67-81.63-3-174-78.92-215.37-79.64-43.38-187.19-19.75-238.28,72.4-.22-4.61-.46-7.37-.47-10.12,0-35.76.05-71.51-.07-107.26,0-6.26.38-12.9-1.51-18.67-2.64-8,.81-11.64,6.68-15.88C824.93,62.2,864.08,43.48,909,38.58c8-.88,16.11-1.61,24.17-2.41h11.47c13.71,1.58,27.5,2.69,41.13,4.8,113.58,17.55,208.6,108.66,230.72,221.29,2.86,14.61,4.44,29.46,6.62,44.2Z"/><path class="cls-2" d="M323.8,514.49q1.67-5.85,3.32-11.71c9.13-32.27,38.5-55.22,72-55.27q194.52-.25,389,0c39.67.09,72.71,33,74.28,72.79,1.62,40.86-28,75.46-68,79.43-5.15.51-10.34.8-15.51.8q-185.91.06-371.83,0-66.48,0-82.1-64.47a7.54,7.54,0,0,0-1.28-2Z"/><path class="cls-3" d="M689.1,788.05c-12-4.41-23.78-8.87-32.76-18.64-10-10.86-16.3-23.39-16.46-38.15-.36-34.35-.12-68.71-.1-103.07a23.48,23.48,0,0,1,.58-3.42H760.87V719.5c0,37.12-14,56.35-49.23,67.55-.48.15-.84.66-1.25,1Z"/><path class="cls-4" d="M743.35,418.08c-48,0-96,.19-144.06-.06-35.8-.19-64.63-22.08-74.16-55.59A76.18,76.18,0,0,1,557.73,277,73.69,73.69,0,0,1,598,265.27c97.13,0,194.27-.19,291.4.09,40.83.11,73.65,32.92,75.33,72.35,1.93,45.29-34.05,79.69-72.41,80.05-49.65.47-99.31.12-149,.12Z"/><path class="cls-5" d="M760.39,238H640.3c-.2-2.51-.56-4.86-.56-7.2,0-38.76-.14-77.53,0-116.28.13-30.51,21.85-55.82,51-59.95,31-4.37,59.33,14,67.56,44.1a69.62,69.62,0,0,1,2.39,17.77c.21,38.76.12,77.52.09,116.28C760.84,234.31,760.58,235.89,760.39,238Z"/><text class="cls-6" transform="translate(853.84 1063.61)">W<tspan class="cls-7" x="226.35" y="0">allet</tspan></text><text class="cls-8" transform="translate(-10.67 1066.72)"><tspan class="cls-9">P</tspan><tspan x="164.46" y="0">a</tspan><tspan class="cls-10" x="302.31" y="0">r</tspan><tspan x="392.32" y="0">allel</tspan></text></svg>