<svg xmlns="http://www.w3.org/2000/svg" viewBox="0 0 100 100"><defs><style>.cls-1,.cls-2,.cls-3{fill:#fff;}.cls-1{opacity:0.8;}.cls-1,.cls-3{isolation:isolate;}.cls-3{opacity:0.6;}.cls-4{fill:none;}</style></defs><g id="Layer_2" data-name="Layer 2"><g id="Layer_1-2" data-name="Layer 1"><g id="Layer_2-2" data-name="Layer 2"><g id="Layer_1-2-2" data-name="Layer 1-2"><path class="cls-1" d="M52.81,79.61H23.28a1.89,1.89,0,0,0,1.58-.84l15.84-24L51.07,78.47A1.91,1.91,0,0,0,52.81,79.61Z"/><path class="cls-2" d="M40.7,54.74l-15.84,24a1.92,1.92,0,0,1-2.67.5,2,2,0,0,1-.67-.8l-14.41-33h19.4A15.48,15.48,0,0,1,40.7,54.74Z"/><path class="cls-3" d="M92.89,20.39,54.4,78.76a1.91,1.91,0,0,1-2.64.53,2,2,0,0,1-.69-.82L40.7,54.74,58,28.5a18,18,0,0,1,15.07-8.11Z"/></g></g><rect class="cls-4" width="100" height="100"/></g></g></svg>