<svg xmlns="http://www.w3.org/2000/svg" xmlns:xlink="http://www.w3.org/1999/xlink" viewBox="0 0 639.61 400"><defs><style>.cls-1{fill:url(#linear-gradient);}.cls-2{fill:url(#linear-gradient-2);}.cls-3{fill:url(#linear-gradient-3);}.cls-4{fill:url(#linear-gradient-4);}.cls-5{fill:url(#linear-gradient-5);}.cls-6{fill:url(#linear-gradient-6);}.cls-7{fill:url(#linear-gradient-7);}.cls-8{fill:url(#linear-gradient-8);}.cls-9{fill:#1a1941;}.cls-10{fill:#19867f;}.cls-11{fill:#18f3bd;}</style><linearGradient id="linear-gradient" x1="385.38" y1="339.46" x2="104.98" y2="348.58" gradientUnits="userSpaceOnUse"><stop offset="0" stop-color="#18f3bd"/><stop offset="1" stop-color="#19867f"/></linearGradient><linearGradient id="linear-gradient-2" x1="385.97" y1="357.6" x2="105.57" y2="366.72" xlink:href="#linear-gradient"/><linearGradient id="linear-gradient-3" x1="386.03" y1="359.42" x2="105.63" y2="368.54" xlink:href="#linear-gradient"/><linearGradient id="linear-gradient-4" x1="385.81" y1="352.92" x2="105.42" y2="362.04" xlink:href="#linear-gradient"/><linearGradient id="linear-gradient-5" x1="385.88" y1="354.81" x2="105.48" y2="363.93" xlink:href="#linear-gradient"/><linearGradient id="linear-gradient-6" x1="385.92" y1="356.24" x2="105.53" y2="365.36" xlink:href="#linear-gradient"/><linearGradient id="linear-gradient-7" x1="385.98" y1="358.02" x2="105.59" y2="367.13" xlink:href="#linear-gradient"/><linearGradient id="linear-gradient-8" x1="385.73" y1="350.34" x2="105.34" y2="359.46" xlink:href="#linear-gradient"/></defs><g id="Layer_2" data-name="Layer 2"><g id="Layer_1-2" data-name="Layer 1"><path class="cls-1" d="M0,383.3l24.87-65.51H39.64L64.13,383.3H49.18l-5-14.59H19.73L14.59,383.3Zm32-49.36-8.53,24h17l-8.25-24Z"/><path class="cls-2" d="M68.45,400V335.86H80.83v6.06H81q4.49-7.34,14.13-7.34,10.55,0,16.33,7.7,5.24,6.89,5.23,17.8,0,10.2-5.23,17-5.69,7.53-15.6,7.52-9.45,0-14.22-7.15h-.19V400Zm24-25.23q11.28,0,11.28-15,0-6.42-2.57-10.46a9.74,9.74,0,0,0-8.81-4.86,9.53,9.53,0,0,0-8.8,4.77q-2.48,4-2.48,10.55t2.57,10.37A9.7,9.7,0,0,0,92.4,374.77Z"/><path class="cls-3" d="M124.51,400V335.86h12.38v6.06h.19q4.48-7.34,14.13-7.34,10.54,0,16.34,7.7,5.22,6.89,5.22,17.8,0,10.2-5.22,17-5.7,7.53-15.6,7.52-9.45,0-14.23-7.15h-.18V400Zm24-25.23q11.28,0,11.28-15,0-6.42-2.57-10.46a9.74,9.74,0,0,0-8.81-4.86,9.54,9.54,0,0,0-8.8,4.77q-2.48,4-2.48,10.55t2.57,10.37A9.71,9.71,0,0,0,148.46,374.77Z"/><path class="cls-4" d="M180.58,383.3V335.86H193v8.81h.18a15.4,15.4,0,0,1,6.06-7.25,16.27,16.27,0,0,1,9.09-2.84,8.74,8.74,0,0,1,2.83.46v12.11a20.91,20.91,0,0,0-4.67-.46q-12.85,0-12.85,15.23V383.3Z"/><path class="cls-5" d="M214.8,359.63q0-11.38,6.7-18.22t17.8-6.83q11.19,0,17.89,6.83t6.7,18.22q0,11.28-6.7,18.12t-17.89,6.83q-11.1,0-17.8-6.83T214.8,359.63Zm13,0q0,6.51,2.48,10.36,2.92,4.78,9,4.78,11.55,0,11.56-15.14T239.3,344.4Q227.83,344.4,227.83,359.63Z"/><path class="cls-6" d="M314.63,335.86,298.57,383.3h-14.5l-16.24-47.44H281.5l10,32.39h.18l10-32.39Z"/><path class="cls-7" d="M332.52,350.45h-13Q320,342,326.92,338q5.68-3.39,14.86-3.39,20.82,0,20.83,13.49v24.68q0,7.89,1.65,10.55H351.05a17.82,17.82,0,0,1-.92-4.59q-5.6,5.88-16,5.87-7.16,0-11.47-3.48Q318,377.33,318,370.36q0-7.25,5-10.82,3.68-2.49,11.11-3.58,10.54-1.47,10.73-1.57,4.68-1.18,4.68-4.67c0-2.57-.86-4.35-2.57-5.32-1.22-.74-3.18-1.1-5.87-1.1Q333.16,343.3,332.52,350.45ZM349.58,365v-4.87q-1.56,1.38-6.79,2.12a39.21,39.21,0,0,0-7.89,1.74,6,6,0,0,0-3.85,5.87c0,4,2.65,6.06,8,6.06Q349.58,375.87,349.58,365Z"/><path class="cls-8" d="M373.08,383.3V317.79h13V383.3Z"/><path class="cls-9" d="M455.38,339.81H441.43a12.22,12.22,0,0,0-4.77-8.17,14.87,14.87,0,0,0-9.54-3.3q-9.09,0-13.77,7-4,6-4,15.51,0,9.18,4,15,4.78,6.88,13.77,6.89a13.71,13.71,0,0,0,10.37-4.13q3.66-3.86,4.49-10.55h13.94q-1.1,12.19-8.94,19.5t-19.86,7.29q-14.78,0-23.67-9.91-8.54-9.45-8.54-24.13,0-15,8.54-24.59,8.81-10,23.67-10,11.19,0,18.9,6.15Q454.09,328.79,455.38,339.81Z"/><path class="cls-9" d="M464.37,383.3V317.79h13v24.68h.28a16.5,16.5,0,0,1,6.33-6,16.08,16.08,0,0,1,7.53-1.92q9.81,0,13.85,5.32,3.5,4.59,3.49,14.22V383.3h-13V356.51q0-11.65-8.35-11.65-5.33,0-7.71,3.21t-2.39,10.36V383.3Z"/><path class="cls-9" d="M531.26,350.45h-13q.56-8.43,7.43-12.48,5.69-3.39,14.87-3.39,20.82,0,20.82,13.49v24.68q0,7.89,1.65,10.55H549.79a17.82,17.82,0,0,1-.92-4.59q-5.6,5.88-16,5.87-7.15,0-11.47-3.48-4.68-3.77-4.68-10.74,0-7.25,5-10.82c2.45-1.66,6.14-2.85,11.1-3.58q10.55-1.47,10.74-1.57,4.67-1.18,4.67-4.67c0-2.57-.86-4.35-2.57-5.32-1.22-.74-3.18-1.1-5.87-1.1Q531.9,343.3,531.26,350.45ZM548.32,365v-4.87q-1.56,1.38-6.79,2.12a39.39,39.39,0,0,0-7.89,1.74,6,6,0,0,0-3.85,5.87q0,6.06,8,6.06Q548.33,375.87,548.32,365Z"/><path class="cls-9" d="M584.84,317.79v10.73h-13V317.79Zm-13,65.51V335.86h13V383.3Z"/><path class="cls-9" d="M595.12,383.3V335.86H607.5v6.61h.28q4.86-7.89,14.5-7.89,9.81,0,13.85,5.32c2.33,3.06,3.48,7.8,3.48,14.22V383.3h-13V356.51q0-11.65-8.34-11.65-5.32,0-7.71,3.21t-2.39,10.36V383.3Z"/><path class="cls-10" d="M342.35,279.7H202.86a8.84,8.84,0,0,0,7.45-3.94l74.83-113.5,49,112.07A8.9,8.9,0,0,0,342.35,279.7Z"/><path class="cls-9" d="M285.14,162.26l-74.83,113.5a8.84,8.84,0,0,1-7.45,3.94,9,9,0,0,1-8.31-5.37L126.46,118.44h91.65A73.08,73.08,0,0,1,285.14,162.26Z"/><path class="cls-11" d="M531.68,0,349.87,275.69a9,9,0,0,1-15.75-1.36l-49-112.07L366.91,38.31A85.16,85.16,0,0,1,438.09,0Z"/></g></g></svg>