<svg id="组_5" data-name="组 5" xmlns="http://www.w3.org/2000/svg" width="93.176" height="100" viewBox="0 0 93.176 100">
  <path id="路径_90" data-name="路径 90" d="M792.3,14.234c-.35.358-.608.638-.883.9a9.672,9.672,0,0,0-2.558,3.565c-.225.6-.355,1.228-.52,1.845-.143.533-.152.547-.708.562l-4.307.108c-.17,0-.342.023-.572.04-.017.288-.045.552-.045.817q-.013,15.175-.022,30.352-.033,19.34-.087,38.681c0,.268,0,.537,0,.858h42.644c-4.238-7.248-5.02-14.749-1.527-22.45,3.483-7.678,9.609-12.065,17.805-13.707.132-.393.177-33.874.025-34.692h-5.32a16.1,16.1,0,0,0-1.44-3.87,21.127,21.127,0,0,0-2.772-3.063,5.664,5.664,0,0,1,.652-.08c3.437.032,6.872.06,10.308.113.89.013,1.78.1,2.67.173a2.714,2.714,0,0,1,1.363.6,3.523,3.523,0,0,1,1.543,2.91c.035,1.008.117,2.017.12,3.023q.07,16.865.122,33.729v.465c0,.717.015.662.7.835,1.295.332,2.583.7,3.857,1.107a20.473,20.473,0,0,1,6.844,3.888,24.434,24.434,0,0,1,4.552,4.96,25.44,25.44,0,0,1,2.873,5.573,16.174,16.174,0,0,1,1.088,5.162q.065,2.5,0,5a16.212,16.212,0,0,1-1.125,5.33,24.964,24.964,0,0,1-3.688,6.71,24.337,24.337,0,0,1-5.52,5.132,23.58,23.58,0,0,1-5.837,2.86,21.771,21.771,0,0,1-5.522,1.108,24.234,24.234,0,0,1-9.465-1.238,22.19,22.19,0,0,1-5.515-2.73,2.629,2.629,0,0,0-1.567-.49q-14.36-.035-28.719-.11-7.833-.037-15.667-.113c-1.922-.017-3.843-.062-5.765-.105a15.983,15.983,0,0,1-1.623-.1,1.871,1.871,0,0,1-.753-.27,5.789,5.789,0,0,1-1.8-1.8,3.945,3.945,0,0,1-.427-2.027c-.043-.93-.03-1.863-.038-2.8-.028-2.97-.075-5.94-.077-8.912q-.018-31.778-.043-63.554c0-1.345,1.238-3.557,2.708-4.008a7.408,7.408,0,0,1,2.058-.31c3.863-.04,7.728-.037,11.593-.048a3.711,3.711,0,0,1,.38.067M845.095,97.95c.408,0,.817.007,1.223,0a16.024,16.024,0,0,0,6.172-1.265,19.211,19.211,0,0,0,8.414-6.947,17.511,17.511,0,0,0,3.037-7.968,20.832,20.832,0,0,0,.022-5.34,18.326,18.326,0,0,0-5.142-10.358,19.351,19.351,0,0,0-7.067-4.607,12.883,12.883,0,0,0-5.223-1c-.445.022-.893-.03-1.338-.02a25.377,25.377,0,0,0-3.19.122,17.576,17.576,0,0,0-5.285,1.748,18.627,18.627,0,0,0-5.542,4.28,19.529,19.529,0,0,0-4.078,7.187,9.694,9.694,0,0,0-.528,2.378c-.088,1.662-.05,3.332-.053,5a14.523,14.523,0,0,0,1.765,6.455,18.922,18.922,0,0,0,4.478,5.748,19.709,19.709,0,0,0,6.105,3.663,15.557,15.557,0,0,0,6.232.927" transform="translate(-775.564 -2.83)"/>
  <path id="路径_91" data-name="路径 91" d="M826.657,27.155c-.428.023-.732.055-1.035.055q-16.338.005-32.672,0h-6.872c-.155,0-.31.005-.465-.005-.458-.027-.572-.1-.523-.567.182-1.8.607-3.53,2.212-4.61,1.2-.81,2.5-1.473,3.772-2.183.965-.538,1.955-1.035,2.92-1.577a8.213,8.213,0,0,0,3.188-3.305c.758-1.373,1.542-2.738,2.405-4.048a7.734,7.734,0,0,1,3.133-2.883,7.058,7.058,0,0,1,5.87-.115,8.166,8.166,0,0,1,3.792,3.328c.653,1.028,1.205,2.125,1.783,3.2a10.032,10.032,0,0,0,4.374,4.372c1.158.587,2.353,1.105,3.5,1.72a19.584,19.584,0,0,1,2.505,1.573,5.642,5.642,0,0,1,1.937,3.55c.1.447.113.91.178,1.49M808.512,15.564a2.731,2.731,0,0,0-2.56-2.778,2.609,2.609,0,0,0-2.747,2.563,2.656,2.656,0,1,0,5.307.215" transform="translate(-769.22 -7.337)"/>
  <path id="路径_92" data-name="路径 92" d="M806.179,29.123c3.165,0,6.332.063,9.493-.033a1.918,1.918,0,0,1,1.757,2.507,1.869,1.869,0,0,1-1.842,1.3q-5.828.017-11.652.027-3.492,0-6.987-.018a2.059,2.059,0,0,1-1.847-.913,1.865,1.865,0,0,1,.247-2.35,1.616,1.616,0,0,1,1.277-.528c3.185.027,6.368.013,9.553.013" transform="translate(-762.743 7.164)"/>
  <path id="路径_93" data-name="路径 93" d="M804.323,41.042q-3.843,0-7.683,0a1.921,1.921,0,0,1-1.833-1.678,1.873,1.873,0,0,1,1.612-2.063c.117-.007.232-.017.348-.017q8.06-.06,16.12-.113c.9-.007,1.372.638,1.758,1.32a1.6,1.6,0,0,1-.253,1.845,1.3,1.3,0,0,1-.718.442,9.811,9.811,0,0,1-1.842.223c-2.5.023-5.005.008-7.508.008Z" transform="translate(-762.739 12.552)"/>
  <path id="路径_94" data-name="路径 94" d="M789.232,46.047,784.1,40.9c.8-.8,1.625-1.627,2.527-2.53.825.793,1.682,1.615,2.583,2.478.2-.177.38-.317.54-.473,1.623-1.615,3.238-3.237,4.865-4.848.355-.352.742-.672,1.142-1.032a28.312,28.312,0,0,1,2.56,2.39c-.2.457-8.55,8.848-9.083,9.167" transform="translate(-769.874 10.765)" fill="#18f3bd"/>
  <path id="路径_95" data-name="路径 95" d="M784.125,32.766l2.482-2.527c.826.778,1.667,1.567,2.548,2.4a7.036,7.036,0,0,0,.565-.45q2.738-2.655,5.463-5.318c.1-.1.193-.19.3-.28a.377.377,0,0,1,.57.008c.752.755,1.5,1.513,2.205,2.23-3,2.988-5.988,5.965-9.049,9.015l-5.08-5.073" transform="translate(-769.857 5.412)" fill="#18f3bd"/>
  <path id="路径_96" data-name="路径 96" d="M784.035,48.865l2.585-2.6,2.743,2.722c2.14-2.113,4.255-4.2,6.408-6.323a28.573,28.573,0,0,1,2.475,2.347l-9.035,9.01a71.413,71.413,0,0,1-5.177-5.16" transform="translate(-769.917 16.217)" fill="#18f3bd"/>
  <path id="路径_97" data-name="路径 97" d="M800.591,45.394c1.415,0,2.83,0,4.245,0a1.136,1.136,0,0,1,.787.29,2.056,2.056,0,0,1-.238,3.223.975.975,0,0,1-.542.145q-4.305.015-8.608,0c-.595,0-1.3-.775-1.408-1.488a1.954,1.954,0,0,1,.865-2.015,1.187,1.187,0,0,1,.655-.148c1.415-.013,2.83-.007,4.245-.007" transform="translate(-762.743 18.033)"/>
  <path id="路径_98" data-name="路径 98" d="M818.808,59.469q6.518-6.51,12.9-12.887l5.148,5.17c-.1.118-.243.3-.4.457q-2.813,2.788-5.628,5.573-3.3,3.285-6.587,6.583c-1.588,1.6-3.167,3.2-4.748,4.805-.1.1-.19.2-.29.288-.365.335-.455.34-.818-.02q-1.262-1.25-2.513-2.512-3.5-3.5-7-7c-.162-.16-.305-.34-.42-.468l5.157-5.142c1.708,1.62,3.383,3.388,5.2,5.153" transform="translate(-753.641 18.827)" fill="#18f3bd"/>
</svg>
