<svg id="组_2" data-name="组 2" xmlns="http://www.w3.org/2000/svg" width="148.073" height="100" viewBox="0 0 148.073 100">
  <path id="路径_65" data-name="路径 65" d="M1008.425,112.688H895.452a5.166,5.166,0,1,1,0-10.331H1003.26V23.021H875.851V85.156a5.165,5.165,0,1,1-10.331,0v-67.3a5.167,5.167,0,0,1,5.166-5.166h137.74a5.169,5.169,0,0,1,5.168,5.166v89.669a5.167,5.167,0,0,1-5.168,5.166" transform="translate(-865.52 -12.688)"/>
  <path id="路径_66" data-name="路径 66" d="M926.056,68.709a5.167,5.167,0,0,1-3.288-1.18l-44.1-36.39a5.166,5.166,0,0,1,6.575-7.97l40.815,33.678L966.108,23.8a5.166,5.166,0,1,1,6.574,7.97L929.344,67.529a5.16,5.16,0,0,1-3.289,1.18" transform="translate(-852.02 -1.547)" fill="#18f3bd"/>
</svg>
