<svg id="组_8" data-name="组 8" xmlns="http://www.w3.org/2000/svg" width="84.813" height="100" viewBox="0 0 84.813 100">
  <path id="路径_49" data-name="路径 49" d="M524.32,81.8a3.852,3.852,0,0,1-2.908-1.326q-1.232-1.42-2.437-2.782c-1.813-2.061-3.525-4.006-5.214-6.062A106.032,106.032,0,0,1,499.288,49.31a53.177,53.177,0,0,1-4.615-14.832,29.979,29.979,0,1,1,59.449-7.69,37.88,37.88,0,0,1-2.381,16.834,80.482,80.482,0,0,1-9.834,18.744A135.727,135.727,0,0,1,527.8,79.733l-.461.6a3.851,3.851,0,0,1-2.933,1.46h-.086m.029-74.088q-1.064,0-2.146.1a22.349,22.349,0,0,0-19.909,25.534,45.643,45.643,0,0,0,3.975,12.7,98.36,98.36,0,0,0,13.445,20.689c1.483,1.8,3.021,3.562,4.639,5.4a126.621,126.621,0,0,0,11.179-14.1,73.088,73.088,0,0,0,8.933-16.962,30.529,30.529,0,0,0,1.991-13.488A22.267,22.267,0,0,0,524.35,7.707" transform="translate(-481.915 0)"/>
  <path id="路径_50" data-name="路径 50" d="M518.576,37.406c-.059,0-.116,0-.174,0h0a13.438,13.438,0,0,1,.072-26.875h.188a13.438,13.438,0,0,1-.088,26.876m-.094-19.169A5.731,5.731,0,0,0,518.5,29.7l.071,0a5.732,5.732,0,0,0-.012-11.463h-.077" transform="translate(-476.097 5.701)"/>
  <path id="路径_51" data-name="路径 51" d="M528.684,78.333c-24.176,0-42.406-9.482-42.406-22.058,0-5.506,3.633-10.7,10.227-14.621a3.854,3.854,0,1,1,3.941,6.623c-2.414,1.435-6.461,4.382-6.461,8,0,6.774,14.84,14.351,34.7,14.351s34.7-7.577,34.7-14.351c0-3.046-2.993-6.31-8.211-8.96a3.853,3.853,0,1,1,3.488-6.871c8.015,4.069,12.429,9.692,12.429,15.831,0,12.576-18.231,22.058-42.406,22.058" transform="translate(-486.278 21.667)" fill="#18f3bd"/>
</svg>
