<svg id="组_9" data-name="组 9" xmlns="http://www.w3.org/2000/svg" width="110.169" height="100" viewBox="0 0 110.169 100">
  <path id="路径_43" data-name="路径 43" d="M421.266,106.209a4.237,4.237,0,1,1,0-8.475l61.015,0a5.8,5.8,0,0,0,6.024-5.976q.005-30.486,0-60.971a5.8,5.8,0,0,0-5.915-5.93l-4.313,0c-3.507.005-7.014.01-10.515-.047a7.535,7.535,0,0,1-5.122-2.247c-1.347-1.4-2.663-2.842-3.976-4.283-1.09-1.192-2.18-2.385-3.29-3.558-8.959-.049-18.017-.051-26.939,0-1.11,1.169-2.195,2.359-3.281,3.549-1.324,1.451-2.646,2.9-4.005,4.314a7.543,7.543,0,0,1-5.125,2.225c-3.48.056-6.951.049-10.429.044l-4.4,0a5.805,5.805,0,0,0-5.9,5.954q0,30.486.008,60.971a4.237,4.237,0,0,1-4.236,4.239h0a4.235,4.235,0,0,1-4.237-4.236q-.01-30.488-.008-60.974a14.261,14.261,0,0,1,14.361-14.429l4.431,0c3.266.007,6.524.012,9.781-.036,1.185-1.244,2.344-2.515,3.505-3.786,1.256-1.376,2.512-2.751,3.8-4.1a7.284,7.284,0,0,1,5.039-2.21c9.371-.058,18.9-.056,28.317,0a7.292,7.292,0,0,1,5.046,2.19c1.3,1.354,2.561,2.739,3.825,4.124,1.159,1.268,2.315,2.536,3.5,3.778,3.278.049,6.558.042,9.842.039l4.341,0a14.256,14.256,0,0,1,14.376,14.4q.01,30.488,0,60.976a14.323,14.323,0,0,1-14.495,14.449Zm47.281-89.52.005,0Zm-39.93-2.373-.017.017.017-.017m13.22,76.561h-.005a29.653,29.653,0,0,1-20.981-8.629,29.1,29.1,0,0,1-8.734-20.824,29.693,29.693,0,0,1,29.61-29.705h0a4.237,4.237,0,1,1,0,8.475,21.21,21.21,0,0,0-21.137,21.232,20.687,20.687,0,0,0,6.22,14.8,21.228,21.228,0,0,0,15.02,6.178h0A21.227,21.227,0,0,0,462.8,61.477a4.237,4.237,0,0,1,4.237-4.236h0a4.236,4.236,0,0,1,4.236,4.239,29.817,29.817,0,0,1-29.436,29.4" transform="translate(-386.613 -6.209)"/>
  <path id="路径_44" data-name="路径 44" d="M424.977,30.342a14.181,14.181,0,1,1-14.229,14.029,14.014,14.014,0,0,1,14.229-14.029" transform="translate(-369.841 10.562)" fill="#18f3bd"/>
</svg>
