<svg xmlns="http://www.w3.org/2000/svg" xmlns:xlink="http://www.w3.org/1999/xlink" width="81.007" height="100" viewBox="0 0 81.007 100">
  <defs>
    <clipPath id="clip-path">
      <rect id="矩形_16" data-name="矩形 16" width="30.236" height="40.941" fill="none"/>
    </clipPath>
  </defs>
  <g id="组_16" data-name="组 16" transform="translate(-1456.339 -1693)">
    <g id="组_4" data-name="组 4" transform="translate(1453 1693)">
      <path id="路径_76" data-name="路径 76" d="M1148.721,30.013q0,31.523-.017,63.079a10.469,10.469,0,0,1-3.4,7.983,10.091,10.091,0,0,1-6.831,2.883c-1.8.033-3.616.067-5.416.067q-24.473.025-48.963,0h-.3a3.766,3.766,0,0,1-.433-.017h-.066a3.334,3.334,0,0,1,.35-6.65h.017q26.623-.025,53.214,0c.4,0,.815,0,1.215-.017a3.907,3.907,0,0,0,3.666-2.466,4.637,4.637,0,0,0,.283-2.017q-.075-23.623-.134-47.23,0-6.475-.017-12.949c0-.25-.015-.5-.033-.783h-.833c-4.25.017-8.514.017-12.764.017a7.044,7.044,0,0,1-5.2-2.183,7.36,7.36,0,0,1-2.167-5.333c-.018-4.316,0-8.633,0-12.949,0-.25-.018-.5-.035-.8h-.767q-9.974,0-19.965.017c-3.85,0-7.683.05-11.533.067-1.781.017-3.567,0-5.349,0a3.866,3.866,0,0,0-3.433,2.017,4.265,4.265,0,0,0-.55,2.35q.025,14.724.017,29.464h-6.616c0-9.9.017-19.815,0-29.714a10.469,10.469,0,0,1,1.651-5.8,10.407,10.407,0,0,1,6.981-4.75,13.1,13.1,0,0,1,2.55-.233q19.326-.025,38.649-.033a2.03,2.03,0,0,1,1.582.667q12.074,12.074,24.165,24.132a1.525,1.525,0,0,1,.483,1.183" transform="translate(-1064.375 -4.032)"/>
    </g>
    <g id="组_15" data-name="组 15" transform="translate(1456.339 1740)">
      <g id="组_14" data-name="组 14" transform="translate(0 0)" clip-path="url(#clip-path)">
        <path id="路径_99" data-name="路径 99" d="M23.4,44.365H6.831A6.839,6.839,0,0,1,0,37.533V25.763a6.839,6.839,0,0,1,6.831-6.832H23.4a6.84,6.84,0,0,1,6.832,6.832v11.77A6.839,6.839,0,0,1,23.4,44.365M6.831,23.027A2.739,2.739,0,0,0,4.1,25.763v11.77A2.739,2.739,0,0,0,6.831,40.27H23.4a2.739,2.739,0,0,0,2.737-2.737V25.763A2.739,2.739,0,0,0,23.4,23.027Z" transform="translate(0 -3.425)"/>
        <path id="路径_100" data-name="路径 100" d="M24.046,19.6H8.539a2.047,2.047,0,0,1-2.048-2.048V9.8a9.8,9.8,0,1,1,19.6,0v7.754A2.048,2.048,0,0,1,24.046,19.6m-13.46-4.1H22V9.8a5.706,5.706,0,0,0-11.412,0Z" transform="translate(-1.174 0)"/>
        <path id="路径_101" data-name="路径 101" d="M17.248,38.72a5.472,5.472,0,1,1,5.472-5.472,5.478,5.478,0,0,1-5.472,5.472m0-6.849a1.377,1.377,0,1,0,1.377,1.377,1.378,1.378,0,0,0-1.377-1.377" transform="translate(-2.13 -5.025)" fill="#18f3bd"/>
      </g>
    </g>
  </g>
</svg>
