<svg xmlns="http://www.w3.org/2000/svg" viewBox="0 0 59.45 59.45"><defs><style>.cls-1{fill:#18eebd;}.cls-2{fill:#130f41;}</style></defs><g id="Layer_2" data-name="Layer 2"><g id="Layer_1-2" data-name="Layer 1"><path class="cls-1" d="M14.45,59.45H2.3A2.3,2.3,0,0,1,0,57.15V44.74a2.31,2.31,0,1,1,4.61,0v10.1h9.84a2.31,2.31,0,1,1,0,4.61Z"/><path class="cls-1" d="M57.15,59.45H45a2.31,2.31,0,0,1,0-4.61h9.88V44.09a2.31,2.31,0,1,1,4.61,0V57.15A2.3,2.3,0,0,1,57.15,59.45Z"/><path class="cls-1" d="M57.15,15.78a2.3,2.3,0,0,1-2.31-2.3V4.61H45A2.31,2.31,0,0,1,45,0H57.15a2.3,2.3,0,0,1,2.3,2.3V13.48A2.3,2.3,0,0,1,57.15,15.78Z"/><path class="cls-1" d="M2.3,15.78A2.3,2.3,0,0,1,0,13.48V2.3A2.3,2.3,0,0,1,2.3,0H13.8a2.31,2.31,0,0,1,0,4.61H4.61v8.87A2.3,2.3,0,0,1,2.3,15.78Z"/><path class="cls-2" d="M29.72,29a9.71,9.71,0,1,1,9.71-9.71A9.71,9.71,0,0,1,29.72,29Zm0-15.33a5.63,5.63,0,1,0,5.63,5.62A5.62,5.62,0,0,0,29.72,13.68Z"/><path class="cls-2" d="M43.83,49.85a2,2,0,0,1-2-2A12.31,12.31,0,0,0,29.72,35.29,12.31,12.31,0,0,0,17.66,47.81a2,2,0,0,1-4.08,0,16.4,16.4,0,0,1,16.14-16.6,16.4,16.4,0,0,1,16.15,16.6A2,2,0,0,1,43.83,49.85Z"/></g></g></svg>