<svg id="组_13" data-name="组 13" xmlns="http://www.w3.org/2000/svg" width="129.511" height="100" viewBox="0 0 129.511 100">
  <path id="路径_34" data-name="路径 34" d="M67.03,12.1A89.39,89.39,0,0,1,126.661,36.66c3.264,3.039,3.676,5.869,1.487,8.88a6.185,6.185,0,0,1-9.18,1.278c-2.364-1.85-4.483-4.017-6.881-5.819-15.258-11.466-32.451-17.1-51.528-15.992a76.385,76.385,0,0,0-46.237,18.7c-1.187,1.017-2.329,2.092-3.555,3.056-3,2.357-6.229,2.167-8.714-.455-2.668-2.819-2.895-6.329.27-8.878,6.152-4.958,12.312-10.085,19.12-14.013,13.335-7.7,28-11.19,45.588-11.321" transform="translate(0 -12.098)"/>
  <path id="路径_35" data-name="路径 35" d="M56.1,22.2c16.236.49,30.946,5.772,43.379,16.942,4.213,3.786,4.982,7.326,2.23,10.447-2.914,3.309-6.255,3.065-10.592-.837a50.825,50.825,0,0,0-20.23-11.4c-18.652-5.3-35.35-1.4-50.164,10.972-.829.693-1.6,1.463-2.461,2.115-3.039,2.288-6.186,2-8.675-.747a6.176,6.176,0,0,1,.278-8.744A63.936,63.936,0,0,1,30.175,27.5,70.084,70.084,0,0,1,56.1,22.2" transform="translate(9.159 -0.395)"/>
  <path id="路径_36" data-name="路径 36" d="M48.24,32.413c9.439.091,18.777,3.849,26.638,11.239,3.249,3.054,3.536,6.592.863,9.461-2.748,2.953-6.024,2.91-9.506-.125C53.99,42.312,39.4,42.282,27.162,52.908c-4.026,3.5-8.256,3.08-10.572-1.045-1.55-2.763-1.125-5.146,1.388-7.775C25,36.743,35.719,32.411,48.24,32.413" transform="translate(18.17 11.437)"/>
  <path id="路径_37" data-name="路径 37" d="M56.33,59.642A17.512,17.512,0,0,1,39.336,76.81,17.511,17.511,0,0,1,22.079,59.544,17.513,17.513,0,0,1,39.252,42.557,17.508,17.508,0,0,1,56.33,59.642M48.1,54.2c-2.979-3.959-2.972-3.954-5.981-.993-.92.9-1.878,1.763-2.923,2.743-1.962-1.828-3.764-3.505-5.763-5.368l-3.5,3.136c2.089,2.266,3.76,4.08,5.519,5.99L30.1,65.452c1.146,1.282,2.07,2.314,3.132,3.5l5.992-5.519c1.947,1.817,3.749,3.492,5.744,5.351l3.5-3.13c-2.087-2.269-3.758-4.082-5.526-6L48.1,54.2" transform="translate(25.576 23.189)" fill="#18f3bd"/>
</svg>
