<svg id="组_10" data-name="组 10" xmlns="http://www.w3.org/2000/svg" width="93.795" height="100" viewBox="0 0 93.795 100">
  <path id="路径_40" data-name="路径 40" d="M331.3,16.515h.442a18.617,18.617,0,0,1,13.24,5.556A19.085,19.085,0,1,1,331.3,16.515m0-9.091a28.15,28.15,0,0,0,.109,56.3h.1a28.15,28.15,0,0,0,.235-56.3H331.3" transform="translate(-287.7 -7.424)"/>
  <path id="路径_41" data-name="路径 41" d="M322.529,49.163a43.21,43.21,0,0,0,11.793,2.853c1.418.133,2.849.2,4.249.2h.255a29.786,29.786,0,0,0,6.738,19.4h-.375l-11.629-.005L321.92,71.6q-9,0-17.986.029a40.507,40.507,0,0,1,3.053-13.176,15.877,15.877,0,0,1,12.16-9.145,32.665,32.665,0,0,1,3.358-.145h.024m1.5-9.116h-.024c-1.991.053-4-.005-5.975.238a24.952,24.952,0,0,0-19.422,14.642,50.852,50.852,0,0,0-3.871,19.22,6.469,6.469,0,0,0,6.493,6.585h.031q10.326-.049,20.658-.04,11.632,0,23.269.011h.169q8.345,0,16.687,0,7.026,0,14.053-.015a5.971,5.971,0,0,0,5.642-3.68,9.422,9.422,0,0,0,.545-4.82c-.025-.516-.1-1.029-.16-1.691a22.129,22.129,0,0,1-9.584,3.678,21.7,21.7,0,0,1-9.985-1.055,19.873,19.873,0,0,1-8.487-5.5c-7.329-8.24-7.882-17.235-2.725-26.951-.516.182-.94.336-1.367.482s-.869.3-1.307.44a33.741,33.741,0,0,1-10.1,1.525q-1.7,0-3.406-.16a34.332,34.332,0,0,1-10.36-2.691,2.108,2.108,0,0,0-.776-.225" transform="translate(-294.738 19.268)"/>
  <path id="路径_42" data-name="路径 42" d="M361.839,50.6c0-.513-.215-.665-.693-.653-.845.024-1.691.013-2.535,0a1.852,1.852,0,0,1-1.871-1.2,1.88,1.88,0,0,1,.611-2.136c.724-.713,1.42-1.453,2.1-2.155l-5.445-5.493c-.751.742-1.507,1.46-2.227,2.215a1.832,1.832,0,0,1-2.093.527,1.708,1.708,0,0,1-1.127-1.82c.016-.871,0-1.742,0-2.613,0-.465-.182-.693-.689-.689q-3.226.025-6.453,0c-.558,0-.709.249-.7.749.018.895.022,1.793,0,2.689a1.754,1.754,0,0,1-2.24,1.744,3.48,3.48,0,0,1-1.24-.849c-.68-.616-1.313-1.282-2.109-2.069-1.751,1.78-3.416,3.476-5.084,5.169-.276.28-.238.52.033.784.605.589,1.2,1.191,1.795,1.793a1.942,1.942,0,0,1,.6,2.28,2.022,2.022,0,0,1-2.04,1.085c-.794-.031-1.589.013-2.382-.011-.5-.016-.684.2-.682.685.009,2.124.013,4.251,0,6.376,0,.535.224.72.742.707.9-.025,1.793-.009,2.689,0a1.748,1.748,0,0,1,1.673,1.144,1.7,1.7,0,0,1-.373,1.985q-.957.944-1.9,1.9c-.48.487-.48.573,0,1.055,1.5,1.505,3.013,3,4.5,4.516.351.358.589.378.94.013.673-.7,1.373-1.376,2.085-2.038a1.616,1.616,0,0,1,1.855-.336,1.782,1.782,0,0,1,1.155,1.744c-.022.9.009,1.793-.007,2.689-.009.478.164.7.669.695,2.151-.015,4.3-.018,6.453,0,.545,0,.729-.236.722-.736-.007-.82.025-1.64,0-2.458a1.867,1.867,0,0,1,1.1-1.935,1.891,1.891,0,0,1,2.147.578q.821.81,1.634,1.624c.635.635.675.624,1.315-.049.545-.573,1.122-1.118,1.68-1.68,1.022-1.029,2.042-2.062,3.124-3.155-.784-.791-1.518-1.533-2.253-2.273a1.792,1.792,0,0,1-.527-2.153,1.83,1.83,0,0,1,1.835-1.138c.844,0,1.689-.016,2.535.005.48.011.7-.151.691-.66q-.025-3.226,0-6.455M344.675,61.621c-4.349-.247-7.758-3.105-7.775-7.764a7.725,7.725,0,0,1,15.451-.016c-.009,4.553-3.113,7.433-7.676,7.78" transform="translate(-268.043 16.436)" fill="#18f3bd"/>
</svg>
