<svg xmlns="http://www.w3.org/2000/svg" viewBox="0 0 106.28 120.83"><g id="Layer_2" data-name="Layer 2"><g id="Layer_2-2" data-name="Layer 2"><path d="M96.08,8.65c-2.74,1.24-5.33,2.41-7.93,3.57-3.61,1.63-7.22,3.27-10.84,4.87a1.83,1.83,0,0,1-1.32.06c-6.19-2.71-12.35-5.47-18.52-8.21l-.55-.31c.34-.18.59-.34.85-.46q9-4,18-8A1.85,1.85,0,0,1,77.09.08c6.2,2.75,12.38,5.54,18.57,8.32Z"/><path d="M74.85,39.31c-1.9-.86-3.71-1.67-5.52-2.5-4-1.82-8-3.65-11.94-5.46-.42-.2-.74-.35-.74-.93,0-5.91,0-11.82,0-17.73,0-.06,0-.12.06-.28.53.23,1,.44,1.56.67l15.84,7.23c.45.21.78.38.77,1,0,5.81,0,11.62,0,17.44C74.9,38.92,74.87,39.06,74.85,39.31Z"/><path d="M96.26,12.45V25.28c0,1.68,0,3.37,0,5a1.13,1.13,0,0,1-.46.88q-8.72,4-17.48,8c-.05,0-.12,0-.27,0v-3.5q0-7.11,0-14.21c0-.49,0-.86.59-1.12q8.64-3.9,17.23-7.85A1.89,1.89,0,0,1,96.26,12.45Z"/><path d="M82,120.83H39.07a3.91,3.91,0,0,1,0-7.81H82a16.49,16.49,0,1,0,0-33H24.29a24.29,24.29,0,1,1,0-48.58H45.18a3.91,3.91,0,0,1,0,7.81H24.29a16.49,16.49,0,1,0,0,33H82a24.29,24.29,0,1,1,0,48.58Z"/></g></g></svg>