<svg id="组_6" data-name="组 6" xmlns="http://www.w3.org/2000/svg" width="100.023" height="100" viewBox="0 0 100.023 100">
  <path id="路径_45" data-name="路径 45" d="M753.677,42.843c-.888-.96-1.763-1.93-2.65-2.888-1.127-1.218-2.263-2.43-3.393-3.645q-.85-.913-1.7-1.823c-1.1-1.185-2.2-2.373-3.307-3.555-.782-.835-1.57-1.66-2.357-2.49-.238-.252-.485-.5-.72-.753-.8-.87-1.6-1.747-2.4-2.613-.692-.745-1.4-1.482-2.092-2.223-.043-.045-.083-.093-.125-.14-.608-.678-1.207-1.365-1.828-2.03-.59-.633-1.213-1.235-1.8-1.868-.522-.562-1-1.16-1.523-1.722-.878-.942-1.773-1.868-2.662-2.8-.2-.21-.395-.423-.617-.658-3.063-.092-6.1.105-9.132-.13q-13.648,0-27.3.007c-2.118,0-4.237-.11-6.355.09a10.984,10.984,0,0,0-2,.375A8.458,8.458,0,0,0,678,16.247,8.265,8.265,0,0,0,676.224,19a6.422,6.422,0,0,0-.587,2.835c.025.332,0,.667,0,1V91.419c0,.54.008,1.082.013,1.623a1.846,1.846,0,0,0,.017.373A9.475,9.475,0,0,0,678.011,98a8.3,8.3,0,0,0,2.19,1.617,7.284,7.284,0,0,0,3.483.982c.4,0,.792,0,1.187,0h59.836c.4,0,.792-.025,1.187,0a6.474,6.474,0,0,0,3.267-.867,8.293,8.293,0,0,0,3.033-2.518,8.518,8.518,0,0,0,1.8-5.187q.01-23.953,0-47.906c0-.167-.007-.333,0-.5a1.057,1.057,0,0,0-.322-.782m-4.192,4.2v44.6a4.435,4.435,0,0,1-1.845,3.7,3.2,3.2,0,0,1-2.135.747c-.415-.027-.832,0-1.248,0q-29.918,0-59.838.01a4.119,4.119,0,0,1-4.262-3.942q0-35.041,0-70.08a3.833,3.833,0,0,1,1.572-3.037,4.31,4.31,0,0,1,2.832-.918q19.053.013,38.1.005h.617a1.152,1.152,0,0,1,.1.747q.007,7.9,0,15.8c0,1.042,0,2.083,0,3.123a8.327,8.327,0,0,0,1.372,4.508,8.646,8.646,0,0,0,2.485,2.565,8.284,8.284,0,0,0,3.74,1.392,36.729,36.729,0,0,0,3.923.093c4.6.017,9.2.007,13.8.007h.782Z" transform="translate(-675.626 -0.61)"/>
  <path id="路径_46" data-name="路径 46" d="M766.982,36.319v-1.1c-.617-.66-1.2-1.28-1.775-1.9-.338-.362-.672-.725-1.005-1.09-.993-1.087-1.982-2.178-2.982-3.26-1.112-1.205-2.232-2.4-3.349-3.6q-1.7-1.825-3.393-3.647c-.988-1.063-1.968-2.137-2.957-3.2-.7-.757-1.415-1.5-2.125-2.255q-1.285-1.358-2.575-2.712c-.028-.03-.058-.058-.087-.088L744.26,10.75c-.4-.442-.8-.885-1.213-1.32-.47-.5-.955-.973-1.42-1.472-.425-.453-.837-.918-1.25-1.383-.247-.275-.488-.555-.718-.817H697.877c-.5,0-1,.018-1.5.007a4.485,4.485,0,0,0-1.69.353c-.173.065-.347.135-.523.2a7.541,7.541,0,0,0-2.583,1.577,8.678,8.678,0,0,0-2.787,4.815,3.7,3.7,0,0,0-.122,1.758,27.166,27.166,0,0,0,4.422-.028,1.8,1.8,0,0,0,.037-.177,4.516,4.516,0,0,1,1.188-2.683,3.968,3.968,0,0,1,2.918-1.312q19.268.022,38.537.01c.083,0,.167-.007.25,0,.137.013.273.035.442.058v.717q0,9.618,0,19.237a2.616,2.616,0,0,0,.019.562,9.97,9.97,0,0,0,.9,2.76c.212.377.472.73.672,1.113a5.94,5.94,0,0,0,1.588,1.738,7.962,7.962,0,0,0,3.4,1.73,9.637,9.637,0,0,0,2.137.322q8.245,0,16.489,0h.783V83.735c0,.292,0,.583,0,.875a1.481,1.481,0,0,1-.042.432,4.871,4.871,0,0,1-1.069,1.872,4.162,4.162,0,0,1-3.05,1.318c-2.685.013-5.372,0-8.057.007-.238,0-.477.042-.693.06a24.813,24.813,0,0,0,.027,4.452h.6c2.687,0,5.372-.008,8.058,0a9.145,9.145,0,0,0,3.835-.842,8.284,8.284,0,0,0,3.2-2.605A8.2,8.2,0,0,0,767,84.163q-.042-23.923-.015-47.844" transform="translate(-666.973 -5.758)" fill="#18f3bd"/>
</svg>
