<svg xmlns="http://www.w3.org/2000/svg" viewBox="0 0 114.11 142.21"><defs><style>.cls-1{fill:#130f41;}.cls-2{fill:#18f3bd;}</style></defs><g id="Layer_2" data-name="Layer 2"><g id="Layer_2-2" data-name="Layer 2"><path class="cls-1" d="M.05,71.19c0-19.32.07-38.65,0-58C0,7.16,5.49,0,13.23,0Q46.8.07,80.38,0A14.78,14.78,0,0,1,91.57,4.86c4.31,4.51,8.66,9,13,13.47q2.81,2.91,5.57,5.88a14.44,14.44,0,0,1,4,10.27q-.09,37.46,0,74.89,0,9.9,0,19.81c0,5.59-2.9,9.34-7.7,11.8a11.92,11.92,0,0,1-5.57,1.19c-29.1,0-58.21-.07-87.31,0-5.61,0-11.85-4-13.22-10.38a10.12,10.12,0,0,1-.21-2.13q0-29.26,0-58.51Zm6.7,0v40.68c0,5.46,0,10.92,0,16.38,0,3.86,2.22,6.61,5.85,7,1,.1,2,.21,3,.21H59.21c13.32,0,26.64,0,40,0a13.71,13.71,0,0,0,3.55-.45c2.88-.78,4.62-3.34,4.63-6.73,0-8.88,0-17.76,0-26.64q0-31,0-61.92a6.51,6.51,0,0,0-.32-2.11,6.09,6.09,0,0,0-6.11-4.15c-3.48,0-7,0-10.44,0-4.71,0-7.61-3-7.61-7.66,0-3.78,0-7.56,0-11.34a20.29,20.29,0,0,0-.36-3.57,5,5,0,0,0-5-4.09c-1.74,0-3.48,0-5.22,0q-28.8,0-57.6,0a11,11,0,0,0-3.52.57c-2.85,1-4.41,3.6-4.41,7.13Q6.75,42.83,6.75,71.18Z"/><path class="cls-2" d="M23.91,73.51H18.27c.08-.38,9-15.26,9.42-15.76a2.56,2.56,0,0,1,.26.34L32.72,66c1.4,2.33,2.79,4.66,4.19,7,.08.14.15.28.27.52-2.08.07-4.06,0-6.09,0,0,.33,0,.62.07.92a25.91,25.91,0,0,0,2.9,9.32,26.66,26.66,0,0,0,25.8,13.7,25.79,25.79,0,0,0,7.86-2A26.79,26.79,0,0,0,82.85,78.14a25.2,25.2,0,0,0,.9-5.39,25.51,25.51,0,0,0-3.61-14.84A27.12,27.12,0,0,0,69.33,47.7a25,25,0,0,0-8.47-2.65c-1-.13-2-.12-3-.22a6.8,6.8,0,0,1-1.67-.35,2.66,2.66,0,0,1-1.7-2.32A4.6,4.6,0,0,1,54.63,40a3.23,3.23,0,0,1,3.15-2.22,34.76,34.76,0,0,1,7.65,1,33.16,33.16,0,0,1,10.77,4.9,33.68,33.68,0,0,1,8.3,8.2,33.16,33.16,0,0,1,4.44,8.71,33.91,33.91,0,0,1,1.54,7,37.74,37.74,0,0,1,.12,5.92,27.85,27.85,0,0,1-.75,5.13A33.24,33.24,0,0,1,84.7,90.3a33.81,33.81,0,0,1-8.22,8.27,33.38,33.38,0,0,1-9.5,4.68,35.23,35.23,0,0,1-5.3,1.15,5.44,5.44,0,0,1-.81,0c-2.1,0-4.2,0-6.29,0a18.33,18.33,0,0,1-4-.42,33,33,0,0,1-8.31-2.89,33.89,33.89,0,0,1-7.91-5.53A33.42,33.42,0,0,1,27.28,86a32.48,32.48,0,0,1-2.92-9.1c-.17-1-.25-2-.38-3A3.72,3.72,0,0,0,23.91,73.51Z"/><path class="cls-2" d="M61,63.49c0,3.08,0,6.16,0,9.24a3.32,3.32,0,0,1-1,2.51l-6.15,6.15c-1,1.06-2.09,2.13-3.15,3.19a3.68,3.68,0,0,1-2.11,1.13,3.31,3.31,0,0,1-2.69-5.66Q50,76,54,72a1.2,1.2,0,0,0,.38-1q0-8.31,0-16.61A3.33,3.33,0,0,1,55.17,52a3.18,3.18,0,0,1,.9-.74,3.54,3.54,0,0,1,4.5,1.1A3.2,3.2,0,0,1,61,54.08Q61,58.79,61,63.49Z"/><path class="cls-2" d="M57.41,92.29a2.11,2.11,0,0,1-2.14-2.1A2.16,2.16,0,0,1,57.39,88a2.2,2.2,0,0,1,2.18,2.14A2.16,2.16,0,0,1,57.41,92.29Z"/><path class="cls-2" d="M73.35,58.57a2.1,2.1,0,0,1-2.11,2.13,2.16,2.16,0,0,1-2.17-2.15,2.2,2.2,0,0,1,2.14-2.14A2.12,2.12,0,0,1,73.35,58.57Z"/><path class="cls-2" d="M73.35,83.66a2.1,2.1,0,0,1-2.12,2.12,2.17,2.17,0,0,1-2.16-2.16,2.2,2.2,0,0,1,2.2-2.13A2.12,2.12,0,0,1,73.35,83.66Z"/><path class="cls-2" d="M75.87,73.46a2.08,2.08,0,0,1-2.12-2.12,2.11,2.11,0,0,1,2.13-2.16A2.19,2.19,0,0,1,78,71.36,2.15,2.15,0,0,1,75.87,73.46Z"/></g></g></svg>