<svg id="组_11" data-name="组 11" xmlns="http://www.w3.org/2000/svg" width="119.713" height="100" viewBox="0 0 119.713 100">
  <path id="路径_38" data-name="路径 38" d="M262.729,68.187H215.592a4.986,4.986,0,0,1,0-9.972h47.137a4.986,4.986,0,0,1,0,9.972" transform="translate(-179.303 31.813)" fill="#18f3bd"/>
  <path id="路径_39" data-name="路径 39" d="M302.65,13.093H206.9a11.979,11.979,0,0,0-11.981,11.979V83.813A11.979,11.979,0,0,0,206.9,95.793H302.65A11.979,11.979,0,0,0,314.63,83.813V25.072A11.979,11.979,0,0,0,302.65,13.093M249.594,84.007a3.125,3.125,0,0,1-3.125,3.125H211.028a3.124,3.124,0,0,1-3.125-3.125V54.819a3.124,3.124,0,0,1,3.125-3.125h35.441a3.125,3.125,0,0,1,3.125,3.125Zm0-44.631a3.3,3.3,0,0,1-3.306,3.3h-35.08a3.3,3.3,0,0,1-3.3-3.3V25.058a3.3,3.3,0,0,1,3.3-3.3h35.08a3.3,3.3,0,0,1,3.306,3.3Zm52.049,44.451a3.3,3.3,0,0,1-3.3,3.3h-35.08a3.3,3.3,0,0,1-3.306-3.3V69.51a3.3,3.3,0,0,1,3.306-3.3h35.08a3.3,3.3,0,0,1,3.3,3.3Zm0-29.761a3.124,3.124,0,0,1-3.125,3.125H263.077a3.125,3.125,0,0,1-3.125-3.125V24.879a3.125,3.125,0,0,1,3.125-3.125h35.441a3.124,3.124,0,0,1,3.125,3.125Z" transform="translate(-194.917 -13.093)"/>
</svg>
