<svg xmlns="http://www.w3.org/2000/svg" width="55" height="55" viewBox="0 0 55 55">
  <g id="document" transform="translate(-418 -666)">
    <rect id="矩形_318" data-name="矩形 318" width="55" height="55" rx="10" transform="translate(418 666)" fill="#cf7aff"/>
    <path id="路径_51161" data-name="路径 51161" d="M484.686,531.678c0-.014,0-.027,0-.039a1.173,1.173,0,0,0-.017-.149l0,0a1.2,1.2,0,0,0-.039-.147c0-.011-.009-.023-.014-.036a.986.986,0,0,0-.058-.132s0-.006,0-.008a1.136,1.136,0,0,0-.081-.13c-.008-.009-.016-.02-.024-.031a1.031,1.031,0,0,0-.1-.118l-8.443-8.443a1.037,1.037,0,0,0-.118-.1l-.031-.023a1.39,1.39,0,0,0-.13-.081l-.006,0a1.014,1.014,0,0,0-.133-.06.337.337,0,0,0-.036-.013,1.127,1.127,0,0,0-.3-.06.3.3,0,0,0-.038,0l-.041,0H461.847a2.779,2.779,0,0,0-2.777,2.775v25.448a2.78,2.78,0,0,0,2.777,2.777H481.91a2.78,2.78,0,0,0,2.777-2.777V531.717C484.687,531.7,484.686,531.691,484.686,531.678Zm-9.45,19.071h-6.69v-9.4h6.69Zm7.1-.426a.427.427,0,0,1-.426.426h-4.324V540.175A1.175,1.175,0,0,0,476.411,539h-9.04a1.175,1.175,0,0,0-1.175,1.175v10.575h-4.349a.427.427,0,0,1-.426-.426V524.875a.425.425,0,0,1,.426-.425h12.046v5.667a2.78,2.78,0,0,0,2.777,2.775h5.667Z" transform="translate(-26.07 155.9)" fill="#fff"/>
  </g>
</svg>
