<svg xmlns="http://www.w3.org/2000/svg" width="55" height="55" viewBox="0 0 55 55">
  <g id="icon_Autonomous_Systems" data-name="icon_Autonomous Systems" transform="translate(-767 -666)">
    <rect id="矩形_319" data-name="矩形 319" width="55" height="55" rx="10" transform="translate(767 666)" fill="#ff2e63"/>
    <g id="Layer_2" data-name="Layer 2" transform="translate(779.004 678)">
      <g id="圖層_1" data-name="圖層 1" transform="translate(-0.005)">
        <rect id="矩形_326" data-name="矩形 326" width="30.995" height="30.995" transform="translate(0.005)" fill="#fff" opacity="0"/>
        <path id="路径_51001" data-name="路径 51001" d="M24.361,15.023a9.35,9.35,0,0,1-9.347,9.351A8.946,8.946,0,0,1,8.355,21.64a9.152,9.152,0,0,1-2.789-6.7,9.4,9.4,0,1,1,18.8.08Zm-16.73-1.81a49.878,49.878,0,0,1,14.7.007,7.545,7.545,0,0,0-14.7-.007ZM18.2,21.793a7.189,7.189,0,0,0-1.531-1.64,1.569,1.569,0,0,0-.846-.268,14.264,14.264,0,0,0-1.647,0,1.75,1.75,0,0,0-1.221.528c-.341.354-.668.721-1,1.086a3.669,3.669,0,0,0-.225.305,7.192,7.192,0,0,0,6.466-.011Zm1.94-1.27a8.075,8.075,0,0,0,1.65-2.2,5.884,5.884,0,0,0,.689-2.515.957.957,0,0,0-.226-.031c-.391.071-.779.16-1.17.219a2.456,2.456,0,0,0-1.132.5,2.111,2.111,0,0,0-.736,2.286c.264.58.6,1.131.923,1.745Zm-12.7-4.79A7.315,7.315,0,0,0,9.8,20.505c.244-.437.437-.842.686-1.218a2.134,2.134,0,0,0-.845-3.017,6.962,6.962,0,0,0-2.2-.537Z" transform="translate(0.525 0.522)" fill="#fff"/>
        <path id="路径_51002" data-name="路径 51002" d="M25.867,8.294a1.763,1.763,0,0,1,.182-.272.588.588,0,0,1,1.05.157,14.889,14.889,0,0,1,.765,1.9,18.017,18.017,0,0,1,.676,3.561,15.712,15.712,0,0,1-.931,6.578,14.106,14.106,0,0,1-.633,1.46.835.835,0,0,1-.328.362.6.6,0,0,1-.691-.1.537.537,0,0,1-.138-.672c.13-.315.268-.627.409-.937a12.181,12.181,0,0,0,1.018-3.883c.051-.526.1-1.055.109-1.583A13.6,13.6,0,0,0,26.221,9.17C26.1,8.889,25.99,8.6,25.867,8.294Z" transform="translate(2.412 0.726)" fill="#fff"/>
        <path id="路径_51003" data-name="路径 51003" d="M1.631,7.848a2.535,2.535,0,0,1,.4-.062.559.559,0,0,1,.57.8c-.109.3-.253.593-.371.892a14.521,14.521,0,0,0-.958,4.243,14.2,14.2,0,0,0,1.346,7.217c.016.035.035.068.049.1.254.59.144.841-.475,1.08a.8.8,0,0,1-.622-.518A16.676,16.676,0,0,1,.234,17.513a15.791,15.791,0,0,1-.191-3.962A17.5,17.5,0,0,1,.48,10.927a11.692,11.692,0,0,1,1.15-3.079Z" transform="translate(0.005 0.727)" fill="#fff"/>
        <path id="路径_51004" data-name="路径 51004" d="M26.787,14.466a14.724,14.724,0,0,1-1.04,5.3c-.163.389-.381.506-.752.418a.571.571,0,0,1-.4-.833,14.361,14.361,0,0,0,.732-2.5,11.985,11.985,0,0,0-.177-5.287c-.117-.458-.28-.9-.414-1.358A.6.6,0,1,1,25.865,9.8a12.612,12.612,0,0,1,.83,3.695C26.719,13.869,26.766,14.244,26.787,14.466Z" transform="translate(2.297 0.874)" fill="#fff"/>
        <path id="路径_51005" data-name="路径 51005" d="M3.38,20.2a.561.561,0,0,1-.587-.424c-.226-.662-.471-1.321-.646-2A13.053,13.053,0,0,1,1.8,13.606a13.231,13.231,0,0,1,.83-3.756.607.607,0,0,1,1.1-.219.6.6,0,0,1,.032.643,10.1,10.1,0,0,0-.632,2.587,13.961,13.961,0,0,0-.109,2.424,13.955,13.955,0,0,0,.894,4.029C4.118,19.82,3.881,20.2,3.38,20.2Z" transform="translate(0.17 0.875)" fill="#fff"/>
        <path id="路径_51006" data-name="路径 51006" d="M3.523,14.41A12.229,12.229,0,0,1,3.912,11.6a.611.611,0,0,1,.952-.437.573.573,0,0,1,.243.693,10.126,10.126,0,0,0-.286,2.93,8.464,8.464,0,0,0,.3,2.3,2.937,2.937,0,0,1,.118.5.547.547,0,0,1-.459.62c-.34.072-.588-.017-.688-.337a11.222,11.222,0,0,1-.4-1.6C3.6,15.659,3.578,15.031,3.523,14.41Z" transform="translate(0.334 1.033)" fill="#fff"/>
        <path id="路径_51007" data-name="路径 51007" d="M24.926,14.579a10.908,10.908,0,0,1-.492,3.166c-.134.37-.284.482-.611.472a.517.517,0,0,1-.563-.568,2.5,2.5,0,0,1,.109-.553,10.328,10.328,0,0,0,.065-5.045,1.764,1.764,0,0,1-.059-.328.59.59,0,0,1,.458-.631.537.537,0,0,1,.677.361,11.472,11.472,0,0,1,.347,1.6C24.917,13.509,24.9,13.989,24.926,14.579Z" transform="translate(2.178 1.034)" fill="#fff"/>
      </g>
    </g>
  </g>
</svg>
