<svg xmlns="http://www.w3.org/2000/svg" width="55" height="55" viewBox="0 0 55 55">
  <g id="icon_Outbreak_Prevention" data-name="icon_Outbreak Prevention" transform="translate(-1214 -666)">
    <rect id="矩形_320" data-name="矩形 320" width="55" height="55" rx="10" transform="translate(1214 666)" fill="#2ecc72"/>
    <g id="Layer_2" data-name="Layer 2" transform="translate(1226 678)">
      <g id="圖層_1" data-name="圖層 1" transform="translate(-0.001)">
        <rect id="矩形_327" data-name="矩形 327" width="31" height="31" transform="translate(0.001)" fill="#fff" opacity="0"/>
        <path id="路径_51008" data-name="路径 51008" d="M5.819,17.518l-2.27,2.27c-.078-.089-.174-.185-.254-.294-.337-.459-.679-.915-1-1.388a14.708,14.708,0,0,1-1.072-1.874,12.5,12.5,0,0,1-1.07-3.3c-.065-.387-.09-.781-.124-1.173A6.356,6.356,0,0,1,0,11.014,9.985,9.985,0,0,1,.364,8.591a9.208,9.208,0,0,1,1.26-2.659A8.868,8.868,0,0,1,5.287,2.87a9.464,9.464,0,0,1,2.3-.7,9.662,9.662,0,0,1,2.116-.1,8.312,8.312,0,0,1,1.825.316,10.134,10.134,0,0,1,2,.8,11.222,11.222,0,0,1,1.859,1.228c.028.024.061.042.1.066a.374.374,0,0,0,.1-.043,11.35,11.35,0,0,1,1.4-.978,10.2,10.2,0,0,1,1.57-.766,9.2,9.2,0,0,1,1.75-.493,7.666,7.666,0,0,1,.766-.1c.328-.025.662-.034.993-.04a7.821,7.821,0,0,1,1.951.227,8.992,8.992,0,0,1,2.244.848,9.2,9.2,0,0,1,1.626,1.141,9,9,0,0,1,2.855,4.716,7.52,7.52,0,0,1,.191,1.165c.022.318.062.635.066.954a10.3,10.3,0,0,1-.233,2.234A12.648,12.648,0,0,1,29.883,16a17.047,17.047,0,0,1-1.975,3.232c-.147.194-.3.383-.437.561a.219.219,0,0,1-.04,0,.036.036,0,0,1-.019,0,.465.465,0,0,1-.058-.046q-1.071-1.07-2.141-2.142a.39.39,0,0,1-.036-.061c.1-.131.2-.266.3-.4a14.915,14.915,0,0,0,1.058-1.685A10.116,10.116,0,0,0,27.473,13a6.1,6.1,0,0,0,.187-1.183c.013-.313.043-.626.03-.937a6.506,6.506,0,0,0-.379-1.944A5.933,5.933,0,0,0,26.4,7.3a5.808,5.808,0,0,0-2.823-1.969,4.421,4.421,0,0,0-1.009-.2c-.249-.016-.5-.033-.749-.035a5.275,5.275,0,0,0-1.405.211,6.6,6.6,0,0,0-1.89.865c-.34.219-.656.481-.976.732-.354.279-.7.566-1.05.851q-.459.373-.92.744c-.023.02-.049.035-.084.059-.212-.172-.422-.339-.63-.509-.453-.365-.9-.735-1.357-1.094-.314-.249-.623-.506-.955-.729a6.643,6.643,0,0,0-2.478-1.038A5.359,5.359,0,0,0,8.64,5.1,5.525,5.525,0,0,0,5.6,6.288,5.9,5.9,0,0,0,4.072,8.1a6.234,6.234,0,0,0-.693,2.11,6.436,6.436,0,0,0-.059,1.408A8.915,8.915,0,0,0,4,14.435a13.515,13.515,0,0,0,1.7,2.915C5.738,17.406,5.782,17.468,5.819,17.518Z" transform="translate(0.001 0.192)" fill="#fff"/>
        <path id="路径_51009" data-name="路径 51009" d="M15.215,13.8c-.065.061-.109.1-.154.145-.275.282-.547.566-.824.846-.14.141-.292.272-.437.412-.164.163-.322.328-.484.5-.14.142-.284.28-.428.419l-.293.289-.4.4c-.167.167-.336.334-.5.5s-.3.315-.457.47-.3.3-.454.445c-.109.109-.219.208-.32.315-.14.142-.273.292-.413.437s-.3.285-.445.429c-.117.109-.233.226-.346.342-.14.143-.273.292-.413.437s-.3.284-.445.429-.288.3-.437.443c-.1.109-.209.219-.315.319-.155.154-.312.306-.468.459-.129.127-.259.253-.387.381l-.547.547c-.129.128-.255.257-.387.381A1.63,1.63,0,0,1,3.2,21.507a1.56,1.56,0,0,1,.437-.737q2.123-2.119,4.244-4.242l6.159-6.159a1.64,1.64,0,0,1,1.892-.3,1.9,1.9,0,0,1,.437.319c1.02,1.011,2.033,2.029,3.049,3.044.048.048.1.093.178.17V9.781c.159-.044,3.121-.052,3.34-.011,0,.073.01.153.01.232v6.7a.563.563,0,0,0,.185.437c1.211,1.2,2.413,2.411,3.622,3.614a1.64,1.64,0,0,1,.192,2.114,1.608,1.608,0,0,1-2.366.307c-.247-.21-.464-.454-.694-.684-.1-.1-.2-.2-.3-.3-.255-.248-.512-.493-.766-.745-.147-.144-.283-.3-.428-.445s-.3-.287-.444-.43c-.13-.127-.258-.254-.387-.382-.18-.18-.363-.361-.547-.547-.144-.148-.283-.3-.428-.446s-.3-.287-.443-.431c-.1-.1-.2-.2-.305-.3q-.219-.226-.444-.455c-.109-.109-.219-.225-.328-.328-.148-.144-.3-.282-.446-.428s-.267-.28-.4-.418-.292-.292-.437-.437l-.437-.437-.451-.452c-.167-.167-.328-.337-.5-.5-.264-.258-.53-.512-.791-.766C15.482,14.1,15.358,13.961,15.215,13.8Z" transform="translate(0.295 0.912)" fill="#fff"/>
        <path id="路径_51010" data-name="路径 51010" d="M14.812,23.419A40.885,40.885,0,0,0,20,20.13l2.233,2.234a1.14,1.14,0,0,1-.117.109c-.717.5-1.422,1.026-2.157,1.5-.766.5-1.561.977-2.361,1.43-.854.486-1.732.931-2.6,1.4a.372.372,0,0,1-.384,0c-1.119-.565-2.227-1.15-3.3-1.8-.791-.482-1.577-.974-2.35-1.484-.513-.337-1-.711-1.5-1.068-.04-.028-.079-.06-.109-.081l2.241-2.244a40.617,40.617,0,0,0,5.2,3.292Z" transform="translate(0.691 1.884)" fill="#fff"/>
        <path id="路径_51011" data-name="路径 51011" d="M15.97,18.643v.984a.612.612,0,0,1-.656.656c-.351.007-.7,0-1.053,0h-.884a.627.627,0,0,1-.71-.7q0-.714,0-1.428v-.509a.614.614,0,0,1,.67-.666q.978-.009,1.955,0a.618.618,0,0,1,.681.693C15.971,18,15.97,18.322,15.97,18.643Z" transform="translate(1.186 1.589)" fill="#fff"/>
      </g>
    </g>
  </g>
</svg>
