<svg xmlns="http://www.w3.org/2000/svg" width="55" height="55" viewBox="0 0 55 55">
  <g id="icon_Secured_Trusted_Home_Access" data-name="icon_Secured &amp; Trusted Home Access" transform="translate(-1214 -462)">
    <rect id="矩形_314" data-name="矩形 314" width="55" height="55" rx="10" transform="translate(1214 462)" fill="#f15e5a"/>
    <g id="Layer_2" data-name="Layer 2" transform="translate(1226 474)">
      <g id="圖層_1" data-name="圖層 1">
        <rect id="矩形_324" data-name="矩形 324" width="31" height="31" fill="#fff" opacity="0"/>
        <path id="路径_50995" data-name="路径 50995" d="M1.654,2.966C6.858,4.773,11.47,4.164,15.366,0c3.912,4.125,8.552,4.805,13.718,2.982a27.9,27.9,0,0,1,.394,7.3,26.4,26.4,0,0,1-2.734,10.728,21.544,21.544,0,0,1-9.635,9.531,3.51,3.51,0,0,1-3.509-.032A21.624,21.624,0,0,1,2.111,15.8,32.134,32.134,0,0,1,1.654,2.966ZM8.816,20.983H21.957V15.538l1.881-1.9c.007-.008-1.106-.9-1.213-.984a6.78,6.78,0,0,1-1.342-1.4A2.942,2.942,0,0,1,20.827,9.7c-.01-.491.159-1.029-.208-1.439a.99.99,0,0,0-1.439,0c-.21.165-.273.517-.46.908L15.354,6.383,6.722,13.792l1.61,1.854.483-.352Z" transform="translate(0.114)" fill="#fff"/>
      </g>
    </g>
  </g>
</svg>
