<svg xmlns="http://www.w3.org/2000/svg" width="55" height="55" viewBox="0 0 55 55">
  <g id="Icon_Process_Management" data-name="Icon_Process Management" transform="translate(-320 -666)">
    <rect id="矩形_318" data-name="矩形 318" width="55" height="55" rx="10" transform="translate(320 666)" fill="#dc9100"/>
    <g id="Layer_2" data-name="Layer 2" transform="translate(332 678.004)">
      <g id="圖層_1" data-name="圖層 1" transform="translate(-0.001 -0.004)">
        <rect id="矩形_325" data-name="矩形 325" width="30.996" height="30.996" transform="translate(0.001 0.004)" fill="#fff" opacity="0"/>
        <path id="路径_50996" data-name="路径 50996" d="M5.536,26.835H1.107A1.025,1.025,0,0,1,0,25.741q0-5.6,0-11.208a1.014,1.014,0,0,1,1.091-1.086H7.639a.99.99,0,1,1,.012,1.975H2.013v9.4H5.521c-.219-.26-.4-.493-.6-.718a.991.991,0,0,1-.219-.923.875.875,0,0,1,.642-.683.938.938,0,0,1,1,.248Q7.438,23.944,8.5,25.173a1.23,1.23,0,0,1-.078,1.5c-.656.751-1.319,1.5-1.992,2.236A1,1,0,1,1,4.92,27.583C5.1,27.352,5.292,27.127,5.536,26.835Z" transform="translate(0.001 1.261)" fill="#fff"/>
        <path id="路径_50997" data-name="路径 50997" d="M23.545,16.392c.247.3.447.535.637.776a1.015,1.015,0,0,1-.128,1.414.937.937,0,0,1-1.357-.073q-1.067-1.158-2.1-2.353a1.137,1.137,0,0,1,.042-1.422q1.026-1.157,2.052-2.309a.984.984,0,0,1,1.522,1.241c-.2.259-.411.5-.656.793H27.08V5.069H21.556a1.694,1.694,0,0,1-.488-.058A.978.978,0,0,1,21.322,3.1q3.4-.01,6.8,0a.947.947,0,0,1,.958,1.029c.009.669,0,1.338,0,2.008,0,3.017-.012,6.035.009,9.052a1.119,1.119,0,0,1-1.21,1.22c-1.312-.038-2.635-.01-3.953-.01Z" transform="translate(1.905 0.294)" fill="#fff"/>
        <path id="路径_50998" data-name="路径 50998" d="M14.652,10.44h4.384A.939.939,0,0,1,20.107,11.5q.01,3.255,0,6.513a1.007,1.007,0,0,1-1.071,1.063q-4.383.007-8.766,0a1.02,1.02,0,0,1-1.105-1.123V11.59a1.021,1.021,0,0,1,1.166-1.149Q12.491,10.438,14.652,10.44ZM18.1,17.085V12.43H11.172v4.655Z" transform="translate(0.856 0.979)" fill="#fff"/>
        <path id="路径_50999" data-name="路径 50999" d="M14.629,8.639H10.274A1.011,1.011,0,0,1,9.166,7.528q0-3.2,0-6.394A1.026,1.026,0,0,1,10.3.006h8.679a1,1,0,0,1,1.132,1.146V7.514a1.014,1.014,0,0,1-1.124,1.125ZM18.11,2H11.165V6.646H18.11Z" transform="translate(0.857 0.004)" fill="#fff"/>
        <path id="路径_51000" data-name="路径 51000" d="M14.647,20.444H19a.984.984,0,0,1,1.106,1.1q.007,3.212,0,6.424a1.018,1.018,0,0,1-1.118,1.111H10.282a1.022,1.022,0,0,1-1.115-1.114V21.571a1.016,1.016,0,0,1,1.126-1.128Q12.469,20.442,14.647,20.444Zm3.464,6.648V22.435H11.172v4.657Z" transform="translate(0.857 1.915)" fill="#fff"/>
      </g>
    </g>
  </g>
</svg>
