<svg xmlns="http://www.w3.org/2000/svg" width="55" height="55" viewBox="0 0 55 55">
  <g id="icon_Preventing_Insider_Threats" data-name="icon_Preventing Insider Threats" transform="translate(-320 -462)">
    <g id="组_10583" data-name="组 10583">
      <rect id="矩形_312" data-name="矩形 312" width="55" height="55" rx="10" transform="translate(320 462)" fill="#877aff"/>
      <g id="Layer_2" data-name="Layer 2" transform="translate(332 474)">
        <g id="圖層_1" data-name="圖層 1" transform="translate(0 0)">
          <rect id="矩形_322" data-name="矩形 322" width="31" height="31" transform="translate(0 0)" fill="#fff" opacity="0"/>
          <path id="路径_50989" data-name="路径 50989" d="M3.181,5.174c.644-.034,1.224-.051,1.794-.09A15.832,15.832,0,0,0,11.67,3.2,9.205,9.205,0,0,0,15.1.117,1.3,1.3,0,0,1,15.2,0a.992.992,0,0,1,.109.119A9.515,9.515,0,0,0,19.088,3.39a14.873,14.873,0,0,0,5.121,1.562c.89.109,1.789.131,2.684.194l.3.016c.009.122.024.24.024.355v6.259c0,1.786-.043,3.572-.028,5.359a11.433,11.433,0,0,1-1.718,6.094A16.3,16.3,0,0,1,20.6,28.2a28.325,28.325,0,0,1-5.158,2.745.529.529,0,0,1-.444.012,25.8,25.8,0,0,1-6.753-3.937,14.08,14.08,0,0,1-4.29-5.789,10.887,10.887,0,0,1-.737-4c.012-1.652.007-3.306,0-4.96-.007-2.219-.022-4.437-.034-6.656Zm12.051-1.7c-.589.425-1.136.863-1.724,1.237A17.151,17.151,0,0,1,6.576,7.175l-1.121.152v9.892A8.877,8.877,0,0,0,6.081,20.5,11.929,11.929,0,0,0,9.6,25.226a22.667,22.667,0,0,0,5.4,3.3.445.445,0,0,0,.407-.007,25.536,25.536,0,0,0,3.923-2.171,14.46,14.46,0,0,0,4-3.946,9.026,9.026,0,0,0,1.6-4.921c.025-3.273.008-6.546.007-9.82,0-.109-.01-.219-.014-.328a17.1,17.1,0,0,1-9.7-3.858Z" transform="translate(0.298 0)" fill="#fff"/>
          <path id="路径_50990" data-name="路径 50990" d="M10.139,13.45H19v.383c0,1.859,0,3.727.005,5.591a.974.974,0,0,1-.328.766,4.648,4.648,0,0,1-1.312.827,7.2,7.2,0,0,1-2.593.667,6.14,6.14,0,0,1-2.281-.377,6.391,6.391,0,0,1-1.7-.826,2.473,2.473,0,0,1-.492-.444.782.782,0,0,1-.18-.445c-.011-2-.007-3.994,0-5.991a1.031,1.031,0,0,1,.021-.15Zm5.084,5.544-.377-1.75c.1-.074.186-.128.261-.191a.867.867,0,0,0,.093-1.27.887.887,0,0,0-1.3,0,.866.866,0,0,0,.1,1.269c.083.069.173.131.258.2L13.881,19Z" transform="translate(0.947 1.259)" fill="#fff"/>
          <path id="路径_50991" data-name="路径 50991" d="M12.587,13.558h-1.4c-.01-.109-.028-.219-.028-.328,0-.71-.008-1.422,0-2.13a3.29,3.29,0,0,1,6.542-.437,26.474,26.474,0,0,1,.06,2.88H16.344c-.008-.116-.021-.233-.021-.35V11.332a2.063,2.063,0,0,0-.373-1.252,1.859,1.859,0,0,0-1.977-.7,1.785,1.785,0,0,0-1.334,1.531c-.054.662-.036,1.329-.048,1.994C12.585,13.115,12.587,13.314,12.587,13.558Z" transform="translate(1.045 0.736)" fill="#fff"/>
        </g>
      </g>
    </g>
  </g>
</svg>
