<svg xmlns="http://www.w3.org/2000/svg" width="55" height="55" viewBox="0 0 55 55">
  <g id="icon_Trading" transform="translate(-767 -462)">
    <rect id="矩形_313" data-name="矩形 313" width="55" height="55" rx="10" transform="translate(767 462)" fill="#00b8ba"/>
    <g id="Layer_2" data-name="Layer 2" transform="translate(779 474)">
      <g id="圖層_1" data-name="圖層 1" transform="translate(0)">
        <rect id="矩形_323" data-name="矩形 323" width="30.995" height="30.995" transform="translate(0)" fill="#fff" opacity="0"/>
        <path id="路径_50992" data-name="路径 50992" d="M15.129,8.1a.34.34,0,0,1,.157.328c-.007.359,0,.717,0,1.077v.126c.184.035.358.061.529.1a3.986,3.986,0,0,1,1.64.774c.04.033.081.065.119.1.143.134.155.2.061.375q-.272.493-.547.984c-.109.2-.251.229-.437.087a3.746,3.746,0,0,0-1-.573,2.515,2.515,0,0,0-1.835-.04,1.051,1.051,0,0,0-.738,1.069.875.875,0,0,0,.308.607,2.588,2.588,0,0,0,.749.479c.656.277,1.324.547,1.981.831a3.872,3.872,0,0,1,1.136.759,2.187,2.187,0,0,1,.667,1.476,2.926,2.926,0,0,1-2.119,3.062c-.168.05-.341.09-.519.136v1.193c0,.262-.068.328-.328.328h-.817c-.253,0-.328-.08-.328-.337V19.851c-.069-.015-.134-.033-.2-.045a4.831,4.831,0,0,1-2.354-1.126,1.573,1.573,0,0,1-.13-.126.246.246,0,0,1-.019-.378q.348-.46.7-.917a.242.242,0,0,1,.406-.044,3.916,3.916,0,0,0,1.749.909,2.1,2.1,0,0,0,1.6-.219.992.992,0,0,0,.086-1.667,5.075,5.075,0,0,0-.941-.511c-.6-.272-1.21-.507-1.8-.787a3.272,3.272,0,0,1-1.226-.978,2.418,2.418,0,0,1-.454-1.887,2.7,2.7,0,0,1,1.582-2.063,9.364,9.364,0,0,1,1-.379V8.423a.312.312,0,0,1,.182-.328Z" transform="translate(1.031 0.756)" fill="#fff"/>
        <path id="路径_50993" data-name="路径 50993" d="M3.28,16.023a1.109,1.109,0,0,0,.121.085c.024.014.047.028.072.04a.911.911,0,0,0,.149.058c.023.007.044.016.067.021a.984.984,0,0,0,.226.028h0a1,1,0,0,0,.259-.038H4.2l.033-.013.073-.028a.833.833,0,0,0,.089-.044A.709.709,0,0,0,4.46,16.1a.973.973,0,0,0,.093-.069L4.586,16l3.943-3.538a1.006,1.006,0,1,0-1.343-1.5L5.229,12.723A10.589,10.589,0,0,1,25.266,11.13a1.009,1.009,0,0,0,1.859-.784A12.6,12.6,0,0,0,3.238,12.39L1.847,10.275A1.006,1.006,0,0,0,.165,11.381L3.076,15.8c.009.014.022.024.032.037a.85.85,0,0,0,.059.081c.014.015.031.026.045.04S3.256,16,3.28,16.023Z" transform="translate(0 0.247)" fill="#fff"/>
        <path id="路径_50994" data-name="路径 50994" d="M30.511,18.128,27.6,13.7a1.081,1.081,0,0,0-.07-.089c-.008-.009-.013-.02-.022-.03h0a1.094,1.094,0,0,0-.134-.122c-.016-.012-.034-.022-.051-.034s-.067-.043-.1-.061l-.065-.03a.956.956,0,0,0-.109-.037c-.021-.007-.042-.013-.062-.017a1.075,1.075,0,0,0-.132-.021h-.043a1,1,0,0,0-.18.007l-.034.008a.963.963,0,0,0-.121.026l-.019.007-.065.025a1.149,1.149,0,0,0-.109.049.617.617,0,0,0-.058.034.957.957,0,0,0-.109.078c-.009.008-.02.013-.03.022l-3.945,3.535a1.006,1.006,0,1,0,1.342,1.5l1.962-1.758A10.589,10.589,0,0,1,5.406,18.379a1.009,1.009,0,1,0-1.859.784A12.6,12.6,0,0,0,27.427,17.12l1.392,2.114a1.01,1.01,0,1,0,1.692-1.105Z" transform="translate(0.324 1.239)" fill="#fff"/>
      </g>
    </g>
  </g>
</svg>
