<svg xmlns="http://www.w3.org/2000/svg" viewBox="0 0 127.14 136.45"><defs><style>.cls-1{fill:#fff;}</style></defs><g id="Layer_2" data-name="Layer 2"><g id="Layer_1-2" data-name="Layer 1"><path class="cls-1" d="M22.84,15.56c-.48.49-.83.87-1.2,1.23a13.09,13.09,0,0,0-3.49,4.87,24,24,0,0,0-.71,2.51c-.2.73-.21.75-1,.77l-5.87.15c-.24,0-.47,0-.79.05,0,.4-.06.76-.06,1.12q0,20.7,0,41.41,0,26.39-.12,52.78v1.17H67.79C62,111.73,60.94,101.5,65.71,91S78.82,74.53,90,72.29c.18-.54.24-46.22,0-47.34H82.78a21.94,21.94,0,0,0-2-5.28c-1-1.59-2.42-2.7-3.78-4.18.41-.05.65-.11.89-.11,4.69,0,9.38.08,14.07.15,1.21,0,2.43.15,3.64.24a3.73,3.73,0,0,1,1.86.82,4.8,4.8,0,0,1,2.11,4c0,1.37.15,2.75.16,4.12q.09,23,.16,46c0,.22,0,.43,0,.64,0,1,0,.9.94,1.14q2.66.67,5.27,1.51a28.13,28.13,0,0,1,9.34,5.3,33.59,33.59,0,0,1,6.21,6.77,34.93,34.93,0,0,1,3.92,7.61,22.08,22.08,0,0,1,1.48,7q.09,3.41,0,6.83a22.14,22.14,0,0,1-1.54,7.27,33.76,33.76,0,0,1-5,9.15,33.18,33.18,0,0,1-7.53,7,31.84,31.84,0,0,1-8,3.91,29.86,29.86,0,0,1-7.54,1.51,33.1,33.1,0,0,1-12.91-1.69A30.19,30.19,0,0,1,77.06,131a3.51,3.51,0,0,0-2.14-.67q-19.59,0-39.18-.15Q25,130.09,14.36,130c-2.62,0-5.24-.08-7.87-.14-.74,0-1.48,0-2.21-.14a2.65,2.65,0,0,1-1-.37A8,8,0,0,1,.8,126.89a5.35,5.35,0,0,1-.58-2.77c-.06-1.27,0-2.54-.06-3.81,0-4-.1-8.11-.1-12.16Q0,64.79,0,21.43C0,19.6,1.69,16.58,3.7,16a10.21,10.21,0,0,1,2.8-.42c5.28-.06,10.55,0,15.82-.07C22.42,15.47,22.53,15.51,22.84,15.56Zm72,114.23c.55,0,1.11,0,1.66,0a21.93,21.93,0,0,0,8.42-1.72,26.24,26.24,0,0,0,11.48-9.48,23.77,23.77,0,0,0,4.15-10.88,28.61,28.61,0,0,0,0-7.28,25.08,25.08,0,0,0-7-14.14A26.52,26.52,0,0,0,104,80a17.59,17.59,0,0,0-7.13-1.37c-.6,0-1.22,0-1.82,0a35.09,35.09,0,0,0-4.36.17,24.07,24.07,0,0,0-7.21,2.38A25.49,25.49,0,0,0,75.88,87a26.61,26.61,0,0,0-5.56,9.81,13.09,13.09,0,0,0-.73,3.24c-.12,2.27-.06,4.55-.07,6.83a20,20,0,0,0,2.41,8.81A25.89,25.89,0,0,0,78,123.53a27.12,27.12,0,0,0,8.33,5A21.24,21.24,0,0,0,94.88,129.79Z"/><path class="cls-1" d="M78.37,27c-.58,0-1,.08-1.41.08H22.37c-.63,0-.78-.14-.72-.78.25-2.45.83-4.82,3-6.29,1.64-1.1,3.42-2,5.15-3,1.32-.73,2.67-1.41,4-2.15a11.11,11.11,0,0,0,4.35-4.51c1-1.87,2.11-3.74,3.29-5.52A10.53,10.53,0,0,1,45.71,1a9.66,9.66,0,0,1,8-.15,11.09,11.09,0,0,1,5.17,4.54c.9,1.4,1.65,2.9,2.44,4.37a13.73,13.73,0,0,0,6,6c1.59.8,3.22,1.51,4.78,2.35a26.83,26.83,0,0,1,3.42,2.14A7.75,7.75,0,0,1,78.13,25C78.26,25.62,78.28,26.25,78.37,27ZM53.61,11.23a3.72,3.72,0,0,0-3.49-3.8,3.58,3.58,0,0,0-3.75,3.5c.08,2.5,1.55,3.76,3.61,3.78A3.46,3.46,0,0,0,53.61,11.23Z"/><path class="cls-1" d="M59.27,49.51c4.32,0,8.64.09,12.95,0a2.62,2.62,0,0,1,2.4,3.42,2.56,2.56,0,0,1-2.51,1.77l-15.9,0q-4.77,0-9.53,0a2.81,2.81,0,0,1-2.52-1.25,2.53,2.53,0,0,1,.33-3.2,2.19,2.19,0,0,1,1.74-.72C50.58,49.53,54.92,49.51,59.27,49.51Z"/><path class="cls-1" d="M56.74,74.36H46.26a2.64,2.64,0,0,1-2.51-2.29A2.57,2.57,0,0,1,46,69.25l.47,0q11-.08,22-.15c1.22,0,1.87.87,2.39,1.8a2.15,2.15,0,0,1-.34,2.51,1.81,1.81,0,0,1-1,.61,14.22,14.22,0,0,1-2.51.3c-3.42,0-6.83,0-10.25,0Z"/><path class="cls-1" d="M19.47,52.1l3.39-3.45,3.47,3.27c.3-.24.56-.41.78-.62l7.45-7.25.4-.39a.51.51,0,0,1,.78,0c1,1,2,2.06,3,3-4.1,4.07-8.17,8.14-12.35,12.3Z"/><path class="cls-1" d="M51.64,90.9h5.79a1.53,1.53,0,0,1,1.08.39,2.81,2.81,0,0,1-.33,4.4,1.33,1.33,0,0,1-.74.2c-3.91,0-7.83,0-11.74,0-.81,0-1.77-1-1.93-2A2.69,2.69,0,0,1,45,91.11a1.63,1.63,0,0,1,.89-.2C47.78,90.89,49.71,90.9,51.64,90.9Z"/><rect class="cls-1" x="78.42" y="100.32" width="33.52" height="7.77" transform="translate(-45.81 97.82) rotate(-45)"/><rect class="cls-1" x="78.42" y="100.32" width="33.52" height="7.77" transform="translate(88.79 245.2) rotate(-135)"/><rect class="cls-1" x="21.19" y="69.88" width="15.83" height="3.67" transform="translate(-42.19 41.59) rotate(-45)"/><rect class="cls-1" x="21.19" y="69.88" width="15.83" height="3.67" transform="translate(-1.02 143.01) rotate(-135)"/><rect class="cls-1" x="21.19" y="91.56" width="15.83" height="3.67" transform="translate(-57.52 47.94) rotate(-45)"/><rect class="cls-1" x="21.19" y="91.56" width="15.83" height="3.67" transform="translate(-16.35 180.02) rotate(-135)"/></g></g></svg>