<svg xmlns="http://www.w3.org/2000/svg" viewBox="0 0 163.27 164.48"><defs><style>.cls-1{fill:#fff;}</style></defs><g id="Layer_2" data-name="Layer 2"><g id="Layer_1-2" data-name="Layer 1"><path class="cls-1" d="M90.48,151.2l-3.34,2.92a11.05,11.05,0,0,0,1.45,1.24c2.52,1.47,2.57,6.31-.76,8.27a4.84,4.84,0,0,1-5.55,0c-2-1.47-3.85-3.2-5.75-4.81,3.41-2.93,6.71-5.77,10-8.62a7.81,7.81,0,0,0,2.26-9c-1.35-3.85-4.21-5.63-8.05-6.16-1.42-.2-2.86-.24-4.44-.37-1.47-7.41-6-10.56-13.55-9.11-.18-.77-.31-1.4-.49-2a8.66,8.66,0,0,0-6.47-6.47A9.53,9.53,0,0,0,51.1,117a9.22,9.22,0,0,1-1.54.11c-.06-.49-.13-.85-.15-1.21a8.87,8.87,0,0,0-2.84-5.76,9.07,9.07,0,0,0-3.66-1.89,13.2,13.2,0,0,0-3.46-.31,4.64,4.64,0,0,0-3.28,1.25c-3.72,3.17-7.5,6.28-11.26,9.4-.35.29-.73.56-1.18.91l-1.95-1.66L40.25,75.14c.69,0,1.33,0,2,0,5.3.07,10.31-1.31,15.25-3.06,1.31-.47,2.6-1,3.9-1.52A17.94,17.94,0,0,1,75,70.48c.46.19.89.43,1.5.73l-4.24,3.68A141.22,141.22,0,0,0,58.42,88.3a25.23,25.23,0,0,0-1.8,2.32,11,11,0,0,0,2,15.17A46.45,46.45,0,0,0,63.17,109a14.09,14.09,0,0,0,3.8,2c3.64,1.1,7.13.93,10.27-1.27,4.22-3,8.33-6.11,12.49-9.18a12,12,0,0,1,1-.73,3.67,3.67,0,0,1,4.38.5q4.56,4.13,9.15,8.22c2.08,1.85,4.18,3.7,6.29,5.52s4,3.32,6,5c3,2.68,6,5.4,9,8.11,1.35,1.21,2.55,2.66,4.82,2.42a10.2,10.2,0,0,1-.24,1.39,9.74,9.74,0,0,1-9.51,5.76,4.72,4.72,0,0,1-2.62-1.17c-3.73-3.22-7.51-6.41-11.25-9.63-.64-.55-1.2-1-2.08-.45s-1.92,2-1.68,2.72a2.72,2.72,0,0,0,.85,1c3,2.56,6,5.09,8.92,7.64a5.08,5.08,0,0,1,.68,7.32,5.25,5.25,0,0,1-7.49.67c-2.43-2-4.81-4.12-7.21-6.2-1.47-1.28-3-2.55-4.39-3.88a1.31,1.31,0,0,0-2-.08,5.4,5.4,0,0,0-1.13,1.21c-.68,1-.57,1.56.4,2.39l9.13,7.81a5.16,5.16,0,0,1-3.21,9,6.2,6.2,0,0,1-4.36-1.57C92.36,152.77,91.46,152,90.48,151.2Z"/><path class="cls-1" d="M122.42,74.88l18.63,42.4-10.77,7.13L127,121.54c-2-1.76-4.12-3.49-6.14-5.27q-10.74-9.47-21.44-19a6.65,6.65,0,0,1-.61-.58c-1.94-2.26-4.41-2.61-7.11-1.86A12.11,12.11,0,0,0,88.83,96a73,73,0,0,0-11,7.41c-2.58,2.19-5.78,2.68-9.09,2.29a9.57,9.57,0,0,1-7.25-4.19c-2.09-3.12-1.74-8.25,1-10.91,5.85-5.68,11.65-11.41,18-16.5,4-3.16,8.54-4.38,13.48-4.69a19.84,19.84,0,0,1,7.81,1.15,86.19,86.19,0,0,0,15.26,4C118.78,74.79,120.51,74.77,122.42,74.88Z"/><path class="cls-1" d="M14.69,117.43A11,11,0,0,1,13.4,117c-3.82-1.69-7.65-3.4-11.46-5.12C0,111-.44,110,.44,108c2.87-6.51,5.78-13,8.68-19.51Q14.4,76.59,19.69,64.74a7,7,0,0,1,.72-1.35,2.35,2.35,0,0,1,3.12-.63c3.11,1.36,6.21,2.75,9.32,4.13l2.67,1.2c1.75.81,2.22,2,1.44,3.73-1.87,4.27-3.77,8.51-5.67,12.76Q24.42,100,17.54,115.43A2.75,2.75,0,0,1,14.69,117.43Z"/><path class="cls-1" d="M163.27,109.07a2.71,2.71,0,0,1-1.82,2.66c-3.35,1.5-6.69,3-10,4.55l-1.65.75c-1.85.81-3,.41-3.86-1.4-1.57-3.38-3.1-6.77-4.64-10.16L126.17,72.31c-1-2.17-.59-3.24,1.56-4.23L139,62.94c2-.92,3.14-.53,4.05,1.46l17.64,38.75c.67,1.49,1.36,3,2,4.45C163,108.15,163.15,108.73,163.27,109.07Z"/><path class="cls-1" d="M45.85,117.54a4.3,4.3,0,0,1-1.64,3.68c-3,2.58-5.88,5.16-8.87,7.68-2.22,1.86-5.79,1.16-7.62-1s-1.54-5.89.43-7.45c2.37-1.88,4.59-3.93,6.87-5.93.62-.54,1.19-1.16,1.81-1.72a5,5,0,0,1,5.55-.61C44.53,113.29,45.94,114.83,45.85,117.54Z"/><path class="cls-1" d="M58.52,148.46c-4.6-.05-7.31-4.54-5.38-8.22a4.19,4.19,0,0,1,1-1.19c2.84-2.48,5.74-4.89,8.53-7.43a5.58,5.58,0,0,1,9,5.92,5.27,5.27,0,0,1-1.39,2.19c-2.87,2.59-5.82,5.08-8.75,7.61A4.79,4.79,0,0,1,58.52,148.46Z"/><path class="cls-1" d="M70.38,157.16c-3.28.17-6.72-4.16-4.59-8.22a4.19,4.19,0,0,1,.95-1.18c3-2.58,5.9-5.15,8.88-7.69a5.28,5.28,0,0,1,7.47.84,5.35,5.35,0,0,1-.25,7.54c-2.84,2.49-5.71,4.93-8.55,7.42A5.57,5.57,0,0,1,70.38,157.16Z"/><path class="cls-1" d="M53.15,120.83A5.59,5.59,0,0,1,57,130.58c-2.84,2.34-5.57,4.81-8.37,7.2a5.42,5.42,0,0,1-6.94.08,5.7,5.7,0,0,1-1.48-7.17,4.25,4.25,0,0,1,.89-1.05q4.42-3.85,8.87-7.69A4.66,4.66,0,0,1,53.15,120.83Z"/><path class="cls-1" d="M81.64,0a28.18,28.18,0,1,0,28.17,28.18A28.18,28.18,0,0,0,81.64,0Zm2.87,50.2a3.84,3.84,0,0,1-2.84,1.18,4,4,0,0,1-4-4,3.84,3.84,0,0,1,1.18-2.84,3.78,3.78,0,0,1,2.79-1.18,4,4,0,0,1,4,4A3.78,3.78,0,0,1,84.51,50.2ZM94.2,23.46a13.93,13.93,0,0,1-2.64,4.14,40.08,40.08,0,0,1-4.32,3.94,6.21,6.21,0,0,0-2,2.94,10.32,10.32,0,0,0-.63,3.33,2.91,2.91,0,0,1-.81,2.1,2.78,2.78,0,0,1-2.12.83,2.81,2.81,0,0,1-2.1-.83,2.85,2.85,0,0,1-.84-2.1,12.25,12.25,0,0,1,1.21-5.06,13.15,13.15,0,0,1,3.51-4.6,38.13,38.13,0,0,0,3.3-3,10.66,10.66,0,0,0,1.9-2.93A10,10,0,0,0,89.43,18a7,7,0,0,0-2-5A6.84,6.84,0,0,0,82.24,11q-4.08,0-6.18,2.21a8.38,8.38,0,0,0-2.1,6,2.94,2.94,0,0,1-.8,2.1,2.95,2.95,0,0,1-5.06-2.1,14.12,14.12,0,0,1,1.75-7.07,12.24,12.24,0,0,1,5-4.83,15.48,15.48,0,0,1,7.42-1.73,13.92,13.92,0,0,1,6.64,1.58,11.55,11.55,0,0,1,4.63,4.43A12.57,12.57,0,0,1,95.18,18,14,14,0,0,1,94.2,23.46Z"/></g></g></svg>