<svg xmlns="http://www.w3.org/2000/svg" viewBox="0 0 92.71 149.23"><defs><style>.cls-1{fill:#fff;}</style></defs><g id="Layer_2" data-name="Layer 2"><g id="Layer_1-2" data-name="Layer 1"><path class="cls-1" d="M85.58,115.84l-3.94,6.8A55,55,0,0,1,74.58,132a61.57,61.57,0,0,1-14.13,11.64,62.42,62.42,0,0,1-10.58,5,10.43,10.43,0,0,1-7.4-.15A61.72,61.72,0,0,1,18.18,132a69.22,69.22,0,0,1-10-14.25A70.88,70.88,0,0,1,1.7,99.85,79.46,79.46,0,0,1,.31,90.1C.05,87.34,0,84.56,0,81.79a65.88,65.88,0,0,1,1.71-14.2c.29-1.31.59-2.61.92-3.9A8.68,8.68,0,0,1,7.2,58a86.74,86.74,0,0,1,18-7.2,67.9,67.9,0,0,1,13.34-2.33c3.43-.22,6.88-.26,10.32-.31a68.52,68.52,0,0,1,14.82,1.75A83.47,83.47,0,0,1,81.75,56a39.38,39.38,0,0,1,4.62,2.48A7.88,7.88,0,0,1,90,63.18a70.15,70.15,0,0,1,2.49,13.94c.14,2.82.29,5.64.27,8.46A67.09,67.09,0,0,1,91.4,98a75.22,75.22,0,0,1-5.47,17c-.13.28-.23.57-.34.86ZM48.84,77.54h0c-3.46-1.32-7.82.61-9.44,3.06a8.42,8.42,0,0,0-.12,9.69A7.61,7.61,0,0,1,40.46,96l-2.25,13.35c-.26,1.54.39,2.38,2,2.39q6.16.06,12.34,0c1.59,0,2.23-.86,2-2.39-.65-3.9-1.26-7.8-2-11.69-.54-2.87-.44-5.48,1.32-8.07s1.43-5.62-.13-8.33A7.1,7.1,0,0,0,48.84,77.54Z"/><path class="cls-1" d="M78.5,58.59c-1.51,2.5-2.47,4.33-3.66,6a3.69,3.69,0,0,1-5.88.32,130.64,130.64,0,0,0-9.79-10,5.57,5.57,0,0,1-1-6.65,41.46,41.46,0,0,0,2.73-5.86,14.46,14.46,0,0,0-3.54-15.24c-4.15-4.31-9.31-5.31-14.9-3.82a13.44,13.44,0,0,0-7.68,5.4c-1.22,1.77-2.21,3.7-3.26,5.58a5.6,5.6,0,0,1-6.1,2.87,115.16,115.16,0,0,0-13-2.25c-2.62-.28-4.12-1.85-4-4a6.6,6.6,0,0,1,.77-2.63c2.1-3.95,4.06-8,6.51-11.73a36.24,36.24,0,0,1,17-13.73A37,37,0,0,1,54.9.91,36.34,36.34,0,0,1,75.38,13.26a36.93,36.93,0,0,1,8,15.83,36.21,36.21,0,0,1-.61,19.35A108.65,108.65,0,0,1,78.5,58.59Z"/><polygon class="cls-1" points="46.33 115.83 46.4 115.91 46.31 115.84 46.33 115.83"/><polygon class="cls-1" points="46.33 133.13 46.39 133.06 46.32 133.12 46.33 133.13"/><polygon class="cls-1" points="46.38 133.12 46.32 133.2 46.39 133.13 46.38 133.12"/><polygon class="cls-1" points="46.4 77.54 46.32 77.61 46.39 77.53 46.4 77.54"/></g></g></svg>