<svg xmlns="http://www.w3.org/2000/svg" viewBox="0 0 163.86 130.9"><defs><style>.cls-1{fill:#fff;}</style></defs><g id="Layer_2" data-name="Layer 2"><g id="Layer_1-2" data-name="Layer 1"><circle class="cls-1" cx="131.96" cy="56.7" r="19.19"/><path class="cls-1" d="M163.8,117.08q.06-1,.06-2.07c0-19.21-14.28-34.77-31.9-34.77S100.05,95.8,100.05,115c0,.69,0,1.38.06,2.07Z"/><circle class="cls-1" cx="31.7" cy="57.44" r="19.06"/><path class="cls-1" d="M63.34,117.43c0-.68.06-1.36.06-2.05,0-19.08-14.19-34.55-31.7-34.55S0,96.3,0,115.38c0,.69,0,1.37.06,2.05Z"/><path class="cls-1" d="M127.45,130.9c0-1,.09-2,.09-3,0-27.73-20.63-50.21-46.07-50.21S35.4,100.18,35.4,127.91c0,1,0,2,.08,3Z"/><path class="cls-1" d="M57,29.84c.41-7.63,5.36-23.93,10.54-24.73C71.79,4.45,75.6,12.66,80.6,12c3.75-.52.44-6.16,7.92-10.74,1-.59,7.92-2.46,10,.06,5.42,6.7,0,23.21,9.89,29.51,0,0,.19.12,8.3,4.15,1,1.2,1.48,2.26,1.28,3.2-1.23,5.85-26.62,5.08-36.39,4.78C64,42.39,42.94,40,42.94,37.18c0-1.08,3.18-2.52,5.74-2.87,3.21-.45,5.07.85,6.71-.32C56.87,32.92,56.94,30.69,57,29.84Z"/><path class="cls-1" d="M58.62,33.79a27.44,27.44,0,0,0-1.19,2.65A4.2,4.2,0,0,0,58.62,33.79Z"/><path class="cls-1" d="M81.55,44.93a233.14,233.14,0,0,1-25.67-2.12,24.71,24.71,0,0,0-.17,2.87,25.76,25.76,0,0,0,51.51,0c0-.48,0-1,0-1.42C99.16,45.46,87.38,45.11,81.55,44.93Z"/></g></g></svg>