<svg xmlns="http://www.w3.org/2000/svg" xmlns:xlink="http://www.w3.org/1999/xlink" viewBox="0 0 751.214 882.092"><defs><style>.cls-1{fill:url(#linear-gradient);}.cls-1,.cls-2,.cls-3,.cls-4{filter:url(#luminosity-invert);}.cls-2{fill:url(#linear-gradient-2);}.cls-3{fill:url(#linear-gradient-3);}.cls-4{fill:url(#linear-gradient-4);}.cls-5{fill:none;}.cls-6{mask:url(#mask);}.cls-7{fill:#c2e6ff;}.cls-8{fill:#396caa;}.cls-9{fill:#d4ecff;}.cls-10,.cls-29,.cls-30{fill:#42e8e0;}.cls-11{fill:url(#linear-gradient-5);}.cls-12{fill:url(#linear-gradient-6);}.cls-13{fill:#011a3f;}.cls-14{fill:url(#linear-gradient-7);}.cls-15{fill:url(#linear-gradient-8);}.cls-16{fill:#fff;}.cls-17{fill:#2842a2;}.cls-18{fill:#f15e5a;}.cls-19{fill:#173d7a;}.cls-20{fill:url(#linear-gradient-9);}.cls-21{opacity:0.11;}.cls-22{clip-path:url(#clip-path);}.cls-23{fill:url(#linear-gradient-10);}.cls-24{fill:url(#linear-gradient-11);}.cls-25{mask:url(#mask-2);}.cls-26{mask:url(#mask-3);}.cls-27{mask:url(#mask-4);}.cls-28{fill:url(#linear-gradient-12);}.cls-29{opacity:0.1;}.cls-30{opacity:0.4;}.cls-31{fill:url(#linear-gradient-13);}.cls-32{fill:url(#linear-gradient-14);}.cls-33{fill:url(#linear-gradient-15);}.cls-34{fill:url(#linear-gradient-16);}.cls-35{fill:url(#linear-gradient-17);}.cls-36{fill:url(#linear-gradient-18);}.cls-37{clip-path:url(#clip-path-2);}.cls-38{fill:url(#linear-gradient-19);}.cls-39{fill:url(#linear-gradient-20);}.cls-40{fill:url(#linear-gradient-21);}.cls-41{fill:url(#linear-gradient-22);}.cls-42{fill:url(#linear-gradient-23);}.cls-43{fill:url(#linear-gradient-24);}.cls-44{fill:url(#linear-gradient-25);}.cls-45{fill:#ff2c9c;}.cls-46{fill:#5793ce;}</style><linearGradient id="linear-gradient" x1="618.584" y1="161.41" x2="618.584" y2="543.008" gradientUnits="userSpaceOnUse"><stop offset="0.151"/><stop offset="1" stop-color="#fff" stop-opacity="0"/></linearGradient><linearGradient id="linear-gradient-2" x1="358.028" y1="243.006" x2="358.028" y2="771.193" xlink:href="#linear-gradient"/><linearGradient id="linear-gradient-3" x1="99.351" y1="310.296" x2="99.351" y2="590.798" xlink:href="#linear-gradient"/><linearGradient id="linear-gradient-4" x1="645.881" y1="640.614" x2="645.881" y2="888.621" xlink:href="#linear-gradient"/><filter id="luminosity-invert" filterUnits="userSpaceOnUse" color-interpolation-filters="sRGB"><feColorMatrix values="-1 0 0 0 1 0 -1 0 0 1 0 0 -1 0 1 0 0 0 1 0"/></filter><mask id="mask" x="511.702" y="154.905" width="216.16" height="389.423" maskUnits="userSpaceOnUse"><rect class="cls-1" x="511.702" y="154.905" width="213.764" height="389.423"/></mask><linearGradient id="linear-gradient-5" x1="-1321.042" y1="136.689" x2="-1215.435" y2="136.689" gradientTransform="matrix(-1, 0, 0, 1, -612.726, 0)" gradientUnits="userSpaceOnUse"><stop offset="0" stop-color="#c5f0ff"/><stop offset="0.321" stop-color="#caefff"/><stop offset="0.698" stop-color="#d8ecfe"/><stop offset="1" stop-color="#e9e9fd"/></linearGradient><linearGradient id="linear-gradient-6" x1="-1321.042" y1="163.772" x2="-1302.908" y2="163.772" gradientTransform="matrix(-1, 0, 0, 1, -612.726, 0)" gradientUnits="userSpaceOnUse"><stop offset="0" stop-color="#396caa"/><stop offset="0.252" stop-color="#3971ae"/><stop offset="0.549" stop-color="#387fbb"/><stop offset="0.867" stop-color="#3697d1"/><stop offset="1" stop-color="#f15e5a"/></linearGradient><linearGradient id="linear-gradient-7" x1="-1306.893" y1="194.217" x2="-1157.741" y2="194.217" xlink:href="#linear-gradient-6"/><linearGradient id="linear-gradient-8" x1="-1256.778" y1="189.244" x2="-1107.546" y2="189.244" xlink:href="#linear-gradient-5"/><linearGradient id="linear-gradient-9" x1="-1231.506" y1="197.715" x2="-1193.307" y2="197.715" gradientTransform="matrix(-1, 0, 0, 1, -612.726, 0)" gradientUnits="userSpaceOnUse"><stop offset="0" stop-color="#d4ecff"/><stop offset="0.437" stop-color="#d9ebff"/><stop offset="0.95" stop-color="#e7e9fd"/><stop offset="1" stop-color="#e9e9fd"/></linearGradient><clipPath id="clip-path"><polygon id="SVGID" class="cls-5" points="615.453 79.483 703.573 130.359 692.645 194.781 604.584 143.939 615.453 79.483"/></clipPath><linearGradient id="linear-gradient-10" x1="-1313.793" y1="156.167" x2="-1164.561" y2="156.167" gradientTransform="matrix(-1, 0, 0, 1, -612.726, 0)" gradientUnits="userSpaceOnUse"><stop offset="0" stop-color="#f15e5a"/><stop offset="0.137" stop-color="#3aa5dd"/><stop offset="0.299" stop-color="#48ace0"/><stop offset="0.474" stop-color="#60b7e5"/><stop offset="0.657" stop-color="#81c6ed"/><stop offset="0.845" stop-color="#abd9f6"/><stop offset="1" stop-color="#d4ecff"/></linearGradient><linearGradient id="linear-gradient-11" x1="-1323.615" y1="145.212" x2="-1285.416" y2="145.212" xlink:href="#linear-gradient-10"/><mask id="mask-2" x="251.146" y="234.002" width="213.764" height="539.018" maskUnits="userSpaceOnUse"><rect class="cls-2" x="251.146" y="234.002" width="213.764" height="539.018"/></mask><mask id="mask-3" x="-7.531" y="305.514" width="213.764" height="286.255" maskUnits="userSpaceOnUse"><rect class="cls-3" x="-7.531" y="305.514" width="213.764" height="286.255"/></mask><mask id="mask-4" x="559.419" y="636.386" width="172.925" height="253.093" maskUnits="userSpaceOnUse"><rect class="cls-4" x="559.419" y="636.386" width="172.925" height="253.093"/></mask><linearGradient id="linear-gradient-12" x1="402.592" y1="318.538" x2="402.592" y2="261.381" gradientUnits="userSpaceOnUse"><stop offset="0" stop-color="#92deff"/><stop offset="0.219" stop-color="#a9e3ff"/><stop offset="0.506" stop-color="#c1e8ff"/><stop offset="0.773" stop-color="#cfebff"/><stop offset="1" stop-color="#d4ecff"/></linearGradient><linearGradient id="linear-gradient-13" x1="402.592" y1="271.144" x2="402.592" y2="213.986" xlink:href="#linear-gradient-12"/><linearGradient id="linear-gradient-14" x1="2850.506" y1="621.963" x2="2935.937" y2="621.963" gradientTransform="translate(-2278.691)" xlink:href="#linear-gradient-5"/><linearGradient id="linear-gradient-15" x1="2850.507" y1="643.872" x2="2865.176" y2="643.872" gradientTransform="translate(-2278.691)" xlink:href="#linear-gradient-6"/><linearGradient id="linear-gradient-16" x1="2861.952" y1="668.501" x2="2982.609" y2="668.501" gradientTransform="translate(-2278.691)" xlink:href="#linear-gradient-6"/><linearGradient id="linear-gradient-17" x1="2902.493" y1="664.478" x2="3023.214" y2="664.478" gradientTransform="translate(-2278.691)" xlink:href="#linear-gradient-5"/><linearGradient id="linear-gradient-18" x1="2922.937" y1="671.331" x2="2953.838" y2="671.331" gradientTransform="translate(-2278.691)" xlink:href="#linear-gradient-9"/><clipPath id="clip-path-2"><polygon id="SVGID-2" data-name="SVGID" class="cls-5" points="646.938 575.687 575.653 616.843 584.493 668.957 655.73 627.829 646.938 575.687"/></clipPath><linearGradient id="linear-gradient-19" x1="2856.37" y1="637.72" x2="2977.092" y2="637.72" gradientTransform="translate(-2278.691)" xlink:href="#linear-gradient-5"/><linearGradient id="linear-gradient-20" x1="2848.425" y1="628.858" x2="2879.326" y2="628.858" gradientTransform="translate(-2278.691)" xlink:href="#linear-gradient-5"/><linearGradient id="linear-gradient-21" x1="2770.877" y1="306.2" x2="2917.438" y2="306.2" gradientTransform="translate(-2743.728)" gradientUnits="userSpaceOnUse"><stop offset="0" stop-color="#396caa"/><stop offset="0.139" stop-color="#3e70ad"/><stop offset="0.304" stop-color="#4c7cb5"/><stop offset="0.48" stop-color="#6490c2"/><stop offset="0.666" stop-color="#85abd4"/><stop offset="0.857" stop-color="#afceeb"/><stop offset="1" stop-color="#d4ecff"/></linearGradient><linearGradient id="linear-gradient-22" x1="2820.122" y1="301.313" x2="2966.761" y2="301.313" gradientTransform="translate(-2743.728)" xlink:href="#linear-gradient-5"/><linearGradient id="linear-gradient-23" x1="2810.608" y1="290.029" x2="2848.143" y2="290.029" gradientTransform="translate(-2743.728)" xlink:href="#linear-gradient-9"/><linearGradient id="linear-gradient-24" x1="2813.543" y1="283.265" x2="2917.316" y2="283.265" gradientTransform="translate(-2743.728)" gradientUnits="userSpaceOnUse"><stop offset="0" stop-color="#92deff"/><stop offset="0.237" stop-color="#97dfff"/><stop offset="0.517" stop-color="#a5e2ff"/><stop offset="0.817" stop-color="#bde7ff"/><stop offset="1" stop-color="#cfebff"/></linearGradient><linearGradient id="linear-gradient-25" x1="2813.544" y1="309.878" x2="2831.362" y2="309.878" xlink:href="#linear-gradient-21"/></defs><g id="Layer_2" data-name="Layer 2"><g id="Layer_14" data-name="Layer 14"><g class="cls-6"><polygon class="cls-7" points="727.862 220.06 726.706 467.66 626.389 525.958 627.544 278.358 727.862 220.06"/><polygon class="cls-8" points="627.544 278.358 626.389 525.958 525.422 467.665 526.577 220.065 627.544 278.358"/><polygon class="cls-9" points="727.862 220.06 627.544 278.358 526.577 220.065 626.895 161.767 727.862 220.06"/></g><path class="cls-10" d="M637.412,244.751a8.268,8.268,0,0,1-4.124-1.1h0l-82.106-47.4a2.382,2.382,0,0,1,0-4.123L602.6,162.438a.468.468,0,0,1,.469,0l86,49.649a2.382,2.382,0,0,1,0,4.123l-47.528,27.44A8.259,8.259,0,0,1,637.412,244.751Zm-3.655-1.913a7.461,7.461,0,0,0,7.309,0L688.594,215.4a1.442,1.442,0,0,0,0-2.5l-85.759-49.512-.165.094-51.018,29.454a1.443,1.443,0,0,0,0,2.5Z"/><path class="cls-11" d="M602.728,143.256l11.439-67.864-.92-.387,1.382-.792,0,.008a.994.994,0,0,1,1.065.073l91.418,52.781A2.58,2.58,0,0,1,708.3,129.4l-11.529,68.4a.86.86,0,0,1-.482.7h0l-1.352.781-.232-1.262.077.023-90.865-52.46A2.581,2.581,0,0,1,602.728,143.256Z"/><path class="cls-12" d="M706.6,128.93l1.5-.664a2.069,2.069,0,0,1,.193,1.131l-11.529,68.4a.86.86,0,0,1-.482.7h0l-1.352.781-.232-1.262.077.023-4.6-2.654Z"/><path class="cls-13" d="M602.481,146.4,693.9,199.182c.706.407,1.31.172,1.434-.559l11.53-68.4a2.581,2.581,0,0,0-1.187-2.323l-91.418-52.78c-.706-.407-1.311-.172-1.435.559l-11.529,68.4A2.58,2.58,0,0,0,602.481,146.4Z"/><polygon class="cls-10" points="615.453 79.483 703.573 130.359 692.645 194.781 604.584 143.939 615.453 79.483"/><path class="cls-14" d="M545.015,178.786,550,181.392l50.026-28.883a3.631,3.631,0,0,1,3.266.135l86.281,49.815c.826-.462,4.59-2.272,4.59-2.272l-1.826,4.758-.007-.006a1.09,1.09,0,0,1-.511.567l-52.688,30.419a3.629,3.629,0,0,1-3.265-.135l-88.293-50.976a1.584,1.584,0,0,1-.741-.788l-.006,0Z"/><path class="cls-15" d="M545.787,179.606l90.488,52.244a3.721,3.721,0,0,0,3.347.139l54-31.176c.857-.495.75-1.36-.241-1.932l-90.488-52.244a3.718,3.718,0,0,0-3.347-.138l-54,31.175C544.688,178.17,544.8,179.035,545.787,179.606Z"/><path class="cls-16" d="M545.787,179.085l90.488,52.243a3.721,3.721,0,0,0,3.347.139l54-31.176a1.114,1.114,0,0,0,.524-.583.911.911,0,0,1-.524,1.1l-54,31.176a3.721,3.721,0,0,1-3.347-.139l-90.488-52.244c-.667-.384-.923-.9-.765-1.348A1.589,1.589,0,0,0,545.787,179.085Z"/><path class="cls-17" d="M663.569,220.549v-.992c0-.095-.057-.138-.128-.1l-3.5,2.021a.307.307,0,0,0-.128.244v.992c0,.094.058.138.128.1l3.5-2.021A.305.305,0,0,0,663.569,220.549Z"/><path class="cls-17" d="M658.335,223.571v-.993c0-.094-.057-.137-.128-.1l-3.5,2.021a.306.306,0,0,0-.127.244v.992c0,.094.057.137.127.1l3.5-2.021A.305.305,0,0,0,658.335,223.571Z"/><path class="cls-9" d="M679.542,197.893l-75.2-43.414a1.619,1.619,0,0,0-1.62,0l-26.778,15.493a.578.578,0,0,0,0,1l75.161,43.394a1.618,1.618,0,0,0,1.618,0l26.814-15.473A.577.577,0,0,0,679.542,197.893Z"/><path class="cls-18" d="M679.542,198.893l-.27.156L604.346,155.79a1.617,1.617,0,0,0-1.62,0l-26.508,15.337-.269-.155a.578.578,0,0,1,0-1l26.778-15.493a1.617,1.617,0,0,1,1.62,0l75.2,43.414A.577.577,0,0,1,679.542,198.893Z"/><polygon class="cls-19" points="606.995 162.035 670.645 198.783 673.395 197.017 609.912 160.365 606.995 162.035"/><polygon class="cls-19" points="602.862 167.87 660.65 201.234 662.63 199.024 605.764 166.192 602.862 167.87"/><polygon class="cls-19" points="588.947 165.191 661.081 206.838 663.986 205.161 591.851 163.515 588.947 165.191"/><polygon class="cls-19" points="584.31 167.869 656.444 209.516 659.348 207.839 587.214 166.192 584.31 167.869"/><polygon class="cls-19" points="579.672 170.546 651.806 212.193 654.711 210.516 582.576 168.87 579.672 170.546"/><polygon class="cls-19" points="669.97 198.393 672.874 200.07 675.779 198.393 672.874 196.717 669.97 198.393"/><polygon class="cls-19" points="659.726 200.701 665.754 204.181 668.658 202.504 662.63 199.024 659.726 200.701"/><path class="cls-20" d="M601.45,208.4l-20.275-11.706a.874.874,0,0,1,0-1.657l13.865-8a3.175,3.175,0,0,1,2.87,0l20.275,11.706a.874.874,0,0,1,0,1.657l-13.865,8A3.169,3.169,0,0,1,601.45,208.4Z"/><path class="cls-18" d="M618.185,199.415,597.91,187.709a3.175,3.175,0,0,0-2.87,0l-13.865,8a1.239,1.239,0,0,0-.5.49c-.21-.4-.05-.851.5-1.168l13.865-8a3.175,3.175,0,0,1,2.87,0l20.275,11.706c.548.317.708.768.5,1.168A1.239,1.239,0,0,0,618.185,199.415Z"/><g class="cls-21"><g class="cls-22"><path class="cls-23" d="M602.8,146.53l90.488,52.243a3.721,3.721,0,0,0,3.347.139l54-31.176c.857-.495.75-1.36-.241-1.932l-90.488-52.243a3.721,3.721,0,0,0-3.347-.139l-54,31.176C601.7,145.093,601.811,145.958,602.8,146.53Z"/><path class="cls-24" d="M693.56,155.9,673.284,144.19a.874.874,0,0,1,0-1.657l13.865-8a3.175,3.175,0,0,1,2.87,0l20.275,11.707a.874.874,0,0,1,0,1.656l-13.865,8A3.167,3.167,0,0,1,693.56,155.9Z"/><path class="cls-9" d="M710.294,146.912l-20.275-11.706a3.175,3.175,0,0,0-2.87,0l-13.865,8.005a1.239,1.239,0,0,0-.5.49c-.21-.4-.05-.851.5-1.168l13.865-8a3.175,3.175,0,0,1,2.87,0l20.275,11.707c.548.316.708.767.5,1.167A1.239,1.239,0,0,0,710.294,146.912Z"/><path class="cls-9" d="M719.207,174.19l-75.2-43.414a1.617,1.617,0,0,0-1.62,0l-26.777,15.492a.578.578,0,0,0,0,1l75.161,43.394a1.62,1.62,0,0,0,1.619,0l26.813-15.473A.577.577,0,0,0,719.207,174.19Z"/><path class="cls-9" d="M719.207,175.19l-.269.156-74.927-43.259a1.619,1.619,0,0,0-1.62,0l-26.508,15.337-.269-.155a.578.578,0,0,1,0-1l26.777-15.492a1.617,1.617,0,0,1,1.62,0l75.2,43.414A.577.577,0,0,1,719.207,175.19Z"/><polygon class="cls-19" points="622.622 145.212 688.131 183.034 685.536 184.532 620.027 146.711 622.622 145.212"/><polygon class="cls-19" points="629.524 141.227 691.789 177.176 689.194 178.674 626.929 142.725 629.524 141.227"/><polygon class="cls-19" points="696.439 179.86 702.254 183.218 699.659 184.716 693.844 181.359 696.439 179.86"/><polygon class="cls-19" points="691.302 184.865 695.352 187.203 692.757 188.701 688.707 186.363 691.302 184.865"/><polygon class="cls-19" points="633.849 138.73 706.579 180.721 703.984 182.219 631.254 140.228 633.849 138.73"/><polygon class="cls-19" points="638.174 136.233 710.904 178.224 708.309 179.722 635.579 137.731 638.174 136.233"/><polygon class="cls-19" points="642.499 133.736 715.229 175.727 712.634 177.225 639.904 135.234 642.499 133.736"/></g></g><polygon class="cls-8" points="635.182 103.361 642.311 107.482 642.52 106.244 635.391 102.124 635.182 103.361"/><polygon class="cls-8" points="643.458 108.14 647.342 110.385 647.551 109.147 643.667 106.902 643.458 108.14"/><polygon class="cls-8" points="653.387 113.874 656.197 115.498 656.406 114.26 653.596 112.636 653.387 113.874"/><polygon class="cls-8" points="651.337 112.689 652.297 113.244 652.506 112.006 651.546 111.451 651.337 112.689"/><polygon class="cls-8" points="648.503 111.051 650.248 112.059 650.457 110.822 648.712 109.813 648.503 111.051"/><polygon class="cls-8" points="640.823 112.83 643.633 114.455 643.843 113.217 641.032 111.592 640.823 112.83"/><polygon class="cls-8" points="634.227 109.018 639.734 112.201 639.943 110.963 634.436 107.78 634.227 109.018"/><polygon class="cls-8" points="642.122 129.081 647.629 132.264 647.838 131.026 642.331 127.843 642.122 129.081"/><polygon class="cls-8" points="639.289 127.444 641.033 128.452 641.242 127.214 639.498 126.206 639.289 127.444"/><polygon class="cls-8" points="643.041 123.418 648.548 126.601 648.757 125.363 643.25 122.18 643.041 123.418"/><polygon class="cls-8" points="640.208 121.78 641.952 122.788 642.161 121.55 640.417 120.542 640.208 121.78"/><polygon class="cls-8" points="638.057 153.523 627.683 147.527 627.474 148.765 637.848 154.761 638.057 153.523"/><polygon class="cls-8" points="641.713 155.636 639.146 154.152 638.937 155.39 641.504 156.874 641.713 155.636"/><polygon class="cls-8" points="659.943 156.839 649.569 150.843 649.36 152.081 659.734 158.077 659.943 156.839"/><polygon class="cls-8" points="663.599 158.952 661.032 157.468 660.823 158.706 663.39 160.19 663.599 158.952"/><polygon class="cls-8" points="630.971 146.324 628.16 144.699 627.951 145.937 630.762 147.561 630.971 146.324"/><polygon class="cls-8" points="648.071 149.991 645.261 148.367 645.052 149.605 647.862 151.229 648.071 149.991"/><polygon class="cls-8" points="637.567 150.136 632.06 146.953 631.851 148.191 637.358 151.374 637.567 150.136"/><polygon class="cls-8" points="640.401 151.773 638.656 150.765 638.447 152.003 640.192 153.011 640.401 151.773"/><polygon class="cls-8" points="647.047 155.608 641.54 152.426 641.331 153.663 646.838 156.846 647.047 155.608"/><polygon class="cls-8" points="649.881 157.246 648.137 156.238 647.928 157.476 649.672 158.484 649.881 157.246"/><polygon class="cls-8" points="647.593 152.821 644.783 151.196 644.574 152.434 647.384 154.058 647.593 152.821"/><polygon class="cls-8" points="654.19 156.633 648.683 153.45 648.474 154.688 653.981 157.871 654.19 156.633"/><polygon class="cls-8" points="657.023 158.27 655.279 157.262 655.07 158.5 656.814 159.508 657.023 158.27"/><polygon class="cls-8" points="634.389 145.195 628.638 141.871 628.429 143.109 634.18 146.433 634.389 145.195"/><polygon class="cls-8" points="639.637 148.228 635.478 145.824 635.269 147.062 639.428 149.466 639.637 148.228"/><polygon class="cls-8" points="643.537 150.482 640.726 148.857 640.517 150.095 643.328 151.72 643.537 150.482"/><polygon class="cls-8" points="670.795 163.098 665.044 159.774 664.835 161.012 670.586 164.336 670.795 163.098"/><polygon class="cls-8" points="676.043 166.131 671.884 163.728 671.675 164.966 675.834 167.369 676.043 166.131"/><polygon class="cls-8" points="679.943 168.385 677.132 166.761 676.923 167.999 679.734 169.623 679.943 168.385"/><polygon class="cls-8" points="668.549 125.732 674.3 129.055 674.509 127.817 668.758 124.494 668.549 125.732"/><polygon class="cls-8" points="663.301 122.699 667.46 125.102 667.669 123.864 663.51 121.461 663.301 122.699"/><polygon class="cls-8" points="659.401 120.445 662.212 122.069 662.421 120.831 659.61 119.207 659.401 120.445"/><polygon class="cls-8" points="666.64 121.513 672.391 124.837 672.6 123.599 666.849 120.275 666.64 121.513"/><polygon class="cls-8" points="661.392 118.48 665.551 120.883 665.76 119.646 661.601 117.242 661.392 118.48"/><polygon class="cls-8" points="657.492 116.226 660.303 117.85 660.512 116.612 657.701 114.988 657.492 116.226"/><polygon class="cls-8" points="643.42 126.743 645.362 127.866 645.571 126.628 643.629 125.505 643.42 126.743"/><polygon class="cls-8" points="639.764 124.63 642.331 126.113 642.54 124.875 639.973 123.392 639.764 124.63"/><polygon class="cls-8" points="634.904 142.384 629.153 139.06 628.944 140.298 634.695 143.622 634.904 142.384"/><polygon class="cls-8" points="640.152 145.417 635.993 143.013 635.784 144.251 639.942 146.655 640.152 145.417"/><polygon class="cls-8" points="644.051 147.671 641.241 146.046 641.032 147.284 643.842 148.909 644.051 147.671"/><polygon class="cls-8" points="631.573 137.355 629.63 136.232 629.421 137.47 631.364 138.593 631.573 137.355"/><polygon class="cls-8" points="635.229 139.468 632.662 137.984 632.453 139.222 635.02 140.706 635.229 139.468"/><polygon class="cls-8" points="640.454 142.488 636.318 140.097 636.109 141.335 640.245 143.726 640.454 142.488"/><polygon class="cls-8" points="646.062 118.946 648.005 120.068 648.214 118.83 646.272 117.708 646.062 118.946"/><polygon class="cls-8" points="642.406 116.832 644.973 118.316 645.182 117.078 642.615 115.594 642.406 116.832"/><polygon class="cls-8" points="637.181 113.813 641.317 116.203 641.526 114.965 637.39 112.575 637.181 113.813"/><polygon class="cls-8" points="649.021 123.537 653.157 125.927 653.366 124.689 649.23 122.299 649.021 123.537"/><polygon class="cls-8" points="642.256 119.849 647.831 123.071 648.04 121.833 642.465 118.611 642.256 119.849"/><polygon class="cls-8" points="639.423 118.212 641.167 119.22 641.376 117.982 639.632 116.974 639.423 118.212"/><polygon class="cls-8" points="636.704 116.64 638.448 117.648 638.657 116.41 636.913 115.402 636.704 116.64"/><polygon class="cls-19" points="637.077 132.619 642.584 135.802 642.793 134.564 637.286 131.381 637.077 132.619"/><polygon class="cls-19" points="634.244 130.982 635.988 131.99 636.197 130.752 634.453 129.744 634.244 130.982"/><polygon class="cls-19" points="637.456 135.945 639.399 137.067 639.608 135.829 637.665 134.707 637.456 135.945"/><polygon class="cls-19" points="644.314 133.679 646.256 134.801 646.465 133.563 644.523 132.441 644.314 133.679"/><polygon class="cls-19" points="647.083 135.277 651.743 137.969 651.952 136.731 647.292 134.039 647.083 135.277"/><polygon class="cls-19" points="652.57 138.445 655.342 140.047 655.551 138.809 652.779 137.207 652.57 138.445"/><polygon class="cls-19" points="633.8 133.832 636.367 135.315 636.576 134.077 634.009 132.594 633.8 133.832"/><polygon class="cls-19" points="633.558 136.737 635.501 137.86 635.71 136.622 633.767 135.499 633.558 136.737"/><polygon class="cls-19" points="629.902 134.624 632.469 136.107 632.678 134.87 630.111 133.386 629.902 134.624"/><polygon class="cls-19" points="641.495 132.052 643.239 133.06 643.448 131.822 641.704 130.814 641.495 132.052"/><polygon class="cls-19" points="638.776 130.48 640.52 131.488 640.729 130.251 638.985 129.242 638.776 130.48"/><polygon class="cls-8" points="652.174 116.268 658.123 119.706 658.332 118.469 652.383 115.03 652.174 116.268"/><polygon class="cls-8" points="645.51 112.416 651.084 115.638 651.293 114.4 645.719 111.179 645.51 112.416"/><polygon class="cls-8" points="642.676 110.779 644.421 111.787 644.63 110.549 642.885 109.541 642.676 110.779"/><polygon class="cls-8" points="639.957 109.207 641.701 110.215 641.91 108.977 640.166 107.969 639.957 109.207"/><polygon class="cls-8" points="638.471 108.348 634.707 106.173 634.916 104.935 638.68 107.11 638.471 108.348"/><polygon class="cls-13" points="600.705 158.403 603.609 160.08 606.513 158.403 603.609 156.726 600.705 158.403"/><polygon class="cls-19" points="593.585 162.514 599.613 165.994 602.517 164.317 596.489 160.837 593.585 162.514"/><g class="cls-25"><polygon class="cls-7" points="461.99 304.283 460.834 711.864 360.517 770.162 361.673 362.581 461.99 304.283"/><polygon class="cls-8" points="361.673 362.581 360.517 770.162 259.55 711.869 260.706 304.287 361.673 362.581"/><polygon class="cls-9" points="461.99 304.283 361.673 362.581 260.706 304.287 361.023 245.99 461.99 304.283"/></g><g class="cls-26"><polygon class="cls-7" points="202.115 378.294 201.284 523.148 100.967 581.446 101.798 436.592 202.115 378.294"/><polygon class="cls-8" points="101.798 436.592 100.967 581.446 0 523.152 0.831 378.298 101.798 436.592"/><polygon class="cls-9" points="202.115 378.294 101.798 436.592 0.831 378.298 101.148 320.001 202.115 378.294"/></g><g class="cls-27"><polygon class="cls-7" points="727.271 693.653 726.336 834.932 645.185 882.092 646.119 740.813 727.271 693.653"/><polygon class="cls-8" points="646.119 740.813 645.185 882.092 563.507 834.936 564.442 693.657 646.119 740.813"/><polygon class="cls-9" points="727.271 693.653 646.119 740.813 564.442 693.657 645.594 646.497 727.271 693.653"/></g><polygon class="cls-9" points="360.771 308.066 277.128 259.775 360.769 211.485 444.412 259.776 360.771 308.066"/><polygon class="cls-13" points="360.771 294.88 299.967 259.775 360.769 224.671 421.573 259.776 360.771 294.88"/><polygon class="cls-16" points="360.769 227.048 419.514 260.965 421.573 259.776 360.769 224.67 299.967 259.775 302.026 260.963 360.769 227.048"/><polygon class="cls-28" points="444.412 259.776 444.412 287.149 360.771 335.439 360.771 308.066 444.412 259.776"/><polygon class="cls-19" points="277.128 259.775 277.128 287.147 360.771 335.439 360.771 308.066 277.128 259.775"/><polygon class="cls-8" points="282.794 272.073 282.794 280.693 355.105 322.442 355.105 313.822 282.794 272.073"/><polygon class="cls-16" points="360.771 306.497 278.487 258.99 277.128 259.775 360.771 308.066 444.412 259.776 443.053 258.991 360.771 306.497"/><polygon class="cls-13" points="431.866 278.958 431.866 283.857 373.317 317.66 373.317 312.76 431.866 278.958"/><polygon class="cls-19" points="277.128 259.775 277.128 287.147 360.771 335.439 360.771 308.066 277.128 259.775"/><polygon class="cls-10" points="336.354 306.612 321.208 297.866 321.206 299.672 336.352 308.418 336.354 306.612"/><polygon class="cls-10" points="319.024 296.624 314.92 294.255 314.918 296.061 319.022 298.43 319.024 296.624"/><polygon class="cls-10" points="299.799 285.527 291.403 280.679 291.401 282.485 299.797 287.333 299.799 285.527"/><polygon class="cls-10" points="307.461 289.951 301.389 286.445 301.388 288.252 307.46 291.758 307.461 289.951"/><polygon class="cls-10" points="313.155 293.239 309.052 290.87 309.05 292.676 313.154 295.045 313.155 293.239"/><polygon class="cls-10" points="360.856 236.724 358.2 235.191 360.856 233.657 363.512 235.191 360.856 236.724"/><polygon class="cls-29" points="366.168 239.791 363.512 238.257 366.168 236.724 368.824 238.257 366.168 239.791"/><polygon class="cls-30" points="371.48 242.858 368.824 241.324 371.48 239.791 374.136 241.324 371.48 242.858"/><polygon class="cls-10" points="376.792 245.925 374.136 244.391 376.792 242.858 379.448 244.391 376.792 245.925"/><polygon class="cls-30" points="382.104 248.992 379.448 247.458 382.104 245.925 384.76 247.458 382.104 248.992"/><polygon class="cls-10" points="387.416 252.058 384.76 250.525 387.416 248.992 390.072 250.525 387.416 252.058"/><polygon class="cls-10" points="392.728 255.125 390.072 253.592 392.728 252.058 395.384 253.592 392.728 255.125"/><polygon class="cls-10" points="398.04 258.192 395.384 256.659 398.04 255.125 400.696 256.659 398.04 258.192"/><polygon class="cls-29" points="403.352 261.259 400.696 259.726 403.352 258.192 406.008 259.726 403.352 261.259"/><polygon class="cls-10" points="355.522 239.803 352.866 238.27 355.522 236.736 358.178 238.27 355.522 239.803"/><polygon class="cls-10" points="360.834 242.87 358.178 241.337 360.834 239.803 363.49 241.337 360.834 242.87"/><polygon class="cls-10" points="366.146 245.937 363.49 244.404 366.146 242.87 368.802 244.404 366.146 245.937"/><polygon class="cls-10" points="371.458 249.004 368.802 247.47 371.458 245.937 374.114 247.471 371.458 249.004"/><polygon class="cls-10" points="376.77 252.071 374.114 250.537 376.77 249.004 379.426 250.537 376.77 252.071"/><polygon class="cls-10" points="382.082 255.138 379.426 253.604 382.082 252.071 384.738 253.604 382.082 255.138"/><polygon class="cls-10" points="387.394 258.205 384.738 256.671 387.394 255.138 390.05 256.671 387.394 258.205"/><polygon class="cls-10" points="392.706 261.271 390.05 259.738 392.706 258.205 395.362 259.738 392.706 261.271"/><polygon class="cls-10" points="398.018 264.338 395.362 262.805 398.018 261.271 400.674 262.805 398.018 264.338"/><polygon class="cls-10" points="350.189 242.883 347.533 241.349 350.189 239.816 352.845 241.349 350.189 242.883"/><polygon class="cls-10" points="355.501 245.949 352.845 244.416 355.501 242.883 358.157 244.416 355.501 245.949"/><polygon class="cls-10" points="360.813 249.016 358.157 247.483 360.813 245.95 363.469 247.483 360.813 249.016"/><polygon class="cls-29" points="366.125 252.083 363.469 250.55 366.125 249.016 368.781 250.55 366.125 252.083"/><polygon class="cls-30" points="371.437 255.15 368.781 253.617 371.437 252.083 374.093 253.617 371.437 255.15"/><polygon class="cls-30" points="376.749 258.217 374.093 256.684 376.749 255.15 379.405 256.684 376.749 258.217"/><polygon class="cls-10" points="382.061 261.284 379.405 259.75 382.061 258.217 384.717 259.75 382.061 261.284"/><polygon class="cls-10" points="387.373 264.351 384.717 262.817 387.373 261.284 390.029 262.817 387.373 264.351"/><polygon class="cls-10" points="392.685 267.418 390.029 265.884 392.685 264.351 395.341 265.884 392.685 267.418"/><polygon class="cls-30" points="344.855 245.962 342.199 244.428 344.855 242.895 347.511 244.428 344.855 245.962"/><polygon class="cls-30" points="350.167 249.029 347.511 247.495 350.167 245.962 352.823 247.495 350.167 249.029"/><polygon class="cls-29" points="355.479 252.096 352.823 250.562 355.479 249.029 358.135 250.562 355.479 252.096"/><polygon class="cls-10" points="360.791 255.163 358.135 253.629 360.791 252.096 363.447 253.629 360.791 255.163"/><polygon class="cls-10" points="366.103 258.229 363.447 256.696 366.103 255.163 368.759 256.696 366.103 258.229"/><polygon class="cls-10" points="371.415 261.296 368.759 259.763 371.415 258.229 374.071 259.763 371.415 261.296"/><polygon class="cls-30" points="376.727 264.363 374.071 262.83 376.727 261.296 379.383 262.83 376.727 264.363"/><polygon class="cls-10" points="382.039 267.43 379.383 265.897 382.039 264.363 384.695 265.897 382.039 267.43"/><polygon class="cls-10" points="387.351 270.497 384.695 268.963 387.351 267.43 390.007 268.964 387.351 270.497"/><polygon class="cls-10" points="339.522 249.041 336.866 247.508 339.522 245.974 342.178 247.508 339.522 249.041"/><polygon class="cls-10" points="344.834 252.108 342.178 250.575 344.834 249.041 347.49 250.575 344.834 252.108"/><polygon class="cls-10" points="350.146 255.175 347.49 253.641 350.146 252.108 352.802 253.642 350.146 255.175"/><polygon class="cls-10" points="355.458 258.242 352.802 256.708 355.458 255.175 358.114 256.708 355.458 258.242"/><polygon class="cls-10" points="360.77 261.309 358.114 259.775 360.77 258.242 363.426 259.775 360.77 261.309"/><polygon class="cls-10" points="366.082 264.376 363.426 262.842 366.082 261.309 368.738 262.842 366.082 264.376"/><polygon class="cls-10" points="371.394 267.442 368.738 265.909 371.394 264.376 374.05 265.909 371.394 267.442"/><polygon class="cls-10" points="376.706 270.509 374.05 268.976 376.706 267.442 379.362 268.976 376.706 270.509"/><polygon class="cls-10" points="382.018 273.576 379.362 272.043 382.018 270.509 384.674 272.043 382.018 273.576"/><polygon class="cls-10" points="334.189 252.12 331.533 250.587 334.188 249.054 336.844 250.587 334.189 252.12"/><polygon class="cls-10" points="339.5 255.187 336.845 253.654 339.5 252.121 342.156 253.654 339.5 255.187"/><polygon class="cls-30" points="344.812 258.254 342.156 256.721 344.812 255.187 347.468 256.721 344.812 258.254"/><polygon class="cls-10" points="350.124 261.321 347.468 259.788 350.124 258.254 352.78 259.788 350.124 261.321"/><polygon class="cls-29" points="355.436 264.388 352.78 262.855 355.436 261.321 358.092 262.855 355.436 264.388"/><polygon class="cls-10" points="360.748 267.455 358.092 265.921 360.748 264.388 363.404 265.921 360.748 267.455"/><polygon class="cls-10" points="366.06 270.522 363.404 268.988 366.06 267.455 368.716 268.988 366.06 270.522"/><polygon class="cls-10" points="371.372 273.589 368.716 272.055 371.372 270.522 374.028 272.055 371.372 273.589"/><polygon class="cls-10" points="376.684 276.655 374.028 275.122 376.684 273.589 379.34 275.122 376.684 276.655"/><polygon class="cls-10" points="328.855 255.2 326.199 253.666 328.855 252.133 331.511 253.666 328.855 255.2"/><polygon class="cls-10" points="334.167 258.267 331.511 256.733 334.167 255.2 336.823 256.733 334.167 258.267"/><polygon class="cls-30" points="339.479 261.334 336.823 259.8 339.479 258.267 342.135 259.8 339.479 261.334"/><polygon class="cls-10" points="344.791 264.4 342.135 262.867 344.791 261.334 347.447 262.867 344.791 264.4"/><polygon class="cls-10" points="350.103 267.467 347.447 265.934 350.103 264.4 352.759 265.934 350.103 267.467"/><polygon class="cls-29" points="355.415 270.534 352.759 269.001 355.415 267.467 358.071 269.001 355.415 270.534"/><polygon class="cls-30" points="360.727 273.601 358.071 272.068 360.727 270.534 363.383 272.068 360.727 273.601"/><polygon class="cls-10" points="366.039 276.668 363.383 275.134 366.039 273.601 368.695 275.135 366.039 276.668"/><polygon class="cls-29" points="371.351 279.735 368.695 278.201 371.351 276.668 374.007 278.201 371.351 279.735"/><polygon class="cls-10" points="323.522 258.279 320.866 256.746 323.521 255.212 326.177 256.746 323.522 258.279"/><polygon class="cls-30" points="328.834 261.346 326.178 259.812 328.833 258.279 331.489 259.813 328.834 261.346"/><polygon class="cls-10" points="334.146 264.413 331.49 262.879 334.145 261.346 336.801 262.879 334.146 264.413"/><polygon class="cls-10" points="339.457 267.48 336.801 265.946 339.457 264.413 342.113 265.946 339.457 267.48"/><polygon class="cls-10" points="344.769 270.547 342.113 269.013 344.769 267.48 347.425 269.013 344.769 270.547"/><polygon class="cls-10" points="350.081 273.613 347.425 272.08 350.081 270.547 352.737 272.08 350.081 273.613"/><polygon class="cls-10" points="355.393 276.68 352.737 275.147 355.393 273.613 358.049 275.147 355.393 276.68"/><polygon class="cls-30" points="360.705 279.747 358.049 278.214 360.705 276.68 363.361 278.214 360.705 279.747"/><polygon class="cls-10" points="366.017 282.814 363.361 281.281 366.017 279.747 368.673 281.281 366.017 282.814"/><polygon class="cls-10" points="318.188 261.358 315.532 259.825 318.188 258.292 320.844 259.825 318.188 261.358"/><polygon class="cls-29" points="323.5 264.425 320.844 262.892 323.5 261.358 326.156 262.892 323.5 264.425"/><polygon class="cls-10" points="328.812 267.492 326.156 265.959 328.812 264.425 331.468 265.959 328.812 267.492"/><polygon class="cls-10" points="334.124 270.559 331.468 269.026 334.124 267.492 336.78 269.026 334.124 270.559"/><polygon class="cls-10" points="339.436 273.626 336.78 272.092 339.436 270.559 342.092 272.092 339.436 273.626"/><polygon class="cls-10" points="344.748 276.693 342.092 275.159 344.748 273.626 347.404 275.159 344.748 276.693"/><polygon class="cls-30" points="350.06 279.76 347.404 278.226 350.06 276.693 352.716 278.226 350.06 279.76"/><polygon class="cls-10" points="355.372 282.826 352.716 281.293 355.372 279.76 358.028 281.293 355.372 282.826"/><polygon class="cls-10" points="360.684 285.893 358.028 284.36 360.684 282.827 363.34 284.36 360.684 285.893"/><polygon class="cls-9" points="360.771 260.671 277.128 212.38 360.769 164.09 444.412 212.381 360.771 260.671"/><polygon class="cls-19" points="360.771 247.485 299.967 212.38 360.769 177.276 421.573 212.381 360.771 247.485"/><polygon class="cls-16" points="360.769 179.653 419.514 213.57 421.573 212.381 360.769 177.276 299.967 212.38 302.026 213.569 360.769 179.653"/><polygon class="cls-31" points="444.412 212.381 444.412 239.754 360.771 288.044 360.771 260.671 444.412 212.381"/><polygon class="cls-19" points="277.128 212.38 277.128 239.753 360.771 288.044 360.771 260.671 277.128 212.38"/><polygon class="cls-8" points="282.794 224.679 282.794 233.298 355.105 275.047 355.105 266.427 282.794 224.679"/><polygon class="cls-16" points="360.771 259.102 278.487 211.595 277.128 212.38 360.771 260.671 444.412 212.381 443.053 211.597 360.771 259.102"/><polygon class="cls-13" points="431.866 231.563 431.866 236.463 373.317 270.266 373.317 265.366 431.866 231.563"/><polygon class="cls-19" points="277.128 212.38 277.128 239.753 360.771 288.044 360.771 260.671 277.128 212.38"/><polygon class="cls-10" points="336.354 259.217 321.208 250.472 321.206 252.278 336.352 261.024 336.354 259.217"/><polygon class="cls-10" points="319.024 249.23 314.92 246.86 314.918 248.666 319.022 251.036 319.024 249.23"/><polygon class="cls-10" points="299.799 238.133 291.403 233.285 291.401 235.091 299.797 239.939 299.799 238.133"/><polygon class="cls-10" points="307.461 242.557 301.389 239.051 301.388 240.857 307.46 244.363 307.461 242.557"/><polygon class="cls-10" points="313.155 245.845 309.052 243.475 309.05 245.281 313.154 247.651 313.155 245.845"/><polygon class="cls-10" points="360.856 189.329 358.2 187.796 360.856 186.263 363.512 187.796 360.856 189.329"/><polygon class="cls-29" points="366.168 192.396 363.512 190.863 366.168 189.33 368.824 190.863 366.168 192.396"/><polygon class="cls-30" points="371.48 195.463 368.824 193.93 371.48 192.396 374.136 193.93 371.48 195.463"/><polygon class="cls-10" points="376.792 198.53 374.136 196.997 376.792 195.463 379.448 196.997 376.792 198.53"/><polygon class="cls-30" points="382.104 201.597 379.448 200.064 382.104 198.53 384.76 200.064 382.104 201.597"/><polygon class="cls-10" points="387.416 204.664 384.76 203.13 387.416 201.597 390.072 203.13 387.416 204.664"/><polygon class="cls-10" points="392.728 207.731 390.072 206.197 392.728 204.664 395.384 206.197 392.728 207.731"/><polygon class="cls-10" points="398.04 210.798 395.384 209.264 398.04 207.731 400.696 209.264 398.04 210.798"/><polygon class="cls-29" points="403.352 213.864 400.696 212.331 403.352 210.798 406.008 212.331 403.352 213.864"/><polygon class="cls-10" points="355.522 192.409 352.866 190.875 355.522 189.342 358.178 190.875 355.522 192.409"/><polygon class="cls-10" points="360.834 195.476 358.178 193.942 360.834 192.409 363.49 193.942 360.834 195.476"/><polygon class="cls-10" points="366.146 198.543 363.49 197.009 366.146 195.476 368.802 197.009 366.146 198.543"/><polygon class="cls-10" points="371.458 201.609 368.802 200.076 371.458 198.543 374.114 200.076 371.458 201.609"/><polygon class="cls-10" points="376.77 204.676 374.114 203.143 376.77 201.609 379.426 203.143 376.77 204.676"/><polygon class="cls-10" points="382.082 207.743 379.426 206.21 382.082 204.676 384.738 206.21 382.082 207.743"/><polygon class="cls-10" points="387.394 210.81 384.738 209.277 387.394 207.743 390.05 209.277 387.394 210.81"/><polygon class="cls-10" points="392.706 213.877 390.05 212.343 392.706 210.81 395.362 212.343 392.706 213.877"/><polygon class="cls-10" points="398.018 216.944 395.362 215.41 398.018 213.877 400.674 215.41 398.018 216.944"/><polygon class="cls-10" points="350.189 195.488 347.533 193.955 350.189 192.421 352.845 193.955 350.189 195.488"/><polygon class="cls-10" points="355.501 198.555 352.845 197.021 355.501 195.488 358.157 197.022 355.501 198.555"/><polygon class="cls-10" points="360.813 201.622 358.157 200.088 360.813 198.555 363.469 200.088 360.813 201.622"/><polygon class="cls-29" points="366.125 204.689 363.469 203.155 366.125 201.622 368.781 203.155 366.125 204.689"/><polygon class="cls-30" points="371.437 207.756 368.781 206.222 371.437 204.689 374.093 206.222 371.437 207.756"/><polygon class="cls-30" points="376.749 210.822 374.093 209.289 376.749 207.756 379.405 209.289 376.749 210.822"/><polygon class="cls-10" points="382.061 213.889 379.405 212.356 382.061 210.822 384.717 212.356 382.061 213.889"/><polygon class="cls-10" points="387.373 216.956 384.717 215.423 387.373 213.889 390.029 215.423 387.373 216.956"/><polygon class="cls-10" points="392.685 220.023 390.029 218.49 392.685 216.956 395.341 218.49 392.685 220.023"/><polygon class="cls-30" points="344.855 198.567 342.199 197.034 344.855 195.501 347.511 197.034 344.855 198.567"/><polygon class="cls-30" points="350.167 201.634 347.511 200.101 350.167 198.567 352.823 200.101 350.167 201.634"/><polygon class="cls-29" points="355.479 204.701 352.823 203.168 355.479 201.634 358.135 203.168 355.479 204.701"/><polygon class="cls-10" points="360.791 207.768 358.135 206.235 360.791 204.701 363.447 206.235 360.791 207.768"/><polygon class="cls-10" points="366.103 210.835 363.447 209.301 366.103 207.768 368.759 209.301 366.103 210.835"/><polygon class="cls-10" points="371.415 213.902 368.759 212.368 371.415 210.835 374.071 212.368 371.415 213.902"/><polygon class="cls-30" points="376.727 216.969 374.071 215.435 376.727 213.902 379.383 215.435 376.727 216.969"/><polygon class="cls-10" points="382.039 220.035 379.383 218.502 382.039 216.969 384.695 218.502 382.039 220.035"/><polygon class="cls-10" points="387.351 223.102 384.695 221.569 387.351 220.036 390.007 221.569 387.351 223.102"/><polygon class="cls-10" points="339.522 201.647 336.866 200.113 339.522 198.58 342.178 200.113 339.522 201.647"/><polygon class="cls-10" points="344.834 204.714 342.178 203.18 344.834 201.647 347.49 203.18 344.834 204.714"/><polygon class="cls-10" points="350.146 207.78 347.49 206.247 350.146 204.714 352.802 206.247 350.146 207.78"/><polygon class="cls-10" points="355.458 210.847 352.802 209.314 355.458 207.78 358.114 209.314 355.458 210.847"/><polygon class="cls-10" points="360.77 213.914 358.114 212.381 360.77 210.847 363.426 212.381 360.77 213.914"/><polygon class="cls-10" points="366.082 216.981 363.426 215.448 366.082 213.914 368.738 215.448 366.082 216.981"/><polygon class="cls-10" points="371.394 220.048 368.738 218.514 371.394 216.981 374.05 218.514 371.394 220.048"/><polygon class="cls-10" points="376.706 223.115 374.05 221.581 376.706 220.048 379.362 221.581 376.706 223.115"/><polygon class="cls-10" points="382.018 226.182 379.362 224.648 382.018 223.115 384.674 224.648 382.018 226.182"/><polygon class="cls-10" points="334.189 204.726 331.533 203.192 334.188 201.659 336.844 203.193 334.189 204.726"/><polygon class="cls-10" points="339.5 207.793 336.845 206.259 339.5 204.726 342.156 206.259 339.5 207.793"/><polygon class="cls-30" points="344.812 210.86 342.156 209.326 344.812 207.793 347.468 209.326 344.812 210.86"/><polygon class="cls-10" points="350.124 213.927 347.468 212.393 350.124 210.86 352.78 212.393 350.124 213.927"/><polygon class="cls-29" points="355.436 216.993 352.78 215.46 355.436 213.927 358.092 215.46 355.436 216.993"/><polygon class="cls-10" points="360.748 220.06 358.092 218.527 360.748 216.993 363.404 218.527 360.748 220.06"/><polygon class="cls-10" points="366.06 223.127 363.404 221.594 366.06 220.06 368.716 221.594 366.06 223.127"/><polygon class="cls-10" points="371.372 226.194 368.716 224.661 371.372 223.127 374.028 224.661 371.372 226.194"/><polygon class="cls-10" points="376.684 229.261 374.028 227.727 376.684 226.194 379.34 227.728 376.684 229.261"/><polygon class="cls-10" points="328.855 207.805 326.199 206.272 328.855 204.738 331.511 206.272 328.855 207.805"/><polygon class="cls-10" points="334.167 210.872 331.511 209.339 334.167 207.805 336.823 209.339 334.167 210.872"/><polygon class="cls-30" points="339.479 213.939 336.823 212.406 339.479 210.872 342.135 212.406 339.479 213.939"/><polygon class="cls-10" points="344.791 217.006 342.135 215.472 344.791 213.939 347.447 215.472 344.791 217.006"/><polygon class="cls-10" points="350.103 220.073 347.447 218.539 350.103 217.006 352.759 218.539 350.103 220.073"/><polygon class="cls-29" points="355.415 223.14 352.759 221.606 355.415 220.073 358.071 221.606 355.415 223.14"/><polygon class="cls-30" points="360.727 226.206 358.071 224.673 360.727 223.14 363.383 224.673 360.727 226.206"/><polygon class="cls-10" points="366.039 229.273 363.383 227.74 366.039 226.207 368.695 227.74 366.039 229.273"/><polygon class="cls-29" points="371.351 232.34 368.695 230.807 371.351 229.273 374.007 230.807 371.351 232.34"/><polygon class="cls-10" points="323.522 210.885 320.866 209.351 323.521 207.818 326.177 209.351 323.522 210.885"/><polygon class="cls-30" points="328.834 213.951 326.178 212.418 328.833 210.885 331.489 212.418 328.834 213.951"/><polygon class="cls-10" points="334.146 217.018 331.49 215.485 334.145 213.951 336.801 215.485 334.146 217.018"/><polygon class="cls-10" points="339.457 220.085 336.801 218.552 339.457 217.018 342.113 218.552 339.457 220.085"/><polygon class="cls-10" points="344.769 223.152 342.113 221.619 344.769 220.085 347.425 221.619 344.769 223.152"/><polygon class="cls-10" points="350.081 226.219 347.425 224.685 350.081 223.152 352.737 224.685 350.081 226.219"/><polygon class="cls-10" points="355.393 229.286 352.737 227.752 355.393 226.219 358.049 227.752 355.393 229.286"/><polygon class="cls-30" points="360.705 232.353 358.049 230.819 360.705 229.286 363.361 230.819 360.705 232.353"/><polygon class="cls-10" points="366.017 235.42 363.361 233.886 366.017 232.353 368.673 233.886 366.017 235.42"/><polygon class="cls-10" points="318.188 213.964 315.532 212.43 318.188 210.897 320.844 212.43 318.188 213.964"/><polygon class="cls-29" points="323.5 217.031 320.844 215.497 323.5 213.964 326.156 215.497 323.5 217.031"/><polygon class="cls-10" points="328.812 220.098 326.156 218.564 328.812 217.031 331.468 218.564 328.812 220.098"/><polygon class="cls-10" points="334.124 223.164 331.468 221.631 334.124 220.098 336.78 221.631 334.124 223.164"/><polygon class="cls-10" points="339.436 226.231 336.78 224.698 339.436 223.164 342.092 224.698 339.436 226.231"/><polygon class="cls-10" points="344.748 229.298 342.092 227.765 344.748 226.231 347.404 227.765 344.748 229.298"/><polygon class="cls-30" points="350.06 232.365 347.404 230.832 350.06 229.298 352.716 230.832 350.06 232.365"/><polygon class="cls-10" points="355.372 235.432 352.716 233.898 355.372 232.365 358.028 233.899 355.372 235.432"/><polygon class="cls-10" points="360.684 238.499 358.028 236.965 360.684 235.432 363.34 236.965 360.684 238.499"/><path class="cls-10" d="M629.174,709.38a6.683,6.683,0,0,1-3.336-.89l-38.447-22.2a1.925,1.925,0,0,1,0-3.335l69.565-40.164a.379.379,0,0,1,.38,0l41.593,24.014a1.927,1.927,0,0,1,0,3.335L632.509,708.49A6.687,6.687,0,0,1,629.174,709.38Zm27.972-65.819L587.77,683.614a1.167,1.167,0,0,0,0,2.021l38.447,22.2a6.036,6.036,0,0,0,5.913,0l66.42-38.348a1.169,1.169,0,0,0,0-2.022Z"/><path class="cls-32" d="M657.231,627.276l-9.253-54.9.744-.313-1.118-.641,0,.007a.8.8,0,0,0-.862.059l-73.953,42.7a2.088,2.088,0,0,0-.96,1.878l9.327,55.336a.694.694,0,0,0,.389.563h0l1.094.632.188-1.021-.062.019,73.505-42.438A2.089,2.089,0,0,0,657.231,627.276Z"/><path class="cls-33" d="M573.2,615.687l-1.216-.538a1.675,1.675,0,0,0-.156.915l9.327,55.336a.694.694,0,0,0,.389.563h0l1.094.632.188-1.021-.062.019,3.719-2.148Z"/><path class="cls-13" d="M657.431,629.82l-73.953,42.7c-.571.33-1.06.139-1.16-.452l-9.327-55.335a2.089,2.089,0,0,1,.96-1.879l73.953-42.7c.571-.33,1.06-.14,1.161.452l9.326,55.335A2.085,2.085,0,0,1,657.431,629.82Z"/><polygon class="cls-10" points="646.938 575.687 575.653 616.843 584.493 668.957 655.73 627.829 646.938 575.687"/><path class="cls-34" d="M703.918,656.018l-4.036,2.108-40.468-23.365a2.935,2.935,0,0,0-2.642.11l-69.8,40.3c-.668-.373-3.714-1.838-3.714-1.838l1.478,3.849,0,0a.886.886,0,0,0,.414.458l42.621,24.607a2.938,2.938,0,0,0,2.642-.109l71.425-41.237a1.283,1.283,0,0,0,.6-.637l0,0Z"/><path class="cls-35" d="M703.294,656.682l-73.2,42.262a3.006,3.006,0,0,1-2.707.112L583.7,673.837c-.694-.4-.607-1.1.2-1.563l73.2-42.263a3.009,3.009,0,0,1,2.707-.112l43.682,25.22C704.182,655.519,704.1,656.219,703.294,656.682Z"/><path class="cls-16" d="M703.294,656.26l-73.2,42.262a3.006,3.006,0,0,1-2.707.112L583.7,673.415a.9.9,0,0,1-.424-.472.737.737,0,0,0,.424.894l43.682,25.219a3.006,3.006,0,0,0,2.707-.112l73.2-42.262c.539-.312.747-.729.619-1.091A1.3,1.3,0,0,1,703.294,656.26Z"/><path class="cls-19" d="M608.014,689.8V689c0-.076.046-.111.1-.078l2.831,1.635a.245.245,0,0,1,.1.2v.8c0,.076-.046.111-.1.078L608.117,690A.249.249,0,0,1,608.014,689.8Z"/><path class="cls-19" d="M612.248,692.247v-.8c0-.076.046-.111.1-.078L615.183,693a.249.249,0,0,1,.1.2v.8c0,.076-.046.111-.1.078l-2.832-1.635A.247.247,0,0,1,612.248,692.247Z"/><path class="cls-9" d="M595.093,671.475l60.83-35.121a1.31,1.31,0,0,1,1.31,0L678.9,648.888a.466.466,0,0,1,0,.808l-60.8,35.1a1.31,1.31,0,0,1-1.31,0l-21.69-12.516A.467.467,0,0,1,595.093,671.475Z"/><path class="cls-18" d="M595.093,672.284l.217.125,60.613-34.994a1.31,1.31,0,0,1,1.31,0l21.444,12.407.217-.126a.466.466,0,0,0,0-.808l-21.662-12.533a1.308,1.308,0,0,0-1.31,0l-60.83,35.121A.467.467,0,0,0,595.093,672.284Z"/><polygon class="cls-13" points="658.868 639.529 606.029 670.036 603.679 668.679 656.518 638.173 658.868 639.529"/><polygon class="cls-13" points="664.628 642.855 615.066 671.469 612.717 670.112 662.278 641.498 664.628 642.855"/><polygon class="cls-13" points="668.379 645.021 610.026 678.711 607.677 677.354 666.03 643.664 668.379 645.021"/><polygon class="cls-13" points="672.131 647.187 613.778 680.877 611.428 679.52 669.781 645.83 672.131 647.187"/><polygon class="cls-13" points="675.882 649.352 617.529 683.043 615.18 681.686 673.533 647.996 675.882 649.352"/><polygon class="cls-13" points="602.836 671.879 600.486 673.236 598.137 671.879 600.486 670.523 602.836 671.879"/><polygon class="cls-13" points="611.123 673.746 606.246 676.561 603.897 675.205 608.773 672.389 611.123 673.746"/><path class="cls-36" d="M658.265,679.974l16.4-9.47a.707.707,0,0,0,0-1.34l-11.216-6.476a2.567,2.567,0,0,0-2.322,0l-16.4,9.47a.707.707,0,0,0,0,1.34l11.216,6.476A2.567,2.567,0,0,0,658.265,679.974Z"/><path class="cls-18" d="M644.727,672.706l16.4-9.47a2.567,2.567,0,0,1,2.322,0l11.216,6.476a1,1,0,0,1,.4.4c.169-.324.04-.689-.4-.944l-11.216-6.476a2.567,2.567,0,0,0-2.322,0l-16.4,9.47c-.443.256-.572.62-.4.944A1.008,1.008,0,0,1,644.727,672.706Z"/><g class="cls-21"><g class="cls-37"><path class="cls-38" d="M657.172,629.924l-73.2,42.263a3.009,3.009,0,0,1-2.707.112l-43.682-25.22c-.694-.4-.607-1.1.194-1.563l73.2-42.262a3.009,3.009,0,0,1,2.707-.113l43.682,25.22C658.06,628.762,657.973,629.462,657.172,629.924Z"/><path class="cls-39" d="M583.753,637.5l16.4-9.469a.708.708,0,0,0,0-1.341l-11.216-6.475a2.561,2.561,0,0,0-2.322,0l-16.4,9.469a.708.708,0,0,0,0,1.341l11.216,6.475A2.567,2.567,0,0,0,583.753,637.5Z"/><path class="cls-18" d="M570.215,630.234l16.4-9.47a2.567,2.567,0,0,1,2.322,0l11.216,6.476a1,1,0,0,1,.4.4c.169-.324.04-.689-.4-.945l-11.216-6.475a2.561,2.561,0,0,0-2.322,0l-16.4,9.469c-.443.256-.572.621-.4.945A1,1,0,0,1,570.215,630.234Z"/><path class="cls-9" d="M563.005,652.3l60.83-35.12a1.309,1.309,0,0,1,1.311,0l21.661,12.532a.467.467,0,0,1,0,.809l-60.8,35.1a1.308,1.308,0,0,1-1.309,0l-21.691-12.517A.467.467,0,0,1,563.005,652.3Z"/><path class="cls-9" d="M563.005,653.109l.218.126,60.612-35a1.309,1.309,0,0,1,1.311,0l21.443,12.406.218-.125a.467.467,0,0,0,0-.809l-21.661-12.532a1.309,1.309,0,0,0-1.311,0l-60.83,35.12A.467.467,0,0,0,563.005,653.109Z"/><polygon class="cls-13" points="641.138 628.858 588.145 659.454 590.244 660.666 643.237 630.07 641.138 628.858"/><polygon class="cls-13" points="635.555 625.635 585.185 654.716 587.284 655.927 637.654 626.847 635.555 625.635"/><polygon class="cls-13" points="581.424 656.887 576.72 659.603 578.819 660.815 583.523 658.099 581.424 656.887"/><polygon class="cls-13" points="585.579 660.936 582.303 662.827 584.402 664.039 587.678 662.148 585.579 660.936"/><polygon class="cls-13" points="632.056 623.615 573.221 657.583 575.32 658.795 634.155 624.827 632.056 623.615"/><polygon class="cls-13" points="628.557 621.595 569.722 655.563 571.821 656.775 630.656 622.807 628.557 621.595"/><polygon class="cls-13" points="625.059 619.575 566.224 653.543 568.323 654.755 627.158 620.787 625.059 619.575"/></g></g><polygon class="cls-19" points="602.495 649.088 608.262 645.755 608.431 646.756 602.664 650.089 602.495 649.088"/><polygon class="cls-19" points="609.19 645.222 612.332 643.406 612.501 644.407 609.359 646.224 609.19 645.222"/><polygon class="cls-19" points="617.222 640.584 619.495 639.27 619.664 640.271 617.391 641.585 617.222 640.584"/><polygon class="cls-19" points="615.563 641.542 616.34 641.093 616.51 642.095 615.733 642.544 615.563 641.542"/><polygon class="cls-19" points="613.271 642.867 614.682 642.052 614.851 643.053 613.44 643.869 613.271 642.867"/><polygon class="cls-19" points="607.058 641.428 609.332 640.114 609.501 641.116 607.227 642.43 607.058 641.428"/><polygon class="cls-19" points="601.722 644.512 606.177 641.937 606.346 642.939 601.891 645.514 601.722 644.512"/><polygon class="cls-19" points="608.109 628.282 612.564 625.707 612.733 626.708 608.278 629.283 608.109 628.282"/><polygon class="cls-19" points="605.817 629.606 607.228 628.791 607.397 629.792 605.986 630.608 605.817 629.606"/><polygon class="cls-19" points="608.852 632.863 613.307 630.288 613.476 631.29 609.022 633.865 608.852 632.863"/><polygon class="cls-19" points="606.56 634.188 607.971 633.373 608.141 634.374 606.73 635.189 606.56 634.188"/><polygon class="cls-19" points="604.821 608.51 596.429 613.36 596.259 612.359 604.652 607.508 604.821 608.51"/><polygon class="cls-19" points="607.778 606.801 605.702 608.001 605.533 606.999 607.609 605.799 607.778 606.801"/><polygon class="cls-19" points="622.526 605.827 614.133 610.678 613.964 609.676 622.356 604.826 622.526 605.827"/><polygon class="cls-19" points="625.483 604.118 623.407 605.318 623.238 604.317 625.314 603.117 625.483 604.118"/><polygon class="cls-19" points="599.089 614.334 596.815 615.648 596.646 614.646 598.919 613.332 599.089 614.334"/><polygon class="cls-19" points="612.922 611.367 610.648 612.681 610.479 611.679 612.753 610.365 612.922 611.367"/><polygon class="cls-19" points="604.425 611.25 599.97 613.825 599.801 612.823 604.255 610.248 604.425 611.25"/><polygon class="cls-19" points="606.717 609.925 605.306 610.74 605.136 609.739 606.547 608.924 606.717 609.925"/><polygon class="cls-19" points="612.093 606.823 607.639 609.397 607.469 608.396 611.924 605.821 612.093 606.823"/><polygon class="cls-19" points="614.386 605.498 612.975 606.313 612.806 605.312 614.216 604.496 614.386 605.498"/><polygon class="cls-19" points="612.535 609.078 610.262 610.392 610.092 609.39 612.366 608.076 612.535 609.078"/><polygon class="cls-19" points="617.871 605.994 613.416 608.569 613.247 607.567 617.702 604.992 617.871 605.994"/><polygon class="cls-19" points="620.163 604.669 618.752 605.485 618.583 604.483 619.994 603.668 620.163 604.669"/><polygon class="cls-19" points="601.853 615.247 597.201 617.935 597.032 616.934 601.684 614.245 601.853 615.247"/><polygon class="cls-19" points="606.099 612.793 602.734 614.737 602.565 613.736 605.929 611.792 606.099 612.793"/><polygon class="cls-19" points="609.253 610.97 606.98 612.284 606.811 611.282 609.084 609.968 609.253 610.97"/><polygon class="cls-19" points="631.304 600.764 626.652 603.452 626.483 602.451 631.135 599.762 631.304 600.764"/><polygon class="cls-19" points="635.549 598.31 632.185 600.255 632.016 599.253 635.38 597.309 635.549 598.31"/><polygon class="cls-19" points="638.704 596.487 636.43 597.801 636.261 596.799 638.535 595.485 638.704 596.487"/><polygon class="cls-19" points="629.487 630.992 634.139 628.303 634.308 629.304 629.656 631.993 629.487 630.992"/><polygon class="cls-19" points="625.242 633.445 628.606 631.501 628.775 632.502 625.411 634.447 625.242 633.445"/><polygon class="cls-19" points="622.087 635.268 624.361 633.954 624.53 634.956 622.256 636.27 622.087 635.268"/><polygon class="cls-19" points="627.943 634.404 632.595 631.715 632.764 632.717 628.112 635.406 627.943 634.404"/><polygon class="cls-19" points="623.698 636.858 627.062 634.913 627.231 635.915 623.867 637.859 623.698 636.858"/><polygon class="cls-19" points="620.543 638.681 622.817 637.367 622.986 638.368 620.712 639.683 620.543 638.681"/><polygon class="cls-19" points="609.159 630.173 610.73 629.265 610.899 630.267 609.328 631.175 609.159 630.173"/><polygon class="cls-19" points="606.201 631.883 608.278 630.683 608.447 631.684 606.371 632.884 606.201 631.883"/><polygon class="cls-19" points="602.27 617.521 597.618 620.209 597.449 619.208 602.101 616.519 602.27 617.521"/><polygon class="cls-19" points="606.515 615.067 603.151 617.012 602.982 616.01 606.346 614.066 606.515 615.067"/><polygon class="cls-19" points="609.67 613.244 607.396 614.558 607.227 613.556 609.501 612.242 609.67 613.244"/><polygon class="cls-19" points="599.575 621.589 598.004 622.497 597.835 621.496 599.406 620.588 599.575 621.589"/><polygon class="cls-19" points="602.533 619.88 600.456 621.08 600.287 620.078 602.364 618.878 602.533 619.88"/><polygon class="cls-19" points="606.76 617.437 603.414 619.37 603.245 618.369 606.591 616.435 606.76 617.437"/><polygon class="cls-19" points="611.297 636.481 612.868 635.573 613.037 636.574 611.466 637.482 611.297 636.481"/><polygon class="cls-19" points="608.339 638.191 610.415 636.99 610.585 637.992 608.508 639.192 608.339 638.191"/><polygon class="cls-19" points="604.112 640.633 607.458 638.7 607.627 639.701 604.281 641.635 604.112 640.633"/><polygon class="cls-19" points="613.69 632.767 617.036 630.833 617.205 631.835 613.859 633.769 613.69 632.767"/><polygon class="cls-19" points="608.218 635.75 612.727 633.144 612.897 634.145 608.387 636.752 608.218 635.75"/><polygon class="cls-19" points="605.926 637.075 607.337 636.259 607.506 637.261 606.095 638.076 605.926 637.075"/><polygon class="cls-19" points="603.726 638.346 605.137 637.531 605.306 638.532 603.895 639.348 603.726 638.346"/><polygon class="cls-19" points="604.028 625.42 608.483 622.845 608.652 623.846 604.197 626.421 604.028 625.42"/><polygon class="cls-19" points="601.736 626.744 603.147 625.929 603.316 626.93 601.905 627.746 601.736 626.744"/><polygon class="cls-19" points="604.335 622.73 605.906 621.821 606.075 622.823 604.504 623.731 604.335 622.73"/><polygon class="cls-19" points="609.882 624.563 611.453 623.654 611.622 624.656 610.051 625.564 609.882 624.563"/><polygon class="cls-19" points="612.122 623.27 615.892 621.092 616.061 622.093 612.291 624.271 612.122 623.27"/><polygon class="cls-19" points="616.561 620.707 618.804 619.411 618.973 620.413 616.73 621.708 616.561 620.707"/><polygon class="cls-19" points="601.377 624.439 603.454 623.239 603.623 624.241 601.546 625.44 601.377 624.439"/><polygon class="cls-19" points="601.181 622.089 602.753 621.18 602.922 622.182 601.351 623.09 601.181 622.089"/><polygon class="cls-19" points="598.224 623.798 600.3 622.598 600.469 623.599 598.393 624.799 598.224 623.798"/><polygon class="cls-19" points="607.602 625.879 609.013 625.063 609.182 626.065 607.771 626.88 607.602 625.879"/><polygon class="cls-19" points="605.402 627.15 606.813 626.334 606.983 627.336 605.571 628.151 605.402 627.15"/><polygon class="cls-19" points="616.24 638.647 621.053 635.866 621.222 636.867 616.409 639.649 616.24 638.647"/><polygon class="cls-19" points="610.85 641.763 615.359 639.156 615.528 640.158 611.019 642.764 610.85 641.763"/><polygon class="cls-19" points="608.558 643.088 609.969 642.272 610.138 643.273 608.727 644.089 608.558 643.088"/><polygon class="cls-19" points="606.358 644.359 607.769 643.543 607.938 644.545 606.527 645.36 606.358 644.359"/><polygon class="cls-19" points="605.155 645.054 602.111 646.813 602.28 647.815 605.324 646.055 605.155 645.054"/><path class="cls-10" d="M82.918,355.864a8.115,8.115,0,0,1-4.055-1.083l-46.7-26.963a2.347,2.347,0,0,1,0-4.065l84.5-48.787a.468.468,0,0,1,.469,0l.392.227,50.132,28.942a2.348,2.348,0,0,1,0,4.065l-80.68,46.581A8.122,8.122,0,0,1,82.918,355.864Zm33.978-79.95L32.63,324.565a1.409,1.409,0,0,0,0,2.44l46.7,26.964a7.318,7.318,0,0,0,7.175,0l80.679-46.581a1.409,1.409,0,0,0,0-2.44Z"/><path class="cls-40" d="M173.71,291.037l-4.9,2.56-49.158-28.38a3.562,3.562,0,0,0-3.208.133L31.66,314.3c-.812-.454-4.511-2.233-4.511-2.233l1.795,4.676.007-.006a1.071,1.071,0,0,0,.5.557l51.773,29.89a3.562,3.562,0,0,0,3.208-.133l86.759-50.09a1.552,1.552,0,0,0,.728-.774l.007,0Z"/><path class="cls-41" d="M172.952,291.843,84.035,343.179a3.653,3.653,0,0,1-3.288.136l-53.06-30.634c-.843-.486-.737-1.336.236-1.9l88.917-51.336a3.653,3.653,0,0,1,3.288-.136l53.06,30.634C174.031,290.431,173.925,291.281,172.952,291.843Z"/><path class="cls-16" d="M172.952,291.331,84.035,342.667a3.653,3.653,0,0,1-3.288.136l-53.06-30.634a1.087,1.087,0,0,1-.515-.574.894.894,0,0,0,.515,1.086l53.06,30.634a3.653,3.653,0,0,0,3.288-.136l88.917-51.336c.655-.378.907-.884.751-1.325A1.562,1.562,0,0,1,172.952,291.331Z"/><path class="cls-19" d="M57.216,332.074V331.1c0-.092.056-.135.125-.095l3.439,1.986a.3.3,0,0,1,.126.24v.975c0,.092-.056.135-.126.1l-3.439-1.986A.3.3,0,0,1,57.216,332.074Z"/><path class="cls-19" d="M62.359,335.044v-.975c0-.093.056-.135.125-.1l3.44,1.985a.3.3,0,0,1,.125.24v.975c0,.093-.056.135-.125.1l-3.44-1.985A.3.3,0,0,1,62.359,335.044Z"/><path class="cls-9" d="M57.6,319.645l73.89-42.66a1.59,1.59,0,0,1,1.591,0L159.4,292.209a.568.568,0,0,1,0,.983L85.54,335.832a1.592,1.592,0,0,1-1.591,0L57.6,320.628A.568.568,0,0,1,57.6,319.645Z"/><path class="cls-18" d="M57.6,320.628l.265.153,73.625-42.508a1.591,1.591,0,0,1,1.592,0l26.047,15.07.264-.152a.568.568,0,0,0,0-.983l-26.311-15.223a1.591,1.591,0,0,0-1.592,0L57.6,319.645A.568.568,0,0,0,57.6,320.628Z"/><polygon class="cls-13" points="135.069 280.841 67.007 320.137 63.633 318.79 132.215 279.194 135.069 280.841"/><polygon class="cls-13" points="142.066 284.881 81.864 319.638 79.01 317.991 139.212 283.233 142.066 284.881"/><polygon class="cls-13" points="146.623 287.512 75.742 328.435 72.888 326.787 143.769 285.864 146.623 287.512"/><polygon class="cls-13" points="151.18 290.143 80.298 331.066 77.445 329.418 148.326 288.495 151.18 290.143"/><polygon class="cls-13" points="155.736 292.774 84.855 333.697 82.002 332.049 152.883 291.126 155.736 292.774"/><polygon class="cls-13" points="67.007 320.137 64.154 321.785 61.3 320.137 64.154 318.489 67.007 320.137"/><polygon class="cls-13" points="85.326 317.64 71.15 325.824 68.296 324.176 82.575 315.933 85.326 317.64"/><path class="cls-42" d="M83.908,300.528l19.923-11.5a.859.859,0,0,0,0-1.628l-13.624-7.866a3.114,3.114,0,0,0-2.82,0l-19.923,11.5a.859.859,0,0,0,0,1.628l13.624,7.866A3.12,3.12,0,0,0,83.908,300.528Z"/><path class="cls-18" d="M67.464,291.7l19.923-11.5a3.12,3.12,0,0,1,2.82,0l13.624,7.866a1.221,1.221,0,0,1,.489.481c.206-.393.049-.836-.489-1.147l-13.624-7.866a3.114,3.114,0,0,0-2.82,0l-19.923,11.5c-.539.311-.7.754-.49,1.147A1.217,1.217,0,0,1,67.464,291.7Z"/><path class="cls-43" d="M173.568,289.719l-11.24-66.685.9-.381-1.358-.778,0,.008a.975.975,0,0,0-1.046.072L71,273.818a2.538,2.538,0,0,0-1.167,2.282l11.33,67.215a.842.842,0,0,0,.473.685h0l1.328.768.229-1.241-.076.023L172.4,292A2.534,2.534,0,0,0,173.568,289.719Z"/><path class="cls-44" d="M71.5,275.642l-1.477-.653a2.036,2.036,0,0,0-.19,1.111l11.33,67.215a.842.842,0,0,0,.473.685h0l1.328.768.229-1.241-.076.023,4.518-2.608Z"/><path class="cls-19" d="M173.811,292.809l-89.83,51.864c-.693.4-1.287.169-1.409-.549L71.243,276.909a2.534,2.534,0,0,1,1.166-2.282l89.83-51.864c.694-.4,1.288-.169,1.409.549l11.33,67.215A2.537,2.537,0,0,1,173.811,292.809Z"/><path class="cls-19" d="M437.736,79.854l-13.012-7.512,47.976-27.7c2.266-1.309,2.266-3.437,0-4.746L423.689,11.6a9.1,9.1,0,0,0-8.219,0L367.494,39.3l-13.013-7.512,47.976-27.7c9.441-5.451,24.8-5.451,34.243,0l49.012,28.3c9.441,5.451,9.441,14.32,0,19.77Z"/><path class="cls-9" d="M458.733,83.162c0-6.957-4.23-15.038-9.447-18.05L362.362,14.927c-2.336-1.349-4.47-1.445-6.12-.523l0,0L252.452,74.711l100.364,75.628L455.065,90.993a4.7,4.7,0,0,0,.9-.525h0C457.677,89.174,458.733,86.637,458.733,83.162Z"/><path class="cls-8" d="M352.816,150.338,455.065,90.993a4.7,4.7,0,0,0,.9-.525h0c1.708-1.293,2.764-3.83,2.764-7.3a23.174,23.174,0,0,0-2.546-10.053L339.631,140.4Z"/><path class="cls-19" d="M346.28,150.07,259.356,99.885c-5.217-3.012-9.447-11.093-9.447-18.05h0c0-6.956,4.23-10.154,9.447-7.141l86.924,50.185c5.217,3.012,9.447,11.093,9.447,18.05h0C355.727,149.885,351.5,153.082,346.28,150.07Z"/><path class="cls-16" d="M347.326,124.4,260.4,74.218c-2.4-1.384-4.582-1.444-6.248-.442a6.566,6.566,0,0,1,5.2.918l86.924,50.185c5.217,3.013,9.447,11.093,9.447,18.049h0c0,3.758-1.242,6.405-3.2,7.583,2.556-.779,4.245-3.667,4.245-8.058h0C356.773,135.5,352.543,127.416,347.326,124.4Z"/><path class="cls-45" d="M333.26,133.145l-10.45-6.028a4.51,4.51,0,0,1-1.883-3.6h0c0-1.386.843-2.024,1.883-1.424l10.45,6.029a4.509,4.509,0,0,1,1.883,3.6h0C335.143,133.108,334.3,133.746,333.26,133.145Z"/><path class="cls-46" d="M346.613,62.673c2.732-1.615,2.7-4.188-.06-5.746a11,11,0,0,0-9.951.1c-2.732,1.616-2.7,4.188.06,5.746A11,11,0,0,0,346.613,62.673Z"/><path class="cls-16" d="M361.778,71.218c2.732-1.615,2.7-4.188-.06-5.745a11,11,0,0,0-9.951.1c-2.732,1.615-2.7,4.187.06,5.745A11,11,0,0,0,361.778,71.218Z"/><path class="cls-16" d="M376.943,79.763c2.732-1.615,2.705-4.187-.06-5.745a11,11,0,0,0-9.952.1c-2.731,1.615-2.7,4.187.061,5.745A11,11,0,0,0,376.943,79.763Z"/></g></g></svg>