<svg xmlns="http://www.w3.org/2000/svg" viewBox="0 0 109.04 110.14"><defs><style>.cls-1{fill:#fff;}</style></defs><g id="Layer_2" data-name="Layer 2"><g id="Layer_1-2" data-name="Layer 1"><path class="cls-1" d="M108.88,109.94c-2,.32-107.53.23-108.74-.09,0-.45-.09-1-.09-1.46Q0,93,0,77.62V45c0-.61,0-1.23,0-1.84a7,7,0,0,1,6.88-6.85c8.18,0,16.35,0,24.53,0,3,0,5.95,0,8.93,0a9.07,9.07,0,0,1,8.49,5.12,25.64,25.64,0,0,0,1.82,2.86,8.38,8.38,0,0,0,7,3.35c5.81.06,11.62,0,17.43,0,8.94,0,17.87.09,26.8,0A7.23,7.23,0,0,1,109,54.78c-.09,7.42,0,14.84,0,22.26q0,15.6,0,31.19C109,108.78,108.91,109.33,108.88,109.94ZM29.57,83.6c-2.5-2.81-4.8-5.4-7.19-8.07-2.08,1-4.06,1.84-6,2.76a4,4,0,0,0-.8.58,6.32,6.32,0,0,0-2.14,4.48c-.45,3.41-.9,6.82-1.33,10.24-.2,1.63-.38,3.26-.58,5,3.07.19,6,.07,9,.09s6.05,0,9.07,0,6,0,8.93,0,6,.14,9.1-.11c-.12-1.1-.21-2-.33-3-.52-4.12-1.13-8.23-1.56-12.36a6.59,6.59,0,0,0-4.09-5.66c-1.16-.53-2.35-1-3.53-1.48-.47-.19-1-.33-1.48-.5Zm9.6-20.39c-.11-5.51-4.06-9.74-9.68-9.76A9.58,9.58,0,1,0,29.7,72.6,9.58,9.58,0,0,0,39.17,63.21ZM58,78.45c-.07,2.3-.06,4.39,0,6.66H77.83c3.26,0,6.52,0,9.77,0s6.57.1,10-.09c0-2.29.09-4.38,0-6.57ZM83.37,64.94c-2.15-.35-24.19-.25-25.38.12a51.54,51.54,0,0,0,.07,6.43c8.46,0,16.8,0,25.29,0C83.42,69.2,83.44,67.1,83.37,64.94ZM97.48,92.13c-1.94-.29-20.76-.19-21.76.08a18.08,18.08,0,0,0,.11,6.37c1.88.29,20.52.21,21.65-.12ZM68.42,98.65A19.64,19.64,0,0,0,68.34,92c-3.38,0-6.79-.07-10.15,0a19,19,0,0,0,.06,6.63Z"/><path class="cls-1" d="M109,42.71c-1.24-.45-2.2-.87-3.19-1.15a17.51,17.51,0,0,0-4.9-.61c-14.13,0-28.25,0-42.38,0A3.49,3.49,0,0,1,55,38.83a16.12,16.12,0,0,0-7.77-7.75,15.42,15.42,0,0,0-6.59-1.44c-11.25,0-22.49,0-33.74,0a15.26,15.26,0,0,0-5.37,1.16l-1.34.49A11.94,11.94,0,0,1,0,30c0-1.61,0-3.21,0-4.82a6.9,6.9,0,0,1,7-7c6.67.05,13.33,0,20,0,4.49,0,9,0,13.47,0a8.86,8.86,0,0,1,8,4.42q.53.83,1,1.71a9.1,9.1,0,0,0,8.6,5.21c6.14,0,12.28,0,18.42,0,8.46,0,16.92.09,25.38,0A7.1,7.1,0,0,1,109,36.62C109,38.59,109,40.57,109,42.71Z"/><path class="cls-1" d="M0,13.16V11C0,9.61,0,8.24,0,6.87A6.77,6.77,0,0,1,6.84,0C11,0,15.25,0,19.45,0c6.9,0,13.8,0,20.7,0a9.2,9.2,0,0,1,8.69,5,14.62,14.62,0,0,0,2.83,4,9.37,9.37,0,0,0,6.53,2.28c6.52,0,13,0,19.56,0h24.37a6.47,6.47,0,0,1,5.79,3.22,6.57,6.57,0,0,1,1,2.9c.16,2.06.06,4.15,0,6.23a3.44,3.44,0,0,1-.19.73c-.42-.15-.77-.26-1.11-.39a17.1,17.1,0,0,0-6.36-1.23c-14.31,0-28.63,0-42.94,0a3.28,3.28,0,0,1-3.34-2.06,16.9,16.9,0,0,0-5.28-6.37,15.49,15.49,0,0,0-9.31-2.93q-14.88,0-29.76,0a40.06,40.06,0,0,0-5.37.2A32.61,32.61,0,0,0,1,12.87Z"/></g></g></svg>