<svg xmlns="http://www.w3.org/2000/svg" viewBox="0 0 128.07 150.79"><defs><style>.cls-1{fill:#fff;}</style></defs><g id="Layer_2" data-name="Layer 2"><g id="Layer_1-2" data-name="Layer 1"><path class="cls-1" d="M53.58,48.53c2.28,0,4.57,0,6.86,0a3.5,3.5,0,0,1,3.27,2.66,3.45,3.45,0,0,1-2.31,4,5.19,5.19,0,0,1-1.3.21c-.88,0-1.76,0-2.65,0-.51,0-.54,0-.55.53v2.79c0,.4.08.48.5.53a28.41,28.41,0,0,1,7.2,1.88,29.7,29.7,0,0,1,7.59,4.46,26.76,26.76,0,0,1,3.62,3.52,29.7,29.7,0,0,1,4,5.92,26.78,26.78,0,0,1,2.1,5.46c.25,1,.5,2,.68,3A28.09,28.09,0,0,1,83,90.26a29.75,29.75,0,0,1-3.74,12.82,30.09,30.09,0,0,1-8,9.27,29,29,0,0,1-7.11,4,30.61,30.61,0,0,1-12.77,2.05,30.4,30.4,0,0,1-12.85-3.81,20.61,20.61,0,0,1-3.34-2.22,3.44,3.44,0,0,1,4.41-5.27,27.32,27.32,0,0,0,3.6,2.33A23.41,23.41,0,0,0,46.76,111a22.94,22.94,0,0,0,24-6.29A22.81,22.81,0,0,0,75,97.89a20.12,20.12,0,0,0,1.45-5.27,29.75,29.75,0,0,0,.29-3.76,22,22,0,0,0-.77-5.6,23.3,23.3,0,0,0-2.55-6A22.71,22.71,0,0,0,68,71.08,23.92,23.92,0,0,0,61,67.22a19.07,19.07,0,0,0-4.22-1c-1.11-.12-2.22-.24-3.34-.26a21.38,21.38,0,0,0-4.64.48,22.22,22.22,0,0,0-6.36,2.34c-1,.54-1.91,1.21-2.86,1.84a4.25,4.25,0,0,1-1.75.77,3.49,3.49,0,0,1-3.85-4,3.55,3.55,0,0,1,1.4-2.23,29.19,29.19,0,0,1,6.69-3.88,31.24,31.24,0,0,1,5.27-1.64c.72-.16,1.46-.24,2.19-.34.4-.06.5-.13.5-.54q0-1.44,0-2.88c0-.38-.06-.44-.45-.44-1,0-2.05,0-3.07,0a3.65,3.65,0,0,1-3.19-2.35,3.49,3.49,0,0,1,2.37-4.39,6.26,6.26,0,0,1,1.3-.18Z"/><path class="cls-1" d="M47.29,88.87A6.14,6.14,0,0,1,51.58,83a5.9,5.9,0,0,1,2.24-.27,1.27,1.27,0,0,0,.91-.31q4-3.25,8.06-6.49a2.51,2.51,0,0,1,3.29,0,2.48,2.48,0,0,1,.38,3.34c-.66.92-1.38,1.8-2.09,2.68-1.49,1.86-3,3.72-4.48,5.56a1.3,1.3,0,0,0-.33,1,6.17,6.17,0,0,1-6.36,6.47,5.93,5.93,0,0,1-4.33-2A5.77,5.77,0,0,1,47.29,88.87Z"/><path class="cls-1" d="M0,83.57C0,65.28.12,47,0,28.7,0,23,5.19,16.19,12.52,16.2q31.79,0,63.56,0a14.05,14.05,0,0,1,10.59,4.6c4.08,4.27,8.2,8.5,12.29,12.75q2.66,2.76,5.27,5.57A13.58,13.58,0,0,1,108,48.82q-.07,35.45,0,70.89,0,9.37,0,18.74c0,5.3-2.74,8.85-7.29,11.17a11.18,11.18,0,0,1-5.27,1.13c-27.55,0-55.09-.06-82.64,0C7.45,150.81,1.54,147,.25,141a9.2,9.2,0,0,1-.2-2q0-27.68,0-55.37Zm6.35,0v38.51c0,5.16,0,10.33,0,15.5,0,3.65,2.1,6.25,5.53,6.6,1,.09,1.92.2,2.88.2H56q18.92,0,37.82,0a13.07,13.07,0,0,0,3.36-.44c2.74-.73,4.38-3.15,4.39-6.37,0-8.4,0-16.81,0-25.21q0-29.31,0-58.61a6,6,0,0,0-.31-2,5.74,5.74,0,0,0-5.78-3.93c-3.29,0-6.59,0-9.88,0-4.45,0-7.2-2.8-7.2-7.26,0-3.58,0-7.15,0-10.73a19.18,19.18,0,0,0-.34-3.38,4.75,4.75,0,0,0-4.72-3.87c-1.64,0-3.29,0-4.94,0q-27.26,0-54.52,0a10.75,10.75,0,0,0-3.33.54c-2.7.92-4.18,3.41-4.18,6.75Z"/><path class="cls-1" d="M128.07,32.64a13.62,13.62,0,0,0-3.77-9.73q-2.61-2.81-5.27-5.56c-4.09-4.26-8.21-8.48-12.29-12.75A14,14,0,0,0,96.15,0Q64.36.06,32.59,0C25.26,0,20,6.77,20.07,12.52c0,1.22,0,2.44,0,3.67h6.38V13.71c0-3.34,1.48-5.83,4.18-6.75A10.46,10.46,0,0,1,34,6.42q27.27,0,54.52,0c1.65,0,3.3,0,4.94,0a4.73,4.73,0,0,1,4.72,3.87,19.16,19.16,0,0,1,.34,3.37c0,3.58,0,7.16,0,10.74,0,4.46,2.75,7.24,7.2,7.25,3.29,0,6.59,0,9.88,0a5.76,5.76,0,0,1,5.78,3.93,6.09,6.09,0,0,1,.31,2q0,29.31,0,58.61c0,8.41,0,16.81,0,25.22,0,3.21-1.66,5.63-4.39,6.37a13.06,13.06,0,0,1-3.36.43h-6q0,3.19,0,6.38h7.51a11.3,11.3,0,0,0,5.27-1.13c4.55-2.33,7.28-5.87,7.29-11.17q0-9.37,0-18.75Q128.05,68.09,128.07,32.64Z"/></g></g></svg>