<svg xmlns="http://www.w3.org/2000/svg" width="57.891" height="50" viewBox="0 0 57.891 50">
  <g id="组_10016" data-name="组 10016" transform="translate(-1012.526 -51.485)">
    <path id="路径_48719" data-name="路径 48719" d="M1070.355,105.294c.109.146.214.295.328.436a7.684,7.684,0,0,1,1.671,3.829,7.572,7.572,0,0,1-1.309,5.562,7.678,7.678,0,0,1-5.22,3.262,8.172,8.172,0,0,1-8.807-4.77,7.733,7.733,0,0,1-.634-3.835,7.529,7.529,0,0,1,1.826-4.356,7.942,7.942,0,0,1,2.689-2.041c.06-.028.115-.064.191-.108V103q-.008-7.074-.018-14.148c0-.083.006-.167,0-.25a2.019,2.019,0,0,1,.448-1.37c.7-.976,1.4-1.956,2.062-2.955a.562.562,0,0,1,.921-.06c.871,1.012,1.764,2,2.649,3,.089.1.18.2.271.295a1,1,0,0,1,.3.768c-.012.233,0,.467,0,.7a.754.754,0,0,1-.257.6c-.549.5-1.091,1.006-1.651,1.524l.721.723c.288.289.569.587.866.867a.579.579,0,0,1-.068.873c-.278.2-.524.435-.784.656l0,0c-.244.186-.488.372-.73.561-.09.071-.174.15-.276.238.052.045.09.085.134.116l1.631,1.16a.46.46,0,0,1,.049.809c-.5.44-1.017.863-1.526,1.294-.062.052-.119.11-.177.164.176.182.332.353.5.513q.784.755,1.576,1.5a.41.41,0,0,1,.128.333c0,.759,0,1.518,0,2.278v.261c.1.057.191.109.282.164l.963.579,0,0,.854.7,0,0,.4.4Zm-9.92,10.115.007.007a6.468,6.468,0,0,0,4.827,1.378,6.158,6.158,0,0,0,5.4-7.2,6.214,6.214,0,0,0-3.474-4.6,1.7,1.7,0,0,1-1-1.624c0-.509-.015-1.019.005-1.528a.773.773,0,0,0-.309-.737,3.406,3.406,0,0,1-.344-.328c-.373-.358-.749-.713-1.121-1.074a1.515,1.515,0,0,1-.47-1.174,1.586,1.586,0,0,1,.635-1.252c.188-.145.361-.31.563-.485l-.4-.276a1.777,1.777,0,0,1-.882-1.293,1.581,1.581,0,0,1,.529-1.413c.24-.218.506-.41.757-.615.067-.055.126-.119.222-.211-.256-.24-.49-.453-.716-.676a1.608,1.608,0,0,1-.422-.614,1.584,1.584,0,0,1,.386-1.752c.431-.43.89-.831,1.335-1.246.047-.043.084-.1.144-.164-.647-.733-1.284-1.452-1.925-2.162a.421.421,0,0,0-.071.05q-.654.933-1.307,1.866a.534.534,0,0,0-.1.352c.013.208.025.416.026.625q.006,1.978.006,3.956.006,5.034.008,10.067a1.561,1.561,0,0,1-.991,1.517,6.136,6.136,0,0,0-2.275,1.676,5.983,5.983,0,0,0-1.206,5.744A6.194,6.194,0,0,0,1060.435,115.409Z" transform="translate(-22.927 -17.012)" fill="#f15e5a"/>
    <path id="路径_48720" data-name="路径 48720" d="M1050.089,87.453c-.343,0-.686,0-1.028-.021a3.122,3.122,0,0,1-2.308-1.214,3.268,3.268,0,0,1-.744-2.114v-.763q.006-7.681,0-15.362a2.88,2.88,0,0,1,2.208-2.8,2.772,2.772,0,0,1,.6-.063l.809,0V63.9q0-2.193,0-4.387a7.754,7.754,0,0,1,1.969-5.154l.377-.436a.956.956,0,0,1,.12-.116,10.607,10.607,0,0,1,1.358-1.038,8.281,8.281,0,0,1,3.474-1.228c.328-.036.661-.053.991-.056l2.105,0a8.481,8.481,0,0,1,5.211,1.775c.171.128.332.269.493.412,0,0,.213.186.233.206a.844.844,0,0,1,.068.076l.272.327c.227.27.454.54.657.828a7.246,7.246,0,0,1,1.332,3.5c.06.612.061,1.217.062,1.8v.258q.007,1.827,0,3.654v.791l.815,0a2.788,2.788,0,0,1,1.967.832,2.758,2.758,0,0,1,.826,1.962q-.008,2.328,0,4.655v2.682a1.718,1.718,0,0,1-1.76,1.788,2.1,2.1,0,0,1-.242-.014,1.749,1.749,0,0,1-1.49-1.57c-.008-.108-.008-.216-.007-.324v-6.51h-3.733q-1.028,0-2.054,0a1.439,1.439,0,0,1-1.146-.517c-.26-.3-.527-.6-.794-.9l-.373-.419a1.3,1.3,0,0,1-.177-.28.99.99,0,0,1,.032-.886.942.942,0,0,1,.714-.485c.161-.013.317-.017.469-.017h3.454s0-3.891,0-5.347a4.478,4.478,0,0,0-1.236-3.208,4.66,4.66,0,0,0-2.821-1.484,9.794,9.794,0,0,0-1.114-.081c-.241-.007-.482-.009-.724-.009-.271,0-.544,0-.815.007a5.184,5.184,0,0,0-1.915.324A4.593,4.593,0,0,0,1053.2,58.9a5.044,5.044,0,0,0-.074.9q-.009,2.233,0,4.466V65.1h3.316a.934.934,0,0,1,.866,1.28,1.444,1.444,0,0,1-.173.366l-.925,1.337a1.182,1.182,0,0,1-.988.524h-5.7s0,15.3,0,15.33c.03,0,3.752,0,3.752,0a.934.934,0,0,1,.886.638,1,1,0,0,1-.277,1.061l-.365.3a7.665,7.665,0,0,0-1.094,1.041,1.241,1.241,0,0,1-.978.463Z" transform="translate(-17.512)" fill="#130f41"/>
    <path id="路径_48721" data-name="路径 48721" d="M1066.315,55.562c.3.369.621.721.894,1.108a6.315,6.315,0,0,1,1.166,3.051c.064.654.056,1.316.058,1.974.007,1.7,0,3.406,0,5.109v.25c.1.005.193.013.281.013.493,0,.985.006,1.478,0a1.9,1.9,0,0,1,1.85,1.858c-.008,2.446,0,4.892,0,7.337a.805.805,0,0,1-.96.849.815.815,0,0,1-.668-.713c-.009-.108,0-.217,0-.326q0-3.393,0-6.786c0-.059,0-.117,0-.175-.009-.294-.118-.407-.415-.408-.776,0-1.553,0-2.329,0-1.327,0-2.654,0-3.982,0a.512.512,0,0,1-.432-.191c-.386-.449-.783-.888-1.176-1.332a.662.662,0,0,1-.052-.1c.28-.023.541-.01.8-.012s.517,0,.776,0h3.189c.006-.11.013-.192.013-.273q0-3.005,0-6.01a5.424,5.424,0,0,0-1.49-3.846,5.618,5.618,0,0,0-3.367-1.768,10.751,10.751,0,0,0-1.22-.09c-.526-.015-1.052-.01-1.578,0a6.13,6.13,0,0,0-2.255.393,5.514,5.514,0,0,0-3.589,4.283,5.957,5.957,0,0,0-.09,1.07c-.008,1.986,0,3.973,0,5.96v.277h4.249a1.116,1.116,0,0,1-.075.185c-.307.447-.619.891-.926,1.338a.246.246,0,0,1-.23.118c-.133,0-.267,0-.4,0h-5.659c-.075,0-.151,0-.225,0a.328.328,0,0,0-.337.332c-.006.066,0,.133,0,.2V84.864c0,.772.266,1.037,1.04,1.038h3.649l.015.045-.359.295a8.5,8.5,0,0,0-1.228,1.174.308.308,0,0,1-.259.121c-.776,0-1.554.023-2.328-.014a2.2,2.2,0,0,1-1.629-.871,2.335,2.335,0,0,1-.536-1.524q.006-8.063,0-16.127a1.94,1.94,0,0,1,1.484-1.891,1.866,1.866,0,0,1,.4-.039c.476,0,.951,0,1.427,0h.306v-.314c0-2.07,0-4.14,0-6.211A6.815,6.815,0,0,1,1053.319,56l.376-.434,0,0a9.87,9.87,0,0,1,1.267-.974,7.312,7.312,0,0,1,3.084-1.094,8.954,8.954,0,0,1,.9-.051c.7-.008,1.4,0,2.1,0a7.485,7.485,0,0,1,4.646,1.588c.219.165.419.355.628.534Z" transform="translate(-18.536 -1.023)" fill="#130f41"/>
    <path id="路径_48722" data-name="路径 48722" d="M1086.905,118.706l-1.208.005a1.311,1.311,0,0,1-1.039-.454,8.018,8.018,0,0,0-1.377-1.242,1.242,1.242,0,0,1-.279-.3,1,1,0,0,1-.053-.985.932.932,0,0,1,.8-.518s3.943,0,3.974-.005c0-.025,0-1.829.005-2.215a1.718,1.718,0,0,1,1.751-1.739l.11,0a1.7,1.7,0,0,1,1.633,1.681l.007.54c.01.716.021,1.456-.019,2.2a3.134,3.134,0,0,1-1.609,2.57,3.242,3.242,0,0,1-1.713.47S1087.214,118.706,1086.905,118.706Z" transform="translate(-36.783 -31.263)" fill="#130f41"/>
    <path id="路径_48723" data-name="路径 48723" d="M1084.732,117.166h.318c1.186,0,2.371,0,3.556,0a2.149,2.149,0,0,0,.446-.042.672.672,0,0,0,.548-.551,2.077,2.077,0,0,0,.041-.421c0-.71,0-1.419,0-2.129a.787.787,0,0,1,.876-.812.77.77,0,0,1,.751.758c.009.893.036,1.788-.011,2.679a2.226,2.226,0,0,1-1.163,1.824,2.314,2.314,0,0,1-1.265.332c-.718-.01-1.436-.005-2.154,0a.391.391,0,0,1-.33-.134,8.9,8.9,0,0,0-1.538-1.389A.648.648,0,0,1,1084.732,117.166Z" transform="translate(-37.771 -32.287)" fill="#130f41"/>
    <path id="路径_48724" data-name="路径 48724" d="M1109.518,67.166a.817.817,0,0,1-1.058.8,2.793,2.793,0,0,1-.526-.223.824.824,0,0,1,.677-1.5,3.678,3.678,0,0,1,.521.238A.8.8,0,0,1,1109.518,67.166Z" transform="translate(-49.683 -7.693)" fill="#130f41"/>
    <path id="路径_48725" data-name="路径 48725" d="M1115.965,70.659a.835.835,0,0,1-1.187.841,2.457,2.457,0,0,1-.55-.385.834.834,0,0,1-.1-1.057.818.818,0,0,1,1.022-.271,3.008,3.008,0,0,1,.571.4A.67.67,0,0,1,1115.965,70.659Z" transform="translate(-53.075 -9.53)" fill="#130f41"/>
    <path id="路径_48726" data-name="路径 48726" d="M1121.59,129.053c0,.009,0,.017,0,.025a1.34,1.34,0,0,1-1.058,1.082.818.818,0,0,1-.777-1.174,1.345,1.345,0,0,1,.8-.74A.82.82,0,0,1,1121.59,129.053Z" transform="translate(-56.045 -40.138)" fill="#130f41"/>
    <path id="路径_48727" data-name="路径 48727" d="M1101.619,139.075a.827.827,0,0,1,.909.744.806.806,0,0,1-.6.871,3.041,3.041,0,0,1-.462.1.824.824,0,0,1-.955-.669.8.8,0,0,1,.629-.951C1101.327,139.126,1101.516,139.1,1101.619,139.075Z" transform="translate(-46.018 -45.819)" fill="#130f41"/>
    <path id="路径_48728" data-name="路径 48728" d="M1130.54,93.89a.789.789,0,0,1,.786.606,1.628,1.628,0,0,1,.081.785.825.825,0,0,1-.763.64.781.781,0,0,1-.811-.539,2.845,2.845,0,0,1-.126-.683A.8.8,0,0,1,1130.54,93.89Z" transform="translate(-61.297 -22.182)" fill="#130f41"/>
    <path id="路径_48729" data-name="路径 48729" d="M1102.469,64.989a.816.816,0,0,1-.964.818c-.147-.022-.294-.055-.438-.092a.831.831,0,0,1-.624-.9.792.792,0,0,1,.817-.718,2.443,2.443,0,0,1,.727.148A.737.737,0,0,1,1102.469,64.989Z" transform="translate(-45.987 -6.597)" fill="#130f41"/>
    <path id="路径_48730" data-name="路径 48730" d="M1126.109,123.27a1.4,1.4,0,0,1-.725.981.816.816,0,0,1-1.073-1.041,2.411,2.411,0,0,1,.414-.65.791.791,0,0,1,.924-.15A.876.876,0,0,1,1126.109,123.27Z" transform="translate(-58.442 -37.059)" fill="#130f41"/>
    <path id="路径_48731" data-name="路径 48731" d="M1115.994,133.924c0,.033,0,.067,0,.1a1.149,1.149,0,0,1-1.613.8.816.816,0,0,1-.093-1.26,2.694,2.694,0,0,1,.484-.351A.808.808,0,0,1,1115.994,133.924Z" transform="translate(-53.098 -42.692)" fill="#130f41"/>
    <path id="路径_48732" data-name="路径 48732" d="M1119.586,75.3a.829.829,0,0,1,.469-.742.761.761,0,0,1,.872.07,2.5,2.5,0,0,1,.5.555.791.791,0,0,1-.157,1,.823.823,0,0,1-1.039.059,2.649,2.649,0,0,1-.475-.51A1.758,1.758,0,0,1,1119.586,75.3Z" transform="translate(-56.003 -12.013)" fill="#130f41"/>
    <path id="路径_48733" data-name="路径 48733" d="M1128.473,117.71a.814.814,0,0,1-.79-1.084c.048-.142.1-.285.159-.421a.828.828,0,0,1,1.4-.205.8.8,0,0,1,.15.755,2.82,2.82,0,0,1-.2.512A.747.747,0,0,1,1128.473,117.71Z" transform="translate(-60.215 -33.59)" fill="#130f41"/>
    <path id="路径_48734" data-name="路径 48734" d="M1129.417,87.911a.848.848,0,0,1-.6.872.8.8,0,0,1-.922-.377,1.654,1.654,0,0,1-.257-.8.817.817,0,0,1,1.446-.521A1.82,1.82,0,0,1,1129.417,87.911Z" transform="translate(-60.214 -18.468)" fill="#130f41"/>
    <path id="路径_48735" data-name="路径 48735" d="M1129.738,109.652a4.182,4.182,0,0,1,.118-.539.809.809,0,0,1,.994-.5.82.82,0,0,1,.592.922,4.328,4.328,0,0,1-.09.466.833.833,0,0,1-.913.614A.86.86,0,0,1,1129.738,109.652Z" transform="translate(-61.313 -29.867)" fill="#130f41"/>
    <path id="路径_48736" data-name="路径 48736" d="M1124.527,81.813c-.051-.095-.1-.191-.152-.284a.847.847,0,0,1,.223-1.151.836.836,0,0,1,1.178.269c.061.089.122.178.178.271a.851.851,0,0,1,0,.943c-.03.049-.054.1-.081.153l0,0-.194.1a.81.81,0,0,1-1-.149c-.052-.053-.1-.1-.157-.157Z" transform="translate(-58.44 -15.041)" fill="#130f41"/>
    <path id="路径_48737" data-name="路径 48737" d="M1107.589,137.746a.783.783,0,0,1,.557-.785c.106-.047.213-.1.322-.134a.829.829,0,0,1,1.017,1.164.609.609,0,0,1-.226.259,3.544,3.544,0,0,1-.757.308A.777.777,0,0,1,1107.589,137.746Z" transform="translate(-49.724 -44.615)" fill="#130f41"/>
    <path id="路径_48738" data-name="路径 48738" d="M1132.11,102.246a2.561,2.561,0,0,1-.03.4.832.832,0,0,1-.864.615.818.818,0,0,1-.748-.774c-.008-.166-.008-.334,0-.5a.816.816,0,0,1,1.631.01c0,.083,0,.167,0,.25Z" transform="translate(-61.693 -26.01)" fill="#130f41"/>
    <path id="路径_48739" data-name="路径 48739" d="M1094.767,107.926a1.752,1.752,0,0,1-1.2-2.98,1.653,1.653,0,0,1,1.191-.526l.11,0a1.739,1.739,0,0,1,1.7,1.742,1.772,1.772,0,0,1-1.719,1.761Z" transform="translate(-42.131 -27.691)" fill="#130f41"/>
    <path id="路径_48740" data-name="路径 48740" d="M1095.857,106.382a.8.8,0,0,1,.806.834.837.837,0,0,1-.82.8.824.824,0,0,1-.82-.828A.815.815,0,0,1,1095.857,106.382Z" transform="translate(-43.155 -28.714)" fill="#130f41"/>
    <path id="路径_48741" data-name="路径 48741" d="M1099.327,90.956l-.01-.008.008.01Z" transform="translate(-45.401 -20.643)" fill="#130f41"/>
    <path id="路径_48742" data-name="路径 48742" d="M1098.489,91.8l-.008-.006.006.008Z" transform="translate(-44.963 -21.084)" fill="#130f41"/>
    <path id="路径_48743" data-name="路径 48743" d="M1083.088,124.369l.007-.009-.01.007Z" transform="translate(-36.91 -38.121)" fill="#130f41"/>
    <path id="路径_48744" data-name="路径 48744" d="M1124.826,83.536l-.006.009.008-.006Z" transform="translate(-58.741 -16.766)" fill="#130f41"/>
    <path id="路径_48745" data-name="路径 48745" d="M1077.729,103.473l.011.009-.009-.012Z" transform="translate(-34.108 -27.194)" fill="#130f41"/>
    <path id="路径_48746" data-name="路径 48746" d="M1086.449,57.88l.009-.011-.011.009Z" transform="translate(-38.668 -3.339)" fill="#130f41"/>
    <path id="路径_48747" data-name="路径 48747" d="M1059.973,57.877l-.011-.009.009.011Z" transform="translate(-24.814 -3.339)" fill="#130f41"/>
    <path id="路径_48748" data-name="路径 48748" d="M1127.667,83.959l0,0Z" transform="translate(-60.231 -16.986)" fill="#130f41"/>
    <path id="路径_48749" data-name="路径 48749" d="M1115.3,71.677l-.008.011.01-.009Z" transform="translate(-53.757 -10.562)" fill="#130f41"/>
    <path id="路径_48750" data-name="路径 48750" d="M1072.893,134.812a3.226,3.226,0,1,1-3.215-3.233A3.232,3.232,0,0,1,1072.893,134.812Zm-1.658.068a1.569,1.569,0,1,0-1.663,1.5A1.546,1.546,0,0,0,1071.235,134.88Z" transform="translate(-28.203 -41.897)" fill="#f15e5a"/>
    <path id="路径_48751" data-name="路径 48751" d="M1120.721,111.679l-.008-.015.015.008Z" transform="translate(-56.593 -31.479)" fill="#130f41"/>
    <path id="路径_48752" data-name="路径 48752" d="M1034.714,67.2a.817.817,0,0,0,1.058.8,2.783,2.783,0,0,0,.527-.223.824.824,0,0,0-.677-1.5,3.632,3.632,0,0,0-.522.238A.8.8,0,0,0,1034.714,67.2Z" transform="translate(-11.607 -7.712)" fill="#130f41"/>
    <path id="路径_48753" data-name="路径 48753" d="M1028.308,70.7a.835.835,0,0,0,1.187.84,2.44,2.44,0,0,0,.549-.385.834.834,0,0,0,.1-1.057.819.819,0,0,0-1.023-.27,2.969,2.969,0,0,0-.57.4A.67.67,0,0,0,1028.308,70.7Z" transform="translate(-8.256 -9.549)" fill="#130f41"/>
    <path id="路径_48754" data-name="路径 48754" d="M1022.741,129.089v.025a1.342,1.342,0,0,0,1.058,1.082.818.818,0,0,0,.777-1.174,1.345,1.345,0,0,0-.8-.74A.82.82,0,0,0,1022.741,129.089Z" transform="translate(-5.343 -40.157)" fill="#130f41"/>
    <path id="路径_48755" data-name="路径 48755" d="M1042.59,139.112a.827.827,0,0,0-.909.744.805.805,0,0,0,.6.87,3.048,3.048,0,0,0,.462.1.825.825,0,0,0,.955-.67.8.8,0,0,0-.629-.951C1042.881,139.163,1042.693,139.133,1042.59,139.112Z" transform="translate(-15.248 -45.838)" fill="#130f41"/>
    <path id="路径_48756" data-name="路径 48756" d="M1014.009,93.927a.789.789,0,0,0-.786.606,1.632,1.632,0,0,0-.08.785.823.823,0,0,0,.763.64.781.781,0,0,0,.811-.539,2.865,2.865,0,0,0,.126-.684A.8.8,0,0,0,1014.009,93.927Z" transform="translate(-0.311 -22.201)" fill="#130f41"/>
    <path id="路径_48757" data-name="路径 48757" d="M1041.744,65.026a.815.815,0,0,0,.964.818c.147-.023.294-.055.439-.092a.831.831,0,0,0,.624-.9.792.792,0,0,0-.817-.718,2.427,2.427,0,0,0-.727.148A.737.737,0,0,0,1041.744,65.026Z" transform="translate(-15.284 -6.617)" fill="#130f41"/>
    <path id="路径_48758" data-name="路径 48758" d="M1018.29,123.307a1.4,1.4,0,0,0,.725.981.816.816,0,0,0,1.073-1.041,2.423,2.423,0,0,0-.413-.65.79.79,0,0,0-.924-.15A.876.876,0,0,0,1018.29,123.307Z" transform="translate(-3.014 -37.078)" fill="#130f41"/>
    <path id="路径_48759" data-name="路径 48759" d="M1028.3,133.961c0,.033,0,.067,0,.1a1.149,1.149,0,0,0,1.613.8.816.816,0,0,0,.094-1.26,2.663,2.663,0,0,0-.485-.351A.807.807,0,0,0,1028.3,133.961Z" transform="translate(-8.249 -42.712)" fill="#130f41"/>
    <path id="路径_48760" data-name="路径 48760" d="M1024.715,75.332a.828.828,0,0,0-.468-.741.762.762,0,0,0-.872.07,2.507,2.507,0,0,0-.5.555.791.791,0,0,0,.157,1,.823.823,0,0,0,1.039.059,2.648,2.648,0,0,0,.474-.51A1.735,1.735,0,0,0,1024.715,75.332Z" transform="translate(-5.356 -12.032)" fill="#130f41"/>
    <path id="路径_48761" data-name="路径 48761" d="M1016,117.747a.814.814,0,0,0,.789-1.084c-.048-.142-.1-.284-.159-.421a.828.828,0,0,0-1.4-.2.8.8,0,0,0-.15.755,2.865,2.865,0,0,0,.2.512A.748.748,0,0,0,1016,117.747Z" transform="translate(-1.319 -33.609)" fill="#130f41"/>
    <path id="路径_48762" data-name="路径 48762" d="M1015.07,87.948a.85.85,0,0,0,.6.872.8.8,0,0,0,.922-.377,1.648,1.648,0,0,0,.257-.8.817.817,0,0,0-1.446-.521A1.83,1.83,0,0,0,1015.07,87.948Z" transform="translate(-1.331 -18.487)" fill="#130f41"/>
    <path id="路径_48763" data-name="路径 48763" d="M1014.821,109.689a4.23,4.23,0,0,0-.118-.539.81.81,0,0,0-.995-.5.82.82,0,0,0-.592.922,4.49,4.49,0,0,0,.089.466.834.834,0,0,0,.913.614A.86.86,0,0,0,1014.821,109.689Z" transform="translate(-0.303 -29.886)" fill="#130f41"/>
    <path id="路径_48764" data-name="路径 48764" d="M1019.881,81.85c.051-.095.1-.191.152-.284a.847.847,0,0,0-.223-1.151.835.835,0,0,0-1.177.269c-.061.09-.123.179-.178.271a.85.85,0,0,0,0,.942c.03.05.054.1.081.153l0,0,.194.1a.809.809,0,0,0,1-.149l.157-.156Z" transform="translate(-3.025 -15.06)" fill="#130f41"/>
    <path id="路径_48765" data-name="路径 48765" d="M1036.656,137.783a.784.784,0,0,0-.558-.785c-.107-.047-.213-.1-.322-.135a.829.829,0,0,0-1.017,1.165.609.609,0,0,0,.225.259,3.549,3.549,0,0,0,.757.308A.777.777,0,0,0,1036.656,137.783Z" transform="translate(-11.578 -44.634)" fill="#130f41"/>
    <path id="路径_48766" data-name="路径 48766" d="M1012.526,102.283a2.49,2.49,0,0,0,.03.4.831.831,0,0,0,.863.614.817.817,0,0,0,.748-.773c.008-.166.008-.334,0-.5a.816.816,0,0,0-1.631.01c0,.083,0,.167,0,.25Z" transform="translate(0 -26.029)" fill="#130f41"/>
    <path id="路径_48767" data-name="路径 48767" d="M1021.606,83.573l.006.009-.008-.006Z" transform="translate(-4.749 -16.785)" fill="#130f41"/>
    <path id="路径_48768" data-name="路径 48768" d="M1018.772,84l0,0Z" transform="translate(-3.266 -17.006)" fill="#130f41"/>
    <path id="路径_48769" data-name="路径 48769" d="M1031.13,71.713l.008.011-.011-.009Z" transform="translate(-9.731 -10.581)" fill="#130f41"/>
    <path id="路径_48770" data-name="路径 48770" d="M1025.7,111.715l.008-.015-.015.008Z" transform="translate(-6.89 -31.499)" fill="#130f41"/>
  </g>
</svg>
