<svg xmlns="http://www.w3.org/2000/svg" viewBox="0 0 405.22 279.7"><defs><style>.cls-1,.cls-2,.cls-3{fill:#231f20;}.cls-1{opacity:0.8;}.cls-3{opacity:0.6;}</style></defs><g id="Layer_2" data-name="Layer 2"><g id="Layer_1-2" data-name="Layer 1"><path class="cls-1" d="M215.89,279.7H76.4a8.84,8.84,0,0,0,7.45-3.94l74.83-113.5,49,112.07A8.91,8.91,0,0,0,215.89,279.7Z"/><path class="cls-2" d="M158.68,162.26,83.85,275.76a9.06,9.06,0,0,1-15.75-1.43L0,118.44H91.66A73.06,73.06,0,0,1,158.68,162.26Z"/><path class="cls-3" d="M405.22,0,223.41,275.69a9,9,0,0,1-15.75-1.36l-49-112.07L240.46,38.31A85.14,85.14,0,0,1,311.63,0Z"/></g></g></svg>