<svg xmlns="http://www.w3.org/2000/svg" viewBox="0 0 51.947 60"><defs><style>.cls-1,.cls-2,.cls-3{fill:#fff;}.cls-1{opacity:0.6;}.cls-2{opacity:0.8;}</style></defs><g id="Layer_2" data-name="Layer 2"><g id="Layer_1-2" data-name="Layer 1"><path class="cls-1" d="M51.9.049C51.024,1.17,36.3,19.577,11.66,18.321v30.7l-.874-.677-.111-.086A26.013,26.013,0,0,1,.579,29.28L0,19.922V.012C6.415,5.454,15.674,8.865,25.968,8.865,36.236,8.865,45.471,5.454,51.9.049Z"/><path class="cls-2" d="M51.947,0s-5.22,24.5-25.979,28.837V60L11.66,49.017v-30.7C36.3,19.577,51.024,1.17,51.9.049Z"/><path class="cls-3" d="M51.947,0V19.676l-.6,9.6a25.929,25.929,0,0,1-10.1,18.974L25.968,60V28.837C46.727,24.5,51.947,0,51.947,0Z"/></g></g></svg>