<svg xmlns="http://www.w3.org/2000/svg" viewBox="0 0 85.308 80"><defs><style>.cls-1{fill:#2b2b2b;}</style></defs><g id="Layer_2" data-name="Layer 2"><g id="Layer_1-2" data-name="Layer 1"><path class="cls-1" d="M85.308,33.622A93.684,93.684,0,0,0,63.563,47.084v0q-2.252,1.827-4.372,3.713c-3.091,2.735-5.952,5.528-8.561,8.247A156.285,156.285,0,0,0,33.654,80l-.006,0-19-19,1.38-1.647L27.551,45.625l6.134,6.134A144.765,144.765,0,0,1,66.261,37.137q.519-.158,1.036-.3A86.8,86.8,0,0,1,85.308,33.622Z"/><path class="cls-1" d="M26.153,30.868a1.307,1.307,0,0,1-1.135-1.954,10.49,10.49,0,0,1,9.1-5.291,1.308,1.308,0,0,1,0,2.615,7.868,7.868,0,0,0-6.823,3.97A1.307,1.307,0,0,1,26.153,30.868Z"/><path class="cls-1" d="M66.052,28.555c-1.276-.471-2.531-.926-3.765-1.428A6.847,6.847,0,0,1,58,22.059a7.819,7.819,0,0,1,.853-4.973c.434-1,.9-1.982,1.286-2.8.147-.309.283-.6.4-.853-2.38-2.358-4.519-4.471-6.71-6.636q-.4.165-.816.345c-1.48.638-3.1,1.38-4.769,1.93a6.3,6.3,0,0,1-7.029-2.3,16.519,16.519,0,0,1-1.595-3.154c-.335-.8-.628-1.606-.916-2.406C38.554.805,38.408.4,38.261,0H29.02c-.152.408-.3.816-.444,1.218-.461,1.256-.9,2.469-1.381,3.667a6.89,6.89,0,0,1-4.822,4.3,6.84,6.84,0,0,1-4.613-.518c-1.14-.486-2.269-1-3.436-1.543q-.642-.29-1.307-.6C11.882,7.646,10.8,8.692,9.738,9.759S7.63,11.9,6.542,13.012q.306.659.612,1.286c.481,1.01.942,1.967,1.36,2.945,2,4.722.528,8.3-4.21,10.182-1,.4-2.019.722-3.044,1.046-.418.131-.842.261-1.26.4v9.5c.418.152.842.3,1.266.445A42.574,42.574,0,0,1,5.727,40.51,6,6,0,0,1,9.34,46.388,16.049,16.049,0,0,1,8.1,50.9a18.489,18.489,0,0,1-.921,2.077c-.146.287-.272.544-.361.732C7.949,54.86,9.021,55.943,10.062,57l.267-.319L23.288,41.237a12.859,12.859,0,1,1,19.774,1.145l-.654.654a12.854,12.854,0,0,1-14.459,2.113l-.4.476,6.134,6.134A144.765,144.765,0,0,1,66.261,37.137q.519-.158,1.036-.3V29.015C66.878,28.858,66.465,28.706,66.052,28.555Z"/></g></g></svg>