<svg xmlns="http://www.w3.org/2000/svg" viewBox="0 0 218.98 270"><defs><style>.cls-1{fill:#212121;}</style></defs><g id="Layer_2" data-name="Layer 2"><g id="Layer_1-2" data-name="Layer 1"><path class="cls-1" d="M109.49,117.86A149,149,0,0,0,182,99.29a137.87,137.87,0,0,1-4.27,29.2,172.55,172.55,0,0,1-68.19,13.81,175.71,175.71,0,0,1-68.31-13.81A166.48,166.48,0,0,1,37,99.29,149.36,149.36,0,0,0,109.49,117.86Z"/><path class="cls-1" d="M219,88.17v2.08a201.79,201.79,0,0,1-103.5,176.33l-6,3.42-5.87-3.42A201.91,201.91,0,0,1,0,90.25V88.17H24.44v3.42a177.41,177.41,0,0,0,85.05,150.18,177.58,177.58,0,0,0,82.24-120,176.73,176.73,0,0,0,2.81-30.18V88.17Z"/><path class="cls-1" d="M109.56,103.68A51.84,51.84,0,1,1,161.4,51.84,51.89,51.89,0,0,1,109.56,103.68Zm0-79.24A27.4,27.4,0,1,0,137,51.84,27.43,27.43,0,0,0,109.56,24.44Z"/></g></g></svg>