<svg xmlns="http://www.w3.org/2000/svg" viewBox="0 0 200 134.1"><defs><style>.cls-1{fill:#fff;}</style></defs><g id="Layer_2" data-name="Layer 2"><g id="Layer_1-2" data-name="Layer 1"><path class="cls-1" d="M24.77,23.12C31.87,30.76,39,38.37,46.25,45.87c5.5,5.69,11.16,11.22,16.81,16.76A254,254,0,0,0,84.84,81.92,63.25,63.25,0,0,0,93,87.59c6.09,3.34,12.13,2.83,17.81-1.15a113,113,0,0,0,13-11.06C131,68.45,138.05,61.28,144.9,54c3.62-3.86,7.26-7.7,10.83-11.59q10-10.87,19.94-21.8L192.42,2.23c.19-.21.33-.45.56-.75-.53-.23-.95-.44-1.39-.6a16.07,16.07,0,0,0-5.8-.88H14.86a12.74,12.74,0,0,0-4.41.71,10.87,10.87,0,0,0-4,2.17c.45.53.8,1,1.16,1.36C13.33,10.55,19,16.89,24.77,23.12Z"/><path class="cls-1" d="M169.47,116.46c-6.85-5.22-13.61-10.55-20.37-15.87s-13.43-10.65-20.15-16c-.27-.21-.58-.39-.86-.58-.29.24-.49.4-.67.57a135.27,135.27,0,0,1-10.57,8.85,25.94,25.94,0,0,1-29.16,1.77A106.12,106.12,0,0,1,75.2,86c-.93-.75-1.84-1.51-2.78-2.28-22,15.67-43.65,31.67-65.08,47.9.08.18.09.27.14.3a4.81,4.81,0,0,0,.55.37,14.86,14.86,0,0,0,7.34,1.8h164.4c2.37,0,4.75.07,7.11,0a31.88,31.88,0,0,0,4.09-.64c.21,0,.39-.22.68-.39l-1-.74C183.62,127,176.49,121.81,169.47,116.46Z"/><path class="cls-1" d="M200,13.53c-.17-1.33-.44-2.65-.69-4a3.15,3.15,0,0,0-.43-.77c-.31.37-.54.65-.78.92l-3.16,3.48Q184.6,24.47,174.31,35.74c-6,6.5-11.9,13-17.95,19.46s-12.06,12.59-18.1,18.87c-1.08,1.12-2.2,2.22-3.38,3.41.3.28.47.46.67.62,11.65,9.19,23.23,18.47,35,27.54,8.88,6.87,18,13.47,27,20.19.27.21.58.37.92.59.19-.38.34-.63.45-.89a14.87,14.87,0,0,0,1.11-6q0-51.81,0-103.63A19.2,19.2,0,0,0,200,13.53Z"/><path class="cls-1" d="M.6,10.23A11.72,11.72,0,0,0,0,14.1Q0,67,0,119.9a25.52,25.52,0,0,0,.47,3.78,7.79,7.79,0,0,0,.45,1.25c21.31-16.16,42.69-32,64.4-47.47C42.42,56.27,21.53,33.39.6,10.23Z"/></g></g></svg>