<svg xmlns="http://www.w3.org/2000/svg" viewBox="0 0 200.05 134.13"><g id="Layer_2" data-name="Layer 2"><g id="Layer_1-2" data-name="Layer 1"><g id="Layer_2-2" data-name="Layer 2"><g id="Layer_1-2-2" data-name="Layer 1-2"><path d="M24.77,23.13C31.87,30.77,39,38.38,46.25,45.88c5.5,5.69,11.16,11.22,16.81,16.76A255.47,255.47,0,0,0,84.84,81.93,63.56,63.56,0,0,0,93,87.6c6.09,3.34,12.13,2.83,17.81-1.15a112.35,112.35,0,0,0,13-11.06C131,68.46,138.05,61.29,144.9,54c3.62-3.86,7.26-7.7,10.83-11.59q10-10.87,19.94-21.8L192.42,2.24c.19-.21.33-.45.56-.75-.53-.23-.95-.44-1.39-.6a15.89,15.89,0,0,0-5.8-.88H14.86a12.51,12.51,0,0,0-4.41.71,10.84,10.84,0,0,0-4,2.17c.45.53.8,1,1.16,1.36C13.33,10.56,19,16.9,24.77,23.13Z"/><path d="M169.47,116.47c-6.85-5.22-13.61-10.55-20.37-15.87S135.67,90,129,84.6c-.27-.21-.58-.39-.86-.58-.29.24-.49.4-.67.57a135.27,135.27,0,0,1-10.57,8.85,25.93,25.93,0,0,1-29.16,1.77A106,106,0,0,1,75.2,86c-.93-.75-1.84-1.51-2.78-2.28q-33,23.51-65.08,47.9c.08.18.09.27.14.3a6.61,6.61,0,0,0,.55.37,14.92,14.92,0,0,0,7.34,1.8h164.4c2.37,0,4.75.07,7.11,0a33.13,33.13,0,0,0,4.09-.64c.21,0,.39-.22.68-.39l-1-.74C183.62,127,176.49,121.82,169.47,116.47Z"/><path d="M200,13.54c-.17-1.33-.44-2.65-.69-4a3,3,0,0,0-.43-.77c-.31.37-.54.65-.78.92l-3.16,3.48L174.31,35.75c-6,6.5-11.9,13-17.95,19.46S144.3,67.8,138.26,74.08c-1.08,1.12-2.2,2.22-3.38,3.41.3.28.47.46.67.62,11.65,9.19,23.23,18.47,35,27.54,8.88,6.87,18,13.47,27,20.19.27.21.58.37.92.59.19-.38.34-.63.45-.89a14.87,14.87,0,0,0,1.11-6V15.91A18.75,18.75,0,0,0,200,13.54Z"/><path d="M.6,10.24A11.82,11.82,0,0,0,0,14.11v105.8a25.36,25.36,0,0,0,.47,3.78,8.84,8.84,0,0,0,.45,1.25c21.31-16.16,42.69-32,64.4-47.47C42.42,56.28,21.53,33.4.6,10.24Z"/></g></g></g></g></svg>