<svg xmlns="http://www.w3.org/2000/svg" viewBox="0 0 200 199.98"><g id="Layer_2" data-name="Layer 2"><g id="Layer_1-2" data-name="Layer 1"><g id="Layer_2-2" data-name="Layer 2"><g id="Layer_1-2-2" data-name="Layer 1-2"><path d="M200,196.62c0,3.35,0,3.36-3.37,3.36h-33c-3.54,0-3.55,0-3.55-3.44V133.62c0-6.85-.35-13.66-2.67-20.18-2.63-7.36-7.52-12.26-15.47-13.54-16.34-2.63-27.19,5.56-29.11,22a104.58,104.58,0,0,0-.69,11.87c-.07,20.67,0,41.34,0,62v3.95c-1.23.1-2,.21-2.82.21-11,0-22-.05-33,0-2.28,0-3-.66-3-2.94q.08-63.54,0-127.07c0-3.16,0-3.19,3.28-3.2h30.55c3.11,0,3.12,0,3.13,3.31V81.69c0,.86.13,1.72.21,2.79.53-.32.86-.4,1-.61,5.78-9.36,14.73-13.77,25.06-15.78a74.32,74.32,0,0,1,33.3,1c13,3.38,21.65,11.61,25.89,24.41a75.11,75.11,0,0,1,3.7,21.28c.31,9.25.43,18.52.46,27.78C200,160.58,200,178.6,200,196.62Z"/><path d="M46.43,22.76A23,23,0,0,1,24.1,46.41h-.48A23.21,23.21,0,1,1,46.43,22.76Z"/><path d="M46.45,133.29v62.88c0,3.81,0,3.81-3.86,3.81H3.2C0,200,0,200,0,196.77V70.09c0-3.23,0-3.27,3.19-3.28H42.87c3.51,0,3.57,0,3.57,3.6Q46.47,101.85,46.45,133.29Z"/></g></g></g></g></svg>