<svg xmlns="http://www.w3.org/2000/svg" viewBox="0 0 200 200.02"><defs><style>.cls-1{fill:#fff;}</style></defs><g id="Layer_2" data-name="Layer 2"><g id="Layer_1-2" data-name="Layer 1"><path class="cls-1" d="M200,196.61c0,3.35,0,3.36-3.37,3.36h-33c-3.54,0-3.55,0-3.55-3.44q0-31.47,0-62.92c0-6.85-.35-13.66-2.67-20.18-2.63-7.36-7.52-12.26-15.47-13.54-16.34-2.63-27.19,5.56-29.11,22a104.58,104.58,0,0,0-.69,11.87c-.07,20.67,0,41.34,0,62v3.95c-1.23.1-2,.21-2.82.21-11,0-22-.05-33,.05-2.28,0-3-.66-3-2.94q.07-63.54,0-127.07c0-3.16,0-3.19,3.28-3.2q15.28,0,30.55,0c3.11,0,3.12,0,3.13,3.31,0,3.87,0,7.74,0,11.61,0,.86.13,1.72.21,2.79.53-.32.86-.4,1-.61,5.78-9.36,14.73-13.77,25.06-15.78a74.46,74.46,0,0,1,33.3,1c13,3.38,21.65,11.61,25.89,24.41a75.23,75.23,0,0,1,3.7,21.28c.31,9.25.43,18.52.46,27.78C200,160.57,200,178.59,200,196.61Z"/><path class="cls-1" d="M46.43,22.75A23,23,0,0,1,23.62,46.41,23.21,23.21,0,1,1,46.43,22.75Z"/><path class="cls-1" d="M46.45,133.28q0,31.44,0,62.88c0,3.81,0,3.81-3.86,3.81H3.2C0,200,0,200,0,196.76V70.08c0-3.23,0-3.27,3.19-3.28H42.87c3.51,0,3.57,0,3.57,3.6Q46.47,101.84,46.45,133.28Z"/></g></g></svg>