<svg xmlns="http://www.w3.org/2000/svg" viewBox="0 0 200 158.36"><defs><style>.cls-1{fill:#fff;}</style></defs><g id="Layer_2" data-name="Layer 2"><g id="Layer_1-2" data-name="Layer 1"><path class="cls-1" d="M59.76,157.91H.15a5.26,5.26,0,0,1,1.21-4.86c6.72-8,13.32-16.07,20-24.11a10.38,10.38,0,0,0,2.48-7.9c-.08-.82-.08-1.64-.08-2.46q0-43.36,0-86.74a8.21,8.21,0,0,0-2-5.42C15.63,19,9.43,11.68,3.38,4.21,2.7,3.38,2.79,1.9,2.62.72c0-.19.46-.56.75-.63A6,6,0,0,1,4.84,0q26.9,0,53.78,0a2.49,2.49,0,0,1,2.66,1.75q21.66,47.55,43.4,95.06c.15.33.34.64.67,1.24.9-2.22,1.7-4.16,2.49-6.11Q126,46.75,144.15,1.52A2,2,0,0,1,146.26,0C163.64.05,181,0,198.4,0c.48,0,.95.07,1.45.11a4.51,4.51,0,0,1-1.39,4.72c-4.84,4.42-9.48,9.05-14.26,13.55a5.76,5.76,0,0,0-2,4.77c.13,3.11.05,6.23.05,9.34,0,33.67,0,67.34-.07,101a9.39,9.39,0,0,0,3.26,7.72c4.29,3.88,8.25,8.13,12.49,12.08a4.74,4.74,0,0,1,1.51,5h-1.81q-37,0-74.11,0c-.74,0-2.06-.21-2.12-.52-.22-1.16-.54-2.42.58-3.5,4.71-4.49,9.28-9.12,14.06-13.52a8.66,8.66,0,0,0,3-7c-.09-29-.06-57.94-.06-86.9V45.24l-.3-.13c-.25.52-.54,1-.75,1.56Q127.73,72.49,117.56,98.3q-11.52,29.17-23,58.34a1.92,1.92,0,0,1-2.12,1.48c-4.48-.05-4.47,0-6.36-4.13Q61.29,100,36.51,46.06a2.43,2.43,0,0,0-.93-1.1v1.67q0,35.5,0,71c0,1.25,0,2.51-.08,3.77a10.65,10.65,0,0,0,2.56,7.4c6.91,8.33,13.84,16.64,20.64,25.06C59.45,154.8,59.39,156.4,59.76,157.91Z"/></g></g></svg>