<svg xmlns="http://www.w3.org/2000/svg" viewBox="0 0 200.06 158.31"><g id="Layer_2" data-name="Layer 2"><g id="Layer_1-2" data-name="Layer 1"><g id="Layer_2-2" data-name="Layer 2"><g id="Layer_1-2-2" data-name="Layer 1-2"><path d="M59.78,157.93H.17a5.24,5.24,0,0,1,1.21-4.86c6.72-8,13.32-16.07,20-24.11a10.44,10.44,0,0,0,2.48-7.9c-.08-.82-.08-1.64-.08-2.46V31.86a8.22,8.22,0,0,0-2-5.42C15.65,19,9.45,11.7,3.4,4.23,2.72,3.4,2.81,1.92,2.64.74c0-.19.46-.56.75-.63A6,6,0,0,1,4.86,0H58.64A2.48,2.48,0,0,1,61.3,1.77Q83,49.32,104.7,96.83c.15.33.34.64.67,1.24.9-2.22,1.7-4.16,2.49-6.11Q126,46.77,144.17,1.54A2,2,0,0,1,146.28,0C163.66.07,181,0,198.42,0c.48,0,1,.07,1.45.11a4.52,4.52,0,0,1-1.39,4.72C193.64,9.27,189,13.9,184.22,18.4a5.72,5.72,0,0,0-2,4.77c.13,3.11.05,6.23.05,9.34q0,50.51-.07,101a9.38,9.38,0,0,0,3.26,7.72c4.29,3.88,8.25,8.13,12.49,12.08a4.74,4.74,0,0,1,1.51,5H123.54c-.74,0-2.06-.21-2.12-.52-.22-1.16-.54-2.42.58-3.5,4.71-4.49,9.28-9.12,14.06-13.52a8.71,8.71,0,0,0,3-7c-.09-29-.06-57.94-.06-86.9V45.26l-.3-.13c-.25.52-.54,1-.75,1.56q-10.2,25.82-20.37,51.63-11.52,29.16-23,58.34a1.93,1.93,0,0,1-2.12,1.48c-4.48,0-4.47,0-6.36-4.13L36.53,46.08A2.44,2.44,0,0,0,35.6,45v72.67c0,1.25,0,2.51-.08,3.77a10.62,10.62,0,0,0,2.56,7.4c6.91,8.33,13.84,16.64,20.64,25.06C59.47,154.82,59.41,156.42,59.78,157.93Z"/></g></g></g></g></svg>