<svg xmlns="http://www.w3.org/2000/svg" viewBox="0 0 54.428 80"><defs><style>.cls-1{fill:#2b2b2b;}</style></defs><g id="Layer_2" data-name="Layer 2"><g id="Layer_1-2" data-name="Layer 1"><path class="cls-1" d="M54.386,43.773a4.235,4.235,0,0,1-.084-.51,5.883,5.883,0,0,0-1.614-2.99A5.945,5.945,0,1,0,47.343,50.31l.007,0c.116.011.23.033.345.055l.006,0a5.941,5.941,0,0,0,6.685-6.6Z"/><path class="cls-1" d="M33.969,63.194a5.945,5.945,0,1,0-6.959,7.047l.007,0c.116.011.23.033.345.055l.006,0a5.943,5.943,0,0,0,6.685-6.6A4.2,4.2,0,0,1,33.969,63.194Z"/><path class="cls-1" d="M24.475,10.616a4.643,4.643,0,0,1,.42.3,5.929,5.929,0,0,1,.178,9.185,5.934,5.934,0,0,0-2.834,4.57h0c-.014.16-.03.32-.032.483l0,.027h0l0,.029,0,.029h0a6.012,6.012,0,0,0,.054.8,5.693,5.693,0,0,0,.156.767,5.875,5.875,0,0,0,.59,1.408,6.025,6.025,0,0,0,2.1,2.127A5.929,5.929,0,0,1,26.531,37.5a5.963,5.963,0,0,1-1.7,2.045l-.006,0c-.091.075-.187.14-.283.206l-.007,0a5.931,5.931,0,0,0-2.332,4.72h0a5.946,5.946,0,0,0,11.891,0h0a5.924,5.924,0,0,0-2.2-4.615c-.105-.062-.2-.14-.3-.211s-.2-.134-.3-.212a5.873,5.873,0,0,1-.911-.918,5.931,5.931,0,0,1,.692-8.114A5.937,5.937,0,0,0,34.1,25.24h0v-.058h0c0-.041-.007-.08-.008-.12-.006-.131-.016-.26-.027-.39h0a5.932,5.932,0,0,0-2.941-4.636,5.941,5.941,0,0,1,.83-9.52,5.946,5.946,0,1,0-7.475.1Z"/><path class="cls-1" d="M42.249,49.509a4.847,4.847,0,0,1-.594-.423,5.919,5.919,0,0,1-2.2-4.615c0-.053.007-.1.009-.157,0-.08.008-.16.013-.239h0A5.919,5.919,0,0,1,41.6,39.9a5.751,5.751,0,0,1,.7-.5,5.946,5.946,0,1,0-7.475.1,4.653,4.653,0,0,1,.42.3,5.919,5.919,0,0,1,2.26,4.5c0,.057.009.114.009.171a5.916,5.916,0,0,1-.971,3.258,5.79,5.79,0,0,1-.4.538,5.98,5.98,0,0,1-.963.925l-.006,0c-.09.074-.186.14-.283.2l-.006,0a5.852,5.852,0,0,0-.507.436,6.017,6.017,0,0,0-1.825,4.284h0a5.98,5.98,0,0,0,.121,1.2,5.663,5.663,0,0,0,.146.57A5.949,5.949,0,0,0,34.3,58.327q.2.2.422.384a5.945,5.945,0,1,0,7.529-9.2Z"/><path class="cls-1" d="M10.978,60.6a5.9,5.9,0,0,0-1.286-1.447,4.576,4.576,0,0,1-.423-.3c-.055-.043-.117-.077-.171-.122a5.925,5.925,0,0,1-.91-.918,5.912,5.912,0,0,1-1.288-3.7c0-.11.012-.217.018-.325,0-.024,0-.048,0-.072h0a5.921,5.921,0,0,1,2.123-4.174,5.861,5.861,0,0,1,.7-.5,5.946,5.946,0,1,0-7.475.1,4.643,4.643,0,0,1,.42.3,5.912,5.912,0,0,1,2.25,4.338c.009.111.02.22.02.333A5.924,5.924,0,0,1,3.135,58.4a6.182,6.182,0,0,1-.507.435l-.007,0a3.337,3.337,0,0,1-.283.2l-.006,0c-.025.019-.047.042-.072.061A5.984,5.984,0,0,0,0,63.771H0a5.988,5.988,0,0,0,.121,1.2,5.8,5.8,0,0,0,.146.57,5.948,5.948,0,0,0,5.678,4.177h0a5.93,5.93,0,0,0,2.315-.467A6.026,6.026,0,0,0,9.269,68.7a5.948,5.948,0,0,0,1.709-8.1Z"/><path class="cls-1" d="M15.879,28.513a6.026,6.026,0,0,1-.4.538,5.937,5.937,0,0,1-.963.925l-.006,0c-.09.075-.187.14-.283.205l-.006,0a5.841,5.841,0,0,0-.507.435,5.929,5.929,0,0,0-.991,7.311,5.826,5.826,0,0,0,.437.64,6.013,6.013,0,0,0,.47.538,5.947,5.947,0,0,0,9.882-2.436,5.733,5.733,0,0,0,.146-.57,5.915,5.915,0,0,0,.121-1.2h0a5.979,5.979,0,0,0-.154-1.354,5.872,5.872,0,0,0-.441-1.244,6.38,6.38,0,0,0-1.6-2.017c-.1-.062-.2-.14-.3-.211s-.2-.134-.3-.212a5.915,5.915,0,0,1-2.2-4.614c0-.053.007-.105.008-.158,0-.079.009-.159.014-.239h0a5.921,5.921,0,0,1,2.123-4.174,5.861,5.861,0,0,1,.7-.5,5.946,5.946,0,1,0-7.475.1,4.324,4.324,0,0,1,.419.3,5.912,5.912,0,0,1,2.26,4.5c0,.057.01.113.01.171A5.913,5.913,0,0,1,15.879,28.513Z"/><path class="cls-1" d="M22.063,69.875a5.813,5.813,0,0,0-.48-.435,4.642,4.642,0,0,1-.594-.423,5.987,5.987,0,0,1-2.2-4.614c0-.057.007-.111.009-.167,0-.077.008-.153.013-.23h0a5.924,5.924,0,0,1,2.823-4.675,5.946,5.946,0,1,0-7.475.1,4.324,4.324,0,0,1,.419.3,5.914,5.914,0,0,1,2.261,4.508c0,.054.009.107.009.162a5.909,5.909,0,0,1-1.589,4.031,5.982,5.982,0,0,1-.743.689l-.006,0c-.09.075-.187.14-.283.2l-.006,0a5.841,5.841,0,0,0-.507.435,5.946,5.946,0,1,0,10.035,4.893q.03-.3.03-.608a5.912,5.912,0,0,0-1.718-4.18Z"/><path class="cls-1" d="M4.805,31.094l.006,0c.117.011.231.033.345.055l.007,0a5.941,5.941,0,0,0,6.684-6.6,4.4,4.4,0,0,1-.083-.51A5.944,5.944,0,1,0,1.742,29.465,5.909,5.909,0,0,0,4.805,31.094Z"/></g></g></svg>