<svg xmlns="http://www.w3.org/2000/svg" viewBox="0 0 184.69 200.03"><g id="Layer_2" data-name="Layer 2"><g id="Layer_1-2" data-name="Layer 1"><g id="Layer_2-2" data-name="Layer 2"><g id="Layer_1-2-2" data-name="Layer 1-2"><path d="M109.52,151.3c3.1-2.67,6.12-5.42,9.3-8,2.81-2.27,5.72-4.44,8.72-6.45a12,12,0,0,1,10.35-1.6c11.43,3.22,22.72,6.8,33.43,12,1.14.55,2.24,1.21,3.34,1.84a12.92,12.92,0,0,1,5.7,6.25c1.57,3.64,3.28,7.18,4,11.13a15.44,15.44,0,0,1-3.18,13c-5.31,6.54-11.29,12.39-18.61,16.71-1.55.92-3.19,1.7-4.83,2.47A13.83,13.83,0,0,1,152,200c-12,.36-23.59-1.86-35-5.22a153.29,153.29,0,0,1-50.85-26.16,170.3,170.3,0,0,1-30.3-30.4A172.7,172.7,0,0,1,11.54,95.3a175.25,175.25,0,0,1-10.16-38A138.12,138.12,0,0,1,.12,32.08,20,20,0,0,1,4,20.68,71.08,71.08,0,0,1,24.16,2.42C29.69-1,35.47-.52,41.08,2.15A75.37,75.37,0,0,1,50,7.49c2,1.35,2.94,3.62,3.85,5.78a107.67,107.67,0,0,1,6,20.43C61,39.4,62,45.13,63,50.87a10.81,10.81,0,0,1-1.7,8.27A28.13,28.13,0,0,1,58,63.41q-6,5.85-12.17,11.47C43.48,77,43.36,77,44.5,80a108.76,108.76,0,0,0,9.72,18.89,123.65,123.65,0,0,0,14.7,19.86c4.91,5.21,10,10.27,15.4,15,4.81,4.24,10,8.07,15.22,11.85,2.8,2,6,3.57,9,5.33A6.19,6.19,0,0,0,109.52,151.3Z"/></g></g></g></g></svg>