<svg xmlns="http://www.w3.org/2000/svg" viewBox="0 0 184.61 200"><defs><style>.cls-1{fill:#fff;}</style></defs><g id="Layer_2" data-name="Layer 2"><g id="Layer_1-2" data-name="Layer 1"><path class="cls-1" d="M109.5,151.31c3.1-2.67,6.12-5.42,9.3-8,2.81-2.27,5.72-4.44,8.72-6.45a12,12,0,0,1,10.35-1.6c11.43,3.22,22.72,6.8,33.43,12,1.14.55,2.24,1.21,3.34,1.84a12.9,12.9,0,0,1,5.7,6.25c1.57,3.64,3.28,7.18,4,11.13a15.49,15.49,0,0,1-3.18,13c-5.31,6.54-11.29,12.39-18.61,16.71-1.55.92-3.19,1.7-4.83,2.47A14,14,0,0,1,152,200c-12,.36-23.59-1.86-35-5.22a153.48,153.48,0,0,1-50.85-26.16,170.3,170.3,0,0,1-30.3-30.4A172.43,172.43,0,0,1,11.52,95.31a174.91,174.91,0,0,1-10.16-38A136.84,136.84,0,0,1,.1,32.09,20,20,0,0,1,4,20.69,70.92,70.92,0,0,1,24.14,2.43C29.67-1,35.45-.51,41.06,2.16A74.66,74.66,0,0,1,50,7.5c2,1.35,2.94,3.62,3.85,5.78A108.32,108.32,0,0,1,59.8,33.71C61,39.41,62,45.14,63,50.88a10.85,10.85,0,0,1-1.7,8.27,28.93,28.93,0,0,1-3.33,4.27Q52,69.26,45.8,74.89C43.46,77,43.34,77,44.48,80A108.69,108.69,0,0,0,54.2,98.89a123.8,123.8,0,0,0,14.7,19.86c4.91,5.21,10,10.27,15.4,15,4.81,4.24,10,8.07,15.22,11.85,2.8,2,6,3.57,9,5.33A6.4,6.4,0,0,0,109.5,151.31Z"/></g></g></svg>