<svg xmlns="http://www.w3.org/2000/svg" viewBox="0 0 67.245 80"><defs><style>.cls-1{fill:#fff;}</style></defs><g id="Layer_2" data-name="Layer 2"><g id="Layer_1-2" data-name="Layer 1"><path class="cls-1" d="M55.953,16.658a43.466,43.466,0,0,0-19.9,4.819A46.153,46.153,0,0,1,51.029,37.166a45.879,45.879,0,0,1,6.138,22.939c0,1.013-.032,2.024-.1,3.024l8-5.755,1.791-39.336A43.555,43.555,0,0,0,55.953,16.658Z"/><path class="cls-1" d="M34.24,55.18a46.061,46.061,0,0,1-26.8,5.977L33.622,80,54.47,65a44.346,44.346,0,0,0,.268-4.9A43.472,43.472,0,0,0,49.92,40.2,46.159,46.159,0,0,1,34.24,55.18Z"/><path class="cls-1" d="M0,9.476l2.18,47.9,1.07.771a43.849,43.849,0,0,0,8.043.745A43.532,43.532,0,0,0,31.2,54.072,45.886,45.886,0,0,1,10.078,15.444c0-1.22.048-2.437.145-3.634A27.447,27.447,0,0,1,0,9.476Z"/><path class="cls-1" d="M55.626,11.814A27.107,27.107,0,0,1,33.622,0,27.14,27.14,0,0,1,12.663,11.776c-.1,1.205-.156,2.434-.156,3.668a43.4,43.4,0,0,0,4.825,19.9A45.936,45.936,0,0,1,66.969,15.561l.276-6.085a27.461,27.461,0,0,1-11.1,2.349C55.971,11.825,55.8,11.824,55.626,11.814Z"/><circle class="cls-1" cx="33.623" cy="37.941" r="8.03"/></g></g></svg>