<svg xmlns="http://www.w3.org/2000/svg" viewBox="0 0 200 167.7"><defs><style>.cls-1{fill:#fff;}</style></defs><g id="Layer_2" data-name="Layer 2"><g id="Layer_1-2" data-name="Layer 1"><path class="cls-1" d="M75.06,157.35c.14-2.12.25-4,.38-5.84.2-2.62.43-5.23.62-7.84.33-4.82.64-9.64,1-14.46l.81-11.47c.16-2.2.28-4.4.52-6.6a2.7,2.7,0,0,1,.85-1.43c2.35-2.18,4.74-4.32,7.12-6.48L101.9,89.15l16.9-15.23,24.11-21.79,19.32-17.41c.71-.65,1.39-1.32,2.05-2,.45-.47.84-1.12.45-1.69a2.3,2.3,0,0,0-1.45-.77,6.79,6.79,0,0,0-4.51,1.16q-4.46,2.76-8.9,5.56Q137.06,45,124.26,53.08q-10.2,6.42-20.41,12.86L78.66,81.77,57.73,95c-1.38.87-2.77,1.7-4.12,2.61a2.11,2.11,0,0,1-2,.26C43.75,95.35,35.88,92.91,28,90.44L6.91,83.82a14.24,14.24,0,0,1-4.67-2.34A4.85,4.85,0,0,1,0,77.12a5.29,5.29,0,0,1,1.54-3.2A17.12,17.12,0,0,1,8,69.71c4.14-1.66,8.31-3.24,12.46-4.84l24.37-9.41L65,47.68l20.88-8Q105.82,32,125.76,24.33q12.36-4.75,24.71-9.55L178.82,3.9,186.27,1a13.36,13.36,0,0,1,5.87-1,8.39,8.39,0,0,1,7.57,7.17,22.58,22.58,0,0,1-.39,8.93q-2.88,13.5-5.77,27-4.68,22.13-9.35,44.25-4.11,19.42-8.24,38.85-3.26,15.35-6.53,30.67a19.94,19.94,0,0,1-2.45,6.64,8.14,8.14,0,0,1-9.08,4,15.56,15.56,0,0,1-6.36-2.79q-16-11.73-31.89-23.51-6-4.45-12.1-8.88c-.26-.19-.54-.36-.9-.6-.52.44-1,.84-1.51,1.29q-10.77,10.37-21.53,20.73a11.17,11.17,0,0,1-6.34,3.49C76.63,157.3,76,157.3,75.06,157.35Z"/></g></g></svg>
