<svg id="Layer_1" data-name="Layer 1" xmlns="http://www.w3.org/2000/svg" viewBox="0 0 200 163.35"><g id="Layer_2" data-name="Layer 2"><g id="Layer_1-2" data-name="Layer 1-2"><path d="M.06,144.6c21.68,1.52,41.69-2.85,59.58-16.65-8.91-.81-16.72-3.43-23.53-8.7a39.32,39.32,0,0,1-14-20.47,41.6,41.6,0,0,0,16.26-.39A41.75,41.75,0,0,1,11.53,76,37.69,37.69,0,0,1,7.76,57.26a44.89,44.89,0,0,0,16.83,4.82C14.77,54.55,8.77,44.91,7.79,32.45A40.29,40.29,0,0,1,13.41,7.66,18.45,18.45,0,0,1,15,9.13,119.31,119.31,0,0,0,36.49,29.46a108.6,108.6,0,0,0,17.6,10.41,104,104,0,0,0,26.54,8.44c5.24.93,10.59,1.21,15.89,1.76a7.12,7.12,0,0,0,1.38-.16c-.07-.58-.11-1-.19-1.51-2.36-14.72,1.69-27.25,12.67-37.48A40,40,0,0,1,130.48.77a42.57,42.57,0,0,1,18.82.62,39.48,39.48,0,0,1,15.25,7.78,27,27,0,0,1,2.66,2.47,2.45,2.45,0,0,0,2.51.73,76.07,76.07,0,0,0,14.42-4.51c2.93-1.28,5.85-2.6,8.77-3.89.38-.17.77-.28,1.65-.59C191.77,13.12,186,20,178.22,25.73c3.65-.87,7.34-1.61,10.94-2.64s7.06-2.35,10.84-3.22c-.37.57-.73,1.14-1.12,1.69a83,83,0,0,1-17.26,17.9,4.36,4.36,0,0,0-1.86,4,113.22,113.22,0,0,1-1.45,21.91A121.33,121.33,0,0,1,173,86a124.72,124.72,0,0,1-10.27,22,107.81,107.81,0,0,1-15.29,19.66,126.88,126.88,0,0,1-23.08,18.55,107.73,107.73,0,0,1-16.47,8.49,106,106,0,0,1-21,6.3,123.2,123.2,0,0,1-35.49,1.81A116.11,116.11,0,0,1,21.3,156a114.26,114.26,0,0,1-19.68-9.72c-.57-.35-1.08-.81-1.62-1.21Z" transform="translate(0 0)"/></g></g></svg>