<svg xmlns="http://www.w3.org/2000/svg" xmlns:xlink="http://www.w3.org/1999/xlink" viewBox="0 0 32 22.04"><defs><style>.cls-1,.cls-2{fill:none;}.cls-2{clip-path:url(#clip-path);}.cls-3{clip-path:url(#clip-path-2);}</style><clipPath id="clip-path"><rect class="cls-1" x="0.01" width="32" height="22.13"/></clipPath><clipPath id="clip-path-2" transform="translate(-0.01 0)"><path id="Path_83" data-name="Path 83" class="cls-2" d="M15.84,22.12c-2.22,0-4.45,0-6.67-.13a46.76,46.76,0,0,1-5-.42A4.23,4.23,0,0,1,.42,17.73,44.7,44.7,0,0,1,0,9.89c0-1.36.1-2.72.2-4.08a12.6,12.6,0,0,1,.35-2.2A4,4,0,0,1,4,.52,36.54,36.54,0,0,1,8.93.1C12.53,0,16.14,0,19.75,0,22.18,0,24.6.23,27,.38a6.49,6.49,0,0,1,1.63.29,3.87,3.87,0,0,1,2.81,3.41c.21,1.54.37,3.09.47,4.64A43.26,43.26,0,0,1,31.65,17a7.66,7.66,0,0,1-.52,2.16,4.1,4.1,0,0,1-3.55,2.46c-1.95.19-3.9.33-5.86.39s-3.92,0-5.88,0v.1m-2.9-16V16L21,11l-8-4.93"/></clipPath></defs><g id="Layer_2" data-name="Layer 2"><g id="Layer_1-2" data-name="Layer 1"><g class="cls-3"><rect width="32" height="22.04"/></g></g></g></svg>