<svg xmlns="http://www.w3.org/2000/svg" viewBox="0 0 64.89 61.11"><defs><style>.cls-1{fill:#f15e5a;}.cls-2{fill:#130f41;}</style></defs><g id="Layer_2" data-name="Layer 2"><g id="Layer_1-2" data-name="Layer 1"><path class="cls-1" d="M32.44,50.67C14.53,50.67,0,46.69,0,41.78V52.22c0,4.91,14.53,8.89,32.44,8.89s32.45-4,32.45-8.89V41.78C64.89,46.69,50.36,50.67,32.44,50.67Z"/><path class="cls-1" d="M32.44,29.78C14.53,29.78,0,25.8,0,20.89V31.33c0,4.91,14.53,8.89,32.44,8.89s32.45-4,32.45-8.89V20.89C64.89,25.8,50.36,29.78,32.44,29.78Z"/><ellipse class="cls-1" cx="32.44" cy="8.89" rx="32.44" ry="8.89"/><path class="cls-2" d="M31.22,7.52h4.52A2.32,2.32,0,0,1,37.9,9.28a2.28,2.28,0,0,1-1.53,2.66,3.5,3.5,0,0,1-.85.13c-.58,0-1.16,0-1.75,0-.33,0-.36,0-.36.35,0,.61,0,1.22,0,1.84,0,.26.05.31.33.35a18.91,18.91,0,0,1,4.74,1.23,19.86,19.86,0,0,1,5,2.94,18.07,18.07,0,0,1,2.38,2.33A19,19,0,0,1,48.48,25a17.18,17.18,0,0,1,1.38,3.59c.17.66.33,1.31.45,2A17.87,17.87,0,0,1,50.58,35,19.52,19.52,0,0,1,50,38.67a20.27,20.27,0,0,1-1.9,4.8,20,20,0,0,1-5.28,6.11A19.52,19.52,0,0,1,34.2,53.3a19.07,19.07,0,0,1-4.46.26,19.77,19.77,0,0,1-8.47-2.51,12.92,12.92,0,0,1-2.2-1.46A2.27,2.27,0,0,1,22,46.11a17.58,17.58,0,0,0,2.38,1.54,15.18,15.18,0,0,0,2.38,1,13.77,13.77,0,0,0,2.6.59,15,15,0,0,0,8.78-1.42,14.76,14.76,0,0,0,4.4-3.32,15,15,0,0,0,2.86-4.46,13.5,13.5,0,0,0,1-3.48,20.54,20.54,0,0,0,.19-2.48A14.47,14.47,0,0,0,46,30.4a15.25,15.25,0,0,0-1.68-3.94,15,15,0,0,0-3.61-4.08,15.88,15.88,0,0,0-4.59-2.54,12.51,12.51,0,0,0-2.78-.66c-.73-.08-1.46-.16-2.2-.18a14.23,14.23,0,0,0-3.05.32,14.81,14.81,0,0,0-4.2,1.54c-.65.36-1.26.8-1.88,1.22a2.87,2.87,0,0,1-1.16.5A2.28,2.28,0,0,1,18.32,20a2.34,2.34,0,0,1,.92-1.47,19.56,19.56,0,0,1,4.41-2.55,20.2,20.2,0,0,1,3.47-1.08c.47-.11,1-.16,1.44-.23.27,0,.33-.08.33-.35,0-.64,0-1.27,0-1.9,0-.25,0-.29-.3-.29-.68,0-1.35,0-2,0a2.41,2.41,0,0,1-2.1-1.55A2.29,2.29,0,0,1,26,7.64a3.57,3.57,0,0,1,.86-.12Z"/><path class="cls-2" d="M27.08,34.1a4,4,0,0,1,2.82-3.84,4.15,4.15,0,0,1,1.48-.18.78.78,0,0,0,.59-.2l5.32-4.28a1.66,1.66,0,0,1,2.42,2.24c-.44.6-.91,1.18-1.38,1.77l-2.95,3.66a.81.81,0,0,0-.22.65,3.85,3.85,0,0,1-1,2.94,4.06,4.06,0,0,1-6,0A3.85,3.85,0,0,1,27.08,34.1Z"/></g></g></svg>