<svg xmlns="http://www.w3.org/2000/svg" viewBox="0 0 145.33 110.69"><defs><style>.cls-1{fill:#f15e5a;}.cls-2{fill:#231f20;}</style></defs><g id="Layer_2" data-name="Layer 2"><g id="Layer_1-2" data-name="Layer 1"><path class="cls-1" d="M72.33,110.69c-12.83,0-23.46-5.26-31.63-15.66-9.87-12.57-12.31-27.27-7.05-42.51,2.53-7.44,7-13.71,11.72-20q8.39-11.17,16.92-22.24l5.45-7.13a11.51,11.51,0,0,1,1-1.06l.45-.47A4.92,4.92,0,0,1,76.73,2l3.55,4.85c2.36,3.24,4.65,6.37,7,9.45,2.08,2.74,4.21,5.45,6.33,8.17,3.24,4.13,6.46,8.25,9.58,12.47,5.42,7.35,8.62,13.94,10.07,20.72,2.9,13.62.21,26-8,36.71-7.49,9.82-17.3,15.25-29.15,16.16C74.81,110.64,73.56,110.69,72.33,110.69ZM72.59,13l-2.48,3.22Q61.63,27.31,53.25,38.41C48.85,44.27,45,49.62,43,55.72,38.78,67.82,40.63,79,48.44,89c6.9,8.77,15.68,12.62,26.9,11.77,9-.69,16.28-4.73,22.08-12.33h0c6.48-8.46,8.5-17.84,6.19-28.66-1.14-5.37-3.8-10.75-8.35-16.93-3.06-4.14-6.24-8.19-9.41-12.25-2.15-2.75-4.3-5.49-6.42-8.27C77.14,19.25,74.9,16.19,72.59,13Z"/><path class="cls-2" d="M40.67,29.57H4a4,4,0,0,1,0-8H40.67a4,4,0,0,1,0,8Z"/><path class="cls-2" d="M141.33,29.57H104.67a4,4,0,0,1,0-8h36.66a4,4,0,0,1,0,8Z"/></g></g></svg>