<svg width="54" height="54" viewBox="0 0 54 54" fill="none" xmlns="http://www.w3.org/2000/svg">
<path d="M50.7596 18.7004C50.7596 15.5333 49.5014 12.4959 47.2619 10.2565C45.0225 8.01698 41.9851 6.75885 38.818 6.75885V6.75885C37.2208 6.74852 35.6386 7.06678 34.1696 7.69387C31.3028 8.9039 29.0215 11.1852 27.8114 14.052C27.1844 15.521 26.8661 17.1032 26.8764 18.7004V18.7004C26.8498 19.1096 26.8498 19.5201 26.8764 19.9293C26.9541 20.7189 27.1153 21.4979 27.3573 22.2535C27.7028 23.362 28.2066 24.4148 28.8533 25.3791C29.067 25.6997 29.3075 25.9936 29.5479 26.2874C30.6639 27.6527 32.0703 28.752 33.6646 29.5053C35.259 30.2585 37.0012 30.6469 38.7646 30.642V30.642C40.3372 30.649 41.8958 30.3453 43.3508 29.7484C44.8058 29.1514 46.1285 28.2729 47.2431 27.1633C48.3576 26.0537 49.242 24.7349 49.8455 23.2826C50.4489 21.8303 50.7596 20.2731 50.7596 18.7004V18.7004Z" fill="#94EECB"/>
<path fill-rule="evenodd" clip-rule="evenodd" d="M47.0498 42.9889C44.6751 45.3636 41.4542 46.6977 38.0958 46.6977L21.3723 46.8313C16.4126 46.8313 11.6561 44.8611 8.1491 41.3541C6.41261 39.6176 5.03515 37.5561 4.09536 35.2872C3.15558 33.0184 2.67188 30.5867 2.67188 28.1309C2.7224 26.8974 2.89239 25.6717 3.17946 24.4709C3.7976 21.5235 5.12748 18.772 7.05312 16.4565C7.80066 15.4859 8.64177 14.5911 9.56432 13.785C10.4824 13.0261 11.476 12.3636 12.5297 11.8081C15.2401 10.3245 18.2824 9.55239 21.3723 9.56403C25.0842 9.60506 28.6999 10.7499 31.7589 12.8527C34.818 14.9555 37.182 17.9212 38.55 21.372C41.8291 21.4897 44.9344 22.8756 47.2118 25.2377C49.4892 27.5998 50.7608 30.7537 50.7587 34.0349C50.7587 37.3933 49.4246 40.6141 47.0498 42.9889ZM42.9949 39.6363C41.0689 41.4205 38.4567 42.4228 35.7329 42.4228L22.1696 42.5232C18.1471 42.5232 14.2894 41.0429 11.4451 38.408C10.0368 37.1033 8.91962 35.5545 8.15742 33.8498C7.39523 32.1452 7.00293 30.3182 7.00293 28.4731C7.0439 27.5463 7.18177 26.6254 7.4146 25.7233C7.91593 23.5087 8.99451 21.4415 10.5563 19.7018C11.1625 18.9725 11.8447 18.3002 12.5929 17.6946C13.3375 17.1244 14.1434 16.6267 14.9979 16.2093C17.1962 15.0946 19.6636 14.5145 22.1696 14.5233C25.1801 14.5541 28.1125 15.4142 30.5935 16.9941C33.0745 18.574 35.3935 22.9305 36.5029 25.5232C36.6588 25.5284 36.8172 25.5333 36.9776 25.5384C39.5537 25.6189 42.642 25.7156 44.0029 27.0232C45.85 28.7979 46.0046 30.4437 46.0029 32.9089C46.0029 35.4321 44.9209 37.8521 42.9949 39.6363Z" fill="#546563"/>
<path fill-rule="evenodd" clip-rule="evenodd" d="M29.3691 11.4582C30.1957 11.8617 30.9948 12.3273 31.7591 12.8527C34.8182 14.9555 37.1822 17.9211 38.5501 21.372C41.8292 21.4897 44.9346 22.8756 47.212 25.2377C47.5198 25.557 47.8093 25.8907 48.0797 26.2373L47.9546 26.2874C47.1915 27.2206 46.293 28.0298 45.2917 28.6895C44.9978 28.1271 44.5842 27.5815 44.0031 27.0232C42.6422 25.7156 39.5538 25.6189 36.9778 25.5383C36.8174 25.5333 36.659 25.5284 36.5031 25.5232C35.3936 22.9305 33.0747 18.574 30.5937 16.9941C29.5816 16.3496 28.4944 15.8249 27.3574 15.4274C27.4906 14.9784 27.6511 14.5369 27.8382 14.1054C28.2346 13.1618 28.749 12.2723 29.3691 11.4582Z" fill="white"/>
</svg>
