<svg width="54" height="54" viewBox="0 0 54 54" fill="none" xmlns="http://www.w3.org/2000/svg">
<path fill-rule="evenodd" clip-rule="evenodd" d="M14.2809 10.6738C17.3928 8.95169 20.885 8.03269 24.4415 7.99997C30.1147 7.99997 35.5555 10.2536 39.5671 14.2652C43.5786 18.2767 45.8323 23.7175 45.8323 29.3907C45.8323 35.0639 43.5786 40.5047 39.5671 44.5163C35.5555 48.5278 30.1147 50.7815 24.4415 50.7815C18.7683 50.7815 13.3275 48.5278 9.31599 44.5163C5.30444 40.5047 3.05078 35.0639 3.05078 29.3907C3.06003 27.9633 3.20327 26.5399 3.4786 25.1393C4.18762 21.7337 5.71051 18.5503 7.91718 15.8611C8.81489 14.8177 9.79876 13.8517 10.8584 12.9733C11.9287 12.1067 13.074 11.3371 14.2809 10.6738ZM15.9758 14.125C18.4489 12.7563 21.2243 12.026 24.0508 12C28.5595 12 32.8835 13.791 36.0716 16.9792C39.2597 20.1673 41.0508 24.4913 41.0508 29C41.0508 33.5086 39.2597 37.8327 36.0716 41.0208C32.8835 44.2089 28.5595 46 24.0508 46C19.5421 46 15.2181 44.2089 12.03 41.0208C8.84185 37.8327 7.05078 33.5086 7.05078 29C7.05814 27.8656 7.17197 26.7343 7.39078 25.6212C7.95427 22.9146 9.16457 20.3847 10.9183 18.2475C11.6317 17.4183 12.4136 16.6506 13.2558 15.9525C14.1064 15.2637 15.0166 14.6521 15.9758 14.125Z" fill="#94EECB"/>
<path d="M50.8032 29.2251C50.7961 22.1854 47.9965 15.4361 43.0187 10.4583C38.0409 5.48049 31.2916 2.68086 24.252 2.67378V2.67378V29.2251H50.8032Z" fill="#546563"/>
<path fill-rule="evenodd" clip-rule="evenodd" d="M41.0493 29.225H45.4555C45.372 23.6399 43.107 18.309 39.1448 14.3718C35.1826 10.4346 29.8375 8.20337 24.252 8.15512V12.0012C28.6879 12.0537 32.9309 13.8385 36.0716 16.9792C39.2597 20.1673 41.0508 24.4914 41.0508 29C41.0508 29.0751 41.0503 29.1501 41.0493 29.225Z" fill="black"/>
</svg>
