<svg width="30" height="17" viewBox="0 0 30 17" fill="none" xmlns="http://www.w3.org/2000/svg">
<path d="M26.796 0.755396V0.755396C20.1919 7.07248 9.78598 7.07398 3.17992 0.75899V0.75899C2.82603 0.432149 2.35205 0.251296 1.86007 0.255385C1.36809 0.259473 0.897474 0.448171 0.549579 0.780843C0.201684 1.11352 0.0043461 1.56354 7.0932e-05 2.034C-0.00420424 2.50445 0.184924 2.95768 0.526721 3.29609L13.6614 15.856C13.8351 16.0234 14.0417 16.1563 14.2694 16.247C14.4971 16.3376 14.7413 16.3843 14.9879 16.3843C15.2346 16.3843 15.4788 16.3376 15.7065 16.247C15.9342 16.1563 16.1408 16.0234 16.3145 15.856L29.4492 3.29609C29.8015 2.95964 29.9996 2.50315 30 2.02701C30.0004 1.55088 29.8029 1.0941 29.4511 0.757188C29.0992 0.420272 28.6218 0.230806 28.1239 0.230469C27.626 0.230133 27.1483 0.418955 26.796 0.755396Z" fill="#C7C8CA"/>
</svg>
