<svg width="54" height="54" viewBox="0 0 54 54" fill="none" xmlns="http://www.w3.org/2000/svg">
<path fill-rule="evenodd" clip-rule="evenodd" d="M47.9553 27.4409L8.46264 48.2434L4.53209 50.3576V45.9439V5.30152V1L8.40916 2.86832L47.9553 22.7082L52.6387 24.9346L47.9553 27.4409ZM37.5233 26.6781L11.2532 40.5865L8.63867 42V39.0491V11.8759V9L11.2177 10.2491L37.5233 23.5139L40.6387 25.0024L37.5233 26.6781Z" fill="#94EECB"/>
<path d="M25.4104 23.0001C22.8614 23.0001 20.3697 23.756 18.2502 25.1721C16.1308 26.5883 14.479 28.6011 13.5035 30.956C12.528 33.311 12.2728 35.9023 12.7701 38.4023C13.2674 40.9024 14.4948 43.1988 16.2973 45.0012C18.0997 46.8036 20.3961 48.031 22.8961 48.5283C25.3961 49.0256 27.9874 48.7704 30.3424 47.7949C32.6973 46.8195 34.7102 45.1676 36.1263 43.0482C37.5425 40.9288 38.2983 38.437 38.2983 35.888C38.3054 34.1936 37.9769 32.5145 37.3317 30.9477C36.6865 29.3809 35.7375 27.9573 34.5393 26.7591C33.3411 25.561 31.9176 24.6119 30.3507 23.9667C28.7839 23.3216 27.1048 22.993 25.4104 23.0001V23.0001Z" fill="#546563"/>
<path fill-rule="evenodd" clip-rule="evenodd" d="M37.917 32.7274L15.7411 44.4084C14.5185 43.0209 13.6098 41.3875 13.0752 39.6207L35.4517 27.7738C36.2266 28.7338 36.8605 29.8025 37.332 30.9477C37.5707 31.5272 37.766 32.1221 37.917 32.7274Z" fill="black"/>
</svg>
