<svg width="782" height="784" viewBox="0 0 782 784" fill="none" xmlns="http://www.w3.org/2000/svg">
<g filter="url(#filter0_f_179:110)">
<ellipse cx="391" cy="391.785" rx="311" ry="311.785" fill="#BEE4DE" fill-opacity="0.2"/>
</g>
<g opacity="0.2">
<path d="M390.99 689.89C226.678 689.89 93 556.233 93 391.943C93 227.657 226.678 94 390.99 94C555.302 94 688.977 227.657 688.977 391.943C688.977 556.233 555.302 689.89 390.99 689.89ZM390.99 107.486C234.114 107.486 106.487 235.091 106.487 391.943C106.487 548.798 234.114 676.404 390.99 676.404C547.866 676.404 675.489 548.798 675.489 391.943C675.489 235.091 547.866 107.486 390.99 107.486Z" fill="white"/>
<path d="M391.104 687.479C272.496 687.479 176 554.811 176 391.738C176 228.668 272.496 96 391.104 96C509.712 96 606.206 228.668 606.206 391.738C606.206 554.811 509.712 687.479 391.104 687.479ZM391.104 109.386C277.863 109.386 185.736 236.047 185.736 391.738C185.736 547.432 277.863 674.093 391.104 674.093C504.345 674.093 596.47 547.432 596.47 391.738C596.47 236.047 504.345 109.386 391.104 109.386Z" fill="white"/>
<path d="M688.89 391.488C688.89 509.219 555.233 605 390.943 605C226.657 605 93 509.219 93 391.488C93 273.758 226.657 177.979 390.943 177.979C555.233 177.979 688.89 273.758 688.89 391.488ZM106.486 391.488C106.486 503.891 234.091 595.336 390.943 595.336C547.799 595.336 675.404 503.891 675.404 391.488C675.404 279.085 547.799 187.643 390.943 187.643C234.091 187.643 106.486 279.085 106.486 391.488Z" fill="white"/>
<path d="M688.89 391.54C688.89 459.064 555.233 514 390.943 514C226.657 514 93 459.064 93 391.54C93 324.015 226.657 269.081 390.943 269.081C555.233 269.081 688.89 324.015 688.89 391.54ZM106.486 391.54C106.486 456.009 234.091 508.457 390.943 508.457C547.799 508.457 675.404 456.009 675.404 391.54C675.404 327.071 547.799 274.623 390.943 274.623C234.091 274.623 106.486 327.071 106.486 391.54Z" fill="white"/>
<path d="M391.374 687.479C323.345 687.479 268 554.811 268 391.738C268 228.668 323.345 96 391.374 96C459.402 96 514.746 228.668 514.746 391.738C514.746 554.811 459.402 687.479 391.374 687.479ZM391.374 109.386C326.424 109.386 273.584 236.047 273.584 391.738C273.584 547.432 326.424 674.093 391.374 674.093C456.324 674.093 509.162 547.432 509.162 391.738C509.162 236.047 456.324 109.386 391.374 109.386Z" fill="white"/>
</g>
<defs>
<filter id="filter0_f_179:110" x="0" y="0" width="782" height="783.571" filterUnits="userSpaceOnUse" color-interpolation-filters="sRGB">
<feFlood flood-opacity="0" result="BackgroundImageFix"/>
<feBlend mode="normal" in="SourceGraphic" in2="BackgroundImageFix" result="shape"/>
<feGaussianBlur stdDeviation="40" result="effect1_foregroundBlur_179:110"/>
</filter>
</defs>
</svg>
