<svg width="31" height="31" viewBox="0 0 31 31" fill="none" xmlns="http://www.w3.org/2000/svg">
<path d="M15.9083 0.46875C12.9417 0.468055 10.0415 1.34711 7.57459 2.99474C5.10764 4.64238 3.1847 6.98458 2.04896 9.72514C0.913219 12.4657 0.615697 15.4815 1.19402 18.3912C1.77234 21.3008 3.20054 23.9736 5.29797 26.0715C7.39541 28.1695 10.0679 29.5983 12.9774 30.1773C15.8869 30.7563 18.9028 30.4595 21.6436 29.3244C24.3844 28.1893 26.7271 26.2669 28.3753 23.8003C30.0235 21.3338 30.9033 18.4338 30.9033 15.4673C30.9037 13.4978 30.5162 11.5475 29.7628 9.72784C29.0095 7.90816 27.905 6.25471 26.5126 4.86192C25.1201 3.46914 23.4669 2.3643 21.6474 1.61051C19.8279 0.856724 17.8777 0.46875 15.9083 0.46875V0.46875ZM11.6586 23.9208H8.56193V12.469H11.6586V23.9208ZM10.1683 10.9153C9.67712 10.8881 9.21668 10.6677 8.88742 10.3022C8.55816 9.9367 8.38682 9.45584 8.41078 8.9645C8.3868 8.47282 8.55803 7.99156 8.8872 7.62553C9.21637 7.25949 9.67681 7.03832 10.1683 7.01016C10.6601 7.03741 11.1211 7.25832 11.4504 7.62456C11.7798 7.99081 11.9507 8.47258 11.9258 8.9645C11.9507 9.45643 11.7798 9.9382 11.4504 10.3044C11.1211 10.6707 10.6601 10.8916 10.1683 10.9188V10.9153ZM23.4058 16.1246V23.9208H20.2423V17.0103C20.2423 17.0103 20.2423 15.3126 18.5445 15.3126C16.8468 15.3126 16.896 17.2634 16.896 17.2634V23.8048H13.5638V12.469H16.6113V14.0648C16.6113 14.0648 16.9171 13.2528 18.1508 12.5709C19.3846 11.889 21.2686 12.3213 22.3688 13.179C23.469 14.0366 23.4058 16.1246 23.4058 16.1246Z" fill="#C7C8CA"/>
</svg>
