<svg width="22" height="39" viewBox="0 0 22 39" fill="none" xmlns="http://www.w3.org/2000/svg">
<path d="M21.0498 34.5117L5.83933 19.3061L21.045 4.09555C21.4852 3.63976 21.7288 3.02931 21.7233 2.39567C21.7178 1.76203 21.4636 1.1559 21.0155 0.707827C20.5675 0.259758 19.9613 0.00559746 19.3277 9.12502e-05C18.6941 -0.00541496 18.0836 0.238171 17.6278 0.678387L0.711158 17.5951C0.48567 17.8188 0.306697 18.085 0.184566 18.3782C0.0624345 18.6715 -0.000435705 18.986 -0.000435719 19.3036C-0.000435733 19.6213 0.0624344 19.9358 0.184566 20.2291C0.306697 20.5223 0.48567 20.7885 0.711158 21.0122L17.6278 37.9289C18.081 38.3827 18.6958 38.6379 19.3371 38.6383C19.9784 38.6388 20.5936 38.3844 21.0474 37.9313C21.5012 37.4782 21.7564 36.8633 21.7568 36.222C21.7573 35.5807 21.503 34.9655 21.0498 34.5117Z" fill="#546563"/>
</svg>
