<svg xmlns="http://www.w3.org/2000/svg" viewBox="0 0 116.45 116.44"><defs><style>.cls-1{fill:#f15e5a;}.cls-2{fill:#231f20;}</style></defs><g id="Layer_2" data-name="Layer 2"><g id="Layer_1-2" data-name="Layer 1"><path class="cls-1" d="M35,27.22a2.81,2.81,0,0,0,2.8-2.8V16.09a10.46,10.46,0,0,1,2-6.16A2.78,2.78,0,0,0,39.17,6a2.72,2.72,0,0,0-1.65-.54,2.83,2.83,0,0,0-2.27,1.15,16,16,0,0,0-3.07,9.46v8.33A2.81,2.81,0,0,0,35,27.22Z"/><path class="cls-1" d="M48.25,5.61H64.92a2.81,2.81,0,1,0,0-5.61H48.24a2.8,2.8,0,0,0-2.8,2.8A2.82,2.82,0,0,0,48.25,5.61Z"/><path class="cls-1" d="M77.43,5.61H94.1A2.81,2.81,0,0,0,94.1,0H77.43a2.81,2.81,0,1,0,0,5.61Z"/><path class="cls-1" d="M110.84,18.13a2.81,2.81,0,1,0,5.61,0v-2a16,16,0,0,0-8.79-14.35,2.83,2.83,0,0,0-1.27-.31A2.79,2.79,0,0,0,103.88,3a2.76,2.76,0,0,0-.31,1.29,2.81,2.81,0,0,0,1.54,2.49,10.45,10.45,0,0,1,5.73,9.35Z"/><path class="cls-1" d="M113.65,57a2.81,2.81,0,0,0-2.81,2.81v8.35a10.53,10.53,0,0,1-2,6.14,2.81,2.81,0,0,0,.62,3.92,2.81,2.81,0,0,0,3.92-.63,15.91,15.91,0,0,0,3-9.43V59.82A2.8,2.8,0,0,0,113.65,57Z"/><path class="cls-1" d="M113.65,27.83a2.82,2.82,0,0,0-2.81,2.81V47.31a2.8,2.8,0,1,0,5.6,0V30.64A2.81,2.81,0,0,0,113.65,27.83Z"/><path class="cls-1" d="M37.79,53.59V36.92a2.81,2.81,0,0,0-5.61,0V53.59a2.9,2.9,0,0,0,.2,1h5.21A2.9,2.9,0,0,0,37.79,53.59Z"/><path class="cls-1" d="M100.4,78.65H83.68a2.81,2.81,0,0,0,0,5.61h16.74a2.81,2.81,0,1,0,0-5.61Z"/><path class="cls-1" d="M71.18,84.26a2.81,2.81,0,0,0,0-5.61H61.82v5.61Z"/><path class="cls-2" d="M87.32,64V33.13a4.23,4.23,0,0,0-.08-.79,2.07,2.07,0,0,0-.1-.33A2.8,2.8,0,0,0,87,31.6a2.58,2.58,0,0,0-.19-.37c-.06-.11-.11-.22-.17-.32a3.79,3.79,0,0,0-.48-.58l0,0,0,0a5.18,5.18,0,0,0-.58-.47c-.1-.07-.21-.11-.31-.17a3.48,3.48,0,0,0-.38-.2c-.13-.05-.27-.08-.4-.12l-.35-.11a3.81,3.81,0,0,0-.75-.07H52.41a4,4,0,1,0,0,8H73.64l-19,19a13.25,13.25,0,0,0-6.12-1.5H13.29A13.29,13.29,0,0,0,0,67.91v35.25a13.29,13.29,0,0,0,13.29,13.28H48.53a13.29,13.29,0,0,0,13.29-13.28V67.91a13.25,13.25,0,0,0-1.5-6.12l19-19V64a4,4,0,0,0,8,0Z"/></g></g></svg>