<svg xmlns="http://www.w3.org/2000/svg" viewBox="0 0 149.89 125.92"><defs><style>.cls-1{fill:#f15e5a;}.cls-2{fill:#130f41;}</style></defs><g id="Layer_2" data-name="Layer 2"><g id="Layer_1-2" data-name="Layer 1"><path class="cls-1" d="M74.92,0h65.43a9.57,9.57,0,0,1,6.05,1.86,8.72,8.72,0,0,1,3.47,6.67c0,.28,0,.56,0,.84q0,43.14,0,86.28A9.4,9.4,0,0,1,149,100a8.61,8.61,0,0,1-7.24,4.92c-1.08.1-2.18.12-3.27.12H10.15a11.31,11.31,0,0,1-4.84-.85A8.66,8.66,0,0,1,.19,97.61a10.64,10.64,0,0,1-.18-2Q0,52.48,0,9.28A9.19,9.19,0,0,1,2,3.37,9,9,0,0,1,8.84,0c.46,0,.93,0,1.4,0Zm68.85,80.8V79.68q0-34.76,0-69.53a15.45,15.45,0,0,0-.14-1.67,2.27,2.27,0,0,0-1.71-2,6.62,6.62,0,0,0-1.84-.2H9.86c-.4,0-.81,0-1.21,0A2.6,2.6,0,0,0,6.27,8.65a7.85,7.85,0,0,0,0,.84q0,35.14,0,70.29c0,.33,0,.66.07,1ZM78.09,92.89a3.16,3.16,0,0,0-3.17-3.13A3.14,3.14,0,0,0,75,96,3.06,3.06,0,0,0,78.09,92.89Z"/><path class="cls-1" d="M74.93,125.9H51c-3,0-3.6-3-2.61-4.75a2.68,2.68,0,0,1,2.42-1.34c.84,0,1.69,0,2.53,0a5.93,5.93,0,0,0,6.32-5.28c.18-1,.32-2,.44-3,.07-.53.3-.79.85-.74.22,0,.44,0,.66,0H88.81c.91,0,1,.09,1.11,1s.23,2,.41,3a6,6,0,0,0,6,5,22.83,22.83,0,0,0,2.34,0,3,3,0,0,1,3.38,3,3.07,3.07,0,0,1-3.34,3.1c-6.84-.06-13.67,0-20.5,0Z"/><path class="cls-2" d="M51.52,41.16c.41-7.63,5.36-23.93,10.53-24.73,4.28-.66,8.09,7.55,13.09,6.85,3.75-.53.43-6.16,7.92-10.75C84,12,91,10.08,93,12.6c5.42,6.7,0,23.21,9.89,29.51,0,0,.19.12,8.3,4.15,1.05,1.2,1.47,2.26,1.28,3.19-1.23,5.85-26.62,5.09-36.39,4.79-17.56-.53-38.62-3-38.62-5.74,0-1.08,3.17-2.52,5.74-2.88,3.21-.44,5.07.86,6.7-.31S51.48,42,51.52,41.16Z"/><path class="cls-2" d="M51,61.4a2.89,2.89,0,0,0-.22,2.68c.48.87,1.39.7,2.23,1.34,1.85,1.4.06,4.3,1.56,6.91,1.7,3,6.26,3.11,6.69,3.12a10.11,10.11,0,0,0,5.35-1.56,9.44,9.44,0,0,0,3.79-3.35A29.87,29.87,0,0,0,72,66.31l2.81-1.08.09,0c.57-.1,1.37,2,1.56,2.45,1,2.52.52,3,1.12,4.24,1,2.08,3.6,2.76,5.8,3.35a10.5,10.5,0,0,0,5.57.22,6.25,6.25,0,0,0,3.12-1.56,7.21,7.21,0,0,0,1.79-4.68c.06-1.78-.52-2.31,0-3.13.74-1.17,2.39-.76,2.89-1.78s-.28-2.22-.89-2.9c-2.59-2.87-8.47.57-19.84.67-1.82,0-3.07-.06-5.58-.22C58.55,61.09,52.61,58.94,51,61.4Z"/></g></g></svg>