<svg width="31" height="31" viewBox="0 0 31 31" fill="none" xmlns="http://www.w3.org/2000/svg">
<path d="M15.9083 0.46875C12.9417 0.468055 10.0415 1.34711 7.57459 2.99474C5.10764 4.64238 3.1847 6.98458 2.04896 9.72514C0.913219 12.4657 0.615697 15.4815 1.19402 18.3912C1.77234 21.3008 3.20054 23.9736 5.29797 26.0715C7.39541 28.1695 10.0679 29.5983 12.9774 30.1773C15.8869 30.7563 18.9028 30.4595 21.6436 29.3244C24.3844 28.1893 26.7271 26.2669 28.3753 23.8003C30.0235 21.3338 30.9033 18.4338 30.9033 15.4673C30.9037 13.4978 30.5162 11.5475 29.7628 9.72784C29.0095 7.90816 27.905 6.25471 26.5126 4.86192C25.1201 3.46914 23.4669 2.3643 21.6474 1.61051C19.8279 0.856724 17.8777 0.46875 15.9083 0.46875V0.46875ZM24.629 23.1756H17.4654L19.0226 21.2283V12.1561L15.0506 23.1756L10.2983 12.1561V20.1L12.6358 23.1756H7.18405L9.32468 19.9067V10.6622L7.18405 7.74128H12.4565L16.323 17.4005L19.6342 7.74128H24.629L22.759 9.72726V21.267L24.629 23.1756Z" fill="#C7C8CA"/>
</svg>
