<svg width="64" height="54" viewBox="0 0 64 54" fill="none" xmlns="http://www.w3.org/2000/svg">
<path fill-rule="evenodd" clip-rule="evenodd" d="M59.6757 22.4602L52.7772 15.4548L52.0067 14.6794H50.7986H22.5628L21.4872 14.7061L20.6911 15.4548L13.6589 22.4602L12.0205 24.1132L13.6589 26.0967L34.7288 50.1613L36.7291 52.3345L38.7395 50.1613L59.8094 26.0967L61.4377 24.1727L59.6757 22.4602ZM53.761 24.1773L48.7371 19.3917L48.1759 18.8265H47.2961H26.0922L25.3089 18.846L24.7291 19.3917L19.6078 24.1773L18.4146 25.3821L19.6078 26.8278L36.7294 45.9516L53.8584 26.8278L55.0442 25.4255L53.761 24.1773Z" fill="#94EECB"/>
<path d="M30.9952 13.9874L30.0116 13.0038C24.4867 7.47887 15.5289 7.47887 10.004 13.0038C4.47901 18.5288 4.47901 27.4865 10.004 33.0115L10.9875 33.995C16.5125 39.52 25.4702 39.52 30.9952 33.995C36.5201 28.4701 36.5201 19.5123 30.9952 13.9874Z" fill="#546563"/>
<path fill-rule="evenodd" clip-rule="evenodd" d="M31.6439 14.6794H22.5628L21.4872 14.7061L20.6911 15.4548L13.6589 22.4603L12.0205 24.1132L13.6589 26.0967L23.9334 37.8315C25.3617 37.5294 26.7524 37.0045 28.0497 36.257L19.6078 26.8278L18.4146 25.3821L19.6078 24.1774L24.7291 19.3917L25.3089 18.846L26.0922 18.8265H34.1673C33.5864 17.3424 32.7452 15.9367 31.6439 14.6794Z" fill="black"/>
</svg>
