<svg width="54" height="54" viewBox="0 0 54 54" fill="none" xmlns="http://www.w3.org/2000/svg">
<path fill-rule="evenodd" clip-rule="evenodd" d="M7.72738 5.03879H45.7494H48.1292V7.78085V37.7814V40.1611H45.7494H7.72738H5.34766V37.7814V7.78085V5.03879H7.72738ZM11.4314 9H41.7092H43.5703V10.8485V34.1515V36H41.7092H11.4314H9.57031V34.1515V10.8485V9H11.4314Z" fill="#94EECB"/>
<path d="M10.5693 46.4801H42.6012C42.6012 42.3745 41.0073 38.4371 38.1701 35.534C35.3329 32.6309 31.4849 31 27.4726 31H25.6979C21.6856 31 17.8376 32.6309 15.0004 35.534C12.1632 38.4371 10.5693 42.3745 10.5693 46.4801Z" fill="#546563"/>
<path fill-rule="evenodd" clip-rule="evenodd" d="M41.2829 40.1611H11.8867C12.5485 38.6466 13.4488 37.2394 14.5631 36H38.6065C39.7208 37.2394 40.6211 38.6466 41.2829 40.1611Z" fill="black"/>
</svg>
