<svg xmlns="http://www.w3.org/2000/svg" viewBox="0 0 406.36 159.71"><defs><style>.cls-1{fill:#130f41;}.cls-2{fill:#f15e5a;}</style></defs><g id="Layer_2" data-name="Layer 2"><g id="Layer_1-2" data-name="Layer 1"><circle class="cls-1" cx="362.23" cy="57.13" r="26.54"/><path class="cls-1" d="M406.27,140.63c.05-.94.09-1.89.09-2.86,0-26.56-19.76-48.09-44.13-48.09s-44.13,21.53-44.13,48.09c0,1,0,1.92.09,2.86Z"/><circle class="cls-1" cx="272.89" cy="56.56" r="26.67"/><path class="cls-1" d="M317.16,140.49c0-1,.08-1.91.08-2.87,0-26.7-19.85-48.34-44.35-48.34s-44.35,21.64-44.35,48.34c0,1,0,1.92.08,2.87Z"/><circle class="cls-1" cx="133.52" cy="57.59" r="26.5"/><path class="cls-1" d="M177.51,141c.05-1,.08-1.9.08-2.86,0-26.53-19.73-48-44.07-48s-44.07,21.5-44.07,48c0,1,0,1.91.08,2.86Z"/><circle class="cls-1" cx="44.3" cy="57.02" r="26.64"/><path class="cls-1" d="M88.51,140.85c0-.95.08-1.91.08-2.87,0-26.67-19.83-48.28-44.29-48.28S0,111.31,0,138c0,1,0,1.92.08,2.87Z"/><circle class="cls-2" cx="202.7" cy="38.52" r="38.52"/><path class="cls-2" d="M266.63,159.71c.07-1.37.12-2.75.12-4.15,0-38.55-28.68-69.8-64.05-69.8s-64,31.25-64,69.8c0,1.4.05,2.78.12,4.15Z"/></g></g></svg>