<svg xmlns="http://www.w3.org/2000/svg" viewBox="0 0 117.86 117.65"><defs><style>.cls-1{fill:#130f41;}.cls-2{fill:#f15e5a;}</style></defs><g id="Layer_2" data-name="Layer 2"><g id="Layer_1-2" data-name="Layer 1"><path class="cls-1" d="M65.31,108.15l-2.41,2.1a8.16,8.16,0,0,0,1.05.9c2,1.16,1.84,5.19-1.25,6.29a4,4,0,0,1-3.7-.65c-1.31-1-2.51-2.12-3.76-3.18l7.17-6.17a5.83,5.83,0,0,0,1.89-5.85c-.87-3.24-3-4.7-6-5.11-1-.14-2.07-.17-3.2-.26-1.07-5.35-4.32-7.63-9.78-6.58-.14-.55-.23-1-.36-1.45a6.25,6.25,0,0,0-4.67-4.67,6.9,6.9,0,0,0-3.38-.08,7.66,7.66,0,0,1-1.12.08c0-.36-.09-.62-.1-.88A6.14,6.14,0,0,0,31,77.12a9.79,9.79,0,0,0-2.49-.22,3.34,3.34,0,0,0-2.37.9c-2.69,2.29-5.42,4.53-8.13,6.79-.25.21-.52.4-.85.65L15.72,84,27.66,53.22c1.08,0,1.95,0,2.81,0a31.44,31.44,0,0,0,11-2.2c1-.34,1.88-.74,2.82-1.1a12.92,12.92,0,0,1,9.83-.06c.33.13.64.31,1.09.53-1.1,1-2.09,1.79-3.06,2.65a100.46,100.46,0,0,0-10,9.69,15.77,15.77,0,0,0-1.79,2.44,7.57,7.57,0,0,0-.94,3.87c.07,5.12,3.28,6.7,6.16,8.61a10.54,10.54,0,0,0,2.74,1.44,8.17,8.17,0,0,0,7.41-.92c3-2.15,6-4.41,9-6.63.25-.17.48-.37.74-.52a2.66,2.66,0,0,1,3.17.36q3.28,3,6.6,5.93c1.5,1.34,3,2.67,4.54,4s2.89,2.4,4.29,3.64c2.2,1.93,4.36,3.9,6.53,5.85,1,.87,1.84,1.92,3.48,1.75a6.34,6.34,0,0,1-.18,1,6.93,6.93,0,0,1-7.29,4.09,3.44,3.44,0,0,1-1.49-.8c-2.69-2.32-5.4-4.61-8.09-6.93-.46-.39-.86-.73-1.5-.32s-1.39,1.44-1.21,2a1.9,1.9,0,0,0,.61.75c2.14,1.85,4.29,3.68,6.44,5.52a3.67,3.67,0,0,1,.49,5.28,3.79,3.79,0,0,1-5.41.48c-1.75-1.46-3.47-3-5.2-4.47-1.07-.92-2.14-1.84-3.17-2.8a1,1,0,0,0-1.43-.06,4,4,0,0,0-.81.88c-.49.74-.41,1.12.29,1.72l6.59,5.64a3.56,3.56,0,0,1,1,4A3.6,3.6,0,0,1,70.44,111a4.44,4.44,0,0,1-3.15-1.14C66.67,109.28,66,108.75,65.31,108.15Z"/><path class="cls-1" d="M88.36,53.06l13.46,30.6L94,88.81c-.82-.72-1.6-1.4-2.39-2.07-1.48-1.27-3-2.52-4.43-3.81Q79.47,76.1,71.74,69.26a5.7,5.7,0,0,1-.43-.42c-1.68-1.94-3.88-1.93-6.28-1a10,10,0,0,0-1.13.57,51.1,51.1,0,0,0-7.7,5.22,8.26,8.26,0,0,1-6.56,1.66,7,7,0,0,1-5.24-3,6.62,6.62,0,0,1,.72-7.87c4.22-4.1,8.41-8.24,13-11.91a16.46,16.46,0,0,1,9.43-3.37,15,15,0,0,1,5.94.81,62.5,62.5,0,0,0,11,2.85C85.74,53,87,53,88.36,53.06Z"/><path class="cls-1" d="M10.61,83.77a5.34,5.34,0,0,1-1.29-.5A19.81,19.81,0,0,0,3.7,80.53C.39,79.61-.58,79,.32,76.94c2.07-4.7,4.17-9.39,6.26-14.09q3.81-8.55,7.64-17.11a4.79,4.79,0,0,1,.51-1A1.7,1.7,0,0,1,17,44.31c2.24,1,4.48,2,6.72,3,.64.29,1.29.57,1.93.87a1.79,1.79,0,0,1,1,2.69C25.33,53.93,24,57,22.59,60.06q-5,11.13-9.93,22.27A2,2,0,0,1,10.61,83.77Z"/><path class="cls-1" d="M117.86,77.74a2,2,0,0,1-1.32,1.92c-2.42,1.08-4.83,2.19-7.25,3.28-.39.18-.79.37-1.19.54-1.34.59-2.18.3-2.79-1-1.13-2.44-2.23-4.89-3.35-7.33L91.07,51.2a2.31,2.31,0,0,1,1.14-3.05c2.72-1.25,5.43-2.48,8.15-3.71,1.47-.66,2.27-.38,2.93,1.06l12.73,28c.48,1.07,1,2.13,1.46,3.21C117.65,77.07,117.77,77.49,117.86,77.74Z"/><path class="cls-1" d="M33.1,83.85a3.11,3.11,0,0,1-1.19,2.66c-2.12,1.86-4.24,3.72-6.4,5.54a4.05,4.05,0,0,1-5.5-.74c-1.24-1.47-1.11-4.25.31-5.37,1.71-1.36,3.31-2.84,5-4.28.49-.43.93-.91,1.42-1.34a3.32,3.32,0,0,1,3.6-.49C32,80.65,33.17,81.77,33.1,83.85Z"/><path class="cls-1" d="M42.24,106.17a4.13,4.13,0,0,1-3.83-6,3.17,3.17,0,0,1,.72-.83c2-1.76,4.09-3.48,6.07-5.29a4,4,0,0,1,6.35,4.6,5,5,0,0,1-1.1,1.45c-2,1.8-4.06,3.54-6.1,5.3A3.43,3.43,0,0,1,42.24,106.17Z"/><path class="cls-1" d="M50.8,112.45c-2.39.12-4.89-3.06-3.27-6a3.28,3.28,0,0,1,.71-.82q3.15-2.77,6.34-5.5a4,4,0,1,1,4.28,6.65,9.13,9.13,0,0,0-4,3.28C53.71,111.76,52.81,112.41,50.8,112.45Z"/><path class="cls-1" d="M38.36,86.23a4,4,0,0,1,2.75,7c-2,1.69-4,3.48-6,5.2a3.93,3.93,0,0,1-5,.06A4.13,4.13,0,0,1,29,93.34a3.11,3.11,0,0,1,.65-.75L36,87A3.34,3.34,0,0,1,38.36,86.23Z"/><path class="cls-2" d="M59,0C48.15,0,38.71,9.29,38.59,20.17s9.52,20.62,20.5,20.51S79.3,31.13,79.27,20.29A20.8,20.8,0,0,0,59,0ZM57.6,36.81a2.77,2.77,0,0,1-2.79-2.93,2.8,2.8,0,0,1,2.84-3,2.76,2.76,0,0,1,2.79,3A2.76,2.76,0,0,1,57.6,36.81Zm4.59-17.75c-2.08,2.46-2.84,4.55-2.69,7l0,1.23H55.85L55.76,26c-.29-2.55.56-5.35,2.93-8.19C60.82,15.32,62,13.47,62,11.35c0-2.42-1.51-4-4.49-4.07a8.38,8.38,0,0,0-4.78,1.46l-1.14-3a12.37,12.37,0,0,1,6.77-1.9c5.44,0,7.91,3.37,7.91,7C66.27,14,64.47,16.36,62.19,19.06Z"/></g></g></svg>