<svg xmlns="http://www.w3.org/2000/svg" viewBox="0 0 145.73 134.65"><defs><style>.cls-1{fill:#f15e5a;}.cls-2{fill:#130f41;}</style></defs><g id="Layer_2" data-name="Layer 2"><g id="Layer_1-2" data-name="Layer 1"><circle class="cls-1" cx="72.33" cy="40.55" r="24.95"/><path class="cls-1" d="M113.74,119.06c.05-.89.08-1.79.08-2.69,0-25-18.57-45.22-41.49-45.22S30.84,91.4,30.84,116.37c0,.9,0,1.8.08,2.69Z"/><path class="cls-2" d="M142.73,128.65H128.4V6h13.27a3,3,0,0,0,0-6H3A3,3,0,0,0,3,6H16.26V128.65H4.06a3,3,0,0,0,0,6H142.73a3,3,0,0,0,0-6Zm-20.33,0H101.87V6H122.4ZM75.33,6H95.87V128.65H75.33Zm-6,122.65H48.8V6H69.33ZM22.26,6H42.8V128.65H22.26Z"/></g></g></svg>