<svg width="54" height="54" viewBox="0 0 54 54" fill="none" xmlns="http://www.w3.org/2000/svg">
<path fill-rule="evenodd" clip-rule="evenodd" d="M31.4965 44.2933L50.1969 17.5784L53.4297 12.9567H47.7659H11.113H5.75195L8.62856 17.5784L26.581 44.2933L29.0156 47.6778L31.4965 44.2933ZM30.3506 38.2978L44.0137 19.5621L46.1445 16.5232H42.4114H16.6781H13.1445L15.0406 19.5621L27.1107 38.2978L28.7154 40.5232L30.3506 38.2978Z" fill="#546563"/>
<path d="M12.0217 27.6236C18.6611 27.6236 24.0434 22.2413 24.0434 15.6019C24.0434 8.9625 18.6611 3.5802 12.0217 3.5802C5.3823 3.5802 0 8.9625 0 15.6019C0 22.2413 5.3823 27.6236 12.0217 27.6236Z" fill="#94EECB"/>
<path fill-rule="evenodd" clip-rule="evenodd" d="M23.7526 12.9567H11.113H5.75195L8.62856 17.5784L15.1101 27.2235C16.4696 26.8633 17.7347 26.2708 18.8602 25.4912L15.0406 19.5621L13.1445 16.5232H16.6781H24.0098C24.0328 16.2191 24.0446 15.9119 24.0446 15.6019C24.0446 14.6931 23.9437 13.8078 23.7526 12.9567Z" fill="white"/>
</svg>
