<svg xmlns="http://www.w3.org/2000/svg" viewBox="0 0 565.59 159.86"><defs><style>.cls-1{fill:#130f41;}.cls-2{fill:#f15e5a;}</style></defs><g id="Layer_2" data-name="Layer 2"><g id="Layer_1-2" data-name="Layer 1"><circle class="cls-1" cx="138.28" cy="62.58" r="30.87"/><path class="cls-1" d="M189.51,159.71c.06-1.1.09-2.21.09-3.32,0-30.9-23-55.95-51.32-55.95S87,125.49,87,156.39c0,1.11,0,2.22.1,3.32Z"/><circle class="cls-1" cx="284.11" cy="62.73" r="30.87"/><path class="cls-1" d="M335.34,159.86c.06-1.1.1-2.21.1-3.33,0-30.89-23-55.94-51.33-55.94s-51.33,25-51.33,55.94c0,1.12,0,2.23.1,3.33Z"/><circle class="cls-1" cx="429.94" cy="62.73" r="30.87"/><path class="cls-1" d="M481.17,159.86c.06-1.1.1-2.21.1-3.33,0-30.89-23-55.94-51.33-55.94s-51.32,25-51.32,55.94c0,1.12,0,2.23.1,3.33Z"/><circle class="cls-2" cx="64.05" cy="38.52" r="38.52"/><path class="cls-2" d="M128,159.71c.07-1.37.12-2.75.12-4.15,0-38.55-28.67-69.8-64-69.8S0,117,0,155.56c0,1.4.05,2.78.12,4.15Z"/><circle class="cls-2" cx="355.71" cy="38.52" r="38.52"/><path class="cls-2" d="M419.64,159.71c.07-1.37.12-2.75.12-4.15,0-38.55-28.68-69.8-64.05-69.8s-64,31.25-64,69.8c0,1.4,0,2.78.12,4.15Z"/><circle class="cls-2" cx="501.55" cy="38.54" r="38.52"/><path class="cls-2" d="M565.47,159.74c.07-1.38.12-2.76.12-4.15,0-38.55-28.67-69.81-64-69.81S437.5,117,437.5,155.59c0,1.39.05,2.77.12,4.15Z"/><circle class="cls-2" cx="209.88" cy="38.52" r="38.52"/><path class="cls-2" d="M273.8,159.71c.08-1.37.12-2.75.12-4.15,0-38.55-28.67-69.8-64-69.8s-64,31.25-64,69.8c0,1.4,0,2.78.13,4.15Z"/></g></g></svg>