<svg xmlns="http://www.w3.org/2000/svg" viewBox="0 0 111.24 144.4"><defs><style>.cls-1{fill:#f15e5a;}.cls-2{fill:#130f41;}</style></defs><g id="Layer_2" data-name="Layer 2"><g id="Layer_1-2" data-name="Layer 1"><path class="cls-1" d="M58.66,136.46a14.87,14.87,0,0,0-8.3-11,4.06,4.06,0,0,1-2.4-3.88c0-1.21,0-2.43,0-3.65a1.85,1.85,0,0,0-.74-1.76,7.56,7.56,0,0,1-.82-.78l-2.68-2.57a3.59,3.59,0,0,1-1.12-2.8,3.8,3.8,0,0,1,1.51-3c.45-.34.86-.73,1.35-1.15l-.95-.66a4.25,4.25,0,0,1-2.11-3.09,3.76,3.76,0,0,1,1.26-3.38c.58-.52,1.21-1,1.81-1.47.16-.13.3-.28.53-.5-.61-.58-1.17-1.09-1.71-1.62a3.86,3.86,0,0,1-.08-5.65c1-1,2.12-2,3.19-3,.11-.1.2-.23.34-.39q-2.31-2.62-4.6-5.17c-.1.08-.15.09-.17.12l-3.12,4.46a1.27,1.27,0,0,0-.23.84c0,.5.06,1,.06,1.5q0,4.73,0,9.45,0,12,0,24.06A3.72,3.72,0,0,1,37.37,125a14.51,14.51,0,0,0-5.44,4,14.27,14.27,0,0,0-2.88,13.73,13.48,13.48,0,0,0,.59,1.65H58A14.41,14.41,0,0,0,58.66,136.46Z"/><path class="cls-2" d="M73.69,69.71V52.32a29,29,0,1,0-58,0V69.71A20.21,20.21,0,0,0,0,89.39v34.8A20.23,20.23,0,0,0,20.2,144.4h5.21a18.39,18.39,0,0,1-.89-7.52,18,18,0,0,1,4.36-10.41,19.07,19.07,0,0,1,6.43-4.87l.46-.26v-.65q0-16.9,0-33.81c0-.2,0-.4,0-.6A4.87,4.87,0,0,1,36.79,83c1.68-2.33,3.34-4.67,4.93-7.06a1.34,1.34,0,0,1,2.2-.15C46,78.22,48.14,80.59,50.25,83c.21.24.43.47.65.7a2.43,2.43,0,0,1,.72,1.84c0,.55,0,1.11,0,1.67A1.78,1.78,0,0,1,51,88.62c-1.31,1.2-2.61,2.41-4,3.65L48.77,94c.69.69,1.37,1.4,2.07,2.08a1.38,1.38,0,0,1-.16,2.08c-.66.47-1.25,1-1.87,1.57h0l-1.74,1.34c-.22.17-.42.36-.66.57l.32.28,3.9,2.77a1.1,1.1,0,0,1,.12,1.93c-1.2,1.06-2.43,2.07-3.65,3.1-.15.12-.28.26-.42.39.42.43.79.84,1.19,1.22,1.25,1.21,2.5,2.4,3.76,3.59a1,1,0,0,1,.31.8c0,1.81,0,3.63,0,5.44v.62l.68.4,2.3,1.38h0l2,1.68,1,1h0c.26.35.51.7.78,1a18.34,18.34,0,0,1,4,9.15,19,19,0,0,1-.56,8h7.09a20.23,20.23,0,0,0,20.2-20.21V89.39A20.22,20.22,0,0,0,73.69,69.71Zm-12.11-.52H27.83V52.32a16.88,16.88,0,1,1,33.75,0Z"/><path class="cls-1" d="M99.61,11.29a10.33,10.33,0,0,0-7.9-3.13q-6.17,0-9.33,3.34t-3.17,9.07A4.38,4.38,0,0,1,78,23.74,4.26,4.26,0,0,1,74.78,25a4.31,4.31,0,0,1-4.43-4.43A21.25,21.25,0,0,1,73,9.9a18.41,18.41,0,0,1,7.51-7.3A23.41,23.41,0,0,1,91.71,0a21,21,0,0,1,10,2.39,17.5,17.5,0,0,1,7,6.68,19,19,0,0,1,2.52,9.77,21,21,0,0,1-1.48,8.2,21.1,21.1,0,0,1-4,6.25,59.68,59.68,0,0,1-6.51,6,9.37,9.37,0,0,0-3,4.43,15.52,15.52,0,0,0-1,5,4.39,4.39,0,0,1-1.22,3.17,4.26,4.26,0,0,1-3.21,1.26,4.31,4.31,0,0,1-4.43-4.43,18.33,18.33,0,0,1,1.83-7.64,19.66,19.66,0,0,1,5.29-6.94,61,61,0,0,0,5-4.6,16.35,16.35,0,0,0,2.87-4.43,15.19,15.19,0,0,0,1.17-6.25A10.62,10.62,0,0,0,99.61,11.29ZM95.14,58.9a5.89,5.89,0,0,1,1.78,4.3,5.79,5.79,0,0,1-1.78,4.21,5.85,5.85,0,0,1-4.3,1.78,6.08,6.08,0,0,1-6-6,5.85,5.85,0,0,1,1.78-4.3,5.77,5.77,0,0,1,4.21-1.78A5.89,5.89,0,0,1,95.14,58.9Z"/></g></g></svg>