<svg width="22" height="39" viewBox="0 0 22 39" fill="none" xmlns="http://www.w3.org/2000/svg">
<path d="M0.707988 4.12646L15.9185 19.3321L0.71283 34.5426C0.272615 34.9984 0.0290287 35.6089 0.034535 36.2425C0.0400412 36.8762 0.294195 37.4823 0.742264 37.9304C1.19033 38.3784 1.79647 38.6326 2.43011 38.6381C3.06375 38.6436 3.6742 38.4 4.12999 37.9598L21.0467 21.0431C21.2721 20.8194 21.4511 20.5532 21.5732 20.26C21.6954 19.9667 21.7582 19.6522 21.7582 19.3345C21.7582 19.0169 21.6954 18.7024 21.5732 18.4091C21.4511 18.1159 21.2721 17.8497 21.0467 17.626L4.12999 0.709301C3.67684 0.255515 3.062 0.000323379 2.4207 -0.000129805C1.77941 -0.00058299 1.16419 0.253734 0.710402 0.706879C0.256617 1.16002 0.00142877 1.77488 0.000975584 2.41618C0.000522399 3.05747 0.254843 3.67268 0.707988 4.12646Z" fill="#546563"/>
</svg>
