<svg xmlns="http://www.w3.org/2000/svg" viewBox="0 0 138.84 95.01"><defs><style>.cls-1{fill:#f15e5a;}.cls-2{fill:#130f41;}</style></defs><g id="Layer_2" data-name="Layer 2"><g id="Layer_1-2" data-name="Layer 1"><path class="cls-1" d="M10.52,60.41C26.14,58.77,38.24,55.54,51,52.13,69.11,47.26,77.4,44.9,83.55,40A49.87,49.87,0,0,0,93.74,29.39c-.08-.8-.72-1.39-2.25-1.61-11-1.6-8.44-2.89-12.75-6.87-8.87-8.18-5.48-5.36-12.84-8.12C56.34,9.21,47.33,11.39,44,12.2a44.19,44.19,0,0,0-16,7.71c-6.36,4.55-10.59,7.58-12.45,13-2.76,8.13,2.45,13.69-1.78,19C11.23,55.06,8,54.79,7.24,57.83,6.93,59.07,8.6,59.77,10.52,60.41Z"/><path class="cls-2" d="M135.24,11.61c-2-3.75-5.07-9.73-11.86-11.26a15.8,15.8,0,0,0-14.81,4.74c-1,1.11-1.31,1.87-3.56,7.7-4.87,12.69-5.09,13.72-6.52,16a30.74,30.74,0,0,1-6.14,7.14,60.5,60.5,0,0,1-6.91,6.35C78.53,47.84,69,50.4,51.72,55c-11.58,3.1-22.65,6.06-36.34,7.83.29,1-1,2.33-5.18,4.45C-.64,72.76-.09,74.47.05,74.89s.49,2.45,13.7.13c.93-.17,3.64,2,4.15,4.74C18.84,84.74,11,88.05,12,91c1,3.18,11.86,4.92,17.77,0,4.34-3.61,2.7-8,6.52-10.08,4.49-2.4,7.71,3.16,17.78,3.56,5.63.22,11.78-1.23,16.59-2.37,5.55-1.32,7.31-2.27,9.48-1.19,4.33,2.15,2.24,8.34,6.52,11.85,5.26,4.32,16.66,1.78,18.37-3,.9-2.48-1.47-3.9-3.55-10.07s-1.92-11.25-1.78-16c.17-5.85.34-11.55,3.56-17.78,2-3.86,4.82-9.34,10.07-10.67s7.81,3.06,14.22,1.78c.37-.07,6.35-1.36,9.48-6.52C141.37,23.41,136.75,14.52,135.24,11.61Z"/></g></g></svg>