<svg xmlns="http://www.w3.org/2000/svg" viewBox="0 0 172.6 117.99"><defs><style>.cls-1,.cls-3{fill:#130f41;}.cls-1,.cls-2{fill-rule:evenodd;}.cls-2{fill:#f15e5a;}</style></defs><g id="Layer_2" data-name="Layer 2"><g id="Layer_1-2" data-name="Layer 1"><path class="cls-1" d="M135.23,83.69c.33-2.62.77-6.2,1.67-12,2.26-14.79,3.33-17.67,5.85-19.92a14.27,14.27,0,0,1,7.43-3.27c2.29-.46,4.09-.83,5.94-2.82,2.15-2.33,3.76-6.3,2.69-9.38-1.81-5.17-10.94-6.59-16.55-5.93-6.82.81-11.41,5-14.45,7.8A37.86,37.86,0,0,0,118,53a45.55,45.55,0,0,0-1.54,7.47c-.07.46-.13.87-.19,1.23,2.25,4,4,8.67,2.85,13.89s-4.42,8.15-6.83,10.39c-4.39,4.1-8.77,5.87-21.58,9.81-4.57,1.41-8.9,2.73-15.24,4.52a37.14,37.14,0,0,1-6.73,10.52A33,33,0,0,1,58.88,118c5.79.07,12.07.06,17.58-.19,35.19-1.65,43.61-5.66,47.45-9.76a49.81,49.81,0,0,0,9.94-16.88A35.71,35.71,0,0,0,135.23,83.69Z"/><path class="cls-2" d="M.8,85A39.44,39.44,0,0,0,9,103.38c.65.79,1.31,1.52,2,2.21a40.61,40.61,0,0,0,15.38,9.17c4.24,1.54,13.05,4.75,23.74,2A31.35,31.35,0,0,0,65.72,108c1.75-1.85,10.33-11.8,7.8-25.24C72.61,78,69.79,69.19,61,64.42c-7.21-3.93-16.22-3.94-22.94,0-2.34,1.36-10,6.46-10.42,15A16.75,16.75,0,0,0,31.41,90.5c4.78,6.27,12,7.34,14.14,7.52l-.34,4c-2.53-.21-11.24-1.49-17-9.11a20.87,20.87,0,0,1-4.57-13.8C24.14,68.59,33.26,62.49,36,60.87a27.67,27.67,0,0,1,26.94,0C70.56,65,75.72,72.49,77.52,82A30.81,30.81,0,0,1,77,95.58c4.89-1.4,8.58-2.52,12.45-3.71,12.1-3.74,16.2-5.36,20-8.9,2.13-2,4.78-4.47,5.64-8.31,1.22-5.51-2-10.6-4.92-15.08-2.56-4-6.82-9.53-17.16-17.13-9.72-7.14-14.6-10.73-22.29-13.21a52.14,52.14,0,0,0-16.07-2.49,60.91,60.91,0,0,0-25,5.5c-11.68,5.62-20.1,13.69-25,24a49.73,49.73,0,0,0-2.8,7.35A46.62,46.62,0,0,0,.8,85Z"/><path class="cls-3" d="M153.26,37.56a1.89,1.89,0,0,1-.47-.06,2,2,0,0,1-1.48-2.41c1.66-6.9,5.1-21.27,18.93-23.79a2,2,0,0,1,.72,3.93C159.69,17.28,156.77,29.48,155.2,36A2,2,0,0,1,153.26,37.56Z"/><path class="cls-3" d="M143.32,34h0a2,2,0,0,1-2-2.05c.21-7.56,2.11-18.4,10.05-27.17A35.6,35.6,0,0,1,156.06.42a2,2,0,0,1,2.44,3.16,31.64,31.64,0,0,0-4.16,3.85c-7.12,7.86-8.83,17.71-9,24.58A2,2,0,0,1,143.32,34Z"/></g></g></svg>