<svg width="54" height="54" viewBox="0 0 54 54" fill="none" xmlns="http://www.w3.org/2000/svg">
<path fill-rule="evenodd" clip-rule="evenodd" d="M33.7136 48.728L50.17 32.2984L52.1515 30.294L50.4104 28.5583L29.0385 7.34665L28.2487 6.59863H27.2486H10.819H8.14746V9.27012V25.7265V26.715L8.89548 27.5164L30.1338 48.728L31.9555 50.3621L33.7136 48.728ZM32.9286 42.9291L44.5978 31.2232L46.0029 29.7951L44.7683 28.5584L27.8168 11.6263L27.2567 11.0934H26.5476H14.8973H13.0029V12.9968V24.7218V25.426L13.5333 25.997L30.3902 42.9291L31.682 44.0934L32.9286 42.9291Z" fill="#546563"/>
<path d="M21.212 13.7048H2.67188V19.0478H21.212V13.7048Z" fill="#94EECB"/>
<path d="M17.4626 23.2765H2.55566V28.6195H17.4626V23.2765Z" fill="#94EECB"/>
<path fill-rule="evenodd" clip-rule="evenodd" d="M9.99902 28.6196H16.1443L13.5333 25.997L13.0029 25.426V24.7217V23.2766H8.14648V25.7266V26.715L8.8945 27.5165L9.99902 28.6196Z" fill="white"/>
<path fill-rule="evenodd" clip-rule="evenodd" d="M8.14648 19.0478H13.0029V13.7048H8.14648V19.0478Z" fill="white"/>
</svg>
