<svg width="31" height="31" viewBox="0 0 31 31" fill="none" xmlns="http://www.w3.org/2000/svg">
<path d="M15.9076 0.466797C12.9404 0.466102 10.0396 1.34535 7.57214 2.99334C5.10465 4.64133 3.18129 6.98404 2.0453 9.72519C0.909314 12.4663 0.611727 15.4828 1.19018 18.3931C1.76863 21.3034 3.19713 23.9768 5.29502 26.0752C7.39291 28.1735 10.066 29.6027 12.9761 30.1818C15.8863 30.7609 18.9028 30.4641 21.6442 29.3287C24.3856 28.1934 26.7288 26.2706 28.3774 23.8035C30.0259 21.3363 30.9059 18.4358 30.9059 15.4686C30.9063 13.4987 30.5187 11.548 29.7652 9.7279C29.0117 7.90782 27.907 6.25401 26.5142 4.86092C25.1215 3.46784 23.4679 2.36276 21.648 1.60881C19.8281 0.854855 17.8775 0.466797 15.9076 0.466797V0.466797ZM25.0486 8.06084C24.683 9.98045 22.1235 23.3193 22.1235 23.3193C22.1235 23.3193 21.9161 24.7045 20.7594 23.713C19.6027 22.7216 16.8569 20.2641 16.8569 20.2641H16.4033L13.8755 22.8552V17.9612L21.8352 10.3742V9.98045H21.3395L11.8469 16.8151C11.8469 16.8151 7.15338 15.1275 6.92485 14.9974C6.69633 14.8674 6.62601 14.6177 6.92485 14.3998C7.22369 14.1818 23.6493 7.11159 23.6493 7.11159C23.6493 7.11159 25.3826 6.14124 25.0345 8.06084H25.0486Z" fill="#C7C8CA"/>
</svg>
