<svg width="54" height="54" viewBox="0 0 54 54" fill="none" xmlns="http://www.w3.org/2000/svg">
<path fill-rule="evenodd" clip-rule="evenodd" d="M7.58668 50.7583H45.8424H46.7558H47.4101H48.2429L48.0865 48.4074L46.0829 12.3423L45.9824 10.2318C45.9824 10.2318 44.4355 10.2311 43.8655 10.2318C43.2955 10.2325 9.53687 10.2318 9.53687 10.2318H7.43529L7.31954 12.3423L5.34263 48.4074L5.1748 50.7583H6.66196H7.58668ZM11.4773 46.5232H41.6782H42.3992H42.9158H43.5732L43.4497 44.6669L41.868 16.1899L41.7887 14.5234C41.7887 14.5234 40.5675 14.5229 40.1175 14.5234C39.6675 14.524 13.0169 14.5234 13.0169 14.5234H11.3578L11.2664 16.1899L9.70573 44.6669L9.57324 46.5232H10.7473H11.4773Z" fill="#546563"/>
<path d="M17.0703 16.0713V21.4142H36.3585V9.63298C36.3585 7.21691 35.3987 4.8998 33.6903 3.19139C31.9819 1.48297 29.6648 0.523193 27.2487 0.523193H26.1801C23.764 0.523193 21.4469 1.48297 19.7385 3.19139C18.0301 4.8998 17.0703 7.21691 17.0703 9.63298V10.1673V16.0713Z" fill="#94EECB"/>
<path fill-rule="evenodd" clip-rule="evenodd" d="M36.3585 14.5236V10.2321C30.6371 10.2321 22.7964 10.232 17.0703 10.2319V14.5235C22.2881 14.5236 31.2847 14.5237 36.3585 14.5236Z" fill="white"/>
</svg>
