<svg width="31" height="31" viewBox="0 0 31 31" fill="none" xmlns="http://www.w3.org/2000/svg">
<path d="M15.9083 0.46875C12.9417 0.468055 10.0415 1.34711 7.57459 2.99474C5.10764 4.64238 3.1847 6.98458 2.04896 9.72514C0.913219 12.4657 0.615697 15.4815 1.19402 18.3912C1.77234 21.3008 3.20054 23.9736 5.29797 26.0715C7.39541 28.1695 10.0679 29.5983 12.9774 30.1773C15.8869 30.7563 18.9028 30.4595 21.6436 29.3244C24.3844 28.1893 26.7271 26.2669 28.3753 23.8003C30.0235 21.3338 30.9033 18.4338 30.9033 15.4673C30.9037 13.4978 30.5162 11.5475 29.7628 9.72784C29.0095 7.90816 27.905 6.25471 26.5126 4.86192C25.1201 3.46914 23.4669 2.3643 21.6474 1.61051C19.8279 0.856724 17.8777 0.46875 15.9083 0.46875V0.46875ZM24.4603 10.2229C24.192 10.4536 23.9077 10.665 23.6096 10.8556C23.6096 10.8556 24.2142 15.1193 20.9453 19.8012C17.6763 24.4832 13.6973 24.6555 10.8537 24.4973C9.07367 24.3501 7.39947 23.5912 6.11549 22.3496C6.11549 22.3496 8.64277 22.4762 9.98198 21.9981C10.7203 21.7575 11.3912 21.3456 11.9398 20.796C11.9398 20.796 9.76054 19.9137 9.25438 19.3443C8.74822 18.7749 8.29127 17.4251 8.29127 17.4251H10.1894C9.429 17.0637 8.72749 16.5897 8.10849 16.0191C7.22271 15.165 6.81146 12.5744 6.81146 12.5744C7.03668 12.8371 7.29144 13.073 7.5707 13.2774C7.9222 13.4989 8.76931 13.309 8.76931 13.309C7.96687 12.7106 7.37986 11.8683 7.09617 10.9083C6.59001 9.26679 7.44767 6.92932 7.44767 6.92932C7.44767 6.92932 8.61465 9.20352 10.6112 10.3705C12.6077 11.5375 14.5691 12.128 15.7817 11.9312C15.7817 11.9312 15.5708 9.26679 16.4847 8.03303C16.9553 7.43193 17.5787 6.96831 18.2899 6.69067C19.001 6.41303 19.7736 6.33156 20.527 6.45479C21.3838 6.65201 22.131 7.17359 22.6114 7.91L25.1387 6.83441L23.3073 9.15783L25.7081 8.57082C25.7081 8.57082 24.6852 10.0014 24.4603 10.2229Z" fill="#C7C8CA"/>
</svg>
