<svg width="30" height="18" viewBox="0 0 30 18" fill="none" xmlns="http://www.w3.org/2000/svg">
<path d="M3.18047 16.5482V16.5482C9.78483 10.23 20.1925 10.23 26.7969 16.5482V16.5482C26.9706 16.7157 27.1773 16.8486 27.405 16.9393C27.6328 17.03 27.877 17.0767 28.1237 17.0767C28.3704 17.0767 28.6146 17.03 28.8423 16.9393C29.0701 16.8486 29.2768 16.7157 29.4505 16.5482C29.8024 16.2116 30 15.7552 30 15.2793C30 14.8033 29.8024 14.3469 29.4505 14.0103L16.3136 1.44656C15.9618 1.11118 15.4854 0.922852 14.9887 0.922852C14.492 0.922852 14.0155 1.11118 13.6637 1.44656L0.526812 14.0103C0.184956 14.3488 -0.00420497 14.8022 7.09443e-05 15.2728C0.00434686 15.7434 0.201715 16.1936 0.549671 16.5263C0.897626 16.8591 1.36833 17.0479 1.86039 17.052C2.35246 17.0561 2.82652 16.8751 3.18047 16.5482Z" fill="#C7C8CA"/>
</svg>
