<svg xmlns="http://www.w3.org/2000/svg" viewBox="0 0 60 48.36"><defs><style>.cls-1{fill:none;}.cls-2{fill:#f2c516;}</style></defs><g id="Layer_2" data-name="Layer 2"><g id="Layer_1-2" data-name="Layer 1"><rect class="cls-1" x="25.36" y="2.94" width="9.28" height="9.28"/><rect class="cls-1" x="25.36" y="36.14" width="9.28" height="9.28"/><polygon class="cls-1" points="28.53 25.65 9.05 25.65 9.05 33.2 13.69 33.2 23.89 33.2 28.53 33.2 28.53 25.65"/><rect class="cls-1" x="2.94" y="36.14" width="9.28" height="9.28"/><polygon class="cls-1" points="50.95 25.65 31.47 25.65 31.47 33.2 36.11 33.2 46.31 33.2 50.95 33.2 50.95 25.65"/><rect class="cls-1" x="47.78" y="36.14" width="9.28" height="9.28"/><path class="cls-2" d="M9.05,25.65H28.53V33.2h2.94V25.65H51V33.2h2.94v-9a1.47,1.47,0,0,0-1.47-1.47h-21V15.16H28.53v7.55h-21a1.47,1.47,0,0,0-1.47,1.47v9H9.05Z"/><path d="M32.82,15.16h3.29a1.47,1.47,0,0,0,1.47-1.47V1.47A1.47,1.47,0,0,0,36.11,0H23.89a1.47,1.47,0,0,0-1.47,1.47V13.69a1.47,1.47,0,0,0,1.47,1.47h8.93Zm-7.46-2.94V2.94h9.28v9.28Z"/><path d="M58.53,33.2H46.31a1.46,1.46,0,0,0-1.47,1.47V46.89a1.47,1.47,0,0,0,1.47,1.47H58.53A1.47,1.47,0,0,0,60,46.89V34.67A1.47,1.47,0,0,0,58.53,33.2ZM57.06,45.42H47.78V36.14h9.28Z"/><path d="M28.53,33.2H23.89a1.47,1.47,0,0,0-1.47,1.47V46.89a1.47,1.47,0,0,0,1.47,1.47H36.11a1.47,1.47,0,0,0,1.47-1.47V34.67a1.47,1.47,0,0,0-1.47-1.47H28.53Zm6.11,12.22H25.36V36.14h9.28Z"/><path d="M6.11,33.2H1.47A1.47,1.47,0,0,0,0,34.67V46.89a1.47,1.47,0,0,0,1.47,1.47H13.69a1.47,1.47,0,0,0,1.47-1.47V34.67a1.46,1.46,0,0,0-1.47-1.47H6.11Zm6.11,12.22H2.94V36.14h9.28Z"/></g></g></svg>