<svg xmlns="http://www.w3.org/2000/svg" xmlns:xlink="http://www.w3.org/1999/xlink" viewBox="0 0 212.9 112.81"><defs><style>.cls-1{fill:url(#linear-gradient);}.cls-2{fill:#1d1b0e;}.cls-3{fill:url(#linear-gradient-2);}.cls-4{fill:url(#linear-gradient-3);}.cls-5{fill:url(#linear-gradient-4);}.cls-6{fill:url(#linear-gradient-6);}.cls-7{fill:url(#linear-gradient-8);}</style><linearGradient id="linear-gradient" x1="86.44" y1="67.91" x2="129.52" y2="40.98" gradientUnits="userSpaceOnUse"><stop offset="0" stop-color="#f2c815"/><stop offset="1" stop-color="#d17c00"/></linearGradient><linearGradient id="linear-gradient-2" x1="147.85" y1="103.83" x2="9.75" y2="103.83" xlink:href="#linear-gradient"/><linearGradient id="linear-gradient-3" x1="147.85" y1="106.2" x2="9.75" y2="106.2" xlink:href="#linear-gradient"/><linearGradient id="linear-gradient-4" x1="147.85" y1="106.03" x2="9.75" y2="106.03" xlink:href="#linear-gradient"/><linearGradient id="linear-gradient-6" x1="147.85" y1="104.41" x2="9.75" y2="104.41" xlink:href="#linear-gradient"/><linearGradient id="linear-gradient-8" x1="147.85" y1="106.36" x2="9.75" y2="106.36" xlink:href="#linear-gradient"/></defs><g id="Layer_2" data-name="Layer 2"><g id="Layer_1-2" data-name="Layer 1"><path class="cls-1" d="M149.29,33.62a94.22,94.22,0,0,0-21.74,13.46h0q-2.25,1.83-4.37,3.71c-3.09,2.74-6,5.53-8.56,8.25A157.15,157.15,0,0,0,97.64,80h0l-19-19L80,59.35,91.54,45.62l6.13,6.14a144.75,144.75,0,0,1,32.58-14.62c.34-.11.69-.21,1-.3A86.88,86.88,0,0,1,149.29,33.62Z"/><path class="cls-2" d="M90.14,30.87a1.4,1.4,0,0,1-.65-.17A1.33,1.33,0,0,1,89,28.91a10.51,10.51,0,0,1,9.1-5.29,1.31,1.31,0,1,1,0,2.62,7.86,7.86,0,0,0-6.82,4A1.32,1.32,0,0,1,90.14,30.87Z"/><path class="cls-2" d="M130,28.55c-1.28-.47-2.53-.92-3.77-1.42A6.86,6.86,0,0,1,122,22.06a7.87,7.87,0,0,1,.86-5c.43-1,.9-2,1.28-2.8.15-.31.29-.6.4-.85L117.81,6.8l-.81.34c-1.48.64-3.1,1.38-4.77,1.93a6.3,6.3,0,0,1-7-2.3,16.65,16.65,0,0,1-1.6-3.15c-.33-.8-.63-1.61-.91-2.41-.15-.4-.3-.81-.44-1.21H93c-.16.41-.31.82-.45,1.22-.46,1.25-.9,2.47-1.38,3.66a6.88,6.88,0,0,1-4.82,4.31,6.84,6.84,0,0,1-4.61-.52c-1.14-.49-2.27-1-3.44-1.54L77,6.53c-1.13,1.12-2.21,2.16-3.28,3.23S71.62,11.9,70.53,13c.2.44.41.87.61,1.29.48,1,.94,2,1.36,2.94,2,4.73.53,8.3-4.21,10.18-1,.4-2,.73-3,1l-1.26.4v9.51l1.26.44a42.64,42.64,0,0,1,4.46,1.69,6,6,0,0,1,3.62,5.88,16.07,16.07,0,0,1-1.25,4.51A18.09,18.09,0,0,1,71.16,53l-.36.73L74.05,57l.27-.32,13-15.44a12.86,12.86,0,1,1,19.78,1.14l-.66.66a12.82,12.82,0,0,1-8.76,3.44,12.64,12.64,0,0,1-5.69-1.33l-.4.47,6.13,6.14a144.75,144.75,0,0,1,32.58-14.62c.34-.11.69-.21,1-.3V29Z"/><path class="cls-3" d="M15.82,101H12.17a3.19,3.19,0,0,0-1.25-2.13A3.86,3.86,0,0,0,8.42,98a4.06,4.06,0,0,0-3.6,1.83,7.12,7.12,0,0,0-1.05,4.05,6.84,6.84,0,0,0,1.05,3.94,4.13,4.13,0,0,0,3.6,1.8,3.6,3.6,0,0,0,2.72-1.08,4.67,4.67,0,0,0,1.17-2.76H16a7.59,7.59,0,0,1-2.34,5.1,7.35,7.35,0,0,1-5.2,1.91,7.94,7.94,0,0,1-6.19-2.59A9.07,9.07,0,0,1,0,103.9a9.29,9.29,0,0,1,2.23-6.43,7.85,7.85,0,0,1,6.19-2.61,7.7,7.7,0,0,1,4.95,1.6A6.56,6.56,0,0,1,15.82,101Z"/><path class="cls-4" d="M17.78,106.21a6.53,6.53,0,0,1,1.76-4.77,6.21,6.21,0,0,1,4.65-1.78,6.26,6.26,0,0,1,4.68,1.78,7.33,7.33,0,0,1,0,9.51,6.27,6.27,0,0,1-4.68,1.79A6.22,6.22,0,0,1,19.54,111,6.47,6.47,0,0,1,17.78,106.21Zm3.41,0a5,5,0,0,0,.65,2.71,2.57,2.57,0,0,0,2.35,1.25c2,0,3-1.32,3-4s-1-4-3-4S21.19,103.55,21.19,106.21Z"/><path class="cls-5" d="M32.83,112.4V100h3.24v1.73h.07a4.17,4.17,0,0,1,3.8-2.06,4.25,4.25,0,0,1,3.62,1.39,6.14,6.14,0,0,1,.91,3.72v7.63H41.06v-7c0-2-.73-3-2.18-3a2.36,2.36,0,0,0-2,.84,4.68,4.68,0,0,0-.62,2.72v6.5Z"/><path class="cls-4" d="M46.46,108.37H49.7a1.91,1.91,0,0,0,.82,1.61,3.53,3.53,0,0,0,3.29.14,1.37,1.37,0,0,0,.74-1.25c0-.48-.34-.86-1-1.15a18.48,18.48,0,0,0-2.85-.77,7.42,7.42,0,0,1-2.72-1,2.61,2.61,0,0,1-1.22-2.3c0-2.66,1.8-4,5.4-4q5.15,0,5.47,4H54.38c-.08-1.12-.85-1.68-2.33-1.68-1.26,0-1.89.38-1.89,1.15,0,.53.4.93,1.2,1.22l2.66.63a7.8,7.8,0,0,1,2.72,1A2.82,2.82,0,0,1,58,108.42a3.73,3.73,0,0,1-1.78,3.38,7.15,7.15,0,0,1-3.89.94,7.24,7.24,0,0,1-3.93-1A4,4,0,0,1,46.46,108.37Z"/><path class="cls-6" d="M64.27,96.27V100h2.5v2.28h-2.5v6.15a1.68,1.68,0,0,0,.29,1.15,1.66,1.66,0,0,0,1.15.29,5.78,5.78,0,0,0,1.06-.1v2.66a12.89,12.89,0,0,1-2,.12c-2.6,0-3.91-1-3.91-3v-7.32H58.8V100h2.06V96.27Z"/><path class="cls-5" d="M68.4,112.4V100h3.24v2.31h0a4,4,0,0,1,1.58-1.9,4.2,4.2,0,0,1,2.38-.74,2.34,2.34,0,0,1,.74.12v3.16a5.54,5.54,0,0,0-1.22-.12q-3.36,0-3.36,4v5.59Z"/><path class="cls-7" d="M89.38,100V112.4H86.13v-1.73h-.07a4.16,4.16,0,0,1-3.79,2.07,4.24,4.24,0,0,1-3.62-1.42,6,6,0,0,1-.91-3.7V100h3.4v7c0,2,.73,3,2.19,3a2.32,2.32,0,0,0,2-.84A4.59,4.59,0,0,0,86,106.5V100Z"/><path class="cls-4" d="M103.75,104.36h-3.34a2.29,2.29,0,0,0-2.52-2.14,2.52,2.52,0,0,0-2.28,1.32,5.53,5.53,0,0,0-.62,2.72,5.09,5.09,0,0,0,.62,2.61,2.4,2.4,0,0,0,2.21,1.3,2.54,2.54,0,0,0,2.71-2.52h3.29a5.58,5.58,0,0,1-1.91,3.77,6.16,6.16,0,0,1-4.06,1.32A6.08,6.08,0,0,1,93.32,111a6.26,6.26,0,0,1-1.74-4.58,6.82,6.82,0,0,1,1.66-4.8,6,6,0,0,1,4.68-1.92,6.46,6.46,0,0,1,3.93,1.15A4.57,4.57,0,0,1,103.75,104.36Z"/><path class="cls-6" d="M110.06,96.27V100h2.5v2.28h-2.5v6.15a1.16,1.16,0,0,0,1.44,1.44,5.78,5.78,0,0,0,1.06-.1v2.66a12.89,12.89,0,0,1-2,.12c-2.6,0-3.91-1-3.91-3v-7.32h-2.06V100h2.06V96.27Z"/><path class="cls-3" d="M117.7,95.26v2.81h-3.41V95.26Zm-3.41,17.14V100h3.41V112.4Z"/><path class="cls-4" d="M120,106.21a6.52,6.52,0,0,1,1.75-4.77,7,7,0,0,1,9.34,0,7.33,7.33,0,0,1,0,9.51,7,7,0,0,1-9.34,0A6.46,6.46,0,0,1,120,106.21Zm3.41,0a5,5,0,0,0,.64,2.71,2.59,2.59,0,0,0,2.36,1.25q3,0,3-4t-3-4Q123.41,102.22,123.41,106.21Z"/><path class="cls-5" d="M135.05,112.4V100h3.24v1.73h.07a4.16,4.16,0,0,1,3.79-2.06,4.25,4.25,0,0,1,3.62,1.39,6.13,6.13,0,0,1,.92,3.72v7.63h-3.41v-7c0-2-.73-3-2.19-3a2.34,2.34,0,0,0-2,.84,4.6,4.6,0,0,0-.63,2.72v6.5Z"/><path class="cls-2" d="M164.71,101h-3.65a3.19,3.19,0,0,0-1.25-2.13,3.86,3.86,0,0,0-2.49-.87,4,4,0,0,0-3.6,1.83,7,7,0,0,0-1.06,4.05,6.76,6.76,0,0,0,1.06,3.94,4.11,4.11,0,0,0,3.6,1.8,3.58,3.58,0,0,0,2.71-1.08,4.74,4.74,0,0,0,1.18-2.76h3.64a7.59,7.59,0,0,1-2.34,5.1,7.34,7.34,0,0,1-5.19,1.91,7.93,7.93,0,0,1-6.19-2.59,9.08,9.08,0,0,1-2.24-6.32,9.29,9.29,0,0,1,2.24-6.43,7.82,7.82,0,0,1,6.19-2.61,7.67,7.67,0,0,1,4.94,1.6A6.56,6.56,0,0,1,164.71,101Z"/><path class="cls-2" d="M167.06,112.4V95.26h3.41v6.46h.07a4.36,4.36,0,0,1,1.66-1.56,4.12,4.12,0,0,1,2-.5,4.25,4.25,0,0,1,3.62,1.39,6.14,6.14,0,0,1,.91,3.72v7.63h-3.41v-7c0-2-.73-3-2.18-3a2.36,2.36,0,0,0-2,.84,4.68,4.68,0,0,0-.62,2.72v6.5Z"/><path class="cls-2" d="M184.56,103.81h-3.41a3.84,3.84,0,0,1,1.94-3.27,7.55,7.55,0,0,1,3.89-.88q5.45,0,5.45,3.52v6.46a5.84,5.84,0,0,0,.43,2.76H189.4a5.08,5.08,0,0,1-.24-1.2,5.49,5.49,0,0,1-4.17,1.54,4.61,4.61,0,0,1-3-.92,3.37,3.37,0,0,1-1.23-2.8,3.26,3.26,0,0,1,1.32-2.84,7.19,7.19,0,0,1,2.91-.93c1.84-.26,2.77-.39,2.81-.41.81-.21,1.22-.62,1.22-1.22a1.49,1.49,0,0,0-.67-1.4,3.14,3.14,0,0,0-1.54-.28C185.42,101.94,184.67,102.56,184.56,103.81ZM189,107.6v-1.27a3.74,3.74,0,0,1-1.78.55,9.81,9.81,0,0,0-2.06.46,1.57,1.57,0,0,0-1,1.53c0,1.06.7,1.59,2.09,1.59C188.1,110.46,189,109.5,189,107.6Z"/><path class="cls-2" d="M198.57,95.26v2.81h-3.4V95.26Zm-3.4,17.14V100h3.4V112.4Z"/><path class="cls-2" d="M201.26,112.4V100h3.24v1.73h.07a4.17,4.17,0,0,1,3.8-2.06,4.25,4.25,0,0,1,3.62,1.39,6.14,6.14,0,0,1,.91,3.72v7.63h-3.41v-7c0-2-.73-3-2.18-3a2.36,2.36,0,0,0-2,.84,4.68,4.68,0,0,0-.62,2.72v6.5Z"/></g></g></svg>