<svg xmlns="http://www.w3.org/2000/svg" viewBox="0 0 100 100"><defs><style>.cls-1{fill:#fff;}.cls-2{fill:none;}</style></defs><g id="Layer_2" data-name="Layer 2"><g id="Layer_1-2" data-name="Layer 1"><path class="cls-1" d="M99.13,43.55a94.63,94.63,0,0,0-21.9,13.56h0c-1.51,1.24-3,2.47-4.41,3.74-3.12,2.76-6,5.57-8.63,8.31A158.56,158.56,0,0,0,47.1,90.27h0L28,71.13l1.4-1.66L41,55.64l6.18,6.18A146.41,146.41,0,0,1,80,47.08c.34-.11.7-.2,1-.3A88.67,88.67,0,0,1,99.13,43.55Z"/><path class="cls-1" d="M39.55,40.78a1.28,1.28,0,0,1-.65-.18,1.33,1.33,0,0,1-.5-1.79,10.57,10.57,0,0,1,9.17-5.34,1.33,1.33,0,1,1,0,2.65,8,8,0,0,0-6.88,4A1.32,1.32,0,0,1,39.55,40.78Z"/><path class="cls-1" d="M79.73,38.45c-1.29-.47-2.54-.93-3.79-1.43a6.85,6.85,0,0,1-4.32-5.11,7.87,7.87,0,0,1,.86-5c.43-1,.91-2,1.29-2.81.14-.31.29-.61.39-.86l-6.75-6.68-.82.34c-1.49.64-3.12,1.4-4.8,1.95a6.32,6.32,0,0,1-7.07-2.31,16.32,16.32,0,0,1-1.62-3.17c-.34-.81-.62-1.61-.91-2.42-.14-.41-.29-.82-.45-1.21H42.43c-.16.41-.3.82-.45,1.23-.46,1.27-.91,2.49-1.39,3.69a6.87,6.87,0,0,1-9.49,3.81c-1.15-.48-2.3-1-3.46-1.55l-1.33-.61c-1.14,1.09-2.23,2.15-3.31,3.22L19.78,22.8c.19.45.41.88.61,1.29.48,1,.95,2,1.36,3,2,4.76.53,8.36-4.25,10.26-1,.4-2,.74-3.06,1.06-.43.12-.84.27-1.27.41v9.58l1.27.45a44.26,44.26,0,0,1,4.5,1.7,6,6,0,0,1,3.63,5.93A16,16,0,0,1,21.32,61a21.15,21.15,0,0,1-.93,2.09c-.15.29-.27.56-.36.73,1.14,1.17,2.22,2.26,3.28,3.32l.26-.32L36.63,51.25a12.78,12.78,0,0,1-2.53-7.66,13,13,0,1,1,22.42,8.83l-.66.66a13,13,0,0,1-14.58,2.13l-.39.48,6.18,6.18A146.41,146.41,0,0,1,79.88,47.13c.34-.1.69-.19,1-.3V39A8.54,8.54,0,0,0,79.73,38.45Z"/><rect class="cls-2" width="100" height="100"/></g></g></svg>