<svg xmlns="http://www.w3.org/2000/svg" viewBox="0 0 60 50.12"><defs><style>.cls-1{fill:#f2c516;}</style></defs><g id="Layer_2" data-name="Layer 2"><g id="Layer_1-2" data-name="Layer 1"><rect class="cls-1" x="15.69" y="45.12" width="28.62" height="5" rx="2.5"/><path d="M54,0H6A6,6,0,0,0,0,6V35.44a6,6,0,0,0,6,6H54a6,6,0,0,0,6-6V6A6,6,0,0,0,54,0ZM27.4,35.54a1.56,1.56,0,0,1-1.56,1.57H8.07a1.56,1.56,0,0,1-1.56-1.57V20.91a1.56,1.56,0,0,1,1.56-1.56H25.84a1.56,1.56,0,0,1,1.56,1.56Zm0-22.37a1.65,1.65,0,0,1-1.65,1.66H8.16a1.65,1.65,0,0,1-1.65-1.66V6A1.65,1.65,0,0,1,8.16,4.34H25.75A1.65,1.65,0,0,1,27.4,6ZM53.49,35.45a1.65,1.65,0,0,1-1.65,1.66H34.25a1.65,1.65,0,0,1-1.65-1.66V28.28a1.65,1.65,0,0,1,1.65-1.66H51.84a1.65,1.65,0,0,1,1.65,1.66Zm0-14.91a1.56,1.56,0,0,1-1.56,1.56H34.16a1.56,1.56,0,0,1-1.56-1.56V5.91a1.56,1.56,0,0,1,1.56-1.57H51.93a1.56,1.56,0,0,1,1.56,1.57Z"/></g></g></svg>