<svg xmlns="http://www.w3.org/2000/svg" viewBox="0 0 55.03 64.88"><defs><style>.cls-1{fill:#f2c516;}</style></defs><g id="Layer_2" data-name="Layer 2"><g id="Layer_1-2" data-name="Layer 1"><path d="M27.51,53.07a2.51,2.51,0,0,1-1.88-.86L24,50.4c-1.17-1.33-2.28-2.6-3.38-3.93A69,69,0,0,1,11.27,32a34.35,34.35,0,0,1-3-9.62,19.45,19.45,0,1,1,38.57-5A24.67,24.67,0,0,1,45.3,28.3a52.07,52.07,0,0,1-6.38,12.16,88,88,0,0,1-9.15,11.27l-.3.39a2.52,2.52,0,0,1-1.9,1ZM27.53,5a13.07,13.07,0,0,0-1.39.07A14.51,14.51,0,0,0,13.22,21.63a29.61,29.61,0,0,0,2.58,8.24A64.5,64.5,0,0,0,24.52,43.3c1,1.17,2,2.31,3,3.5a82,82,0,0,0,7.26-9.15,47.63,47.63,0,0,0,5.79-11,19.88,19.88,0,0,0,1.3-8.75A14.46,14.46,0,0,0,27.53,5Z"/><path d="M27.56,28h-.11a8.72,8.72,0,0,1,.05-17.44h.12A8.72,8.72,0,0,1,27.56,28ZM27.5,15.53a3.72,3.72,0,0,0-2.64,6.31A3.8,3.8,0,0,0,27.51,23h0a3.72,3.72,0,0,0,0-7.44Z"/><path class="cls-1" d="M27.51,64.88C11.83,64.88,0,58.73,0,50.57,0,47,2.36,43.63,6.63,41.08a2.5,2.5,0,0,1,2.56,4.3C7.63,46.31,5,48.22,5,50.57c0,4.39,9.63,9.31,22.51,9.31S50,55,50,50.57c0-2-2-4.1-5.33-5.82A2.5,2.5,0,1,1,47,40.3C52.16,42.94,55,46.58,55,50.57,55,58.73,43.2,64.88,27.51,64.88Z"/></g></g></svg>