<svg xmlns="http://www.w3.org/2000/svg" viewBox="0 0 60 46.33"><defs><style>.cls-1{fill:#f2c516;}</style></defs><g id="Layer_2" data-name="Layer 2"><g id="Layer_1-2" data-name="Layer 1"><path d="M31.05,0A41.39,41.39,0,0,1,58.68,11.38c1.51,1.41,1.7,2.72.69,4.11a2.87,2.87,0,0,1-4.25.6c-1.1-.86-2.08-1.87-3.19-2.7A35.34,35.34,0,0,0,28.06,6,35.36,35.36,0,0,0,6.63,14.65c-.55.47-1.07,1-1.64,1.41a2.79,2.79,0,0,1-4-.21c-1.24-1.31-1.34-2.93.13-4.11A71.23,71.23,0,0,1,9.93,5.25C16.11,1.68,22.9.06,31.05,0Z"/><path d="M30.23,10.1A30.59,30.59,0,0,1,50.33,18c2,1.76,2.31,3.4,1,4.84s-2.9,1.42-4.91-.39a23.41,23.41,0,0,0-9.37-5.28c-8.64-2.45-16.37-.65-23.24,5.08-.38.33-.74.68-1.14,1a2.76,2.76,0,0,1-4-.34,2.86,2.86,0,0,1,.13-4.05,29.71,29.71,0,0,1,9.41-6.23A32.63,32.63,0,0,1,30.23,10.1Z"/><path d="M30.77,20.32a18.21,18.21,0,0,1,12.34,5.2c1.5,1.42,1.64,3.06.4,4.39s-2.79,1.34-4.41-.06c-5.67-5-12.43-5-18.1,0-1.86,1.62-3.82,1.43-4.9-.48-.71-1.28-.52-2.39.65-3.61C20,22.32,25,20.31,30.77,20.32Z"/><path class="cls-1" d="M38,38.37a8.13,8.13,0,0,1-7.88,8,7.94,7.94,0,1,1,0-15.87A8.12,8.12,0,0,1,38,38.37Zm-3.82-2.52C32.75,34,32.76,34,31.36,35.39c-.42.42-.87.82-1.35,1.27l-2.67-2.48-1.62,1.45,2.56,2.77L25.8,41.07l1.45,1.62L30,40.13l2.66,2.48,1.63-1.45-2.56-2.78Z"/></g></g></svg>