<svg xmlns="http://www.w3.org/2000/svg" viewBox="0 0 40.84 84.13"><defs><style>.cls-1{fill:#fff;}</style></defs><g id="Layer_2" data-name="Layer 2"><g id="Layer_1-2" data-name="Layer 1"><path class="cls-1" d="M0,42.1V7.65A7.37,7.37,0,0,1,2.38,2,7.3,7.3,0,0,1,7.61,0H33.12a7.42,7.42,0,0,1,6.55,3.48,7.2,7.2,0,0,1,1.17,4.06q0,11.28,0,22.55,0,20.37,0,40.74c0,1.87,0,3.74,0,5.62a7.43,7.43,0,0,1-7.64,7.67c-4.46,0-8.92,0-13.38,0-4.12,0-8.23,0-12.35,0a7.37,7.37,0,0,1-7.2-5.59A9,9,0,0,1,0,76.33Q0,59.22,0,42.1ZM38.08,69V13.71H2.74V69Zm-17.56,4a3.85,3.85,0,1,0,3.74,4A3.85,3.85,0,0,0,20.52,72.92ZM20.4,6.69h-8c-.2,0-.4,0-.6,0a.76.76,0,0,0-.72.7.76.76,0,0,0,.67.77,3.2,3.2,0,0,0,.44,0H28.63a2.86,2.86,0,0,0,.51,0,.71.71,0,0,0,.64-.77.67.67,0,0,0-.65-.68c-.22,0-.45,0-.67,0Z"/></g></g></svg>