<svg xmlns="http://www.w3.org/2000/svg" viewBox="0 0 60.01 60"><defs><style>.cls-1{fill:#f2c516;}</style></defs><g id="Layer_2" data-name="Layer 2"><g id="Layer_1-2" data-name="Layer 1"><path d="M46.83,25.34l-1.59-1.73-2-2.19-1-1.09-2-2.14L38.79,16.7l-.44-.45-1.43-1.57-1.26-1.33-.07-.09c-.37-.41-.73-.82-1.1-1.22s-.73-.74-1.08-1.12-.6-.69-.92-1C32,9.32,31.43,8.77,30.9,8.21l-.37-.4c-1.84,0-3.66.07-5.48-.08H8.67c-1.27,0-2.54-.07-3.81,0A6.88,6.88,0,0,0,3.66,8,5.09,5.09,0,0,0,1.43,9.38,4.88,4.88,0,0,0,.36,11,3.81,3.81,0,0,0,0,12.74c0,.2,0,.4,0,.6V54.48c0,.33,0,.65,0,1a.81.81,0,0,0,0,.22,5.65,5.65,0,0,0,1.4,2.75,5,5,0,0,0,1.31,1A4.31,4.31,0,0,0,4.83,60H41.45c.24,0,.47,0,.71,0a3.94,3.94,0,0,0,2-.52A5.31,5.31,0,0,0,47,54.85q0-14.37,0-28.74v-.3A.63.63,0,0,0,46.83,25.34Zm-2.52,2.52q0,13.38,0,26.76a2.68,2.68,0,0,1-1.1,2.22,2,2,0,0,1-1.28.45c-.25,0-.5,0-.75,0H5.28A2.32,2.32,0,0,1,4,57a2.32,2.32,0,0,1-1.24-2v-42a2.28,2.28,0,0,1,.94-1.82,2.57,2.57,0,0,1,1.7-.55H28.59a.71.71,0,0,1,.06.45V22.31A5,5,0,0,0,29.48,25,5.21,5.21,0,0,0,31,26.56a4.91,4.91,0,0,0,2.24.83,20.55,20.55,0,0,0,2.35.06c2.76,0,5.53,0,8.29,0h.46Z"/><path d="M60,18.34v-.66l-1.06-1.15-.6-.65-1.79-2-2-2.16-2-2.18c-.59-.64-1.18-1.29-1.77-1.92-.42-.46-.85-.91-1.28-1.36L47.91,4.68l0-.06L46.37,3c-.24-.27-.48-.54-.73-.8s-.57-.58-.85-.88L44,.49c-.15-.16-.29-.33-.43-.49h-26a2.74,2.74,0,0,0-1,.22l-.32.11a4.77,4.77,0,0,0-1.55,1,5.22,5.22,0,0,0-1.67,2.89,2.2,2.2,0,0,0-.07,1,16.65,16.65,0,0,0,2.65,0,.43.43,0,0,0,0-.11,2.71,2.71,0,0,1,.72-1.61,2.4,2.4,0,0,1,1.75-.79H41.43l.27,0v12a1.29,1.29,0,0,0,0,.34,6,6,0,0,0,.54,1.65c.13.23.28.44.4.67a3.67,3.67,0,0,0,1,1,4.72,4.72,0,0,0,2,1,5.5,5.5,0,0,0,1.28.19H57.29V47.31a1.1,1.1,0,0,1,0,.26,3.08,3.08,0,0,1-.65,1.12,2.45,2.45,0,0,1-1.83.79H50l-.42,0a15.74,15.74,0,0,0,0,2.67h5.2a5.62,5.62,0,0,0,2.3-.51A5.13,5.13,0,0,0,60,47Q60,32.69,60,18.34Z"/><path class="cls-1" d="M20.27,45.25c-.14-2-.89-3.25-2.24-3.59v0a3.76,3.76,0,0,0,2.43-3.84,4.06,4.06,0,0,0-1.2-3A4.5,4.5,0,0,0,16,33.53H7.7V48.88h3.37v-6h3.37a2.57,2.57,0,0,1,1.82.54A2.92,2.92,0,0,1,17,45.2c.06.65.12,1.29.17,1.94a7,7,0,0,0,.37,1.74h3.37a3.86,3.86,0,0,1-.51-1.79C20.36,46.48,20.31,45.86,20.27,45.25Zm-5.5-4.78h-3.7V36.15h3.7c1.54,0,2.32.71,2.32,2.13S16.31,40.47,14.77,40.47Z"/><polygon class="cls-1" points="23.21 48.88 26.59 48.88 26.59 42.54 33.02 42.54 33.02 39.92 26.59 39.92 26.59 36.37 34 36.37 34 33.53 23.21 33.53 23.21 48.88"/><rect class="cls-1" x="35.96" y="33.53" width="3.37" height="15.35"/></g></g></svg>