<svg xmlns="http://www.w3.org/2000/svg" viewBox="0 0 60.08 59.56"><defs><style>.cls-1{fill:#f2c516;}</style></defs><g id="Layer_2" data-name="Layer 2"><g id="Layer_1-2" data-name="Layer 1"><path d="M51.49,59.56H8.59A8.6,8.6,0,0,1,0,51V13.16A8.6,8.6,0,0,1,8.59,4.57a2.5,2.5,0,0,1,0,5A3.59,3.59,0,0,0,5,13.16V51a3.59,3.59,0,0,0,3.59,3.59h42.9A3.59,3.59,0,0,0,55.08,51V13.16a3.59,3.59,0,0,0-3.59-3.59,2.5,2.5,0,0,1,0-5,8.6,8.6,0,0,1,8.59,8.59V51A8.6,8.6,0,0,1,51.49,59.56Z"/><path d="M35.75,9.57H24.12a2.5,2.5,0,0,1,0-5H35.75a2.5,2.5,0,0,1,0,5Z"/><path d="M16.77,15.41a2.5,2.5,0,0,1-2.5-2.5V2.5a2.5,2.5,0,0,1,5,0V12.91A2.5,2.5,0,0,1,16.77,15.41Z"/><path d="M43.31,15.41a2.5,2.5,0,0,1-2.5-2.5V2.5a2.5,2.5,0,0,1,5,0V12.91A2.5,2.5,0,0,1,43.31,15.41Z"/><path class="cls-1" d="M18.11,31.09H11.84a2.5,2.5,0,0,1,0-5h6.27a2.5,2.5,0,0,1,0,5Z"/><path d="M33.17,31.09H26.91a2.5,2.5,0,0,1,0-5h6.26a2.5,2.5,0,0,1,0,5Z"/><path d="M48.24,31.09H42a2.5,2.5,0,0,1,0-5h6.26a2.5,2.5,0,0,1,0,5Z"/><path d="M18.11,40.18H11.84a2.5,2.5,0,1,1,0-5h6.27a2.5,2.5,0,0,1,0,5Z"/><path d="M33.17,40.18H26.91a2.5,2.5,0,0,1,0-5h6.26a2.5,2.5,0,0,1,0,5Z"/><path class="cls-1" d="M48.24,40.18H42a2.5,2.5,0,0,1,0-5h6.26a2.5,2.5,0,0,1,0,5Z"/><path d="M18.11,49.27H11.84a2.5,2.5,0,1,1,0-5h6.27a2.5,2.5,0,0,1,0,5Z"/><path class="cls-1" d="M33.17,49.27H26.91a2.5,2.5,0,0,1,0-5h6.26a2.5,2.5,0,0,1,0,5Z"/><path d="M48.24,49.27H42a2.5,2.5,0,0,1,0-5h6.26a2.5,2.5,0,0,1,0,5Z"/></g></g></svg>