<svg xmlns="http://www.w3.org/2000/svg" viewBox="0 0 51.59 55"><defs><style>.cls-1{fill:#f2c516;}</style></defs><g id="Layer_2" data-name="Layer 2"><g id="Layer_1-2" data-name="Layer 1"><path d="M24,5h.24A10.24,10.24,0,0,1,31.5,8.06,10.49,10.49,0,1,1,24,5m0-5A15.49,15.49,0,0,0,24,31h.05a15.49,15.49,0,0,0,.13-31H24Z"/><path d="M15.29,37.64a24,24,0,0,0,6.48,1.57c.78.07,1.57.11,2.34.11h.14A16.4,16.4,0,0,0,28,50H5.06a22.16,22.16,0,0,1,1.68-7.24,8,8,0,0,1,2.5-3.21,8.11,8.11,0,0,1,4.19-1.82,16.73,16.73,0,0,1,1.84-.08h0m.82-5h0c-1.1,0-2.2,0-3.29.13a13.16,13.16,0,0,0-6.7,2.89,13.11,13.11,0,0,0-4,5.17A27.94,27.94,0,0,0,0,51.38,3.56,3.56,0,0,0,3.57,55h0c3.78,0,7.57,0,11.36,0h29.8a3.28,3.28,0,0,0,3.1-2,5.09,5.09,0,0,0,.3-2.65c0-.28,0-.56-.09-.93a12.13,12.13,0,0,1-5.27,2,13.08,13.08,0,0,1-1.53.09,12,12,0,0,1-4-.67,11,11,0,0,1-4.67-3c-4-4.53-4.33-9.48-1.5-14.82l-.75.26-.72.25a18.77,18.77,0,0,1-5.55.84c-.62,0-1.25,0-1.88-.09a19,19,0,0,1-5.69-1.48,1.18,1.18,0,0,0-.43-.13Z"/><path class="cls-1" d="M51.59,36.87c0-.28-.12-.36-.38-.36-.47,0-.93,0-1.4,0a1,1,0,0,1-1-.66,1,1,0,0,1,.34-1.17c.4-.39.78-.8,1.15-1.19l-3-3c-.41.41-.83.81-1.23,1.22A1,1,0,0,1,44.9,32a.94.94,0,0,1-.62-1c0-.48,0-1,0-1.44,0-.25-.1-.38-.38-.38-1.18,0-2.36,0-3.55,0-.3,0-.39.14-.38.41,0,.5,0,1,0,1.48a1,1,0,0,1-1.23,1,1.94,1.94,0,0,1-.69-.46c-.37-.34-.72-.71-1.16-1.14L34.1,33.25a.26.26,0,0,0,0,.43l1,1a1.05,1.05,0,0,1,.33,1.25,1.11,1.11,0,0,1-1.12.6c-.43,0-.87,0-1.31,0-.27,0-.37.11-.37.38V40.4c0,.29.12.39.4.38h1.48a1,1,0,0,1,.92.63,1,1,0,0,1-.2,1.1l-1,1c-.26.27-.26.32,0,.58.83.83,1.66,1.65,2.48,2.49.19.19.32.2.51,0,.37-.38.76-.76,1.15-1.12a.89.89,0,0,1,1-.18,1,1,0,0,1,.63,1c0,.49,0,1,0,1.47,0,.27.09.39.37.39h3.55c.3,0,.4-.13.39-.41,0-.45,0-.9,0-1.35a1,1,0,0,1,.61-1.06,1,1,0,0,1,1.18.31l.9.9c.35.35.37.34.72,0s.62-.61.92-.92l1.72-1.74-1.24-1.25a1,1,0,0,1-.29-1.18,1,1,0,0,1,1-.63h1.4c.26,0,.38-.08.38-.36C51.58,39.24,51.58,38.05,51.59,36.87Zm-9.44,6.06a4.21,4.21,0,0,1-4.28-4.27,4.25,4.25,0,0,1,8.5,0A4.17,4.17,0,0,1,42.15,42.93Z"/></g></g></svg>