<svg xmlns="http://www.w3.org/2000/svg" viewBox="0 0 50.61 60"><defs><style>.cls-1{fill:#f2c516;}</style></defs><g id="Layer_2" data-name="Layer 2"><g id="Layer_1-2" data-name="Layer 1"><path d="M39.56,52.46H4.32A4.33,4.33,0,0,1,0,48.14V32.57a4.33,4.33,0,0,1,4.32-4.32H39.56a4.33,4.33,0,0,1,4.32,4.32V48.14A4.33,4.33,0,0,1,39.56,52.46ZM4.32,31.75a.82.82,0,0,0-.82.82V48.14a.82.82,0,0,0,.82.82H39.56a.82.82,0,0,0,.82-.82V32.57a.82.82,0,0,0-.82-.82Z"/><path class="cls-1" d="M7.82,45.63V35.08h4.76a3.61,3.61,0,0,1,2.81,1.05,3.67,3.67,0,0,1,0,4.67,3.61,3.61,0,0,1-2.81,1.05H10.14v3.78Zm2.32-8.75V40H12a2.83,2.83,0,0,0,1.42-.28,1.67,1.67,0,0,0,0-2.6A2.94,2.94,0,0,0,12,36.88Z"/><path class="cls-1" d="M17.68,45.63V35.08h4.55a4.56,4.56,0,0,1,3.42,1.3A5.33,5.33,0,0,1,27,40.3a5.77,5.77,0,0,1-1.18,3.81,4.46,4.46,0,0,1-3.61,1.52ZM20,37v6.65h2.07A2.44,2.44,0,0,0,23.89,43a3.37,3.37,0,0,0,.81-2.45A4.15,4.15,0,0,0,24.05,38,2.85,2.85,0,0,0,21.66,37Z"/><path class="cls-1" d="M28.63,45.63V35.08h7.42v2H31v2.44h4.42v1.8H31v4.36Z"/><path d="M50.61,15.59q0,18.91,0,37.85a6.28,6.28,0,0,1-2,4.79A6.06,6.06,0,0,1,44.46,60c-1.08,0-2.17,0-3.25,0H11.35a2,2,0,0,1,.21-4H44.23a2.34,2.34,0,0,0,2.2-1.48,2.78,2.78,0,0,0,.17-1.21q0-14.17-.08-28.34,0-3.88,0-7.77c0-.15,0-.3,0-.47H38.33a4.23,4.23,0,0,1-3.12-1.31,4.42,4.42,0,0,1-1.3-3.2c0-2.59,0-5.18,0-7.77,0-.15,0-.3,0-.48H21.45c-2.31,0-4.61,0-6.92,0-1.07,0-2.14,0-3.21,0A2.32,2.32,0,0,0,9.26,5.23a2.56,2.56,0,0,0-.33,1.41q0,8.83,0,17.68H5C5,18.38,5,12.43,5,6.49A6.29,6.29,0,0,1,6,3,6.25,6.25,0,0,1,10.15.16,7.85,7.85,0,0,1,11.68,0L34.87,0a1.22,1.22,0,0,1,1,.4q7.24,7.25,14.5,14.48A.91.91,0,0,1,50.61,15.59Z"/></g></g></svg>