<svg xmlns="http://www.w3.org/2000/svg" viewBox="0 0 48.77 48.77"><defs><style>.cls-1{fill:#f9941c;}</style></defs><g id="Layer_2" data-name="Layer 2"><g id="Layer_1-2" data-name="Layer 1"><path class="cls-1" d="M24,15.27A7.28,7.28,0,0,0,16.74,21c-.14.52-.21,1-.35,1.56a10.1,10.1,0,0,1-.48,1.65,3.37,3.37,0,0,1-1.77,1.9,13.69,13.69,0,0,1-1.58.46,1.24,1.24,0,0,1-.47,0,.83.83,0,0,1-.78-.75.84.84,0,0,1,.81-.89,4.1,4.1,0,0,0,1.2-.32A1.93,1.93,0,0,0,14,24a5.73,5.73,0,0,0,.75-2.17,11.07,11.07,0,0,1,1.58-4.18,8.49,8.49,0,0,1,6.29-3.9A10.77,10.77,0,0,1,34,20.47a17.65,17.65,0,0,1,.57,2.11,8.74,8.74,0,0,1,.09,2.7,16.61,16.61,0,0,1-1.57,6,4.23,4.23,0,0,0-.27.78,2,2,0,0,0,1,2.32c.15.09.32.15.47.25a.8.8,0,0,1,.34.93.82.82,0,0,1-.88.57,1.57,1.57,0,0,1-.55-.19,3.76,3.76,0,0,1-1.77-5.22,14,14,0,0,0,1.2-3.59,11,11,0,0,0,0-5.17,9,9,0,0,0-7-6.46C25.13,15.36,24.57,15.34,24,15.27Z"/><path class="cls-1" d="M28.51,24.56C28,29.08,26.46,33,22.68,35.83a10.5,10.5,0,0,1-3,1.51,6.57,6.57,0,0,0-1,.39.59.59,0,0,0-.35.78,2,2,0,0,1,.06.23.8.8,0,0,1-.53.95.87.87,0,0,1-1.1-.45,2.12,2.12,0,0,1,.55-2.59,4.24,4.24,0,0,1,1.34-.72,10.65,10.65,0,0,0,6.86-6.36,18.44,18.44,0,0,0,.95-2.92,11.61,11.61,0,0,0,.29-3.22A2.93,2.93,0,0,0,25,20.94a1.83,1.83,0,0,0-2.3,1.21,7.55,7.55,0,0,0-.16,1.35,12.23,12.23,0,0,1-.36,2.81,8.34,8.34,0,0,1-4.63,5.19,8.67,8.67,0,0,1-3.31.89,2.07,2.07,0,0,1-.7,0,.77.77,0,0,1-.58-.8.8.8,0,0,1,.58-.74,2.33,2.33,0,0,1,.53-.06,7.51,7.51,0,0,0,5.75-3.33,5.31,5.31,0,0,0,.77-2.34c.06-.43.07-.87.12-1.3.08-.65.14-1.3.27-1.93a3.56,3.56,0,0,1,5.41-2.07,4.57,4.57,0,0,1,2.12,4Z"/><path class="cls-1" d="M24.21,18a4.33,4.33,0,0,0-4.16,2.5,7.78,7.78,0,0,0-.78,3,5.35,5.35,0,0,1-.6,2.08,7.11,7.11,0,0,1-5.6,3.83,1.42,1.42,0,0,1-.46,0,.82.82,0,0,1-.67-.74.84.84,0,0,1,.57-.82,1.77,1.77,0,0,1,.4-.08,6.24,6.24,0,0,0,2-.64,4.51,4.51,0,0,0,2.36-2.9c.19-.76.33-1.54.49-2.31A7.62,7.62,0,0,1,19,19a6.12,6.12,0,0,1,6-2.57,7.77,7.77,0,0,1,6.54,6.05,9.16,9.16,0,0,1-.14,3.76,43,43,0,0,1-1.47,4.63,22.16,22.16,0,0,0-.64,2.29c-.19.89,0,1.24.82,1.67a.81.81,0,0,1,.46,1.07.85.85,0,0,1-1.09.46,2.68,2.68,0,0,1-1.87-1.9,4.19,4.19,0,0,1,.07-2.17c.26-.9.56-1.78.85-2.66.18-.54.37-1.09.57-1.62a17.52,17.52,0,0,0,.83-3.63,4.28,4.28,0,0,0-.06-1.18A5.94,5.94,0,0,0,24.21,18Z"/><path class="cls-1" d="M24.14,10.74c5.69.3,9.83,2.89,12.27,8.06a14.86,14.86,0,0,1,.74,2.06c.21.66,0,1.1-.52,1.24a.92.92,0,0,1-1.14-.76,12.45,12.45,0,0,0-2.32-4.57,11.46,11.46,0,0,0-13.32-3.45,10.33,10.33,0,0,0-5.61,5.83c-.23.55-.39,1.12-.58,1.68a.87.87,0,0,1-.85.7A.83.83,0,0,1,12,20.44a16.29,16.29,0,0,1,.71-2.07A12,12,0,0,1,22,11C22.74,10.84,23.45,10.81,24.14,10.74Z"/><path class="cls-1" d="M24.12,7.91a15.55,15.55,0,0,1,10.45,3.87l.31.28A.83.83,0,0,1,35,13.18a.89.89,0,0,1-1.18.17c-.13-.09-.25-.2-.37-.3A13.63,13.63,0,0,0,25.1,9.61a14,14,0,0,0-9.83,3.12c-.15.12-.3.26-.46.37a.88.88,0,0,1-1.22-.18.83.83,0,0,1,.19-1.16A15.77,15.77,0,0,1,17.9,9.21,15.28,15.28,0,0,1,24.12,7.91Z"/><path class="cls-1" d="M15.46,35.55c-.6,0-1-.3-1-.72a.84.84,0,0,1,.68-.9,26.79,26.79,0,0,0,2.73-.77,9.12,9.12,0,0,0,5.65-6.63,10.73,10.73,0,0,0,.33-2.33,10.59,10.59,0,0,1,.1-1.12.85.85,0,0,1,.89-.78.88.88,0,0,1,.83.77,4.76,4.76,0,0,1,0,1.41,13.08,13.08,0,0,1-2.07,6.23,11.16,11.16,0,0,1-6.82,4.58C16.26,35.4,15.79,35.48,15.46,35.55Z"/><path class="cls-1" d="M25.94,37.2a7.1,7.1,0,0,0-2.08.89,15.76,15.76,0,0,0-2.79,2,1.08,1.08,0,0,1-.8.33.79.79,0,0,1-.73-.51.75.75,0,0,1,.13-.83,3.51,3.51,0,0,1,.34-.33,16.44,16.44,0,0,1,4.17-2.69,9.68,9.68,0,0,1,1.59-.47,1.37,1.37,0,0,1,1.22.3c.28.22.54.46.82.69.46.37.9.77,1.39,1.1a3,3,0,0,0,2.32.46,1.45,1.45,0,0,1,.35,0,.83.83,0,0,1,.84.7.79.79,0,0,1-.6.9,4.74,4.74,0,0,1-2.69-.08,6.62,6.62,0,0,1-2.28-1.36C26.74,37.92,26.35,37.56,25.94,37.2Z"/><path class="cls-1" d="M25.47,39.1a14.59,14.59,0,0,1,1.49.32A7.24,7.24,0,0,1,29.54,41a.81.81,0,0,1,.18,1.2.93.93,0,0,1-1.28.08,15.6,15.6,0,0,0-1.52-1,2.76,2.76,0,0,0-3.48.49c-.28.27-.53.58-.8.87a2.72,2.72,0,0,1-.32.35.86.86,0,0,1-1.1,0,.81.81,0,0,1-.18-1A5.82,5.82,0,0,1,25.47,39.1Z"/><path class="cls-1" d="M37.81,25.3a15.75,15.75,0,0,1-1.41,6.48,3.5,3.5,0,0,1-.25.47A.91.91,0,0,1,35,32.5a.81.81,0,0,1-.39-1,1.87,1.87,0,0,1,.15-.32A12.44,12.44,0,0,0,36,26.32a18.15,18.15,0,0,0-.06-1.95,1,1,0,0,1,.8-1.05.67.67,0,0,1,.39.08,1.12,1.12,0,0,1,.6.84C37.77,24.59,37.78,24.94,37.81,25.3Z"/><path class="cls-1" d="M11.86,48.77h-10A1.89,1.89,0,0,1,0,46.88V36.7a1.89,1.89,0,0,1,3.78,0V45h8.08a1.89,1.89,0,0,1,0,3.78Z"/><path class="cls-1" d="M46.88,48.77h-10a1.89,1.89,0,0,1,0-3.78H45V36.17a1.89,1.89,0,0,1,3.78,0V46.88A1.88,1.88,0,0,1,46.88,48.77Z"/><path class="cls-1" d="M46.88,13A1.89,1.89,0,0,1,45,11.06V3.78H36.88a1.89,1.89,0,0,1,0-3.78h10a1.89,1.89,0,0,1,1.89,1.89v9.17A1.89,1.89,0,0,1,46.88,13Z"/><path class="cls-1" d="M1.89,13A1.89,1.89,0,0,1,0,11.06V1.89A1.89,1.89,0,0,1,1.89,0h9.43a1.89,1.89,0,1,1,0,3.78H3.78v7.28A1.89,1.89,0,0,1,1.89,13Z"/></g></g></svg>