<svg xmlns="http://www.w3.org/2000/svg" viewBox="0 0 61.35 60"><defs><style>.cls-1{fill:#f9941c;}.cls-2{fill:none;stroke:#f9941c;stroke-linecap:round;stroke-linejoin:round;stroke-width:5px;}</style></defs><g id="Layer_2" data-name="Layer 2"><g id="Layer_1-2" data-name="Layer 1"><path class="cls-1" d="M30.54,60a15.86,15.86,0,0,1-13-6.44,17.73,17.73,0,0,1-2.89-17.47,29.84,29.84,0,0,1,4.82-8.23c2.29-3.06,4.62-6.1,7-9.14l2.24-2.93a3.53,3.53,0,0,1,.39-.44l.18-.19a2,2,0,0,1,3.13.17l1.46,2c1,1.33,1.91,2.62,2.87,3.89.86,1.12,1.73,2.24,2.61,3.35,1.32,1.7,2.65,3.4,3.93,5.13a22,22,0,0,1,4.14,8.52A17.74,17.74,0,0,1,44.07,53.3a16.17,16.17,0,0,1-12,6.64C31.56,60,31,60,30.54,60Zm.1-40.14-1,1.32c-2.32,3-4.64,6.06-6.93,9.11a26.53,26.53,0,0,0-4.22,7.11,13.69,13.69,0,0,0,2.25,13.66A12,12,0,0,0,31.77,55.9a12.06,12.06,0,0,0,9.08-5.06h0A13.63,13.63,0,0,0,43.4,39.05a18.29,18.29,0,0,0-3.43-7c-1.26-1.7-2.57-3.36-3.87-5q-1.34-1.69-2.64-3.4C32.51,22.42,31.59,21.16,30.64,19.86Z"/><polyline class="cls-2" points="2.5 25.02 11.03 25.02 30.65 2.5 50.31 25.07 58.85 25.07"/></g></g></svg>