<svg xmlns="http://www.w3.org/2000/svg" viewBox="0 0 55 55"><defs><style>.cls-1{fill:#f9941c;}.cls-2{fill:#280d06;}</style></defs><g id="Layer_2" data-name="Layer 2"><g id="Layer_1-2" data-name="Layer 1"><path class="cls-1" d="M13.37,55H2.13A2.13,2.13,0,0,1,0,52.87V41.39a2.13,2.13,0,0,1,4.26,0v9.35h9.11a2.13,2.13,0,1,1,0,4.26Z"/><path class="cls-1" d="M52.87,55H41.6a2.13,2.13,0,1,1,0-4.26h9.14v-10a2.13,2.13,0,1,1,4.26,0V52.87A2.13,2.13,0,0,1,52.87,55Z"/><path class="cls-1" d="M52.87,14.6a2.13,2.13,0,0,1-2.13-2.13V4.26H41.6A2.13,2.13,0,1,1,41.6,0H52.87A2.13,2.13,0,0,1,55,2.13V12.47A2.13,2.13,0,0,1,52.87,14.6Z"/><path class="cls-1" d="M2.13,14.6A2.13,2.13,0,0,1,0,12.47V2.13A2.13,2.13,0,0,1,2.13,0H12.76a2.13,2.13,0,1,1,0,4.26H4.26v8.21A2.13,2.13,0,0,1,2.13,14.6Z"/><path class="cls-2" d="M27.5,26.84a9,9,0,1,1,9-9A9,9,0,0,1,27.5,26.84Zm0-14.19a5.21,5.21,0,1,0,5.21,5.21A5.22,5.22,0,0,0,27.5,12.65Z"/><path class="cls-2" d="M40.55,46.12a1.88,1.88,0,0,1-1.89-1.89A11.39,11.39,0,0,0,27.5,32.65,11.39,11.39,0,0,0,16.34,44.23a1.89,1.89,0,0,1-3.78,0A15.17,15.17,0,0,1,27.5,28.88,15.17,15.17,0,0,1,42.44,44.23,1.89,1.89,0,0,1,40.55,46.12Z"/></g></g></svg>