<svg xmlns="http://www.w3.org/2000/svg" viewBox="0 0 50.79 42"><defs><style>.cls-1{fill:#f9941c;}</style></defs><g id="Layer_2" data-name="Layer 2"><g id="Layer_1-2" data-name="Layer 1"><path class="cls-1" d="M4.3,19.44H1.43a3.62,3.62,0,0,1-.57,0,.87.87,0,0,1-.74-1.33c.27-.55.59-1.07.9-1.61Q3,13.11,4.9,9.73c1-1.74,2-3.46,3-5.2a1.21,1.21,0,0,1,2.21,0c1.75,3.11,3.57,6.18,5.36,9.27Q16.68,15.9,17.84,18A.91.91,0,0,1,17,19.43c-.6,0-1.19,0-1.78,0-.18,0-.37,0-.56,0A18,18,0,0,0,29.44,33.07a17.83,17.83,0,0,0,14.09-3.56,18.26,18.26,0,0,0,7.12-12.6c1.14,9.16-4.82,21.37-17.85,24.46a22.51,22.51,0,0,1-13.43-.9,22.8,22.8,0,0,1-10.7-8.2A23.31,23.31,0,0,1,4.3,19.44Z"/><path class="cls-1" d="M44.35,5a.23.23,0,0,1,0,.26c-.23.27-.45.54-.69.8-1.56,1.71-3.14,3.42-4.7,5.14s-3.12,3.44-4.68,5.15a2.06,2.06,0,0,1-2.37.59A2.11,2.11,0,0,1,31,13.61a3.39,3.39,0,0,1,.56-.51L39.06,8,43.4,5c.11-.07.21-.15.32-.21C44,4.64,44.12,4.65,44.35,5Z"/><path class="cls-1" d="M45.52,14.59l2.06.13a1,1,0,0,1,.92.87,1,1,0,0,1-.88,1.05,2.9,2.9,0,0,1-.51,0l-2.53-.12a1,1,0,0,1-1.06-.63.92.92,0,0,1,.77-1.29C44.65,14.57,45,14.59,45.52,14.59Z"/><path class="cls-1" d="M38.93,29.42a.92.92,0,0,1-.75.91.87.87,0,0,1-1.07-.54c-.26-.73-.49-1.47-.74-2.21-.1-.32-.23-.64-.3-1a.94.94,0,0,1,1.48-1,.71.71,0,0,1,.28.32c.36,1.1.71,2.2,1.06,3.3A1.36,1.36,0,0,1,38.93,29.42Z"/><path class="cls-1" d="M31.21,29.88c.09-.91.16-1.87.27-2.83a.85.85,0,0,1,.95-.82c.61,0,1,.36,1,.95s-.09,1.21-.14,1.82c0,.34-.06.67-.11,1a3.78,3.78,0,0,1-.13.67.92.92,0,0,1-1,.56.87.87,0,0,1-.77-.8C31.2,30.28,31.21,30.11,31.21,29.88Z"/><path class="cls-1" d="M33.16,2.57c0,.5,0,1,0,1.51a1,1,0,0,1-.87,1,1,1,0,0,1-1-.79A1.12,1.12,0,0,1,31.24,4c0-1,0-1.94,0-2.91a1,1,0,0,1,.57-1,.9.9,0,0,1,1.33.76c0,.57,0,1.14,0,1.71Z"/><path class="cls-1" d="M43.58,19.15a1.42,1.42,0,0,1,.38.1c.94.44,1.87.87,2.79,1.34A.92.92,0,0,1,47,22.15a.82.82,0,0,1-.94.18c-1-.47-2.06-1-3.07-1.47a.9.9,0,0,1-.42-1A1,1,0,0,1,43.58,19.15Z"/><path class="cls-1" d="M40,24a.94.94,0,0,1,.59-1,.87.87,0,0,1,1,.17l1,1.18c.37.41.74.81,1.09,1.24a1,1,0,0,1-.43,1.58.72.72,0,0,1-.86-.2c-.77-.84-1.52-1.69-2.26-2.56A1.08,1.08,0,0,1,40,24Z"/><path class="cls-1" d="M36.92,5.74a1,1,0,0,1-1-1.07,1.05,1.05,0,0,1,.06-.24c.42-1,.83-2,1.28-3a.91.91,0,0,1,1.6-.15.91.91,0,0,1,.1,1c-.4,1-.83,1.94-1.24,2.91A.87.87,0,0,1,36.92,5.74Z"/><path class="cls-1" d="M43.46,12a.88.88,0,0,1-.88-.55.92.92,0,0,1,.17-1.05,1.12,1.12,0,0,1,.37-.24c1-.39,2-.78,3-1.13a.88.88,0,0,1,1.13.53.9.9,0,0,1-.41,1.19c-1.07.44-2.16.83-3.25,1.23A.44.44,0,0,1,43.46,12Z"/><path class="cls-1" d="M25.5,28.75a2,2,0,0,1,.16-.48c.44-.84.89-1.67,1.34-2.51a2.33,2.33,0,0,1,.17-.26.93.93,0,0,1,1.08-.33.83.83,0,0,1,.6.87,1.7,1.7,0,0,1-.17.66c-.44.84-.91,1.67-1.37,2.5a1.56,1.56,0,0,1-.27.35.81.81,0,0,1-.93.2A1,1,0,0,1,25.5,28.75Z"/><path class="cls-1" d="M25.16,23.29a.75.75,0,0,1-.33.72c-.83.67-1.67,1.35-2.53,2A.95.95,0,0,1,21,24.65a1.15,1.15,0,0,1,.22-.22l2.39-1.88a.86.86,0,0,1,1-.12A.88.88,0,0,1,25.16,23.29Z"/></g></g></svg>