<svg xmlns="http://www.w3.org/2000/svg" viewBox="0 0 43.57 42"><defs><style>.cls-1{fill:#f9941c;}</style></defs><g id="Layer_2" data-name="Layer 2"><g id="Layer_1-2" data-name="Layer 1"><path class="cls-1" d="M11.51,28.94l4.83-4.58c.36.41.67.82,1,1.18s.77.68,1.2,1l-4.91,4.65a7.18,7.18,0,0,1,.43,6.38,6.85,6.85,0,0,1-3.21,3.54A7.13,7.13,0,0,1,2.06,30.29,7.2,7.2,0,0,1,11.51,28.94Z"/><path class="cls-1" d="M33.2,7.26a5,5,0,0,1,8-5.81,5,5,0,0,1,.63,6.32,5,5,0,0,1-6.34,1.71l-6.58,6.67A8.85,8.85,0,0,0,26.64,14C28.82,11.71,31,9.51,33.2,7.26Z"/><path class="cls-1" d="M28.22,20.32a5.58,5.58,0,1,1-5.57-5.63A5.58,5.58,0,0,1,28.22,20.32Z"/><path class="cls-1" d="M10.67,12.59a6.72,6.72,0,0,1-9.1-1,6.64,6.64,0,1,1,11.09-1.44L18,14.44a8.34,8.34,0,0,0-2,2.44c-.94-.7-1.79-1.44-2.67-2.15Zm-4-.59a4.73,4.73,0,0,0,0-9.46,4.73,4.73,0,1,0,0,9.46Z"/><path class="cls-1" d="M32.56,32.9l-6-6.27a8.21,8.21,0,0,0,2.25-2.15c1.08,1,2,2.09,3,3.12l3,3.13A5.93,5.93,0,0,1,40,30.54a5.66,5.66,0,0,1,2.83,2.63,5.91,5.91,0,0,1-8.69,7.55A6,6,0,0,1,32.56,32.9ZM37.66,40a4,4,0,1,0,0-8,4,4,0,1,0,0,8Z"/><path class="cls-1" d="M9.94,19h5.32a8.6,8.6,0,0,0,.14,3.11c-1.93.06-3.82,0-5.72,0A4.33,4.33,0,0,1,7,24.37a4.16,4.16,0,0,1-2.74-.12,4.28,4.28,0,0,1,.85-8.2C7.13,15.68,8.85,16.72,9.94,19Z"/><path class="cls-1" d="M33.67,18.69a4.29,4.29,0,0,1,2.46-2.41,4.2,4.2,0,0,1,2.69-.13,4.28,4.28,0,0,1,.1,8.2,4.2,4.2,0,0,1-3.13-.24,4.35,4.35,0,0,1-2.12-2.27H30V18.71C31.22,18.68,32.44,18.71,33.67,18.69Z"/></g></g></svg>