<svg xmlns="http://www.w3.org/2000/svg" xmlns:xlink="http://www.w3.org/1999/xlink" viewBox="0 0 350 214.3"><defs><style>.cls-1{fill:url(#linear-gradient);}.cls-2{opacity:0.75;fill:url(#linear-gradient-2);}.cls-3{opacity:0.35;fill:url(#linear-gradient-3);}.cls-4{fill:url(#linear-gradient-4);}.cls-5{fill:url(#linear-gradient-5);}.cls-6{fill:url(#linear-gradient-6);}.cls-7{fill:url(#linear-gradient-7);}.cls-8{fill:url(#linear-gradient-8);}.cls-9{fill:url(#linear-gradient-9);}.cls-10{fill:url(#linear-gradient-10);}.cls-11{fill:url(#linear-gradient-11);}.cls-12{fill:url(#linear-gradient-12);}.cls-13{fill:url(#linear-gradient-13);}.cls-14{fill:#2f130b;}</style><linearGradient id="linear-gradient" x1="192.07" y1="-30.57" x2="106.68" y2="117.33" gradientUnits="userSpaceOnUse"><stop offset="0" stop-color="#ffe300"/><stop offset="0.51" stop-color="#f58220"/><stop offset="1" stop-color="#cc5927"/></linearGradient><linearGradient id="linear-gradient-2" x1="223.82" y1="-12.45" x2="135.12" y2="141.18" xlink:href="#linear-gradient"/><linearGradient id="linear-gradient-3" x1="255.73" y1="5.98" x2="167.03" y2="159.61" xlink:href="#linear-gradient"/><linearGradient id="linear-gradient-4" x1="230.62" y1="188.02" x2="74.88" y2="194.81" gradientUnits="userSpaceOnUse"><stop offset="0" stop-color="#86281a"/><stop offset="0.57" stop-color="#e46f20"/><stop offset="1" stop-color="#ff9536"/></linearGradient><linearGradient id="linear-gradient-5" x1="230.84" y1="192.89" x2="75.09" y2="199.68" xlink:href="#linear-gradient-4"/><linearGradient id="linear-gradient-6" x1="230.88" y1="193.98" x2="75.14" y2="200.77" xlink:href="#linear-gradient-4"/><linearGradient id="linear-gradient-7" x1="230.93" y1="194.95" x2="75.18" y2="201.74" xlink:href="#linear-gradient-4"/><linearGradient id="linear-gradient-8" x1="230.98" y1="196.23" x2="75.23" y2="203.02" xlink:href="#linear-gradient-4"/><linearGradient id="linear-gradient-9" x1="231.03" y1="197.3" x2="75.28" y2="204.09" xlink:href="#linear-gradient-4"/><linearGradient id="linear-gradient-10" x1="230.9" y1="194.43" x2="75.16" y2="201.22" xlink:href="#linear-gradient-4"/><linearGradient id="linear-gradient-11" x1="230.93" y1="195.01" x2="75.18" y2="201.8" xlink:href="#linear-gradient-4"/><linearGradient id="linear-gradient-12" x1="231.12" y1="199.53" x2="75.38" y2="206.31" xlink:href="#linear-gradient-4"/><linearGradient id="linear-gradient-13" x1="231.18" y1="200.8" x2="75.43" y2="207.59" xlink:href="#linear-gradient-4"/></defs><g id="Layer_2" data-name="Layer 2"><g id="Layer_1-2" data-name="Layer 1"><path class="cls-1" d="M245.24.13C242.86,3.19,202.64,53.47,135.35,50v83.84L133,132l-.31-.24A71.09,71.09,0,0,1,105.08,80L103.5,54.41V0C121,14.9,146.31,24.21,174.42,24.21S227.69,14.9,245.24.13Z"/><path class="cls-2" d="M245.38,0s-14.26,66.92-71,78.76v85.11l-39.07-30V50C202.64,53.47,242.86,3.19,245.24.13Z"/><path class="cls-3" d="M245.38,0V53.74L243.73,80a70.83,70.83,0,0,1-27.58,51.82l-41.73,32.08V78.76C231.12,66.92,245.38,0,245.38,0Z"/><path class="cls-4" d="M23.48,192.85a12.72,12.72,0,0,1-.86,4.53A9.18,9.18,0,0,1,20.19,201a9.51,9.51,0,0,1-4,2.18,21.65,21.65,0,0,1-5.14.52H7.63v9.78H0V182.31H10.2c1.35,0,2.49,0,3.42.1a15.55,15.55,0,0,1,3.2.64,7.89,7.89,0,0,1,3,1.53A10.31,10.31,0,0,1,23.48,192.85Zm-7.63.12A3,3,0,0,0,14.42,190a8.5,8.5,0,0,0-3.84-.73H7.63v7.41h3.25a7,7,0,0,0,3.64-.8A3.14,3.14,0,0,0,15.85,193Z"/><path class="cls-5" d="M38.36,196.35a8.48,8.48,0,0,0-4.11.94c-.94.58-1.41,1.7-1.41,3.35V213.5h-7V190.11h6.58v2.48h.08c1.12-2.19,3.08-3.28,5.86-3.28Z"/><path class="cls-6" d="M64.12,202.08a9.63,9.63,0,0,1-.17,1.85H46.41a4.85,4.85,0,0,0,1.83,3.23,5.78,5.78,0,0,0,3.65,1.2,5.23,5.23,0,0,0,4.26-2.19h7.16A14.08,14.08,0,0,1,58.74,212a11.2,11.2,0,0,1-6.85,2.23A12.36,12.36,0,0,1,39.5,201.87,12.28,12.28,0,0,1,43.08,193a12.2,12.2,0,0,1,17.52,0A12.69,12.69,0,0,1,64.12,202.08Zm-7-2.87a4.83,4.83,0,0,0-1.9-2.93,6,6,0,0,0-6.83,0,4.82,4.82,0,0,0-1.89,2.93Z"/><path class="cls-7" d="M89.7,190.11,81.27,213.5h-6.7l-8.39-23.39h7.25l4.47,14.58H78l4.47-14.58Z"/><path class="cls-8" d="M115.88,202.08a9.63,9.63,0,0,1-.17,1.85H98.18a4.77,4.77,0,0,0,1.83,3.23,5.74,5.74,0,0,0,3.65,1.2,5.23,5.23,0,0,0,4.25-2.19h7.17a14.16,14.16,0,0,1-4.57,5.86,11.22,11.22,0,0,1-6.85,2.23,12.38,12.38,0,0,1-12.4-12.39A12.29,12.29,0,0,1,94.85,193a12.18,12.18,0,0,1,17.51,0A12.65,12.65,0,0,1,115.88,202.08Zm-7-2.87a4.82,4.82,0,0,0-1.89-2.93,6,6,0,0,0-6.83,0,4.79,4.79,0,0,0-1.9,2.93Z"/><path class="cls-9" d="M141.42,213.5h-7V200.73a7,7,0,0,0-.76-3.58,3.11,3.11,0,0,0-2.91-1.27,3.51,3.51,0,0,0-3.14,1.29,6.36,6.36,0,0,0-.87,3.6V213.5h-7V190.11h6.53v2.48h.09a6.91,6.91,0,0,1,6.36-3.28,10.58,10.58,0,0,1,3.21.54,8.24,8.24,0,0,1,2.78,1.48c1.8,1.49,2.69,4,2.69,7.54Z"/><path class="cls-10" d="M158,195.42h-3.37V213.5h-7V195.42h-3.45v-5.31h3.45v-7.8h7v7.8H158Z"/><path class="cls-11" d="M168.07,187.62h-7v-5.31h7Zm0,25.88h-7V190.11h7Z"/><path class="cls-12" d="M194.83,190.11,186.4,213.5h-6.7l-8.39-23.39h7.25L183,204.69h.08l4.47-14.58Z"/><path class="cls-13" d="M221,202.08a9.63,9.63,0,0,1-.17,1.85H203.31a4.77,4.77,0,0,0,1.83,3.23,5.74,5.74,0,0,0,3.65,1.2,5.23,5.23,0,0,0,4.25-2.19h7.17a14.16,14.16,0,0,1-4.57,5.86,11.22,11.22,0,0,1-6.85,2.23,12.38,12.38,0,0,1-12.4-12.39A12.29,12.29,0,0,1,200,193a12.18,12.18,0,0,1,17.51,0A12.65,12.65,0,0,1,221,202.08Zm-7-2.87a4.82,4.82,0,0,0-1.89-2.93,6,6,0,0,0-6.83,0,4.79,4.79,0,0,0-1.9,2.93Z"/><path class="cls-14" d="M256.12,201.82a15.51,15.51,0,0,1-5.71,8.9,16.72,16.72,0,0,1-21.69-1.33,16.24,16.24,0,0,1,0-23,16,16,0,0,1,11.6-4.66,16.57,16.57,0,0,1,7.84,1.89,16,16,0,0,1,5.9,5.44,13.05,13.05,0,0,1,2.1,5.1h-8.34a8.57,8.57,0,0,0-2.95-3.94,7.51,7.51,0,0,0-4.6-1.49,7.62,7.62,0,0,0-6,2.67,9.45,9.45,0,0,0-2.34,6.43,9.75,9.75,0,0,0,2.34,6.51,7.55,7.55,0,0,0,6.05,2.76,7.27,7.27,0,0,0,4.46-1.43,9.49,9.49,0,0,0,3-3.84Z"/><path class="cls-14" d="M281.63,213.5h-7V200.77q0-4.89-3.75-4.89c-2.62,0-3.92,1.55-3.92,4.64v13h-7V182.31h7v9.95H267q1.65-3,6-2.95a7.87,7.87,0,0,1,6.36,2.57,7.71,7.71,0,0,1,1.56,2.78,10.67,10.67,0,0,1,.57,2.59c.05.69.07,1.75.07,3.18Z"/><path class="cls-14" d="M311.18,213.5h-7V211h-.09a5.45,5.45,0,0,1-2.8,2.51,10.07,10.07,0,0,1-4,.82,11,11,0,0,1-8.52-3.58,13.76,13.76,0,0,1,0-17.79,10.92,10.92,0,0,1,8.48-3.62,9.78,9.78,0,0,1,4,.82,6,6,0,0,1,2.84,2.46h.09v-2.48h7Zm-7-11.72a5.8,5.8,0,0,0-1.67-4.25,5.67,5.67,0,0,0-4.23-1.69,5.39,5.39,0,0,0-4.15,1.75,6,6,0,0,0-1.63,4.28,5.73,5.73,0,0,0,1.69,4.17,5.87,5.87,0,0,0,8.32,0A5.9,5.9,0,0,0,304.18,201.78Z"/><path class="cls-14" d="M323.27,187.62h-7v-5.31h7Zm0,25.88h-7V190.11h7Z"/><path class="cls-14" d="M350,213.5h-7V200.73a6.93,6.93,0,0,0-.76-3.58,3.08,3.08,0,0,0-2.9-1.27,3.53,3.53,0,0,0-3.15,1.29,6.45,6.45,0,0,0-.86,3.6V213.5h-7V190.11h6.54v2.48H335a6.93,6.93,0,0,1,6.37-3.28,10.47,10.47,0,0,1,3.2.54,8.24,8.24,0,0,1,2.78,1.48q2.7,2.23,2.7,7.54Z"/></g></g></svg>