<svg xmlns="http://www.w3.org/2000/svg" viewBox="0 0 141.88 163.87"><defs><style>.cls-1,.cls-2,.cls-3{fill:#fff;}.cls-2{opacity:0.75;}.cls-3{opacity:0.35;}</style></defs><g id="Layer_2" data-name="Layer 2"><g id="Layer_1-2" data-name="Layer 1"><path class="cls-1" d="M141.74.13C139.36,3.19,99.14,53.47,31.85,50v83.84L29.46,132l-.3-.24A71.06,71.06,0,0,1,1.58,80L0,54.41V0C17.52,14.9,42.81,24.21,70.92,24.21S124.19,14.9,141.74.13Z"/><path class="cls-2" d="M141.88,0s-14.26,66.92-71,78.76v85.11l-39.07-30V50C99.14,53.47,139.36,3.19,141.74.13Z"/><path class="cls-3" d="M141.88,0V53.74L140.23,80a70.85,70.85,0,0,1-27.57,51.82L70.92,163.87V78.76C127.62,66.92,141.88,0,141.88,0Z"/></g></g></svg>