<svg xmlns="http://www.w3.org/2000/svg" viewBox="0 0 65 59"><defs><style>.cls-1{fill:#280d06;}.cls-2{fill:#f9941c;}</style></defs><g id="Layer_2" data-name="Layer 2"><g id="Layer_1-2" data-name="Layer 1"><path class="cls-1" d="M20.45,59a2.5,2.5,0,0,1,0-5h36A3.43,3.43,0,0,0,60,50.47v-36A3.42,3.42,0,0,0,56.51,11H54c-2.07,0-4.14,0-6.2,0a4.37,4.37,0,0,1-3-1.32c-.8-.83-1.57-1.68-2.35-2.53S41.1,5.71,40.45,5c-5.29,0-10.63,0-15.9,0-.65.69-1.29,1.4-1.93,2.1s-1.56,1.71-2.36,2.54a4.43,4.43,0,0,1-3,1.31c-2.05,0-4.1,0-6.15,0H8.48A3.42,3.42,0,0,0,5,14.51q0,18,0,36A2.5,2.5,0,0,1,2.51,53h0A2.49,2.49,0,0,1,0,50.49q0-18,0-36A8.41,8.41,0,0,1,8.47,6h2.62C13,6,14.94,6,16.86,6c.7-.73,1.38-1.48,2.07-2.23s1.48-1.63,2.24-2.42a4.25,4.25,0,0,1,3-1.3c5.53,0,11.15,0,16.71,0a4.28,4.28,0,0,1,3,1.29Q45,2.52,46.08,3.75c.69.75,1.37,1.5,2.07,2.23C50.08,6,52,6,54,6h2.56A8.42,8.42,0,0,1,65,14.5v36A8.45,8.45,0,0,1,56.45,59ZM48.34,6.18h0ZM24.78,4.78h0ZM32.58,50h0A17.46,17.46,0,0,1,20.2,44.86a17.18,17.18,0,0,1-5.15-12.28A17.52,17.52,0,0,1,32.52,15.05h0a2.5,2.5,0,0,1,0,5h0A12.51,12.51,0,0,0,20.05,32.58a12.19,12.19,0,0,0,3.67,8.73A12.51,12.51,0,0,0,32.58,45h0A12.52,12.52,0,0,0,45,32.61a2.5,2.5,0,0,1,2.5-2.5h0a2.5,2.5,0,0,1,2.5,2.5A17.59,17.59,0,0,1,32.58,50Z"/><path class="cls-2" d="M32.53,24.13a8.37,8.37,0,1,1-8.39,8.28A8.28,8.28,0,0,1,32.53,24.13Z"/></g></g></svg>