<svg xmlns="http://www.w3.org/2000/svg" viewBox="0 0 55 55"><defs><style>.cls-1{fill:#280d06;}.cls-2{fill:#f9941c;}</style></defs><g id="Layer_2" data-name="Layer 2"><g id="Layer_1-2" data-name="Layer 1"><path class="cls-1" d="M48.08,41.61c-.76.12-40.7.09-41.16,0,0-.18,0-.37,0-.56q0-5.82,0-11.64V17c0-.23,0-.47,0-.7a2.64,2.64,0,0,1,2.61-2.59c3.09,0,6.19,0,9.28,0h3.38a3.44,3.44,0,0,1,3.21,1.94,11.14,11.14,0,0,0,.69,1.09A3.2,3.2,0,0,0,28.71,18c2.2,0,4.4,0,6.6,0,3.38,0,6.76,0,10.14,0a2.74,2.74,0,0,1,2.68,2.7c0,2.81,0,5.62,0,8.43,0,3.93,0,7.87,0,11.8C48.11,41.17,48.09,41.38,48.08,41.61Zm-30-10-2.72-3.06-2.28,1.05a1.29,1.29,0,0,0-.3.22A2.35,2.35,0,0,0,12,31.54l-.51,3.88c-.07.62-.14,1.24-.22,1.91,1.17.07,2.29,0,3.41,0h3.43c1.13,0,2.25,0,3.38,0s2.27,0,3.44,0c0-.41-.08-.77-.12-1.12-.2-1.56-.43-3.11-.59-4.68a2.52,2.52,0,0,0-1.55-2.14c-.44-.2-.89-.38-1.33-.56-.18-.07-.37-.12-.57-.19Zm3.63-7.72A3.61,3.61,0,0,0,18,20.23a3.63,3.63,0,1,0,.08,7.25A3.62,3.62,0,0,0,21.69,23.92Zm7.12,5.77c0,.87,0,1.66,0,2.52H40c1.24,0,2.49,0,3.77,0,0-.87,0-1.66,0-2.49Zm9.61-5.11c-.81-.13-9.15-.1-9.61,0a22.33,22.33,0,0,0,0,2.44c3.21,0,6.36,0,9.57,0C38.44,26.19,38.45,25.4,38.42,24.58Zm5.34,10.29c-.73-.11-7.85-.07-8.24,0a7.06,7.06,0,0,0,0,2.41c.71.11,7.77.08,8.19-.05Zm-11,2.47a7.29,7.29,0,0,0,0-2.52c-1.27,0-2.57,0-3.84,0a7.49,7.49,0,0,0,0,2.51Z"/><path class="cls-2" d="M4.33,31.34V44.06l.11.11,0,0,.27,0H50.4a2,2,0,0,0,.22-.05c0-.21,0-.44,0-.66q0-5.05,0-10.09c0-.48,0-1,0-1.45,0-.17,0-.35,0-.55a2.69,2.69,0,0,1,.44-.06h1.24A2.56,2.56,0,0,1,55,34q0,9.24,0,18.46A2.56,2.56,0,0,1,52.39,55H2.93a3.77,3.77,0,0,1-1-.09A2.54,2.54,0,0,1,0,52.41c0-1.84,0-3.68,0-5.52C0,42.6,0,38.3,0,34a2.58,2.58,0,0,1,1.08-2.17,2.33,2.33,0,0,1,1.44-.5Z"/><path class="cls-1" d="M48.13,16.16c-.47-.17-.83-.32-1.21-.43a6.75,6.75,0,0,0-1.85-.23c-5.35,0-10.7,0-16,0a1.32,1.32,0,0,1-1.35-.82,6.17,6.17,0,0,0-2.94-2.94,5.9,5.9,0,0,0-2.5-.54c-4.26,0-8.51,0-12.77,0a5.86,5.86,0,0,0-2,.44l-.51.19c0-.19,0-.34-.06-.49,0-.61,0-1.22,0-1.82A2.61,2.61,0,0,1,9.51,6.87c2.52,0,5,0,7.56,0h5.1a3.34,3.34,0,0,1,3,1.67c.13.22.26.43.38.65a3.44,3.44,0,0,0,3.25,2h7c3.21,0,6.41,0,9.61,0a2.69,2.69,0,0,1,2.71,2.71C48.1,14.61,48.13,15.35,48.13,16.16Z"/><path class="cls-1" d="M6.87,5V2.6A2.56,2.56,0,0,1,9.46,0h4.77c2.61,0,5.22,0,7.83,0a3.48,3.48,0,0,1,3.29,1.91,5.73,5.73,0,0,0,1.07,1.52,3.54,3.54,0,0,0,2.48.86H45.52a2.43,2.43,0,0,1,2.19,1.22,2.43,2.43,0,0,1,.39,1.09c.06.79,0,1.58,0,2.36a1.26,1.26,0,0,1-.07.28l-.43-.15a6.52,6.52,0,0,0-2.4-.46c-5.42,0-10.84,0-16.25,0a1.25,1.25,0,0,1-1.27-.78,6.24,6.24,0,0,0-2-2.41,5.78,5.78,0,0,0-3.52-1.11H10.92a15.25,15.25,0,0,0-2,.07,13.91,13.91,0,0,0-1.65.45Z"/></g></g></svg>