<svg xmlns="http://www.w3.org/2000/svg" viewBox="0 0 57.15 59.85"><defs><style>.cls-1{fill:#280d06;}.cls-2{fill:#f9941c;}</style></defs><g id="Layer_2" data-name="Layer 2"><g id="Layer_1-2" data-name="Layer 1"><path class="cls-1" d="M54,28.34H3.11A3.11,3.11,0,0,0,0,31.45v8.39A3.11,3.11,0,0,0,3.11,43H54a3.12,3.12,0,0,0,3.11-3.11V31.45A3.11,3.11,0,0,0,54,28.34ZM6.85,37.68a2,2,0,1,1,2-2A2,2,0,0,1,6.85,37.68Zm7,0a2,2,0,1,1,2-2A2,2,0,0,1,13.88,37.68Zm38.55-1.31a1.27,1.27,0,0,1-1.27,1.27H41.49a1.27,1.27,0,0,1-1.27-1.27V34.92a1.26,1.26,0,0,1,1.27-1.27h9.67a1.27,1.27,0,0,1,1.27,1.27Z"/><path class="cls-2" d="M32.08,50.83H30.5V46.4H26.64v4.43H25.07a2.23,2.23,0,0,0-2.23,2.23v4.56a2.23,2.23,0,0,0,2.23,2.23h7a2.23,2.23,0,0,0,2.23-2.23V53.06A2.23,2.23,0,0,0,32.08,50.83Z"/><path class="cls-2" d="M45.3,53.41H37.91v3.86H45.3a.88.88,0,0,0,.88-.88v-2.1A.87.87,0,0,0,45.3,53.41Z"/><path class="cls-2" d="M11,54.29v2.1a.89.89,0,0,0,.88.88h7.4V53.41h-7.4A.88.88,0,0,0,11,54.29Z"/><path class="cls-1" d="M38.54,9.94a10.19,10.19,0,0,1-9.89,10,10.19,10.19,0,0,1-10-10A10.18,10.18,0,0,1,28.6,0,10.19,10.19,0,0,1,38.54,9.94ZM33.75,6.77C32,4.47,32,4.47,30.27,6.19c-.54.53-1.09,1-1.7,1.6L25.22,4.67l-2,1.82L26.39,10l-3.11,3.34,1.82,2,3.49-3.21,3.34,3.11,2-1.82L30.75,10Z"/><path class="cls-1" d="M45,7.48A5.8,5.8,0,0,0,40.7,4.9a12.61,12.61,0,0,1,1.08,5A13.52,13.52,0,0,1,28.67,23.17,13.51,13.51,0,0,1,15.37,9.85,12.79,12.79,0,0,1,16.45,4.9,5.79,5.79,0,0,0,12.1,7.48L.64,26.59a3.36,3.36,0,0,1,2.47-1H54a3.38,3.38,0,0,1,2.47,1Z"/></g></g></svg>