<svg xmlns="http://www.w3.org/2000/svg" viewBox="0 0 55.27 55"><defs><style>.cls-1{fill:#280d06;}.cls-2{fill:#f9941c;}</style></defs><g id="Layer_2" data-name="Layer 2"><g id="Layer_1-2" data-name="Layer 1"><path class="cls-1" d="M1.87,13c0,.4,0,.76,0,1.11,0,2.15,0,4.29,0,6.44,0,3.75,0,7.5,0,11.25,0,2.86,0,5.73,0,8.59a1.89,1.89,0,0,0,1.85,1.85c2.09,0,4.18,0,6.28,0h3.16c.16,0,.32,0,.53.05V44a3.44,3.44,0,0,1-.45,0H4.89c-.43,0-.85,0-1.27,0A3.64,3.64,0,0,1,.39,42a4.06,4.06,0,0,1-.39-2C0,38,0,36,0,34s0-4.22,0-6.32c0-3.73,0-7.45,0-11.18C0,13.66,0,10.82,0,8A5.76,5.76,0,0,1,.2,6,3.39,3.39,0,0,1,3.1,3.67a8.38,8.38,0,0,1,1.23-.08H26.9l5.51,0,1.77,0,.34,0c0-.21.09-.42.13-.63A3.3,3.3,0,0,1,36.38.5a3.7,3.7,0,0,1,2-.48c1.3,0,2.59,0,3.89,0h3l2.89,0a3.76,3.76,0,0,1,2.11.61,2.3,2.3,0,0,1,1,1.19c.18.56.34,1.12.54,1.75a3.29,3.29,0,0,0,.36.06,3.41,3.41,0,0,1,3.1,3.48c0,1.33,0,2.67,0,4v6.24c0,3.16,0,6.32,0,9.48,0,2.81,0,5.63,0,8.44,0,1.65,0,3.31,0,5a3.62,3.62,0,0,1-1.93,3.4,3.59,3.59,0,0,1-1.7.41h-9.4a4,4,0,0,1-.51-.06V42.26a3.22,3.22,0,0,1,.39,0h7.28c.79,0,1.59,0,2.38,0a1.68,1.68,0,0,0,1.65-1.61c0-1.69,0-3.39,0-5.08,0-1,0-2.06,0-3.08,0-2.37,0-4.73,0-7.09q0-5.68,0-11.37V13a2.13,2.13,0,0,0-.35-.06H2.47C2.28,13,2.1,13,1.87,13ZM50.28,8.35a1.68,1.68,0,0,0-1.65-1.73,1.77,1.77,0,0,0-1.71,1.69A1.75,1.75,0,0,0,48.59,10,1.67,1.67,0,0,0,50.28,8.35Zm-13.74,0A1.65,1.65,0,0,0,38.24,10,1.68,1.68,0,0,0,39.9,8.35a1.71,1.71,0,0,0-1.63-1.72A1.66,1.66,0,0,0,36.54,8.32Zm5.21,0A1.68,1.68,0,0,0,43.43,10,1.75,1.75,0,0,0,45.1,8.31a1.73,1.73,0,0,0-1.7-1.68A1.68,1.68,0,0,0,41.75,8.35Z"/><path class="cls-2" d="M27.66,30.38c.5,0,1,0,1.47.12a.91.91,0,0,1,.83,1,3,3,0,0,1,0,.42,1.22,1.22,0,0,0,.77,1.25c.54.22,1.07.45,1.61.65a1.15,1.15,0,0,0,1.19-.22c.17-.14.3-.31.46-.47a.83.83,0,0,1,1.26,0c.69.67,1.38,1.34,2.06,2a.86.86,0,0,1,0,1.19,5.93,5.93,0,0,1-.43.44,1.23,1.23,0,0,0-.29,1.38c.2.52.41,1,.63,1.54a1.09,1.09,0,0,0,1.15.72h.46a.91.91,0,0,1,1,.85c.07.76.07,1.51.08,2.27a2.89,2.89,0,0,1-.08.72.91.91,0,0,1-.94.79h-.66a1.13,1.13,0,0,0-1,.7c-.24.54-.47,1.09-.67,1.64a1.12,1.12,0,0,0,.32,1.3c.13.12.27.24.39.37a.87.87,0,0,1,0,1.22c-.68.72-1.39,1.41-2.1,2.1a.87.87,0,0,1-1.19,0c-.15-.13-.29-.28-.44-.43a1.11,1.11,0,0,0-1.27-.27c-.53.2-1.06.41-1.57.64a1.1,1.1,0,0,0-.69,1c0,.23,0,.46,0,.69a1,1,0,0,1-.88,1,12.26,12.26,0,0,1-2.84,0,1,1,0,0,1-.89-1c0-.22,0-.44,0-.66a1.08,1.08,0,0,0-.65-1c-.56-.24-1.11-.47-1.67-.69a1.07,1.07,0,0,0-1.18.23c-.16.14-.29.29-.44.44a.88.88,0,0,1-1.36,0c-.57-.54-1.12-1.1-1.68-1.65l-.3-.3a.86.86,0,0,1,0-1.21c.16-.19.34-.36.5-.54a1,1,0,0,0,.24-1.17c-.22-.55-.44-1.1-.69-1.63a1.16,1.16,0,0,0-1.07-.7c-.24,0-.49,0-.73,0a.89.89,0,0,1-.85-.81,10.61,10.61,0,0,1,0-3,.81.81,0,0,1,.8-.74c.23,0,.46,0,.69,0a1.21,1.21,0,0,0,1.17-.79c.2-.5.42-1,.59-1.51a1.19,1.19,0,0,0-.32-1.37c-.13-.12-.26-.24-.38-.37a.85.85,0,0,1,0-1.21c.18-.22.39-.41.58-.61.45-.46.92-.91,1.35-1.38a.91.91,0,0,1,1.46,0c.07.09.17.16.25.25a1.23,1.23,0,0,0,1.41.31c.52-.18,1-.42,1.53-.64A1.18,1.18,0,0,0,25.34,32v-.53a.84.84,0,0,1,.76-.92C26.62,30.44,27.15,30.42,27.66,30.38Zm.06,5.67A6.67,6.67,0,0,0,21,42.73a6.65,6.65,0,1,0,13.29-.25A6.7,6.7,0,0,0,27.72,36.05Z"/></g></g></svg>