<svg xmlns="http://www.w3.org/2000/svg" viewBox="0 0 65.9 42"><defs><style>.cls-1{fill:#f9941c;}</style></defs><g id="Layer_2" data-name="Layer 2"><g id="Layer_1-2" data-name="Layer 1"><path class="cls-1" d="M33,35h-23a3.47,3.47,0,0,1-3.54-3.52q0-13,0-26.06c0-.66,0-1.32,0-2A3.47,3.47,0,0,1,9.06.12a4.26,4.26,0,0,1,1-.11H55.88a3.55,3.55,0,0,1,3.54,2.72,2.6,2.6,0,0,1,.07.56v16q0,6.11,0,12.19a3.49,3.49,0,0,1-.78,2.28A3.4,3.4,0,0,1,56.25,35c-.2,0-.41,0-.62,0ZM54.77,30.3c.09-.64.08-25.07,0-25.52H11.1V30.3Z"/><path class="cls-1" d="M29.46,37.28c0,.43,0,.77,0,1.1a.58.58,0,0,0,.67.65h5.64a.58.58,0,0,0,.66-.65c0-.35,0-.71,0-1.09.2,0,.35,0,.49,0H64.85c.88,0,1,.27,1,1,0,1,0,2,0,2.92a.7.7,0,0,1-.75.79H1.49C1.22,42,1,42,.7,42A.61.61,0,0,1,0,41.42,1.72,1.72,0,0,1,0,41V38.21a2.53,2.53,0,0,1,0-.28.74.74,0,0,1,.72-.67,2.54,2.54,0,0,1,.39,0H28.77Z"/><path class="cls-1" d="M32.86,26.31a13.92,13.92,0,0,1-5.22-1.23,19.91,19.91,0,0,1-4.18-2.51,16.62,16.62,0,0,1-2.33-2c-.19-.22-.46-.38-.66-.6-.47-.51-.95-1-1.37-1.55a1.33,1.33,0,0,1,.11-1.76,27.53,27.53,0,0,1,3.9-3.73,20.67,20.67,0,0,1,4.29-2.67A15,15,0,0,1,31.58,9a11.94,11.94,0,0,1,4.72.41,15.41,15.41,0,0,1,4,1.8,22.23,22.23,0,0,1,4.22,3.26c.71.7,1.41,1.4,2.09,2.12a1.42,1.42,0,0,1,.12,1.86,3.24,3.24,0,0,1-.24.31c-.86.86-1.69,1.76-2.59,2.58A23.71,23.71,0,0,1,40,24.21a16.12,16.12,0,0,1-4,1.66A12.74,12.74,0,0,1,32.86,26.31ZM39,17.64a6.08,6.08,0,0,0-12.15-.1,6.08,6.08,0,1,0,12.15.1Z"/><path class="cls-1" d="M36.8,17.59A3.84,3.84,0,0,1,33,21.46a3.86,3.86,0,1,1,0-7.71A3.85,3.85,0,0,1,36.8,17.59Zm-1.6-1.15a1.06,1.06,0,0,0-1.09-1.09A1.15,1.15,0,0,0,33,16.49a1.23,1.23,0,0,0,1.16,1.09A1.11,1.11,0,0,0,35.2,16.44Z"/></g></g></svg>