<svg xmlns="http://www.w3.org/2000/svg" viewBox="0 0 55.01 55"><defs><style>.cls-1{fill:#280d06;}.cls-2{fill:#f9941c;}</style></defs><g id="Layer_2" data-name="Layer 2"><g id="Layer_1-2" data-name="Layer 1"><path class="cls-1" d="M28,7.16l.34.36,1.47,1.55c.28.3.55.63.83.94s.67.68,1,1,.67.74,1,1.12l.07.07,1.15,1.23,1.32,1.43.39.42c.44.45.87.91,1.3,1.37l1.82,1.95.93,1,1.87,2,1.46,1.59a.57.57,0,0,1,.17.43v.27q0,13.18,0,26.35a4.69,4.69,0,0,1-1,2.85,4.57,4.57,0,0,1-1.67,1.39,3.61,3.61,0,0,1-1.79.48c-.22,0-.44,0-.66,0H4.43a3.9,3.9,0,0,1-1.91-.54,4.4,4.4,0,0,1-1.21-.89A5.2,5.2,0,0,1,0,51c0-.06,0-.13,0-.2V12.23c0-.19,0-.37,0-.55a3.47,3.47,0,0,1,.32-1.56,4.37,4.37,0,0,1,1-1.52,4.69,4.69,0,0,1,2-1.25,6.89,6.89,0,0,1,1.1-.21c1.17-.11,2.33,0,3.5,0H23C24.63,7.22,26.3,7.11,28,7.16Zm12.64,18h-.43c-2.53,0-5.06,0-7.59,0a19.47,19.47,0,0,1-2.16-.05,4.38,4.38,0,0,1-2.05-.77A4.61,4.61,0,0,1,27,22.93a4.54,4.54,0,0,1-.75-2.48c0-.57,0-1.14,0-1.71,0-2.9,0-5.8,0-8.7a.66.66,0,0,0-.05-.41H4.91a2.32,2.32,0,0,0-1.55.51,2.1,2.1,0,0,0-.87,1.67V50.35a2.16,2.16,0,0,0,1.14,1.87,2.18,2.18,0,0,0,1.21.3H38.43a1.77,1.77,0,0,0,1.18-.41,2.45,2.45,0,0,0,1-2V25.16Z"/><path class="cls-1" d="M52.52,18H43a5.27,5.27,0,0,1-1.18-.18A4.44,4.44,0,0,1,40,16.89a3.33,3.33,0,0,1-.87-1c-.11-.21-.25-.4-.37-.61a5.77,5.77,0,0,1-.5-1.52,1.58,1.58,0,0,1,0-.31v-11l-.24,0h-.14q-10.59,0-21.19,0A2.18,2.18,0,0,0,15,3.2a2.45,2.45,0,0,0-.65,1.48.29.29,0,0,0,0,.09,15.14,15.14,0,0,1-2.44,0,2.13,2.13,0,0,1,.07-1,4.77,4.77,0,0,1,1.53-2.65A4.23,4.23,0,0,1,15,.31L15.24.2a2.72,2.72,0,0,1,.93-.2H40c.12.14.25.3.39.45s.45.51.69.76.52.54.78.81l.67.73,1.36,1.49,0,0c.48.49,1,1,1.42,1.49L46.5,7l1.63,1.76,1.86,2,1.84,2,1.64,1.8.56.6,1,1v.61Q55,30,55,43.12a4.72,4.72,0,0,1-2.71,4.26,5,5,0,0,1-2.11.47H45.43a13.31,13.31,0,0,1,0-2.45c.11,0,.25,0,.38,0h4.43a2.29,2.29,0,0,0,1.68-.72,2.77,2.77,0,0,0,.58-1,1,1,0,0,0,0-.24V18Z"/><path class="cls-2" d="M17.69,42.32,16,48.5H11.55L19,21.75h4.16L30.75,48.5H26.26l-1.7-6.18Zm5.72-4L21.09,27.93,18.78,38.27Z"/></g></g></svg>