<svg xmlns="http://www.w3.org/2000/svg" viewBox="0 0 727.77 113.88"><defs><style>.cls-1{fill:#fff;}</style></defs><g id="Layer_2" data-name="Layer 2"><g id="Layer_1-2" data-name="Layer 1"><g id="H4jih3"><path class="cls-1" d="M344.38.83h82.25a14.94,14.94,0,0,1,11.24,4.57,14.46,14.46,0,0,1-6.49,24,22.21,22.21,0,0,1-6,.72q-76,.06-152,0c-1,0-2.09,0-3.12.08-2.3.24-3.44,1.34-3.62,3.61a26.59,26.59,0,0,0,0,4.09c.19,2.31,1.13,3.42,3.41,3.93a17.93,17.93,0,0,0,3.87.35q61.35,0,122.7,0H417a24.85,24.85,0,0,1,24.7,23c.47,7.4.36,14.84.31,22.25a26.54,26.54,0,0,1-2.56,11.35c-3.78,7.92-10.1,12.39-18.66,13.78a29.21,29.21,0,0,1-4.66.39Q334,113,252,113c-6.58,0-11.43-2.88-14.2-8.83-4-8.58,1.89-19,11.26-20.15a39.52,39.52,0,0,1,4.86-.31H404.51a28.59,28.59,0,0,0,2.93-.07,4.21,4.21,0,0,0,4.07-4.22,32.32,32.32,0,0,0,0-4.29,3.43,3.43,0,0,0-3.48-3.5c-1.16-.1-2.34-.07-3.51-.07H263.07a29.36,29.36,0,0,1-9.62-1.4C243.8,66.85,238.61,59.82,236.88,50a35.73,35.73,0,0,1-.39-6c-.05-5.86-.1-11.73,0-17.58a26.46,26.46,0,0,1,4.56-14.92,23.5,23.5,0,0,1,16.6-10.26,40.44,40.44,0,0,1,6-.38q40.33,0,80.69,0Z"/><path class="cls-1" d="M109.85,42.2q40.35,0,80.69,0a14.47,14.47,0,0,1,9.58,3.27,14.74,14.74,0,0,1-.46,23.09,15.55,15.55,0,0,1-9.12,3c-.78,0-1.56,0-2.34,0H38.93c-1,0-2,0-2.93,0a5.94,5.94,0,0,0-5.73,4.73,6.06,6.06,0,0,0,3.14,6.75,6.31,6.31,0,0,0,2.23.6,26,26,0,0,0,2.93,0q75,0,150,0a26.2,26.2,0,0,1,6,.64,14.44,14.44,0,0,1,10.9,13.66,14.25,14.25,0,0,1-9.66,14,18.41,18.41,0,0,1-5.54,1q-80.1.07-160.21,0A29.89,29.89,0,0,1,.59,88.53a36.62,36.62,0,0,1-.54-5.82c-.09-3.52,0-7,0-10.55a29.9,29.9,0,0,1,26.6-29.83,38.39,38.39,0,0,1,4.68-.13q39.27,0,78.54,0Z"/><path class="cls-1" d="M688.62,57.47c1.31,1.1,2.46,1.94,3.47,2.93Q707.83,76,723.52,91.7a13.91,13.91,0,0,1,3.89,6.64A12.12,12.12,0,0,1,716,113.25a11.79,11.79,0,0,1-8.88-3.46c-3.2-3.06-6.39-6.12-9.53-9.24q-14.14-14-28.23-28.15a10,10,0,0,0-7.66-3.14q-34.2.08-68.39,0a8.53,8.53,0,0,0-6.43,2.66q-17.43,17.37-35,34.63c-1.2,1.18-2.45,2.33-3.73,3.44a12,12,0,0,1-19.85-6.37,11.7,11.7,0,0,1,2.85-10.71c.59-.69,1.26-1.32,1.91-2l31.4-31.32c2.45-2.44,2.45-2.56.06-5q-12.78-12.78-25.55-25.57-3.85-3.87-7.6-7.86a12.07,12.07,0,0,1,4.87-19.89,11.41,11.41,0,0,1,10.13,1.18,24.63,24.63,0,0,1,3.92,3.21q17.87,17.78,35.65,35.64a10.37,10.37,0,0,0,8,3.25c22.47-.09,44.94,0,67.41,0,.52,0,1,0,1.56,0a7.76,7.76,0,0,0,5.92-2.49q18.66-18.63,37.41-37.18a15.51,15.51,0,0,1,4.23-3.09A12.18,12.18,0,0,1,725,4.93,12.46,12.46,0,0,1,725.47,20a27,27,0,0,1-2.67,3.09q-15.94,16-31.9,31.93C690.17,55.76,689.49,56.54,688.62,57.47Z"/><path class="cls-1" d="M102.61,30.12H16.26A17.12,17.12,0,0,1,6.92,27.8,14.58,14.58,0,0,1,.18,13.61,14.84,14.84,0,0,1,11,1.34,19,19,0,0,1,15.29.85q87.44,0,174.86,0c7.24,0,12.82,4.08,14.76,10.57a14.54,14.54,0,0,1-11.67,18.36,30.39,30.39,0,0,1-4.67.34Q145.59,30.14,102.61,30.12Z"/><path class="cls-1" d="M496.79,57.45V101.6a12.35,12.35,0,0,1-2.32,7.7,11,11,0,0,1-7.74,4.45c-7.78,1-13.51-3.92-13.79-11.77,0-.39,0-.78,0-1.17q0-43.85,0-87.7A14.61,14.61,0,0,1,474,7a11.11,11.11,0,0,1,9.83-7,10.87,10.87,0,0,1,11.09,5.77,14.33,14.33,0,0,1,1.85,7.29q0,22.17,0,44.34Z"/></g></g></g></svg>