<svg xmlns="http://www.w3.org/2000/svg" viewBox="0 0 200.58 87.45"><defs><style>.cls-1{fill:#fff;}</style></defs><g id="Layer_2" data-name="Layer 2"><g id="Layer_1-2" data-name="Layer 1"><path d="M200.58,0V1.69H0V0Z"/><path d="M200.58,85.9v1.55H0V85.9Z"/><path d="M169.24,28.39v1.45h-6.51v-2.1c.36,0,.7,0,1.05,0h9.71c1.64,0,1.64,0,2.26,1.5,0,0,.13,0,.13,0,.23-1.48,1.26-1.51,2.47-1.48,3.15.06,6.3,0,9.45,0h1v2.13h-6.38V28.27c-.17.11-.29.15-.3.2-.18,1.34-1,1.48-2.21,1.44-2.94-.08-5.88-.06-8.83,0-.84,0-1.35-.19-1.49-1.06a2.45,2.45,0,0,0-.2-.48Z"/><path d="M132.13,21.44V19.31h21.7c1.8,0,2,.22,2.35,2.13Z"/><path d="M132.13,42.27v-2h24.16c-.27.66-.48,1.26-.76,1.82a.74.74,0,0,1-.57.3l-22.67,0A1.11,1.11,0,0,1,132.13,42.27Z"/><path d="M132.12,17.32v-2.1c.25,0,.48-.06.7-.06,5.17,0,10.34,0,15.52,0a8.09,8.09,0,0,1,4.81,1.63c.17.12.35.21.52.32l-.13.2Z"/><path d="M132.13,46.46v-2H153.5A5,5,0,0,1,153,45a7.74,7.74,0,0,1-4.41,1.51c-5.35,0-10.71,0-16.06,0C132.44,46.5,132.33,46.48,132.13,46.46Z"/><path d="M155.34,34H136.55V31.82h1.09c4.79,0,9.59.09,14.37-.05C153.75,31.72,154.51,32.61,155.34,34Z"/><path d="M136.53,29.89V27.74h18.65a2.78,2.78,0,0,1-2.81,2.15H136.53Z"/><path d="M129.86,15.23v2.08H114.7V15.23Z"/><path d="M129.86,40.25v2.08H114.68V40.25Z"/><path d="M114.71,19.36h15.13v2.08H114.71Z"/><path d="M114.7,44.4h13.85c1.38,0,1.39,0,1.36,1.41,0,.2,0,.4,0,.65H114.7Z"/><path d="M178.64,21.44c.22-.63.38-1.2.61-1.74a.68.68,0,0,1,.5-.37c4.45,0,8.91,0,13.44,0v2.13Z"/><path d="M158.42,21.45V19.31h1.09c3.8,0,7.6,0,11.4,0,1.09,0,1.65.3,1.84,1.34a6.69,6.69,0,0,0,.25.83Z"/><path d="M193.21,15.3v2H180.06c.24-.67.42-1.29.67-1.88a.63.63,0,0,1,.49-.27c3.95,0,7.91,0,11.86,0C193.1,15.21,193.12,15.24,193.21,15.3Z"/><path d="M158.42,15.16h1.74c3.18,0,6.35,0,9.53,0,.9,0,1.39.22,1.53,1.12a9.67,9.67,0,0,0,.33,1.06H158.42Z"/><path d="M162.69,25.57v-2c.36,0,.7-.06,1-.06,2.91,0,5.82,0,8.73,0,1,0,1.56.24,1.73,1.25a8.23,8.23,0,0,0,.23.82Z"/><path d="M188.87,23.53v2H177.2c.21-.61.37-1.18.61-1.71a.71.71,0,0,1,.55-.31C181.83,23.53,185.3,23.53,188.87,23.53Z"/><path d="M158.42,42.32V40.26h10.77v2.06Z"/><path d="M193.2,46.47H182.48v-2H193.2Z"/><path d="M169.22,44.4v2.05H158.49c0-.08-.09-.13-.09-.18-.12-1.87-.12-1.87,1.75-1.87h9.07Z"/><path d="M193.21,42.35H182.48V40.26h10.73Z"/><path d="M170.71,31.86h10.22a17.39,17.39,0,0,1-.67,1.86c-.07.16-.43.27-.66.27-2.5,0-5,0-7.49,0-.5,0-.77-.15-.89-.65S170.91,32.43,170.71,31.86Z"/><path d="M149.27,25.63v-2.1h1.41c1.7,0,3.39,0,5.09,0,.62,0,.76.23.72.79-.1,1.27-.14,1.32-1.41,1.32Z"/><path d="M156.45,38.11h-7.16V36.05h3.44a23,23,0,0,0,2.49,0c.91-.1,1.24.3,1.23,1.13Z"/><path d="M169.22,31.9V34h-6.48V31.9Z"/><path d="M169.21,38.1h-6.48v-2h6.48Z"/><path d="M172.2,36.11h7.24a11.7,11.7,0,0,1-.59,1.65,1,1,0,0,1-.76.37c-1.43,0-2.86,0-4.28,0-.74,0-1.1-.21-1.24-.91A8.27,8.27,0,0,0,172.2,36.11Z"/><path d="M142.9,25.6h-6.43a13.94,13.94,0,0,1,0-1.59.66.66,0,0,1,.48-.45c1.95,0,3.91,0,5.93,0Z"/><path d="M136.58,36.11h6.35v2h-6.35Z"/><path d="M119.1,27.72h6.34v2.1H119.1Z"/><path d="M119.1,31.86h6.34v2.08H119.1Z"/><path d="M182.5,31.87h6.35V34H182.5Z"/><path d="M125.43,38.11h-6.34v-2h6.34Z"/><path d="M125.46,25.58h-6.38v-2h6.38Z"/><path d="M188.83,38.11H182.5v-2h6.33Z"/><path d="M178,40.27l-.73,2.12c-.82,0-1.64,0-2.45,0a.71.71,0,0,1-.52-.34c-.23-.54-.39-1.1-.62-1.76Z"/><path class="cls-1" d="M199,44.9a1.67,1.67,0,0,1-1.64,1.74,1.73,1.73,0,0,1-1.62-1.71,1.63,1.63,0,0,1,1.67-1.7A1.56,1.56,0,0,1,199,44.9ZM196,44.83a1.3,1.3,0,0,0,1.26,1.43,1.34,1.34,0,0,0,1.38-1.33,1.36,1.36,0,0,0-1.23-1.39A1.32,1.32,0,0,0,196,44.83Z"/><path class="cls-1" d="M142.93,38.09v-2h-6.35v2Z"/><path class="cls-1" d="M136.53,29.89h15.84a2.78,2.78,0,0,0,2.81-2.15H136.53Z"/><path class="cls-1" d="M137,23.56a.66.66,0,0,0-.48.45,13.94,13.94,0,0,0,0,1.59h6.43V23.54C140.88,23.54,138.92,23.52,137,23.56Z"/><path class="cls-1" d="M153.83,19.31h-21.7v2.13h24.05C155.88,19.53,155.63,19.31,153.83,19.31Z"/><path class="cls-1" d="M155.22,36a23,23,0,0,1-2.49,0h-3.44v2.06h7.16v-1C156.46,36.33,156.13,35.93,155.22,36Z"/><path class="cls-1" d="M182.5,38.11h6.33v-2H182.5Z"/><path class="cls-1" d="M152,31.77c-4.78.14-9.58.05-14.37.05h-1.09V34h18.79C154.51,32.61,153.75,31.72,152,31.77Z"/><path class="cls-1" d="M148.34,15.17c-5.18,0-10.35,0-15.52,0-.22,0-.45,0-.7.06v2.1h21.42l.13-.2c-.17-.1-.35-.2-.52-.32A8.09,8.09,0,0,0,148.34,15.17Z"/><path class="cls-1" d="M188.85,31.87H182.5V34h6.35Z"/><path class="cls-1" d="M119.09,38.11h6.34v-2h-6.34Z"/><path class="cls-1" d="M125.44,27.72H119.1v2.1h6.34Z"/><path class="cls-1" d="M125.46,23.62h-6.38v2h6.38Z"/><path class="cls-1" d="M148.62,46.49A7.74,7.74,0,0,0,153,45a5,5,0,0,0,.47-.51H132.13v2c.2,0,.31,0,.43,0C137.91,46.51,143.27,46.53,148.62,46.49Z"/><path class="cls-1" d="M125.44,31.86H119.1v2.08h6.34Z"/><path class="cls-1" d="M129.84,19.36H114.71v2.08h15.13Z"/><path class="cls-1" d="M155.53,42.08c.28-.56.49-1.16.76-1.82H132.13v2a1.11,1.11,0,0,0,.16.09l22.67,0A.74.74,0,0,0,155.53,42.08Z"/><path class="cls-1" d="M155.77,23.52c-1.7,0-3.39,0-5.09,0h-1.41v2.1h5.81c1.27,0,1.31-.05,1.41-1.32C156.53,23.75,156.39,23.51,155.77,23.52Z"/><path class="cls-1" d="M177.81,23.86c-.24.53-.4,1.1-.61,1.71h11.67v-2c-3.57,0-7,0-10.51,0A.71.71,0,0,0,177.81,23.86Z"/><path class="cls-1" d="M193.21,15.3c-.09-.06-.11-.09-.13-.09-4,0-7.91,0-11.86,0a.63.63,0,0,0-.49.27c-.25.59-.43,1.21-.67,1.88h13.15Z"/><path class="cls-1" d="M175.72,46.18h.19c.19-.55.37-1.11.57-1.72h-1.34C175.35,45.1,175.54,45.64,175.72,46.18Z"/><path class="cls-1" d="M180.26,33.72a17.39,17.39,0,0,0,.67-1.86H170.71c.2.57.39,1,.51,1.51s.39.65.89.65c2.5,0,5,0,7.49,0C179.83,34,180.19,33.88,180.26,33.72Z"/><path class="cls-1" d="M188.84,29.82V27.69h-1c-3.15,0-6.3,0-9.45,0-1.21,0-2.24,0-2.47,1.48,0,0-.09,0-.13,0-.62-1.5-.62-1.5-2.26-1.5h-9.71c-.35,0-.69,0-1.05,0v2.1h6.51V28.39l.19,0a2.45,2.45,0,0,1,.2.48c.14.87.65,1.07,1.49,1.06,2.95-.06,5.89-.08,8.83,0,1.18,0,2-.1,2.21-1.44,0,0,.13-.09.3-.2v1.55Z"/><path class="cls-1" d="M178.85,37.76a11.7,11.7,0,0,0,.59-1.65H172.2a8.27,8.27,0,0,1,.37,1.15c.14.7.5.94,1.24.91,1.42-.07,2.85,0,4.28,0A1,1,0,0,0,178.85,37.76Z"/><path class="cls-1" d="M193.2,46.47v-2H182.48v2Z"/><path class="cls-1" d="M200.58,0H0V1.69H200.58Z"/><path class="cls-1" d="M193.21,40.26H182.48v2.09h10.73Z"/><path class="cls-1" d="M162.73,38.1h6.48v-2h-6.48Z"/><path class="cls-1" d="M169.69,15.13c-3.18.07-6.35,0-9.53,0h-1.74v2.15h13.13a9.67,9.67,0,0,1-.33-1.06C171.08,15.35,170.59,15.12,169.69,15.13Z"/><path class="cls-1" d="M158.4,46.27s0,.1.09.18h10.73V44.4h-9.07C158.28,44.4,158.28,44.4,158.4,46.27Z"/><path class="cls-1" d="M169.22,31.9h-6.48V34h6.48Z"/><path class="cls-1" d="M179.25,19.7c-.23.54-.39,1.11-.61,1.74h14.55V19.31c-4.53,0-9,0-13.44,0A.68.68,0,0,0,179.25,19.7Z"/><path class="cls-1" d="M170.91,19.28c-3.8.07-7.6,0-11.4,0h-1.09v2.14H173a6.69,6.69,0,0,1-.25-.83C172.56,19.58,172,19.25,170.91,19.28Z"/><path class="cls-1" d="M158.42,42.32h10.77V40.26H158.42Z"/><path class="cls-1" d="M174.19,24.75c-.17-1-.72-1.27-1.73-1.25-2.91.08-5.82,0-8.73,0-.34,0-.68,0-1,.06v2h11.73A8.23,8.23,0,0,1,174.19,24.75Z"/><path class="cls-1" d="M178,40.27h-4.32c.23.66.39,1.22.62,1.76a.71.71,0,0,0,.52.34c.81,0,1.63,0,2.45,0Z"/><path class="cls-1" d="M129.86,15.23H114.7v2.08h15.16Z"/><path class="cls-1" d="M0,85.9v1.55H200.58V85.9Z"/><path class="cls-1" d="M129.91,45.81c0-1.41,0-1.41-1.36-1.41H114.7v2.06h15.16C129.88,46.21,129.9,46,129.91,45.81Z"/><path class="cls-1" d="M114.68,42.33h15.18V40.25H114.68Z"/><path class="cls-1" d="M4.91,23.8A22.34,22.34,0,0,1,2,23L.75,24.11a5.25,5.25,0,0,0,6.56,1A3.1,3.1,0,0,0,8.68,21.9a2.65,2.65,0,0,0-2.16-2.32c-.69-.18-1.4-.28-2.1-.41S3.17,18.78,3.23,18a1.07,1.07,0,0,1,1.35-1,23.63,23.63,0,0,1,2.62.64l1.3-1.15a5.24,5.24,0,0,0-5.78-1.08,3,3,0,0,0-1.75,3,2.71,2.71,0,0,0,2.18,2.6,17.67,17.67,0,0,0,1.93.33c1,.18,1.44.57,1.37,1.3A1.24,1.24,0,0,1,4.91,23.8Z"/><path class="cls-1" d="M7.12,38.13c1.33-.94,1.71-1.81,1.36-3.12A2.5,2.5,0,0,0,6,33.14c-1.45-.07-2.9,0-4.4,0V43.66c1.47,0,2.86,0,4.26,0a2.79,2.79,0,0,0,3.05-2.3C9.19,39.85,8.68,38.9,7.12,38.13ZM2.75,34.29c1.16,0,2.31-.07,3.45,0,.8.08,1,.77,1.08,1.51s-.14,1.63-1.1,1.76-2.23.14-3.43.2Zm3.7,8.16c-1.23.1-2.47,0-3.74,0V38.8c1.26,0,2.45,0,3.62,0,.85,0,1.27.69,1.31,1.73S7.29,42.38,6.45,42.45Z"/><path class="cls-1" d="M33.89,24.5l-1-1.21c-1.53.94-2.24,1.15-3,.6a5.31,5.31,0,0,1-1-1.4l.23-.23h5.08c0-.49,0-.84-.07-1.19-.34-2.43-1.72-3.62-4-3.46-2.06.14-3.29,1.63-3.29,4,0,.21,0,.42,0,.63a3.53,3.53,0,0,0,2.29,3.38A4.4,4.4,0,0,0,33.89,24.5Zm-4.15-4.95a1.64,1.64,0,0,1,1.44-.14c.42.23.63.85.94,1.3l-.28.24H29C29.27,20.4,29.38,19.8,29.74,19.55Z"/><path class="cls-1" d="M21.49,25.63c2.11.23,2.12.22,2.78-1.8.1-.28.2-.56.29-.84l1.68-5.23a7.78,7.78,0,0,1-1.1,0c-.72-.11-1.08.15-1.23.89-.19.93-.51,1.83-.77,2.74s-.43,1.57-.64,2.36a2.49,2.49,0,0,1-.43-.95c-.42-1.46-.82-2.92-1.27-4.36a1,1,0,0,0-.57-.64,11.31,11.31,0,0,0-1.77,0c.84,2.58,1.63,5,2.45,7.48A.79.79,0,0,0,21.49,25.63Z"/><path class="cls-1" d="M2.7,57.07c1.16,0,2.25,0,3.34,0A2.6,2.6,0,0,0,8.57,54.2c0-1.75-.85-3-2.34-3s-3.08,0-4.69,0V61.53H2.7Zm0-4.84c1.15,0,2.3-.07,3.43,0,.84.07,1.17.77,1.14,2,0,1-.39,1.63-1.3,1.7s-2.12,0-3.27,0Z"/><path class="cls-1" d="M18,24l-.9-.16V14.6H14.89v8.67c0,2,1.14,2.79,3.08,2.23Z"/><path class="cls-1" d="M39.38,58c1.57,0,3.14,0,4.87,0-.06-.54-.07-.92-.14-1.29-.33-1.92-1.45-3-3.17-3a3.2,3.2,0,0,0-3.44,2.93,7.23,7.23,0,0,0,0,2.54,3.38,3.38,0,0,0,6.26.85l-.69-.52c-.19.22-.34.41-.5.57a2.32,2.32,0,0,1-2.47.58,2.17,2.17,0,0,1-1.53-1.79C38.45,58.1,38.73,58,39.38,58ZM41,54.65c1.16.1,1.85,1,1.84,2.35H38.59C38.85,55.33,39.69,54.54,41,54.65Z"/><path class="cls-1" d="M11.41,57.4a2,2,0,0,0-1.65,2.28,2.15,2.15,0,0,0,2.08,2,2.48,2.48,0,0,0,2.72-1.25c.7,1.12,1,1.26,2.15,1l0-.8-.85-.2c0-1.39,0-2.72,0-4.06a2.51,2.51,0,0,0-2.05-2.64,3.12,3.12,0,0,0-3.64,1.44l.6.54c1.1-1.09,2.1-1.37,3.09-.84s.84,1.34.78,2.21A25.89,25.89,0,0,0,11.41,57.4Zm.51,3.31a1.26,1.26,0,0,1-1-1.32,1.14,1.14,0,0,1,1-1.23c.81-.11,1.64-.12,2.5-.17C14.83,60.08,13.64,61.23,11.92,60.71Z"/><path class="cls-1" d="M45.75,40.08c0-.41,0-.7,0-1a3.33,3.33,0,0,0-3.12-3.39,3.29,3.29,0,0,0-3.48,2.68,8.1,8.1,0,0,0,0,2.82A3.2,3.2,0,0,0,42,43.81a3.37,3.37,0,0,0,3.47-1.74l-.66-.52c-1.34,1.26-2.35,1.54-3.42,1a2.17,2.17,0,0,1-1.08-2.44ZM42.29,36.7c1.37-.07,2.15.77,2.19,2.41H40.27A2.12,2.12,0,0,1,42.29,36.7Z"/><path class="cls-1" d="M38,22.27c0-2.27,0-2.32,2.31-2.47a1.07,1.07,0,0,0,.19-.11v-1.9a2.3,2.3,0,0,0-2.46,1.64c0-.75-.07-1.18-.09-1.61h-2.1v7.77H38Z"/><path class="cls-1" d="M37,43.63c0-1.92.06-3.76,0-5.59a2.25,2.25,0,0,0-1.65-2.2,2.4,2.4,0,0,0-2.8.79,2.42,2.42,0,0,1-.32.29l-.11-1H30.94v7.64h1.17c0-1.75,0-3.47,0-5.18,0-1,.55-1.52,1.7-1.68A1.58,1.58,0,0,1,35.69,38a6.61,6.61,0,0,1,.13,1.41c0,1.41,0,2.82,0,4.24Z"/><path class="cls-1" d="M17.17,36H16.05c0,1.7,0,3.36,0,5a1.63,1.63,0,0,1-1.68,1.79,1.66,1.66,0,0,1-2-1.46,7.4,7.4,0,0,1,0-1.33c0-1.33,0-2.66,0-4h-1.1c0,1.92-.07,3.79,0,5.65a2.29,2.29,0,0,0,2,2.17A2.59,2.59,0,0,0,16,42.45c0,.5.07.83.1,1.18h1.07Z"/><path class="cls-1" d="M34.25,61.55h1c0-2,.1-3.91,0-5.82a2.09,2.09,0,0,0-2.47-2,9.09,9.09,0,0,0-2.26.89l-.09-.79-1,.06v7.66h1.1c0-1.8,0-3.49,0-5.18a1.47,1.47,0,0,1,1-1.5,1.81,1.81,0,0,1,2.65,1.46,14.49,14.49,0,0,1,.06,1.87C34.26,59.31,34.25,60.43,34.25,61.55Z"/><path class="cls-1" d="M25,41.32c0-1.06-.61-1.7-1.83-2-.4-.1-.82-.13-1.23-.2-1-.19-1.5-.68-1.39-1.41s.74-1.16,1.72-1a12.43,12.43,0,0,1,2.11.75l.4-.48c-.92-1.6-3.69-1.65-4.79-.55a2.08,2.08,0,0,0,.53,3.31,11.07,11.07,0,0,0,2.23.58c.69.15,1.16.52,1.13,1.26s-.54,1.08-1.24,1.18a3,3,0,0,1-2.74-1.11l-.73.64a3.63,3.63,0,0,0,4.07,1.35A2.17,2.17,0,0,0,25,41.32Z"/><path class="cls-1" d="M58,42.76a3.07,3.07,0,0,1-2.86-1.09l-.71.63a3.73,3.73,0,0,0,4.63,1.16,2.3,2.3,0,0,0,1.23-2.2,2.05,2.05,0,0,0-1.65-1.87c-.6-.15-1.22-.23-1.83-.36a1.07,1.07,0,0,1-1-1.34,1.1,1.1,0,0,1,1.29-1,20.43,20.43,0,0,1,2.5.66l.45-.38a3.3,3.3,0,0,0-3.86-1.13,2.2,2.2,0,0,0-1.59,2,2,2,0,0,0,1.54,2c.57.18,1.18.21,1.74.39A2.26,2.26,0,0,1,59,41C59.48,41.73,58.94,42.6,58,42.76Z"/><path class="cls-1" d="M52.07,43.3A2.2,2.2,0,0,0,53,41a1.7,1.7,0,0,0-1.32-1.51c-.62-.19-1.27-.27-1.9-.43s-1.27-.42-1.22-1.28A1.2,1.2,0,0,1,50,36.73a14.23,14.23,0,0,1,2.32.69l.56-.46A3.56,3.56,0,0,0,49,35.87a2,2,0,0,0-1.6,2,1.88,1.88,0,0,0,1.44,2.08c.65.21,1.34.28,2,.44a1.13,1.13,0,0,1,1,1.26,1.22,1.22,0,0,1-1.18,1.13,2.94,2.94,0,0,1-2.79-1.12l-.74.66A3.71,3.71,0,0,0,52.07,43.3Z"/><path class="cls-1" d="M10.58,25.61h2.06V17.83H10.58Z"/><path class="cls-1" d="M27.24,54.85v-1l-1.56-.07c0-.76-.06-1.42-.09-2.09a3.85,3.85,0,0,0-.54,0,2.28,2.28,0,0,0-.39.06c-.2,1.91-.2,1.91-1.49,2.25l0,.87,1.23.06c0,1.77,0,3.45,0,5.14,0,.76.23,1.38,1.06,1.51a12.07,12.07,0,0,0,1.71,0l-.05-1-1.46-.08v-5.6Z"/><path class="cls-1" d="M22.33,55v-1a2.62,2.62,0,0,0-2.7,1.21c0-.48-.06-.83-.09-1.23h-1.1v7.61c.88.28,1.23,0,1.17-.85s0-1.72,0-2.58C19.59,55.34,19.59,55.34,22.33,55Z"/><path class="cls-1" d="M48.45,55.19C49,55.06,49.54,55,50.1,55V53.89A2.65,2.65,0,0,0,47.5,55c0-.45-.1-.79-.14-1.12H46.29c0,.31,0,.57,0,.83v6c0,1,0,1,1.2.79,0-1.67,0-3.3,0-4.93A1.22,1.22,0,0,1,48.45,55.19Z"/><path class="cls-1" d="M28.29,36c-1.11-.19-1.14-.17-1.14.82,0,.65,0,1.31,0,2v4.83h1.14Z"/><path class="cls-1" d="M13,15.62a1.22,1.22,0,0,0-1.33-1.23,1.15,1.15,0,0,0-1.28,1.25c0,.89.41,1.25,1.34,1.24A1.14,1.14,0,0,0,13,15.62Z"/><path class="cls-1" d="M28.45,33.28a2.7,2.7,0,0,0-.5-.83H27.6c-.19.26-.53.53-.51.78a1.08,1.08,0,0,0,.61.75A.58.58,0,0,0,28.45,33.28Z"/><path class="cls-1" d="M175.14,44.47h1.34l-.57,1.72h-.19Z"/><path class="cls-1" d="M197.69,45.81c.08-1.84.08-1.84-.9-1.66v1.64l.51-.65Z"/><path class="cls-1" d="M197.69,45.81l-.39-.67-.51.65V44.15C197.77,44,197.77,44,197.69,45.81Z"/></g></g></svg>