<svg xmlns="http://www.w3.org/2000/svg" viewBox="0 0 325.53 44.01"><defs><style>.cls-1{fill:#fff;}</style></defs><g id="Layer_2" data-name="Layer 2"><g id="Layer_1-2" data-name="Layer 1"><g id="KhUHnD"><path class="cls-1" d="M80.41,5.77V.25h41.84V17.3h18V.28H170.4v8H150.35v9.22l15.72.76a7.28,7.28,0,0,1,.27,1.27c.25,6,.24,6-5.68,6.27-3.4.16-6.79.4-10.37.61V35.3h24.8V.12h6.35c5.3,0,10.61-.11,15.9.05C204.5.38,210,4.51,211.4,10.38c1.79,7.72-.76,13.4-7.69,17.21-.35.19-.66.45-1.19.8C205,32,207.35,35.48,209.74,39c.28.4.65.73,1.28,1.44,3.16-7.78,6.18-15.22,9.19-22.66,2.07-5.09,4.23-10.15,6.13-15.3C227,.53,228,0,230,.05c6.07.08,6.06,0,8.32,5.59q6.47,16,12.95,32a4.91,4.91,0,0,0,1.34,2.07V.12h5c5.51,0,11-.12,16.53.05a16.77,16.77,0,0,1,14.61,8.41V.66c8.59,0,16.92-.63,25.11.2,7.16.72,11.35,6.52,11.66,13.68S322.1,27.31,315.2,29.42a35.87,35.87,0,0,1-7.95,1.21c-2.87.2-5.77.05-9,.05V43.57h-9.39V22.05c-6.47,10.29-16.71,8.45-26.6,8.65V43.8c-5.87,0-11.35,0-16.83,0-.53,0-1.08-.69-1.56-1.13a2.33,2.33,0,0,1-.39-.84c-3-7.14-3-7.14-10.62-7.14a11.67,11.67,0,0,1-1.87,0c-6.09-1.06-10.42.47-11.52,7.37-.11.72-1.69,1.69-2.62,1.73-4.36.18-8.74.17-13.09,0a4.44,4.44,0,0,1-2.93-1.64,76.91,76.91,0,0,1-5.91-8.77c-1.57-2.8-3.59-4.05-6.76-3.56a23.2,23.2,0,0,1-3.36,0v13.8H140.44V26.41h-18V43.6H113V9.1h-9.47V43.59H93.74V9.06H83.47c5.75,15.54,3.07,26.35-8,32.19-11.24,6-22.25,2.27-31.77-11V43.65H34.31V16.21L33.69,16l-12,18c-4.08-6.1-8-11.92-11.84-17.74l-.57.09V43.63H0V.11c3,0,6-.15,9,.1.86.07,1.84,1.15,2.39,2,3.43,5.3,6.76,10.66,10.39,16.44,3.39-5.39,6.72-10.37,9.69-15.54C32.79.73,34.37-.26,37.08.06a60.63,60.63,0,0,0,6.5,0V13.49C47.44,6.93,52.42,2.2,60,.61S74,.92,80.41,5.77ZM64.84,35.09C72,35.13,77.29,29.55,77.31,22S71.92,8.84,64.9,8.82,52.42,14.38,52.42,21.88,57.83,35.05,64.84,35.09ZM262.37,8.8V22c3.95,0,7.68.22,11.37-.06a6.31,6.31,0,0,0,6-6.7c0-3.54-2.15-6.11-5.87-6.4S266.41,8.8,262.37,8.8Zm36,13.13c4.17,0,8.2.27,12.17-.09,3.1-.29,5-3,5.11-6.1.11-3.55-1.17-6-4.42-6.52-4.21-.65-8.53-.52-12.86-.73Zm-113.61-.6c4,0,7.63.14,11.25,0a6,6,0,0,0,6.07-6.15c.07-3.65-1.93-6.05-5.8-6.31s-7.59-.06-11.52-.06Zm52.65,4.89c-2-5.12-3.79-9.78-5.87-15.15-2.1,5.44-3.93,10.19-5.85,15.15Z"/></g></g></g></svg>