<svg xmlns="http://www.w3.org/2000/svg" viewBox="0 0 494.65 689.23"><defs><style>.cls-1{fill:#fff;}</style></defs><g id="Layer_2" data-name="Layer 2"><g id="Layer_1-2" data-name="Layer 1"><path class="cls-1" d="M186.65,689.23c-25-20.13-49.87-40.36-75.06-60.22-2.19-1.72-6.36-1.48-9.56-1.31-27.59,1.46-55.17,3.13-82.76,4.7-2.44.14-4.9,0-8.47,0,18.34-57.35,36.53-114.21,54.76-171.19,7.88,1.32,13.56,4,17.63,11.14C92.62,489,103.12,504.91,113,521.25c2.11,3.5,4.14,4.79,8.53,4.18q29.69-4.08,59.51-7.13a19.53,19.53,0,0,1,11.21,2.59c12,7.11,23.44,15,35.35,22.22,4.19,2.54,5.12,4.81,3.55,9.61-14,43.07-27.8,86.23-41.59,129.38a71.17,71.17,0,0,0-1.54,7.13Z"/><path class="cls-1" d="M306.67,689.23c-5.17-16.89-10.21-33.83-15.54-50.68-9.06-28.65-18.17-57.28-27.6-85.81-1.6-4.84-.57-7.08,3.59-9.59q17.28-10.46,34.05-21.74a19,19,0,0,1,13.87-3.3c19.36,2.53,38.79,4.62,58.13,7.32,4.39.62,6.41-.68,8.53-4.19,9.85-16.34,20.37-32.29,29.78-48.87,4.07-7.2,9.89-9.62,17.6-11.19l54.86,171.41c-12.39-.61-23.93-1.14-35.46-1.77-19.51-1.08-39-2.3-58.53-3.28-2.31-.12-5.25.11-6.91,1.43-25.1,20-50,40.14-75,60.26Z"/><path class="cls-1" d="M139,24.23c18.54,2.27,35.24,4.49,52,6.21a17,17,0,0,0,9.95-2.07c14.19-8.64,28.17-17.63,42.05-26.76,3.31-2.18,5.67-2.12,8.94,0,13.69,9,27.47,17.9,41.48,26.4a18.16,18.16,0,0,0,10.51,2.35c16.31-1.6,32.57-3.68,48.82-5.83,4-.53,6.08.81,8.07,4.15,8.42,14.06,17,28.06,25.85,41.83a17,17,0,0,0,8,6.33c15.59,5.69,31.32,11,47.09,16.17,3.5,1.14,5,2.73,5.33,6.49q2.36,25.5,5.41,50.91a13.77,13.77,0,0,0,3.73,7.38q17.53,17.73,35.58,35c3.13,3,3.48,5.44,2,9.3-5.77,15.32-11.4,30.7-16.64,46.21a17,17,0,0,0,0,10.17c5.32,15.71,11.06,31.3,16.86,46.85,1.27,3.39.91,5.54-1.82,8.16Q473.89,331,456.18,349a14.83,14.83,0,0,0-3.84,8c-2,16.72-3.88,33.46-5.34,50.24-.37,4.35-2.65,5.6-6,6.74-15.53,5.21-31.08,10.36-46.46,16a17.05,17.05,0,0,0-7.95,6.35c-8.78,13.58-17.23,27.36-25.5,41.25-2.23,3.75-4.27,5.2-9,4.52-16.44-2.36-33-4.19-49.5-5.84a15,15,0,0,0-8.7,2.14c-14,8.58-27.84,17.32-41.48,26.41-3.84,2.56-6.41,2.38-10.14-.1C229,495.88,215.53,487.26,201.88,479a19.68,19.68,0,0,0-11.2-2.64c-16.1,1.49-32.16,3.42-48.17,5.67-4.25.59-6.44-.37-8.6-4-8.16-13.69-16.42-27.34-25.19-40.65a21.87,21.87,0,0,0-9.88-8c-14.91-5.58-30-10.58-45.21-15.44-4.38-1.4-5.67-3.71-6.06-8.14-1.46-16.77-3.31-33.52-5.35-50.23-.29-2.37-2-4.91-3.74-6.68-11.55-11.66-23.13-23.29-35-34.55C-.1,311-.39,308.27,1.24,304c5.64-14.89,11.11-29.86,16.1-45a19.32,19.32,0,0,0-.08-11.39C12.08,232.07,6.41,216.7.68,201.36c-1.28-3.44-.81-5.58,1.89-8.16,11.87-11.33,23.66-22.75,35.06-34.53a19.31,19.31,0,0,0,4.77-10.35c2.13-16.25,3.81-32.56,5.29-48.89.35-3.9,2.13-5.27,5.47-6.38C68.7,87.89,84.23,82.69,99.6,77a18.23,18.23,0,0,0,8.53-6.62c8.92-13.74,17.26-27.86,26-41.72C135.47,26.61,137.88,25.2,139,24.23Zm-66,229.19A174.39,174.39,0,0,0,247.38,427.77c96.37,0,174.53-78.22,174.38-174.45-.16-96.4-78.32-174.58-174.48-174.53S72.84,157.24,72.9,253.42Z"/><path class="cls-1" d="M381.27,253.09C381,179.2,321.11,119.31,247.39,119.25c-73.89-.06-134.21,60.44-134,134.4a133.94,133.94,0,1,0,267.88-.56Z"/><path class="cls-1" d="M381.27,253.09a133.94,133.94,0,1,1-267.88.56c-.21-74,60.11-134.46,134-134.4C321.11,119.31,381,179.2,381.27,253.09Z"/></g></g></svg>