<svg xmlns="http://www.w3.org/2000/svg" viewBox="0 0 530.07 530.09"><defs><style>.cls-1{fill:#fff;}</style></defs><g id="Layer_2" data-name="Layer 2"><g id="Layer_1-2" data-name="Layer 1"><path class="cls-1" d="M490.49,322.52c1.11-3.48,2.24-5.55,6.17-6.25,6.6-1.17,13.08-3,19.59-4.66,9.24-2.33,13.71-7.85,13.75-17.39q.13-29.24,0-58.48c0-9.51-4.55-15-13.85-17.31-6.85-1.72-13.77-3.19-20.54-5.17-1.75-.51-4-2.28-4.45-3.89a246.21,246.21,0,0,0-27.09-65.14c-.79-1.34-.52-4,.29-5.47,3.28-6,7-11.85,10.48-17.82,4.92-8.51,4.18-15-2.72-22q-20.39-20.59-41-41c-7-6.94-13.45-7.7-22-2.8-5.83,3.35-11.64,6.74-17.3,10.35-2.48,1.59-4.36,1.72-7,.14a225.06,225.06,0,0,0-63.68-26.44c-2.9-.7-4.14-2.19-4.73-5.15-1.35-6.75-3.17-13.41-4.84-20.09C309.27,4.47,303.78.09,293.87.05q-29-.09-58,0c-9.61,0-15.11,4.43-17.45,13.66-1.77,7-3.25,14.1-5.29,21A7,7,0,0,1,209.08,39a241.9,241.9,0,0,0-64.67,26.84A6.51,6.51,0,0,1,139,65.8c-6.06-3.27-11.86-7-17.82-10.48-8.73-5.06-15.21-4.27-22.4,2.86Q78.35,78.42,58.12,98.8C51,106,50.24,112.43,55.33,121.2c3.37,5.81,7.08,11.44,10.18,17.39a7.63,7.63,0,0,1,0,6.31,234.7,234.7,0,0,0-26.25,63.79c-.69,2.81-1.94,4.25-5,4.85-6.76,1.3-13.4,3.17-20.09,4.84C4.45,220.8.09,226.11.05,236q-.11,29,0,58c0,9.94,4.33,15.32,13.94,17.73,6.85,1.72,13.77,3.19,20.54,5.18,1.74.52,4,2.34,4.37,4a246.36,246.36,0,0,0,26.84,64.69,7.11,7.11,0,0,1-.14,5.88c-3.24,6.08-7,11.86-10.46,17.84-4.91,8.53-4.13,14.93,2.83,22q20.4,20.58,41,41c7,6.91,13.44,7.63,22,2.69,6-3.44,11.75-7.23,17.83-10.46a7.12,7.12,0,0,1,5.89,0,246.37,246.37,0,0,0,64.2,26.68c1.78.45,3.81,2.76,4.36,4.61,2.07,6.92,3.49,14,5.3,21,2.23,8.68,7.78,13.24,16.7,13.3q29.75.19,59.51,0c8.92-.06,14.53-4.6,16.77-13.23,1.81-7,3.69-14,5-21.11.6-3.2,2.34-4,5-4.92,13.48-4.65,26.9-9.49,40.33-14.31a22.11,22.11,0,0,0,3-1.73c-7.22-7.18-14.19-14.09-21.14-21-16-16-32-31.88-47.87-48a9,9,0,0,0-8.65-2.93c-28.38,4.2-55.89.6-81.69-11.73-44-21-70.24-56.27-78-104.41-6.44-39.8,3.08-76.12,27.88-107.9,22.24-28.5,51.55-46,87.42-51.32,51.21-7.54,94.32,8.54,128.44,47.27,23.05,26.17,33.39,57.52,33.33,92.24,0,7.38-1.47,14.75-1.92,22.14a7.89,7.89,0,0,0,1.89,5.38q34,34.44,68.21,68.64c.59.58,1.3,1,3.23,2.53C481,350.79,486,336.72,490.49,322.52Zm-194,46.31c3.58-.82,5.78-.63,8.51,2.11q71.38,71.7,143,143.15c14.37,14.34,31.23,19.55,51,13,29-9.54,40.52-47.55,21.6-71.44a103.8,103.8,0,0,0-7.9-8.87Q442,376,371.11,305.26c-2.85-2.84-3.45-5.17-2.28-8.95A108.14,108.14,0,0,0,296.55,161c-19.61-6-39.42-6.1-59.23-1.17-12.49,3.11-16.27,16.93-7.17,26.35,10.91,11.28,22.2,22.2,33.24,33.36,13.26,13.41,14.18,31.55,2.36,44.51-10.8,11.82-29.57,13.84-41.55,3.22-12.63-11.19-24.28-23.5-36.24-35.43-3.94-3.93-8.13-7-14-6.6-7,.41-12.53,5-14.22,12.25-7.49,32-2.7,62.12,15.6,89.48,20.58,30.76,52.26,46.88,89.87,47.94C275.68,372.93,286.18,371.2,296.53,368.83Z"/><path class="cls-1" d="M475.93,365.59c5-14.8,10-28.87,14.56-43.07,1.11-3.48,2.24-5.55,6.17-6.25,6.6-1.17,13.08-3,19.59-4.66,9.24-2.33,13.71-7.85,13.75-17.39q.13-29.24,0-58.48c0-9.51-4.55-15-13.85-17.31-6.85-1.72-13.77-3.19-20.54-5.17-1.75-.51-4-2.28-4.45-3.89a246.21,246.21,0,0,0-27.09-65.14c-.79-1.34-.52-4,.29-5.47,3.28-6,7-11.85,10.48-17.82,4.92-8.51,4.18-15-2.72-22q-20.39-20.59-41-41c-7-6.94-13.45-7.7-22-2.8-5.83,3.35-11.64,6.74-17.3,10.35-2.48,1.59-4.36,1.72-7,.14a225.06,225.06,0,0,0-63.68-26.44c-2.9-.7-4.14-2.19-4.73-5.15-1.35-6.75-3.17-13.41-4.84-20.09C309.27,4.47,303.78.09,293.87.05q-29-.09-58,0c-9.61,0-15.11,4.43-17.45,13.66-1.77,7-3.25,14.1-5.29,21A7,7,0,0,1,209.08,39a241.9,241.9,0,0,0-64.67,26.84A6.51,6.51,0,0,1,139,65.8c-6.06-3.27-11.86-7-17.82-10.48-8.73-5.06-15.21-4.27-22.4,2.86Q78.35,78.42,58.12,98.8C51,106,50.24,112.43,55.33,121.2c3.37,5.81,7.08,11.44,10.18,17.39a7.63,7.63,0,0,1,0,6.31,234.7,234.7,0,0,0-26.25,63.79c-.69,2.81-1.94,4.25-5,4.85-6.76,1.3-13.4,3.17-20.09,4.84C4.45,220.8.09,226.11.05,236q-.11,29,0,58c0,9.94,4.33,15.32,13.94,17.73,6.85,1.72,13.77,3.19,20.54,5.18,1.74.52,4,2.34,4.37,4a246.36,246.36,0,0,0,26.84,64.69,7.11,7.11,0,0,1-.14,5.88c-3.24,6.08-7,11.86-10.46,17.84-4.91,8.53-4.13,14.93,2.83,22q20.4,20.58,41,41c7,6.91,13.44,7.63,22,2.69,6-3.44,11.75-7.23,17.83-10.46a7.12,7.12,0,0,1,5.89,0,246.37,246.37,0,0,0,64.2,26.68c1.78.45,3.81,2.76,4.36,4.61,2.07,6.92,3.49,14,5.3,21,2.23,8.68,7.78,13.24,16.7,13.3q29.75.19,59.51,0c8.92-.06,14.53-4.6,16.77-13.23,1.81-7,3.69-14,5-21.11.6-3.2,2.34-4,5-4.92,13.48-4.65,26.9-9.49,40.33-14.31a22.11,22.11,0,0,0,3-1.73c-7.22-7.18-14.19-14.09-21.14-21-16-16-32-31.88-47.87-48a9,9,0,0,0-8.65-2.93c-28.38,4.2-55.89.6-81.69-11.73-44-21-70.24-56.27-78-104.41-6.44-39.8,3.08-76.12,27.88-107.9,22.24-28.5,51.55-46,87.42-51.32,51.21-7.54,94.32,8.54,128.44,47.27,23.05,26.17,33.39,57.52,33.33,92.24,0,7.38-1.47,14.75-1.92,22.14a7.89,7.89,0,0,0,1.89,5.38q34,34.44,68.21,68.64C473.29,363.64,474,364.09,475.93,365.59Z"/><path class="cls-1" d="M265.23,374.91c10.45-2,20.95-3.71,31.3-6.08,3.58-.82,5.78-.63,8.51,2.11q71.38,71.7,143,143.15c14.37,14.34,31.23,19.55,51,13,29-9.54,40.52-47.55,21.6-71.44a103.8,103.8,0,0,0-7.9-8.87Q442,376,371.11,305.26c-2.85-2.84-3.45-5.17-2.28-8.95A108.14,108.14,0,0,0,296.55,161c-19.61-6-39.42-6.1-59.23-1.17-12.49,3.11-16.27,16.93-7.17,26.35,10.91,11.28,22.2,22.2,33.24,33.36,13.26,13.41,14.18,31.55,2.36,44.51-10.8,11.82-29.57,13.84-41.55,3.22-12.63-11.19-24.28-23.5-36.24-35.43-3.94-3.93-8.13-7-14-6.6-7,.41-12.53,5-14.22,12.25-7.49,32-2.7,62.12,15.6,89.48C195.94,357.73,227.62,373.85,265.23,374.91Z"/></g></g></svg>