<svg xmlns="http://www.w3.org/2000/svg" viewBox="0 0 433.26 411.9"><defs><style>.cls-1{fill:#fff;}</style></defs><g id="Layer_2" data-name="Layer 2"><g id="Layer_1-2" data-name="Layer 1"><path class="cls-1" d="M297.25,331.78c1.16,31.73-29.1,72.8-64.71,79-39.34,6.8-77.75-17-91.28-47.28-11.55-25.85-4.13-66.15,16.59-84.8,5.08-4.57,11.61-7.92,15.5-13.28,2.91-4,5.31-11.72,3.39-15.44-14.84-28.78-36.92-48.05-70-55.16-13.29-2.86-16.75-2.58-18.26,11.57-1.64,15.29-13.9,21-25.89,13-18.87-12.59-37.24-26.06-55-40.2-11.68-9.31-9.33-21.5,3.2-29.74,16.48-10.84,32-23.16,48.75-33.54,5.39-3.35,14.34-5.09,19.81-2.91,4.73,1.88,9.12,10.16,9.61,16,.86,10.4,5.09,13.44,14.87,13.91,25.42,1.24,47.75,11.74,68.65,25.4,29.32,19.17,48.42,46.26,60.73,78.76,1.59,4.17,6.4,8.43,10.7,10.06,22.82,8.65,38,24.71,46.56,47C293.86,312.84,295.05,322.5,297.25,331.78Zm-53.19.69c.13-14.83-13.58-29.67-27.77-30.05-13.86-.37-28.12,14.86-28.25,30.17-.13,15,12,27.65,26.55,27.82C231.85,360.62,243.91,349.18,244.06,332.47Z"/><path class="cls-1" d="M433.26,165.42c-5.27,7.35-8.15,14-13.14,17.82-15.95,12.4-32.45,24.13-49.19,35.45-13.27,9-26.69,2.33-27.94-14.33-.88-11.73-3.5-15.26-15.24-9.58-12.28,5.94-26.06,8.86-38.06,15.23-8,4.23-14.23,12-20.79,18.57-5.7,5.74-10.11,7.72-14.72-1.12-5.58-10.72-14.08-20.59-16.75-31.9-1.32-5.64,6.09-15.52,12.08-20.3,24-19.18,51.4-30.93,82.6-33,3.52-.24,7.85-4.14,9.88-7.5,4.34-7.17,7.3-21.44,11-21.51,10-.18,21,4.09,30.08,9.31,13.16,7.61,25.23,17.22,37.14,26.76C425.09,153.16,428.28,159.1,433.26,165.42Z"/><path class="cls-1" d="M191.49,123.24c0-7.31-.41-10.6.08-13.76,2.35-15.16-1.61-23.12-19.3-21.37-11.1,1.1-16.15-15.48-8.45-26.62,11.77-17,23.68-34,36-50.65,10-13.56,20.3-14.65,30.44-1.84C244,26.39,256.89,44.56,268.85,63.23c8.53,13.3.85,25.82-14.92,25.21-10.37-.41-14.64,2.74-13.55,13.43.77,7.62-1.09,15.63.39,23,3.85,19.27-6.54,30.73-20.59,40.28-2,1.37-6.43.7-9-.52C191.26,155.38,188.34,138.53,191.49,123.24Z"/></g></g></svg>