<svg xmlns="http://www.w3.org/2000/svg" xmlns:xlink="http://www.w3.org/1999/xlink" width="32" height="22.125" viewBox="0 0 32 22.125">
  <defs>
    <clipPath id="clip-path">
      <rect id="Rectangle_71" data-name="Rectangle 71" width="32" height="22.125" fill="#fff"/>
    </clipPath>
  </defs>
  <g id="Group_28" data-name="Group 28" transform="translate(4)">
    <g id="Group_27" data-name="Group 27" transform="translate(-4)" clip-path="url(#clip-path)">
      <path id="Path_83" data-name="Path 83" d="M15.828,22.124c-2.225-.039-4.451-.038-6.673-.132a48.064,48.064,0,0,1-5.021-.423A4.232,4.232,0,0,1,.408,17.727,44.686,44.686,0,0,1,.02,9.892c.029-1.361.1-2.722.2-4.08a12.562,12.562,0,0,1,.343-2.2A4.008,4.008,0,0,1,4.022.521,35.567,35.567,0,0,1,8.914.1C12.521.02,16.131-.026,19.739.015c2.424.027,4.846.217,7.267.362a6.805,6.805,0,0,1,1.629.29,3.887,3.887,0,0,1,2.812,3.417c.212,1.537.37,3.084.468,4.632A43.308,43.308,0,0,1,31.634,17a7.68,7.68,0,0,1-.517,2.16,4.119,4.119,0,0,1-3.554,2.462c-1.947.19-3.9.324-5.858.389s-3.918.014-5.877.014v.1m-2.9-16.03v9.877l8.02-4.939-8.02-4.938" transform="translate(0 0)" fill="#fff"/>
    </g>
  </g>
</svg>
