<svg xmlns="http://www.w3.org/2000/svg" viewBox="0 0 47.64 65.6"><defs><style>.cls-1{fill:#130f41;}.cls-2{fill:#f15e5a;}</style></defs><g id="Layer_2" data-name="Layer 2"><g id="Layer_1-2" data-name="Layer 1"><path class="cls-1" d="M23.82,27.92h-.15A14,14,0,0,1,14,4a13.6,13.6,0,0,1,9.79-4h.1a14,14,0,0,1,9.65,23.93A13.83,13.83,0,0,1,23.82,27.92Zm-.1-22.83a8.65,8.65,0,0,0-6.11,2.53A8.77,8.77,0,0,0,15,13.88a8.89,8.89,0,0,0,8.77,9h.1A8.88,8.88,0,0,0,30.09,7.68a8.78,8.78,0,0,0-6.16-2.59h-.21Z"/><path class="cls-2" d="M23.78,65.6A12.16,12.16,0,1,1,36,53.57,12.16,12.16,0,0,1,23.78,65.6ZM19.52,52.15l-.43.08c-.7.09-.76.16-.76.87v7.69a.54.54,0,0,0,.56.56h9.56a2.17,2.17,0,0,0,.36,0,.52.52,0,0,0,.49-.49c0-.15,0-.3,0-.45V53.89c0-.36,0-.71,0-1.07a.52.52,0,0,0-.46-.57,6.93,6.93,0,0,0-.73-.09c0-.17,0-.33,0-.49,0-.64,0-1.28,0-1.92a5.27,5.27,0,0,0-.21-1.31,4.26,4.26,0,0,0-8.29,1.31c0,.64,0,1.28,0,1.92A4.23,4.23,0,0,1,19.52,52.15Z"/><path class="cls-2" d="M26.64,52.16H21c0-.18,0-.33,0-.47q0-1,0-1.92A2.81,2.81,0,0,1,23.65,47a2.78,2.78,0,0,1,2.91,2.3A19.5,19.5,0,0,1,26.64,52.16Z"/><path class="cls-2" d="M24.75,59.22H22.93c0-.12,0-.22,0-.31.05-.52.08-1,.16-1.56a.75.75,0,0,0-.14-.61,1,1,0,0,1,0-1.25A1.09,1.09,0,0,1,24,55a1,1,0,0,1,.87.9,1.37,1.37,0,0,1-.19.79.92.92,0,0,0-.13.66C24.64,58,24.68,58.56,24.75,59.22Z"/><path class="cls-1" d="M45.1,57.12a2.55,2.55,0,0,1-2.55-2.54,18.73,18.73,0,1,0-37.46,0,2.55,2.55,0,0,1-5.09,0,23.82,23.82,0,0,1,47.64,0A2.54,2.54,0,0,1,45.1,57.12Z"/></g></g></svg>