<svg xmlns="http://www.w3.org/2000/svg" viewBox="0 0 42.94 54.96"><defs><style>.cls-1{fill:#130f41;}.cls-2{fill:#f15e5a;}</style></defs><g id="Layer_2" data-name="Layer 2"><g id="Layer_1-2" data-name="Layer 1"><path class="cls-1" d="M32.83,55H10.53A10.13,10.13,0,0,1,.42,44.85V18.52a2.5,2.5,0,0,1,5,0V44.85A5.12,5.12,0,0,0,10.53,50h22.3a5.12,5.12,0,0,0,5.11-5.11V18.52a2.5,2.5,0,1,1,5,0V44.85A10.12,10.12,0,0,1,32.83,55Z"/><path class="cls-1" d="M40.44,11.94H2.5a2.5,2.5,0,0,1,0-5H40.44a2.5,2.5,0,1,1,0,5Z"/><path class="cls-1" d="M27.84,11.94H15.1a2.5,2.5,0,0,1-2.5-2.5V5.69A5.69,5.69,0,0,1,18.28,0h6.38a5.69,5.69,0,0,1,5.68,5.69V9.44A2.5,2.5,0,0,1,27.84,11.94Zm-10.24-5h7.74V5.69A.68.68,0,0,0,24.66,5H18.28a.69.69,0,0,0-.68.69Z"/><path class="cls-2" d="M12,47.2a2.49,2.49,0,0,1-2.5-2.5V21.11a2.5,2.5,0,0,1,5,0V44.7A2.49,2.49,0,0,1,12,47.2Z"/><path class="cls-2" d="M21.68,47.2a2.49,2.49,0,0,1-2.5-2.5V21.11a2.5,2.5,0,0,1,5,0V44.7A2.49,2.49,0,0,1,21.68,47.2Z"/><path class="cls-2" d="M31.36,47.2a2.49,2.49,0,0,1-2.5-2.5V21.11a2.5,2.5,0,0,1,5,0V44.7A2.49,2.49,0,0,1,31.36,47.2Z"/></g></g></svg>