<svg xmlns="http://www.w3.org/2000/svg" viewBox="0 0 59.272 74.242"><defs><style>.cls-1{fill:#f15e5a;}.cls-2{fill:none;}.cls-3{fill:#130f41;}</style></defs><g id="Layer_2" data-name="Layer 2"><g id="Layer_1-2" data-name="Layer 1"><path class="cls-1" d="M17.681,51.122l-.226-1.147a3.361,3.361,0,0,1-2.778,1.388,4.675,4.675,0,0,1-3.657-1.53A5.351,5.351,0,0,1,9.7,46.105a5.481,5.481,0,0,1,1.318-3.8,4.629,4.629,0,0,1,3.657-1.546,4.476,4.476,0,0,1,2.82.922,3.7,3.7,0,0,1,1.445,2.65H16.817a2.1,2.1,0,0,0-.759-1.262,2.215,2.215,0,0,0-1.381-.439,2.4,2.4,0,0,0-2.126,1.077,4.2,4.2,0,0,0-.624,2.4,4.011,4.011,0,0,0,.624,2.324,2.426,2.426,0,0,0,2.126,1.063,2.151,2.151,0,0,0,2.409-2.182H14.847V45.652H19.1v5.47Z"/><path class="cls-1" d="M20.9,51.122V41h4.365a4.371,4.371,0,0,1,3.274,1.248,5.085,5.085,0,0,1,1.318,3.756,5.53,5.53,0,0,1-1.134,3.656,4.254,4.254,0,0,1-3.458,1.46Zm2.224-8.249v6.378h1.985a2.332,2.332,0,0,0,1.743-.68,3.227,3.227,0,0,0,.779-2.353,3.953,3.953,0,0,0-.623-2.437,2.735,2.735,0,0,0-2.3-.908Z"/><path class="cls-1" d="M31.4,51.122V41h4.563a3.472,3.472,0,0,1,2.694,1.007,3.511,3.511,0,0,1,0,4.479,3.472,3.472,0,0,1-2.694,1.006H33.626v3.628Zm2.225-8.39v3.033h1.729a2.731,2.731,0,0,0,1.361-.269,1.605,1.605,0,0,0,0-2.5,2.72,2.72,0,0,0-1.361-.269Z"/><path class="cls-1" d="M40.854,51.122V41h5.457a2.962,2.962,0,0,1,2.168.823,2.674,2.674,0,0,1,.794,1.97,2.486,2.486,0,0,1-1.6,2.537v.028Q49,46.7,49.145,48.727q.043.611.085,1.219a2.528,2.528,0,0,0,.34,1.176H47.346a4.52,4.52,0,0,1-.242-1.147q-.057-.639-.113-1.276a1.956,1.956,0,0,0-.489-1.177,1.7,1.7,0,0,0-1.2-.354H43.079v3.954Zm2.225-8.39V45.58h2.438q1.531,0,1.53-1.445,0-1.4-1.53-1.4Z"/><path class="cls-1" d="M36.868,34.925H22.4A6.214,6.214,0,0,1,16.2,28.718V21.005A6.214,6.214,0,0,1,22.4,14.8H36.868a6.213,6.213,0,0,1,6.207,6.207v7.713A6.213,6.213,0,0,1,36.868,34.925ZM22.4,17.694a3.315,3.315,0,0,0-3.311,3.311v7.713A3.315,3.315,0,0,0,22.4,32.029H36.868a3.314,3.314,0,0,0,3.311-3.311V21.005a3.314,3.314,0,0,0-3.311-3.311Z"/><path class="cls-1" d="M22.4,13h1.447V8.682a5.785,5.785,0,1,1,11.57,0V13h1.447a6.2,6.2,0,0,1,1.45.173V8.682a8.682,8.682,0,1,0-17.363,0v4.493A6.181,6.181,0,0,1,22.4,13Z"/><path class="cls-2" d="M29.628,59.939A1.281,1.281,0,0,0,28.4,61.176a1.268,1.268,0,0,0,1.251,1.25,1.215,1.215,0,0,0,1.234-1.246A1.254,1.254,0,0,0,29.628,59.939Z"/><path class="cls-3" d="M59.268,28.144c0-.111,0-.222,0-.333a3.45,3.45,0,0,0-1.372-2.635A3.775,3.775,0,0,0,55.5,24.44H45.212v2.472H55.389a2.611,2.611,0,0,1,.729.08.894.894,0,0,1,.674.8,5.667,5.667,0,0,1,.057.662q0,13.75,0,27.5V56.4H2.5c-.01-.147-.028-.277-.028-.407q0-13.9,0-27.8a3.079,3.079,0,0,1,.01-.333,1.026,1.026,0,0,1,.94-.939,4.518,4.518,0,0,1,.48-.011H14V24.441H4.049c-.185,0-.37-.007-.555,0a3.579,3.579,0,0,0-2.7,1.328A3.636,3.636,0,0,0,0,28.11Q0,45.194,0,62.275a4.159,4.159,0,0,0,.072.771,3.422,3.422,0,0,0,2.025,2.6,4.474,4.474,0,0,0,1.915.336q25.374,0,50.747,0c.431,0,.864-.009,1.293-.051a3.4,3.4,0,0,0,2.861-1.943,3.691,3.691,0,0,0,.356-1.72Q59.265,45.208,59.268,28.144ZM29.647,62.426a1.268,1.268,0,0,1-1.251-1.25,1.281,1.281,0,0,1,1.232-1.237,1.254,1.254,0,0,1,1.253,1.241A1.215,1.215,0,0,1,29.647,62.426Z"/><path class="cls-3" d="M39.018,71.812a8.917,8.917,0,0,1-.925,0,2.356,2.356,0,0,1-2.372-1.983c-.071-.388-.11-.781-.163-1.172-.049-.362-.079-.39-.438-.4-.061,0-.123,0-.185,0H24.349c-.086,0-.173.006-.259,0-.216-.018-.309.083-.335.294-.048.391-.1.782-.173,1.17a2.354,2.354,0,0,1-2.5,2.09c-.333,0-.666,0-1,0a1.073,1.073,0,0,0-.959.532,1.214,1.214,0,0,0,1.034,1.88H30.927c2.7,0,5.4-.014,8.1.009a1.213,1.213,0,0,0,1.323-1.224A1.185,1.185,0,0,0,39.018,71.812Z"/></g></g></svg>