<svg xmlns="http://www.w3.org/2000/svg" viewBox="0 0 30 30"><defs><style>.cls-1{fill:#130f41;opacity:0;}.cls-2{fill:#f15e5a;}</style></defs><g id="Layer_2" data-name="Layer 2"><g id="Layer_2-2" data-name="Layer 2"><rect class="cls-1" width="30" height="30"/><path class="cls-2" d="M9.663,29.262A9.663,9.663,0,1,1,19.326,19.6,9.674,9.674,0,0,1,9.663,29.262Zm0-18.834A9.171,9.171,0,1,0,18.835,19.6,9.181,9.181,0,0,0,9.663,10.428Z"/><path class="cls-2" d="M20.337,29.262A9.663,9.663,0,1,1,30,19.6,9.674,9.674,0,0,1,20.337,29.262Zm0-18.834A9.171,9.171,0,1,0,29.508,19.6,9.181,9.181,0,0,0,20.337,10.428Z"/><path class="cls-2" d="M9.663,29.262A9.663,9.663,0,1,1,19.326,19.6,9.674,9.674,0,0,1,9.663,29.262Zm0-18.834A9.171,9.171,0,1,0,18.835,19.6,9.181,9.181,0,0,0,9.663,10.428Z"/><path class="cls-2" d="M20.337,29.262A9.663,9.663,0,1,1,30,19.6,9.674,9.674,0,0,1,20.337,29.262Zm0-18.834A9.171,9.171,0,1,0,29.508,19.6,9.181,9.181,0,0,0,20.337,10.428Z"/><path class="cls-2" d="M15.064,20.064A9.663,9.663,0,1,1,19.985,2.076h0a9.662,9.662,0,0,1-4.921,17.988ZM15.1,1.233A9.167,9.167,0,1,0,19.736,2.5h0A9.124,9.124,0,0,0,15.1,1.233Z"/></g></g></svg>