<svg xmlns="http://www.w3.org/2000/svg" viewBox="0 0 331.79 246.44"><defs><style>.cls-1{fill:#f15e5a;}</style></defs><g id="Layer_2" data-name="Layer 2"><g id="Layer_1-2" data-name="Layer 1"><path class="cls-1" d="M318.82,111.69l-55.27-55.2A43.93,43.93,0,0,0,232.3,43.56h0a44.18,44.18,0,0,0-19.08,4.32L194.68,29.39c-20.61-20.59-52.47-22.25-71-3.69-9,9-13.55,21.38-12.82,34.82a53.87,53.87,0,0,0,5.48,20.71,5.91,5.91,0,0,1,3-.73,50.66,50.66,0,0,1-5.47-20.14c-.69-12.58,3.55-24.14,11.94-32.54a41.86,41.86,0,0,1,30-12,52.51,52.51,0,0,1,36.79,15.72l17.86,17.84a43.16,43.16,0,0,0-4.87,3.22l-.23.18c-.63.49-1.25,1-1.86,1.52l-.47.4c-.67.6-1.34,1.22-2,1.86l-44.63,44.69a5.52,5.52,0,0,1,2.26,2l44.49-44.55c.7-.7,1.43-1.36,2.17-2l.39-.33a41.15,41.15,0,0,1,7.9-5.26l1.11-.57a41.23,41.23,0,0,1,17.57-3.92h0a41,41,0,0,1,29.13,12.06l55.27,55.2a41.21,41.21,0,0,1,0,58.29l-46.4,46.47a41,41,0,0,1-29.14,12.09h0A41,41,0,0,1,212,218.61l-52.51-52.44a4.62,4.62,0,0,1-1.76,2.48l52.15,52.08a44.26,44.26,0,0,0,62.54,0l46.4-46.47a44.22,44.22,0,0,0,0-62.54Z"/><path class="cls-1" d="M159.24,100.22A44,44,0,0,0,144.85,87l4.7-25.74a55.6,55.6,0,0,0-7-39.19c-7-11.48-17.83-19-30.36-21.34S87,1.7,76.31,9.94A55.67,55.67,0,0,0,56,44.15l-4.7,25.77a44.29,44.29,0,0,0-36.5,35.71l-14,76.84a44.24,44.24,0,0,0,35.56,51.45l64.6,11.79a44.69,44.69,0,0,0,8,.73,44.24,44.24,0,0,0,43.41-36.29l14-76.84A43.94,43.94,0,0,0,159.24,100.22ZM54.38,69.52l4.53-24.83A52.61,52.61,0,0,1,78.15,12.32C88.11,4.6,100,1.53,111.71,3.66s21.74,9.22,28.33,20A52.65,52.65,0,0,1,146.6,60.7l-4.54,24.83a44,44,0,0,0-5.41-2.18c-.09,0-.19,0-.28-.09-.76-.24-1.52-.46-2.3-.66l-.61-.16c-.88-.21-1.76-.41-2.66-.57L66.21,70.07c-.7-.13-1.4-.23-2.1-.33l-.91-.1c-.39,0-.78-.09-1.17-.12l-1.12-.08-.95,0-1.22,0H57.9c-.42,0-.83,0-1.24,0l-.78,0-1.28.09Zm109,63.25-14,76.84a41.23,41.23,0,0,1-48,33.15L36.83,231A41.22,41.22,0,0,1,3.68,183l14-76.84A41.31,41.31,0,0,1,53,72.7l.89-.11.92-.09.93-.07,1,0c.29,0,.58,0,.88,0q.86,0,1.71,0l.72,0,1.18.07.75.06,1.23.13.65.08c.63.08,1.25.18,1.88.29l64.6,11.8c.6.11,1.21.24,1.81.37l.68.17,1.06.27.89.26.71.22a41.11,41.11,0,0,1,7,3l1.11.6a41.3,41.3,0,0,1,19.84,43.07Z"/></g></g></svg>