<svg xmlns="http://www.w3.org/2000/svg" viewBox="0 0 71.19 61.49"><defs><style>.cls-1{fill:#f15e5a;}.cls-2{fill:#130f41;}</style></defs><g id="Layer_2" data-name="Layer 2"><g id="Layer_1-2" data-name="Layer 1"><path class="cls-1" d="M42.92,45.25c.14.18.27.37.41.54a9.44,9.44,0,0,1,2.05,4.71,9.31,9.31,0,0,1-1.61,6.84,9.42,9.42,0,0,1-6.42,4,10,10,0,0,1-10.83-5.87,9.54,9.54,0,0,1-.78-4.71A9.24,9.24,0,0,1,28,45.41,9.6,9.6,0,0,1,31.3,42.9l.23-.13v-.34q0-8.7,0-17.4c0-.1,0-.2,0-.3A2.48,2.48,0,0,1,32.06,23c.86-1.2,1.71-2.4,2.53-3.63a.7.7,0,0,1,1.14-.08C36.8,20.58,37.9,21.8,39,23l.34.36a1.22,1.22,0,0,1,.37.94c0,.29,0,.58,0,.86a.9.9,0,0,1-.31.74l-2,1.88.88.88c.36.36.7.73,1.07,1.07a.71.71,0,0,1-.08,1.07,12.61,12.61,0,0,0-1,.81h0c-.29.23-.6.45-.89.69a4.07,4.07,0,0,0-.34.29l.16.14,2,1.43a.56.56,0,0,1,.06,1c-.62.55-1.25,1.07-1.88,1.6l-.22.2c.22.22.41.43.62.63.64.62,1.29,1.23,1.94,1.84a.53.53,0,0,1,.15.41c0,.94,0,1.87,0,2.81V43l.34.2,1.19.71h0l1,.86h0l.5.5ZM30.72,57.69h0a8,8,0,0,0,5.94,1.7,7.58,7.58,0,0,0,6.64-8.85A7.65,7.65,0,0,0,39,44.89a2.08,2.08,0,0,1-1.23-2c0-.62,0-1.25,0-1.88a.93.93,0,0,0-.38-.9,5.25,5.25,0,0,1-.42-.4l-1.38-1.33a1.91,1.91,0,0,1-.58-1.44,2,2,0,0,1,.79-1.54c.23-.18.44-.38.69-.6L36,34.47A2.19,2.19,0,0,1,35,32.88a2,2,0,0,1,.65-1.74c.3-.27.62-.51.93-.76.09-.07.16-.15.28-.26-.32-.29-.61-.56-.88-.83a2,2,0,0,1-.52-.75,2,2,0,0,1,.47-2.16c.53-.53,1.1-1,1.65-1.53l.17-.2L35.34,22c-.06,0-.08,0-.09.06l-1.61,2.29a.7.7,0,0,0-.12.44c0,.25,0,.51,0,.77,0,1.62,0,3.24,0,4.86q0,6.19,0,12.38a1.92,1.92,0,0,1-1.22,1.87,7.51,7.51,0,0,0-2.8,2.06,7.35,7.35,0,0,0-1.48,7.06A7.62,7.62,0,0,0,30.72,57.69Z"/><path class="cls-2" d="M24.66,44.23c-.42,0-.85,0-1.27,0a3.84,3.84,0,0,1-2.83-1.5,4,4,0,0,1-.92-2.6v-.93q0-9.45,0-18.9a3.52,3.52,0,0,1,2.71-3.44,3,3,0,0,1,.73-.08h1V9.88A9.56,9.56,0,0,1,26.5,3.54L27,3a.93.93,0,0,1,.14-.14,14,14,0,0,1,1.67-1.28A10.34,10.34,0,0,1,33.06.07c.4,0,.81-.06,1.22-.07h2.58a10.41,10.41,0,0,1,6.41,2.18c.21.16.41.33.61.51l.29.25.08.1.33.4c.28.33.56.66.81,1A8.91,8.91,0,0,1,47,8.76c.07.75.08,1.5.08,2.22v5.78h1a3.48,3.48,0,0,1,3.44,3.43c0,1.91,0,3.82,0,5.73v3.29a2.11,2.11,0,0,1-2.16,2.2h-.3a2.15,2.15,0,0,1-1.83-1.93c0-.14,0-.27,0-.4v-8H40.12a1.77,1.77,0,0,1-1.4-.64l-1-1.11-.46-.51a1.59,1.59,0,0,1-.22-.35,1.23,1.23,0,0,1,0-1.09,1.16,1.16,0,0,1,.88-.59,5.72,5.72,0,0,1,.58,0h4.25s0-4.79,0-6.58a5.48,5.48,0,0,0-1.52-3.94,5.67,5.67,0,0,0-3.46-1.83,11.05,11.05,0,0,0-1.37-.1h-1.9a6.25,6.25,0,0,0-2.35.4,5.63,5.63,0,0,0-3.72,4.41,6,6,0,0,0-.09,1.11c0,1.83,0,3.66,0,5.49v1h4.08a1.15,1.15,0,0,1,.95.5,1.14,1.14,0,0,1,.12,1.07,1.69,1.69,0,0,1-.22.45l-1.13,1.65a1.46,1.46,0,0,1-1.22.64H24V39.92h4.62a1.14,1.14,0,0,1,1.08.78A1.23,1.23,0,0,1,29.31,42l-.45.37a9.51,9.51,0,0,0-1.34,1.28,1.55,1.55,0,0,1-1.2.57Z"/><path class="cls-2" d="M43.35,3.75c.37.46.77.89,1.1,1.37a7.75,7.75,0,0,1,1.44,3.75c.08.8.07,1.62.07,2.43,0,2.09,0,4.19,0,6.28v.31h.35c.6,0,1.21,0,1.82,0a2.35,2.35,0,0,1,2.27,2.29c0,3,0,6,0,9a1,1,0,0,1-1.18,1.05,1,1,0,0,1-.83-.88c0-.13,0-.27,0-.4V20.42c0-.36-.15-.5-.51-.5-1,0-1.91,0-2.87,0-1.63,0-3.26,0-4.89,0a.62.62,0,0,1-.53-.23c-.48-.56-1-1.1-1.45-1.64a.54.54,0,0,1-.06-.13c.34,0,.66,0,1,0h4.88c0-.13,0-.23,0-.33,0-2.46,0-4.93,0-7.39a6.65,6.65,0,0,0-1.83-4.73A6.94,6.94,0,0,0,38,3.27c-.5-.07-1-.09-1.5-.11s-1.3,0-1.94,0a7.45,7.45,0,0,0-2.77.48,6.78,6.78,0,0,0-4.42,5.27,7.28,7.28,0,0,0-.11,1.32c0,2.44,0,4.88,0,7.33v.34h5.22a1.9,1.9,0,0,1-.09.22l-1.14,1.65a.32.32,0,0,1-.28.15H23.49a2.43,2.43,0,0,0-.27,0,.41.41,0,0,0-.42.41V39.79c0,1,.33,1.28,1.28,1.28h4.49v0l-.44.37a10.82,10.82,0,0,0-1.51,1.44.38.38,0,0,1-.32.15c-.95,0-1.91,0-2.86,0a2.7,2.7,0,0,1-2-1.07,2.87,2.87,0,0,1-.66-1.87c0-6.62,0-13.23,0-19.84A2.39,2.39,0,0,1,22.61,18a2,2,0,0,1,.48-.05c.59,0,1.17,0,1.76,0h.38v-.39c0-2.55,0-5.09,0-7.64a8.37,8.37,0,0,1,2.14-5.59l.46-.54h0a12.93,12.93,0,0,1,1.56-1.2,9,9,0,0,1,3.79-1.34,10.34,10.34,0,0,1,1.11-.07c.86,0,1.72,0,2.58,0a9.19,9.19,0,0,1,5.72,2c.26.2.51.44.77.66Z"/><path class="cls-2" d="M46.24,44.22H44.75a1.63,1.63,0,0,1-1.28-.56,9.58,9.58,0,0,0-1.69-1.53,1.5,1.5,0,0,1-.34-.37,1.22,1.22,0,0,1-.07-1.21,1.14,1.14,0,0,1,1-.64h4.89V37.19a2.12,2.12,0,0,1,2.16-2.14h.13a2.08,2.08,0,0,1,2,2.06v.67c0,.88,0,1.79,0,2.7a3.88,3.88,0,0,1-2,3.16,3.94,3.94,0,0,1-2.11.58Z"/><path class="cls-2" d="M42.35,41.07h4.76a2.51,2.51,0,0,0,.55-.06.82.82,0,0,0,.68-.67,3.05,3.05,0,0,0,0-.52c0-.87,0-1.75,0-2.62a1,1,0,0,1,1.08-1,1,1,0,0,1,.92.93c0,1.1,0,2.2,0,3.3A2.72,2.72,0,0,1,49,42.67a2.85,2.85,0,0,1-1.56.41H44.74a.47.47,0,0,1-.4-.16,10.56,10.56,0,0,0-1.89-1.71S42.41,41.16,42.35,41.07Z"/><path class="cls-2" d="M58.18,9.82a1,1,0,0,1-1.3,1,3.31,3.31,0,0,1-.65-.27,1,1,0,0,1,.84-1.84,5.24,5.24,0,0,1,.64.29A1,1,0,0,1,58.18,9.82Z"/><path class="cls-2" d="M61.94,11.86a1,1,0,0,1-1.46,1,2.85,2.85,0,0,1-.68-.47,1,1,0,0,1-.11-1.3,1,1,0,0,1,1.25-.33,2.85,2.85,0,0,1,.7.49A.8.8,0,0,1,61.94,11.86Z"/><path class="cls-2" d="M65.2,46v0a1.64,1.64,0,0,1-1.3,1.33A1,1,0,0,1,63,46a1.61,1.61,0,0,1,1-.91A1,1,0,0,1,65.2,46Z"/><path class="cls-2" d="M53,51.37a1,1,0,0,1,1.12.92,1,1,0,0,1-.73,1.07,3.86,3.86,0,0,1-.57.12,1,1,0,0,1-1.17-.82,1,1,0,0,1,.77-1.17C52.62,51.43,52.85,51.4,53,51.37Z"/><path class="cls-2" d="M69.75,24.87a1,1,0,0,1,1,.75,2,2,0,0,1,.1,1,1,1,0,0,1-.94.79,1,1,0,0,1-1-.66,3.53,3.53,0,0,1-.15-.85A1,1,0,0,1,69.75,24.87Z"/><path class="cls-2" d="M54.06,8.49a1,1,0,0,1-1.19,1l-.54-.11a1,1,0,0,1-.76-1.11,1,1,0,0,1,1-.88,3.13,3.13,0,0,1,.9.18A.91.91,0,0,1,54.06,8.49Z"/><path class="cls-2" d="M67.81,42.71a1.68,1.68,0,0,1-.89,1.2,1,1,0,0,1-1.32-1.28,3.39,3.39,0,0,1,.51-.8,1,1,0,0,1,1.14-.18A1.06,1.06,0,0,1,67.81,42.71Z"/><path class="cls-2" d="M62,48.88V49a1.42,1.42,0,0,1-2,1,1,1,0,0,1-.11-1.55,3.12,3.12,0,0,1,.59-.44A1,1,0,0,1,62,48.88Z"/><path class="cls-2" d="M62.79,14.51a1,1,0,0,1,.58-.91.93.93,0,0,1,1.07.08,3.3,3.3,0,0,1,.61.68,1,1,0,0,1-.19,1.24,1,1,0,0,1-1.28.07A3.53,3.53,0,0,1,63,15,2.77,2.77,0,0,1,62.79,14.51Z"/><path class="cls-2" d="M68.54,40.14a1,1,0,0,1-1-1.34c.06-.17.12-.35.19-.52A1,1,0,0,1,69.49,38a1,1,0,0,1,.18.93,2.82,2.82,0,0,1-.24.63A.92.92,0,0,1,68.54,40.14Z"/><path class="cls-2" d="M69.7,22.09A1,1,0,0,1,69,23.16a1,1,0,0,1-1.13-.47,2,2,0,0,1-.32-1,1,1,0,0,1,.67-.94,1,1,0,0,1,1.11.3A2.2,2.2,0,0,1,69.7,22.09Z"/><path class="cls-2" d="M68.75,34.8a5.72,5.72,0,0,1,.14-.66,1,1,0,0,1,2,.52,5.22,5.22,0,0,1-.11.57,1,1,0,0,1-1.12.76A1.06,1.06,0,0,1,68.75,34.8Z"/><path class="cls-2" d="M65.87,18.8l-.19-.35A1,1,0,0,1,66,17a1,1,0,0,1,1.45.33l.22.33a1.06,1.06,0,0,1,0,1.16,1.14,1.14,0,0,0-.1.19h0l-.24.13A1,1,0,0,1,66.06,19l-.19-.19Z"/><path class="cls-2" d="M55.76,51.22a1,1,0,0,1,.68-1,3.33,3.33,0,0,1,.4-.16,1,1,0,0,1,1.25,1.43.73.73,0,0,1-.28.32,4.43,4.43,0,0,1-.93.38A1,1,0,0,1,55.76,51.22Z"/><path class="cls-2" d="M71.19,30.44a2.69,2.69,0,0,1,0,.49,1,1,0,0,1-1.06.75,1,1,0,0,1-.92-.95c0-.2,0-.41,0-.61a1,1,0,0,1,2,0c0,.1,0,.21,0,.31Z"/><path class="cls-2" d="M49.33,35.36a2.15,2.15,0,0,1-2.09-2.13,2.11,2.11,0,0,1,.62-1.54,2,2,0,0,1,1.46-.64h.14a2.14,2.14,0,0,1,1.47,3.65,2.11,2.11,0,0,1-1.5.66Z"/><path class="cls-2" d="M49.41,32.2a1,1,0,0,1,1,1,1,1,0,0,1-1,1,1,1,0,0,1-1-1A1,1,0,0,1,49.41,32.2Z"/><polygon class="cls-2" points="50.91 23.16 50.9 23.14 50.91 23.16 50.91 23.16"/><polygon class="cls-2" points="50.42 23.65 50.41 23.64 50.42 23.65 50.42 23.65"/><polygon class="cls-2" points="41.39 42.75 41.4 42.74 41.38 42.75 41.39 42.75"/><polygon class="cls-2" points="65.87 18.8 65.86 18.81 65.87 18.8 65.87 18.8"/><polygon class="cls-2" points="38.24 30.49 38.26 30.5 38.24 30.49 38.24 30.49"/><polygon class="cls-2" points="43.36 3.76 43.37 3.74 43.35 3.75 43.36 3.76"/><polygon class="cls-2" points="27.83 3.75 27.82 3.74 27.83 3.76 27.83 3.75"/><path class="cls-2" d="M67.53,19.05h0Z"/><polygon class="cls-2" points="60.28 11.84 60.27 11.86 60.28 11.85 60.28 11.84"/><path class="cls-1" d="M39.56,51a4,4,0,1,1-4-4A3.94,3.94,0,0,1,39.56,51Zm-2,.08a1.93,1.93,0,1,0-2.05,1.85A1.91,1.91,0,0,0,37.52,51Z"/><polygon class="cls-2" points="63.46 35.31 63.45 35.29 63.47 35.3 63.46 35.31"/><path class="cls-2" d="M13,9.85a1,1,0,0,0,1.3,1,3.44,3.44,0,0,0,.65-.28,1,1,0,0,0-.83-1.84,4.63,4.63,0,0,0-.64.29A1,1,0,0,0,13,9.85Z"/><path class="cls-2" d="M9.26,11.88a1,1,0,0,0,1.46,1,3.16,3.16,0,0,0,.67-.48,1,1,0,0,0-1.14-1.63,3.68,3.68,0,0,0-.7.49A.82.82,0,0,0,9.26,11.88Z"/><path class="cls-2" d="M6,46.05v0a1.65,1.65,0,0,0,1.3,1.33,1,1,0,0,0,1-1.44,1.65,1.65,0,0,0-1-.91A1,1,0,0,0,6,46.05Z"/><path class="cls-2" d="M18.22,51.39a1,1,0,0,0-1.12.92,1,1,0,0,0,.74,1.07,3.38,3.38,0,0,0,.57.12,1,1,0,0,0,1.17-.82,1,1,0,0,0-.77-1.17Z"/><path class="cls-2" d="M1.44,24.89a1,1,0,0,0-1,.75,2,2,0,0,0-.1,1,1,1,0,0,0,.94.79,1,1,0,0,0,1-.66,3.56,3.56,0,0,0,.16-.84A1,1,0,0,0,1.44,24.89Z"/><path class="cls-2" d="M17.14,8.52a1,1,0,0,0,1.18,1l.54-.11a1,1,0,0,0,.77-1.11,1,1,0,0,0-1-.88,3,3,0,0,0-.89.18A.91.91,0,0,0,17.14,8.52Z"/><path class="cls-2" d="M3.38,42.73a1.75,1.75,0,0,0,.89,1.21,1,1,0,0,0,1.08-.21.92.92,0,0,0,.24-1.07,2.6,2.6,0,0,0-.51-.8A1,1,0,0,0,4,41.67,1.08,1.08,0,0,0,3.38,42.73Z"/><path class="cls-2" d="M9.25,48.9V49a1.42,1.42,0,0,0,2,1,1,1,0,0,0,.12-1.55,2.53,2.53,0,0,0-.6-.43A1,1,0,0,0,9.25,48.9Z"/><path class="cls-2" d="M8.4,14.53a1,1,0,0,0-.57-.91.93.93,0,0,0-1.07.08,2.86,2.86,0,0,0-.61.69,1,1,0,0,0,.19,1.23,1,1,0,0,0,1.28.07,3.15,3.15,0,0,0,.58-.63A1.87,1.87,0,0,0,8.4,14.53Z"/><path class="cls-2" d="M2.66,40.16a1,1,0,0,0,1-1.34,4.5,4.5,0,0,0-.2-.51,1,1,0,0,0-1.72-.26,1,1,0,0,0-.19.93,4.32,4.32,0,0,0,.24.63A.93.93,0,0,0,2.66,40.16Z"/><path class="cls-2" d="M1.49,22.11a1,1,0,0,0,.74,1.07,1,1,0,0,0,1.14-.46,2,2,0,0,0,.31-1A1,1,0,0,0,3,20.79a1,1,0,0,0-1.11.3A2.12,2.12,0,0,0,1.49,22.11Z"/><path class="cls-2" d="M2.45,34.83a4.23,4.23,0,0,0-.15-.67,1,1,0,0,0-1.22-.61,1,1,0,0,0-.73,1.13c0,.19.06.39.11.57A1,1,0,0,0,1.59,36,1.06,1.06,0,0,0,2.45,34.83Z"/><path class="cls-2" d="M5.32,18.82c.07-.11.12-.23.19-.35a1,1,0,1,0-1.72-1.08c-.08.11-.15.22-.22.33a1,1,0,0,0,0,1.16l.09.19h0l.24.13A1,1,0,0,0,5.13,19l.2-.19Z"/><path class="cls-2" d="M15.44,51.24a1,1,0,0,0-.69-1l-.4-.16a1,1,0,0,0-1.11.29,1,1,0,0,0-.14,1.14.8.8,0,0,0,.28.32,4.66,4.66,0,0,0,.93.38A1,1,0,0,0,15.44,51.24Z"/><path class="cls-2" d="M0,30.46A2.7,2.7,0,0,0,0,31a1,1,0,0,0,1.06.76,1,1,0,0,0,.92-1c0-.2,0-.41,0-.61a1,1,0,0,0-1-1,1,1,0,0,0-1,1v.31Z"/><polygon class="cls-2" points="5.33 18.82 5.33 18.83 5.32 18.82 5.33 18.82"/><path class="cls-2" d="M3.66,19.07Z"/><polygon class="cls-2" points="10.91 11.86 10.92 11.88 10.91 11.87 10.91 11.86"/><polygon class="cls-2" points="7.73 35.34 7.74 35.32 7.72 35.33 7.73 35.34"/></g></g></svg>