<svg xmlns="http://www.w3.org/2000/svg" viewBox="0 0 30 30"><defs><style>.cls-1{fill:#130f41;opacity:0;}.cls-2{fill:#f15e5a;}</style></defs><g id="Layer_2" data-name="Layer 2"><g id="Layer_2-2" data-name="Layer 2"><rect class="cls-1" width="30" height="30"/><path class="cls-2" d="M23.437,21.563a6.509,6.509,0,0,1-5.259-2.636.246.246,0,1,1,.393-.295,6.072,6.072,0,1,0,.453-7.8.246.246,0,0,1-.358-.338,6.5,6.5,0,0,1,4.771-2.054,6.563,6.563,0,0,1,0,13.126Z"/><path class="cls-2" d="M18.374,19.026a.243.243,0,0,1-.183-.083l-7.22-8.119a.246.246,0,1,1,.367-.327l7.22,8.119a.246.246,0,0,1-.184.41Z"/><path class="cls-2" d="M18.374,19.026a.243.243,0,0,1-.183-.083l-7.22-8.119a.246.246,0,1,1,.367-.327l7.22,8.119a.246.246,0,0,1-.184.41Z"/><path class="cls-2" d="M6.563,21.563a6.563,6.563,0,0,1,0-13.126,6.5,6.5,0,0,1,4.771,2.054.246.246,0,1,1-.358.338,6.072,6.072,0,1,0,.453,7.8.246.246,0,1,1,.393.3A6.509,6.509,0,0,1,6.563,21.563Z"/><path class="cls-2" d="M11.626,19.026a.246.246,0,0,1-.184-.41l2.392-2.689a.246.246,0,1,1,.367.327l-2.392,2.689A.243.243,0,0,1,11.626,19.026Z"/><path class="cls-2" d="M15.926,14.19a.241.241,0,0,1-.163-.062.245.245,0,0,1-.02-.347L18.662,10.5a.246.246,0,1,1,.367.327l-2.92,3.284A.246.246,0,0,1,15.926,14.19Z"/></g></g></svg>