<svg xmlns="http://www.w3.org/2000/svg" viewBox="0 0 105.799 105.799"><defs><style>.cls-1{fill:#130f41;}.cls-2{fill:#f15e5a;}</style></defs><g id="Layer_2" data-name="Layer 2"><g id="Layer_2-2" data-name="Layer 2"><rect class="cls-1" x="50.563" y="23.512" width="10.866" height="10.866" rx="4.64" transform="translate(36.868 -31.117) rotate(45)"/><rect class="cls-1" x="31.507" y="29.386" width="8.105" height="39.99" rx="3.429" transform="translate(45.333 -10.681) rotate(45)"/><path class="cls-2" d="M58.985,38.183a72.251,72.251,0,0,1,8.357,13.4,29.641,29.641,0,0,0-3.057-18.7Z"/><path class="cls-2" d="M52.056,20.656A29.633,29.633,0,0,0,33.36,17.6a72.251,72.251,0,0,1,13.4,8.357Z"/><path class="cls-1" d="M72.439,74.7a5.569,5.569,0,0,0-1.941-.821v4.382a3.009,3.009,0,0,0,1.644-.617,1.927,1.927,0,0,0,.823-1.62A1.619,1.619,0,0,0,72.439,74.7Z"/><path class="cls-1" d="M67.1,68.427a1.471,1.471,0,0,0,.466,1.165,3.682,3.682,0,0,0,1.586.661V66.532a2.206,2.206,0,0,0-1.438.5A1.7,1.7,0,0,0,67.1,68.427Z"/><path class="cls-1" d="M69.837,56.386a16.1,16.1,0,1,0,16.1,16.1A16.1,16.1,0,0,0,69.837,56.386Zm5.227,22.542A6.347,6.347,0,0,1,70.5,80.936v1.94H69.151v-1.94q-5.18-.387-5.682-5.684H66.71a2.888,2.888,0,0,0,.662,2.01,3,3,0,0,0,1.779,1V73.5c-.044-.015-.288-.084-.73-.207a8.769,8.769,0,0,1-3.15-1.369,3.808,3.808,0,0,1-1.414-3.173,4.4,4.4,0,0,1,1.62-3.561,6.285,6.285,0,0,1,3.674-1.324V62.1H70.5v1.758a6.457,6.457,0,0,1,3.517,1.371,4.728,4.728,0,0,1,1.62,3.492H72.393a2.4,2.4,0,0,0-.57-1.553,1.688,1.688,0,0,0-1.325-.639v4.04c.243.062.632.16,1.165.3A6.226,6.226,0,0,1,75.612,73.4a5.51,5.51,0,0,1,.593,2.763A4.185,4.185,0,0,1,75.064,78.928Z"/><path class="cls-2" d="M52.9,0a52.9,52.9,0,1,0,52.9,52.9A52.96,52.96,0,0,0,52.9,0Zm0,9.573a43.1,43.1,0,0,1,26.217,8.863L18.436,79.117A43.3,43.3,0,0,1,52.9,9.573Zm0,86.653A43.124,43.124,0,0,1,25.042,86.048L86.048,25.042A43.3,43.3,0,0,1,52.9,96.226Z"/></g></g></svg>