<svg xmlns="http://www.w3.org/2000/svg" viewBox="0 0 105.799 105.799"><defs><style>.cls-1{fill:#f15e5a;}.cls-2{fill:#130f41;}</style></defs><g id="Layer_2" data-name="Layer 2"><g id="Layer_2-2" data-name="Layer 2"><path class="cls-1" d="M41.484,36.666a1.109,1.109,0,0,1-1.108-1.109V26.34a1.109,1.109,0,1,1,2.217,0v9.217A1.109,1.109,0,0,1,41.484,36.666Z"/><path class="cls-1" d="M49.238,36.666a1.109,1.109,0,0,1-1.109-1.109V26.34a1.109,1.109,0,0,1,2.218,0v9.217A1.11,1.11,0,0,1,49.238,36.666Z"/><path class="cls-1" d="M56.991,36.666a1.11,1.11,0,0,1-1.109-1.109V26.34a1.109,1.109,0,0,1,2.218,0v9.217A1.11,1.11,0,0,1,56.991,36.666Z"/><path class="cls-1" d="M64.744,36.666a1.109,1.109,0,0,1-1.108-1.109V26.34a1.109,1.109,0,1,1,2.217,0v9.217A1.109,1.109,0,0,1,64.744,36.666Z"/><path class="cls-1" d="M41.484,80.568a1.108,1.108,0,0,1-1.108-1.108V70.242a1.109,1.109,0,0,1,2.217,0V79.46A1.108,1.108,0,0,1,41.484,80.568Z"/><path class="cls-1" d="M49.238,80.568a1.108,1.108,0,0,1-1.109-1.108V70.242a1.109,1.109,0,0,1,2.218,0V79.46A1.109,1.109,0,0,1,49.238,80.568Z"/><path class="cls-1" d="M56.991,80.568a1.109,1.109,0,0,1-1.109-1.108V70.242a1.109,1.109,0,0,1,2.218,0V79.46A1.109,1.109,0,0,1,56.991,80.568Z"/><path class="cls-1" d="M64.744,80.568a1.108,1.108,0,0,1-1.108-1.108V70.242a1.109,1.109,0,0,1,2.217,0V79.46A1.108,1.108,0,0,1,64.744,80.568Z"/><path class="cls-1" d="M35.557,42.378H26.34a1.109,1.109,0,1,1,0-2.217h9.217a1.109,1.109,0,1,1,0,2.217Z"/><path class="cls-1" d="M35.557,50.132H26.34a1.109,1.109,0,0,1,0-2.218h9.217a1.109,1.109,0,0,1,0,2.218Z"/><path class="cls-1" d="M35.557,57.885H26.34a1.109,1.109,0,0,1,0-2.218h9.217a1.109,1.109,0,0,1,0,2.218Z"/><path class="cls-1" d="M35.557,65.638H26.34a1.109,1.109,0,1,1,0-2.217h9.217a1.109,1.109,0,1,1,0,2.217Z"/><path class="cls-1" d="M79.46,42.378H70.242a1.109,1.109,0,0,1,0-2.217H79.46a1.109,1.109,0,0,1,0,2.217Z"/><path class="cls-1" d="M79.46,50.132H70.242a1.109,1.109,0,0,1,0-2.218H79.46a1.109,1.109,0,0,1,0,2.218Z"/><path class="cls-1" d="M79.46,57.885H70.242a1.109,1.109,0,0,1,0-2.218H79.46a1.109,1.109,0,0,1,0,2.218Z"/><path class="cls-1" d="M79.46,65.638H70.242a1.109,1.109,0,0,1,0-2.217H79.46a1.109,1.109,0,0,1,0,2.217Z"/><path class="cls-2" d="M64.315,72.09H41.484a7.784,7.784,0,0,1-7.775-7.775V41.484a7.784,7.784,0,0,1,7.775-7.775H64.315a7.784,7.784,0,0,1,7.775,7.775V64.315A7.784,7.784,0,0,1,64.315,72.09ZM41.484,37.405a4.084,4.084,0,0,0-4.079,4.079V64.315a4.084,4.084,0,0,0,4.079,4.079H64.315a4.084,4.084,0,0,0,4.079-4.079V41.484a4.084,4.084,0,0,0-4.079-4.079Z"/><rect class="cls-1" x="44.789" y="44.789" width="16.221" height="16.221" rx="3.616"/><path class="cls-1" d="M52.9,0a52.9,52.9,0,1,0,52.9,52.9A52.96,52.96,0,0,0,52.9,0Zm0,9.573a43.1,43.1,0,0,1,26.217,8.863L18.436,79.117A43.3,43.3,0,0,1,52.9,9.573Zm0,86.653A43.124,43.124,0,0,1,25.042,86.048L86.048,25.042A43.3,43.3,0,0,1,52.9,96.226Z"/></g></g></svg>