<svg xmlns="http://www.w3.org/2000/svg" viewBox="0 0 57.06 55"><defs><style>.cls-1{fill:#130f41;}.cls-2{fill:#f15e5a;}</style></defs><g id="Layer_2" data-name="Layer 2"><g id="Layer_1-2" data-name="Layer 1"><path class="cls-1" d="M15.07,37.9l6.33-6c.47.54.88,1.07,1.35,1.55s1,.89,1.58,1.36L17.9,40.9a9.35,9.35,0,0,1,.56,8.35,8.94,8.94,0,0,1-4.2,4.64A9.33,9.33,0,0,1,2.7,39.67,9.42,9.42,0,0,1,15.07,37.9Z"/><path class="cls-1" d="M43.48,9.5a6.55,6.55,0,1,1,11.27.67,6.58,6.58,0,0,1-8.3,2.24l-8.62,8.74a11.16,11.16,0,0,0-2.95-2.86C37.74,15.33,40.63,12.45,43.48,9.5Z"/><path class="cls-1" d="M37,26.61a7.31,7.31,0,1,1-7.28-7.38A7.31,7.31,0,0,1,37,26.61Z"/><path class="cls-2" d="M14,16.49A8.8,8.8,0,0,1,2.06,15.15,8.69,8.69,0,0,1,13,2a8.75,8.75,0,0,1,3.55,11.25l7,5.65a10.55,10.55,0,0,0-2.58,3.2c-1.23-.92-2.35-1.89-3.5-2.82Zm-5.28-.77A6.2,6.2,0,1,0,2.48,9.5,6.16,6.16,0,0,0,8.69,15.72Z"/><path class="cls-2" d="M42.64,43.09l-7.86-8.21a10.65,10.65,0,0,0,2.94-2.82c1.43,1.3,2.66,2.73,4,4.09s2.61,2.7,4,4.09A7.73,7.73,0,0,1,52.43,40a7.44,7.44,0,0,1,3.71,3.44,7.74,7.74,0,0,1-11.38,9.9A7.84,7.84,0,0,1,42.64,43.09Zm6.68,9.24a5.25,5.25,0,1,0-5.26-5.28A5.29,5.29,0,0,0,49.32,52.33Z"/><path class="cls-1" d="M13,24.9h7A11,11,0,0,0,20.17,29c-2.53.07-5,0-7.5,0a5.69,5.69,0,0,1-3.5,2.91,5.56,5.56,0,0,1-3.6-.16A5.6,5.6,0,0,1,6.69,21C9.34,20.53,11.59,21.89,13,24.9Z"/><path class="cls-1" d="M44.1,24.47a5.62,5.62,0,0,1,3.21-3.15,5.48,5.48,0,0,1,3.53-.17,5.6,5.6,0,1,1-4,10.42,5.67,5.67,0,0,1-2.78-3H39.33V24.5C40.88,24.46,42.48,24.51,44.1,24.47Z"/></g></g></svg>