<svg xmlns="http://www.w3.org/2000/svg" viewBox="0 0 30 30"><defs><style>.cls-1{fill:#130f41;opacity:0;}.cls-2{fill:#f15e5a;}</style></defs><g id="Layer_2" data-name="Layer 2"><g id="Layer_2-2" data-name="Layer 2"><rect class="cls-1" width="30" height="30"/><path class="cls-2" d="M29.754,22.536a.246.246,0,0,1-.246-.246,14.446,14.446,0,0,0-3.96-9.961.246.246,0,1,1,.357-.338A14.936,14.936,0,0,1,30,22.29.246.246,0,0,1,29.754,22.536Z"/><path class="cls-2" d="M.246,22.537A.246.246,0,0,1,0,22.291,15,15,0,0,1,22.78,9.462a.246.246,0,1,1-.255.42A14.513,14.513,0,0,0,.492,22.291.246.246,0,0,1,.246,22.537Z"/><path class="cls-2" d="M19.651,22.537a.246.246,0,0,1-.246-.246,7.9,7.9,0,0,0-.512-2.808.245.245,0,1,1,.459-.173,8.378,8.378,0,0,1,.545,2.981A.246.246,0,0,1,19.651,22.537Z"/><path class="cls-2" d="M3.326,22.537a.246.246,0,0,1-.245-.246A8.409,8.409,0,0,1,16.3,15.4a.246.246,0,1,1-.282.4A7.918,7.918,0,0,0,3.572,22.291.246.246,0,0,1,3.326,22.537Z"/><path class="cls-2" d="M14.6,22.543a.962.962,0,0,1-.677-.28l-.862-.863a.957.957,0,0,1,.05-1.4L25.981,8.879h0a.33.33,0,0,1,.465.465L15.328,22.212a.969.969,0,0,1-.692.331ZM24.62,10.705,13.434,20.37a.468.468,0,0,0-.024.683l.863.862a.43.43,0,0,0,.346.136.462.462,0,0,0,.337-.161Z"/></g></g></svg>