<svg xmlns="http://www.w3.org/2000/svg" viewBox="0 0 49.58 64.01"><defs><style>.cls-1{fill:#f15e5a;}.cls-2{fill:#130f41;}</style></defs><g id="Layer_2" data-name="Layer 2"><g id="Layer_1-2" data-name="Layer 1"><path class="cls-1" d="M2.5,44.19a2.5,2.5,0,0,1,0-5A36.74,36.74,0,0,0,38.82,7.67L27,16.3A2.5,2.5,0,1,1,24,12.25L40.22.48a2.5,2.5,0,0,1,4,2A41.73,41.73,0,0,1,2.5,44.19Z"/><path class="cls-2" d="M47.08,64a2.5,2.5,0,0,1-2.5-2.5V19.41a2.5,2.5,0,1,1,5,0v42.1A2.5,2.5,0,0,1,47.08,64Z"/><path class="cls-2" d="M36.81,64a2.5,2.5,0,0,1-2.5-2.5V33.16a2.5,2.5,0,0,1,5,0V61.51A2.5,2.5,0,0,1,36.81,64Z"/><path class="cls-2" d="M26.54,64a2.5,2.5,0,0,1-2.5-2.5V41.69a2.5,2.5,0,0,1,5,0V61.51A2.49,2.49,0,0,1,26.54,64Z"/><path class="cls-2" d="M16.28,64a2.5,2.5,0,0,1-2.5-2.5V47.35a2.5,2.5,0,0,1,5,0V61.51A2.5,2.5,0,0,1,16.28,64Z"/><path class="cls-2" d="M6,64a2.5,2.5,0,0,1-2.5-2.5V50.69a2.5,2.5,0,0,1,5,0V61.51A2.5,2.5,0,0,1,6,64Z"/></g></g></svg>