<svg xmlns="http://www.w3.org/2000/svg" viewBox="0 0 30 30"><defs><style>.cls-1{fill:#130f41;opacity:0;}.cls-2{fill:#f15e5a;}</style></defs><g id="Layer_2" data-name="Layer 2"><g id="Layer_2-2" data-name="Layer 2"><rect class="cls-1" width="30" height="30"/><path class="cls-2" d="M9.067,21.18a.245.245,0,0,1-.075-.012,19.411,19.411,0,0,1-8.934-6.01.245.245,0,0,1,0-.316,19.573,19.573,0,0,1,20.95-6.008.246.246,0,1,1-.151.468A19.084,19.084,0,0,0,.569,15a18.928,18.928,0,0,0,8.573,5.7.246.246,0,0,1-.075.48Z"/><path class="cls-2" d="M15,22.106a19.726,19.726,0,0,1-3.342-.284.246.246,0,0,1-.2-.284.249.249,0,0,1,.284-.2A19.271,19.271,0,0,0,15,21.614,19.016,19.016,0,0,0,29.431,15a19.244,19.244,0,0,0-6.271-4.785.246.246,0,0,1,.211-.445,19.736,19.736,0,0,1,6.571,5.072.245.245,0,0,1,0,.316A19.507,19.507,0,0,1,15,22.106Z"/><path class="cls-2" d="M12.583,17.663a.245.245,0,0,1-.174-.072,3.664,3.664,0,0,1,5.182-5.182.246.246,0,1,1-.348.348,3.172,3.172,0,0,0-4.486,4.486.246.246,0,0,1,0,.348A.244.244,0,0,1,12.583,17.663Z"/><path class="cls-2" d="M3.321,26.925a.246.246,0,0,1-.174-.419L26.506,3.147a.245.245,0,0,1,.347.347L3.494,26.853A.243.243,0,0,1,3.321,26.925Z"/></g></g></svg>