<svg xmlns="http://www.w3.org/2000/svg" viewBox="0 0 55 55"><defs><style>.cls-1{fill:#f15e5a;}.cls-2{fill:#130f41;}</style></defs><g id="Layer_2" data-name="Layer 2"><g id="Layer_1-2" data-name="Layer 1"><path class="cls-1" d="M16.52,12.86a1.34,1.34,0,0,0,1.33-1.33V7.6a4.91,4.91,0,0,1,.94-2.91,1.3,1.3,0,0,0,.24-1,1.34,1.34,0,0,0-.53-.86,1.37,1.37,0,0,0-.78-.25,1.33,1.33,0,0,0-1.07.54A7.55,7.55,0,0,0,15.2,7.6v3.93A1.33,1.33,0,0,0,16.52,12.86Z"/><path class="cls-1" d="M22.79,2.65h7.88a1.33,1.33,0,0,0,0-2.65H22.79a1.33,1.33,0,0,0-1.33,1.32A1.34,1.34,0,0,0,22.79,2.65Z"/><path class="cls-1" d="M36.57,2.65h7.88a1.33,1.33,0,0,0,0-2.65H36.57a1.33,1.33,0,0,0,0,2.65Z"/><path class="cls-1" d="M52.35,8.56a1.33,1.33,0,1,0,2.65,0v-1a7.64,7.64,0,0,0-1.15-4,7.74,7.74,0,0,0-3-2.75,1.35,1.35,0,0,0-.59-.14,1.29,1.29,0,0,0-1.18.72,1.28,1.28,0,0,0-.15.61,1.31,1.31,0,0,0,.73,1.17,5,5,0,0,1,2.7,4.42Z"/><path class="cls-1" d="M53.68,26.93a1.33,1.33,0,0,0-1.33,1.32v4a4.94,4.94,0,0,1-.93,2.9,1.3,1.3,0,0,0-.24,1,1.28,1.28,0,0,0,.53.86,1.37,1.37,0,0,0,.78.25,1.31,1.31,0,0,0,1.07-.55A7.55,7.55,0,0,0,55,32.2v-4A1.32,1.32,0,0,0,53.68,26.93Z"/><path class="cls-1" d="M53.68,13.15a1.33,1.33,0,0,0-1.33,1.32v7.88a1.33,1.33,0,0,0,2.65,0V14.47A1.32,1.32,0,0,0,53.68,13.15Z"/><path class="cls-1" d="M17.85,25.31V17.44a1.33,1.33,0,0,0-2.65,0v7.87a1.3,1.3,0,0,0,.1.49h2.45A1.3,1.3,0,0,0,17.85,25.31Z"/><path class="cls-1" d="M47.42,37.15H39.53a1.33,1.33,0,1,0,0,2.65h7.9a1.33,1.33,0,1,0,0-2.65Z"/><path class="cls-1" d="M33.62,39.8a1.33,1.33,0,0,0,0-2.65H29.2V39.8Z"/><path class="cls-2" d="M41.24,30.25V15.65a2.22,2.22,0,0,0,0-.37.75.75,0,0,0-.05-.16,1.52,1.52,0,0,0-.06-.2L41,14.75l-.08-.15a3.11,3.11,0,0,0-.23-.28h0a3.11,3.11,0,0,0-.28-.23L40.26,14l-.18-.09-.19-.06-.17-.05a2,2,0,0,0-.35,0H24.75a1.89,1.89,0,0,0,0,3.78h10l-9,9a6.21,6.21,0,0,0-2.89-.71H6.28A6.28,6.28,0,0,0,0,32.08V48.72A6.28,6.28,0,0,0,6.28,55H22.92a6.28,6.28,0,0,0,6.28-6.28V32.08a6.21,6.21,0,0,0-.71-2.89l9-9v10a1.89,1.89,0,0,0,3.78,0Z"/></g></g></svg>