<svg xmlns="http://www.w3.org/2000/svg" viewBox="0 0 36.91 49.98"><defs><style>.cls-1{fill:#130f41;}.cls-2{fill:#f15e5a;}</style></defs><g id="Layer_2" data-name="Layer 2"><g id="Layer_1-2" data-name="Layer 1"><path class="cls-1" d="M28.57,50H8.34A8.35,8.35,0,0,1,0,41.64V27.27a8.35,8.35,0,0,1,8.34-8.34H28.57a8.35,8.35,0,0,1,8.34,8.34V41.64A8.35,8.35,0,0,1,28.57,50Zm-20.23-26A3.35,3.35,0,0,0,5,27.27V41.64A3.35,3.35,0,0,0,8.34,45H28.57a3.34,3.34,0,0,0,3.34-3.34V27.27a3.34,3.34,0,0,0-3.34-3.34Z"/><path class="cls-1" d="M27.92,23.93H9a2.5,2.5,0,0,1-2.5-2.5V12a12,12,0,1,1,23.93,0v9.46A2.5,2.5,0,0,1,27.92,23.93Zm-16.43-5H25.42V12a7,7,0,1,0-13.93,0Z"/><path class="cls-2" d="M18.46,41.14a6.68,6.68,0,1,1,6.68-6.68A6.69,6.69,0,0,1,18.46,41.14Zm0-8.36a1.68,1.68,0,1,0,1.68,1.68A1.68,1.68,0,0,0,18.46,32.78Z"/></g></g></svg>