<svg xmlns="http://www.w3.org/2000/svg" viewBox="0 0 39.08 36"><defs><style>.cls-1{fill:#01b6b8;}</style></defs><g id="Layer_2" data-name="Layer 2"><g id="Layer_1-2" data-name="Layer 1"><path class="cls-1" d="M3,19.3H0c0-.21,4.85-8.24,5.09-8.51l.14.18q1.27,2.14,2.57,4.27L10.06,19c0,.08.08.16.15.28-1.12,0-2.19,0-3.29,0,0,.18,0,.34,0,.49a13.91,13.91,0,0,0,3.6,7.89,14.28,14.28,0,0,0,9.6,4.57,14.15,14.15,0,0,0,6.53-1.11,14.26,14.26,0,0,0,8.66-12.27,13.79,13.79,0,0,0-2-8,14.82,14.82,0,0,0-1.95-2.58,14.48,14.48,0,0,0-3.89-2.93A13.54,13.54,0,0,0,23,3.93c-.54-.07-1.09-.06-1.63-.12a4,4,0,0,1-.9-.18,1.45,1.45,0,0,1-.92-1.25,2.47,2.47,0,0,1,.09-1.18A1.73,1.73,0,0,1,21.33,0a18.65,18.65,0,0,1,4.13.55A18.17,18.17,0,0,1,35.75,7.62a18.15,18.15,0,0,1,2.4,4.7A18.72,18.72,0,0,1,39,16.08a20.12,20.12,0,0,1,.07,3.2,15.31,15.31,0,0,1-.41,2.77,17.79,17.79,0,0,1-2.78,6.31,18.13,18.13,0,0,1-4.44,4.47,17.83,17.83,0,0,1-5.12,2.52,19,19,0,0,1-2.86.63A3.27,3.27,0,0,1,23,36c-1.14,0-2.27,0-3.4,0a10.43,10.43,0,0,1-2.16-.23A17.78,17.78,0,0,1,13,34.21a18.34,18.34,0,0,1-4.27-3,18,18,0,0,1-3.83-5.17,17.34,17.34,0,0,1-1.57-4.92c-.09-.53-.14-1.08-.21-1.62A1.43,1.43,0,0,0,3,19.3Z"/><path class="cls-1" d="M23.09,13.89c0,1.66,0,3.32,0,5a1.82,1.82,0,0,1-.55,1.35l-3.32,3.32-1.7,1.72a1.94,1.94,0,0,1-1.14.61,1.78,1.78,0,0,1-1.45-3.05q2.17-2.19,4.37-4.37a.65.65,0,0,0,.21-.52c0-3,0-6,0-9a1.8,1.8,0,0,1,.41-1.27,1.57,1.57,0,0,1,.49-.4,1.91,1.91,0,0,1,2.43.59,1.8,1.8,0,0,1,.25.91C23.08,10.5,23.09,12.2,23.09,13.89Z"/><path class="cls-1" d="M21.13,29.44A1.15,1.15,0,0,1,20,28.3a1.17,1.17,0,0,1,1.15-1.18,1.18,1.18,0,0,1,1.17,1.16A1.15,1.15,0,0,1,21.13,29.44Z"/><path class="cls-1" d="M29.74,11.23a1.13,1.13,0,0,1-1.14,1.15,1.17,1.17,0,0,1-1.18-1.16,1.19,1.19,0,0,1,1.16-1.15A1.15,1.15,0,0,1,29.74,11.23Z"/><path class="cls-1" d="M29.74,24.78a1.14,1.14,0,0,1-1.15,1.14,1.18,1.18,0,0,1-1.17-1.17,1.2,1.2,0,0,1,1.19-1.15A1.16,1.16,0,0,1,29.74,24.78Z"/><path class="cls-1" d="M31.09,19.27A1.12,1.12,0,0,1,30,18.13,1.15,1.15,0,0,1,31.1,17a1.18,1.18,0,0,1,1.16,1.18A1.16,1.16,0,0,1,31.09,19.27Z"/></g></g></svg>