<svg xmlns="http://www.w3.org/2000/svg" viewBox="0 0 63.96 59.89"><defs><style>.cls-1{fill:#01b6b8;}.cls-2{fill:#003534;}</style></defs><g id="Layer_2" data-name="Layer 2"><g id="Layer_1-2" data-name="Layer 1"><path class="cls-1" d="M4.42,24.63l-1.73-.51C2.13,24,1.57,23.84,1,23.66c-1.16-.37-1.35-1.34-.47-2.19,1.41-1.36,2.79-2.73,4.19-4.1l5.77-5.61a6.65,6.65,0,0,1,.61-.58,1.11,1.11,0,0,1,1.83.57c.3,1.07.56,2.15.84,3.23.65,2.53,1.29,5.06,2,7.59.3,1.16.6,2.32.91,3.48a1.23,1.23,0,0,1-.13,1.1,1.18,1.18,0,0,1-1.44.43l-2.82-.79L12,26.74c0,.13-.07.24-.09.36a21.83,21.83,0,0,0,.16,6.7,22.56,22.56,0,0,0,2.29,6.69,21.81,21.81,0,0,0,2.78,4,21.19,21.19,0,0,0,3.67,3.41A26,26,0,0,0,23,49.39a20.92,20.92,0,0,0,5.31,2.15,19.88,19.88,0,0,0,4.28.67A23.17,23.17,0,0,0,37.47,52a22.51,22.51,0,0,0,10.42-4.69,23.06,23.06,0,0,0,7.86-11.88l.51-1.8a1.2,1.2,0,0,1,1.66-1q2.43.65,4.84,1.35a1.17,1.17,0,0,1,.89,1.6A34.36,34.36,0,0,1,60.44,44a31.65,31.65,0,0,1-4,5.65,30.89,30.89,0,0,1-11.83,8.22,29.66,29.66,0,0,1-6.4,1.71,30.68,30.68,0,0,1-6.84.19,29.14,29.14,0,0,1-6.74-1.38,28.65,28.65,0,0,1-5.08-2.22,29.26,29.26,0,0,1-7.32-5.68A30.25,30.25,0,0,1,6.58,42a29.46,29.46,0,0,1-2.2-7.44,25,25,0,0,1-.28-6.4C4.21,27,4.31,25.85,4.42,24.63Z"/><path class="cls-2" d="M24.65,38.38h7.56a1.65,1.65,0,0,1,.1.4c0,.63,0,1.25,0,1.88,0,.4-.06.44-.46.47h-10c-.69,0-.76-.05-.76-.73a11,11,0,0,1,.08-2.07,6,6,0,0,1,2.13-3.57c.86-.75,1.82-1.41,2.72-2.11.67-.53,1.36-1,2-1.62a2.27,2.27,0,0,0,.76-2,2.13,2.13,0,0,0-1.86-1.85,3.08,3.08,0,0,0-2.87,1c-.23.25-.45.52-.72.84L21,27.5c.32-.45.57-.87.88-1.23a6,6,0,0,1,4.59-2.15,5.6,5.6,0,0,1,4.43,1.76A4.43,4.43,0,0,1,32,28.31a5.34,5.34,0,0,1-1.78,4.8c-.71.65-1.5,1.2-2.26,1.77s-1.44,1-2.13,1.52a3,3,0,0,0-1.2,1.67l0,.15A1.07,1.07,0,0,0,24.65,38.38Z"/><path class="cls-2" d="M41.69,41.07V36.89l-.66,0H34.54c-.64,0-.66,0-.66-.69,0-.14,0-.28,0-.42a2.18,2.18,0,0,1,.49-1.54c1.66-2.39,3.29-4.8,4.93-7.2l1.53-2.24a.67.67,0,0,1,.58-.38h3.09a1.6,1.6,0,0,1,.27.08c.05,3.21,0,6.44,0,9.74h2.06v2.62h-2c0,.27,0,.45,0,.64v3.08c0,.52-.05.57-.57.57h-2A4.5,4.5,0,0,1,41.69,41.07Zm0-13.07-4.38,6.17h4.38Z"/><path class="cls-2" d="M41.21,8.84c-.46-.16-1.17-.35-1.83-.64A1,1,0,0,1,38.86,7c.16-.62.35-1.24.54-1.85C39.72,4.08,40,3,40.37,2a1.9,1.9,0,0,1,.48-.78.89.89,0,0,1,.7-.27,12,12,0,0,1,2.18.69,1,1,0,0,1,.46,1.26c-.27,1-.56,1.9-.84,2.85-.22.75-.43,1.51-.68,2.25S42.06,8.86,41.21,8.84Z"/><path class="cls-2" d="M25.1,8.62a1.09,1.09,0,0,1-.49,1.05,16.26,16.26,0,0,1-1.76.91,1,1,0,0,1-1.3-.49c-.35-.59-.67-1.22-1-1.83L19.27,5.8c-.09-.18-.18-.37-.26-.57a1.13,1.13,0,0,1,.5-1.56,15.28,15.28,0,0,1,1.38-.74,1.18,1.18,0,0,1,1.66.62c.47.88.92,1.76,1.38,2.64.33.63.66,1.27,1,1.91A5.16,5.16,0,0,1,25.1,8.62Z"/><path class="cls-2" d="M64,26.76c0,.87-.24,1.25-1,1.41s-1.47.22-2.21.32l-2.8.36a2.48,2.48,0,0,1-.77,0,1.13,1.13,0,0,1-.88-1c-.09-.53-.16-1.06-.2-1.6A1.12,1.12,0,0,1,57,25a11.18,11.18,0,0,1,1.29-.21l3.88-.51a1.3,1.3,0,0,1,1.71,1.31C63.88,26,63.93,26.45,64,26.76Z"/><path class="cls-2" d="M31.77,0h.36a1,1,0,0,1,1.12,1c.13.93.21,1.87.31,2.81.07.65.13,1.31.19,2,0,.24,0,.49,0,.73a1.14,1.14,0,0,1-1,1.2,13.27,13.27,0,0,1-1.67.13,1,1,0,0,1-1.19-.93,13.42,13.42,0,0,1-.21-1.55c-.12-1.28-.24-2.56-.34-3.84A1.18,1.18,0,0,1,30.52.13L31.77,0Z"/><path class="cls-2" d="M54.93,20.31a1.09,1.09,0,0,1-.91-.48c-.33-.55-.68-1.09-1-1.67a1.12,1.12,0,0,1,.61-1.49c.44-.28.9-.53,1.35-.78l3-1.68a1.24,1.24,0,0,1,2,.53c.21.38.44.75.63,1.14a1.14,1.14,0,0,1-.5,1.65Q57.9,18.81,55.66,20A5,5,0,0,1,54.93,20.31Z"/><path class="cls-2" d="M46.86,11.09a5.83,5.83,0,0,1,.45-.86c.86-1.1,1.74-2.18,2.61-3.27l.55-.69A1.18,1.18,0,0,1,52.23,6c.39.28.78.58,1.15.9a1.12,1.12,0,0,1,.18,1.74c-1.05,1.34-2.11,2.68-3.19,4-.61.76-1.1.81-1.89.23-.38-.27-.74-.57-1.1-.88A1.47,1.47,0,0,1,46.86,11.09Z"/></g></g></svg>