<svg xmlns="http://www.w3.org/2000/svg" viewBox="0 0 25.32 36"><defs><style>.cls-1{fill:#01b6b8;}</style></defs><g id="Layer_2" data-name="Layer 2"><g id="Layer_1-2" data-name="Layer 1"><path class="cls-1" d="M12.68,20.48H22.92a2.42,2.42,0,0,1,1.77.56,2,2,0,0,1,.59,1.89c-.42,2.47-.86,4.95-1.29,7.42-.15.91-.31,1.83-.44,2.75a2.07,2.07,0,0,1-2,1.76H4.22a4.7,4.7,0,0,1-.92-.08,2,2,0,0,1-1.53-1.63C1.22,30,.67,26.78.13,23.59A8.54,8.54,0,0,1,0,22.47a1.89,1.89,0,0,1,1.62-1.92,6.25,6.25,0,0,1,.87-.07Zm0,7.82a.84.84,0,0,0,.81-.78.8.8,0,0,0-1.59,0A.84.84,0,0,0,12.64,28.3Z"/><path class="cls-1" d="M1.14,20.12c.1-.33.18-.64.28-.94a8.21,8.21,0,0,1,1.24-2.43,4.38,4.38,0,0,1,3-1.78c.89-.1,1.78-.18,2.69-.26a22.76,22.76,0,0,0,3.17,4c.07-.23.12-.4.16-.57s.17-.63.26-.94a.66.66,0,0,0-.11-.63,1.11,1.11,0,0,1-.21-1h2a1.14,1.14,0,0,1-.2,1c-.07.12-.17.28-.14.4.12.55.27,1.1.44,1.74a22.57,22.57,0,0,0,3.2-4c1.07.13,2.18.21,3.27.42a4.29,4.29,0,0,1,2.73,2.07,9.37,9.37,0,0,1,1.17,2.74,1.25,1.25,0,0,1,0,.21Z"/><path class="cls-1" d="M18.49,5.58a1.79,1.79,0,0,0,.2,1.11,3.42,3.42,0,0,1-.55,3.11,2.38,2.38,0,0,0-.43.62,9.25,9.25,0,0,1-2.45,3.41,4.5,4.5,0,0,1-2.32,1.06,3.66,3.66,0,0,1-2.41-.6,8.16,8.16,0,0,1-3-3.71A1.68,1.68,0,0,0,7,9.79a.93.93,0,0,1-.25-.33,3.78,3.78,0,0,1-.48-2.08,1.16,1.16,0,0,1,.15-.65,3.4,3.4,0,0,0,.52-2A5,5,0,0,1,10.79.25a7.06,7.06,0,0,1,4.89.41,4.85,4.85,0,0,1,2.69,3.81C18.43,4.86,18.45,5.26,18.49,5.58ZM7.82,7.16c-.29,0-.41.17-.41.48a4.93,4.93,0,0,0,0,.77c0,.4.12.84.51,1a.84.84,0,0,1,.48.55,7.31,7.31,0,0,0,2,2.9,3.11,3.11,0,0,0,4.28,0,7.24,7.24,0,0,0,2-2.74c.13-.31.18-.68.61-.75a.33.33,0,0,0,.19-.22,6.52,6.52,0,0,0,.32-1.34c0-.47-.11-.6-.56-.75A4.6,4.6,0,0,0,16.14,5l.1.6-.77-.37a2.24,2.24,0,0,0-1.6-.21,5.22,5.22,0,0,1-3.2,0,2,2,0,0,0-2.31.91C8.16,6.28,8,6.69,7.82,7.16Z"/><path class="cls-1" d="M12.65,35.05h9.14a3.63,3.63,0,0,1,.57,0,.43.43,0,0,1,.41.45.46.46,0,0,1-.42.45A2.17,2.17,0,0,1,22,36H3.34a1,1,0,0,1-.46-.06.78.78,0,0,1-.34-.4c0-.22.12-.39.35-.44a2.59,2.59,0,0,1,.56,0Z"/></g></g></svg>