<svg xmlns="http://www.w3.org/2000/svg" xmlns:xlink="http://www.w3.org/1999/xlink" viewBox="0 0 146.66 112.81"><defs><style>.cls-1{fill:url(#linear-gradient);}.cls-2{fill:url(#linear-gradient-2);}.cls-3{fill:url(#linear-gradient-3);}.cls-4{fill:url(#linear-gradient-4);}.cls-5{fill:url(#linear-gradient-5);}.cls-6{fill:url(#linear-gradient-6);}.cls-7{fill:url(#linear-gradient-7);}.cls-8{fill:url(#linear-gradient-8);}.cls-9{fill:url(#linear-gradient-9);}.cls-10{fill:url(#linear-gradient-10);}.cls-11{fill:url(#linear-gradient-11);}.cls-12{fill:#032439;}</style><linearGradient id="linear-gradient" x1="82.19" y1="-12.2" x2="104.85" y2="50.45" gradientUnits="userSpaceOnUse"><stop offset="0" stop-color="#70c9cc"/><stop offset="0.21" stop-color="#5ec6c8"/><stop offset="0.63" stop-color="#2fbdbf"/><stop offset="1" stop-color="#00b4b6"/></linearGradient><linearGradient id="linear-gradient-2" x1="47.19" y1="0.46" x2="69.85" y2="63.1" xlink:href="#linear-gradient"/><linearGradient id="linear-gradient-3" x1="68.47" y1="-7.24" x2="91.12" y2="55.41" xlink:href="#linear-gradient"/><linearGradient id="linear-gradient-4" x1="33.47" y1="5.42" x2="56.13" y2="68.07" xlink:href="#linear-gradient"/><linearGradient id="linear-gradient-5" x1="81.52" y1="105.74" x2="12.95" y2="103.95" gradientUnits="userSpaceOnUse"><stop offset="0" stop-color="#70c9cc"/><stop offset="0.3" stop-color="#6ec9cc"/><stop offset="0.48" stop-color="#65c7ca"/><stop offset="0.62" stop-color="#57c4c7"/><stop offset="0.75" stop-color="#43c1c3"/><stop offset="0.87" stop-color="#29bcbe"/><stop offset="0.97" stop-color="#0ab6b8"/><stop offset="1" stop-color="#00b4b6"/></linearGradient><linearGradient id="linear-gradient-6" x1="81.53" y1="105.44" x2="12.96" y2="103.65" xlink:href="#linear-gradient-5"/><linearGradient id="linear-gradient-7" x1="81.48" y1="107.35" x2="12.91" y2="105.56" xlink:href="#linear-gradient-5"/><linearGradient id="linear-gradient-8" x1="81.54" y1="105.21" x2="12.96" y2="103.42" xlink:href="#linear-gradient-5"/><linearGradient id="linear-gradient-9" x1="81.54" y1="104.99" x2="12.97" y2="103.2" xlink:href="#linear-gradient-5"/><linearGradient id="linear-gradient-10" x1="81.5" y1="106.53" x2="12.93" y2="104.74" xlink:href="#linear-gradient-5"/><linearGradient id="linear-gradient-11" x1="81.57" y1="103.91" x2="13" y2="102.12" xlink:href="#linear-gradient-5"/></defs><g id="Layer_2" data-name="Layer 2"><g id="Layer_1-2" data-name="Layer 1"><polygon class="cls-1" points="78.79 0 78.79 12.47 100.2 30.39 107.66 24.16 78.79 0"/><polygon class="cls-2" points="68.26 12.47 68.26 0 35.67 27.27 73.53 58.97 80.97 52.72 50.57 27.27 68.26 12.47"/><polygon class="cls-3" points="78.79 67.53 78.79 80 111.38 52.72 73.55 21.06 66.12 27.32 96.48 52.72 78.79 67.53"/><polygon class="cls-4" points="68.26 67.53 46.84 49.61 39.39 55.84 68.26 80 68.26 67.53"/><path class="cls-5" d="M15.82,101H12.17a3.19,3.19,0,0,0-1.25-2.13A3.86,3.86,0,0,0,8.42,98a4.06,4.06,0,0,0-3.6,1.83,7.12,7.12,0,0,0-1.05,4.05,6.84,6.84,0,0,0,1.05,3.94,4.13,4.13,0,0,0,3.6,1.8,3.6,3.6,0,0,0,2.72-1.08,4.67,4.67,0,0,0,1.17-2.76H16a7.59,7.59,0,0,1-2.34,5.1,7.35,7.35,0,0,1-5.2,1.91,7.94,7.94,0,0,1-6.19-2.59A9.07,9.07,0,0,1,0,103.9a9.29,9.29,0,0,1,2.23-6.43,7.85,7.85,0,0,1,6.19-2.61,7.7,7.7,0,0,1,4.95,1.6A6.56,6.56,0,0,1,15.82,101Z"/><path class="cls-6" d="M18.17,112.4V95.26h3.4v6.46h.08a4.34,4.34,0,0,1,1.65-1.56,4.15,4.15,0,0,1,2-.5,4.25,4.25,0,0,1,3.62,1.39,6.13,6.13,0,0,1,.92,3.72v7.63H26.4v-7c0-2-.73-3-2.19-3a2.35,2.35,0,0,0-2,.84,4.6,4.6,0,0,0-.63,2.72v6.5Z"/><path class="cls-7" d="M35.66,103.81h-3.4a3.84,3.84,0,0,1,1.94-3.27,7.55,7.55,0,0,1,3.89-.88q5.44,0,5.45,3.52v6.46A5.84,5.84,0,0,0,44,112.4H40.51a5.08,5.08,0,0,1-.24-1.2,5.52,5.52,0,0,1-4.17,1.54,4.61,4.61,0,0,1-3-.92,3.37,3.37,0,0,1-1.23-2.8,3.26,3.26,0,0,1,1.32-2.84,7.19,7.19,0,0,1,2.91-.93c1.84-.26,2.77-.39,2.8-.41.82-.21,1.23-.62,1.23-1.22a1.49,1.49,0,0,0-.67-1.4,3.2,3.2,0,0,0-1.54-.28C36.53,101.94,35.78,102.56,35.66,103.81Zm4.47,3.79v-1.27a3.78,3.78,0,0,1-1.78.55,9.65,9.65,0,0,0-2.06.46,1.57,1.57,0,0,0-1,1.53c0,1.06.69,1.59,2.09,1.59C39.21,110.46,40.13,109.5,40.13,107.6Z"/><path class="cls-8" d="M50.49,96.27V100H53v2.28h-2.5v6.15a1.16,1.16,0,0,0,1.45,1.44,5.67,5.67,0,0,0,1.05-.1v2.66a12.75,12.75,0,0,1-2,.12q-3.91,0-3.91-3v-7.32H45V100h2.07V96.27Z"/><path class="cls-9" d="M58.94,96.27V100h2.5v2.28h-2.5v6.15a1.16,1.16,0,0,0,1.44,1.44,5.7,5.7,0,0,0,1.06-.1v2.66a12.84,12.84,0,0,1-2,.12q-3.91,0-3.92-3v-7.32H53.47V100h2.06V96.27Z"/><path class="cls-10" d="M74.83,107h-9q.14,3.15,3.05,3.15a3.12,3.12,0,0,0,1.77-.53,1.89,1.89,0,0,0,.92-1.08h3a5.6,5.6,0,0,1-5.81,4.18,6,6,0,0,1-4.62-1.82,7.2,7.2,0,0,1,0-9.4,6,6,0,0,1,4.57-1.86,5.48,5.48,0,0,1,4.68,2.25A7.51,7.51,0,0,1,74.83,107Zm-9-2.16h5.54c-.32-1.76-1.22-2.64-2.71-2.64a2.68,2.68,0,0,0-2.21,1A2.86,2.86,0,0,0,65.88,104.86Z"/><path class="cls-11" d="M76.94,112.4V95.26h3.41V112.4Z"/><path class="cls-12" d="M98.47,101H94.82a3.19,3.19,0,0,0-1.25-2.13A3.86,3.86,0,0,0,91.08,98a4,4,0,0,0-3.6,1.83,7,7,0,0,0-1.06,4.05,6.76,6.76,0,0,0,1.06,3.94,4.11,4.11,0,0,0,3.6,1.8,3.58,3.58,0,0,0,2.71-1.08A4.74,4.74,0,0,0,95,105.8h3.64a7.59,7.59,0,0,1-2.34,5.1,7.32,7.32,0,0,1-5.19,1.91,7.93,7.93,0,0,1-6.19-2.59,9.08,9.08,0,0,1-2.24-6.32,9.29,9.29,0,0,1,2.24-6.43,7.84,7.84,0,0,1,6.19-2.61A7.67,7.67,0,0,1,96,96.46,6.52,6.52,0,0,1,98.47,101Z"/><path class="cls-12" d="M100.82,112.4V95.26h3.41v6.46h.07a4.36,4.36,0,0,1,1.66-1.56,4.15,4.15,0,0,1,2-.5,4.25,4.25,0,0,1,3.62,1.39,6.14,6.14,0,0,1,.91,3.72v7.63h-3.41v-7c0-2-.72-3-2.18-3a2.32,2.32,0,0,0-2,.84,4.6,4.6,0,0,0-.63,2.72v6.5Z"/><path class="cls-12" d="M118.32,103.81h-3.41a3.86,3.86,0,0,1,1.94-3.27,7.57,7.57,0,0,1,3.89-.88q5.45,0,5.45,3.52v6.46a5.84,5.84,0,0,0,.43,2.76h-3.45a4.24,4.24,0,0,1-.24-1.2,5.53,5.53,0,0,1-4.18,1.54,4.61,4.61,0,0,1-3-.92,3.36,3.36,0,0,1-1.22-2.8,3.23,3.23,0,0,1,1.32-2.84,7.14,7.14,0,0,1,2.9-.93c1.84-.26,2.78-.39,2.81-.41.81-.21,1.22-.62,1.22-1.22a1.47,1.47,0,0,0-.67-1.4,3.14,3.14,0,0,0-1.54-.28C119.18,101.94,118.43,102.56,118.32,103.81Zm4.46,3.79v-1.27a3.73,3.73,0,0,1-1.77.55,9.79,9.79,0,0,0-2.07.46,1.57,1.57,0,0,0-1,1.53c0,1.06.7,1.59,2.09,1.59C121.86,110.46,122.78,109.5,122.78,107.6Z"/><path class="cls-12" d="M132.33,95.26v2.81h-3.4V95.26Zm-3.4,17.14V100h3.4V112.4Z"/><path class="cls-12" d="M135,112.4V100h3.24v1.73h.07a4.17,4.17,0,0,1,3.8-2.06,4.25,4.25,0,0,1,3.62,1.39,6.14,6.14,0,0,1,.91,3.72v7.63h-3.41v-7c0-2-.72-3-2.18-3a2.36,2.36,0,0,0-2,.84,4.68,4.68,0,0,0-.62,2.72v6.5Z"/></g></g></svg>