<svg xmlns="http://www.w3.org/2000/svg" viewBox="0 0 55.91 60"><defs><style>.cls-1{fill:#003534;}.cls-2{fill:#01b6b8;}</style></defs><g id="Layer_2" data-name="Layer 2"><g id="Layer_1-2" data-name="Layer 1"><path class="cls-1" d="M10,6.84c-.21.22-.36.39-.53.54A6,6,0,0,0,8,9.52a10.75,10.75,0,0,0-.31,1.11c-.09.32-.09.33-.43.34L4.66,11l-.34,0c0,.17,0,.33,0,.48,0,6.08,0,12.15,0,18.22L4.22,53v.52H29.81a14.29,14.29,0,0,1,9.77-21.69c.08-.24.1-20.33,0-20.82H36.4a9.9,9.9,0,0,0-.86-2.32,12.93,12.93,0,0,0-1.67-1.84c.18,0,.29,0,.39,0l6.19.07c.53,0,1.07.06,1.6.1a1.69,1.69,0,0,1,.82.36A2.13,2.13,0,0,1,43.79,9c0,.6.07,1.21.08,1.81q0,10.13.07,20.24v.28c0,.43,0,.4.42.5.77.2,1.55.42,2.31.66a12.36,12.36,0,0,1,4.11,2.34,14.81,14.81,0,0,1,2.73,3,15.16,15.16,0,0,1,1.72,3.35,9.65,9.65,0,0,1,.66,3.09c0,1,0,2,0,3a9.74,9.74,0,0,1-.68,3.19,14.32,14.32,0,0,1-5.52,7.11,14,14,0,0,1-3.5,1.71,13,13,0,0,1-3.32.67,14.62,14.62,0,0,1-5.68-.74,13.56,13.56,0,0,1-3.3-1.64,1.67,1.67,0,0,0-.94-.3q-8.63,0-17.24-.06l-9.4-.07L2.86,57.1c-.33,0-.66,0-1-.06a1.08,1.08,0,0,1-.45-.17A3.45,3.45,0,0,1,.35,55.8,2.28,2.28,0,0,1,.1,54.58c0-.56,0-1.12,0-1.68,0-1.78,0-3.56,0-5.34Q0,28.5,0,9.42A2.91,2.91,0,0,1,1.63,7a4.64,4.64,0,0,1,1.23-.19c2.32,0,4.64,0,7,0ZM41.72,57.07h.73a9.51,9.51,0,0,0,3.71-.76,11.56,11.56,0,0,0,5-4.16A10.49,10.49,0,0,0,53,47.36a12.69,12.69,0,0,0,0-3.2A10.92,10.92,0,0,0,50,38a11.64,11.64,0,0,0-4.24-2.77,7.79,7.79,0,0,0-3.13-.6c-.27,0-.54,0-.8,0a15.34,15.34,0,0,0-1.92.07,10.56,10.56,0,0,0-3.17,1,11.23,11.23,0,0,0-3.32,2.57,11.64,11.64,0,0,0-2.45,4.31A5.92,5.92,0,0,0,30.6,44c-.05,1,0,2,0,3a8.76,8.76,0,0,0,1.06,3.87,11.26,11.26,0,0,0,2.69,3.45A11.87,11.87,0,0,0,38,56.52,9.32,9.32,0,0,0,41.72,57.07Z"/><path class="cls-1" d="M34.46,11.89l-.62,0h-24c-.28,0-.35-.06-.32-.34a3.45,3.45,0,0,1,1.33-2.76c.72-.49,1.5-.89,2.26-1.31.58-.33,1.18-.62,1.75-1a4.94,4.94,0,0,0,1.92-2c.45-.83.92-1.65,1.44-2.43A4.68,4.68,0,0,1,20.1.42,4.2,4.2,0,0,1,23.62.35a4.88,4.88,0,0,1,2.28,2c.39.61.72,1.27,1.07,1.92a6,6,0,0,0,2.62,2.62c.7.35,1.41.66,2.1,1a11.16,11.16,0,0,1,1.5.95A3.37,3.37,0,0,1,34.36,11C34.41,11.27,34.42,11.54,34.46,11.89ZM23.58,4.94A1.65,1.65,0,0,0,22,3.27a1.56,1.56,0,0,0-1.65,1.54,1.6,1.6,0,0,0,3.19.13Z"/><path class="cls-1" d="M26.06,21.77c1.9,0,3.8,0,5.7,0a1.15,1.15,0,0,1,1.05,1.51,1.12,1.12,0,0,1-1.1.77l-7,0h-4.2a1.22,1.22,0,0,1-1.1-.55,1.12,1.12,0,0,1,.14-1.41,1,1,0,0,1,.77-.32C22.24,21.78,24.15,21.77,26.06,21.77Z"/><path class="cls-1" d="M25,32.16H20.34a1.17,1.17,0,0,1-1.1-1,1.13,1.13,0,0,1,1-1.24h.21l9.67-.07c.54,0,.82.39,1.05.8a.94.94,0,0,1-.15,1.1.82.82,0,0,1-.43.27,5.9,5.9,0,0,1-1.1.13c-1.51,0-3,0-4.51,0Z"/><path class="cls-2" d="M11.62,34.09,8.54,31l1.51-1.52L11.6,31c.12-.11.23-.19.33-.29l2.91-2.91c.22-.21.45-.4.69-.62a17.78,17.78,0,0,1,1.54,1.44C16.94,28.86,11.94,33.9,11.62,34.09Z"/><path class="cls-2" d="M8.56,22.91l1.49-1.52,1.53,1.44c.13-.1.24-.18.34-.27l3.28-3.19a1.37,1.37,0,0,1,.17-.17.23.23,0,0,1,.35,0L17,20.54,11.61,26Z"/><path class="cls-2" d="M8.47,39.05,10,37.49l1.65,1.64,3.84-3.8A17,17,0,0,1,17,36.74l-5.42,5.41C11.42,42.07,8.88,39.58,8.47,39.05Z"/><path class="cls-1" d="M22.71,38.06h2.55a.71.71,0,0,1,.47.18,1.23,1.23,0,0,1-.15,1.93.57.57,0,0,1-.32.09H20.09c-.35,0-.77-.46-.84-.89a1.17,1.17,0,0,1,.52-1.21.73.73,0,0,1,.39-.09C21,38.05,21.86,38.06,22.71,38.06Z"/><path class="cls-2" d="M39.1,47l7.74-7.73,3.09,3.1a2.6,2.6,0,0,1-.24.27L46.31,46l-4,4c-1,.95-1.9,1.92-2.85,2.88l-.17.17c-.22.2-.28.2-.49,0l-1.51-1.51-4.2-4.2L32.88,47,36,43.89C37,44.86,38,45.92,39.1,47Z"/></g></g></svg>