<svg xmlns="http://www.w3.org/2000/svg" viewBox="0 0 50.29 48.72"><defs><style>.cls-1{fill:#01b6b8;}.cls-2{fill:none;stroke:#01b6b8;stroke-linecap:round;stroke-linejoin:round;stroke-width:5px;}</style></defs><g id="Layer_2" data-name="Layer 2"><g id="Layer_1-2" data-name="Layer 1"><path class="cls-1" d="M25,48.72a12.78,12.78,0,0,1-10.46-5.18,14.28,14.28,0,0,1-2.33-14,24,24,0,0,1,3.88-6.61C18,20.42,19.85,18,21.72,15.54l1.8-2.36a4.12,4.12,0,0,1,.31-.35l.15-.16a1.63,1.63,0,0,1,2.51.14l1.17,1.6c.78,1.07,1.54,2.11,2.31,3.13s1.39,1.8,2.1,2.69c1.06,1.37,2.13,2.73,3.16,4.12a17.77,17.77,0,0,1,3.33,6.85,14.24,14.24,0,0,1-2.65,12.13,13,13,0,0,1-9.63,5.34C25.86,48.7,25.44,48.72,25,48.72Zm.08-32.27-.82,1.07c-1.86,2.43-3.73,4.87-5.57,7.32a21.32,21.32,0,0,0-3.4,5.71,11,11,0,0,0,1.81,11A9.66,9.66,0,0,0,26,45.42a9.7,9.7,0,0,0,7.29-4.07h0a11,11,0,0,0,2-9.47,14.41,14.41,0,0,0-2.76-5.59c-1-1.37-2.06-2.71-3.11-4.05-.71-.91-1.42-1.81-2.12-2.73S25.88,17.5,25.12,16.45Z"/><polyline class="cls-2" points="2.5 20.6 9.36 20.6 25.13 2.5 40.93 20.64 47.79 20.64"/></g></g></svg>