<svg xmlns="http://www.w3.org/2000/svg" viewBox="0 0 59.7 60"><defs><style>.cls-1{fill:#003534;}.cls-2{fill:#01b6b8;}.cls-3{fill:#f15e5a;}.cls-4{fill:#130f41;}</style></defs><g id="Layer_2" data-name="Layer 2"><g id="Layer_1-2" data-name="Layer 1"><path class="cls-1" d="M44.88,26.15a18.34,18.34,0,0,1,.26,2.14c0,.95-.06,1.9-.13,2.85,0,.64-.17.72-.81.82l-2.65.4-1.13,2.78,2,2.66a13.37,13.37,0,0,1-4,4l-2.7-2L32.93,41c-.13.88-.3,1.82-.4,2.76a.63.63,0,0,1-.61.65,12.93,12.93,0,0,1-3.57.12c-.54-.08-1.08-.14-1.62-.21L26.23,41l-2.77-1.13-2.66,2a13.28,13.28,0,0,1-4-4l2-2.69L17.6,32.39l-1.54-.28c-.39-.07-.79-.11-1.18-.16s-.62-.11-.69-.63a12.22,12.22,0,0,1-.09-3.77c.07-.45.12-.91.19-1.4l3.3-.49,1.15-2.76-2-2.67a12.78,12.78,0,0,1,4-4l2.68,2L26.22,17l.5-3.28a12.66,12.66,0,0,1,5.71,0l.5,3.27,2.74,1.15,2.6-1.91a10.43,10.43,0,0,1,4.07,4l-1,1.29-1,1.31,1.12,2.76ZM22.53,29a7.12,7.12,0,0,0,7,7.11,7.07,7.07,0,1,0,.05-14.14A7,7,0,0,0,22.53,29Z"/><path class="cls-1" d="M9.84,0A9.19,9.19,0,0,1,19,9.29a9,9,0,0,1-9.21,9.16A9,9,0,0,1,.6,9.23,9.17,9.17,0,0,1,9.84,0Zm-1,2.57L8.76,3.9a7.81,7.81,0,0,0-1,.28A2.65,2.65,0,0,0,6,6.46,2.54,2.54,0,0,0,7.56,9.21c.87.38,1.8.6,2.7.9a7,7,0,0,1,1.18.44.91.91,0,0,1,.44,1.29,1.61,1.61,0,0,1-.58.68A2.41,2.41,0,0,1,7.72,11.4c-.07-.15-.15-.31-.25-.5l-1.83.21a3.66,3.66,0,0,0,3.13,3.48l.1,1.19h1.89l.1-1.18.54-.14a3.38,3.38,0,0,0,2-1.19,3.08,3.08,0,0,0-1.47-4.79C11,8.18,10,7.94,9.07,7.65a2.46,2.46,0,0,1-.76-.38.79.79,0,0,1,.1-1.41,2.9,2.9,0,0,1,2.2-.17c.62.13.85.65,1,1.19,0,0,0,.06.11.13a3.54,3.54,0,0,0,1.9-.18,2.79,2.79,0,0,0-1.83-2.61l-1-.34-.1-1.31Z"/><path class="cls-1" d="M49.29,39.54a9.2,9.2,0,0,1,9.27,9.2,9.21,9.21,0,1,1-18.42,0A9.19,9.19,0,0,1,49.29,39.54Zm-1,3.86c-.33.11-.61.18-.87.29a2.74,2.74,0,0,0-1.85,2,2.71,2.71,0,0,0,1.71,3.17c.82.32,1.69.51,2.53.79a6.54,6.54,0,0,1,1.23.48.88.88,0,0,1,.36,1.21,2.06,2.06,0,0,1-.63.74A2.42,2.42,0,0,1,47.26,51c-.07-.17-.14-.32-.23-.52l-1.87.21a3.69,3.69,0,0,0,3.14,3.45l.12,1.21h1.86l.13-1.2,1-.23a3,3,0,0,0,2.17-2.66,2.83,2.83,0,0,0-1.81-3.09c-.46-.19-.95-.34-1.44-.49s-1.24-.33-1.85-.53a1.74,1.74,0,0,1-.64-.35A.79.79,0,0,1,48,45.4a2.67,2.67,0,0,1,2.37-.08,1.89,1.89,0,0,1,.64.56,2.82,2.82,0,0,1,.28.64,2.87,2.87,0,0,0,2-.18c0-1.39-.81-2.23-2.82-2.94l-.11-1.27H48.4Z"/><path class="cls-2" d="M6.57,47.25a42.78,42.78,0,0,1,6.89.54c-.53.71-1.23,1.22-1.8,1.93a26.17,26.17,0,0,0,13.55,6.73,26.9,26.9,0,0,0,15-1.63l2.08,2.34c-2.41,1.51-9.4,3.73-17.15,2.47A30.34,30.34,0,0,1,9.38,52L7.25,54.09Z"/><path class="cls-2" d="M20,5.28,18.48,2.54a30,30,0,0,1,31.93,6L52.3,6.66l.7,6.93c-2.35-.07-4.59-.39-7-.6.7-.89,1.5-1.49,2.14-2.29A26.19,26.19,0,0,0,34.84,3.9,26.84,26.84,0,0,0,20,5.28Z"/><path class="cls-3" d="M2.78,17.62l2.65,1.67a26.2,26.2,0,0,0-2.3,12A26.51,26.51,0,0,0,6.48,43.16L3.81,44.75A28.86,28.86,0,0,1,.31,34.48,29.45,29.45,0,0,1,2.78,17.62Z"/><path class="cls-2" d="M57.47,41.45l-1.31-1.11a6.57,6.57,0,0,0-.79-.6c-.35-.21-.38-.46-.27-.84.35-1.25.72-2.51,1-3.79a28.65,28.65,0,0,0,.38-3A18.7,18.7,0,0,0,56.59,30a26.43,26.43,0,0,0-2-9.89c-.37-.88-.81-1.73-1.21-2.59,0-.12-.09-.24-.16-.45l2.61-1.59a28.41,28.41,0,0,1,3.52,10.21A29.62,29.62,0,0,1,57.47,41.45Z"/><path class="cls-4" d="M32.92,29c.22,1.72-1.65,3.41-3.32,3.4a3.5,3.5,0,0,1-3.39-3.35,3.37,3.37,0,0,1,3.38-3.44A3.25,3.25,0,0,1,32.92,29Z"/></g></g></svg>