<svg xmlns="http://www.w3.org/2000/svg" viewBox="0 0 36 36"><defs><style>.cls-1{fill:#01b6b8;}</style></defs><g id="Layer_2" data-name="Layer 2"><g id="Layer_1-2" data-name="Layer 1"><path class="cls-1" d="M25.89,32.21a1.68,1.68,0,0,1-.87-.64,1.55,1.55,0,0,1-.3-.91c0-.16,0-.32,0-.48a1.63,1.63,0,0,1,1-1.61l.13-.07c0-.09-.05-.17-.08-.24a1.63,1.63,0,0,1,.37-1.67c.13-.14.26-.27.4-.4a1.62,1.62,0,0,1,1.83-.36.13.13,0,0,0,.08,0s0,0,.05,0a1,1,0,0,1,.09-.18,1.6,1.6,0,0,1,1.47-1h.5a1.61,1.61,0,0,1,1.6,1.06l0,.09.18-.06a1.6,1.6,0,0,1,1.74.35c.14.12.27.26.4.39a1.63,1.63,0,0,1,.36,1.82l0,.1v0c.18.11.37.2.53.32A1.52,1.52,0,0,1,36,30c0,.19,0,.37,0,.56a1.62,1.62,0,0,1-1,1.56l-.16.08.09.25a1.66,1.66,0,0,1-.36,1.65l-.3.3a1.65,1.65,0,0,1-2.05.42,1.74,1.74,0,0,0-.1.19,1.62,1.62,0,0,1-1.49,1h-.48a1.64,1.64,0,0,1-1.61-1l0-.08,0,0-.17.06a1.57,1.57,0,0,1-1.69-.32,6.09,6.09,0,0,1-.44-.44,1.61,1.61,0,0,1-.36-1.79Zm4.48.09a2,2,0,0,0,1.93-1.94,1.94,1.94,0,1,0-1.93,1.94Z"/><path class="cls-1" d="M10.14,32.23c0,.09,0,.17.08.25a1.63,1.63,0,0,1-.37,1.64c-.08.1-.18.18-.27.28a1.67,1.67,0,0,1-2.07.44l-.1.19a1.62,1.62,0,0,1-1.49,1H5.44a1.64,1.64,0,0,1-1.61-1,.54.54,0,0,0-.05-.11l-.21.08a1.58,1.58,0,0,1-1.65-.32,4.64,4.64,0,0,1-.5-.49,1.58,1.58,0,0,1-.34-1.67c0-.07,0-.14.08-.22l-.2-.1a1.61,1.61,0,0,1-1-1.47v-.5a1.63,1.63,0,0,1,1-1.57l.16-.08c0-.1-.06-.19-.08-.27a1.58,1.58,0,0,1,.36-1.62,4.89,4.89,0,0,1,.39-.4,1.6,1.6,0,0,1,1.86-.37l.07,0s0,0,0,0l.11-.24a1.63,1.63,0,0,1,1.42-.9h.51a1.61,1.61,0,0,1,1.62,1.07l0,.08.2-.07a1.62,1.62,0,0,1,1.7.34c.11.1.21.21.31.32a1.65,1.65,0,0,1,.41,2l.19.1a1.62,1.62,0,0,1,1,1.49v.5a1.61,1.61,0,0,1-1,1.56l-.1,0S10.17,32.2,10.14,32.23ZM5.63,28.41A2,2,0,0,0,3.7,30.35a1.94,1.94,0,1,0,3.88,0A2,2,0,0,0,5.63,28.41Z"/><path class="cls-1" d="M1.14,3.78c0-.09,0-.17-.08-.25a1.59,1.59,0,0,1,.38-1.66c.12-.14.26-.27.39-.4a1.61,1.61,0,0,1,1.82-.36l.1,0h0c.1-.17.19-.35.3-.5A1.57,1.57,0,0,1,5.33,0h.5A1.63,1.63,0,0,1,7.45,1.07a.9.9,0,0,0,0,.09l.18-.07a1.59,1.59,0,0,1,1.72.34,5.4,5.4,0,0,1,.42.41,1.63,1.63,0,0,1,.36,1.79.77.77,0,0,0-.06.15l.19.09a1.62,1.62,0,0,1,1,1.49v.51a1.59,1.59,0,0,1-1,1.54l-.17.09.09.26a1.6,1.6,0,0,1-.35,1.62,5.44,5.44,0,0,1-.41.42,1.63,1.63,0,0,1-1.84.37l-.08,0h0l-.09.19a1.64,1.64,0,0,1-1.47,1H5.43a1.62,1.62,0,0,1-1.6-1.06l0-.09-.2.07a1.59,1.59,0,0,1-1.7-.34,5.93,5.93,0,0,1-.44-.43A1.62,1.62,0,0,1,1.1,7.66a1.66,1.66,0,0,1,.06-.16L.9,7.38A1.63,1.63,0,0,1,0,6V5.42A1.62,1.62,0,0,1,1,3.86ZM5.65,3.7A1.93,1.93,0,0,0,3.7,5.62a1.94,1.94,0,1,0,2-1.92Z"/><path class="cls-1" d="M32.21,10.12a1.69,1.69,0,0,1-.6.83,1.6,1.6,0,0,1-.94.33h-.5a1.63,1.63,0,0,1-1.62-1.07.9.9,0,0,0-.05-.09l-.21.08a1.58,1.58,0,0,1-1.67-.33,4.47,4.47,0,0,1-.44-.43,1.61,1.61,0,0,1-.36-1.79.77.77,0,0,0,.06-.15l-.19-.09a1.62,1.62,0,0,1-1-1.49V5.41a1.59,1.59,0,0,1,1-1.54l.17-.09-.09-.26a1.58,1.58,0,0,1,.37-1.64,5.44,5.44,0,0,1,.41-.42,1.61,1.61,0,0,1,1.82-.35l.12,0c0-.06.05-.12.08-.17a1.62,1.62,0,0,1,1.51-1h.36a1.68,1.68,0,0,1,1.76,1.15l.17-.06a1.62,1.62,0,0,1,1.77.36c.13.12.25.25.38.38a1.61,1.61,0,0,1,.36,1.81,1.21,1.21,0,0,1,0,.14l.26.12A1.6,1.6,0,0,1,36,5.32c0,.18,0,.36,0,.53a1.62,1.62,0,0,1-1,1.57l-.15.08a1.42,1.42,0,0,0,.07.22,1.62,1.62,0,0,1-.39,1.71c-.12.13-.24.26-.37.38a1.61,1.61,0,0,1-1.82.36ZM30.37,3.7a1.93,1.93,0,0,0-1.95,1.92A1.94,1.94,0,1,0,30.37,3.7Z"/><path class="cls-1" d="M36,18.12a1.62,1.62,0,0,1,0,.22.56.56,0,0,1-.59.52.56.56,0,0,1-.56-.52,3.68,3.68,0,0,1,0-.47.57.57,0,0,1,.6-.51.56.56,0,0,1,.55.53,1.77,1.77,0,0,1,0,.23Z"/><path class="cls-1" d="M1.66,14a4.26,4.26,0,0,1-.12.43.57.57,0,0,1-.7.31A.58.58,0,0,1,.43,14a3,3,0,0,1,.11-.4.57.57,0,0,1,.64-.33A.61.61,0,0,1,1.66,14Z"/><path class="cls-1" d="M16.09,1.28a.61.61,0,0,1-.67-.54A.6.6,0,0,1,16,.11a1,1,0,0,1,.3,0,.61.61,0,0,1,.59.54.61.61,0,0,1-.46.62Z"/><path class="cls-1" d="M35.09,12.34a.62.62,0,0,1-.43.69.54.54,0,0,1-.64-.27,1.88,1.88,0,0,1-.18-.5.56.56,0,0,1,.38-.61.56.56,0,0,1,.67.2A2.65,2.65,0,0,1,35.09,12.34Z"/><path class="cls-1" d="M1.61,21.82a.62.62,0,0,1-.49.66.59.59,0,0,1-.65-.38,2.88,2.88,0,0,1-.09-.4.58.58,0,0,1,1.12-.3A3.81,3.81,0,0,1,1.61,21.82Z"/><path class="cls-1" d="M14,34.34a2,2,0,0,1,.4.11.57.57,0,0,1,.34.71.58.58,0,0,1-.68.4,1.7,1.7,0,0,1-.37-.1.58.58,0,0,1-.36-.65A.62.62,0,0,1,14,34.34Z"/><path class="cls-1" d="M23.83,1a3.07,3.07,0,0,1,.5.22.56.56,0,0,1,.18.7.59.59,0,0,1-.62.34,2.64,2.64,0,0,1-.47-.17.57.57,0,0,1-.28-.64A.63.63,0,0,1,23.83,1Z"/><path class="cls-1" d="M35.92,16.19a.6.6,0,0,1-.52.66.57.57,0,0,1-.64-.45,1.57,1.57,0,0,1,0-.53.54.54,0,0,1,.52-.46.58.58,0,0,1,.6.4A2.1,2.1,0,0,1,35.92,16.19Z"/><path class="cls-1" d="M22.92,34.54a.56.56,0,0,1,.33-.54,3.82,3.82,0,0,1,.36-.13.59.59,0,0,1,.69.34.55.55,0,0,1-.23.72,1.66,1.66,0,0,1-.53.18A.56.56,0,0,1,22.92,34.54Z"/><path class="cls-1" d="M22.48,35c0,.35-.27.57-.78.64a.6.6,0,0,1-.66-.44,0,0,0,0,0,0,0,.54.54,0,0,1,.23-.56.88.88,0,0,1,.87-.14A.57.57,0,0,1,22.48,35Z"/><path class="cls-1" d="M11.38,34.38a.6.6,0,0,1,.61-.6,1.58,1.58,0,0,1,.62.21.52.52,0,0,1,.22.61.55.55,0,0,1-.5.43,1,1,0,0,1-.76-.29A1.37,1.37,0,0,1,11.38,34.38Z"/><path class="cls-1" d="M14.18,1.61a.62.62,0,0,1-.68-.48.58.58,0,0,1,.4-.66,2.15,2.15,0,0,1,.44-.09.57.57,0,0,1,.59.46.56.56,0,0,1-.34.66A2.57,2.57,0,0,1,14.18,1.61Z"/><path class="cls-1" d="M.73,15.22a.86.86,0,0,1,.17,0c.34.09.47.41.37.92a.59.59,0,0,1-.65.49.52.52,0,0,1-.44-.3,1,1,0,0,1,.11-.95,2.4,2.4,0,0,1,.42-.23Z"/><path class="cls-1" d="M12.36.9a.63.63,0,0,1,.69.44.57.57,0,0,1-.29.64,1.47,1.47,0,0,1-.47.17.57.57,0,0,1-.62-.36.56.56,0,0,1,.2-.69A2.65,2.65,0,0,1,12.36.9Z"/><path class="cls-1" d="M34.33,22.06a3.79,3.79,0,0,1,.13-.45.58.58,0,0,1,.69-.3.59.59,0,0,1,.42.59,1.84,1.84,0,0,1-.14.51.57.57,0,0,1-.65.31A.63.63,0,0,1,34.33,22.06Z"/><path class="cls-1" d="M1.41,22.93h.11c.31,0,.48.21.6.67a.56.56,0,0,1-.23.66.5.5,0,0,1-.23.09c-.31.06-.56-.12-.69-.48s-.08-.7.21-.86A.79.79,0,0,1,1.41,22.93Z"/><path class="cls-1" d="M35.89,20.08c0,.08,0,.19,0,.3a.6.6,0,0,1-.66.43.63.63,0,0,1-.5-.65c0-.1,0-.2,0-.31a.58.58,0,0,1,1.16.11Z"/><path class="cls-1" d="M34.93,13.49H35c.41,0,.6.41.59.9a.56.56,0,0,1-.66.53c-.3,0-.47-.25-.55-.67a.62.62,0,0,1,.32-.71A1.91,1.91,0,0,1,34.93,13.49Z"/><path class="cls-1" d="M16,35.9l-.36-.06a.59.59,0,0,1-.42-.67.6.6,0,0,1,.65-.48,1.46,1.46,0,0,1,.22,0A.59.59,0,1,1,16,35.9Z"/><path class="cls-1" d="M19.88,34.72a.59.59,0,0,1,.66.5.58.58,0,0,1-.55.67l-.25,0a.6.6,0,0,1-.63-.48.58.58,0,0,1,.46-.69Z"/><path class="cls-1" d="M1.58,12.89A.6.6,0,0,1,1,12.26a1.59,1.59,0,0,1,.21-.6.52.52,0,0,1,.59-.22.56.56,0,0,1,.45.51,1,1,0,0,1-.27.74A1.65,1.65,0,0,1,1.58,12.89Z"/><path class="cls-1" d="M1.16,17.88c0,.4-.1.6-.38.7A.57.57,0,0,1,0,18.12a2.94,2.94,0,0,1,0-.42.6.6,0,0,1,.57-.55.59.59,0,0,1,.58.54A1.21,1.21,0,0,1,1.16,17.88Z"/><path class="cls-1" d="M20,.1a1.91,1.91,0,0,1,.33.06.58.58,0,0,1,.42.67.61.61,0,0,1-.63.48l-.25,0a.57.57,0,0,1-.55-.65A.59.59,0,0,1,20,.1Z"/><path class="cls-1" d="M1.27,19.84c0,.43-.19.68-.51.72A.59.59,0,0,1,.11,20c0-.09,0-.17,0-.25a.61.61,0,0,1,.51-.64.58.58,0,0,1,.66.48A.84.84,0,0,1,1.27,19.84Z"/><path class="cls-1" d="M22.68,1.06a.57.57,0,0,1-.68.59,1.64,1.64,0,0,1-.38-.1.57.57,0,0,1-.35-.7A.59.59,0,0,1,22,.43a3.58,3.58,0,0,1,.35.09A.56.56,0,0,1,22.68,1.06Z"/><path class="cls-1" d="M34.37,24.63a.59.59,0,0,1-.59-.62,1.49,1.49,0,0,1,.22-.62.51.51,0,0,1,.61-.2.6.6,0,0,1,.42.54,1,1,0,0,1-.27.68A1.36,1.36,0,0,1,34.37,24.63Z"/><path class="cls-1" d="M18.1,0h.12a.59.59,0,1,1,0,1.17H18a.56.56,0,0,1-.59-.58A.58.58,0,0,1,18,0Z"/><path class="cls-1" d="M17.84,36a.59.59,0,1,1-.18-1.16,2.16,2.16,0,0,1,.36,0,.58.58,0,0,1,.57.6A.58.58,0,0,1,18,36Z"/><path class="cls-1" d="M30.33,31.22a.86.86,0,0,1,.05-1.72.86.86,0,1,1-.05,1.72Z"/><path class="cls-1" d="M6.5,30.37a.86.86,0,1,1-.84-.87A.84.84,0,0,1,6.5,30.37Z"/><path class="cls-1" d="M6.5,5.66a.86.86,0,1,1-.82-.88A.85.85,0,0,1,6.5,5.66Z"/><path class="cls-1" d="M31.22,5.64a.86.86,0,1,1-.85-.86A.84.84,0,0,1,31.22,5.64Z"/><path class="cls-1" d="M27.07,15.73c-.3,0-.6,0-.87,0l-.81-2,.57-.52a1.65,1.65,0,0,0,0-2.41c-.27-.28-.55-.56-.83-.83a1.65,1.65,0,0,0-2.45.05,6.4,6.4,0,0,1-.53.52L20.43,9.9a.21.21,0,0,1-.16-.23c0-.25,0-.5,0-.76a1.62,1.62,0,0,0-1.53-1.6c-.49,0-1,0-1.48,0a1.62,1.62,0,0,0-1.53,1.58c0,.26,0,.53,0,.79a.19.19,0,0,1-.14.21l-1.79.7c-.15-.15-.34-.33-.51-.53a1.67,1.67,0,0,0-2.47,0c-.27.25-.52.51-.78.77a1.67,1.67,0,0,0,0,2.49l.52.52c-.27.66-.52,1.27-.79,1.91h-.9a2.22,2.22,0,0,0-.44.06,1.64,1.64,0,0,0-1.16,1.5c0,.43,0,.86,0,1.29A1.65,1.65,0,0,0,9,20.27c.28,0,.56,0,.8,0,.27.66.52,1.27.79,1.91-.18.18-.38.37-.56.58a1.84,1.84,0,0,0-.36.47A1.66,1.66,0,0,0,10,25.13c.27.28.54.55.82.82a1.67,1.67,0,0,0,2.49,0c.17-.19.36-.37.51-.51.61.24,1.17.47,1.74.68a.23.23,0,0,1,.18.24c0,.25,0,.49,0,.73a1.61,1.61,0,0,0,1.59,1.63h1.34a1.62,1.62,0,0,0,1.6-1.62v-.9c.33-.13.65-.23,1-.36s.61-.28.92-.42l.09.07c.16.15.32.29.46.45a1.66,1.66,0,0,0,2.47.06c.27-.26.53-.53.79-.79a1.67,1.67,0,0,0,0-2.47l-.55-.5c.28-.68.54-1.3.8-1.95.28,0,.58,0,.88,0a1.63,1.63,0,0,0,1.62-1.6q0-.68,0-1.35A1.63,1.63,0,0,0,27.07,15.73Zm-9.19-4.35h0v4.89l-4,1.82,0,0Q15.88,14.73,17.88,11.38Zm0,13.25-.19-.25L14,19.17l-.19-.26v0A.37.37,0,0,1,14,19l3.92,2.32Zm0-4-4.1-2.43,4.1-1.85Zm.13-9.28.05,0c1.34,2.24,2.69,4.47,4,6.7l0,0-4.05-1.83Zm4.1,7.53h0a2.43,2.43,0,0,0-.2.25l-3.68,5.19-.21.27V21.27l.19-.13L21.87,19a1.23,1.23,0,0,1,.29-.09h0Zm-4.09,1.74V16.38l4.1,1.86Z"/></g></g></svg>