<svg xmlns="http://www.w3.org/2000/svg" viewBox="0 0 28.89 36"><defs><style>.cls-1{fill:#01b6b8;}</style></defs><g id="Layer_2" data-name="Layer 2"><g id="Layer_1-2" data-name="Layer 1"><path class="cls-1" d="M0,18C0,13.13,0,8.24,0,3.35A3.47,3.47,0,0,1,3.35,0h17a3.75,3.75,0,0,1,2.83,1.23c1.09,1.14,2.19,2.27,3.29,3.41l1.41,1.49a3.65,3.65,0,0,1,1,2.6c0,6.32,0,12.64,0,19,0,1.67,0,3.34,0,5a3.19,3.19,0,0,1-1.95,3,3.06,3.06,0,0,1-1.41.3c-7.36,0-14.73,0-22.1,0A3.47,3.47,0,0,1,.07,33.37,2.42,2.42,0,0,1,0,32.83V18Zm1.7,0V32.46a1.63,1.63,0,0,0,1.48,1.77c.26,0,.51.05.77.05H25.1a3.89,3.89,0,0,0,.9-.11,1.65,1.65,0,0,0,1.17-1.71c0-2.25,0-4.49,0-6.74V10a1.63,1.63,0,0,0-.08-.53,1.55,1.55,0,0,0-1.55-1c-.88,0-1.76,0-2.64,0A1.8,1.8,0,0,1,21,6.52c0-1,0-1.91,0-2.87a4.5,4.5,0,0,0-.09-.9,1.27,1.27,0,0,0-1.26-1H3.72a3,3,0,0,0-.89.14A1.76,1.76,0,0,0,1.71,3.67Z"/><path class="cls-1" d="M14.45,7.94A10.1,10.1,0,1,1,4.34,18,10.09,10.09,0,0,1,14.45,7.94Zm3.13,9.2a23.26,23.26,0,0,0,2.8,4.22c.11-.14.25-.27.36-.43.68-1,1.36-2.08,2-3.13.12-.19.42-.37.26-.63s-.47-.13-.72-.14c-.48,0-1,0-1.39,0a.84.84,0,0,1-.1-.15,1.8,1.8,0,0,1-.06-.22,6.51,6.51,0,0,0-8.5-4.7,5.73,5.73,0,0,0-1.15.54.54.54,0,0,0-.21.75.56.56,0,0,0,.77.27,3.13,3.13,0,0,0,.36-.19,5.07,5.07,0,0,1,3.27-.49,5.2,5.2,0,0,1,3.88,2.87A2.37,2.37,0,0,1,19.56,17,11.92,11.92,0,0,0,17.58,17.14ZM8,19c.06.23.11.43.16.64a6.5,6.5,0,0,0,7.54,4.7,5.8,5.8,0,0,0,2.15-.85.56.56,0,0,0,.25-.81.59.59,0,0,0-.83-.19,11,11,0,0,1-1.64.66A5.23,5.23,0,0,1,9.57,20.1,2.25,2.25,0,0,1,9.31,19a12.92,12.92,0,0,0,2.22-.17c-.12-.2-.18-.33-.26-.46-.39-.6-.77-1.2-1.17-1.79S9.41,15.52,9,15c-.25-.36-.42-.35-.69,0l-.1.15L6.1,18.42a4.68,4.68,0,0,0-.21.44A15.5,15.5,0,0,0,8,19Z"/></g></g></svg>