<svg xmlns="http://www.w3.org/2000/svg" viewBox="0 0 29.78 36"><defs><style>.cls-1{fill:#01b6b8;}</style></defs><g id="Layer_2" data-name="Layer 2"><g id="Layer_1-2" data-name="Layer 1"><path class="cls-1" d="M14.88,36H3.21a3.1,3.1,0,0,1-3-1.9A3,3,0,0,1,0,32.76c0-2.9,0-5.79,0-8.69,0-1.6,0-3.2,0-4.8a3.2,3.2,0,0,1,3.16-3.2H26.55a3.14,3.14,0,0,1,2.81,1.58,2.82,2.82,0,0,1,.41,1.59c0,2.37,0,4.74,0,7.12,0,2.12,0,4.24,0,6.36A3.21,3.21,0,0,1,26.5,36C22.62,36,18.75,36,14.88,36Zm10.24-6.32h1.13a4.16,4.16,0,0,0-1-3.31c.22-.2.4-.35.56-.52a1.89,1.89,0,0,0,.49-1.19,2.11,2.11,0,0,0-2.15-2.28c-.77,0-1.54,0-2.32,0a3.06,3.06,0,0,0-.32.05v7.26h1.07v-3c.5-.07,1-.19,1.35.12A2.72,2.72,0,0,1,25.12,29Zm-15.53,0h1.89a2.7,2.7,0,0,0,2.62-2.61q0-1,0-2.07a2.66,2.66,0,0,0-2-2.56,11.82,11.82,0,0,0-2.46-.09ZM8.31,24.53a2.14,2.14,0,0,0-.52-1.43A2.42,2.42,0,0,0,3.5,24.6c0,1,0,1.92,0,2.88a2.57,2.57,0,0,0,.06.55,2.4,2.4,0,0,0,2.77,1.78,2.37,2.37,0,0,0,2-2.17c0-.4,0-.8,0-1.21,0-.26,0-.52,0-.8H6a2.44,2.44,0,0,0,0,1.11l1.09.06a1.71,1.71,0,0,1,0,1,1.29,1.29,0,0,1-1.39.92,1.27,1.27,0,0,1-1.09-1.26c0-.94,0-1.88,0-2.82a1.27,1.27,0,0,1,2.45-.49c.06.13.11.27.18.43H7.9A4,4,0,0,0,8.31,24.53Zm7-2.17c-.09,1.16,0,6.9.06,7.34h1.07c0-.56,0-1.06,0-1.56a6.82,6.82,0,0,1,.06-1.55H18a2.66,2.66,0,0,0,.75-.07,2.11,2.11,0,0,0-.12-4.06,3.11,3.11,0,0,0-.6-.09Z"/><path class="cls-1" d="M21,14.93v-.6c0-.83,0-1.65,0-2.48A6.14,6.14,0,0,0,8.86,10.69a6.87,6.87,0,0,0-.11,1.2c0,.81,0,1.62,0,2.42v.61a8.63,8.63,0,0,1-1.43,0H5.91c-.46,0-.91,0-1.36,0a5.42,5.42,0,0,1-1.44-.07,4.21,4.21,0,0,1,0-.5c0-.94,0-1.88,0-2.82A11.8,11.8,0,0,1,5.9,4.18,11.62,11.62,0,0,1,11.28.57a11.46,11.46,0,0,1,4.87-.5,11.66,11.66,0,0,1,7.13,3.44,11.26,11.26,0,0,1,3.25,6.42c.11.78.14,1.57.18,2.36s0,1.41,0,2.12c0,.16,0,.32,0,.52Z"/><path class="cls-1" d="M22.6,25.45V23.56l.59,0c.31,0,.61,0,.91,0a1,1,0,0,1,1,.93,1,1,0,0,1-1,1c-.39,0-.77,0-1.16,0Z"/><path class="cls-1" d="M10.76,23.57a1.78,1.78,0,0,1,1.92.63,1.63,1.63,0,0,1,.31,1c0,.54,0,1.07,0,1.61a1.66,1.66,0,0,1-1.92,1.75l-.31,0Z"/><path class="cls-1" d="M16.51,25.45V23.6a1.47,1.47,0,0,1,.34-.07q.63,0,1.26,0a1,1,0,0,1,.94.86.93.93,0,0,1-.75,1A7.62,7.62,0,0,1,16.51,25.45Z"/></g></g></svg>