<svg xmlns="http://www.w3.org/2000/svg" viewBox="0 0 60 60"><defs><style>.cls-1{fill:#003534;}.cls-2{fill:#01b6b8;}</style></defs><g id="Layer_2" data-name="Layer 2"><g id="Layer_1-2" data-name="Layer 1"><path class="cls-1" d="M30,60c-8.35,0-12.72-15.09-12.72-30,0-1.3,0-2.61.1-3.9a2.5,2.5,0,0,1,5,.26c-.07,1.2-.1,2.43-.1,3.64,0,15.26,4.57,25,7.72,25s7.72-9.74,7.72-25c0-1,0-2.05-.07-3.06a2.5,2.5,0,1,1,5-.22c0,1.09.07,2.19.07,3.28C42.72,44.91,38.35,60,30,60Z"/><path class="cls-1" d="M21.6,16.85a2.27,2.27,0,0,1-.63-.08,2.49,2.49,0,0,1-1.79-3C21.46,4.88,25.3,0,30,0s8.35,4.65,10.65,13.09a2.5,2.5,0,1,1-4.82,1.31C34.07,7.94,31.57,5,30,5s-4.22,3.12-6,10A2.5,2.5,0,0,1,21.6,16.85Z"/><path class="cls-1" d="M30,60A30,30,0,1,1,60,30,30,30,0,0,1,30,60ZM30,5A25,25,0,1,0,55,30,25,25,0,0,0,30,5Z"/><path class="cls-2" d="M30,42.72C15.09,42.72,0,38.35,0,30S15.09,17.28,30,17.28,60,21.65,60,30,44.91,42.72,30,42.72Zm0-20.44C14.74,22.28,5,26.85,5,30s9.74,7.72,25,7.72S55,33.15,55,30,45.26,22.28,30,22.28Z"/><path class="cls-1" d="M19.88,28.73h-.13a2.5,2.5,0,0,1-2.37-2.63,63.77,63.77,0,0,1,1.8-12.37A2.5,2.5,0,0,1,24,15a57.8,57.8,0,0,0-1.64,11.39A2.51,2.51,0,0,1,19.88,28.73Z"/><path class="cls-1" d="M40.15,29.33a2.51,2.51,0,0,1-2.5-2.39A57.73,57.73,0,0,0,35.83,14.4a2.5,2.5,0,1,1,4.82-1.32,62.92,62.92,0,0,1,2,13.64,2.5,2.5,0,0,1-2.39,2.61Z"/></g></g></svg>