<svg xmlns="http://www.w3.org/2000/svg" viewBox="0 0 36.97 36"><defs><style>.cls-1{fill:#01b6b8;}</style></defs><g id="Layer_2" data-name="Layer 2"><g id="Layer_1-2" data-name="Layer 1"><path class="cls-1" d="M13.68,27.53a10.71,10.71,0,0,1,1,.37c2,1,4,1.92,6.05,2.9,1,.51,1.19,1,.72,2a9.74,9.74,0,0,1-.54,1.07c-.36.62-.71.76-1.32.47-2.39-1.13-4.77-2.26-7.14-3.42-.73-.35-.85-.71-.58-1.46a14,14,0,0,1,.6-1.38C12.69,27.69,13,27.49,13.68,27.53Z"/><path class="cls-1" d="M16.34,23.61a7.28,7.28,0,0,1-.86-.28c-2.23-1.06-4.47-2.12-6.69-3.19-.95-.46-1.09-.9-.63-1.85.19-.39.36-.79.57-1.17.31-.57.62-.68,1.25-.46a8.1,8.1,0,0,1,.92.38L17,20c1,.5,1.13.87.66,1.92A7,7,0,0,1,17,23,3,3,0,0,1,16.34,23.61Z"/><path class="cls-1" d="M28.75,17.19a4.39,4.39,0,0,1-1,2.27c-.3.4-.76.27-1.19.06-1.15-.55-2.3-1.07-3.45-1.61s-2.31-1.07-3.46-1.62A1.16,1.16,0,0,1,19,14.67a9.09,9.09,0,0,1,.68-1.45.91.91,0,0,1,1.28-.42c.59.23,1.14.55,1.72.82l4.81,2.27a6.91,6.91,0,0,0,.72.36A.86.86,0,0,1,28.75,17.19Z"/><path class="cls-1" d="M25.05,6.44c-.4.72-.76,1.46-1.21,2.15-.26.39-.7.28-1.09.1L19.4,7.1C18.26,6.55,17.11,6,16,5.44a1.28,1.28,0,0,1-.73-1.95,10.81,10.81,0,0,1,.57-1.06A1,1,0,0,1,17.23,2C19.52,3,21.81,4.14,24.1,5.23A1.5,1.5,0,0,1,25.05,6.44Z"/><path class="cls-1" d="M8.67,12.68a2.5,2.5,0,0,1-.4,2.16c-.74,1.68-1.59,3.3-2.4,4.95-.18.35-.41.68-.6,1a.87.87,0,0,1-1.2.4,6.81,6.81,0,0,1-.82-.39c-1.17-.58-1.27-.76-.74-1.91,1-2.25,2.1-4.47,3.17-6.7a.78.78,0,0,1,1.15-.44C7.48,12.06,8.09,12.4,8.67,12.68Z"/><path class="cls-1" d="M13,15.84,16.85,8a3.08,3.08,0,0,1,2.6.84c.42.27.29.86.09,1.3-.39.88-.82,1.74-1.23,2.61-.62,1.32-1.25,2.64-1.87,4-.39.85-.86,1.07-1.65.61C14.21,17,13.4,16.9,13,15.84Z"/><path class="cls-1" d="M20.79,18.76a4,4,0,0,1,2.95,1.33c-1.21,2.87-2.55,5.58-3.91,8.17-1.14.28-1.79-.42-2.52-.83-.16-.1-.22-.48-.22-.73a1.72,1.72,0,0,1,.2-.76q1.62-3.44,3.26-6.87A2.41,2.41,0,0,1,20.79,18.76Z"/><path class="cls-1" d="M30.2,24.7c-.53-.28-1.1-.56-1.65-.86s-.76-.64-.51-1.3a15.85,15.85,0,0,1,.63-1.47q1.29-2.7,2.6-5.4c.39-.8.71-.92,1.5-.57.39.17.8.32,1.18.53A.84.84,0,0,1,34.37,17c-1,2.13-2,4.27-3,6.39C31.07,23.86,31,24.52,30.2,24.7Z"/><path class="cls-1" d="M29.87,26.8a14.81,14.81,0,0,1-1.1,2.09,1.17,1.17,0,0,1-1.09.18c-1.53-.66-3-1.38-4.52-2.13a.85.85,0,0,1-.38-1.13,11.13,11.13,0,0,1,.77-1.73.91.91,0,0,1,1.3-.37c1.42.65,2.83,1.33,4.24,2A1.32,1.32,0,0,1,29.87,26.8Z"/><path class="cls-1" d="M12.39,12.74c-.36-.13-.59-.2-.8-.3-1.26-.6-2.53-1.2-3.79-1.82-.94-.47-1-.73-.63-1.74a7.28,7.28,0,0,1,.6-1.26A.94.94,0,0,1,9.14,7.2c1.4.64,2.79,1.29,4.17,2,.75.36.87.7.57,1.45a9,9,0,0,1-.72,1.54A2.61,2.61,0,0,1,12.39,12.74Z"/><path class="cls-1" d="M37,12a25.35,25.35,0,0,1-1.25,2.23,1,1,0,0,1-.9.18q-2.32-1-4.61-2.19a1,1,0,0,1-.37-1.41,12,12,0,0,1,.75-1.41A.9.9,0,0,1,31.88,9c1.48.69,3,1.39,4.42,2.14C36.56,11.24,36.71,11.62,37,12Z"/><path class="cls-1" d="M.1,25a3.23,3.23,0,0,1,.76-2.81c.29-.46.85-.39,1.29-.19,1.4.64,2.79,1.29,4.16,2a1,1,0,0,1,.54,1.48A16.75,16.75,0,0,1,6.09,27c-.19.35-.51.6-.91.43C3.43,26.67,1.71,25.87.1,25Z"/><path class="cls-1" d="M11.53.12c1.21-.42,2.08.34,3.07,1a6.45,6.45,0,0,1-.31,1c-.57,1.24-1.16,2.48-1.77,3.7-.46.91-.77,1-1.67.6-2.07-1-1.81-1.13-1-2.84C10.33,2.45,10.91,1.36,11.53.12Z"/><path class="cls-1" d="M25.19,35.92a3.71,3.71,0,0,1-2.52-.32c-.45-.25-.66-.57-.43-1.06q1-2.2,2.1-4.41a.76.76,0,0,1,1.07-.43,16.57,16.57,0,0,1,1.7.81.69.69,0,0,1,.32.95C26.65,32.92,26.27,34.58,25.19,35.92Z"/><path class="cls-1" d="M26.7,6.77c.76.34,1.47.61,2.13,1a.84.84,0,0,1,.36,1.14c-.66,1.38-1.31,2.77-2.05,4.11-.42.78-.64.79-1.45.4-.39-.19-.8-.36-1.17-.56a.8.8,0,0,1-.41-1.17q1-2.07,2-4.13A6,6,0,0,1,26.7,6.77Z"/><path class="cls-1" d="M9.79,22.69c1.17-.33,1.85.54,2.85.87a5,5,0,0,1-.16,1.27c-.63,1.42-1.32,2.82-2,4.19-1.15.46-2-.15-2.78-.73a.65.65,0,0,1-.19-.89C8.28,25.84,9,24.28,9.79,22.69Z"/></g></g></svg>