<svg xmlns="http://www.w3.org/2000/svg" viewBox="0 0 36.95 60"><defs><style>.cls-1{fill:#003534;}.cls-2{fill:#01b6b8;}.cls-3{fill:#fff;}</style></defs><g id="Layer_2" data-name="Layer 2"><g id="Layer_1-2" data-name="Layer 1"><path class="cls-1" d="M34.11,46.69,32.54,49.4a21.81,21.81,0,0,1-2.82,3.72,24.15,24.15,0,0,1-5.63,4.64,25.07,25.07,0,0,1-4.22,2,4.14,4.14,0,0,1-2.94-.06,24.45,24.45,0,0,1-9.68-6.56,27.11,27.11,0,0,1-4-5.68A28.16,28.16,0,0,1,.68,40.32a31.41,31.41,0,0,1-.56-3.89C0,35.34,0,34.23,0,33.12a27,27,0,0,1,.68-5.66c.12-.52.24-1,.37-1.55a3.48,3.48,0,0,1,1.82-2.28,35.07,35.07,0,0,1,7.18-2.87,26.59,26.59,0,0,1,5.31-.92c1.37-.09,2.74-.11,4.12-.13a27.34,27.34,0,0,1,5.9.7,32.72,32.72,0,0,1,7.2,2.45,15.41,15.41,0,0,1,1.84,1,3.12,3.12,0,0,1,1.43,1.87,28.21,28.21,0,0,1,1,5.55c.06,1.12.11,2.25.11,3.37a27.45,27.45,0,0,1-.52,4.95,30.15,30.15,0,0,1-2.18,6.76c-.06.12-.09.23-.14.35ZM19.46,31.43h0a3.45,3.45,0,0,0-3.76,1.21,3.37,3.37,0,0,0,0,3.87,3,3,0,0,1,.48,2.27l-.9,5.33c-.1.61.15.94.79,1h4.92c.63,0,.89-.34.79-1-.27-1.55-.51-3.1-.8-4.65a4,4,0,0,1,.52-3.22,3,3,0,0,0-.05-3.32A2.85,2.85,0,0,0,19.46,31.43Z"/><path class="cls-2" d="M33.57,16.52c-.07,1.17-.07,2-.18,2.8a1.46,1.46,0,0,1-2,1.2,50,50,0,0,0-5.32-1.72,2.22,2.22,0,0,1-1.59-2.16,16.83,16.83,0,0,0-.12-2.57,5.76,5.76,0,0,0-4.08-4.72,5.72,5.72,0,0,0-6,1.41,5.4,5.4,0,0,0-1.7,3.33c-.1.85-.09,1.72-.12,2.58a2.23,2.23,0,0,1-1.61,2.14,46,46,0,0,0-5,1.62,1.53,1.53,0,0,1-2.15-.68,2.44,2.44,0,0,1-.22-1.07c0-1.78-.05-3.57.12-5.34a14.4,14.4,0,0,1,3.46-8A14.74,14.74,0,0,1,14.55.55a14.55,14.55,0,0,1,9.52.56,14.75,14.75,0,0,1,5.74,4.11,14.43,14.43,0,0,1,3.37,6.94A42,42,0,0,1,33.57,16.52Z"/><polygon class="cls-3" points="34.11 46.69 34.14 46.72 34.11 46.69 34.11 46.69"/><polygon class="cls-3" points="7.28 53.58 7.3 53.56 7.28 53.58 7.28 53.58"/><polygon class="cls-3" points="7.28 53.58 7.25 53.61 7.28 53.58 7.28 53.58"/><polygon class="cls-3" points="19.46 31.43 19.43 31.46 19.46 31.43 19.46 31.43"/></g></g></svg>