<svg xmlns="http://www.w3.org/2000/svg" viewBox="0 0 48.32 64.92"><defs><style>.cls-1{fill:#01b6b8;}.cls-2{fill:#003534;}</style></defs><g id="Layer_2" data-name="Layer 2"><g id="Layer_1-2" data-name="Layer 1"><path class="cls-1" d="M14,64.21a2.37,2.37,0,0,1-1.17-.3,24.19,24.19,0,0,1-7.6-6.52A26.33,26.33,0,0,1,.06,46.72a2.5,2.5,0,1,1,4.88-1.06,21.52,21.52,0,0,0,4.23,8.65,19.33,19.33,0,0,0,6,5.2A2.5,2.5,0,0,1,14,64.21Z"/><path class="cls-2" d="M30.5,49.54a5.74,5.74,0,0,1-4.44,2.24v2.87H21.91V51.78a5.83,5.83,0,0,1-4.62-2.38,8.19,8.19,0,0,1-1.61-5.28h5.44a3.43,3.43,0,0,0,.82,2.29,2.88,2.88,0,0,0,2.22.86A2.28,2.28,0,0,0,26,46.5a2.91,2.91,0,0,0,.68-2,3.38,3.38,0,0,0-.12-.93,2,2,0,0,0-.47-.79c-.22-.24-.43-.44-.62-.61a4.71,4.71,0,0,0-.88-.55,10.25,10.25,0,0,0-.93-.45l-1.11-.47-1.13-.46a13.88,13.88,0,0,1-2-1,9.35,9.35,0,0,1-1.65-1.32,5.2,5.2,0,0,1-1.27-2A8.16,8.16,0,0,1,16,33.09a7.38,7.38,0,0,1,1.55-4.78,6,6,0,0,1,4.32-2.16V23.57h4.15v2.58A6.05,6.05,0,0,1,30,28.55a8.06,8.06,0,0,1,1.48,4.54h-5.3a2.92,2.92,0,0,0-.86-1.72,2.3,2.3,0,0,0-1.68-.71,2.14,2.14,0,0,0-1.56.61,2.19,2.19,0,0,0-.62,1.64,1.89,1.89,0,0,0,.27,1,2.83,2.83,0,0,0,.87.85c.41.26.78.47,1.11.64s.84.39,1.52.68,1.2.51,1.56.68a11.41,11.41,0,0,1,3.94,2.88,7.25,7.25,0,0,1,1.47,4.82A7.91,7.91,0,0,1,30.5,49.54Z"/><path class="cls-2" d="M25.73,64.92a2.5,2.5,0,0,1-.19-5A17.9,17.9,0,0,0,39,52.43,20.46,20.46,0,0,0,42.77,35a26.65,26.65,0,0,0-5.05-10.23c-1.81-2.45-3.73-4.91-5.58-7.28-1.29-1.64-2.58-3.29-3.84-5-1.43-1.87-2.79-3.74-4.23-5.71l-.19-.26-2.2,2.88c-3.18,4.15-6.47,8.44-9.65,12.7C9.39,25.68,7.1,28.9,5.83,32.59A2.5,2.5,0,0,1,1.1,31C2.61,26.59,5.23,22.89,8,19.17c3.2-4.27,6.5-8.58,9.69-12.74l3.62-4.74a7.39,7.39,0,0,1,.57-.62l.27-.28A2.5,2.5,0,0,1,26,1L28.11,3.9c1.42,1.95,2.77,3.8,4.17,5.63q1.88,2.46,3.8,4.9c1.87,2.4,3.81,4.88,5.66,7.39A31.32,31.32,0,0,1,47.66,34,25.25,25.25,0,0,1,43,55.47a23,23,0,0,1-17,9.45Z"/></g></g></svg>