<svg xmlns="http://www.w3.org/2000/svg" viewBox="0 0 25.51 36"><defs><style>.cls-1{fill:#01b6b8;}</style></defs><g id="Layer_2" data-name="Layer 2"><g id="Layer_1-2" data-name="Layer 1"><path class="cls-1" d="M21.61,29.25l-.36-4.14h0l-.17,1.08-.06,0a8.59,8.59,0,0,0-4.71-5.26,8.38,8.38,0,0,0-7.06,0,8.54,8.54,0,0,0-4.72,5.25H4.45l-.17-1.07h0L3.9,29.28c-.27-.1-.49-.16-.7-.26L.56,27.75a.45.45,0,0,1-.25-.32A8.88,8.88,0,0,1,0,25.25c0-1.07,0-2.13,0-3.19a7.26,7.26,0,0,1,1.36-4.2,7.62,7.62,0,0,1,3.17-2.5,10.53,10.53,0,0,1,4.32-.91H9.2a3.6,3.6,0,0,1,1.37.21,6.54,6.54,0,0,0,4.73-.12,1.37,1.37,0,0,1,.49-.09,13.2,13.2,0,0,1,3,.22,9.18,9.18,0,0,1,4,1.81,7,7,0,0,1,2.57,4.44,11,11,0,0,1,.11,1.52c0,1,0,1.93,0,2.9a8.14,8.14,0,0,1-.32,2.13.48.48,0,0,1-.18.24,21.63,21.63,0,0,1-3.27,1.53Z"/><path class="cls-1" d="M12.76,0A6.74,6.74,0,1,1,6,6.68,6.74,6.74,0,0,1,12.76,0Z"/><path class="cls-1" d="M12.73,36a7.17,7.17,0,1,1,7.19-7.1A7.19,7.19,0,0,1,12.73,36Zm-2.51-7.94-.25.05c-.42.06-.45.1-.45.52V33a1.2,1.2,0,0,0,0,.19c0,.22.12.32.33.33H15.7A.3.3,0,0,0,16,33.2a1.13,1.13,0,0,0,0-.26V29.09c0-.21,0-.42,0-.63a.3.3,0,0,0-.27-.33c-.14,0-.28,0-.44-.06,0-.1,0-.19,0-.29,0-.37,0-.75,0-1.13a3.35,3.35,0,0,0-.13-.77,2.51,2.51,0,0,0-4.89.77c0,.37,0,.75,0,1.13A2.64,2.64,0,0,1,10.22,28.06Z"/><path class="cls-1" d="M14.42,28.07H11.1c0-.11,0-.19,0-.28V26.66A1.66,1.66,0,0,1,12.65,25a1.64,1.64,0,0,1,1.72,1.36A11.8,11.8,0,0,1,14.42,28.07Z"/><path class="cls-1" d="M13.3,32.23H12.23a1.08,1.08,0,0,1,0-.18c0-.31,0-.61.09-.92a.43.43,0,0,0-.08-.36.6.6,0,0,1,0-.73.66.66,0,0,1,.65-.28.6.6,0,0,1,.51.53.84.84,0,0,1-.11.47.54.54,0,0,0-.08.39C13.24,31.5,13.26,31.85,13.3,32.23Z"/></g></g></svg>