<svg xmlns="http://www.w3.org/2000/svg" viewBox="0 0 44.66 36"><defs><style>.cls-1{fill:#01b6b8;}</style></defs><g id="Layer_2" data-name="Layer 2"><g id="Layer_1-2" data-name="Layer 1"><path class="cls-1" d="M43.57,24.71H40.12V18A1.1,1.1,0,0,0,39,16.91H23.43V11.29h3.45a1.1,1.1,0,0,0,1.1-1.1V1.09A1.09,1.09,0,0,0,26.88,0h-9.1a1.09,1.09,0,0,0-1.09,1.09v9.1a1.09,1.09,0,0,0,1.09,1.1h3.46v5.62H5.64A1.09,1.09,0,0,0,4.55,18v6.71H1.09A1.09,1.09,0,0,0,0,25.81v9.1A1.09,1.09,0,0,0,1.09,36h9.1a1.09,1.09,0,0,0,1.1-1.09v-9.1a1.1,1.1,0,0,0-1.1-1.1H6.74V19.09h14.5v5.62H17.78a1.09,1.09,0,0,0-1.09,1.1v9.1A1.09,1.09,0,0,0,17.78,36h9.1A1.09,1.09,0,0,0,28,34.91v-9.1a1.1,1.1,0,0,0-1.1-1.1H23.43V19.09h14.5v5.62H34.47a1.09,1.09,0,0,0-1.09,1.1v9.1A1.09,1.09,0,0,0,34.47,36h9.1a1.09,1.09,0,0,0,1.09-1.09v-9.1A1.09,1.09,0,0,0,43.57,24.71ZM18.88,2.19h6.91V9.1H18.88ZM9.1,33.81H2.19V26.9H9.1Zm16.69,0H18.88V26.9h6.91Zm16.68,0h-6.9V26.9h6.9Z"/></g></g></svg>