<svg xmlns="http://www.w3.org/2000/svg" viewBox="0 0 65.57 55.1"><defs><style>.cls-1{fill:#003534;}.cls-2{fill:#01b6b8;}</style></defs><g id="Layer_2" data-name="Layer 2"><g id="Layer_1-2" data-name="Layer 1"><path class="cls-1" d="M32.78,0H61.4a4.13,4.13,0,0,1,2.65.82,3.82,3.82,0,0,1,1.52,2.91V41.85a4.17,4.17,0,0,1-.39,1.91A3.77,3.77,0,0,1,62,45.91c-.47,0-.95.05-1.43.05H4.44a5,5,0,0,1-2.12-.38A3.79,3.79,0,0,1,.08,42.71,4.89,4.89,0,0,1,0,41.86V4.06A4,4,0,0,1,.88,1.48,3.91,3.91,0,0,1,3.87,0c.2,0,.41,0,.61,0ZM62.89,35.36v-.49q0-15.22,0-30.43a6,6,0,0,0-.06-.73,1,1,0,0,0-.75-.88,2.66,2.66,0,0,0-.8-.09h-57c-.18,0-.36,0-.54,0a1.14,1.14,0,0,0-1,1c0,.12,0,.24,0,.36V34.91c0,.14,0,.29,0,.45ZM34.16,40.65a1.39,1.39,0,0,0-1.38-1.38,1.43,1.43,0,0,0-1.37,1.37A1.42,1.42,0,0,0,32.8,42,1.34,1.34,0,0,0,34.16,40.65Z"/><path class="cls-1" d="M32.78,55.09H22.3A1.35,1.35,0,0,1,21.15,53a1.2,1.2,0,0,1,1.07-.59h1.1a2.6,2.6,0,0,0,2.77-2.31c.08-.43.14-.86.19-1.29,0-.24.13-.35.37-.33a2.81,2.81,0,0,0,.29,0H38.85c.4,0,.43,0,.49.44s.1.87.18,1.3a2.6,2.6,0,0,0,2.62,2.19,8.85,8.85,0,0,0,1,0,1.32,1.32,0,0,1,1.48,1.33,1.36,1.36,0,0,1-1.47,1.36c-3,0-6,0-9,0Z"/><path class="cls-2" d="M12.12,17.64,24,12.91v3.14l-8,3,8,3v3.13L12.12,20.45Z"/><path class="cls-2" d="M28.52,28l5.39-17.9h3.14L31.66,28Z"/><path class="cls-2" d="M41.6,22.05l8.06-3-8.06-3V12.91l11.85,4.73v2.81L41.6,25.18Z"/></g></g></svg>