<svg xmlns="http://www.w3.org/2000/svg" viewBox="0 0 60.99 60"><defs><style>.cls-1{fill:#003534;}.cls-2{fill:#01b6b8;}</style></defs><g id="Layer_2" data-name="Layer 2"><g id="Layer_1-2" data-name="Layer 1"><path class="cls-1" d="M35.73,0h5.88A3,3,0,0,1,44.43,2.3a3,3,0,0,1-2,3.46,4.15,4.15,0,0,1-1.11.17c-.76,0-1.52,0-2.27,0-.44,0-.47,0-.48.46V8.79c0,.35.07.41.43.45a24.92,24.92,0,0,1,6.18,1.62,25.42,25.42,0,0,1,6.52,3.82,24,24,0,0,1,3.1,3,25,25,0,0,1,3.39,5.08A22.9,22.9,0,0,1,60,27.47c.21.85.43,1.7.58,2.57a23.28,23.28,0,0,1,.35,5.77,26.33,26.33,0,0,1-.73,4.76,26.61,26.61,0,0,1-2.47,6.24,25.89,25.89,0,0,1-6.88,7.95,24.62,24.62,0,0,1-6.1,3.44,25.5,25.5,0,0,1-15.2,1.13,26,26,0,0,1-6.78-2.64,18.35,18.35,0,0,1-2.87-1.91,2.95,2.95,0,0,1,3.78-4.52,23.41,23.41,0,0,0,3.1,2,20,20,0,0,0,3.09,1.31,19.82,19.82,0,0,0,3.39.78,20.22,20.22,0,0,0,4.33.12A19.73,19.73,0,0,0,54.15,42.36a17.44,17.44,0,0,0,1.24-4.52,25.23,25.23,0,0,0,.25-3.23A19,19,0,0,0,55,29.8a19.89,19.89,0,0,0-2.19-5.13,19.3,19.3,0,0,0-4.71-5.31,20.52,20.52,0,0,0-6-3.32,16.74,16.74,0,0,0-3.62-.86c-1-.1-1.91-.2-2.87-.22a18.42,18.42,0,0,0-4,.41,19.28,19.28,0,0,0-5.46,2c-.85.47-1.64,1-2.45,1.58a3.56,3.56,0,0,1-1.5.66,3,3,0,0,1-3.31-3.43,3.1,3.1,0,0,1,1.2-1.91A25.09,25.09,0,0,1,25.87,11a26.59,26.59,0,0,1,4.52-1.41c.62-.14,1.25-.21,1.88-.3.35-.05.43-.11.43-.46,0-.82,0-1.65,0-2.47,0-.33-.06-.38-.39-.38-.88,0-1.76,0-2.64,0a3.16,3.16,0,0,1-2.74-2A3,3,0,0,1,29,.16,4.64,4.64,0,0,1,30.09,0C32,0,33.85,0,35.73,0Z"/><path class="cls-1" d="M30.34,34.62a5.28,5.28,0,0,1,5.6-5.24,1.1,1.1,0,0,0,.78-.26l6.92-5.57a2.16,2.16,0,0,1,2.82,0,2.12,2.12,0,0,1,.32,2.87c-.56.79-1.18,1.54-1.79,2.3q-1.92,2.4-3.85,4.77a1.16,1.16,0,0,0-.28.85,5.29,5.29,0,0,1-5.45,5.55,5.12,5.12,0,0,1-3.72-1.72A5,5,0,0,1,30.34,34.62Z"/><path class="cls-2" d="M12.07,28.33H2.66A2.62,2.62,0,0,1,.16,26.6a2.55,2.55,0,0,1,2.1-3.38c.88,0,1.76,0,2.64,0H5l4.13,0c.38,0,.75,0,1.13,0,1.3,0,2.59,0,3.89,0,1,0,2,0,3.08,0,1.36,0,2.72,0,4.09,0a2.63,2.63,0,0,1,2.84,2.38,2.49,2.49,0,0,1-1.75,2.63,3.63,3.63,0,0,1-1,.16c-1.77,0-3.54,0-5.31,0Z"/><path class="cls-2" d="M14.44,37.2H7.55a3.06,3.06,0,0,1-1.49-.32,2.63,2.63,0,0,1-1.37-2.43A2.6,2.6,0,0,1,6.8,32.13a5.54,5.54,0,0,1,.81-.07H21.4a2.78,2.78,0,0,1,1.71.53,2.52,2.52,0,0,1-.19,4.21,2.37,2.37,0,0,1-1.34.4c-2.38,0-4.76,0-7.14,0Z"/><path class="cls-2" d="M16.37,40.91c1.72,0,3.43,0,5.15,0A2.56,2.56,0,0,1,23,45.64a3.16,3.16,0,0,1-1.66.45h-6c-1.34,0-2.68,0-4,0A2.63,2.63,0,0,1,8.9,44.71a2.53,2.53,0,0,1,1.41-3.63,2.9,2.9,0,0,1,.87-.16c1.73,0,3.46,0,5.19,0Z"/></g></g></svg>