<svg xmlns="http://www.w3.org/2000/svg" viewBox="0 0 45.54 36"><defs><style>.cls-1{fill:#01b6b8;}</style></defs><g id="Layer_2" data-name="Layer 2"><g id="Layer_1-2" data-name="Layer 1"><path class="cls-1" d="M28.14,5.7V4.79a1.09,1.09,0,1,0-2.18,0V5.7a1.09,1.09,0,1,0,2.18,0Z"/><path class="cls-1" d="M21.56,5.18a1.08,1.08,0,0,0-.4,1.48l.46.79a1.07,1.07,0,0,0,.94.54,1.17,1.17,0,0,0,.54-.14,1.09,1.09,0,0,0,.4-1.49l-.45-.79A1.09,1.09,0,0,0,21.56,5.18Z"/><path class="cls-1" d="M19,8.8a1.09,1.09,0,1,0-1.09,1.88l.79.45a1.08,1.08,0,0,0,.54.15,1.09,1.09,0,0,0,.54-2Z"/><path class="cls-1" d="M31.54,8a1.07,1.07,0,0,0,.94-.54l.46-.79a1.09,1.09,0,0,0-1.88-1.09l-.46.79A1.09,1.09,0,0,0,31,7.85,1.17,1.17,0,0,0,31.54,8Z"/><path class="cls-1" d="M36.56,9.19a1.09,1.09,0,0,0-1.48-.39l-.79.45h0l-6,3.44a2.31,2.31,0,0,0-1.27-.38,2.37,2.37,0,1,0,2.37,2.36s0-.06,0-.1l6.75-3.9A1.09,1.09,0,0,0,36.56,9.19Z"/><path class="cls-1" d="M22.61,23.75a1.09,1.09,0,1,0,0-2.17H9.24a1.08,1.08,0,0,0-1.08,1.09V24L2.65,18.68l5.51-5.29v1.29a1.08,1.08,0,0,0,1.08,1.09h8.83a1.09,1.09,0,0,0,0-2.17H14.59a12.51,12.51,0,0,1,24.93,0h-3.9a1.09,1.09,0,1,0,0,2.17h5a1.09,1.09,0,0,0,1.09-1.09A14.69,14.69,0,0,0,12.41,13.6H10.33V10.84a1.08,1.08,0,0,0-1.84-.78L.33,17.89a1.1,1.1,0,0,0,0,1.57l8.16,7.83a1.1,1.1,0,0,0,.75.31,1.07,1.07,0,0,0,.43-.09,1.08,1.08,0,0,0,.66-1V23.75Z"/><path class="cls-1" d="M45.21,26.29l-8.16-7.83a1.08,1.08,0,0,0-1.84.78V22H29a1.09,1.09,0,0,0,0,2.17H36.3a1.08,1.08,0,0,0,1.09-1.08v-1.3l5.5,5.29-5.5,5.28V31.07A1.09,1.09,0,0,0,36.3,30H14.84a1.09,1.09,0,0,0,0,2.18H35.21v2.75a1.08,1.08,0,0,0,.66,1,1.11,1.11,0,0,0,.43.09,1.05,1.05,0,0,0,.75-.3l8.16-7.84a1.09,1.09,0,0,0,.33-.78A1.11,1.11,0,0,0,45.21,26.29Z"/></g></g></svg>