<svg xmlns="http://www.w3.org/2000/svg" viewBox="0 0 60 60"><defs><style>.cls-1{fill:#003534;}.cls-2{fill:#01b6b8;}</style></defs><g id="Layer_2" data-name="Layer 2"><g id="Layer_1-2" data-name="Layer 1"><path class="cls-1" d="M23,46A23,23,0,1,1,46,23,23,23,0,0,1,23,46Zm0-40.7A17.69,17.69,0,1,0,40.7,23,17.7,17.7,0,0,0,23,5.33Z"/><path class="cls-2" d="M9.26,24.13A1.11,1.11,0,0,1,8.15,23,14.88,14.88,0,0,1,23,8.15a1.11,1.11,0,1,1,0,2.22A12.66,12.66,0,0,0,10.37,23,1.11,1.11,0,0,1,9.26,24.13Z"/><path class="cls-1" d="M46.5,38.77a28.43,28.43,0,0,1-7.73,7.73l11.9,11.9a5.47,5.47,0,0,0,7.73,0h0a5.47,5.47,0,0,0,0-7.73Z"/></g></g></svg>