<svg xmlns="http://www.w3.org/2000/svg" viewBox="0 0 73.42 36"><defs><style>.cls-1{fill:#01b6b8;}</style></defs><g id="Layer_2" data-name="Layer 2"><g id="Layer_1-2" data-name="Layer 1"><path class="cls-1" d="M32,17.91l-2.19-2.66L32.07,18Z"/><path class="cls-1" d="M55.42,0A17.91,17.91,0,0,0,41.2,7l-2,2.4L43.83,15l3.43-4.17A10.9,10.9,0,1,1,47,25h0l-.22-.27-4.55-5.54-8-9.73c-1-1.26-1.76-2.14-1.93-2.36a18,18,0,1,0-.42,22.38h0l2.37-2.88L29.66,21l-3.29,4a10.9,10.9,0,1,1,.32-13.56h0c.16.21.32.41.5.62l2.64,3.21-.06-.07.06.07L32,17.91l0,.05L39.52,27h0l2.07,2.49A18,18,0,1,0,55.42,0Z"/></g></g></svg>