<?xml version="1.0" standalone="no"?>
<!DOCTYPE svg PUBLIC "-//W3C//DTD SVG 20010904//EN"
 "http://www.w3.org/TR/2001/REC-SVG-20010904/DTD/svg10.dtd">
<svg version="1.0" xmlns="http://www.w3.org/2000/svg"
 width="2019.000000pt" height="2087.000000pt" viewBox="0 0 2019.000000 2087.000000"
 preserveAspectRatio="xMidYMid meet">

<g transform="translate(0.000000,2087.000000) scale(0.100000,-0.100000)"
fill="#000000" stroke="none">
<path d="M15559 16848 l-1547 -1123 82 -23 c44 -13 86 -27 91 -32 6 -5 45 -22
88 -39 179 -71 378 -210 558 -390 153 -154 229 -260 296 -415 80 -184 110
-360 100 -590 -8 -177 -26 -281 -83 -476 -148 -504 -464 -989 -882 -1353 -282
-245 -430 -349 -1031 -725 -359 -224 -839 -541 -1268 -838 -173 -120 -294
-205 -649 -454 -44 -32 -139 -99 -210 -150 -71 -52 -159 -115 -195 -141 -197
-140 -753 -559 -1028 -772 -119 -93 -232 -181 -251 -195 -19 -15 -167 -133
-329 -262 -161 -129 -310 -248 -331 -265 -393 -313 -707 -583 -1070 -921 -431
-401 -630 -572 -872 -749 -72 -53 -870 -767 -1073 -961 -17 -16 -96 -90 -175
-164 -354 -328 -651 -616 -727 -703 -105 -119 -150 -152 -199 -144 -89 15
-152 92 -161 199 -11 110 44 195 187 291 143 95 326 241 629 496 101 86 200
170 220 186 150 123 628 552 1009 903 1051 973 2325 2330 3043 3242 292 371
488 647 754 1060 176 273 386 673 466 887 22 59 46 122 54 139 14 31 85 287
110 399 36 160 39 427 6 555 -26 100 -98 257 -117 253 -5 -1 -2298 -1663
-5095 -3694 l-5086 -3692 54 -126 c82 -188 300 -630 410 -830 933 -1696 2287
-3062 3945 -3979 1653 -915 3606 -1333 5493 -1177 2706 225 5225 1570 6989
3734 1039 1274 1780 2815 2135 4441 245 1125 312 2285 195 3415 -238 2321
-1264 4539 -2849 6163 l-140 143 -1546 -1123z"/>
</g>
</svg>
