<svg width="69" height="69" viewBox="0 0 69 69" fill="none" xmlns="http://www.w3.org/2000/svg">
<path fill-rule="evenodd" clip-rule="evenodd" d="M40.1094 52.5239C36.0677 53.8292 31.7009 53.7106 27.736 52.1878L28.9414 49.049C32.1893 50.294 35.7779 50.3854 39.0758 49.3234L40.1094 52.5239Z" fill="white"/>
<path fill-rule="evenodd" clip-rule="evenodd" d="M41.7746 42.6827C39.1821 45.2753 39.1821 49.4786 41.7746 52.0712C44.3672 54.6638 48.5706 54.6638 51.1632 52.0712C53.7557 49.4786 53.7557 45.2753 51.1632 42.6827C48.5706 40.0901 44.3672 40.0901 41.7746 42.6827ZM44.2357 45.1469C43.0025 46.3802 43.0025 48.3796 44.2357 49.6128C45.4689 50.846 47.4683 50.846 48.7015 49.6128C49.9347 48.3796 49.9347 46.3802 48.7015 45.1469C47.4683 43.9137 45.4689 43.9137 44.2357 45.1469Z" fill="white"/>
<path fill-rule="evenodd" clip-rule="evenodd" d="M17.8635 42.4439C15.3968 44.9105 15.3968 48.9098 17.8635 51.3764C20.3301 53.843 24.3293 53.843 26.796 51.3764C29.2626 48.9098 29.2626 44.9105 26.796 42.4439C24.3293 39.9773 20.3301 39.9773 17.8635 42.4439ZM20.2058 44.7873C19.0324 45.9606 19.0324 47.8629 20.2058 49.0363C21.3791 50.2096 23.2814 50.2096 24.4547 49.0363C25.628 47.8629 25.628 45.9606 24.4547 44.7873C23.2814 43.614 21.3791 43.614 20.2058 44.7873Z" fill="white"/>
<path fill-rule="evenodd" clip-rule="evenodd" d="M16.9847 28.3239C15.4579 32.407 15.4151 36.897 16.8639 41.0085L20.035 39.8911C18.8545 36.5322 18.8877 32.8419 20.1345 29.5017L16.9847 28.3239Z" fill="white"/>
<path fill-rule="evenodd" clip-rule="evenodd" d="M26.307 26.7495C23.8477 29.2088 19.8603 29.2088 17.4011 26.7495C14.9418 24.2902 14.9418 20.3029 17.4011 17.8436C19.8603 15.3843 23.8477 15.3843 26.307 17.8436C28.7663 20.3029 28.7663 24.2902 26.307 26.7495ZM23.97 24.414C22.8002 25.5838 20.9035 25.5838 19.7337 24.414C18.5639 23.2442 18.5639 21.3475 19.7337 20.1777C20.9035 19.0079 22.8002 19.0079 23.97 20.1777C25.1398 21.3475 25.1398 23.2442 23.97 24.414Z" fill="white"/>
<path fill-rule="evenodd" clip-rule="evenodd" d="M52.2148 40.9571C53.7352 36.9118 53.7982 32.4629 52.3929 28.3761L49.2133 29.4695C50.3579 32.8072 50.3091 36.4635 49.067 39.774L52.2148 40.9571Z" fill="white"/>
<path fill-rule="evenodd" clip-rule="evenodd" d="M27.3029 17.4119C31.8113 15.4206 36.926 15.3018 41.5219 17.0816L40.3077 20.217C36.5593 18.7681 32.3528 18.8583 28.6615 20.4876L27.3029 17.4119Z" fill="white"/>
<path fill-rule="evenodd" clip-rule="evenodd" d="M42.424 17.8839C44.8906 15.4173 48.8897 15.4173 51.3563 17.8839C53.8228 20.3504 53.8228 24.3495 51.3563 26.8161C48.8897 29.2827 44.8906 29.2827 42.424 26.8161C39.9574 24.3495 39.9574 20.3504 42.424 17.8839ZM44.7668 20.2275C45.9401 19.0542 47.8424 19.0542 49.0156 20.2275C50.1889 21.4007 50.1889 23.303 49.0156 24.4763C47.8424 25.6496 45.9401 25.6496 44.7668 24.4763C43.5935 23.303 43.5935 21.4007 44.7668 20.2275Z" fill="white"/>
</svg>
