<svg width="56" height="52" viewBox="0 0 56 52" fill="none" xmlns="http://www.w3.org/2000/svg">
<path opacity="0.65" fill-rule="evenodd" clip-rule="evenodd" d="M31.4944 50.1275C39.7847 50.1275 46.5054 43.4068 46.5054 35.1165C46.5054 29.7258 43.6639 24.9988 39.397 22.3516C44.2607 24.8351 47.5909 29.8931 47.5909 35.7289C47.5909 44.0193 40.8702 50.74 32.5798 50.74C29.6801 50.74 26.9725 49.9178 24.6772 48.4939C26.7229 49.5384 29.0398 50.1275 31.4944 50.1275Z" fill="white"/>
<circle opacity="0.85" cx="30.8707" cy="34.7247" r="15.021" fill="#BABABA"/>
<path opacity="0.95" fill-rule="evenodd" clip-rule="evenodd" d="M26.5799 46.834C33.2678 49.2037 40.6105 45.7031 42.9802 39.0152C45.3498 32.3272 41.8492 24.9846 35.1613 22.6149C28.4734 20.2452 21.1307 23.7458 18.7611 30.4338C16.3914 37.1217 19.892 44.4643 26.5799 46.834ZM27.7423 36.4579C27.6242 36.1462 27.5413 35.757 27.4934 35.2902L26.7227 35.6918C26.7583 36.1286 26.8339 36.528 26.9493 36.8902C27.0755 37.2433 27.2315 37.5556 27.4172 37.827C27.6096 38.1008 27.825 38.3313 28.0633 38.5186C28.3125 38.6968 28.5758 38.8351 28.8532 38.9334C29.151 39.0389 29.4961 39.1291 29.8885 39.2039C30.285 39.2672 30.6841 39.248 31.0858 39.1462C31.4875 39.0443 31.8694 38.8263 32.2316 38.492C32.6006 38.1601 32.9064 37.6516 33.1492 36.9665C33.2746 36.6126 33.3263 36.2839 33.3043 35.9806C33.2931 35.6682 33.2353 35.3907 33.1308 35.148C33.0304 34.894 32.8969 34.6796 32.7303 34.5049C32.5637 34.3302 32.3985 34.1946 32.2346 34.098C32.3943 34.1417 32.575 34.1479 32.7765 34.1165C32.9889 34.0761 33.1964 33.9954 33.3992 33.8745C33.602 33.7536 33.7933 33.5901 33.973 33.3839C34.1527 33.1777 34.2971 32.9204 34.4064 32.6122C34.6006 32.0641 34.6798 31.5717 34.6441 31.135C34.6125 30.6869 34.5072 30.2962 34.3282 29.9629C34.1601 29.6206 33.9439 29.3384 33.6799 29.1163C33.4158 28.8942 33.1518 28.7364 32.8879 28.6429C32.5698 28.5302 32.2484 28.4484 31.9236 28.3976C31.5989 28.3468 31.2694 28.3522 30.9353 28.4137C30.6012 28.4752 30.2564 28.6101 29.9008 28.8182C29.556 29.0173 29.2012 29.3093 28.8364 29.694C28.8988 29.8189 28.9571 29.9553 29.0114 30.103L29.1864 30.512C29.6878 30.0214 30.1974 29.7008 30.7154 29.5502C31.2402 29.402 31.7259 29.4071 32.1726 29.5653C32.3553 29.6301 32.5705 29.732 32.8182 29.8712C33.066 30.0104 33.2854 30.1974 33.4764 30.4321C33.6715 30.6554 33.8071 30.9284 33.8832 31.2509C33.9594 31.5735 33.9206 31.9517 33.7669 32.3856C33.6334 32.7623 33.447 33.0304 33.2077 33.1898C32.9724 33.3378 32.7196 33.4281 32.449 33.4607C32.1785 33.4934 31.9173 33.478 31.6656 33.4145C31.4207 33.3534 31.2204 33.2953 31.0647 33.2401L30.7067 34.2506C30.815 34.2889 30.9483 34.3426 31.1067 34.4116C31.2691 34.4691 31.4322 34.5462 31.596 34.6428C31.7639 34.728 31.9203 34.8348 32.0652 34.9632C32.2209 35.0827 32.3442 35.2291 32.435 35.4027C32.5326 35.5786 32.5911 35.7793 32.6103 36.0045C32.6335 36.2184 32.5966 36.4623 32.4995 36.7363C32.3579 37.1359 32.1607 37.4452 31.908 37.6641C31.6661 37.8739 31.4051 38.0192 31.1252 38.0999C30.856 38.1716 30.5875 38.1985 30.3196 38.1807C30.0557 38.1515 29.8324 38.1045 29.6497 38.0398C29.3723 37.9415 29.111 37.8296 28.866 37.7042C28.6277 37.5813 28.4104 37.4207 28.214 37.2226C28.0284 37.0155 27.8712 36.7606 27.7423 36.4579ZM26.2881 37.1764C26.1345 36.6208 26.0472 35.9537 26.026 35.1751L28.0947 34.0768C28.1226 34.7935 28.2572 35.4131 28.4987 35.9356C28.7509 36.449 29.1037 36.7861 29.5571 36.9468L30.0545 37.123C30.2819 37.1907 30.516 37.2287 30.7568 37.2369C31.0044 37.2475 31.2357 37.2074 31.4507 37.1165C31.6766 37.0166 31.84 36.824 31.9412 36.5385C31.9938 36.3901 31.9855 36.2522 31.9163 36.1249C31.8472 35.9976 31.7395 35.8823 31.5933 35.7791C31.4579 35.6669 31.2974 35.5715 31.112 35.4929C30.9306 35.403 30.7519 35.3268 30.576 35.2644C30.4041 35.1907 30.245 35.1343 30.0989 35.0954L29.8146 34.9947L30.8402 32.1003L31.3071 32.2658C31.5372 32.3473 31.7835 32.4153 32.046 32.4698C32.3086 32.5243 32.5508 32.5394 32.7726 32.5152C33.0012 32.4934 33.1499 32.3854 33.2187 32.1913C33.2996 31.963 33.3 31.7575 33.22 31.575C33.14 31.3924 33.0261 31.23 32.8785 31.0877C32.7376 30.9478 32.5833 30.8353 32.4154 30.7501C32.2476 30.665 32.1196 30.6068 32.0317 30.5756C31.5106 30.391 30.9897 30.3992 30.4691 30.6002C29.9592 30.7923 29.4253 31.2135 28.8673 31.864L27.9698 29.6569C28.7629 28.7299 29.5895 28.0846 30.4495 27.7211C31.3095 27.3576 32.1185 27.3101 32.8765 27.5787C33.1269 27.6674 33.3773 27.7882 33.6278 27.9412C33.8823 28.0828 34.1159 28.262 34.3285 28.4787C34.552 28.6864 34.7444 28.928 34.9057 29.2037C35.0738 29.4817 35.1932 29.8003 35.264 30.1595C35.3348 30.5187 35.3481 30.9218 35.3039 31.3688C35.2706 31.8068 35.1609 32.2884 34.9748 32.8136C34.9101 32.9963 34.821 33.1832 34.7076 33.3743C34.605 33.5564 34.4889 33.7337 34.3592 33.9062C34.2335 34.0673 34.1004 34.2065 33.9599 34.3238C33.8261 34.4434 33.6997 34.5207 33.5806 34.5556C33.6593 34.6992 33.7244 34.87 33.7761 35.0682C33.8345 35.2689 33.8713 35.4875 33.8864 35.7242C33.9016 35.9609 33.8958 36.203 33.869 36.4505C33.8422 36.6981 33.7884 36.936 33.7075 37.1643C33.4607 37.8608 33.1482 38.4312 32.7699 38.8754C32.3956 39.3083 31.9975 39.6363 31.5757 39.8595C31.1538 40.0827 30.7251 40.2071 30.2895 40.2327C29.8607 40.2606 29.4703 40.2123 29.1184 40.0876C28.665 39.9269 28.2534 39.7233 27.8838 39.4766C27.5101 39.2414 27.1885 38.9347 26.9188 38.5564C26.6559 38.1805 26.4456 37.7205 26.2881 37.1764ZM28.6664 35.3011L28.3619 33.5161L25.7132 34.9294C25.7162 35.2003 25.728 35.4679 25.7486 35.7322C25.78 35.9875 25.8169 36.2705 25.8592 36.581C25.9123 36.8826 25.979 37.221 26.0592 37.5965C26.1395 37.9719 26.2388 38.4119 26.3571 38.9164C26.4632 39.4552 26.6112 39.9189 26.8011 40.3074C26.9869 40.7074 27.2085 41.0493 27.4659 41.3333C27.73 41.6197 28.0225 41.8582 28.3434 42.049C28.6643 42.2398 29.0142 42.4024 29.3932 42.5367C29.7721 42.6709 30.1936 42.7175 30.6576 42.6763C31.1176 42.6465 31.5747 42.5064 32.029 42.2562C32.486 42.0197 32.9165 41.6646 33.3205 41.1909C33.7285 40.7058 34.068 40.0808 34.3391 39.3158C34.4928 38.8819 34.5782 38.4367 34.5953 37.9801C34.6164 37.5121 34.5888 37.0847 34.5126 36.6978L34.4902 36.6321C34.7145 36.4288 34.9253 36.1887 35.1225 35.9116C35.3238 35.6231 35.4851 35.3075 35.6064 34.965C35.7076 34.6796 35.7884 34.3869 35.8489 34.0871C35.9203 33.7783 35.9618 33.446 35.9736 33.0904C35.9921 32.7371 35.9768 32.3397 35.9276 31.8982C35.8851 31.4591 35.8067 30.9494 35.6924 30.3691C35.6297 29.9228 35.5108 29.5273 35.3359 29.1826C35.165 28.8265 34.9556 28.5146 34.7077 28.2468C34.4666 27.9815 34.1992 27.7582 33.9054 27.577C33.6183 27.3982 33.3259 27.256 33.0282 27.1505C32.2229 26.8652 31.3435 26.9391 30.3902 27.3724C29.4369 27.8057 28.4975 28.5652 27.5721 29.6509L28.0372 31.724L29.1545 34.4716C29.2977 34.3039 29.4402 34.1488 29.5821 34.0063C29.7281 33.8524 29.8727 33.7237 30.016 33.6203L29.4091 35.3329L29.6987 36.515C29.4618 36.4311 29.2574 36.288 29.0853 36.0856C28.9173 35.8719 28.7777 35.6104 28.6664 35.3011Z" fill="white"/>
<path opacity="0.65" fill-rule="evenodd" clip-rule="evenodd" d="M16.634 36.4351C24.9244 36.4351 31.6451 29.7145 31.6451 21.4241C31.6451 16.0334 28.8035 11.3064 24.5366 8.65918C29.4003 11.1427 32.7305 16.2007 32.7305 22.0366C32.7305 30.3269 26.0099 37.0476 17.7195 37.0476C14.8198 37.0476 12.1121 36.2254 9.81689 34.8015C11.8626 35.846 14.1795 36.4351 16.634 36.4351Z" fill="white"/>
<circle opacity="0.85" cx="16.0098" cy="21.0313" r="15.021" fill="#BABABA"/>
<path opacity="0.95" fill-rule="evenodd" clip-rule="evenodd" d="M17.8827 33.7425C24.9023 32.7084 29.7544 26.1796 28.7203 19.16C27.6861 12.1405 21.1573 7.28833 14.1378 8.32247C7.11821 9.35661 2.26607 15.8854 3.30021 22.905C4.33435 29.9245 10.8632 34.7767 17.8827 33.7425ZM12.1133 16.8177C11.8632 17.1254 11.6468 17.4958 11.4644 17.929L12.2586 18.4722C12.513 17.8591 12.8642 17.3729 13.312 17.0135C13.7662 16.6419 14.2585 16.417 14.7887 16.3389C15.0378 16.3022 15.3223 16.2829 15.6421 16.2809C15.962 16.2789 16.2699 16.3351 16.5659 16.4495C16.8683 16.5517 17.1322 16.7272 17.3577 16.9761C17.5895 17.2128 17.7397 17.5631 17.808 18.0271C17.8959 18.6235 17.8607 19.193 17.7026 19.7354C17.5508 20.2656 17.3211 20.7678 17.0133 21.242C16.704 21.7052 16.3366 22.1373 15.9114 22.5385C15.4926 22.9275 15.056 23.2796 14.6017 23.5948C14.1538 23.8978 13.7131 24.1659 13.2795 24.399C12.8523 24.62 12.4717 24.7945 12.1376 24.9228L12.2719 25.834L19.8405 24.719L19.6916 23.7083L14.907 24.4132C15.3259 24.0806 15.7713 23.7047 16.2431 23.2853C16.7149 22.866 17.1368 22.3862 17.5087 21.8462C17.8887 21.3049 18.1785 20.7092 18.3783 20.0591C18.5844 19.3967 18.6281 18.6624 18.5093 17.856C18.4296 17.3148 18.2608 16.8657 18.003 16.5086C17.7451 16.1516 17.4425 15.8802 17.0949 15.6944C16.7538 15.4964 16.3903 15.3694 16.0045 15.3134C15.6266 15.2562 15.273 15.2519 14.9436 15.3004C14.582 15.3537 14.2294 15.4395 13.8856 15.5578C13.5499 15.675 13.2327 15.8346 12.9341 16.0366C12.6355 16.2386 12.3619 16.4989 12.1133 16.8177ZM13.5453 18.0118C13.1458 18.4205 12.8269 18.9866 12.5887 19.7101L10.556 18.2829C10.7239 17.7503 10.9432 17.2609 11.214 16.8148C11.4849 16.3686 11.7888 15.9796 12.1257 15.6478C12.4707 15.3149 12.8415 15.0458 13.2381 14.8407C13.6412 14.6233 14.0637 14.482 14.5056 14.4169C14.9555 14.3506 15.4313 14.3483 15.9329 14.4098C16.4409 14.4591 16.9138 14.6039 17.3514 14.8441C17.7971 15.0831 18.1859 15.4378 18.5178 15.908C18.8498 16.3782 19.0719 16.9944 19.1842 17.7566C19.2656 18.3089 19.2778 18.8375 19.2208 19.3425C19.1719 19.8462 19.0707 20.3295 18.9173 20.7922C18.7702 21.2428 18.5732 21.6611 18.3264 22.0473C18.0876 22.4324 17.8182 22.7768 17.5182 23.0805L20.2178 22.6828L20.6401 25.5492L11.7457 26.8595L11.3527 24.192C11.6451 24.1151 12.0033 23.9833 12.4273 23.7967C12.8513 23.6101 13.2889 23.3763 13.7401 23.0954C14.1912 22.8145 14.6367 22.495 15.0765 22.1368C15.5162 21.7786 15.8981 21.3894 16.222 20.9692C16.5524 20.5369 16.8055 20.082 16.9815 19.6047C17.1574 19.1273 17.2079 18.6346 17.1331 18.1265C17.094 17.8614 16.9876 17.6683 16.8138 17.5472C16.6383 17.415 16.4405 17.3257 16.2202 17.2791C16.0063 17.2204 15.7893 17.1959 15.5691 17.2058C15.3489 17.2156 15.1745 17.2301 15.046 17.249C14.4514 17.3366 13.9512 17.5908 13.5453 18.0118ZM10.9953 23.8553L11.5054 27.3181L12.9836 28.7424L22.4082 27.354L21.8785 23.7586L20.6056 22.4733C20.7703 21.9751 20.8826 21.4563 20.9428 20.917C21.0012 20.3667 20.9865 19.7933 20.8987 19.1969C20.8564 18.9097 20.7899 18.626 20.6994 18.3459C20.6169 18.0647 20.4918 17.7727 20.3241 17.4702C20.1564 17.1676 19.9364 16.8445 19.6642 16.5009C19.3999 16.1561 19.0649 15.7766 18.6591 15.3624C18.3837 15.0532 18.0754 14.7995 17.7343 14.6015C17.3932 14.4034 17.0345 14.2532 16.6582 14.1506C16.2883 14.0358 15.9136 13.9725 15.5343 13.9607C15.1533 13.9378 14.7901 13.9518 14.4446 14.0027C13.9786 14.0714 13.5296 14.2278 13.0976 14.472C12.6721 14.704 12.2749 15.0164 11.9059 15.4094C11.5353 15.7912 11.1993 16.2414 10.8981 16.7597C10.6049 17.2769 10.36 17.8434 10.1634 18.4592L11.6584 19.9149L14.1836 21.6758C14.4393 20.9046 14.7613 20.3042 15.1495 19.8745C15.5361 19.4339 16.0026 19.1733 16.549 19.0928L16.6574 19.0768C16.7056 19.0697 16.7547 19.0682 16.8045 19.0721C16.7168 19.48 16.5487 19.8715 16.3003 20.2467C16.0582 20.6097 15.7647 20.9576 15.4197 21.2906C15.0828 21.6224 14.7096 21.9313 14.3003 22.2173C13.8989 22.5021 13.4967 22.7532 13.0937 22.9706C12.6906 23.188 12.3036 23.3748 11.9326 23.531C11.5696 23.686 11.2572 23.7941 10.9953 23.8553Z" fill="white"/>
<path opacity="0.65" fill-rule="evenodd" clip-rule="evenodd" d="M39.5476 30.9834C47.838 30.9834 54.5586 24.2627 54.5586 15.9723C54.5586 10.5816 51.7171 5.85462 47.4502 3.2074C52.3139 5.6909 55.6441 10.7489 55.6441 16.5848C55.6441 24.8752 48.9234 31.5958 40.633 31.5958C37.7334 31.5958 35.0257 30.7737 32.7305 29.3497C34.7761 30.3942 37.0931 30.9834 39.5476 30.9834Z" fill="white"/>
<circle opacity="0.85" cx="38.9234" cy="15.5806" r="15.021" fill="#BABABA"/>
<path opacity="0.95" fill-rule="evenodd" clip-rule="evenodd" d="M32.7636 26.8536C38.9902 30.2556 46.7956 27.9658 50.1976 21.7392C53.5996 15.5126 51.3098 7.70712 45.0832 4.30516C38.8566 0.903199 31.0511 3.19301 27.6492 9.41959C24.2472 15.6462 26.537 23.4516 32.7636 26.8536ZM41.0598 9.27524L38.9562 9.10468L38.3247 10.2605L40.1298 10.4202L35.4257 19.03L36.4307 19.5791L41.8303 9.69623L41.0598 9.27524ZM38.4306 11.3406L36.6514 11.1733L38.3719 8.0242L41.4216 8.25484L43.2641 9.26155L36.8395 21.0205L33.9919 19.4647L38.4306 11.3406ZM41.5498 7.78116L38.0996 7.5274L35.8848 11.5811L36.6115 13.6747L33.3443 19.6546L34.1819 22.2221L37.7665 24.1806L44.5939 11.6846L43.9117 9.07158L41.5498 7.78116Z" fill="white"/>
</svg>
