<svg width="96" height="96" viewBox="0 0 96 96" fill="none" xmlns="http://www.w3.org/2000/svg">
<circle cx="48.0642" cy="48.4176" r="47.5" fill="white"/>
<path d="M66.3936 72.2427H28.136V24.5925H55.6117L66.3936 34.7326V72.2427Z" stroke="#231F20" stroke-width="2" stroke-miterlimit="10"/>
<path d="M59.0092 50.4298H32.2734V51.5473H59.0092V50.4298Z" fill="#231F20"/>
<path d="M59.0092 43.0456H32.2734V44.1631H59.0092V43.0456Z" fill="#231F20"/>
<path d="M59.0092 57.8141H32.2734V58.9315H59.0092V57.8141Z" fill="#231F20"/>
<path d="M59.0092 65.1983H32.2734V66.3158H59.0092V65.1983Z" fill="#231F20"/>
<path d="M55.6116 24.5926V34.7327H66.3935" stroke="#231F20" stroke-width="2" stroke-miterlimit="10"/>
<path d="M78.8668 45.658L79.6671 46.4886L61.5463 64.8661C61.5463 64.8661 60.6025 64.4131 60.8592 63.7864C61.1159 63.1597 78.8668 45.658 78.8668 45.658Z" fill="#231F20"/>
<path d="M82.6645 49.5087L81.8641 48.7537L63.4941 66.8745C63.4941 66.8745 63.9396 67.8183 64.5663 67.5616C65.193 67.3048 82.6645 49.5087 82.6645 49.5087Z" fill="#231F20"/>
<path d="M80.0218 46.8358L81.5318 48.3459L63.6753 66.2251C63.4471 66.3015 63.2007 66.3047 62.9706 66.2343C62.7405 66.1639 62.5381 66.0234 62.3917 65.8324C61.765 65.1454 62.1803 64.8358 62.1803 64.8358L80.0218 46.8358Z" fill="#231F20"/>
<path d="M84.113 48.2537L80.0608 44.2015L79.0517 45.2105L83.104 49.2628L84.113 48.2537Z" fill="#231F20"/>
<path d="M84.7145 41.092L87.1971 43.5746C87.4054 43.7771 87.5261 44.0532 87.533 44.3437C87.54 44.6342 87.4328 44.9159 87.2344 45.1282L84.6184 47.7442L80.5662 43.692L83.1822 41.076C83.3907 40.8811 83.6662 40.7741 83.9516 40.7771C84.2369 40.7801 84.5101 40.8928 84.7145 41.092V41.092Z" fill="#231F20"/>
<path d="M61.2062 69.0943L57.1592 71.1556L59.2204 67.101L61.2062 69.0943Z" fill="#231F20"/>
</svg>
