<svg width="92" height="89" viewBox="0 0 92 89" fill="none" xmlns="http://www.w3.org/2000/svg">
<path d="M39.5072 87.3853H108.371V1.61499H58.9146L39.5072 19.8672V87.3853Z" stroke="white" stroke-width="2" stroke-miterlimit="10"/>
<path d="M52.7987 48.1223H100.923V50.1337H52.7987V48.1223Z" fill="white"/>
<path d="M52.7987 34.8307H100.923V36.8421H52.7987V34.8307Z" fill="white"/>
<path d="M52.7987 61.4138H100.923V63.4252H52.7987V61.4138Z" fill="white"/>
<path d="M52.7987 74.7054H100.923V76.7169H52.7987V74.7054Z" fill="white"/>
<path d="M58.9147 1.61499V19.8672H39.5073" stroke="white" stroke-width="2" stroke-miterlimit="10"/>
<path d="M17.0552 39.5331L15.6146 41.028L48.232 74.1076C48.232 74.1076 49.9309 73.2922 49.4688 72.1641C49.0067 71.0361 17.0552 39.5331 17.0552 39.5331Z" fill="white"/>
<path d="M10.2195 46.464L11.6601 45.105L44.7261 77.7224C44.7261 77.7224 43.9242 79.4213 42.7962 78.9592C41.6682 78.4971 10.2195 46.464 10.2195 46.464Z" fill="white"/>
<path d="M14.9766 41.6531L12.2584 44.3712L44.4002 76.5538C44.811 76.6913 45.2544 76.6971 45.6686 76.5704C46.0828 76.4437 46.4471 76.1908 46.7106 75.8471C47.8387 74.6103 47.0912 74.0531 47.0912 74.0531L14.9766 41.6531Z" fill="white"/>
<path d="M7.612 44.2054L14.906 36.9114L16.7223 38.7277L9.4283 46.0217L7.612 44.2054Z" fill="white"/>
<path d="M6.52942 31.314L2.06077 35.7827C1.68572 36.1472 1.4686 36.6443 1.45602 37.1672C1.44344 37.6901 1.63642 38.197 1.9935 38.5792L6.7024 43.2881L13.9964 35.9941L9.28749 31.2852C8.9122 30.9345 8.41627 30.7419 7.90268 30.7473C7.38909 30.7526 6.89731 30.9556 6.52942 31.314Z" fill="white"/>
<path d="M48.8442 81.7184L56.1288 85.4286L52.4185 78.1305L48.8442 81.7184Z" fill="white"/>
</svg>
