<svg width="96" height="96" viewBox="0 0 96 96" fill="none" xmlns="http://www.w3.org/2000/svg">
<circle cx="48.3013" cy="48.4176" r="47.5" fill="white"/>
<path d="M49.3873 14.1003C46.1637 13.9182 42.936 14.3895 39.9253 15.4819C36.9145 16.5744 34.1917 18.2622 31.9431 20.4298C29.6946 22.5974 27.9735 25.1937 26.8975 28.0409C25.8216 30.8882 25.4162 33.9192 25.7091 36.9265C26.7609 49.8665 32.7392 46.9032 34.732 56.2201C36.7248 65.5369 35.6731 66.1968 39.6586 68.2155H57.0679C57.0679 68.2155 59.3513 68.0602 60.3477 64.217C61.3441 60.3738 60.3477 57.2553 62.3958 54.4085C64.444 51.5617 68.6094 47.6667 70.6991 38.3499C72.7888 29.0331 63.2261 14.7861 49.3873 14.1003ZM67.6822 38.3887C65.8417 46.8644 62.1467 50.3971 60.4584 52.9851C58.77 55.5731 59.545 58.4069 58.6732 61.9007C57.8013 65.3945 55.8362 65.5369 55.8362 65.5369H40.7381C37.2784 63.6865 38.2056 63.0912 36.4757 54.6284C34.7459 46.1657 29.5563 48.8572 28.643 37.0947C27.7296 25.3322 37.1815 15.7825 49.1659 16.3777C61.1503 16.973 69.509 29.9259 67.6822 38.3887Z" fill="#231F20"/>
<path d="M56.4728 69.7036H39.2435C38.6932 69.7036 38.2471 70.1207 38.2471 70.6353V71.8387C38.2471 72.3533 38.6932 72.7704 39.2435 72.7704H56.4728C57.0231 72.7704 57.4692 72.3533 57.4692 71.8387V70.6353C57.4692 70.1207 57.0231 69.7036 56.4728 69.7036Z" fill="#231F20"/>
<path d="M55.8088 74.5562H39.908C39.3577 74.5562 38.9116 74.9733 38.9116 75.4878V76.4713C38.9116 76.9858 39.3577 77.403 39.908 77.403H55.8088C56.3591 77.403 56.8052 76.9858 56.8052 76.4713V75.4878C56.8052 74.9733 56.3591 74.5562 55.8088 74.5562Z" fill="#231F20"/>
<path d="M41.333 79.525H54.7013C54.5983 79.8081 54.4152 80.0598 54.1716 80.2534C53.9279 80.4471 53.6328 80.5755 53.3174 80.6249C52.8151 80.7201 52.2975 80.7201 51.7952 80.6249C51.7952 80.6249 52.0304 82.773 50.9371 82.773H44.8896C44.8896 82.773 44.1561 82.1907 44.0731 81.8283C43.9901 81.466 43.8793 80.5343 43.8793 80.5343C43.3953 80.6497 42.8841 80.6135 42.4242 80.4312C41.9642 80.2489 41.5809 79.9305 41.333 79.525Z" fill="#231F20"/>
</svg>
