<svg width="55" height="125" viewBox="0 0 55 125" fill="none" xmlns="http://www.w3.org/2000/svg">
<path d="M15.4554 0.72869C9.6528 0.40095 3.84302 1.24931 -1.57639 3.2157C-6.99579 5.18209 -11.8969 8.2201 -15.9442 12.1218C-19.9915 16.0235 -23.0896 20.6968 -25.0263 25.8218C-26.963 30.9469 -27.6927 36.4027 -27.1654 41.8159C-25.2723 65.1079 -14.5112 59.774 -10.9242 76.5443C-7.33717 93.3146 -9.23032 94.5025 -2.05628 98.136H29.2803C29.2803 98.136 33.3905 97.8565 35.184 90.9388C36.9775 84.0211 35.184 78.4077 38.8706 73.2834C42.5573 68.1592 50.0552 61.1483 53.8165 44.378C57.5779 27.6077 40.3652 1.96317 15.4554 0.72869ZM48.3862 44.4479C45.0732 59.7042 38.4222 66.0629 35.3832 70.7213C32.3442 75.3797 33.7392 80.4807 32.1699 86.7695C30.6006 93.0584 27.0634 93.3146 27.0634 93.3146H-0.113312C-6.34078 89.9838 -4.67182 88.9124 -7.78555 73.6794C-10.8993 58.4464 -20.2405 63.2911 -21.8845 42.1187C-23.5286 20.9462 -6.51515 3.75666 15.0568 4.82809C36.6287 5.89953 51.6743 29.2149 48.3862 44.4479Z" fill="white"/>
<path d="M28.2094 100.814H-2.80341C-3.79394 100.814 -4.59692 101.565 -4.59692 102.491V104.658C-4.59692 105.584 -3.79394 106.335 -2.80341 106.335H28.2094C29.1999 106.335 30.0029 105.584 30.0029 104.658V102.491C30.0029 101.565 29.1999 100.814 28.2094 100.814Z" fill="white"/>
<path d="M27.0138 109.549H-1.60761C-2.59814 109.549 -3.40112 110.3 -3.40112 111.226V112.996C-3.40112 113.922 -2.59814 114.673 -1.60761 114.673H27.0138C28.0043 114.673 28.8073 113.922 28.8073 112.996V111.226C28.8073 110.3 28.0043 109.549 27.0138 109.549Z" fill="white"/>
<path d="M0.958252 118.493H25.0212C24.8358 119.003 24.5063 119.456 24.0677 119.804C23.6291 120.153 23.0979 120.384 22.5302 120.473C21.626 120.644 20.6943 120.644 19.7901 120.473C19.7901 120.473 20.2136 124.339 18.2457 124.339H7.36009C7.36009 124.339 6.03986 123.291 5.8904 122.639C5.74094 121.987 5.54167 120.31 5.54167 120.31C4.67034 120.518 3.75021 120.452 2.92234 120.124C2.09446 119.796 1.40451 119.223 0.958252 118.493Z" fill="white"/>
</svg>
