<svg width="821" height="879" viewBox="0 0 821 879" fill="none" xmlns="http://www.w3.org/2000/svg">
<path d="M289.664 790.04L264.391 634.622L396.17 700.352L289.664 790.04Z" stroke="white" stroke-width="4"/>
<path d="M395.735 703.866L426.486 587.908L535.873 648.392L395.735 703.866Z" stroke="#85C1C7" stroke-width="4"/>
<path d="M277.784 639.439L426.486 587.908L378.197 448.983L585.668 504.753L423.85 585.935L172.279 537.458L377.536 447.667L159.206 196.287L172.94 538.774L241.864 416.852L376.881 449.643L341.774 320.583L306.667 191.523L156.569 194.314L240.543 414.219" stroke="white" stroke-width="4"/>
<path d="M712.708 492.106L591.591 503.429L537.189 647.732L541.272 728.083" stroke="white" stroke-width="4"/>
<path d="M580.395 500.806L428.762 372.527L378.186 442.397" stroke="#85C1C7" stroke-width="4"/>
<path d="M309.304 193.497L430.727 366.597L465.408 238.783L309.304 193.497Z" stroke="white" stroke-width="4"/>
<path d="M431.394 371.207L683.551 378.19L588.299 503.433" stroke="#85C1C7" stroke-width="4"/>
<path d="M466.718 234.83L626.266 372.322L651.901 347.925L685.522 375.553" stroke="white" stroke-width="4"/>
<path d="M645.972 345.955L469.349 233.51L531.772 160.993" stroke="white" stroke-width="4"/>
<path d="M437.3 360.004L395.632 244.125L470.681 242.73" stroke="#85C1C7" stroke-width="4"/>
<path d="M310.625 196.13L397.614 248.075L373.075 140.08" stroke="white" stroke-width="4"/>
<path d="M303.112 786.559C299.126 778.615 289.46 775.403 281.522 779.386C273.584 783.368 270.38 793.036 274.366 800.98C278.351 808.924 288.017 812.136 295.955 808.154C303.893 804.171 307.097 794.503 303.112 786.559Z" fill="#B2FAFF" stroke="white" stroke-width="2"/>
<path d="M417.63 697.825C411.378 685.365 396.217 680.328 383.767 686.574C371.316 692.82 366.29 707.985 372.542 720.445C378.793 732.906 393.954 737.943 406.404 731.697C418.855 725.45 423.881 710.286 417.63 697.825Z" fill="white" stroke="white" stroke-width="5"/>
<path d="M283.322 632.985C279.456 625.279 270.079 622.163 262.379 626.026C254.678 629.89 251.57 639.269 255.436 646.976C259.302 654.682 268.679 657.798 276.38 653.934C284.08 650.071 287.189 640.692 283.322 632.985Z" fill="#85C8D3" stroke="white" stroke-width="2"/>
<path d="M443.112 581.218C436.861 568.758 421.7 563.72 409.249 569.967C396.798 576.213 391.773 591.378 398.024 603.838C404.275 616.298 419.436 621.336 431.887 615.089C444.337 608.843 449.363 593.678 443.112 581.218Z" fill="#B2FAFF" stroke="white" stroke-width="5"/>
<path d="M559.081 641.693C552.83 629.233 537.669 624.195 525.218 630.442C512.767 636.688 507.742 651.853 513.993 664.313C520.244 676.773 535.405 681.811 547.856 675.564C560.306 669.318 565.332 654.153 559.081 641.693Z" fill="white" stroke="white" stroke-width="5"/>
<path d="M557.999 737.629C553.895 729.447 543.94 726.139 535.765 730.241C527.59 734.342 524.29 744.3 528.394 752.481C532.499 760.663 542.454 763.97 550.629 759.869C558.804 755.767 562.104 745.81 557.999 737.629Z" fill="#85C8D3" stroke="white" stroke-width="2"/>
<path d="M741.984 486.768C737.044 476.922 725.064 472.942 715.226 477.878C705.387 482.813 701.416 494.796 706.356 504.642C711.295 514.488 723.275 518.469 733.114 513.533C742.952 508.597 746.923 496.614 741.984 486.768Z" fill="#B2FAFF" stroke="white" stroke-width="2"/>
<path d="M601.51 493.808C597.048 484.915 586.228 481.32 577.342 485.778C568.457 490.236 564.87 501.059 569.331 509.951C573.792 518.844 584.613 522.439 593.499 517.981C602.384 513.523 605.971 502.7 601.51 493.808Z" fill="white" stroke="white" stroke-width="5"/>
<path d="M394.819 438.999C388.567 426.538 373.407 421.501 360.956 427.747C348.505 433.994 343.479 449.159 349.731 461.619C355.982 474.079 371.143 479.117 383.593 472.87C396.044 466.624 401.07 451.459 394.819 438.999Z" fill="#85C8D3" stroke="white" stroke-width="5"/>
<path d="M188.857 529.143C184.513 520.486 173.979 516.986 165.329 521.326C156.678 525.666 153.186 536.203 157.529 544.86C161.873 553.518 172.406 557.018 181.057 552.678C189.708 548.338 193.2 537.801 188.857 529.143Z" fill="#85C8D3" stroke="white" stroke-width="2"/>
<path d="M253.115 404.619C248.533 395.486 237.421 391.794 228.296 396.372C219.17 400.95 215.487 412.065 220.068 421.197C224.65 430.33 235.762 434.022 244.887 429.444C254.013 424.866 257.696 413.751 253.115 404.619Z" fill="white" stroke="white" stroke-width="2"/>
<path d="M173.738 187.446C169.515 179.027 159.271 175.624 150.859 179.844C142.446 184.065 139.05 194.311 143.274 202.73C147.498 211.149 157.742 214.552 166.154 210.332C174.566 206.112 177.962 195.865 173.738 187.446Z" fill="#B2FAFF" stroke="white" stroke-width="5"/>
<path d="M325.124 188.351C320.781 179.693 310.247 176.193 301.596 180.533C292.945 184.873 289.453 195.41 293.797 204.068C298.14 212.725 308.674 216.225 317.325 211.885C325.976 207.545 329.468 197.009 325.124 188.351Z" fill="white" stroke="white" stroke-width="5"/>
<path d="M410.581 234.98C406.219 226.285 395.639 222.77 386.951 227.128C378.262 231.487 374.755 242.07 379.118 250.765C383.48 259.46 394.059 262.975 402.748 258.616C411.436 254.257 414.943 243.675 410.581 234.98Z" fill="#85C8D3" stroke="white" stroke-width="5"/>
<path d="M381.635 136.689C377.87 129.183 368.737 126.149 361.238 129.912C353.738 133.674 350.711 142.809 354.476 150.314C358.242 157.82 367.374 160.854 374.873 157.091C382.373 153.329 385.4 144.194 381.635 136.689Z" fill="#85C8D3" stroke="white" stroke-width="2"/>
<path d="M451.771 354.989C447.011 345.501 435.467 341.665 425.986 346.422C416.505 351.178 412.678 362.726 417.438 372.214C422.198 381.702 433.743 385.538 443.224 380.781C452.704 376.025 456.531 364.477 451.771 354.989Z" fill="white" stroke="white" stroke-width="5"/>
<path d="M641.698 365.926C636.938 356.438 625.394 352.602 615.913 357.359C606.432 362.115 602.605 373.662 607.366 383.151C612.126 392.639 623.67 396.474 633.151 391.718C642.632 386.962 646.459 375.414 641.698 365.926Z" fill="white" stroke="white" stroke-width="5"/>
<path d="M693.779 372.158C691.405 367.427 685.649 365.514 680.922 367.886C676.194 370.258 674.286 376.015 676.66 380.746C679.033 385.477 684.789 387.39 689.517 385.018C694.244 382.647 696.152 376.889 693.779 372.158Z" fill="white" stroke="white" stroke-width="5"/>
<path d="M663.803 341.047C660.137 333.74 651.245 330.785 643.943 334.449C636.641 338.112 633.694 347.006 637.36 354.314C641.026 361.622 649.918 364.576 657.22 360.912C664.522 357.249 667.47 348.355 663.803 341.047Z" fill="#85C8D3" stroke="white" stroke-width="2"/>
<path d="M487.961 234.061C481.71 221.6 466.549 216.563 454.098 222.809C441.647 229.056 436.622 244.22 442.873 256.681C449.124 269.141 464.285 274.179 476.736 267.932C489.186 261.686 494.212 246.521 487.961 234.061Z" fill="#B2FAFF" stroke="white" stroke-width="5"/>
<path d="M539.315 157.361C535.351 149.459 525.736 146.264 517.84 150.226C509.944 154.187 506.757 163.804 510.722 171.706C514.686 179.608 524.301 182.803 532.196 178.841C540.092 174.88 543.28 165.263 539.315 157.361Z" fill="white" stroke="white" stroke-width="2"/>
</svg>
