<svg width="96" height="96" viewBox="0 0 96 96" fill="none" xmlns="http://www.w3.org/2000/svg">
<circle cx="48.0391" cy="47.6676" r="47.5" fill="white"/>
<g clip-path="url(#clip0_434_1278)">
<path d="M49.7256 45.766C47.9212 42.8702 45.1512 39.009 42.3226 37.4887C39.4941 35.9684 37.6897 37.7252 37.6897 37.7252L20.7185 56.4276C19.4311 57.8466 19.8748 62.2627 22.5863 65.0186C23.708 66.1577 25.8879 66.4231 28.5311 66.2783L35.7926 75.5161C36.0449 75.8612 36.4247 76.0938 36.8493 76.1633C37.2739 76.2329 37.7091 76.1339 38.0603 75.8877L42.5811 72.7216C42.7644 72.5922 42.9189 72.427 43.035 72.2361C43.1511 72.0453 43.2263 71.8328 43.256 71.612C43.2858 71.3912 43.2693 71.1667 43.2078 70.9524C43.1462 70.7381 43.0408 70.5386 42.8981 70.3663L38.2993 64.8449C39.1771 64.6904 40.0452 64.5408 40.8791 64.4105C47.7066 63.3342 53.3393 62.4413 53.9391 58.4499C54.539 54.4584 51.53 48.686 49.7256 45.766ZM40.0939 69.3238C40.2188 69.4977 40.3077 69.6942 40.3557 69.9022C40.4036 70.1101 40.4097 70.3254 40.3734 70.5357C40.3372 70.746 40.2594 70.9471 40.1445 71.1275C40.0296 71.308 39.8798 71.4643 39.7038 71.5874L38.0701 72.7409C37.8944 72.8644 37.6958 72.9524 37.4857 72.9999C37.2755 73.0474 37.058 73.0533 36.8455 73.0175C36.6331 72.9816 36.4299 72.9046 36.2475 72.7909C36.0652 72.6772 35.9073 72.529 35.7829 72.3548L32.6813 68.011C32.4317 67.6611 32.3322 67.2277 32.4044 66.8054C32.4765 66.3831 32.7146 66.0063 33.0665 65.7571C34.3784 65.5543 35.7195 65.3179 37.046 65.0765L40.0939 69.3238ZM35.0465 62.3207C31.0768 62.9481 25.9513 64.2512 24.3712 62.6682C22.7912 61.0851 22.5278 58.4933 23.2837 57.6632L33.1933 46.7506L36.3778 43.1453C36.3778 43.1453 38.4505 49.9023 39.5039 51.5819C40.5572 53.2615 46.307 59.7868 46.307 59.7868C46.307 59.7868 39.0162 61.698 35.0465 62.3207ZM39.9769 47.0161L41.1815 47.3153C41.1815 47.3153 43.2248 49.2459 43.8881 50.4139C44.5513 51.5819 45.0926 55.472 45.0926 55.472C45.0926 55.472 43.1078 52.914 42.1666 51.5819C41.2254 50.2498 39.9769 47.0161 39.9769 47.0161ZM50.7058 60.0474C50.1645 60.53 47.6334 58.6767 47.336 57.9624C47.0385 57.2481 47.336 55.6361 47.336 53.2711C47.336 50.9062 45.8729 49.1445 44.327 46.9968C42.7811 44.849 39.1479 44.376 39.1479 44.376C38.8191 43.6518 38.5769 42.8922 38.4261 42.1124C38.4735 41.2265 38.6157 40.348 38.8504 39.4917H40.3524C41.8593 39.4917 43.1809 40.9831 44.9268 42.7109C46.6727 44.4388 49.3793 49.5596 50.7058 52.8464C52.0323 56.1332 51.2374 59.5841 50.6912 60.0619L50.7058 60.0474Z" fill="#231F20"/>
<path d="M50.5302 27.0637C50.5302 27.0637 57.1577 28.9942 61.2591 34.0909C65.3604 39.1876 67.1112 42.8702 67.3551 47.0885C67.5989 51.3068 67.8817 54.3281 65.892 54.4005C63.9023 54.4729 65.6287 48.4061 63.7706 44.0575C61.9126 39.7089 60.4398 36.1277 56.0653 33.3187C51.6909 30.5097 51.4519 30.9055 48.9306 30.1719C46.4093 29.4383 44.0538 28.1689 45.5169 27.3774C46.9799 26.5858 50.5302 27.0637 50.5302 27.0637Z" fill="#231F20"/>
<path d="M53.2756 19.6502C53.2756 19.6502 63.2096 23.3135 67.7157 28.4391C73.4118 34.9162 75.4357 39.9743 75.7868 45.5102C76.1379 51.0461 76.4891 55.0327 73.8361 55.1148C71.1831 55.1968 73.485 47.238 71.0271 41.5284C68.5692 35.8187 67.5207 31.084 61.7612 26.9237C56.1968 22.9129 55.1678 23.299 51.8321 22.3289C48.4964 21.3588 44.9607 20.659 46.8919 19.6213C48.8231 18.5836 53.2756 19.6502 53.2756 19.6502Z" fill="#231F20"/>
<path d="M48.589 34.9693C48.589 34.9693 52.8465 36.2097 55.4799 39.482C58.1134 42.7543 59.2253 45.1241 59.3813 47.8317C59.5374 50.5393 59.7227 52.4844 58.445 52.5278C57.1673 52.5713 58.2743 48.6667 57.0844 45.8818C55.8945 43.097 54.9581 40.79 52.1491 38.9849C49.3401 37.1798 49.184 37.4404 47.5698 36.9674C45.9556 36.4945 44.4438 35.6788 45.385 35.172C46.3262 34.6652 48.589 34.9693 48.589 34.9693Z" fill="#231F20"/>
</g>
<defs>
<clipPath id="clip0_434_1278">
<rect width="56" height="57" fill="white" transform="translate(20.0259 19.1676)"/>
</clipPath>
</defs>
</svg>
