<svg width="85" height="127" viewBox="0 0 85 127" fill="none" xmlns="http://www.w3.org/2000/svg">
<g clip-path="url(#clip0_21_291)">
<path d="M62.4454 58.5911C59.6668 53.1934 55.3353 45.957 50.6384 42.9195C45.9414 39.882 42.6369 42.8425 42.6369 42.8425L11.3101 74.6021C8.93354 77.0118 9.19822 84.9933 13.554 90.2378C15.356 92.4055 19.0783 93.1185 23.6444 93.1446L34.4367 107.679C34.832 108.327 35.4594 108.786 36.1824 108.957C36.9054 109.128 37.6657 108.997 38.2981 108.593L44.6211 104.715C44.9512 104.503 45.2358 104.223 45.4572 103.892C45.6786 103.562 45.8322 103.188 45.9083 102.795C45.9844 102.401 45.9815 101.996 45.8997 101.605C45.818 101.213 45.6591 100.843 45.433 100.518L40.6205 91.6276C42.149 91.4452 43.6601 91.2704 45.1103 91.1267C56.9842 89.9327 66.7807 88.9387 68.2644 81.8333C69.7481 74.7278 65.2213 64.0321 62.4454 58.5911ZM43.2034 99.8681C43.3986 100.194 43.5295 100.557 43.5885 100.935C43.6476 101.314 43.6336 101.702 43.5474 102.075C43.4613 102.449 43.3046 102.802 43.0865 103.114C42.8683 103.426 42.5928 103.69 42.2759 103.892L39.3334 105.788C39.017 105.99 38.6652 106.127 38.2981 106.19C37.9311 106.252 37.556 106.239 37.1943 106.152C36.8327 106.064 36.4916 105.904 36.1905 105.68C35.8895 105.456 35.6345 105.173 35.4401 104.846L30.5922 96.7068C30.2023 96.0512 30.0799 95.2619 30.2519 94.5111C30.4239 93.7603 30.8762 93.1091 31.5102 92.6995C33.7912 92.4774 36.1264 92.1978 38.437 91.908L43.2034 99.8681ZM35.3068 86.7406C28.4028 87.4378 19.4329 89.2236 16.8921 86.2086C14.3512 83.1936 14.1909 78.509 15.5859 77.0996L33.877 58.5692L39.7661 52.4373C39.7661 52.4373 42.5699 64.8004 44.1932 67.9318C45.8166 71.0632 54.976 83.4083 54.976 83.4083C54.976 83.4083 42.2102 86.0521 35.3068 86.7406ZM45.5236 59.7808L47.5632 60.4488C47.5632 60.4488 50.8623 64.1383 51.8719 66.3084C52.8815 68.4785 53.3735 75.5255 53.3735 75.5255C53.3735 75.5255 50.2462 70.7152 48.7766 68.2202C47.3071 65.7252 45.5236 59.7808 45.5236 59.7808ZM62.5183 84.353C61.532 85.1614 57.3848 81.5578 56.9535 80.2424C56.5221 78.9269 57.2164 76.0632 57.4838 71.8147C57.7511 67.5662 55.4319 64.2431 53.0137 60.2173C50.5954 56.1915 44.395 54.9483 44.395 54.9483C43.9111 53.6117 43.58 52.2208 43.4085 50.8037C43.5903 49.2172 43.9344 47.6545 44.4351 46.1416L47.0206 46.3043C49.6145 46.4675 51.7208 49.2898 54.5307 52.5829C57.3405 55.8761 61.4206 65.3685 63.3323 71.4167C65.2441 77.465 63.4857 83.5782 62.4915 84.3774L62.5183 84.353Z" fill="white"/>
<path d="M71.9027 28.5303C71.9027 28.5303 81.8938 35.0811 86.1005 45.8748C90.3071 56.6685 91.3397 63.8789 89.6069 71.2834C87.874 78.6879 86.812 84.0439 83.4823 83.2034C80.1525 82.3629 86.0823 72.7216 85.2095 64.3086C84.3368 55.8957 83.713 48.9953 77.8957 42.0206C72.0784 35.0459 71.4825 35.6135 67.6812 33.1228C63.8799 30.6321 60.6244 27.2966 63.4466 26.6393C66.2689 25.9821 71.9027 28.5303 71.9027 28.5303Z" fill="white"/>
<path d="M80.2009 17.0576C80.2009 17.0576 94.7868 28.2058 99.6487 39.2459C105.796 53.1978 106.583 62.9166 104.361 72.6491C102.138 82.3816 100.7 89.438 96.2681 88.2923C91.8358 87.1466 99.6762 74.5166 98.4999 63.4616C97.3237 52.4067 97.9863 43.7197 90.5612 33.7386C83.3832 24.1107 81.4846 24.2783 76.4552 20.9839C71.4258 17.6895 65.9286 14.7649 69.6503 13.9097C73.3721 13.0545 80.2009 17.0576 80.2009 17.0576Z" fill="white"/>
<path d="M64.6864 41.2437C64.6864 41.2437 71.1044 45.4522 73.8056 52.3824C76.5068 59.3125 77.1468 63.9453 76.0338 68.6979C74.9208 73.4505 74.2424 76.9 72.1058 76.355C69.9691 75.81 73.7788 69.6029 73.2198 64.2153C72.6608 58.8276 72.2795 54.3884 68.5447 49.9073C64.8098 45.4263 64.4196 45.8007 61.9875 44.2004C59.5555 42.6001 57.4665 40.4576 59.2809 40.039C61.0953 39.6204 64.6864 41.2437 64.6864 41.2437Z" fill="white"/>
</g>
<defs>
<clipPath id="clip0_21_291">
<rect width="96.584" height="102.6" fill="white" transform="translate(28.994 0.684937) rotate(16.3417)"/>
</clipPath>
</defs>
</svg>
