<svg width="58" height="50" viewBox="0 0 58 50" fill="none" xmlns="http://www.w3.org/2000/svg">
<path opacity="0.65" fill-rule="evenodd" clip-rule="evenodd" d="M38.5663 36.5225C48.4511 36.5225 56.4642 28.5094 56.4642 18.6246C56.4642 12.2003 53.0794 6.56645 47.9958 3.4093C53.7905 6.37188 57.7575 12.4003 57.7575 19.3552C57.7575 29.2399 49.7444 37.2531 39.8596 37.2531C36.3993 37.2531 33.1683 36.2711 30.4302 34.5706C32.8712 35.8186 35.6366 36.5225 38.5663 36.5225Z" fill="white"/>
<circle opacity="0.85" cx="37.8229" cy="18.1588" r="17.9098" fill="#BABABA"/>
<path opacity="0.95" fill-rule="evenodd" clip-rule="evenodd" d="M30.4774 31.599C37.9014 35.6552 47.208 32.925 51.2642 25.501C55.3204 18.077 52.5902 8.77041 45.1662 4.71421C37.7421 0.658012 28.4356 3.38818 24.3794 10.8122C20.3232 18.2362 23.0533 27.5428 30.4774 31.599ZM40.3692 10.6396L37.861 10.4362L37.1081 11.8143L39.2603 12.0047L33.6516 22.2703L34.8499 22.925L41.288 11.1415L40.3692 10.6396ZM37.2344 13.1021L35.113 12.9027L37.1645 9.14794L40.8006 9.42293L42.9975 10.6232L35.3373 24.6436L31.9421 22.7886L37.2344 13.1021ZM40.9535 8.85816L36.8398 8.55559L34.1991 13.3888L35.0655 15.8851L31.17 23.0151L32.1686 26.0763L36.4426 28.4114L44.5829 13.5123L43.7696 10.3967L40.9535 8.85816Z" fill="white"/>
<path opacity="0.65" fill-rule="evenodd" clip-rule="evenodd" d="M19.637 48.644C29.7729 48.644 37.9897 40.4272 37.9897 30.2913C37.9897 23.6994 34.5143 17.9192 29.2959 14.683C35.2437 17.7189 39.3163 23.9036 39.3163 31.0396C39.3163 41.1755 31.0995 49.3922 20.9636 49.3922C17.4196 49.3922 14.1102 48.3877 11.3047 46.6479C13.8052 47.9242 16.637 48.644 19.637 48.644Z" fill="white"/>
<circle opacity="0.85" cx="18.8737" cy="29.8133" r="18.3649" fill="#BABABA"/>
<path opacity="0.95" fill-rule="evenodd" clip-rule="evenodd" d="M21.1625 45.3534C29.7447 44.0891 35.677 36.1068 34.4126 27.5247C33.1483 18.9425 25.1661 13.0102 16.5839 14.2745C8.00168 15.5389 2.06939 23.5211 3.33375 32.1033C4.5981 40.6855 12.5803 46.6178 21.1625 45.3534ZM14.1094 24.6584C13.8035 25.0346 13.539 25.4875 13.3159 26.0171L14.2869 26.6812C14.5981 25.9317 15.0274 25.3372 15.5749 24.8978C16.1302 24.4435 16.732 24.1686 17.3803 24.073C17.6849 24.0282 18.0327 24.0045 18.4237 24.0021C18.8148 23.9997 19.1913 24.0684 19.5531 24.2083C19.9228 24.3332 20.2455 24.5478 20.5211 24.8521C20.8046 25.1415 20.9882 25.5698 21.0717 26.137C21.1792 26.8663 21.1362 27.5625 20.9429 28.2257C20.7573 28.8739 20.4764 29.4879 20.1002 30.0676C19.7219 30.6339 19.2728 31.1623 18.7529 31.6528C18.2409 32.1284 17.7071 32.5588 17.1517 32.9442C16.6041 33.3147 16.0652 33.6424 15.5351 33.9275C15.0129 34.1976 14.5475 34.411 14.1391 34.5678L14.3032 35.6819L23.5567 34.3187L23.3747 33.083L17.5249 33.9448C18.0371 33.5382 18.5816 33.0785 19.1584 32.5658C19.7353 32.0531 20.2511 31.4666 20.7058 30.8063C21.1703 30.1445 21.5247 29.4162 21.7689 28.6214C22.021 27.8116 22.0744 26.9137 21.9292 25.9279C21.8317 25.2662 21.6253 24.7171 21.3101 24.2806C20.9949 23.8441 20.6248 23.5123 20.1999 23.2851C19.7829 23.043 19.3385 22.8877 18.8667 22.8192C18.4048 22.7493 17.9724 22.744 17.5697 22.8033C17.1276 22.8685 16.6964 22.9734 16.2762 23.1181C15.8657 23.2613 15.4779 23.4565 15.1128 23.7034C14.7478 23.9504 14.4133 24.2687 14.1094 24.6584ZM15.86 26.1183C15.3716 26.618 14.9818 27.3101 14.6906 28.1947L12.2054 26.4498C12.4106 25.7986 12.6787 25.2003 13.0099 24.6548C13.341 24.1093 13.7125 23.6337 14.1245 23.2281C14.5463 22.821 14.9996 22.4921 15.4846 22.2413C15.9774 21.9755 16.4939 21.8028 17.0342 21.7232C17.5843 21.6422 18.166 21.6393 18.7792 21.7145C19.4003 21.7748 19.9784 21.9518 20.5135 22.2455C21.0584 22.5377 21.5337 22.9713 21.9396 23.5462C22.3455 24.1211 22.617 24.8745 22.7543 25.8063C22.8538 26.4816 22.8687 27.1279 22.7991 27.7452C22.7393 28.3611 22.6155 28.952 22.4279 29.5177C22.2481 30.0685 22.0073 30.58 21.7055 31.0522C21.4136 31.523 21.0842 31.944 20.7174 32.3154L24.018 31.8292L24.5343 35.3337L13.6599 36.9357L13.1794 33.6743C13.5369 33.5802 13.9749 33.4191 14.4932 33.191C15.0116 32.9629 15.5466 32.6771 16.0982 32.3336C16.6498 31.9902 17.1945 31.5995 17.7321 31.1616C18.2698 30.7236 18.7367 30.2478 19.1327 29.7341C19.5366 29.2055 19.8461 28.6494 20.0612 28.0658C20.2763 27.4822 20.3381 26.8798 20.2466 26.2586C20.1988 25.9345 20.0687 25.6984 19.8562 25.5503C19.6417 25.3887 19.3998 25.2795 19.1304 25.2226C18.869 25.1507 18.6036 25.1208 18.3344 25.1329C18.0652 25.145 17.852 25.1626 17.6948 25.1857C16.9679 25.2928 16.3563 25.6037 15.86 26.1183ZM12.7424 33.2627L13.3661 37.4964L15.1733 39.2377L26.696 37.5402L26.0484 33.1444L24.4921 31.5731C24.6934 30.9639 24.8308 30.3296 24.9043 29.6703C24.9758 28.9975 24.9578 28.2965 24.8504 27.5672C24.7987 27.2161 24.7175 26.8693 24.6068 26.5269C24.506 26.183 24.353 25.8261 24.148 25.4561C23.9429 25.0862 23.674 24.6912 23.3411 24.2711C23.018 23.8496 22.6085 23.3856 22.1123 22.8792C21.7756 22.5011 21.3987 22.1909 20.9816 21.9488C20.5646 21.7067 20.126 21.523 19.6659 21.3976C19.2137 21.2572 18.7557 21.1798 18.2919 21.1654C17.8261 21.1374 17.382 21.1546 16.9596 21.2168C16.3898 21.3007 15.8409 21.492 15.3128 21.7905C14.7925 22.0742 14.3068 22.4562 13.8557 22.9366C13.4026 23.4034 12.9919 23.9538 12.6236 24.5875C12.2651 25.2199 11.9657 25.9125 11.7253 26.6654L13.5532 28.4451L16.6404 30.598C16.9532 29.6551 17.3468 28.921 17.8215 28.3958C18.2941 27.857 18.8644 27.5384 19.5324 27.44L19.665 27.4205C19.724 27.4118 19.7839 27.4099 19.8448 27.4147C19.7376 27.9134 19.5322 28.3921 19.2284 28.8508C18.9324 29.2945 18.5736 29.7199 18.1518 30.127C17.7398 30.5326 17.2836 30.9103 16.7831 31.26C16.2925 31.6082 15.8007 31.9152 15.308 32.181C14.8152 32.4468 14.342 32.6752 13.8884 32.8662C13.4446 33.0557 13.0626 33.1879 12.7424 33.2627Z" fill="white"/>
</svg>
