<svg width="95" height="263" viewBox="0 0 95 263" fill="none" xmlns="http://www.w3.org/2000/svg">
<circle cx="47.5" cy="214.654" r="47.5" fill="white"/>
<rect x="16" y="29" width="21" height="151" fill="url(#paint0_linear_178:112)"/>
<rect y="83" width="16" height="130" fill="url(#paint1_linear_178:112)"/>
<rect x="58" y="18" width="21" height="161" fill="url(#paint2_linear_178:112)"/>
<rect x="79" y="64" width="16" height="149" fill="url(#paint3_linear_178:112)"/>
<rect x="37" width="21" height="169" fill="url(#paint4_linear_178:112)"/>
<path d="M67.4888 205.043H54.6787L66.198 183.284C66.4364 182.823 66.2212 182.154 65.8317 182.154H43.5316C43.3688 182.154 43.2118 182.284 43.1304 182.502L28.064 221.404C27.8837 221.864 28.1047 222.447 28.4652 222.447H38.6063L33.4078 253.534C33.2973 254.212 33.8439 254.69 34.1811 254.203L67.8086 206.234C68.111 205.808 67.9075 205.043 67.4888 205.043Z" fill="#002D46"/>
<defs>
<linearGradient id="paint0_linear_178:112" x1="26.5" y1="29" x2="26.5" y2="180" gradientUnits="userSpaceOnUse">
<stop stop-color="white" stop-opacity="0"/>
<stop offset="1" stop-color="white"/>
</linearGradient>
<linearGradient id="paint1_linear_178:112" x1="8" y1="83" x2="8" y2="213" gradientUnits="userSpaceOnUse">
<stop stop-color="white" stop-opacity="0"/>
<stop offset="1" stop-color="white"/>
</linearGradient>
<linearGradient id="paint2_linear_178:112" x1="68.5" y1="18" x2="68.5" y2="179" gradientUnits="userSpaceOnUse">
<stop stop-color="white" stop-opacity="0"/>
<stop offset="1" stop-color="white"/>
</linearGradient>
<linearGradient id="paint3_linear_178:112" x1="87" y1="64" x2="87" y2="213" gradientUnits="userSpaceOnUse">
<stop stop-color="white" stop-opacity="0"/>
<stop offset="1" stop-color="white"/>
</linearGradient>
<linearGradient id="paint4_linear_178:112" x1="47.5" y1="0" x2="47.5" y2="169" gradientUnits="userSpaceOnUse">
<stop stop-color="white" stop-opacity="0"/>
<stop offset="1" stop-color="white"/>
</linearGradient>
</defs>
</svg>
