<svg width="50" height="51" viewBox="0 0 50 51" fill="none" xmlns="http://www.w3.org/2000/svg">
<path fill-rule="evenodd" clip-rule="evenodd" d="M13.1393 16.0186C12.0498 16.6859 10.7685 17.0706 9.39723 17.0706C5.43509 17.0706 2.22314 13.8587 2.22314 9.89656C2.22314 5.93442 5.43509 2.72247 9.39723 2.72247C13.3594 2.72247 16.5713 5.93442 16.5713 9.89656C16.5713 10.8565 16.3828 11.7724 16.0407 12.6092L21.5231 17.1527L18.6667 20.5993L13.1393 16.0186ZM14.2434 9.89461C14.2434 12.571 12.0738 14.7406 9.39742 14.7406C6.72103 14.7406 4.55139 12.571 4.55139 9.89461C4.55139 7.21822 6.72103 5.04858 9.39742 5.04858C12.0738 5.04858 14.2434 7.21822 14.2434 9.89461Z" fill="white" fill-opacity="0.85"/>
<path fill-rule="evenodd" clip-rule="evenodd" d="M37.8283 32.4225C39.0135 31.9462 40.3406 31.7805 41.6923 32.0088C45.5991 32.6687 48.2312 36.3707 47.5713 40.2775C46.9114 44.1843 43.2094 46.8164 39.3026 46.1565C35.3958 45.4966 32.7636 41.7946 33.4235 37.8878C33.5835 36.9409 33.9221 36.0688 34.3991 35.3004L29.7505 29.9078L33.141 26.985L37.8283 32.4225ZM35.7192 38.2754C36.1649 35.6364 38.6656 33.8584 41.3046 34.3042C43.9436 34.7499 45.7216 37.2506 45.2759 39.8896C44.8301 42.5286 42.3294 44.3066 39.6904 43.8609C37.0514 43.4151 35.2734 40.9144 35.7192 38.2754Z" fill="white" fill-opacity="0.85"/>
<path fill-rule="evenodd" clip-rule="evenodd" d="M13.2183 25.5511C12.4947 27.4425 10.6626 28.7857 8.5168 28.7857C5.73774 28.7857 3.48486 26.5328 3.48486 23.7537C3.48486 20.9747 5.73774 18.7218 8.5168 18.7218C10.6619 18.7218 12.4934 20.064 13.2175 21.9544H18.9618V25.5511H13.2183Z" fill="white" fill-opacity="0.95"/>
<path fill-rule="evenodd" clip-rule="evenodd" d="M37.5016 21.9517C38.2259 20.0618 40.0572 18.72 42.202 18.72C44.981 18.72 47.2339 20.9729 47.2339 23.7519C47.2339 26.531 44.981 28.7839 42.202 28.7839C40.0558 28.7839 38.2234 27.4403 37.5001 25.5483L33.7062 25.5483L33.7062 21.9517L37.5016 21.9517Z" fill="white" fill-opacity="0.95"/>
<path fill-rule="evenodd" clip-rule="evenodd" d="M37.6218 9.31321C36.8149 7.45223 37.1879 5.20717 38.7266 3.70702C40.7165 1.76701 43.9023 1.80741 45.8423 3.79726C47.7823 5.78711 47.7419 8.9729 45.752 10.9129C44.2184 12.4082 41.9742 12.727 40.1376 11.8835L32.4338 19.5053L29.923 16.9301L37.6218 9.31321Z" fill="white" fill-opacity="0.65"/>
<path fill-rule="evenodd" clip-rule="evenodd" d="M16.534 36.1453C18.199 38.9285 17.8327 42.5882 15.4351 44.9857C12.6052 47.8156 8.01694 47.8156 5.18702 44.9857C2.3571 42.1558 2.35709 37.5676 5.18702 34.7377C7.57142 32.3533 11.2041 31.9779 13.9815 33.6115L19.9608 27.5439L22.504 30.0871L16.534 36.1453Z" fill="white" fill-opacity="0.65"/>
<circle cx="26.4193" cy="23.3059" r="6.16933" fill="white"/>
</svg>
