<svg width="38" height="37" viewBox="0 0 38 37" fill="none" xmlns="http://www.w3.org/2000/svg">
<path opacity="0.65" fill-rule="evenodd" clip-rule="evenodd" d="M18.8678 36.2144C28.6267 36.2144 36.5378 28.3033 36.5378 18.5444C36.5378 12.1989 33.193 6.63469 28.1704 3.51856C33.8956 6.44195 37.8158 12.3959 37.8158 19.2655C37.8158 29.0244 29.9046 36.9355 20.1458 36.9355C16.7324 36.9355 13.5451 35.9676 10.8433 34.2914C13.2513 35.5209 15.9786 36.2144 18.8678 36.2144Z" fill="white"/>
<circle opacity="0.85" cx="18.1334" cy="18.0846" r="17.6817" fill="#BABABA"/>
<path opacity="0.95" fill-rule="evenodd" clip-rule="evenodd" d="M10.8826 31.3545C18.2121 35.3591 27.4002 32.6637 31.4047 25.3342C35.4093 18.0047 32.7139 8.81662 25.3844 4.81207C18.0549 0.807517 8.86684 3.50292 4.86229 10.8324C0.857741 18.1619 3.55314 27.35 10.8826 31.3545ZM20.6484 10.662L18.1721 10.4612L17.4288 11.8217L19.5536 12.0097L14.0163 22.1446L15.1993 22.791L21.5554 11.1575L20.6484 10.662ZM17.5534 13.0932L15.4591 12.8963L17.4844 9.18935L21.0742 9.46083L23.2432 10.6459L15.6805 24.4877L12.3285 22.6563L17.5534 13.0932ZM21.2252 8.90325L17.1638 8.60454L14.5568 13.3762L15.4122 15.8407L11.5663 22.8799L12.5522 25.9021L16.7718 28.2075L24.8084 13.4981L24.0054 10.4222L21.2252 8.90325Z" fill="white"/>
</svg>
