<svg width="80" height="119" viewBox="0 0 80 119" fill="none" xmlns="http://www.w3.org/2000/svg">
<path d="M40.8009 0C36.0344 0 31.375 1.43765 27.4118 4.13116C23.4486 6.82466 20.3597 10.653 18.5357 15.1322C16.7116 19.6113 16.2344 24.54 17.1643 29.2951C18.0941 34.0501 20.3894 38.4179 23.7598 41.846C27.1302 45.2742 31.4244 47.6088 36.0993 48.5547C40.7741 49.5005 45.6198 49.0151 50.0234 47.1598C54.4271 45.3044 58.1909 42.1626 60.839 38.1315C63.4871 34.1003 64.9006 29.361 64.9006 24.5128C64.8958 18.0131 62.3552 11.781 57.8367 7.18497C53.3181 2.58896 47.191 0.0048164 40.8009 0V0ZM40.8009 44.4432C36.9113 44.4432 33.1091 43.27 29.8751 41.072C26.641 38.8741 24.1204 35.75 22.6319 32.0949C21.1435 28.4399 20.754 24.4179 21.5128 20.5377C22.2716 16.6575 24.1446 13.0933 26.895 10.2958C29.6453 7.49833 33.1494 5.59322 36.9642 4.8214C40.7791 4.04957 44.7332 4.4457 48.3267 5.95969C51.9202 7.47367 54.9916 10.0375 57.1525 13.327C59.3134 16.6165 60.4668 20.4839 60.4668 24.4401C60.4668 27.0669 59.9581 29.6681 58.9698 32.0949C57.9815 34.5218 56.5329 36.7269 54.7068 38.5844C52.8806 40.4419 50.7127 41.9153 48.3267 42.9205C45.9407 43.9258 43.3834 44.4432 40.8009 44.4432Z" fill="white"/>
<path d="M73.7683 63.6461C69.5312 57.4451 58.9295 50.5714 58.9295 50.5714L45.0382 100.015L43.4471 69.647H35.3662L34.5617 100.361L20.134 50.6441C20.134 50.6441 8.35236 57.6452 4.04374 66.6829C-0.264885 75.7206 0.00328638 87.5588 0.00328638 87.5588V118.8H79.2033V83.3764C79.2033 83.3764 78.0054 69.9016 73.7683 63.6461ZM76.6825 115.818H2.98893V95.7237C2.98893 95.7237 3.75769 74.5568 6.49304 68.756C9.22839 62.9551 18.3462 56.7177 18.3462 56.7177L36.3495 110.199L37.5473 71.9019H41.2659L43.0538 109.708L60.9319 56.7177C60.9319 56.7177 67.7792 61.1366 70.5145 65.1372C73.2499 69.1378 76.6288 93.0324 76.6288 93.0324L76.6825 115.818Z" fill="white"/>
<path d="M34.7045 57.3178V66.9738H44.1977V57.3178H34.7045ZM42.5887 65.3372H36.3314V58.9726H42.5887V65.3372Z" fill="white"/>
<path d="M44.1979 110.581L39.8356 115.89L35.3661 110.581V69.647H44.1979V110.581Z" fill="white"/>
<path d="M43.6436 57.9543H35.3661V66.3738H43.6436V57.9543Z" fill="white"/>
</svg>
