<svg width="96" height="96" viewBox="0 0 96 96" fill="none" xmlns="http://www.w3.org/2000/svg">
<circle cx="48.248" cy="47.9176" r="47.5" fill="white"/>
<path d="M48.9146 14.9176C46.2666 14.9176 43.678 15.7163 41.4762 17.2127C39.2745 18.7091 37.5584 20.836 36.545 23.3244C35.5317 25.8128 35.2665 28.551 35.7831 31.1926C36.2998 33.8343 37.5749 36.2609 39.4473 38.1654C41.3198 40.0699 43.7054 41.367 46.3026 41.8924C48.8997 42.4179 51.5918 42.1482 54.0382 41.1175C56.4847 40.0867 58.5757 38.3412 60.0469 36.1017C61.5181 33.8622 62.3033 31.2293 62.3033 28.5358C62.3007 24.9249 60.8892 21.4626 58.3789 18.9092C55.8686 16.3559 52.4647 14.9203 48.9146 14.9176V14.9176ZM48.9146 39.6082C46.7537 39.6082 44.6414 38.9565 42.8447 37.7354C41.048 36.5143 39.6477 34.7787 38.8207 32.7481C37.9938 30.7175 37.7775 28.4831 38.199 26.3274C38.6206 24.1718 39.6611 22.1916 41.1891 20.6375C42.7171 19.0833 44.6638 18.0249 46.7831 17.5962C48.9025 17.1674 51.0992 17.3874 53.0956 18.2285C55.092 19.0696 56.7983 20.494 57.9988 22.3215C59.1993 24.149 59.8401 26.2975 59.8401 28.4954C59.8401 29.9548 59.5575 31.3999 59.0085 32.7481C58.4594 34.0964 57.6546 35.3215 56.6401 36.3534C55.6256 37.3853 54.4212 38.2039 53.0956 38.7623C51.7701 39.3208 50.3494 39.6082 48.9146 39.6082V39.6082Z" fill="#231F20"/>
<path d="M67.2295 50.2766C64.8755 46.8316 58.9857 43.0128 58.9857 43.0128L51.2683 70.4817L50.3843 53.6104H45.8949L45.448 70.6736L37.4326 43.0532C37.4326 43.0532 30.8873 46.9427 28.4936 51.9637C26.0999 56.9847 26.2489 63.5614 26.2489 63.5614V80.9176H70.2489V61.2378C70.2489 61.2378 69.5834 53.7518 67.2295 50.2766ZM68.8484 79.2608H27.9076V68.0975C27.9076 68.0975 28.3347 56.3381 29.8543 53.1154C31.374 49.8927 36.4394 46.4275 36.4394 46.4275L46.4412 76.1391L47.1067 54.8631H49.1726L50.1658 75.8663L60.0981 46.4275C60.0981 46.4275 63.9022 48.8824 65.4218 51.105C66.9414 53.3275 68.8186 66.6023 68.8186 66.6023L68.8484 79.2608Z" fill="#231F20"/>
<path d="M45.5273 46.7609V52.1253H50.8014V46.7609H45.5273ZM49.9075 51.2161H46.4312V47.6802H49.9075V51.2161Z" fill="#231F20"/>
<path d="M50.8016 76.3512L48.3781 79.3012L45.895 76.3512V53.6104H50.8016V76.3512Z" fill="#231F20"/>
<path d="M50.4937 47.1145H45.895V51.792H50.4937V47.1145Z" fill="#231F20"/>
</svg>
