<svg width="45" height="44" viewBox="0 0 45 44" fill="none" xmlns="http://www.w3.org/2000/svg">
<path fill-rule="evenodd" clip-rule="evenodd" d="M22.6038 43.7662C34.6164 43.7662 44.3546 34.028 44.3546 22.0154C44.3546 10.0028 34.6164 0.264648 22.6038 0.264648C10.5912 0.264648 0.853027 10.0028 0.853027 22.0154C0.853027 34.028 10.5912 43.7662 22.6038 43.7662ZM22.6032 39.8308C32.4411 39.8308 40.4162 31.8557 40.4162 22.0178C40.4162 12.18 32.4411 4.20482 22.6032 4.20482C12.7654 4.20482 4.79023 12.18 4.79023 22.0178C4.79023 31.8557 12.7654 39.8308 22.6032 39.8308Z" fill="white"/>
<path fill-rule="evenodd" clip-rule="evenodd" d="M22.6038 31.2436C34.6164 31.2436 44.3546 27.1126 44.3546 22.0167C44.3546 16.9207 34.6164 12.7897 22.6038 12.7897C10.5912 12.7897 0.853027 16.9207 0.853027 22.0167C0.853027 27.1126 10.5912 31.2436 22.6038 31.2436ZM22.6037 27.4961C26.3449 27.4961 40.4167 26.1877 40.4167 22.0143C40.4167 17.841 26.3449 16.6094 22.6037 16.6094C18.3536 16.6094 4.79073 17.841 4.79073 22.0143C4.79073 26.1877 18.4694 27.4961 22.6037 27.4961Z" fill="white" fill-opacity="0.65"/>
<path fill-rule="evenodd" clip-rule="evenodd" d="M13.3766 22.0149C13.3766 34.0275 17.5077 43.7656 22.6036 43.7656C27.6995 43.7656 31.8306 34.0275 31.8306 22.0149C31.8306 10.0023 27.6995 0.264099 22.6036 0.264099C17.5077 0.264098 13.3766 10.0022 13.3766 22.0149ZM17.1217 22.0173C17.1217 25.7585 18.4301 39.8302 22.6035 39.8302C26.7768 39.8302 28.0084 25.7585 28.0084 22.0173C28.0084 17.7671 26.7768 4.20427 22.6035 4.20427C18.4301 4.20427 17.1217 17.8829 17.1217 22.0173Z" fill="white" fill-opacity="0.75"/>
</svg>
