<svg width="96" height="96" viewBox="0 0 96 96" fill="none" xmlns="http://www.w3.org/2000/svg">
<circle cx="47.9915" cy="47.6676" r="47.5" fill="white"/>
<path d="M46.064 55.1943L23.7873 62.2952" stroke="#CACACA" stroke-width="2" stroke-miterlimit="10"/>
<path d="M44.0313 21.8201L22.9661 62.145L72.5197 72.1761" stroke="black" stroke-width="2"/>
<path d="M73.0114 72.2615L46.1931 55.3859L44.0294 21.3715L73.0114 72.2615Z" stroke="#6F6F6F" stroke-width="2" stroke-miterlimit="10"/>
<path d="M70.7477 68.8965C68.8893 70.1465 68.3961 72.6664 69.6462 74.5248C70.8962 76.3832 73.4161 76.8763 75.2745 75.6263C77.1329 74.3763 77.6261 71.8564 76.376 69.998C75.126 68.1396 72.6061 67.6464 70.7477 68.8965Z" fill="white" stroke="#8F8F8F" stroke-width="2" stroke-miterlimit="10"/>
<path d="M41.517 18.1741C39.6586 19.4242 39.1654 21.9441 40.4155 23.8025C41.6655 25.6608 44.1854 26.154 46.0438 24.904C47.9022 23.6539 48.3953 21.134 47.1453 19.2757C45.8953 17.4173 43.3754 16.9241 41.517 18.1741Z" fill="#8C8C8C" stroke="black" stroke-width="2" stroke-miterlimit="10"/>
<path d="M21.1172 58.6105C19.0332 60.0122 18.4802 62.838 19.882 64.9219C21.2838 67.0059 24.1095 67.5589 26.1935 66.1571C28.2774 64.7554 28.8304 61.9296 27.4287 59.8457C26.0269 57.7617 23.2012 57.2087 21.1172 58.6105Z" fill="black" stroke="#959595" stroke-width="2" stroke-miterlimit="10"/>
<path d="M43.9693 51.0638C41.8853 52.4655 41.3323 55.2913 42.734 57.3752C44.1358 59.4592 46.9615 60.0122 49.0455 58.6105C51.1295 57.2087 51.6825 54.3829 50.2807 52.299C48.879 50.215 46.0532 49.662 43.9693 51.0638Z" fill="#4F4F4F" stroke="#515151" stroke-width="2" stroke-miterlimit="10"/>
</svg>
