<svg width="77" height="115" viewBox="0 0 77 115" fill="none" xmlns="http://www.w3.org/2000/svg">
<path d="M18.0306 71.0481L-22.0674 83.8296" stroke="#CACACA" stroke-width="2" stroke-miterlimit="10"/>
<path d="M14.3719 10.9742L-23.5455 83.5591L65.651 101.615" stroke="white" stroke-width="2"/>
<path d="M66.5359 101.769L18.263 71.3925L14.3684 10.1667L66.5359 101.769Z" stroke="white" stroke-width="2" stroke-miterlimit="10"/>
<path d="M62.4614 95.7114C59.1163 97.9615 58.2286 102.497 60.4787 105.842C62.7288 109.187 67.2646 110.075 70.6097 107.825C73.9548 105.575 74.8425 101.039 72.5924 97.6941C70.3423 94.349 65.8065 93.4613 62.4614 95.7114Z" fill="#003656" stroke="white" stroke-width="2" stroke-miterlimit="10"/>
<path d="M9.84646 4.41149C6.50135 6.66156 5.61364 11.1974 7.86371 14.5425C10.1138 17.8875 14.6496 18.7752 17.9947 16.5252C21.3398 14.2751 22.2275 9.73932 19.9774 6.39422C17.7273 3.04912 13.1916 2.16142 9.84646 4.41149Z" fill="#003757" stroke="white" stroke-width="2" stroke-miterlimit="10"/>
<path d="M14.2606 63.6128C10.5094 66.136 9.51399 71.2223 12.0372 74.9734C14.5603 78.7245 19.6467 79.72 23.3978 77.1968C27.1489 74.6736 28.1444 69.5873 25.6212 65.8362C23.098 62.085 18.0117 61.0896 14.2606 63.6128Z" fill="white" stroke="#003655" stroke-width="2" stroke-miterlimit="10"/>
</svg>
