<svg width="56" height="53" viewBox="0 0 56 53" fill="none" xmlns="http://www.w3.org/2000/svg">
<path opacity="0.65" fill-rule="evenodd" clip-rule="evenodd" d="M19.4916 40.0918C26.4208 38.5351 30.776 31.656 29.2194 24.7269C28.2068 20.2195 24.942 16.8012 20.8762 15.3909C25.41 16.552 29.1456 20.1551 30.2418 25.0346C31.7985 31.9637 27.4432 38.8428 20.514 40.3995C18.0923 40.9435 15.6767 40.7654 13.4923 40.0077C15.3967 40.4954 17.442 40.5522 19.4916 40.0918Z" fill="white"/>
<circle opacity="0.85" cx="16.0782" cy="27.3349" r="12.8676" transform="rotate(-12.6614 16.0782 27.3349)" fill="#BABABA"/>
<path opacity="0.95" fill-rule="evenodd" clip-rule="evenodd" d="M20.0301 37.6064C25.7029 35.424 28.5325 29.0562 26.3501 23.3833C24.1677 17.7105 17.7998 14.881 12.127 17.0634C6.45419 19.2457 3.62463 25.6136 5.80701 31.2864C7.98939 36.9592 14.3573 39.7888 20.0301 37.6064ZM12.03 24.5423C11.8787 24.8465 11.7674 25.1967 11.6963 25.593L12.4621 25.8979C12.5597 25.3377 12.7618 24.8654 13.0686 24.4809C13.3785 24.085 13.7477 23.8047 14.1762 23.6398C14.3775 23.5624 14.6117 23.4928 14.8786 23.4311C15.1456 23.3694 15.4135 23.3585 15.6824 23.3986C15.9543 23.4272 16.2078 23.5243 16.443 23.69C16.6813 23.8443 16.8725 24.1089 17.0167 24.4839C17.2022 24.9659 17.2797 25.4484 17.2494 25.9315C17.2221 26.4031 17.1244 26.866 16.9562 27.3201C16.7846 27.7653 16.5587 28.1955 16.2787 28.6107C16.0017 29.0144 15.7029 29.3907 15.3823 29.7395C15.0649 30.0768 14.7468 30.3836 14.4282 30.6599C14.1127 30.9248 13.8273 31.1421 13.5722 31.312L13.8555 32.0485L19.9721 29.6954L19.6578 28.8786L15.7912 30.3661C16.0788 30.0095 16.3805 29.6117 16.6961 29.1726C17.0117 28.7335 17.2742 28.2533 17.4837 27.7321C17.6996 27.2084 17.83 26.656 17.8749 26.0752C17.9229 25.4828 17.8215 24.8609 17.5708 24.2092C17.4025 23.7718 17.1771 23.4281 16.8946 23.1781C16.6121 22.9282 16.3081 22.7582 15.9828 22.6681C15.6605 22.5667 15.3328 22.5287 14.9998 22.5544C14.6733 22.5775 14.3769 22.6403 14.1107 22.7427C13.8185 22.8551 13.5398 22.9931 13.2747 23.1565C13.0161 23.3175 12.781 23.5105 12.5694 23.7353C12.3577 23.9602 12.1779 24.2292 12.03 24.5423ZM13.451 25.2715C13.1939 25.6881 13.0337 26.2211 12.9705 26.8706L11.0035 26.0593C11.0438 25.5827 11.1352 25.1325 11.2778 24.7087C11.4204 24.285 11.6014 23.9028 11.8207 23.5622C12.0465 23.2191 12.3059 22.9246 12.5989 22.6787C12.895 22.4213 13.2216 22.224 13.5787 22.0866C13.9423 21.9467 14.3395 21.8554 14.7703 21.8126C15.2042 21.7584 15.6266 21.7906 16.0375 21.9093C16.4548 22.0254 16.8464 22.2488 17.2122 22.5795C17.5779 22.9101 17.8793 23.3835 18.1162 23.9994C18.2879 24.4457 18.3974 24.8853 18.4446 25.318C18.4983 25.7482 18.5044 26.1711 18.4631 26.5867C18.4247 26.9909 18.3387 27.3775 18.2049 27.7467C18.0776 28.1133 17.9171 28.4518 17.7234 28.762L19.9051 27.9227L20.7962 30.2391L13.6083 33.0044L12.7789 30.8486C13.0089 30.7294 13.2835 30.552 13.6029 30.3164C13.9222 30.0809 14.2441 29.8033 14.5684 29.4838C14.8928 29.1644 15.2051 28.8136 15.5054 28.4317C15.8057 28.0497 16.0518 27.6527 16.2436 27.2407C16.4385 26.8173 16.5647 26.3896 16.6221 25.9576C16.6796 25.5256 16.6293 25.1043 16.4713 24.6937C16.3889 24.4794 16.2637 24.338 16.0957 24.2695C15.9242 24.1919 15.7421 24.1544 15.5492 24.1569C15.3594 24.1479 15.1734 24.1682 14.9912 24.2178C14.809 24.2674 14.666 24.3122 14.5621 24.3522C14.0816 24.537 13.7113 24.8435 13.451 25.2715ZM12.417 30.6343L13.4936 33.4328L14.9964 34.3457L22.6129 31.4156L21.4951 28.51L20.1899 27.6748C20.2339 27.2274 20.2304 26.7727 20.1794 26.3107C20.125 25.8398 20.005 25.3633 19.8196 24.8813C19.7303 24.6492 19.6215 24.4246 19.4933 24.2075C19.3715 23.9879 19.2122 23.7674 19.0152 23.546C18.8182 23.3246 18.5736 23.0958 18.2816 22.8598C17.996 22.6212 17.6447 22.3669 17.2278 22.0969C16.9395 21.8901 16.6342 21.736 16.3119 21.6346C15.9897 21.5331 15.6616 21.4748 15.3278 21.4598C14.9971 21.4333 14.6721 21.4507 14.3528 21.5121C14.0301 21.5645 13.7291 21.6444 13.4499 21.7518C13.0733 21.8967 12.7274 22.1118 12.4123 22.397C12.1002 22.6707 11.8268 23.0065 11.5922 23.4042C11.3541 23.7929 11.1579 24.2322 11.0034 24.7221C10.8555 25.2094 10.7571 25.7289 10.7085 26.2805L12.2314 27.2164L14.6725 28.2141C14.7415 27.5214 14.8979 26.9591 15.1417 26.5272C15.382 26.0863 15.723 25.7809 16.1645 25.611L16.2522 25.5773C16.2911 25.5623 16.3318 25.5518 16.3742 25.5457C16.3775 25.9031 16.3106 26.2619 16.1734 26.6222C16.0392 26.971 15.8592 27.3169 15.6334 27.66C15.4141 28.0005 15.1602 28.3288 14.8717 28.6447C14.5898 28.9581 14.3008 29.2435 14.0047 29.5009C13.7087 29.7582 13.4202 29.987 13.1395 30.1873C12.8652 30.385 12.6244 30.534 12.417 30.6343Z" fill="white"/>
<path opacity="0.65" fill-rule="evenodd" clip-rule="evenodd" d="M28.9375 49.3087C35.1162 47.9206 38.9998 41.7865 37.6118 35.6078C36.7081 31.5851 33.7927 28.5353 30.163 27.2797C34.2096 28.3127 37.5446 31.527 38.5228 35.8811C39.9109 42.0599 36.0273 48.194 29.8485 49.582C27.6925 50.0664 25.5418 49.9089 23.5964 49.2359C25.2921 49.6688 27.1129 49.7186 28.9375 49.3087Z" fill="white"/>
<circle opacity="0.85" cx="25.8921" cy="37.9331" r="11.474" transform="rotate(-12.6614 25.8921 37.9331)" fill="#BABABA"/>
<path opacity="0.95" fill-rule="evenodd" clip-rule="evenodd" d="M24.7213 47.6765C30.1025 48.3228 34.9888 44.4845 35.6351 39.1033C36.2814 33.7221 32.4431 28.8358 27.0619 28.1895C21.6807 27.5431 16.7944 31.3815 16.1481 36.7627C15.5017 42.1439 19.3401 47.0301 24.7213 47.6765ZM23.8512 39.7502C23.711 39.5376 23.584 39.2614 23.4702 38.9216L22.963 39.3499C23.0627 39.6694 23.1859 39.9545 23.3326 40.2051C23.4858 40.4471 23.6543 40.6538 23.8381 40.825C24.0274 40.9968 24.2265 41.1325 24.4355 41.2322C24.651 41.3233 24.8704 41.3823 25.0936 41.4091C25.3332 41.4379 25.6055 41.4473 25.9105 41.4373C26.2166 41.4182 26.5108 41.337 26.7932 41.1939C27.0755 41.0507 27.3236 40.8242 27.5376 40.5144C27.757 40.2053 27.8998 39.7751 27.966 39.2239C28.0002 38.9391 27.9838 38.6855 27.9166 38.4631C27.8559 38.2322 27.7664 38.035 27.6479 37.8717C27.5305 37.6992 27.3951 37.5618 27.2417 37.4595C27.0883 37.3572 26.9424 37.2837 26.8042 37.2392C26.9305 37.245 27.0662 37.2194 27.2111 37.1622C27.3626 37.0966 27.5038 37.0017 27.6347 36.8776C27.7656 36.7536 27.8808 36.5996 27.9802 36.4159C28.0796 36.2321 28.1442 36.0162 28.174 35.7682C28.2269 35.3272 28.2036 34.947 28.1038 34.6275C28.0052 34.2988 27.8613 34.0252 27.6721 33.8068C27.4895 33.5798 27.2812 33.4057 27.0472 33.2844C26.8132 33.1631 26.59 33.0897 26.3777 33.0642C26.1217 33.0334 25.8685 33.0263 25.618 33.0428C25.3674 33.0593 25.1228 33.1185 24.8841 33.2203C24.6454 33.3221 24.411 33.4803 24.1808 33.695C23.9572 33.9011 23.7416 34.1781 23.5341 34.5259C23.6016 34.6086 23.6679 34.7004 23.7331 34.8014L23.932 35.0769C24.2235 34.6274 24.5497 34.3031 24.9105 34.1041C25.2768 33.9058 25.6396 33.8282 25.999 33.8714C26.146 33.8891 26.3235 33.929 26.5314 33.9913C26.7394 34.0535 26.9342 34.1561 27.1159 34.2991C27.2987 34.4329 27.4454 34.6136 27.5562 34.8413C27.6669 35.0689 27.7013 35.3573 27.6594 35.7064C27.623 36.0095 27.529 36.2405 27.3773 36.3994C27.2268 36.5491 27.0534 36.6587 26.8572 36.7283C26.6611 36.798 26.4639 36.8302 26.2656 36.825C26.0729 36.8205 25.9139 36.8107 25.7886 36.7957L25.691 37.6087C25.7781 37.6192 25.8864 37.6368 26.016 37.6617C26.1467 37.6774 26.2812 37.7076 26.4194 37.7521C26.5588 37.7875 26.6932 37.8409 26.8227 37.9124C26.9588 37.9753 27.0752 38.0639 27.172 38.178C27.2742 38.2928 27.3513 38.4325 27.4033 38.5972C27.4565 38.7527 27.4698 38.9407 27.4433 39.1611C27.4047 39.4827 27.3095 39.7462 27.1578 39.9516C27.0126 40.1485 26.8425 40.3005 26.6473 40.4075C26.4587 40.506 26.2631 40.5711 26.0605 40.6026C25.8589 40.625 25.6847 40.6274 25.5376 40.6097C25.3144 40.5829 25.101 40.5433 24.8974 40.4909C24.6992 40.4391 24.5104 40.3559 24.3308 40.2411C24.1578 40.1178 23.9979 39.9542 23.8512 39.7502ZM22.8877 40.5291C22.6802 40.1407 22.5034 39.6582 22.3573 39.0815L23.7152 37.9166C23.856 38.446 24.06 38.8853 24.3275 39.2342C24.6014 39.5747 24.9208 39.7668 25.2856 39.8106L25.6859 39.8587C25.8666 39.8711 26.0475 39.8602 26.2283 39.826C26.4146 39.7925 26.5803 39.7238 26.7253 39.6201C26.8769 39.5078 26.9665 39.3369 26.9941 39.1072C27.0084 38.9878 26.9792 38.8864 26.9063 38.8031C26.8335 38.7198 26.7339 38.6519 26.6076 38.5995C26.4879 38.5385 26.3524 38.4943 26.201 38.4668C26.0508 38.4301 25.9049 38.4032 25.7633 38.3862C25.6228 38.36 25.4949 38.3447 25.3794 38.3401L25.1507 38.3127L25.4304 35.9838L25.8061 36.0289C25.9913 36.0512 26.1862 36.0606 26.391 36.0573C26.5958 36.0539 26.7788 36.0246 26.9401 35.9694C27.1068 35.9149 27.1996 35.8096 27.2184 35.6534C27.2404 35.4697 27.2063 35.3165 27.1161 35.1938C27.0259 35.0711 26.9139 34.9691 26.78 34.8878C26.6516 34.8072 26.5177 34.7491 26.3784 34.7138C26.239 34.6784 26.1339 34.6565 26.0631 34.648C25.6439 34.5976 25.2571 34.6909 24.9027 34.9279C24.5549 35.1564 24.2275 35.5598 23.9205 36.138L22.8821 34.6433C23.3179 33.8196 23.8259 33.2004 24.406 32.7854C24.9862 32.3705 25.5811 32.1997 26.191 32.2729C26.3925 32.2971 26.5993 32.3453 26.8116 32.4174C27.025 32.4803 27.2291 32.5747 27.4239 32.7006C27.6252 32.818 27.8091 32.9658 27.9754 33.1443C28.1473 33.3233 28.2896 33.5408 28.4025 33.7966C28.5154 34.0525 28.5928 34.3507 28.6347 34.6912C28.6833 35.0232 28.6821 35.4005 28.6314 35.8231C28.6137 35.9701 28.5786 36.1243 28.5261 36.2857C28.4801 36.4386 28.4232 36.5902 28.3555 36.7405C28.2888 36.8816 28.2129 37.0076 28.1278 37.1186C28.0481 37.2302 27.9668 37.3089 27.884 37.3549C27.9666 37.4487 28.0438 37.5651 28.1154 37.7042C28.1926 37.8439 28.2566 38.0007 28.3075 38.1746C28.3584 38.3485 28.3946 38.5299 28.4161 38.7188C28.4376 38.9078 28.4373 39.0942 28.4153 39.2779C28.348 39.8383 28.2105 40.3157 28.003 40.7101C27.7965 41.0954 27.5548 41.4065 27.2777 41.6435C27.0007 41.8805 26.702 42.0449 26.3816 42.1369C26.0667 42.2296 25.7676 42.2589 25.4845 42.2249C25.1197 42.1811 24.7789 42.0982 24.4621 41.9763C24.1442 41.8635 23.8531 41.6888 23.5888 41.452C23.3299 41.2159 23.0962 40.9083 22.8877 40.5291ZM24.3462 38.7332L23.8205 37.4539L22.083 38.9507C22.1306 39.1521 22.1842 39.3496 22.2438 39.5431C22.31 39.7281 22.3848 39.9328 22.4684 40.1572C22.5584 40.373 22.6648 40.6141 22.7875 40.8805C22.9101 41.1468 23.0578 41.4581 23.2304 41.8144C23.3998 42.1982 23.5877 42.5189 23.7943 42.7767C23.9997 43.0437 24.2221 43.2615 24.4615 43.43C24.7063 43.5992 24.9643 43.728 25.2353 43.8165C25.5064 43.905 25.7944 43.9675 26.0993 44.0042C26.4043 44.0408 26.7262 44.0049 27.0651 43.8965C27.4029 43.7973 27.7202 43.6164 28.0168 43.3538C28.3179 43.1011 28.5793 42.7643 28.801 42.3437C29.0239 41.9138 29.1723 41.3911 29.2462 40.7756C29.2881 40.4265 29.2772 40.0804 29.2135 39.7372C29.1509 39.3849 29.0588 39.0709 28.9372 38.7954L28.9095 38.7501C29.0427 38.5611 29.1596 38.3468 29.2601 38.1073C29.3618 37.8586 29.4292 37.5964 29.4623 37.3208C29.4899 37.0911 29.5011 36.8595 29.4961 36.6259C29.4975 36.3838 29.4729 36.1292 29.4221 35.8622C29.3767 35.5958 29.2988 35.3022 29.1882 34.9814C29.083 34.6612 28.9393 34.2945 28.7569 33.8811C28.6354 33.559 28.4806 33.2841 28.2925 33.0565C28.1056 32.8197 27.8973 32.6223 27.6677 32.4643C27.4435 32.3069 27.2068 32.1852 26.9575 32.0994C26.7137 32.0142 26.472 31.9572 26.2324 31.9284C25.5844 31.8506 24.9414 32.0529 24.3035 32.5355C23.6656 33.018 23.0926 33.7413 22.5846 34.7054L23.2784 36.1727L24.5711 38.0334C24.6498 37.8844 24.7301 37.7449 24.8119 37.615C24.8949 37.4758 24.9812 37.3557 25.0706 37.2546L24.9051 38.6326L25.3188 39.4651C25.1283 39.4422 24.9519 39.3698 24.7898 39.2478C24.6288 39.1167 24.4809 38.9451 24.3462 38.7332Z" fill="white"/>
<path opacity="0.65" fill-rule="evenodd" clip-rule="evenodd" d="M29.6863 28.281C36.4438 26.7629 40.6911 20.0543 39.173 13.2968C38.186 8.90333 35.0048 5.5709 31.0426 4.19427C35.4611 5.32835 39.1011 8.84106 40.1696 13.5973C41.6876 20.3547 37.4403 27.0633 30.6829 28.5814C28.319 29.1125 25.961 28.938 23.8292 28.1973C25.6883 28.6745 27.6852 28.7305 29.6863 28.281Z" fill="white"/>
<circle opacity="0.85" cx="26.3569" cy="15.8409" r="12.5487" transform="rotate(-12.6614 26.3569 15.8409)" fill="#BABABA"/>
<path opacity="0.95" fill-rule="evenodd" clip-rule="evenodd" d="M23.401 26.1567C29.0992 27.7894 35.0421 24.4938 36.6748 18.7956C38.3076 13.0974 35.0119 7.1545 29.3137 5.52175C23.6155 3.889 17.6726 7.18469 16.0399 12.8829C14.4071 18.5811 17.7028 24.524 23.401 26.1567ZM26.9442 10.3096L25.1983 10.5557L24.8952 11.6134L26.3957 11.4131L24.138 19.2923L25.0578 19.5558L27.6493 10.5116L26.9442 10.3096ZM25.1793 12.4745L23.6984 12.6639L24.5242 9.78202L27.0522 9.41159L28.7384 9.89475L25.6549 20.6558L23.049 19.9091L25.1793 12.4745ZM27.07 9.002L24.2113 9.42695L23.1483 13.1366L24.124 14.71L22.5559 20.1825L23.7088 22.1219L26.9892 23.0618L30.2659 11.6263L29.2314 9.62133L27.07 9.002Z" fill="white"/>
<path opacity="0.65" fill-rule="evenodd" clip-rule="evenodd" d="M42.1263 37.9204C48.8837 36.4023 53.1311 29.6937 51.613 22.9362C50.626 18.5427 47.4448 15.2103 43.4826 13.8337C47.9011 14.9677 51.541 18.4805 52.6095 23.2367C54.1276 29.9941 49.8803 36.7028 43.1228 38.2208C40.7589 38.7519 38.401 38.5774 36.2691 37.8367C38.1282 38.3139 40.1251 38.3699 42.1263 37.9204Z" fill="white"/>
<circle opacity="0.85" cx="38.7973" cy="25.4812" r="12.5487" transform="rotate(-12.6614 38.7973 25.4812)" fill="#BABABA"/>
<path opacity="0.95" fill-rule="evenodd" clip-rule="evenodd" d="M35.8409 35.7962C41.5391 37.429 47.482 34.1333 49.1148 28.4351C50.7475 22.7369 47.4518 16.794 41.7536 15.1613C36.0555 13.5285 30.1126 16.8242 28.4798 22.5224C26.8471 28.2206 30.1428 34.1635 35.8409 35.7962ZM37.5074 24.2405C37.686 23.399 37.8652 22.5522 38.045 21.6999L39.7703 25.4913L36.9641 26.7683C37.153 25.9222 37.3341 25.0796 37.5074 24.2405ZM38.0751 24.4598C38.0078 24.8192 37.936 25.1754 37.8597 25.5286L39.0303 24.9959L38.2925 23.3747L38.0751 24.4598ZM37.0212 23.9533C36.7948 25.0322 36.5625 26.1189 36.3245 27.2134L36.6266 27.8772L40.1305 26.2827L41.0309 28.2614L41.5193 28.0391L40.6189 26.0605L41.2778 25.7606L40.9176 24.9692L40.2587 25.269L38.0919 20.5075L37.712 20.6803C37.483 21.781 37.2527 22.872 37.0212 23.9533ZM40.9299 29.1703L40.0294 27.1916L36.5178 28.7897L35.7451 27.0919L37.2239 20.0395L38.1852 19.6021L40.3636 24.3892L41.0381 24.0823L42.0372 26.278L41.3628 26.5849L42.2632 28.5635L40.9299 29.1703ZM37.0089 19.7521L35.4874 27.0396L36.4692 29.197L37.8311 30.0719L40.5444 28.8372L40.8813 29.5776L42.2432 30.4525L43.9177 29.6905L43.0173 27.7119L43.6917 27.405L42.4369 24.6476L41.2571 23.8439L39.5841 20.1674L38.2338 19.1948L37.0089 19.7521Z" fill="white"/>
</svg>
