<svg width="96" height="96" viewBox="0 0 96 96" fill="none" xmlns="http://www.w3.org/2000/svg">
<circle cx="47.9683" cy="48.4176" r="47.5" fill="white"/>
<path d="M47.9876 78.5106C31.4474 78.5106 17.9908 65.0561 17.9908 48.5181C17.9908 31.9804 31.4474 18.526 47.9876 18.526C64.5279 18.526 77.9841 31.9804 77.9841 48.5181C77.9841 65.0561 64.5279 78.5106 47.9876 78.5106ZM47.9876 19.8835C32.1958 19.8835 19.3485 32.7288 19.3485 48.5181C19.3485 64.3078 32.1958 77.1531 47.9876 77.1531C63.7794 77.1531 76.6264 64.3078 76.6264 48.5181C76.6264 32.7288 63.7794 19.8835 47.9876 19.8835Z" fill="#4B4B4B"/>
<path d="M47.999 78.2679C36.0594 78.2679 26.3458 64.913 26.3458 48.4974C26.3458 32.0822 36.0594 18.7273 47.999 18.7273C59.9386 18.7273 69.652 32.0822 69.652 48.4974C69.652 64.913 59.9386 78.2679 47.999 78.2679ZM47.999 20.0748C36.5997 20.0748 27.3258 32.825 27.3258 48.4974C27.3258 64.1702 36.5997 76.9204 47.999 76.9204C59.3983 76.9204 68.6719 64.1702 68.6719 48.4974C68.6719 32.825 59.3983 20.0748 47.999 20.0748Z" fill="#4B4B4B"/>
<path d="M77.9753 48.4723C77.9753 60.3235 64.5208 69.9652 47.9828 69.9652C31.4451 69.9652 17.9907 60.3235 17.9907 48.4723C17.9907 36.6211 31.4451 26.9796 47.9828 26.9796C64.5208 26.9796 77.9753 36.6211 77.9753 48.4723ZM19.3482 48.4723C19.3482 59.7872 32.1935 68.9924 47.9828 68.9924C63.7725 68.9924 76.6178 59.7872 76.6178 48.4723C76.6178 37.1574 63.7725 27.9524 47.9828 27.9524C32.1935 27.9524 19.3482 37.1574 19.3482 48.4723Z" fill="#4B4B4B"/>
<path d="M77.9753 48.4775C77.9753 55.2748 64.5208 60.8048 47.9828 60.8048C31.4451 60.8048 17.9907 55.2748 17.9907 48.4775C17.9907 41.6802 31.4451 36.1503 47.9828 36.1503C64.5208 36.1503 77.9753 41.6802 77.9753 48.4775ZM19.3482 48.4775C19.3482 54.9672 32.1935 60.2469 47.9828 60.2469C63.7725 60.2469 76.6178 54.9672 76.6178 48.4775C76.6178 41.9878 63.7725 36.7082 47.9828 36.7082C32.1935 36.7082 19.3482 41.9878 19.3482 48.4775Z" fill="#4B4B4B"/>
<path d="M48.0261 78.2679C41.1781 78.2679 35.6068 64.913 35.6068 48.4974C35.6068 32.0822 41.1781 18.7273 48.0261 18.7273C54.8741 18.7273 60.4452 32.0822 60.4452 48.4974C60.4452 64.913 54.8741 78.2679 48.0261 78.2679ZM48.0261 20.0748C41.488 20.0748 36.1689 32.825 36.1689 48.4974C36.1689 64.1702 41.488 76.9204 48.0261 76.9204C54.5642 76.9204 59.8831 64.1702 59.8831 48.4974C59.8831 32.825 54.5642 20.0748 48.0261 20.0748Z" fill="#4B4B4B"/>
<path d="M47.9491 78.3092C31.4088 78.3092 17.9522 64.8548 17.9522 48.3168C17.9522 31.7791 31.4088 18.3246 47.9491 18.3246C64.4893 18.3246 77.9456 31.7791 77.9456 48.3168C77.9456 64.8548 64.4893 78.3092 47.9491 78.3092ZM47.9491 19.6822C32.1573 19.6822 19.3099 32.5275 19.3099 48.3168C19.3099 64.1064 32.1573 76.9517 47.9491 76.9517C63.7409 76.9517 76.5879 64.1064 76.5879 48.3168C76.5879 32.5275 63.7409 19.6822 47.9491 19.6822Z" fill="#4B4B4B"/>
<path d="M47.9605 78.0666C36.0209 78.0666 26.3072 64.7117 26.3072 48.2961C26.3072 31.8808 36.0209 18.526 47.9605 18.526C59.9 18.526 69.6134 31.8808 69.6134 48.2961C69.6134 64.7117 59.9 78.0666 47.9605 78.0666ZM47.9605 19.8734C36.5612 19.8734 27.2873 32.6237 27.2873 48.2961C27.2873 63.9689 36.5612 76.7191 47.9605 76.7191C59.3598 76.7191 68.6334 63.9689 68.6334 48.2961C68.6334 32.6237 59.3598 19.8734 47.9605 19.8734Z" fill="#4B4B4B"/>
<path d="M77.9368 48.271C77.9368 60.1222 64.4823 69.7639 47.9443 69.7639C31.4066 69.7639 17.9521 60.1222 17.9521 48.271C17.9521 36.4198 31.4066 26.7783 47.9443 26.7783C64.4823 26.7783 77.9368 36.4198 77.9368 48.271ZM19.3097 48.271C19.3097 59.5859 32.155 68.7911 47.9443 68.7911C63.7339 68.7911 76.5792 59.5859 76.5792 48.271C76.5792 36.9561 63.7339 27.7511 47.9443 27.7511C32.155 27.7511 19.3097 36.9561 19.3097 48.271Z" fill="#4B4B4B"/>
<path d="M77.9368 48.2762C77.9368 55.0735 64.4823 60.6035 47.9443 60.6035C31.4066 60.6035 17.9521 55.0735 17.9521 48.2762C17.9521 41.4789 31.4066 35.949 47.9443 35.949C64.4823 35.949 77.9368 41.4789 77.9368 48.2762ZM19.3097 48.2762C19.3097 54.7659 32.155 60.0456 47.9443 60.0456C63.7339 60.0456 76.5792 54.7659 76.5792 48.2762C76.5792 41.7865 63.7339 36.5069 47.9443 36.5069C32.155 36.5069 19.3097 41.7865 19.3097 48.2762Z" fill="#4B4B4B"/>
<path d="M47.9876 78.0666C41.1396 78.0666 35.5683 64.7117 35.5683 48.2961C35.5683 31.8808 41.1396 18.526 47.9876 18.526C54.8356 18.526 60.4067 31.8808 60.4067 48.2961C60.4067 64.7117 54.8355 78.0666 47.9876 78.0666ZM47.9876 19.8734C41.4494 19.8734 36.1304 32.6237 36.1304 48.2961C36.1304 63.9689 41.4494 76.7191 47.9876 76.7191C54.5257 76.7191 59.8446 63.9689 59.8446 48.2961C59.8446 32.6237 54.5257 19.8734 47.9876 19.8734Z" fill="#4B4B4B"/>
<path d="M47.9491 78.3092C31.4088 78.3092 17.9522 64.8548 17.9522 48.3168C17.9522 31.7791 31.4088 18.3246 47.9491 18.3246C64.4893 18.3246 77.9456 31.7791 77.9456 48.3168C77.9456 64.8548 64.4893 78.3092 47.9491 78.3092ZM47.9491 19.6822C32.1573 19.6822 19.3099 32.5275 19.3099 48.3168C19.3099 64.1064 32.1573 76.9517 47.9491 76.9517C63.7409 76.9517 76.5879 64.1064 76.5879 48.3168C76.5879 32.5275 63.7409 19.6822 47.9491 19.6822Z" fill="#4B4B4B"/>
<path d="M47.9605 78.0666C36.0209 78.0666 26.3072 64.7117 26.3072 48.2961C26.3072 31.8808 36.0209 18.526 47.9605 18.526C59.9 18.526 69.6134 31.8808 69.6134 48.2961C69.6134 64.7117 59.9 78.0666 47.9605 78.0666ZM47.9605 19.8734C36.5612 19.8734 27.2873 32.6237 27.2873 48.2961C27.2873 63.9689 36.5612 76.7191 47.9605 76.7191C59.3598 76.7191 68.6334 63.9689 68.6334 48.2961C68.6334 32.6237 59.3598 19.8734 47.9605 19.8734Z" fill="#4B4B4B"/>
<path d="M77.9368 48.271C77.9368 60.1222 64.4823 69.7639 47.9443 69.7639C31.4066 69.7639 17.9521 60.1222 17.9521 48.271C17.9521 36.4198 31.4066 26.7783 47.9443 26.7783C64.4823 26.7783 77.9368 36.4198 77.9368 48.271ZM19.3097 48.271C19.3097 59.5859 32.155 68.7911 47.9443 68.7911C63.7339 68.7911 76.5792 59.5859 76.5792 48.271C76.5792 36.9561 63.7339 27.7511 47.9443 27.7511C32.155 27.7511 19.3097 36.9561 19.3097 48.271Z" fill="#4B4B4B"/>
<path d="M77.9368 48.2762C77.9368 55.0735 64.4823 60.6035 47.9443 60.6035C31.4066 60.6035 17.9521 55.0735 17.9521 48.2762C17.9521 41.4789 31.4066 35.949 47.9443 35.949C64.4823 35.949 77.9368 41.4789 77.9368 48.2762ZM19.3097 48.2762C19.3097 54.7659 32.155 60.0456 47.9443 60.0456C63.7339 60.0456 76.5792 54.7659 76.5792 48.2762C76.5792 41.7865 63.7339 36.5069 47.9443 36.5069C32.155 36.5069 19.3097 41.7865 19.3097 48.2762Z" fill="#4B4B4B"/>
<path d="M47.9876 78.0666C41.1396 78.0666 35.5683 64.7117 35.5683 48.2961C35.5683 31.8808 41.1396 18.526 47.9876 18.526C54.8356 18.526 60.4067 31.8808 60.4067 48.2961C60.4067 64.7117 54.8355 78.0666 47.9876 78.0666ZM47.9876 19.8734C41.4494 19.8734 36.1304 32.6237 36.1304 48.2961C36.1304 63.9689 41.4494 76.7191 47.9876 76.7191C54.5257 76.7191 59.8446 63.9689 59.8446 48.2961C59.8446 32.6237 54.5257 19.8734 47.9876 19.8734Z" fill="#4B4B4B"/>
<path d="M47.9491 78.3092C31.4088 78.3092 17.9522 64.8548 17.9522 48.3168C17.9522 31.7791 31.4088 18.3246 47.9491 18.3246C64.4893 18.3246 77.9456 31.7791 77.9456 48.3168C77.9456 64.8548 64.4893 78.3092 47.9491 78.3092ZM47.9491 19.6822C32.1573 19.6822 19.3099 32.5275 19.3099 48.3168C19.3099 64.1064 32.1573 76.9517 47.9491 76.9517C63.7409 76.9517 76.5879 64.1064 76.5879 48.3168C76.5879 32.5275 63.7409 19.6822 47.9491 19.6822Z" fill="#4B4B4B"/>
<path d="M47.9605 78.0666C36.0209 78.0666 26.3072 64.7117 26.3072 48.2961C26.3072 31.8808 36.0209 18.526 47.9605 18.526C59.9 18.526 69.6134 31.8808 69.6134 48.2961C69.6134 64.7117 59.9 78.0666 47.9605 78.0666ZM47.9605 19.8734C36.5612 19.8734 27.2873 32.6237 27.2873 48.2961C27.2873 63.9689 36.5612 76.7191 47.9605 76.7191C59.3598 76.7191 68.6334 63.9689 68.6334 48.2961C68.6334 32.6237 59.3598 19.8734 47.9605 19.8734Z" fill="#4B4B4B"/>
<path d="M77.9368 48.271C77.9368 60.1222 64.4823 69.7639 47.9443 69.7639C31.4066 69.7639 17.9521 60.1222 17.9521 48.271C17.9521 36.4198 31.4066 26.7783 47.9443 26.7783C64.4823 26.7783 77.9368 36.4198 77.9368 48.271ZM19.3097 48.271C19.3097 59.5859 32.155 68.7911 47.9443 68.7911C63.7339 68.7911 76.5792 59.5859 76.5792 48.271C76.5792 36.9561 63.7339 27.7511 47.9443 27.7511C32.155 27.7511 19.3097 36.9561 19.3097 48.271Z" fill="#4B4B4B"/>
<path d="M77.9368 48.2762C77.9368 55.0735 64.4823 60.6035 47.9443 60.6035C31.4066 60.6035 17.9521 55.0735 17.9521 48.2762C17.9521 41.4789 31.4066 35.949 47.9443 35.949C64.4823 35.949 77.9368 41.4789 77.9368 48.2762ZM19.3097 48.2762C19.3097 54.7659 32.155 60.0456 47.9443 60.0456C63.7339 60.0456 76.5792 54.7659 76.5792 48.2762C76.5792 41.7865 63.7339 36.5069 47.9443 36.5069C32.155 36.5069 19.3097 41.7865 19.3097 48.2762Z" fill="#4B4B4B"/>
<path d="M47.9876 78.0666C41.1396 78.0666 35.5683 64.7117 35.5683 48.2961C35.5683 31.8808 41.1396 18.526 47.9876 18.526C54.8356 18.526 60.4067 31.8808 60.4067 48.2961C60.4067 64.7117 54.8355 78.0666 47.9876 78.0666ZM47.9876 19.8734C41.4494 19.8734 36.1304 32.6237 36.1304 48.2961C36.1304 63.9689 41.4494 76.7191 47.9876 76.7191C54.5257 76.7191 59.8446 63.9689 59.8446 48.2961C59.8446 32.6237 54.5257 19.8734 47.9876 19.8734Z" fill="#4B4B4B"/>
<path d="M47.9491 78.3092C31.4088 78.3092 17.9522 64.8548 17.9522 48.3168C17.9522 31.7791 31.4088 18.3246 47.9491 18.3246C64.4893 18.3246 77.9456 31.7791 77.9456 48.3168C77.9456 64.8548 64.4893 78.3092 47.9491 78.3092ZM47.9491 19.6822C32.1573 19.6822 19.3099 32.5275 19.3099 48.3168C19.3099 64.1064 32.1573 76.9517 47.9491 76.9517C63.7409 76.9517 76.5879 64.1064 76.5879 48.3168C76.5879 32.5275 63.7409 19.6822 47.9491 19.6822Z" fill="#4B4B4B"/>
<path d="M47.9605 78.0666C36.0209 78.0666 26.3072 64.7117 26.3072 48.2961C26.3072 31.8808 36.0209 18.526 47.9605 18.526C59.9 18.526 69.6134 31.8808 69.6134 48.2961C69.6134 64.7117 59.9 78.0666 47.9605 78.0666ZM47.9605 19.8734C36.5612 19.8734 27.2873 32.6237 27.2873 48.2961C27.2873 63.9689 36.5612 76.7191 47.9605 76.7191C59.3598 76.7191 68.6334 63.9689 68.6334 48.2961C68.6334 32.6237 59.3598 19.8734 47.9605 19.8734Z" fill="#4B4B4B"/>
<path d="M77.9368 48.271C77.9368 60.1222 64.4823 69.7639 47.9443 69.7639C31.4066 69.7639 17.9521 60.1222 17.9521 48.271C17.9521 36.4198 31.4066 26.7783 47.9443 26.7783C64.4823 26.7783 77.9368 36.4198 77.9368 48.271ZM19.3097 48.271C19.3097 59.5859 32.155 68.7911 47.9443 68.7911C63.7339 68.7911 76.5792 59.5859 76.5792 48.271C76.5792 36.9561 63.7339 27.7511 47.9443 27.7511C32.155 27.7511 19.3097 36.9561 19.3097 48.271Z" fill="#4B4B4B"/>
<path d="M77.9368 48.2762C77.9368 55.0735 64.4823 60.6035 47.9443 60.6035C31.4066 60.6035 17.9521 55.0735 17.9521 48.2762C17.9521 41.4789 31.4066 35.949 47.9443 35.949C64.4823 35.949 77.9368 41.4789 77.9368 48.2762ZM19.3097 48.2762C19.3097 54.7659 32.155 60.0456 47.9443 60.0456C63.7339 60.0456 76.5792 54.7659 76.5792 48.2762C76.5792 41.7865 63.7339 36.5069 47.9443 36.5069C32.155 36.5069 19.3097 41.7865 19.3097 48.2762Z" fill="#4B4B4B"/>
<path d="M47.9876 78.0666C41.1396 78.0666 35.5683 64.7117 35.5683 48.2961C35.5683 31.8808 41.1396 18.526 47.9876 18.526C54.8356 18.526 60.4067 31.8808 60.4067 48.2961C60.4067 64.7117 54.8355 78.0666 47.9876 78.0666ZM47.9876 19.8734C41.4494 19.8734 36.1304 32.6237 36.1304 48.2961C36.1304 63.9689 41.4494 76.7191 47.9876 76.7191C54.5257 76.7191 59.8446 63.9689 59.8446 48.2961C59.8446 32.6237 54.5257 19.8734 47.9876 19.8734Z" fill="#4B4B4B"/>
</svg>
