<svg width="68" height="138" viewBox="0 0 68 138" fill="none" xmlns="http://www.w3.org/2000/svg">
<path d="M-0.955231 138C-38.9775 138 -69.9112 107.15 -69.9112 69.2304C-69.9112 31.3112 -38.9775 0.461599 -0.955231 0.461599C37.0671 0.461599 68 31.3112 68 69.2304C68 107.15 37.0671 138 -0.955231 138ZM-0.955231 3.57423C-37.257 3.57423 -66.7902 33.0271 -66.7902 69.2304C-66.7902 105.434 -37.257 134.887 -0.955231 134.887C35.3465 134.887 64.879 105.434 64.879 69.2304C64.879 33.0271 35.3465 3.57423 -0.955231 3.57423Z" fill="white"/>
<path d="M-0.929054 137.444C-28.3754 137.444 -50.7049 106.822 -50.7049 69.183C-50.7049 31.5445 -28.3754 0.923245 -0.929054 0.923245C26.5173 0.923245 48.8462 31.5445 48.8462 69.183C48.8462 106.822 26.5173 137.444 -0.929054 137.444ZM-0.929054 4.01283C-27.1335 4.01283 -48.452 33.2477 -48.452 69.183C-48.452 105.119 -27.1335 134.354 -0.929054 134.354C25.2754 134.354 46.5933 105.119 46.5933 69.183C46.5933 33.2477 25.2754 4.01283 -0.929054 4.01283Z" fill="white"/>
<path d="M67.9797 69.1255C67.9797 96.299 37.0509 118.406 -0.966232 118.406C-38.9826 118.406 -69.9114 96.299 -69.9114 69.1255C-69.9114 41.9519 -38.9826 19.845 -0.966232 19.845C37.0509 19.845 67.9797 41.9519 67.9797 69.1255ZM-66.7908 69.1255C-66.7908 95.0694 -37.2623 116.176 -0.966232 116.176C35.3307 116.176 64.8591 95.0694 64.8591 69.1255C64.8591 43.1815 35.3307 22.0755 -0.966232 22.0755C-37.2623 22.0755 -66.7908 43.1815 -66.7908 69.1255Z" fill="white"/>
<path d="M67.9797 69.1373C67.9797 84.7228 37.0509 97.4026 -0.966232 97.4026C-38.9826 97.4026 -69.9114 84.7228 -69.9114 69.1373C-69.9114 53.5519 -38.9826 40.8723 -0.966232 40.8723C37.0509 40.8723 67.9797 53.5519 67.9797 69.1373ZM-66.7908 69.1373C-66.7908 84.0175 -37.2623 96.1233 -0.966232 96.1233C35.3307 96.1233 64.8591 84.0175 64.8591 69.1373C64.8591 54.2571 35.3307 42.1517 -0.966232 42.1517C-37.2623 42.1517 -66.7908 54.2571 -66.7908 69.1373Z" fill="white"/>
<path d="M-0.866768 137.444C-16.6087 137.444 -29.4159 106.822 -29.4159 69.183C-29.4159 31.5445 -16.6087 0.923245 -0.866768 0.923245C14.8752 0.923245 27.682 31.5445 27.682 69.183C27.682 106.822 14.8752 137.444 -0.866768 137.444ZM-0.866768 4.01283C-15.8964 4.01283 -28.1237 33.2477 -28.1237 69.183C-28.1237 105.119 -15.8964 134.354 -0.866768 134.354C14.1629 134.354 26.3899 105.119 26.3899 69.183C26.3899 33.2477 14.1629 4.01283 -0.866768 4.01283Z" fill="white"/>
<path d="M-1.04382 137.538C-39.0661 137.538 -69.9998 106.689 -69.9998 68.7688C-69.9998 30.8496 -39.0661 0 -1.04382 0C36.9785 0 67.9114 30.8496 67.9114 68.7688C67.9114 106.689 36.9785 137.538 -1.04382 137.538ZM-1.04382 3.11263C-37.3456 3.11263 -66.8788 32.5655 -66.8788 68.7688C-66.8788 104.973 -37.3456 134.426 -1.04382 134.426C35.2579 134.426 64.7904 104.973 64.7904 68.7688C64.7904 32.5655 35.2579 3.11263 -1.04382 3.11263Z" fill="white"/>
<path d="M-1.01765 136.982C-28.464 136.982 -50.7935 106.361 -50.7935 68.7214C-50.7935 31.0829 -28.464 0.461646 -1.01765 0.461646C26.4287 0.461646 48.7577 31.0829 48.7577 68.7214C48.7577 106.361 26.4287 136.982 -1.01765 136.982ZM-1.01765 3.55123C-27.2221 3.55123 -48.5406 32.7861 -48.5406 68.7214C-48.5406 104.657 -27.2221 133.892 -1.01765 133.892C25.1868 133.892 46.5047 104.657 46.5047 68.7214C46.5047 32.7861 25.1868 3.55123 -1.01765 3.55123Z" fill="white"/>
<path d="M67.8911 68.6639C67.8911 95.8374 36.9624 117.945 -1.05482 117.945C-39.0712 117.945 -70 95.8374 -70 68.6639C-70 41.4903 -39.0712 19.3834 -1.05482 19.3834C36.9624 19.3834 67.8911 41.4903 67.8911 68.6639ZM-66.8794 68.6639C-66.8794 94.6078 -37.3509 115.714 -1.05482 115.714C35.2421 115.714 64.7705 94.6078 64.7705 68.6639C64.7705 42.7199 35.2421 21.6139 -1.05482 21.6139C-37.3509 21.6139 -66.8794 42.7199 -66.8794 68.6639Z" fill="white"/>
<path d="M67.8911 68.6757C67.8911 84.2612 36.9624 96.941 -1.05482 96.941C-39.0712 96.941 -70 84.2612 -70 68.6757C-70 53.0903 -39.0712 40.4107 -1.05482 40.4107C36.9624 40.4107 67.8911 53.0903 67.8911 68.6757ZM-66.8794 68.6757C-66.8794 83.556 -37.3509 95.6617 -1.05482 95.6617C35.2421 95.6617 64.7705 83.556 64.7705 68.6757C64.7705 53.7955 35.2421 41.6901 -1.05482 41.6901C-37.3509 41.6901 -66.8794 53.7955 -66.8794 68.6757Z" fill="white"/>
<path d="M-0.95536 136.982C-16.6973 136.982 -29.5045 106.361 -29.5045 68.7214C-29.5045 31.0829 -16.6972 0.461599 -0.955231 0.461599C14.7867 0.461599 27.5934 31.0829 27.5934 68.7214C27.5934 106.361 14.7866 136.982 -0.95536 136.982ZM-0.95536 3.55123C-15.985 3.55123 -28.2123 32.7861 -28.2123 68.7214C-28.2123 104.657 -15.985 133.892 -0.95536 133.892C14.0743 133.892 26.3013 104.657 26.3013 68.7214C26.3013 32.7861 14.0743 3.55123 -0.95536 3.55123Z" fill="white"/>
<path d="M-1.04382 137.538C-39.0661 137.538 -69.9998 106.689 -69.9998 68.7688C-69.9998 30.8496 -39.0661 0 -1.04382 0C36.9785 0 67.9114 30.8496 67.9114 68.7688C67.9114 106.689 36.9785 137.538 -1.04382 137.538ZM-1.04382 3.11263C-37.3456 3.11263 -66.8788 32.5655 -66.8788 68.7688C-66.8788 104.973 -37.3456 134.426 -1.04382 134.426C35.2579 134.426 64.7904 104.973 64.7904 68.7688C64.7904 32.5655 35.2579 3.11263 -1.04382 3.11263Z" fill="white"/>
<path d="M-1.01765 136.982C-28.464 136.982 -50.7935 106.361 -50.7935 68.7214C-50.7935 31.0829 -28.464 0.461646 -1.01765 0.461646C26.4287 0.461646 48.7577 31.0829 48.7577 68.7214C48.7577 106.361 26.4287 136.982 -1.01765 136.982ZM-1.01765 3.55123C-27.2221 3.55123 -48.5406 32.7861 -48.5406 68.7214C-48.5406 104.657 -27.2221 133.892 -1.01765 133.892C25.1868 133.892 46.5047 104.657 46.5047 68.7214C46.5047 32.7861 25.1868 3.55123 -1.01765 3.55123Z" fill="white"/>
<path d="M67.8911 68.6639C67.8911 95.8374 36.9624 117.945 -1.05482 117.945C-39.0712 117.945 -70 95.8374 -70 68.6639C-70 41.4903 -39.0712 19.3834 -1.05482 19.3834C36.9624 19.3834 67.8911 41.4903 67.8911 68.6639ZM-66.8794 68.6639C-66.8794 94.6078 -37.3509 115.714 -1.05482 115.714C35.2421 115.714 64.7705 94.6078 64.7705 68.6639C64.7705 42.7199 35.2421 21.6139 -1.05482 21.6139C-37.3509 21.6139 -66.8794 42.7199 -66.8794 68.6639Z" fill="white"/>
<path d="M67.8911 68.6757C67.8911 84.2612 36.9624 96.941 -1.05482 96.941C-39.0712 96.941 -70 84.2612 -70 68.6757C-70 53.0903 -39.0712 40.4107 -1.05482 40.4107C36.9624 40.4107 67.8911 53.0903 67.8911 68.6757ZM-66.8794 68.6757C-66.8794 83.556 -37.3509 95.6617 -1.05482 95.6617C35.2421 95.6617 64.7705 83.556 64.7705 68.6757C64.7705 53.7955 35.2421 41.6901 -1.05482 41.6901C-37.3509 41.6901 -66.8794 53.7955 -66.8794 68.6757Z" fill="white"/>
<path d="M-0.95536 136.982C-16.6973 136.982 -29.5045 106.361 -29.5045 68.7214C-29.5045 31.0829 -16.6972 0.461599 -0.955231 0.461599C14.7867 0.461599 27.5934 31.0829 27.5934 68.7214C27.5934 106.361 14.7866 136.982 -0.95536 136.982ZM-0.95536 3.55123C-15.985 3.55123 -28.2123 32.7861 -28.2123 68.7214C-28.2123 104.657 -15.985 133.892 -0.95536 133.892C14.0743 133.892 26.3013 104.657 26.3013 68.7214C26.3013 32.7861 14.0743 3.55123 -0.95536 3.55123Z" fill="white"/>
<path d="M-1.04382 137.538C-39.0661 137.538 -69.9998 106.689 -69.9998 68.7688C-69.9998 30.8496 -39.0661 0 -1.04382 0C36.9785 0 67.9114 30.8496 67.9114 68.7688C67.9114 106.689 36.9785 137.538 -1.04382 137.538ZM-1.04382 3.11263C-37.3456 3.11263 -66.8788 32.5655 -66.8788 68.7688C-66.8788 104.973 -37.3456 134.426 -1.04382 134.426C35.2579 134.426 64.7904 104.973 64.7904 68.7688C64.7904 32.5655 35.2579 3.11263 -1.04382 3.11263Z" fill="white"/>
<path d="M-1.01765 136.982C-28.464 136.982 -50.7935 106.361 -50.7935 68.7214C-50.7935 31.0829 -28.464 0.461646 -1.01765 0.461646C26.4287 0.461646 48.7577 31.0829 48.7577 68.7214C48.7577 106.361 26.4287 136.982 -1.01765 136.982ZM-1.01765 3.55123C-27.2221 3.55123 -48.5406 32.7861 -48.5406 68.7214C-48.5406 104.657 -27.2221 133.892 -1.01765 133.892C25.1868 133.892 46.5047 104.657 46.5047 68.7214C46.5047 32.7861 25.1868 3.55123 -1.01765 3.55123Z" fill="white"/>
<path d="M67.8911 68.6639C67.8911 95.8374 36.9624 117.945 -1.05482 117.945C-39.0712 117.945 -70 95.8374 -70 68.6639C-70 41.4903 -39.0712 19.3834 -1.05482 19.3834C36.9624 19.3834 67.8911 41.4903 67.8911 68.6639ZM-66.8794 68.6639C-66.8794 94.6078 -37.3509 115.714 -1.05482 115.714C35.2421 115.714 64.7705 94.6078 64.7705 68.6639C64.7705 42.7199 35.2421 21.6139 -1.05482 21.6139C-37.3509 21.6139 -66.8794 42.7199 -66.8794 68.6639Z" fill="white"/>
<path d="M67.8911 68.6757C67.8911 84.2612 36.9624 96.941 -1.05482 96.941C-39.0712 96.941 -70 84.2612 -70 68.6757C-70 53.0903 -39.0712 40.4107 -1.05482 40.4107C36.9624 40.4107 67.8911 53.0903 67.8911 68.6757ZM-66.8794 68.6757C-66.8794 83.556 -37.3509 95.6617 -1.05482 95.6617C35.2421 95.6617 64.7705 83.556 64.7705 68.6757C64.7705 53.7955 35.2421 41.6901 -1.05482 41.6901C-37.3509 41.6901 -66.8794 53.7955 -66.8794 68.6757Z" fill="white"/>
<path d="M-0.95536 136.982C-16.6973 136.982 -29.5045 106.361 -29.5045 68.7214C-29.5045 31.0829 -16.6972 0.461599 -0.955231 0.461599C14.7867 0.461599 27.5934 31.0829 27.5934 68.7214C27.5934 106.361 14.7866 136.982 -0.95536 136.982ZM-0.95536 3.55123C-15.985 3.55123 -28.2123 32.7861 -28.2123 68.7214C-28.2123 104.657 -15.985 133.892 -0.95536 133.892C14.0743 133.892 26.3013 104.657 26.3013 68.7214C26.3013 32.7861 14.0743 3.55123 -0.95536 3.55123Z" fill="white"/>
<path d="M-1.04382 137.538C-39.0661 137.538 -69.9998 106.689 -69.9998 68.7688C-69.9998 30.8496 -39.0661 0 -1.04382 0C36.9785 0 67.9114 30.8496 67.9114 68.7688C67.9114 106.689 36.9785 137.538 -1.04382 137.538ZM-1.04382 3.11263C-37.3456 3.11263 -66.8788 32.5655 -66.8788 68.7688C-66.8788 104.973 -37.3456 134.426 -1.04382 134.426C35.2579 134.426 64.7904 104.973 64.7904 68.7688C64.7904 32.5655 35.2579 3.11263 -1.04382 3.11263Z" fill="white"/>
<path d="M-1.01765 136.982C-28.464 136.982 -50.7935 106.361 -50.7935 68.7214C-50.7935 31.0829 -28.464 0.461646 -1.01765 0.461646C26.4287 0.461646 48.7577 31.0829 48.7577 68.7214C48.7577 106.361 26.4287 136.982 -1.01765 136.982ZM-1.01765 3.55123C-27.2221 3.55123 -48.5406 32.7861 -48.5406 68.7214C-48.5406 104.657 -27.2221 133.892 -1.01765 133.892C25.1868 133.892 46.5047 104.657 46.5047 68.7214C46.5047 32.7861 25.1868 3.55123 -1.01765 3.55123Z" fill="white"/>
<path d="M67.8911 68.6639C67.8911 95.8374 36.9624 117.945 -1.05482 117.945C-39.0712 117.945 -70 95.8374 -70 68.6639C-70 41.4903 -39.0712 19.3834 -1.05482 19.3834C36.9624 19.3834 67.8911 41.4903 67.8911 68.6639ZM-66.8794 68.6639C-66.8794 94.6078 -37.3509 115.714 -1.05482 115.714C35.2421 115.714 64.7705 94.6078 64.7705 68.6639C64.7705 42.7199 35.2421 21.6139 -1.05482 21.6139C-37.3509 21.6139 -66.8794 42.7199 -66.8794 68.6639Z" fill="white"/>
<path d="M67.8911 68.6757C67.8911 84.2612 36.9624 96.941 -1.05482 96.941C-39.0712 96.941 -70 84.2612 -70 68.6757C-70 53.0903 -39.0712 40.4107 -1.05482 40.4107C36.9624 40.4107 67.8911 53.0903 67.8911 68.6757ZM-66.8794 68.6757C-66.8794 83.556 -37.3509 95.6617 -1.05482 95.6617C35.2421 95.6617 64.7705 83.556 64.7705 68.6757C64.7705 53.7955 35.2421 41.6901 -1.05482 41.6901C-37.3509 41.6901 -66.8794 53.7955 -66.8794 68.6757Z" fill="white"/>
<path d="M-0.95536 136.982C-16.6973 136.982 -29.5045 106.361 -29.5045 68.7214C-29.5045 31.0829 -16.6972 0.461599 -0.955231 0.461599C14.7867 0.461599 27.5934 31.0829 27.5934 68.7214C27.5934 106.361 14.7866 136.982 -0.95536 136.982ZM-0.95536 3.55123C-15.985 3.55123 -28.2123 32.7861 -28.2123 68.7214C-28.2123 104.657 -15.985 133.892 -0.95536 133.892C14.0743 133.892 26.3013 104.657 26.3013 68.7214C26.3013 32.7861 14.0743 3.55123 -0.95536 3.55123Z" fill="white"/>
</svg>
