<svg xmlns="http://www.w3.org/2000/svg" viewBox="0 0 288.272 400"><defs><style>.cls-1{fill:#a6a8ab;}</style></defs><g id="Layer_2" data-name="Layer 2"><g id="Layer_1-2" data-name="Layer 1"><path class="cls-1" d="M74.663.391h40.242V59.627h21.91V1.188c3.521-1.24,32.979-1.613,40.388-.62.635,9.786.2,19.691.276,29.579.079,9.962.018,19.925.018,30.354,4.47.679,8.765,1.284,13.043,1.989,14.236,2.347,28.062,6.078,41.092,12.413a79.342,79.342,0,0,1,21.58,14.982c9.925,9.869,15.052,21.906,15.873,35.743,1.42,23.924-7.528,43.163-26.618,57.672-.579.44-1.135.909-1.682,1.386-.086.075-.067.269-.145.642,1.54.611,3.123,1.234,4.7,1.864a68,68,0,0,1,42.7,69.117c-.77,9.54-1.953,18.961-4.987,28.057-7.5,22.489-22.745,37.514-44.67,46.018-15.8,6.128-32.323,8.171-49.119,8.62-3.508.094-7.022.014-11.048.014-.654,10.286-.215,20.332-.3,30.36-.081,10.1-.018,20.193-.018,30.618H138.677V339.414H116.63c-.025,9.96-.059,20-.072,30.038-.012,10.077,0,20.154,0,30.548H76.132V339.276H3.452c-.195-14.339-.05-28.158-.091-42.3,1.724-.144,2.983-.336,4.242-.34,8.068-.029,16.135.011,24.2-.023,9.119-.038,13.453-3.994,14.344-13.082.157-1.6.133-3.224.133-4.836q.009-81.411,0-162.822c0-1.173.03-2.351-.064-3.518-.383-4.724-2.657-8.173-7.363-9.265A54.448,54.448,0,0,0,28,101.741c-7.769-.2-15.547-.064-23.321-.066H0V60.15H74.663Zm40.633,291.7a15.876,15.876,0,0,0,2.159.348c15.837-.06,31.689.244,47.5-.393a76.151,76.151,0,0,0,20.166-3.977c19.824-6.449,28.122-21.091,28.182-40.4a23.7,23.7,0,0,0-10.037-20.077,54.929,54.929,0,0,0-11.481-6.352,77.275,77.275,0,0,0-28.35-5.39c-14.809-.19-29.622-.067-44.434-.049-1.247,0-2.494.219-3.708.334Zm.034-117.767h4.678c12.617,0,25.234.032,37.851-.01,18.416-.06,32.931-11.845,35.774-29.987,2.62-16.716-2.719-28.227-19.05-34.766a69.823,69.823,0,0,0-13.527-3.708c-14.827-2.669-29.823-1.624-44.767-1.6-.245,0-.489.261-.959.529Z"/></g></g></svg>