<svg width="635" height="475" viewBox="0 0 635 475" fill="none" xmlns="http://www.w3.org/2000/svg">
<path d="M232.6 236C231.8 249.9 242.5 261.8 256.4 262.6C256.9 262.6 257.4 262.6 257.9 262.6C271.9 262.6 283.2 251.3 283.1 237.3C283.1 223.3 271.8 212 257.8 212.1C244.4 212.1 233.3 222.6 232.6 236Z" fill="#A6A8AB"/>
<path d="M138.4 229.5C133.9 229.2 130 232.7 129.8 237.2C129.6 241.7 133 245.6 137.5 245.8C142 246.1 145.8 242.6 146.1 238.1C146.4 233.6 142.9 229.8 138.4 229.5Z" fill="#A6A8AB"/>
<path d="M231 89.4C235 87.4 236.6 82.4 234.6 78.4C232.6 74.4 227.6 72.8 223.6 74.8C219.6 76.8 218 81.7 220 85.7C222 89.8 226.9 91.5 231 89.4C231 89.4 230.9 89.4 231 89.4Z" fill="#A6A8AB"/>
<path d="M256.6 134.1C262.8 131 265.3 123.4 262.2 117.2C259.1 111 251.5 108.5 245.3 111.6C239.1 114.7 236.6 122.3 239.7 128.5C242.8 134.7 250.4 137.2 256.6 134.1Z" fill="#A6A8AB"/>
<path d="M170.4 164.8C175.2 167.9 181.6 166.6 184.8 161.8C187.9 157 186.6 150.6 181.8 147.4C177 144.3 170.6 145.6 167.4 150.4C164.2 155.2 165.6 161.7 170.4 164.8Z" fill="#A6A8AB"/>
<path d="M185.7 225C178.7 224.6 172.8 229.9 172.4 236.9C172 243.9 177.3 249.8 184.3 250.2C191.3 250.6 197.2 245.3 197.6 238.3C198 231.4 192.7 225.4 185.7 225Z" fill="#A6A8AB"/>
<path d="M171.8 309.7C166.7 312.3 164.6 318.5 167.2 323.7C169.8 328.8 176 330.9 181.2 328.3C186.3 325.7 188.4 319.5 185.8 314.3C183.2 309.2 176.9 307.1 171.8 309.7Z" fill="#A6A8AB"/>
<path d="M220.8 198.9C227.7 203.4 236.9 201.5 241.3 194.6C245.8 187.7 243.9 178.5 237 174.1C230.1 169.6 220.9 171.5 216.5 178.4C212 185.2 213.9 194.4 220.8 198.9Z" fill="#A6A8AB"/>
<path d="M376.3 133.1C382.1 136.9 390 135.3 393.8 129.5C397.6 123.7 396 115.8 390.2 112C384.4 108.2 376.5 109.8 372.7 115.6C368.8 121.5 370.4 129.3 376.3 133.1Z" fill="#A6A8AB"/>
<path d="M402.1 88.6C405.9 91.1 410.9 90 413.4 86.2C415.9 82.4 414.8 77.4 411 74.9C407.2 72.4 402.2 73.5 399.7 77.2C397.3 81 398.4 86.1 402.1 88.6Z" fill="#A6A8AB"/>
<path d="M378.2 211.9C364.3 211.1 352.3 221.8 351.6 235.7C350.8 249.6 361.5 261.6 375.4 262.3C375.9 262.3 376.4 262.3 376.8 262.3C390.7 262.3 402 251 402 237C402.1 223.7 391.6 212.6 378.2 211.9Z" fill="#A6A8AB"/>
<path d="M264.9 197.1C269.2 205.6 277.9 211 287.5 211C301.4 211 312.7 199.7 312.7 185.7C312.7 181.8 311.8 177.9 310 174.3C303.7 161.8 288.5 156.8 276.1 163.1C263.6 169.5 258.6 184.7 264.9 197.1Z" fill="#A6A8AB"/>
<path d="M462.8 164.8C467.9 162.2 469.9 155.9 467.3 150.8C464.7 145.7 458.4 143.7 453.3 146.3C448.2 148.9 446.2 155.1 448.7 160.2C451.4 165.3 457.6 167.4 462.8 164.8Z" fill="#A6A8AB"/>
<path d="M398.8 172.8C391.5 176.5 388.5 185.4 392.2 192.7C395.9 200 404.8 203 412.1 199.3C419.4 195.6 422.4 186.7 418.7 179.4C415 172.1 406.1 169.2 398.8 172.8Z" fill="#A6A8AB"/>
<path d="M316.3 84.8C322 85.1 326.9 80.7 327.3 75C327.7 69.3 323.2 64.4 317.5 64C311.8 63.7 306.9 68 306.5 73.7C306.2 79.5 310.6 84.4 316.3 84.8Z" fill="#A6A8AB"/>
<path d="M316.2 150.1C324.4 150.6 331.4 144.3 331.8 136.1C332.3 127.9 326 120.9 317.8 120.5C309.6 120 302.6 126.3 302.2 134.5C301.8 142.7 308 149.7 316.2 150.1Z" fill="#A6A8AB"/>
<path d="M235.8 301.7C243.1 298 246.1 289.1 242.4 281.8C238.7 274.5 229.8 271.5 222.5 275.2C215.2 278.9 212.2 287.8 215.9 295.1C219.6 302.4 228.5 305.4 235.8 301.7Z" fill="#A6A8AB"/>
<path d="M325.8 171.8C318.2 183.5 321.4 199.1 333.1 206.7C344.8 214.3 360.4 211.1 368 199.4C375.6 187.7 372.4 172.1 360.7 164.5C356.6 161.8 351.8 160.4 346.9 160.4C338.4 160.4 330.5 164.7 325.8 171.8Z" fill="#A6A8AB"/>
<path d="M369.7 277.4C363.4 264.9 348.2 259.9 335.8 266.2C323.3 272.5 318.3 287.7 324.6 300.1C330.9 312.6 346.1 317.6 358.5 311.3C370.9 305.1 376 290.1 369.8 277.6C369.8 277.5 369.8 277.5 369.7 277.4Z" fill="#A6A8AB"/>
<path d="M413.8 275.6C406.9 271.1 397.7 273 393.3 279.9C388.8 286.8 390.7 296 397.6 300.4C404.5 304.9 413.7 303 418.1 296.1C422.6 289.3 420.7 280.1 413.8 275.6Z" fill="#A6A8AB"/>
<path d="M462.2 237.7C462.6 230.7 457.3 224.8 450.3 224.4C443.3 224 437.4 229.3 437 236.3C436.6 243.3 441.9 249.2 448.9 249.6C455.8 250 461.8 244.6 462.2 237.7Z" fill="#A6A8AB"/>
<path d="M497.1 228.7C492.6 228.4 488.7 231.9 488.5 236.4C488.3 240.9 491.7 244.8 496.2 245C500.7 245.3 504.5 241.8 504.8 237.3C505 232.8 501.6 229 497.1 228.7Z" fill="#A6A8AB"/>
<path d="M464.2 309.7C459.4 306.6 453 307.9 449.8 312.7C446.7 317.5 448 323.9 452.8 327.1C457.6 330.2 464 328.9 467.2 324.1C470.4 319.3 469 312.8 464.2 309.7Z" fill="#A6A8AB"/>
<path d="M232.4 385.9C228.6 383.4 223.6 384.5 221.1 388.2C218.6 392 219.7 397 223.4 399.5C227.2 402 232.2 400.9 234.7 397.2C237.3 393.5 236.2 388.4 232.4 385.9Z" fill="#A6A8AB"/>
<path d="M403.6 385.1C399.6 387.1 398 392.1 400 396.1C402 400.1 407 401.7 411 399.7C415 397.7 416.6 392.8 414.6 388.8C412.6 384.7 407.7 383 403.6 385.1C403.6 385.1 403.7 385.1 403.6 385.1Z" fill="#A6A8AB"/>
<path d="M308.8 302.7C316.4 291 313.2 275.4 301.5 267.7C289.8 260.1 274.2 263.3 266.5 275C258.8 286.7 262.1 302.3 273.8 310C277.9 312.7 282.7 314.1 287.6 314.1C296.2 314.2 304.1 309.9 308.8 302.7Z" fill="#A6A8AB"/>
<path d="M258.3 341.4C252.5 337.6 244.6 339.2 240.8 345C237 350.8 238.6 358.7 244.4 362.5C250.2 366.3 258.1 364.7 261.9 358.9C265.8 353.1 264.2 345.2 258.3 341.4Z" fill="#A6A8AB"/>
<path d="M317.2 389.7C311.5 389.4 306.6 393.8 306.2 399.5C305.8 405.2 310.3 410.1 316 410.5C321.7 410.8 326.6 406.5 327 400.8C327.3 395 322.9 390.1 317.2 389.7Z" fill="#A6A8AB"/>
<path d="M317.3 324.4C309.1 323.9 302.1 330.2 301.7 338.4C301.2 346.6 307.5 353.6 315.7 354C323.9 354.4 330.9 348.2 331.3 340C331.8 331.9 325.5 324.8 317.3 324.4Z" fill="#A6A8AB"/>
<path d="M378 340.4C371.8 343.6 369.3 351.2 372.5 357.4C375.7 363.6 383.3 366.1 389.5 362.9C395.7 359.8 398.2 352.2 395.1 346C391.9 339.8 384.3 337.2 378 340.4Z" fill="#A6A8AB"/>
</svg>
