<svg width="560" height="400" viewBox="0 0 560 400" fill="none" xmlns="http://www.w3.org/2000/svg">
<path fill-rule="evenodd" clip-rule="evenodd" d="M280 50C362.86 50 430 117.14 430 200C430 282.86 362.86 350 280 350C197.14 350 130 282.86 130 200C130 117.14 197.14 50 280 50Z" fill="#A6A8AB"/>
<path fill-rule="evenodd" clip-rule="evenodd" d="M279.7 113.48C327.52 113.48 366.22 152.24 366.22 200C366.22 247.76 327.46 286.52 279.7 286.52C231.88 286.52 193.18 247.76 193.18 200C193.18 152.24 231.94 113.48 279.7 113.48V113.48Z" fill="#939597"/>
<path fill-rule="evenodd" clip-rule="evenodd" d="M280 71.9C281.02 71.9 282.34 72.38 283.84 73.76C285.4 75.2 287.02 77.42 288.7 80.6C292 86.9 295.06 96.2 297.64 107.96C302.8 131.42 306.04 163.94 306.04 199.94C306.04 235.94 302.8 268.52 297.64 291.92C295.06 303.68 292 312.98 288.7 319.28C287.08 322.46 285.4 324.68 283.84 326.12C282.28 327.56 281.02 327.98 280 327.98C278.98 327.98 277.66 327.5 276.16 326.12C274.6 324.68 272.98 322.46 271.3 319.28C268 312.98 264.94 303.68 262.36 291.92C257.2 268.46 253.96 235.94 253.96 199.94C253.96 163.94 257.2 131.36 262.36 107.96C264.94 96.2 268 86.9 271.3 80.6C272.92 77.42 274.6 75.2 276.16 73.76C277.72 72.38 278.98 71.9 280 71.9V71.9Z" stroke="#797A7B" stroke-width="5.868"/>
<path fill-rule="evenodd" clip-rule="evenodd" d="M391.72 135.8C392.26 136.7 392.5 138.08 392.02 140.12C391.54 142.22 390.4 144.74 388.54 147.74C384.7 153.74 378.16 161.12 369.28 169.28C351.52 185.54 324.88 204.68 293.62 222.74C262.3 240.8 232.42 254.3 209.44 261.5C197.92 265.1 188.32 267.14 181.18 267.38C177.64 267.5 174.82 267.2 172.78 266.6C170.8 266 169.72 265.1 169.18 264.2C168.64 263.3 168.4 261.92 168.88 259.88C169.36 257.78 170.5 255.26 172.36 252.26C176.2 246.26 182.74 238.88 191.62 230.72C209.38 214.46 236.02 195.32 267.28 177.26C298.54 159.2 328.48 145.7 351.46 138.5C362.98 134.9 372.58 132.86 379.72 132.62C383.26 132.5 386.08 132.8 388.12 133.4C390.1 134 391.18 134.9 391.72 135.8V135.8Z" stroke="#797A7B" stroke-width="5.868"/>
<path fill-rule="evenodd" clip-rule="evenodd" d="M388.12 266.6C390.1 266 391.18 265.1 391.72 264.2C392.26 263.3 392.5 261.92 392.02 259.88C391.54 257.78 390.4 255.26 388.54 252.26C384.7 246.26 378.16 238.88 369.28 230.72C351.52 214.46 324.88 195.32 293.62 177.26C262.36 159.2 232.42 145.7 209.44 138.5C197.92 134.9 188.32 132.86 181.18 132.62C177.64 132.5 174.82 132.8 172.78 133.4C170.8 134 169.72 134.9 169.18 135.8L388.12 266.6ZM388.12 266.6C386.08 267.26 383.32 267.5 379.72 267.38L388.12 266.6ZM388.12 266.6L379.72 267.38L388.12 266.6ZM379.72 267.44C372.58 267.14 362.98 265.16 351.46 261.56L379.72 267.44ZM379.72 267.44L351.46 261.56L379.72 267.44ZM351.46 261.5C328.48 254.3 298.6 240.8 267.28 222.74L351.46 261.5ZM351.46 261.5L267.28 222.74L351.46 261.5ZM267.34 222.74C236.02 204.68 209.44 185.54 191.68 169.28L267.34 222.74ZM267.34 222.74L191.68 169.28L267.34 222.74ZM191.62 169.28C182.74 161.12 176.2 153.8 172.36 147.74L191.62 169.28ZM191.62 169.28L172.36 147.74L191.62 169.28ZM172.36 147.74C170.44 144.74 169.3 142.16 168.88 140.12L172.36 147.74ZM172.36 147.74L168.88 140.12L172.36 147.74ZM168.88 140.12C168.4 138.08 168.64 136.7 169.18 135.8L168.88 140.12Z" stroke="#797A7B" stroke-width="5.868"/>
<path fill-rule="evenodd" clip-rule="evenodd" d="M196.48 163.22C201.58 163.22 205.72 167.36 205.72 172.46C205.72 177.56 201.58 181.7 196.48 181.7C191.38 181.7 187.24 177.56 187.24 172.46C187.24 167.36 191.38 163.22 196.48 163.22Z" fill="#B7B9C8"/>
<path fill-rule="evenodd" clip-rule="evenodd" d="M343.3 131.6C348.4 131.6 352.54 135.74 352.54 140.84C352.54 145.94 348.4 150.08 343.3 150.08C338.2 150.08 334.06 145.94 334.06 140.84C334.06 135.74 338.2 131.6 343.3 131.6Z" fill="#B7B9C8"/>
<path fill-rule="evenodd" clip-rule="evenodd" d="M261.82 276.62C266.92 276.62 271.06 280.76 271.06 285.86C271.06 290.96 266.92 295.1 261.82 295.1C256.72 295.1 252.58 290.96 252.58 285.86C252.58 280.76 256.72 276.62 261.82 276.62Z" fill="#B7B9C8"/>
<path fill-rule="evenodd" clip-rule="evenodd" d="M279.94 184.28C288.58 184.28 295.6 191.3 295.6 199.94C295.6 208.58 288.58 215.6 279.94 215.6C271.3 215.6 264.28 208.58 264.28 199.94C264.28 191.3 271.3 184.28 279.94 184.28Z" fill="#B7B9C8"/>
</svg>
