<svg xmlns="http://www.w3.org/2000/svg" viewBox="0 0 245.938 400"><defs><style>.cls-1{fill:#a6a8ab;}</style></defs><g id="Layer_2" data-name="Layer 2"><g id="Layer_1-2" data-name="Layer 1"><path class="cls-1" d="M0,203.853C40.868,136.044,81.62,68.425,122.858,0c10.887,17.348,20.834,34.378,31.09,51.213,10.311,16.923,20.441,33.956,30.659,50.936q15.228,25.3,30.473,50.6c10.214,16.941,20.441,33.874,30.858,51.135-2.393,1.521-4.376,2.858-6.431,4.074q-41.762,24.695-83.541,49.358c-10.017,5.917-20.075,11.767-30.033,17.782a5.05,5.05,0,0,1-5.949-.036q-41.05-24.39-82.193-48.627-17.5-10.34-35-20.672C1.937,205.256,1.15,204.644,0,203.853Z"/><path class="cls-1" d="M122.625,400,.52,227.94l.658-.8c40.537,23.82,80.966,47.828,121.775,71.879l121.955-71.981C243.942,230.362,126.952,395.65,122.625,400Z"/></g></g></svg>