<svg xmlns="http://www.w3.org/2000/svg" viewBox="0 0 435.445 400"><defs><style>.cls-1{fill:#a6a8ab;}</style></defs><g id="Layer_2" data-name="Layer 2"><g id="Layer_1-2" data-name="Layer 1"><path class="cls-1" d="M123.411,400c-1-.519-1.983-1.054-2.988-1.553-7.181-3.569-9.691-10.254-6.648-17.725.319-.782.634-1.566,1.115-2.754-2.353-3.4-4.8-7.006-7.308-10.56Q68.357,311.881,29.109,256.371c-9.129-12.91-18.236-25.837-27.488-38.659-1.786-2.475-2.141-4.585-.841-7.388q17.369-37.466,34.564-75.011Q58.418,85.087,81.459,34.844c.349-.761.646-1.546.937-2.247-6.612-8.673-6.5-16.63.207-21.553,7.041-5.169,14.4-2.933,21,6.661,3.7-.312,7.618-.61,11.53-.979,19.673-1.855,39.341-3.762,59.017-5.586,21.642-2.006,43.291-3.932,64.935-5.911Q263.747,2.973,288.4.651A8.986,8.986,0,0,0,290.361,0h11.864q20.341,28.923,40.687,57.844Q368.526,94.2,394.18,130.525c6.919,9.8,13.9,19.564,20.748,29.416,1.459,2.1,2.876,2.879,5.58,2.375a12.858,12.858,0,0,1,14.785,10.716,13.083,13.083,0,0,1-11.366,15.159c-1.52.184-3.065.172-4.951.268q-4.752,10.343-9.516,20.712-36.132,78.473-72.227,156.962a5.454,5.454,0,0,1-5.112,3.564c-19.821,1.767-39.628,3.695-59.443,5.531q-32.88,3.048-65.766,6.031-32.25,2.978-64.5,6.007c-1.1.1-2.2.315-3.685.533-.949,6.515-5.561,9.791-11.082,12.2ZM282.372,213.855c-.544-2.9-1.033-5.525-1.53-8.149q-5.166-27.229-10.324-54.46c-.427-2.265-.836-4.144-3.554-5.107q-32.514-11.517-64.911-23.366c-2.324-.846-3.91-.386-5.712,1.183q-22.821,19.881-45.8,39.583a4.952,4.952,0,0,0-1.814,5.488q6.533,32.358,12.777,64.773c.6,3.111,1.863,4.864,5,5.908q28.71,9.54,57.278,19.5c3.117,1.088,5.184.553,7.59-1.546,11.053-9.642,22.261-19.1,33.4-28.649C270.661,223.978,276.514,218.905,282.372,213.855ZM6.313,213.4l91.6,51.173,1-.748c-2.339-12.064-4.678-24.129-6.968-35.945-9.4-1.887-13.7-5.454-14.452-11.587-.882-7.172,1.81-10.926,11.23-15.66,1.039-5.9.642-59.354-.554-62.322Zm301.933,64.756c2.824,6.824,3.064,13.214-2.924,17.973-6.678,5.308-13.177,3.217-19.12-2.025l-55.863,32.6c5.3,3.2,97.689,35.608,101.3,35.526q1.132-52.718,2.267-105.469l-1.081-.4Zm14.417-167.119c-8.092-35.512-15.958-70.039-23.969-105.2L209.679,55.049l34.288,10.084c6.386-7.495,11.228-9.271,17.377-6.651,6.556,2.793,8.549,7.848,7.105,18.792ZM11.961,222.314l-.345.468q53,74.951,106.007,149.894a9.179,9.179,0,0,0,1.146,1.214c.074.071.259.058.385.037a4.064,4.064,0,0,0,.643-.267c-.109-.99-.156-2.091-.361-3.161-5.947-31.041-12.006-62.061-17.76-93.138-.785-4.24-2.689-6.583-6.325-8.585-22.621-12.455-45.13-25.115-67.677-37.705Q19.82,226.687,11.961,222.314ZM319.988,365.626l.075-.8c-.721-.317-1.426-.679-2.166-.942q-45.466-16.14-90.925-32.307a6.828,6.828,0,0,0-6.352.662c-8.861,5.249-17.8,10.36-26.72,15.514q-26.2,15.142-52.4,30.294c-1.339.776-2.539,1.792-4.624,3.284,1.935.476,2.713.885,3.448.817Q230.162,373.926,319.988,365.626ZM10.643,201.264l.606.445a15.707,15.707,0,0,0,1.526-1.1q37-33.894,74.006-67.775a7.262,7.262,0,0,0,2.442-5.962c-.09-9.176.006-18.355-.047-27.532Q89,69.062,88.736,38.787a34.388,34.388,0,0,0-.419-3.712l-1.224-.119Q48.869,118.11,10.643,201.264ZM337.1,352.3l.884.1c25.247-55.664,51.284-110.968,76.175-166.9a5.224,5.224,0,0,0-2.695,1.247Q376,218.224,340.612,249.8a6.091,6.091,0,0,0-1.641,4.011q-1.032,42.319-1.854,84.644C337.023,343.064,337.1,347.682,337.1,352.3ZM306.214,14.6a17.59,17.59,0,0,0,.105,2.009q10.806,47.687,21.618,95.371a6.88,6.88,0,0,0,3.4,4.554q39.243,24.3,78.431,48.7a24.329,24.329,0,0,0,2.474,1.183l.649-.652C377.489,115.594,342.082,65.425,306.214,14.6ZM104.119,22.813l-.107.847c1.258.469,2.493,1.016,3.778,1.395q45.447,13.4,90.886,26.816a9.524,9.524,0,0,0,8-.937c21.194-11.8,42.461-23.47,63.7-35.189,5.5-3.037,10.986-6.109,16.478-9.165l-.237-.709Zm-8.907,204.54a11.154,11.154,0,0,0,.107,1.523c2.271,11.773,4.594,23.537,6.807,35.321.439,2.334,1.752,3.584,3.743,4.7q30.838,17.274,61.6,34.682a17.88,17.88,0,0,0,2.564.906c-.21-1.562-.3-2.66-.511-3.734-3.846-19.659-7.751-39.307-11.506-58.983-.473-2.477-1.732-3.555-3.942-4.308-11.484-3.917-22.933-7.942-34.395-11.923-5.58-1.939-11.163-3.865-16.478-5.705ZM129.97,99.94C117.856,111.07,106.6,121.517,95.2,131.807A8.927,8.927,0,0,0,92.1,139.2c.112,18.905.056,37.812.059,56.718a13.709,13.709,0,0,0,.119,3.368,3.828,3.828,0,0,0,1.54,2.225c1.933,1.092,4.021,1.909,6.038,2.83a25.434,25.434,0,0,0,2.213-1.526q19.394-16.711,38.786-33.426c1.87-1.6,2.173-3.322,1.715-5.621-3.194-16.038-6.286-32.095-9.43-48.143C132.174,110.667,131.143,105.726,129.97,99.94ZM284.007,282.567c-16.91-5.94-33.552-11.765-50.175-17.648-2.106-.745-3.492.225-4.934,1.467q-23.9,20.574-47.809,41.14a12.857,12.857,0,0,0-1.374,1.747c1.476.626,2.6,1.173,3.774,1.589,12.5,4.438,25.046,8.748,37.486,13.347a9.726,9.726,0,0,0,9.14-.85c16.4-9.684,32.9-19.216,49.352-28.816,1.8-1.047,3.531-2.2,5.12-3.189C284.384,288.272,284.209,285.618,284.007,282.567ZM334.761,165c-.5-2.489-.772-4-1.111-5.487-3.062-13.473-6.226-26.924-9.134-40.429a8.925,8.925,0,0,0-4.428-6.222q-25.392-15.647-50.7-31.43c-1.052-.651-2.165-1.205-3.239-1.8l-6.179,4.057c.16,1.135.258,2.108.439,3.065,3.22,17.036,6.536,34.056,9.6,51.12.575,3.2,1.955,4.822,4.988,5.881,14.774,5.162,29.473,10.537,44.207,15.812C324.086,161.31,328.992,162.983,334.761,165ZM138.225,94.32a19.993,19.993,0,0,0,1.825.976c19.389,6.942,38.8,13.834,58.154,20.863,2.4.871,3.951.222,5.685-1.288Q222.4,98.746,240.98,82.7c1.573-1.367,3.031-2.866,4.231-4.007-.814-3.784-1.517-7.055-2.254-10.484a8.778,8.778,0,0,0-1.374-.651c-10.816-3.21-21.669-6.3-32.439-9.663-2.805-.875-4.9.011-7.16,1.257q-23.9,13.192-47.816,26.349C149.006,88.35,143.852,91.208,138.225,94.32Zm197.254,81.116a15.653,15.653,0,0,0-1.871,1.111q-22.99,19.709-45.992,39.405a4.71,4.71,0,0,0-1.742,5.138c3.177,16.347,6.237,32.717,9.361,49.075a8.44,8.44,0,0,0,.64,1.75l10.547,3.692c.949-.822,2.017-1.731,3.067-2.66,6.978-6.174,13.789-12.553,21.012-18.426a9.178,9.178,0,0,0,3.772-7.851c.3-21.03.789-42.058,1.2-63.086C335.521,181.074,335.479,178.562,335.479,175.436ZM104.949,274.28l-.717.668q9.381,48.8,18.768,97.627l7.489,1.177,39.921-62.64ZM199.014,55.147c-2.031-.64-2.947-.944-3.872-1.218q-27.392-8.139-54.786-16.264c-11.369-3.356-22.773-6.592-34.129-9.99-2.337-.7-4.11-.656-5.321,1.745a26.6,26.6,0,0,1-1.682,2.551l33.512,59.618ZM339.249,245.64l.952.4,71.2-63.365L409,176.717l-68.235-4.905C340.249,196.789,339.749,221.215,339.249,245.64ZM203.3,117.961c22.22,7.741,43.307,15.717,65.342,23.416-3.73-19.679-7.269-38.345-10.767-56.8l-11.369-3.941Zm-59.591,51.571L101.78,205.817c.826,4.263,1.537,7.926,2.35,12.123l52.65,18.3C152.358,213.673,148.117,192.03,143.708,169.532ZM175.7,305.391c16.993-14.608,33.339-28.658,50.259-43.2l-63.008-21.5C167.242,262.456,171.389,283.508,175.7,305.391ZM135.072,98.9c4.313,21.92,8.4,42.71,12.673,64.412l48.961-42.349Zm136.912,49.106,12.195,64.317,49.288-42.35Zm-38.461,114.57,50.578,17.71,9.427-8.008c-3.264-17-6.623-34.5-10.114-52.681Zm-98.649,114.03.906,1.148,83.7-48.394c-2.045-.931-3.154-1.539-4.33-1.954q-17.968-6.348-35.96-12.635c-4.011-1.4-4.067-1.38-6.4,2.26q-14.608,22.83-29.171,45.689C140.678,367.333,137.787,371.977,134.874,376.606ZM94.41,33.937c-3.123,1.372-2.434,3.448-2.436,5.111q-.054,40.614,0,81.227c0,2.06.178,4.12.273,6.18l.867.42,35.346-32.382Zm235.167,84.907c3.456,15.207,6.681,29.481,9.956,43.744.928,4.046,1,4.037,5.356,4.379,9.7.76,19.395,1.555,29.1,2.257,11.109.805,22.225,1.5,33.334,2.305,1.583.114,2.846.086,2.966-2.419Z"/></g></g></svg>