<?xml version="1.0" encoding="utf-8"?>
<!-- Generator: Adobe Illustrator 25.0.0, SVG Export Plug-In . SVG Version: 6.00 Build 0)  -->
<svg version="1.1" id="Layer_1" xmlns="http://www.w3.org/2000/svg" xmlns:xlink="http://www.w3.org/1999/xlink" x="0px" y="0px"
	 viewBox="0 0 100 100" style="enable-background:new 0 0 100 100;" xml:space="preserve">
<style type="text/css">
	.st0{fill:#959595;}
	.st1{fill:none;}
</style>
<g id="Layer_2_1_">
	<g id="Layer_1-2">
		<path class="st0" d="M86,54.7c-0.1-0.2-0.1-0.4-0.1-0.6c-0.9-4-4.8-6.6-8.8-5.7c-4,0.9-6.6,4.8-5.7,8.8c0.6,2.9,2.9,5.2,5.8,5.7
			l0,0l0.4,0.1l0,0c2.3,0.3,4.6-0.5,6.2-2.1C85.5,59.3,86.3,57,86,54.7z"/>
		<path class="st0" d="M60.5,79c-0.8-4-4.8-6.6-8.8-5.7s-6.6,4.8-5.7,8.8c0.6,2.9,2.9,5.2,5.8,5.8l0,0l0.4,0.1l0,0
			c4.1,0.5,7.8-2.3,8.3-6.3c0.1-0.6,0.1-1.3,0-1.9C60.5,79.4,60.5,79.2,60.5,79z"/>
		<path class="st0" d="M48.6,13.3c0.2,0.1,0.3,0.2,0.5,0.4c3.2,2.5,3.8,7.2,1.3,10.4c-0.3,0.4-0.7,0.8-1.1,1.1
			c-2,1.2-3.3,3.4-3.5,5.7l0,0c0,0.2,0,0.4,0,0.6l0,0l0,0v0.1l0,0c0,0.3,0,0.7,0.1,1c0.1,1,0.5,1.9,0.9,2.7c0.5,0.8,1.1,1.5,1.8,2.1
			c0.2,0.2,0.5,0.4,0.8,0.5c2.6,2.2,3.3,5.9,1.8,8.9c-0.4,0.7-0.9,1.4-1.5,2c-0.2,0.2-0.4,0.4-0.7,0.5l0,0c-0.1,0.1-0.2,0.2-0.3,0.3
			l0,0c-1.8,1.4-2.9,3.6-2.9,5.9l0,0c0,4.1,3.3,7.4,7.4,7.4s7.4-3.3,7.4-7.4l0,0l0,0c0-2.2-1-4.4-2.8-5.8c-0.1-0.1-0.3-0.2-0.4-0.3
			l-0.4-0.3l-0.6-0.5c-0.2-0.2-0.4-0.4-0.5-0.6c-2.4-3.1-2-7.5,0.8-10.1c2.3-1.3,3.8-3.8,3.8-6.5l0,0v-0.1l0,0v-0.2
			c0-0.1,0-0.3,0-0.5l0,0c-0.2-2.4-1.6-4.6-3.7-5.8c-3.1-2.7-3.4-7.4-0.7-10.5c0.3-0.3,0.5-0.6,0.8-0.8c0.3-0.2,0.6-0.4,0.9-0.6
			c3.2-2.6,3.6-7.3,1-10.4c-2.6-3.2-7.3-3.6-10.4-1c-1.7,1.4-2.7,3.5-2.7,5.7C45.8,9.7,46.8,11.9,48.6,13.3z"/>
		<path class="st0" d="M70.8,61.9c-0.3-0.2-0.5-0.3-0.7-0.5c-0.8-0.7-1.5-1.5-2-2.5c-0.1-0.2-0.2-0.5-0.3-0.8
			c-0.3-0.8-0.4-1.6-0.4-2.5v-0.2c0-0.1,0-0.2,0-0.3l0,0c0.2-2.4,1.5-4.6,3.5-5.8c3.1-2.6,3.6-7.3,1-10.4c-2.6-3.1-7.3-3.6-10.4-1
			c-3.1,2.6-3.6,7.3-1,10.4c0.3,0.4,0.7,0.8,1.1,1.1c0.2,0.1,0.4,0.3,0.5,0.4c1.7,1.4,2.8,3.4,2.8,5.6c0,0.1,0,0.1,0,0.2
			c0,1.4-0.4,2.9-1.2,4.1c-0.1,0.2-0.3,0.5-0.5,0.7c-0.4,0.4-0.8,0.8-1.2,1.2l0,0c-0.1,0.1-0.2,0.2-0.4,0.3l0,0
			c-0.2,0.2-0.4,0.3-0.6,0.5c-0.4,0.4-0.7,0.8-1,1.3c-0.3,0.4-0.5,0.8-0.7,1.3c-0.4,0.9-0.6,1.8-0.6,2.8l0,0c0,0.5,0,1,0.2,1.5
			c0,0.2,0.1,0.5,0.2,0.7c0.4,1.1,1,2.2,1.8,3c0.2,0.2,0.3,0.3,0.5,0.5c0.7,0.6,1.6,1.1,2.5,1.4c2.2,0.7,4.5,0.3,6.4-0.9
			c3.3-2.3,4.2-6.7,2.1-10.1C72,63,71.5,62.4,70.8,61.9z"/>
		<path class="st0" d="M31.7,75.8l-0.5-0.7c-0.3-0.4-0.7-0.8-1.1-1.2c-0.2-0.1-0.4-0.3-0.5-0.4c-0.1,0-0.1-0.1-0.2-0.2l-0.6-0.5
			c-0.2-0.2-0.4-0.4-0.5-0.6c-0.3-0.4-0.6-0.9-0.9-1.4c-0.5-1-0.7-2.1-0.7-3.3c0-0.1,0-0.3,0-0.4v-0.1l0,0c0.1-2,1.1-3.9,2.6-5.2
			c0.3-0.2,0.6-0.4,0.9-0.6c3.1-2.6,3.6-7.3,1-10.4c-2.6-3.1-7.3-3.6-10.4-1s-3.6,7.3-1,10.4c0.3,0.4,0.7,0.8,1.1,1.1
			c0.2,0.1,0.4,0.2,0.5,0.4c1.7,1.3,2.7,3.3,2.8,5.4c0,0.1,0,0.3,0,0.4c0,2-0.8,3.9-2.2,5.3c-0.2,0.2-0.4,0.4-0.6,0.5l0,0L21,73.8
			l0,0l-0.1,0.1c-1.8,1.4-2.8,3.6-2.8,5.8l0,0c0,0.5,0,1,0.2,1.5c0,0.3,0.1,0.5,0.2,0.7c1,3.1,3.8,5.2,7.1,5.2l0,0
			c1,0,2-0.2,2.9-0.6c0.4-0.2,0.9-0.4,1.3-0.7c2-1.4,3.3-3.7,3.3-6.2C32.9,78.3,32.5,76.9,31.7,75.8z"/>
		<path class="st0" d="M37.8,35.7c-0.2,0.2-0.3,0.5-0.5,0.7c-0.4,0.4-0.8,0.8-1.2,1.2l0,0l-0.4,0.3l0,0c-0.2,0.2-0.4,0.3-0.6,0.5
			c-0.6,0.6-1.1,1.3-1.5,2c-1.1,2.3-1.1,4.9,0.2,7.1c0.2,0.3,0.3,0.6,0.6,0.8c0.2,0.2,0.4,0.5,0.6,0.7c2.9,2.9,7.6,2.9,10.5,0
			c0.9-0.9,1.5-1.9,1.9-3.1c0.1-0.2,0.1-0.5,0.2-0.7c0.1-0.5,0.2-1,0.2-1.5l0,0c0-0.6-0.1-1.1-0.2-1.7c-0.1-0.5-0.3-1-0.5-1.5
			c-0.3-0.6-0.7-1.2-1.2-1.7c-0.3-0.3-0.5-0.6-0.8-0.8c-0.1-0.1-0.3-0.2-0.4-0.3l-0.4-0.3c-1.1-0.9-1.9-2-2.3-3.3
			c-0.3-0.8-0.4-1.6-0.4-2.5v-0.2c0-0.1,0-0.2,0-0.3l0,0c0.1-2,1.1-3.9,2.6-5.2c0.3-0.2,0.6-0.4,0.9-0.6c3.1-2.6,3.6-7.3,1-10.4
			c-2.6-3.1-7.3-3.6-10.4-1c-3.1,2.6-3.6,7.3-1,10.4c0.3,0.4,0.7,0.8,1.1,1.1c0.2,0.1,0.4,0.2,0.5,0.4c1.7,1.4,2.8,3.4,2.8,5.6
			c0,0.1,0,0.1,0,0.2C39,33,38.6,34.4,37.8,35.7z"/>
		<path class="st0" d="M45.6,87.3c-0.2-0.2-0.4-0.4-0.6-0.5c-0.3-0.2-0.5-0.3-0.7-0.5c-1.1-0.9-1.9-2.1-2.4-3.5
			c-0.3-0.7-0.4-1.5-0.4-2.3c0-0.1,0-0.1,0-0.2c0-0.1,0-0.2,0-0.3l0,0c0.2-2.4,1.5-4.6,3.5-5.8c3.1-2.6,3.6-7.3,1-10.4
			c-2.6-3.1-7.3-3.6-10.4-1c-3.1,2.6-3.6,7.3-1,10.4c0.3,0.4,0.7,0.8,1.1,1.1l0.5,0.4C38,76,39,78.1,39,80.3c0,0.1,0,0.1,0,0.2
			c0,1.9-0.7,3.6-2,5c-0.3,0.3-0.6,0.6-0.9,0.9l0,0l-0.3,0.3l0,0c-0.2,0.2-0.4,0.4-0.7,0.5c-0.7,0.6-1.2,1.4-1.6,2.2
			c-0.5,1-0.7,2-0.7,3.1c0,2.7,1.5,5.2,3.9,6.5c0.4,0.2,0.9,0.4,1.3,0.6c0.7,0.2,1.5,0.3,2.2,0.3c0.7,0,1.5-0.1,2.2-0.3
			c0.6-0.2,1.2-0.5,1.7-0.8c0.7-0.4,1.3-1,1.8-1.6c0.4-0.6,0.8-1.2,1.1-1.8c0.3-0.7,0.5-1.4,0.5-2.1c0-0.2,0-0.5,0-0.8
			c0-0.8-0.1-1.7-0.4-2.5C46.9,89,46.3,88.1,45.6,87.3z"/>
		<path class="st0" d="M24,38.9L24,38.9l0.5,0.1l0,0c4.1,0.5,7.8-2.3,8.3-6.3c0.1-0.6,0.1-1.3,0-1.9c0-0.2-0.1-0.4-0.1-0.6
			c-0.3-1.4-1-2.7-2-3.7c-2.9-2.9-7.6-2.9-10.5,0s-2.9,7.6,0,10.5C21.2,37.9,22.5,38.6,24,38.9z"/>
		<rect class="st1" width="100" height="100"/>
	</g>
</g>
</svg>
