<svg xmlns="http://www.w3.org/2000/svg" viewBox="0 0 100 100"><defs><style>.cls-1{fill:#fff;}.cls-2{fill:none;}</style></defs><g id="Layer_2" data-name="Layer 2"><g id="Layer_1-2" data-name="Layer 1"><path class="cls-1" d="M86,54.72a4.76,4.76,0,0,1-.11-.64,7.42,7.42,0,1,0-8.71,8.82h0l.42.06h0a7.41,7.41,0,0,0,6.24-2.11A7.31,7.31,0,0,0,86,54.72Z"/><path class="cls-1" d="M60.46,79a7.43,7.43,0,1,0-8.71,8.82h0l.43.07h0a7.41,7.41,0,0,0,8.35-8.24A6.47,6.47,0,0,0,60.46,79Z"/><path class="cls-1" d="M48.6,13.29c.18.11.35.24.53.37a7.4,7.4,0,0,1,.22,11.49,7.4,7.4,0,0,0-3.53,5.71h0c0,.2,0,.4,0,.6v0h0v.09h0a8.39,8.39,0,0,0,.06,1,7.41,7.41,0,0,0,.94,2.71,7.65,7.65,0,0,0,1.84,2.13,6.78,6.78,0,0,0,.78.54,7.35,7.35,0,0,1,1.78,8.93,7.94,7.94,0,0,1-1.49,2,4.07,4.07,0,0,1-.65.53h0c-.11.09-.22.18-.35.27h0a7.39,7.39,0,0,0-2.91,5.91h0a7.42,7.42,0,1,0,14.84,0h0a7.43,7.43,0,0,0-2.76-5.78,2.78,2.78,0,0,1-.37-.26l-.38-.27-.6-.53a7.31,7.31,0,0,1-.54-.6A7.49,7.49,0,0,1,56.84,38a7.4,7.4,0,0,0,3.76-6.46h0v-.09h0V31.3c0-.15,0-.33,0-.48h0A7.41,7.41,0,0,0,56.91,25a7.41,7.41,0,0,1,.18-11.27,7.5,7.5,0,0,1,.86-.62A7.42,7.42,0,1,0,45.8,7.42,7.25,7.25,0,0,0,48.6,13.29Z"/><path class="cls-1" d="M70.82,61.9a4.54,4.54,0,0,1-.74-.54,7.3,7.3,0,0,1-2-2.51c-.11-.24-.22-.49-.31-.75a7.88,7.88,0,0,1-.42-2.49v-.2a1.42,1.42,0,0,1,0-.29h0a7.43,7.43,0,0,1,3.51-5.84,7.41,7.41,0,1,0-9.31.13c.18.11.36.25.54.38a7.43,7.43,0,0,1,2.82,5.62c0,.07,0,.13,0,.22a7.26,7.26,0,0,1-1.22,4.07,5.65,5.65,0,0,1-.49.66A7.31,7.31,0,0,1,62,61.52h0a3.75,3.75,0,0,1-.36.27h0c-.22.17-.42.35-.64.53A7.41,7.41,0,0,0,60,63.61a9.42,9.42,0,0,0-.66,1.26,7.25,7.25,0,0,0-.56,2.8h0a6.54,6.54,0,0,0,.16,1.49,4.91,4.91,0,0,0,.18.71,7.3,7.3,0,0,0,1.84,3c.18.17.33.33.53.49A7.53,7.53,0,0,0,64,74.76a7.5,7.5,0,0,0,6.36-.93,7.46,7.46,0,0,0,2.13-10.11A8.2,8.2,0,0,0,70.82,61.9Z"/><path class="cls-1" d="M31.74,75.76l-.47-.67a7.67,7.67,0,0,0-1.13-1.15c-.18-.11-.36-.25-.54-.38a2.17,2.17,0,0,1-.22-.15l-.6-.54a5.7,5.7,0,0,1-.53-.6,8.14,8.14,0,0,1-.87-1.37,7.52,7.52,0,0,1-.73-3.25c0-.13,0-.26,0-.4v-.09h0a7.42,7.42,0,0,1,2.64-5.22,8.62,8.62,0,0,1,.87-.62,7.41,7.41,0,1,0-9.31.13,6.42,6.42,0,0,1,.53.38,7.44,7.44,0,0,1,2.83,5.42c0,.14,0,.27,0,.42A7.37,7.37,0,0,1,22,73a4.5,4.5,0,0,1-.64.53h0l-.36.27h0l-.09.06a7.55,7.55,0,0,0-2.82,5.83h0a6,6,0,0,0,.16,1.48c0,.25.11.49.17.72a7.43,7.43,0,0,0,7.09,5.22h0a7.35,7.35,0,0,0,2.89-.58,6.7,6.7,0,0,0,1.26-.69,7.4,7.4,0,0,0,3.27-6.15A7.76,7.76,0,0,0,31.74,75.76Z"/><path class="cls-1" d="M37.85,35.66a7.25,7.25,0,0,1-.49.67,7.68,7.68,0,0,1-1.2,1.15h0l-.36.27h0c-.22.17-.42.35-.64.53a7.61,7.61,0,0,0-1.49,2,7.36,7.36,0,0,0,.24,7.11,5.18,5.18,0,0,0,.56.8,5.48,5.48,0,0,0,.58.67,7.41,7.41,0,0,0,12.33-3.05,6.72,6.72,0,0,0,.17-.71,8.09,8.09,0,0,0,.16-1.49h0a7.15,7.15,0,0,0-.2-1.68A7.08,7.08,0,0,0,47,40.39,7.21,7.21,0,0,0,45.8,38.7a9.33,9.33,0,0,0-.85-.82,4.33,4.33,0,0,1-.37-.27l-.38-.26a7.27,7.27,0,0,1-2.31-3.29,7.61,7.61,0,0,1-.42-2.49v-.2a1.42,1.42,0,0,1,0-.29h0a7.42,7.42,0,0,1,2.64-5.22,8.62,8.62,0,0,1,.87-.62,7.41,7.41,0,1,0-9.31.13,6.42,6.42,0,0,1,.53.38,7.41,7.41,0,0,1,2.83,5.62c0,.07,0,.13,0,.22A7.43,7.43,0,0,1,37.85,35.66Z"/><path class="cls-1" d="M45.58,87.34a7.31,7.31,0,0,0-.6-.54,4.33,4.33,0,0,1-.74-.53,7.46,7.46,0,0,1-2.37-3.47,7.13,7.13,0,0,1-.38-2.31.71.71,0,0,1,0-.2,1.42,1.42,0,0,1,0-.29h0A7.43,7.43,0,0,1,45,74.16a7.41,7.41,0,1,0-9.31.13l.54.38a7.4,7.4,0,0,1,2.82,5.65c0,.06,0,.13,0,.2a7.38,7.38,0,0,1-2,5,8.54,8.54,0,0,1-.93.87h0l-.35.26h0c-.23.18-.43.36-.65.54a7.45,7.45,0,0,0-1.6,2.24,7.37,7.37,0,0,0-.69,3.11,7.45,7.45,0,0,0,3.89,6.53,7.79,7.79,0,0,0,1.33.56,7.33,7.33,0,0,0,2.2.33,7.18,7.18,0,0,0,2.2-.33,8,8,0,0,0,1.71-.78,7.47,7.47,0,0,0,1.83-1.58,8.34,8.34,0,0,0,1.11-1.84,7.57,7.57,0,0,0,.55-2.14c0-.24.05-.51.05-.75a7.62,7.62,0,0,0-.43-2.49A8.49,8.49,0,0,0,45.58,87.34Z"/><path class="cls-1" d="M24,38.88h0l.45.07h0A7.41,7.41,0,0,0,32.8,30.7c0-.22-.09-.42-.11-.64a7.31,7.31,0,0,0-2-3.73A7.43,7.43,0,0,0,20.16,36.84,7.56,7.56,0,0,0,24,38.88Z"/><rect class="cls-2" width="100" height="100"/></g></g></svg>