<svg xmlns="http://www.w3.org/2000/svg" xmlns:xlink="http://www.w3.org/1999/xlink" viewBox="0 0 573.11 400"><defs><style>.cls-1{fill:url(#linear-gradient);}.cls-2{fill:#1e1c11;}.cls-3{fill:url(#linear-gradient-2);}.cls-4{fill:url(#linear-gradient-3);}.cls-5{fill:url(#linear-gradient-4);}.cls-6{fill:url(#linear-gradient-5);}.cls-7{fill:url(#linear-gradient-6);}.cls-8{fill:url(#linear-gradient-7);}.cls-9{fill:url(#linear-gradient-8);}.cls-10{fill:url(#linear-gradient-9);}</style><linearGradient id="linear-gradient" x1="224.21" y1="227.59" x2="368.86" y2="151.32" gradientUnits="userSpaceOnUse"><stop offset="0" stop-color="#3cff2c"/><stop offset="0.51" stop-color="#4be441"/><stop offset="1" stop-color="#57cd52"/></linearGradient><linearGradient id="linear-gradient-2" x1="345.3" y1="345.75" x2="94.07" y2="353.92" xlink:href="#linear-gradient"/><linearGradient id="linear-gradient-3" x1="345.83" y1="362.01" x2="94.59" y2="370.18" xlink:href="#linear-gradient"/><linearGradient id="linear-gradient-4" x1="345.89" y1="363.64" x2="94.65" y2="371.81" xlink:href="#linear-gradient"/><linearGradient id="linear-gradient-5" x1="345.7" y1="357.82" x2="94.46" y2="365.99" xlink:href="#linear-gradient"/><linearGradient id="linear-gradient-6" x1="345.75" y1="359.51" x2="94.51" y2="367.68" xlink:href="#linear-gradient"/><linearGradient id="linear-gradient-7" x1="345.79" y1="360.79" x2="94.55" y2="368.96" xlink:href="#linear-gradient"/><linearGradient id="linear-gradient-8" x1="345.85" y1="362.38" x2="94.61" y2="370.55" xlink:href="#linear-gradient"/><linearGradient id="linear-gradient-9" x1="345.62" y1="355.51" x2="94.38" y2="363.68" xlink:href="#linear-gradient"/></defs><g id="Layer_2" data-name="Layer 2"><g id="Layer_1-2" data-name="Layer 1"><path class="cls-1" d="M435.18,115.18c-27.12,11.59-52.22,28.11-74.49,46.11v0q-7.71,6.25-15,12.72c-10.59,9.37-20.39,18.93-29.33,28.25-35.86,37.42-57.54,70.8-58.15,71.75l0,0L193.13,209l4.73-5.64,39.46-47,21,21c28.18-16.83,67.81-37.27,111.59-50.09,1.19-.36,2.37-.7,3.55-1A297.2,297.2,0,0,1,435.18,115.18Z"/><path class="cls-2" d="M232.54,105.74a4.53,4.53,0,0,1-2.21-.58,4.49,4.49,0,0,1-1.68-6.11,36,36,0,0,1,31.16-18.13,4.48,4.48,0,1,1,0,9,27,27,0,0,0-23.38,13.6A4.45,4.45,0,0,1,232.54,105.74Z"/><path class="cls-2" d="M369.22,97.82c-4.37-1.62-8.67-3.17-12.9-4.89-7.9-3.19-12.78-9.1-14.69-17.36-1.4-6.06.55-11.63,2.92-17,1.48-3.42,3.08-6.79,4.4-9.59.51-1,1-2,1.37-2.92-8.16-8.08-15.48-15.31-23-22.73l-2.79,1.18c-5.07,2.19-10.61,4.73-16.34,6.61a21.58,21.58,0,0,1-24.08-7.88c-2.33-3.24-3.87-7.09-5.46-10.8-1.15-2.73-2.15-5.5-3.14-8.24-.5-1.4-1-2.8-1.5-4.16H242.36c-.52,1.4-1,2.79-1.52,4.17-1.58,4.3-3.09,8.46-4.73,12.56a23.63,23.63,0,0,1-16.52,14.75c-5.57,1.5-10.75.39-15.8-1.78C199.88,28,196,26.26,192,24.42l-4.48-2c-3.89,3.81-7.6,7.39-11.23,11.05s-7.22,7.34-10.95,11.14q1,2.26,2.1,4.41c1.64,3.46,3.22,6.74,4.65,10.09C179,75.24,173.92,87.5,157.69,94c-3.42,1.36-6.91,2.47-10.42,3.58-1.44.45-2.89.9-4.32,1.38v32.55c1.43.52,2.88,1,4.33,1.52a146.87,146.87,0,0,1,15.28,5.79c8.23,3.91,12.72,11.13,12.38,20.14-.19,5.21-2.49,10.42-4.26,15.46a64.25,64.25,0,0,1-3.15,7.11c-.5,1-.93,1.86-1.24,2.51l11.13,11.27.91-1.1,44.39-52.9a44.06,44.06,0,1,1,67.74,3.92l-2.24,2.24a44,44,0,0,1-49.53,7.24l-1.37,1.63,21,21c28.18-16.83,67.81-37.27,111.59-50.09,1.19-.36,2.37-.7,3.55-1V99.39Z"/><path class="cls-3" d="M0,385l22.28-58.7H35.51l22,58.7H44.06L39.63,372h-22L13.07,385ZM28.69,340.8l-7.64,21.55H36.26l-7.4-21.55Z"/><path class="cls-4" d="M61.33,400V342.53h11.1V348h.16q4-6.58,12.66-6.58,9.45,0,14.64,6.9,4.69,6.18,4.68,16,0,9.12-4.68,15.21a16.58,16.58,0,0,1-14,6.74q-8.46,0-12.74-6.42H73V400Zm21.46-22.61q10.11,0,10.11-13.48a17.28,17.28,0,0,0-2.3-9.38,8.75,8.75,0,0,0-7.9-4.35,8.54,8.54,0,0,0-7.89,4.27,18,18,0,0,0-2.22,9.46,16.84,16.84,0,0,0,2.3,9.29A8.73,8.73,0,0,0,82.79,377.39Z"/><path class="cls-5" d="M111.57,400V342.53h11.09V348h.17q4-6.58,12.66-6.58,9.45,0,14.63,6.9,4.69,6.18,4.69,16,0,9.12-4.69,15.21a16.57,16.57,0,0,1-14,6.74q-8.48,0-12.75-6.42h-.17V400ZM133,377.39q10.11,0,10.11-13.48a17.28,17.28,0,0,0-2.3-9.38,8.74,8.74,0,0,0-7.89-4.35,8.54,8.54,0,0,0-7.89,4.27,17.93,17.93,0,0,0-2.22,9.46,16.84,16.84,0,0,0,2.3,9.29A8.7,8.7,0,0,0,133,377.39Z"/><path class="cls-6" d="M161.8,385V342.53h11.09v7.9h.17a13.73,13.73,0,0,1,5.43-6.5,14.51,14.51,0,0,1,8.14-2.55,8.09,8.09,0,0,1,2.54.41v10.85a19.24,19.24,0,0,0-4.19-.41q-11.5,0-11.51,13.65V385Z"/><path class="cls-7" d="M192.46,363.82q0-10.19,6-16.31t15.95-6.13q10,0,16,6.13t6,16.31q0,10.13-6,16.24t-16,6.13q-9.94,0-15.95-6.13T192.46,363.82Zm11.68,0c0,3.9.73,7,2.22,9.29a8.79,8.79,0,0,0,8,4.28q10.36,0,10.36-13.57t-10.36-13.64Q204.14,350.18,204.14,363.82Z"/><path class="cls-8" d="M281.91,342.53,267.52,385h-13L240,342.53h12.25l9,29h.16l9-29Z"/><path class="cls-9" d="M297.94,355.6H286.27a13.13,13.13,0,0,1,6.65-11.18q5.1-3,13.32-3,18.66,0,18.66,12.09v22.11c0,4.72.5,7.87,1.48,9.46H314.55a16.08,16.08,0,0,1-.83-4.11q-5,5.25-14.3,5.26-6.42,0-10.28-3.13-4.18-3.37-4.19-9.62,0-6.48,4.52-9.7,3.28-2.22,9.95-3.2,9.45-1.32,9.62-1.4,4.18-1.06,4.19-4.19,0-3.46-2.3-4.77a10.61,10.61,0,0,0-5.26-1Q298.52,349.19,297.94,355.6Zm15.29,13v-4.35q-1.39,1.23-6.08,1.89a35.9,35.9,0,0,0-7.08,1.56,5.38,5.38,0,0,0-3.45,5.26q0,5.43,7.15,5.43Q313.24,378.38,313.23,368.59Z"/><path class="cls-10" d="M334.28,385v-58.7H346V385Z"/><path d="M408,346.07h-12.5a10.94,10.94,0,0,0-4.28-7.32,13.29,13.29,0,0,0-8.55-3q-8.13,0-12.33,6.25-3.62,5.34-3.62,13.89,0,8.24,3.62,13.48,4.28,6.18,12.33,6.17a12.27,12.27,0,0,0,9.3-3.7,16.19,16.19,0,0,0,4-9.45h12.49q-1,10.94-8,17.47t-17.8,6.53q-13.23,0-21.21-8.87-7.64-8.47-7.64-21.63,0-13.49,7.64-22,7.89-9,21.21-9,10,0,16.94,5.51A22.43,22.43,0,0,1,408,346.07Z"/><path d="M416.08,385v-58.7h11.67v22.11H428a14.76,14.76,0,0,1,5.67-5.34,14.42,14.42,0,0,1,6.75-1.73q8.79,0,12.41,4.77c2.09,2.74,3.12,7,3.12,12.74V385H444.28V361q0-10.44-7.48-10.44-4.77,0-6.91,2.88c-1.42,1.91-2.14,5-2.14,9.29V385Z"/><path d="M476,355.6H464.34A13.16,13.16,0,0,1,471,344.42q5.1-3,13.32-3,18.66,0,18.66,12.09v22.11c0,4.72.5,7.87,1.48,9.46H492.62a16.46,16.46,0,0,1-.82-4.11q-5,5.25-14.3,5.26-6.42,0-10.28-3.13-4.2-3.37-4.19-9.62,0-6.48,4.52-9.7,3.29-2.22,9.95-3.2c6.3-.88,9.5-1.35,9.62-1.4q4.19-1.06,4.19-4.19,0-3.46-2.31-4.77a10.56,10.56,0,0,0-5.25-1Q476.6,349.19,476,355.6Zm15.29,13v-4.35q-1.4,1.23-6.09,1.89a35.75,35.75,0,0,0-7.07,1.56A5.38,5.38,0,0,0,474.7,373q0,5.43,7.15,5.43Q491.32,378.38,491.31,368.59Z"/><path d="M524,326.34V336H512.36v-9.61ZM512.36,385V342.53H524V385Z"/><path d="M533.24,385V342.53h11.09v5.92h.25q4.35-7.06,13-7.07T570,346.15q3.13,4.11,3.13,12.74V385H561.43V361q0-10.44-7.48-10.44-4.77,0-6.9,2.88t-2.14,9.29V385Z"/></g></g></svg>