<svg xmlns="http://www.w3.org/2000/svg" width="170.918" height="79.491" viewBox="0 0 170.918 79.491">
  <g id="组_58" data-name="组 58" transform="translate(-1000.461 -138.706)">
    <path id="路径_60" data-name="路径 60" d="M1451.664,150.371a19.894,19.894,0,0,1-5.121,11.167c-3.709,4.091-8.437,6.421-12.749,9.275-3.691,2.444-7.392,4.992-11.036,7.577-7.343,5.209-14.521,10.792-21.528,16.68-3.363,2.826-6.672,6.471-10.229,8.862q-3.946,3.52-7.841,7.127-1.9,1.762-3.785,3.547-.941.892-1.878,1.789c-.364.348-1.442,1.774-1.867,1.8a1.44,1.44,0,0,1-1.378-1.591c0-1.359,1.47-1.925,2.273-2.547q1.772-1.372,3.5-2.826a250.464,250.464,0,0,0,27.036-26.495,108.578,108.578,0,0,0,9.556-12.35c2.152-3.315,4.3-7.032,5.2-11.128,1.892-8.614-5.249-10.115-10.632-9.845-9.572.48-18.534,3.893-27.533,8.12-1.7.8-3.882,1.214-3.883-1.725,0-2.271,2-2.652,3.408-2.973,2.35-.536,4.7-1.1,7.042-1.686,8.785-2.178,17.573-4.7,26.225-7.683,9.681-3.337,22.643-11.249,31.648-3.4a13.558,13.558,0,0,1,1.674,1.746A9.212,9.212,0,0,1,1451.664,150.371Z" transform="translate(-280.313)" fill="#fff"/>
    <g id="组_57" data-name="组 57" transform="translate(1000.461 168.313)">
      <g id="组_55" data-name="组 55" transform="translate(45.175)">
        <path id="路径_61" data-name="路径 61" d="M1181.1,268.574l1.784-11.478h4.951a4.262,4.262,0,0,1,3.494,1.415,5.137,5.137,0,0,1,.833,4.26,7.31,7.31,0,0,1-1.931,4.148,5.632,5.632,0,0,1-4.179,1.656Zm3.978-9.357-1.124,7.234h2.25a3.064,3.064,0,0,0,2.1-.772,4.288,4.288,0,0,0,1.3-2.669,4.131,4.131,0,0,0-.278-2.765,2.66,2.66,0,0,0-2.444-1.029Z" transform="translate(-1181.104 -257.096)" fill="#fff"/>
        <path id="路径_62" data-name="路径 62" d="M1232.74,257.1l-.293,1.881h-2.283l.292-1.881Zm-4.066,11.478,1.291-8.312h2.283l-1.291,8.312Z" transform="translate(-1216.777 -257.096)" fill="#fff"/>
        <path id="路径_63" data-name="路径 63" d="M1254.711,269.085l-1.209,7.781q-.572,3.681-4.881,3.681a4.008,4.008,0,0,1-2.314-.627,2.068,2.068,0,0,1-.936-2.042h2.267q.1,1.141,1.526,1.141,1.833,0,2.153-2.057l.17-1.093h-.032a3.132,3.132,0,0,1-2.692,1.286,2.724,2.724,0,0,1-2.525-1.237,4.35,4.35,0,0,1-.379-2.942,5.17,5.17,0,0,1,1.361-2.861,3.758,3.758,0,0,1,2.847-1.254,2.2,2.2,0,0,1,2.269,1.334h.032l.172-1.11Zm-5.1,6.351a2.041,2.041,0,0,0,1.573-.707,2.952,2.952,0,0,0,.73-1.592q.4-2.556-1.549-2.556a1.871,1.871,0,0,0-1.51.724,3.17,3.17,0,0,0-.7,1.64,2.965,2.965,0,0,0,.14,1.688A1.317,1.317,0,0,0,1249.608,275.435Z" transform="translate(-1229.289 -265.918)" fill="#fff"/>
        <path id="路径_64" data-name="路径 64" d="M1289.887,257.1l-.292,1.881h-2.283l.293-1.881Zm-4.066,11.478,1.292-8.312h2.282l-1.291,8.312Z" transform="translate(-1259.634 -257.096)" fill="#fff"/>
        <path id="路径_65" data-name="路径 65" d="M1308.211,259.8l-.387,2.492h1.672l-.237,1.527h-1.672l-.64,4.116a1.028,1.028,0,0,0,.073.772,1,1,0,0,0,.742.193,3.769,3.769,0,0,0,.717-.064l-.277,1.784a8.812,8.812,0,0,1-1.347.08q-2.621,0-2.313-1.977l.762-4.9h-1.382l.237-1.527h1.382l.387-2.492Z" transform="translate(-1273.207 -259.12)" fill="#fff"/>
        <path id="路径_66" data-name="路径 66" d="M1329.021,271.641h-2.282a3.135,3.135,0,0,1,1.642-2.187,5.567,5.567,0,0,1,2.7-.595q3.649,0,3.282,2.363l-.672,4.325a3.762,3.762,0,0,0,0,1.849h-2.316a2.987,2.987,0,0,1-.036-.8,4.247,4.247,0,0,1-2.957,1.029,2.721,2.721,0,0,1-1.914-.611,1.979,1.979,0,0,1-.528-1.881,2.6,2.6,0,0,1,1.179-1.9,5.5,5.5,0,0,1,2.042-.627q1.889-.257,1.923-.273.852-.209.947-.82a.845.845,0,0,0-.305-.932,1.9,1.9,0,0,0-1-.193A1.56,1.56,0,0,0,1329.021,271.641Zm2.6,2.54.132-.852a2.852,2.852,0,0,1-1.247.37,7.658,7.658,0,0,0-1.43.306,1.283,1.283,0,0,0-.835,1.029q-.165,1.061,1.234,1.061A1.986,1.986,0,0,0,1331.616,274.181Z" transform="translate(-1289.689 -265.918)" fill="#fff"/>
        <path id="路径_67" data-name="路径 67" d="M1363.861,268.574l1.784-11.478h2.283l-1.784,11.478Z" transform="translate(-1318.157 -257.096)" fill="#fff"/>
      </g>
      <g id="组_56" data-name="组 56" transform="translate(0 19.291)">
        <path id="路径_68" data-name="路径 68" d="M1002.447,345.715l1.454-9.356h-3.44l.33-2.122h9.4l-.33,2.122h-3.44l-1.454,9.356Z" transform="translate(-1000.461 -334.237)" fill="#fff"/>
        <path id="路径_69" data-name="路径 69" d="M1037.2,354.537l1.292-8.311h2.171l-.24,1.543h.032a3.368,3.368,0,0,1,1.258-1.27,3.229,3.229,0,0,1,1.669-.5,1.449,1.449,0,0,1,.486.081l-.33,2.122a3.545,3.545,0,0,0-.808-.081q-2.25,0-2.665,2.669l-.582,3.745Z" transform="translate(-1028.013 -343.059)" fill="#fff"/>
        <path id="路径_70" data-name="路径 70" d="M1065.811,348.782h-2.283a3.135,3.135,0,0,1,1.642-2.187,5.569,5.569,0,0,1,2.7-.595q3.649,0,3.282,2.363l-.672,4.325a3.758,3.758,0,0,0,0,1.849h-2.316a2.971,2.971,0,0,1-.036-.8,4.247,4.247,0,0,1-2.957,1.029,2.721,2.721,0,0,1-1.915-.611,1.978,1.978,0,0,1-.527-1.881,2.6,2.6,0,0,1,1.179-1.9,5.493,5.493,0,0,1,2.042-.627q1.889-.257,1.923-.273.853-.209.948-.82a.846.846,0,0,0-.305-.933,1.9,1.9,0,0,0-1-.193A1.559,1.559,0,0,0,1065.811,348.782Zm2.6,2.54.132-.852a2.851,2.851,0,0,1-1.247.37,7.611,7.611,0,0,0-1.43.306,1.283,1.283,0,0,0-.835,1.029q-.165,1.061,1.234,1.061A1.986,1.986,0,0,0,1068.406,351.322Z" transform="translate(-1047.127 -343.059)" fill="#fff"/>
        <path id="路径_71" data-name="路径 71" d="M1100.393,354.537l1.292-8.311h2.171l-.18,1.158h.048a3.324,3.324,0,0,1,2.754-1.383,2.455,2.455,0,0,1,2.283.932,3.805,3.805,0,0,1,.224,2.492l-.794,5.112h-2.282l.729-4.694q.317-2.042-1.146-2.042a1.831,1.831,0,0,0-1.438.563,3.523,3.523,0,0,0-.7,1.817l-.677,4.357Z" transform="translate(-1075.402 -343.059)" fill="#fff"/>
        <path id="路径_72" data-name="路径 72" d="M1139.157,351.837h2.17a1.085,1.085,0,0,0,.379,1.077,1.848,1.848,0,0,0,1.156.321,2.23,2.23,0,0,0,1.032-.225,1.115,1.115,0,0,0,.628-.836q.074-.482-.555-.771a10.725,10.725,0,0,0-1.833-.515,4.3,4.3,0,0,1-1.712-.675,1.492,1.492,0,0,1-.58-1.543q.415-2.669,4.032-2.669,3.439,0,3.253,2.653h-2.17q.094-1.125-1.385-1.126-1.271,0-1.39.772-.082.531.677.82.091.032,1.72.418a4.451,4.451,0,0,1,1.706.707,1.607,1.607,0,0,1,.568,1.624,3.026,3.026,0,0,1-1.542,2.266,5.3,5.3,0,0,1-2.7.627,4.351,4.351,0,0,1-2.536-.643A2.25,2.25,0,0,1,1139.157,351.837Z" transform="translate(-1104.454 -343.059)" fill="#fff"/>
        <path id="路径_73" data-name="路径 73" d="M1177.28,348.782H1175a3.135,3.135,0,0,1,1.642-2.187,5.568,5.568,0,0,1,2.7-.595q3.649,0,3.282,2.363l-.672,4.325a3.758,3.758,0,0,0,0,1.849h-2.316a2.966,2.966,0,0,1-.036-.8,4.248,4.248,0,0,1-2.957,1.029,2.721,2.721,0,0,1-1.915-.611,1.978,1.978,0,0,1-.527-1.881,2.6,2.6,0,0,1,1.179-1.9,5.492,5.492,0,0,1,2.042-.627q1.889-.257,1.923-.273.853-.209.947-.82a.846.846,0,0,0-.305-.933,1.9,1.9,0,0,0-1-.193A1.559,1.559,0,0,0,1177.28,348.782Zm2.6,2.54.132-.852a2.847,2.847,0,0,1-1.247.37,7.618,7.618,0,0,0-1.43.306,1.282,1.282,0,0,0-.835,1.029q-.165,1.061,1.234,1.061A1.987,1.987,0,0,0,1179.875,351.322Z" transform="translate(-1130.72 -343.059)" fill="#fff"/>
        <path id="路径_74" data-name="路径 74" d="M1221.5,349.152h-2.235a1.281,1.281,0,0,0-1.465-1.431,2.015,2.015,0,0,0-1.665.884,4.147,4.147,0,0,0-.7,1.817,3.146,3.146,0,0,0,.146,1.752,1.336,1.336,0,0,0,1.344.868,2.052,2.052,0,0,0,2.079-1.688h2.2a4.546,4.546,0,0,1-1.671,2.524,4.71,4.71,0,0,1-2.862.884,3.474,3.474,0,0,1-2.845-1.19,3.714,3.714,0,0,1-.689-3.07,5.4,5.4,0,0,1,1.609-3.216,4.666,4.666,0,0,1,3.334-1.286,3.847,3.847,0,0,1,2.517.772A2.6,2.6,0,0,1,1221.5,349.152Z" transform="translate(-1159.902 -343.059)" fill="#fff"/>
        <path id="路径_75" data-name="路径 75" d="M1254.826,336.937l-.387,2.492h1.672l-.237,1.527H1254.2l-.64,4.116a1.028,1.028,0,0,0,.073.771,1,1,0,0,0,.742.193,3.789,3.789,0,0,0,.718-.064l-.277,1.785a8.846,8.846,0,0,1-1.347.08q-2.621,0-2.313-1.977l.762-4.9h-1.382l.237-1.527h1.382l.387-2.492Z" transform="translate(-1187.998 -336.262)" fill="#fff"/>
        <path id="路径_76" data-name="路径 76" d="M1277,334.237l-.292,1.881h-2.283l.292-1.881Zm-4.066,11.478,1.292-8.311h2.283l-1.292,8.311Z" transform="translate(-1204.794 -334.237)" fill="#fff"/>
        <path id="路径_77" data-name="路径 77" d="M1291.232,350.39a5.149,5.149,0,0,1,1.67-3.191,4.826,4.826,0,0,1,3.305-1.2,3.6,3.6,0,0,1,2.948,1.2,3.869,3.869,0,0,1,.678,3.191,5.126,5.126,0,0,1-1.667,3.175,4.846,4.846,0,0,1-3.321,1.2,3.58,3.58,0,0,1-2.933-1.2A3.848,3.848,0,0,1,1291.232,350.39Zm2.283,0a3.09,3.09,0,0,0,.151,1.817,1.444,1.444,0,0,0,1.446.836q2.026,0,2.438-2.653.415-2.668-1.611-2.669Q1293.93,347.721,1293.515,350.39Z" transform="translate(-1218.461 -343.059)" fill="#fff"/>
        <path id="路径_78" data-name="路径 78" d="M1329.821,354.537l1.291-8.311h2.171l-.18,1.158h.048a3.325,3.325,0,0,1,2.755-1.383,2.455,2.455,0,0,1,2.283.932,3.807,3.807,0,0,1,.224,2.492l-.795,5.112h-2.282l.729-4.694q.317-2.042-1.146-2.042a1.83,1.83,0,0,0-1.437.563,3.517,3.517,0,0,0-.7,1.817l-.677,4.357Z" transform="translate(-1247.455 -343.059)" fill="#fff"/>
      </g>
    </g>
  </g>
</svg>
