<svg xmlns="http://www.w3.org/2000/svg" xmlns:xlink="http://www.w3.org/1999/xlink" viewBox="0 0 172.681 172.681"><defs><style>.cls-1{fill:#fff;opacity:0;}.cls-2{fill:url(#linear-gradient);}</style><linearGradient id="linear-gradient" x1="762.858" y1="170.373" x2="605.685" y2="253.46" gradientTransform="matrix(0.819, -0.051, 0, 1, -465.401, -130.343)" gradientUnits="userSpaceOnUse"><stop offset="0.101" stop-color="#37a3dc"/><stop offset="0.291" stop-color="#3592d0"/><stop offset="0.664" stop-color="#2e67b0"/><stop offset="1" stop-color="#283b90"/></linearGradient></defs><g id="Layer_2" data-name="Layer 2"><g id="Layer_1-2" data-name="Layer 1"><rect class="cls-1" width="172.681" height="172.681"/><path class="cls-2" d="M172.622,25.336c-.6,8.919-5.658,18.225-11.123,24.253-8.055,8.886-18.324,13.945-27.688,20.145-8.016,5.307-16.054,10.841-23.97,16.456C93.894,97.5,78.305,109.629,63.084,122.417c-7.3,6.137-14.491,14.053-22.215,19.247q-8.571,7.644-17.03,15.478-4.126,3.827-8.222,7.7-2.043,1.936-4.078,3.886c-.79.756-3.133,3.852-4.056,3.91-1.649.1-2.993-1.441-2.993-3.455,0-2.952,3.192-4.181,4.936-5.531q3.847-2.979,7.6-6.137a543.876,543.876,0,0,0,58.72-57.544A235.749,235.749,0,0,0,96.507,73.151c4.675-7.2,9.345-15.273,11.3-24.169,4.11-18.709-11.4-21.97-23.09-21.383-20.791,1.043-40.254,8.456-59.8,17.636-3.7,1.737-8.433,2.637-8.433-3.747,0-4.933,4.344-5.76,7.4-6.458,5.1-1.164,10.2-2.4,15.293-3.661,19.08-4.73,38.166-10.211,56.958-16.687C117.17,7.435,145.322-9.749,164.88,7.306a29.526,29.526,0,0,1,3.634,3.792A20.008,20.008,0,0,1,172.622,25.336Z"/></g></g></svg>