<svg xmlns="http://www.w3.org/2000/svg" xmlns:xlink="http://www.w3.org/1999/xlink" width="1527.443" height="1501.156" viewBox="0 0 1527.443 1501.156">
  <defs>
    <linearGradient id="linear-gradient" x1="0.542" y1="0.458" x2="-0.063" y2="1.08" gradientUnits="objectBoundingBox">
      <stop offset="0.101" stop-color="#35a2db"/>
      <stop offset="0.291" stop-color="#3391ce"/>
      <stop offset="0.664" stop-color="#2e66ae"/>
      <stop offset="1" stop-color="#293a8e"/>
    </linearGradient>
  </defs>
  <g id="组_10482" data-name="组 10482" transform="translate(1225.187 -499.24) rotate(-130)">
    <g id="组_10480" data-name="组 10480">
      <g id="组_10479" data-name="组 10479">
        <path id="路径_50715" data-name="路径 50715" d="M-181.986-882.591c33.967,201.566-96.1,430.293-362.358,252.655-105.575-70.434-195.572-111.182-306.8-123-306.738-32.6-373.784-326.248-198.68-453.955,148.191-108.079,289.746-118.326,396.492-361.179C-597.538-1695-500.9-1797.166-368.26-1722.062c147.508,83.514,105.017,255.726,103.723,425.235C-266.2-1079.175-211.122-1055.518-181.986-882.591Z" fill="url(#linear-gradient)"/>
      </g>
    </g>
    <g id="组_10481" data-name="组 10481" opacity="0.26" style="mix-blend-mode: overlay;isolation: isolate">
      <path id="路径_50716" data-name="路径 50716" d="M-264.535-1296.828c1.292-169.508,43.783-341.72-103.725-425.234-132.644-75.1-229.278,27.065-285.069,153.991-9.961,22.659-20.223,43.288-30.766,62.165a259.73,259.73,0,0,0,3.1,26.3c22.493,131.826,3.508,248.46-114.085,377.355s-36.025,350.27,253.3,331.52c145.1-9.4,264.851-68,353.573-144.906C-218.3-1059.573-266.085-1093.862-264.535-1296.828Z" fill="#fff"/>
    </g>
  </g>
</svg>
