<svg width="68" height="69" viewBox="0 0 68 69" fill="none" xmlns="http://www.w3.org/2000/svg">
<rect x="0.335938" y="0.59082" width="67.638" height="67.638" rx="8" fill="#027D6F"/>
<path d="M53.0813 16.5352H15.2292C14.1138 16.5352 13.044 16.9783 12.2553 17.767C11.4665 18.5557 11.0234 19.6255 11.0234 20.7409V48.0785C11.0234 49.194 11.4665 50.2637 12.2553 51.0525C13.044 51.8412 14.1138 52.2843 15.2292 52.2843H53.0813C54.1967 52.2843 55.2665 51.8412 56.0552 51.0525C56.844 50.2637 57.2871 49.194 57.2871 48.0785V20.7409C57.2871 19.6255 56.844 18.5557 56.0552 17.767C55.2665 16.9783 54.1967 16.5352 53.0813 16.5352ZM15.2292 48.0785V20.7409H32.0524V48.0785H15.2292ZM53.0813 48.0785H36.2582V20.7409H53.0813V48.0785ZM38.361 28.1011H50.9784V31.2554H38.361V28.1011ZM38.361 33.3583H50.9784V36.5126H38.361V33.3583ZM38.361 38.6155H50.9784V41.7699H38.361V38.6155Z" fill="white"/>
</svg>
