<svg width="1366" height="340" viewBox="0 0 1366 340" fill="none" xmlns="http://www.w3.org/2000/svg">
<g clip-path="url(#clip0)">
<path d="M613.875 124.005L596.887 113.224L464.982 321.073L481.97 331.854L613.875 124.005Z" fill="white"/>
<path d="M600.197 58.3504L583.521 47.7678L451.617 255.616L468.292 266.199L600.197 58.3504Z" fill="white"/>
<path d="M118.509 171.09C118.509 179.223 116.643 186.69 112.909 193.49C109.176 200.157 103.443 205.557 95.7094 209.69C87.976 213.823 78.376 215.89 66.9094 215.89H45.7094V266.29H11.5094V125.89H66.9094C78.1094 125.89 87.576 127.823 95.3094 131.69C103.043 135.557 108.843 140.89 112.709 147.69C116.576 154.49 118.509 162.29 118.509 171.09ZM64.3094 188.69C70.8427 188.69 75.7094 187.157 78.9094 184.09C82.1094 181.023 83.7094 176.69 83.7094 171.09C83.7094 165.49 82.1094 161.157 78.9094 158.09C75.7094 155.023 70.8427 153.49 64.3094 153.49H45.7094V188.69H64.3094ZM129.514 210.29C129.514 198.823 131.647 188.757 135.914 180.09C140.314 171.423 146.247 164.757 153.714 160.09C161.181 155.423 169.514 153.09 178.714 153.09C186.581 153.09 193.447 154.69 199.314 157.89C205.314 161.09 209.914 165.29 213.114 170.49V154.69H247.314V266.29H213.114V250.49C209.781 255.69 205.114 259.89 199.114 263.09C193.247 266.29 186.381 267.89 178.514 267.89C169.447 267.89 161.181 265.557 153.714 260.89C146.247 256.09 140.314 249.357 135.914 240.69C131.647 231.89 129.514 221.757 129.514 210.29ZM213.114 210.49C213.114 201.957 210.714 195.223 205.914 190.29C201.247 185.357 195.514 182.89 188.714 182.89C181.914 182.89 176.114 185.357 171.314 190.29C166.647 195.09 164.314 201.757 164.314 210.29C164.314 218.823 166.647 225.623 171.314 230.69C176.114 235.623 181.914 238.09 188.714 238.09C195.514 238.09 201.247 235.623 205.914 230.69C210.714 225.757 213.114 219.023 213.114 210.49ZM306.256 173.29C310.256 167.157 315.256 162.357 321.256 158.89C327.256 155.29 333.923 153.49 341.256 153.49V189.69H331.856C323.323 189.69 316.923 191.557 312.656 195.29C308.39 198.89 306.256 205.29 306.256 214.49V266.29H272.056V154.69H306.256V173.29ZM350.803 210.29C350.803 198.823 352.936 188.757 357.203 180.09C361.603 171.423 367.536 164.757 375.003 160.09C382.47 155.423 390.803 153.09 400.003 153.09C407.87 153.09 414.736 154.69 420.603 157.89C426.603 161.09 431.203 165.29 434.403 170.49V154.69H468.603V266.29H434.403V250.49C431.07 255.69 426.403 259.89 420.403 263.09C414.536 266.29 407.67 267.89 399.803 267.89C390.736 267.89 382.47 265.557 375.003 260.89C367.536 256.09 361.603 249.357 357.203 240.69C352.936 231.89 350.803 221.757 350.803 210.29ZM434.403 210.49C434.403 201.957 432.003 195.223 427.203 190.29C422.536 185.357 416.803 182.89 410.003 182.89C403.203 182.89 397.403 185.357 392.603 190.29C387.936 195.09 385.603 201.757 385.603 210.29C385.603 218.823 387.936 225.623 392.603 230.69C397.403 235.623 403.203 238.09 410.003 238.09C416.803 238.09 422.536 235.623 427.203 230.69C432.003 225.757 434.403 219.023 434.403 210.49ZM683.311 208.69C683.311 211.89 683.111 215.223 682.711 218.69H605.311C605.844 225.623 608.044 230.957 611.911 234.69C615.911 238.29 620.778 240.09 626.511 240.09C635.044 240.09 640.978 236.49 644.311 229.29H680.711C678.844 236.623 675.444 243.223 670.511 249.09C665.711 254.957 659.644 259.557 652.311 262.89C644.978 266.223 636.778 267.89 627.711 267.89C616.778 267.89 607.044 265.557 598.511 260.89C589.978 256.223 583.311 249.557 578.511 240.89C573.711 232.223 571.311 222.09 571.311 210.49C571.311 198.89 573.644 188.757 578.311 180.09C583.111 171.423 589.778 164.757 598.311 160.09C606.844 155.423 616.644 153.09 627.711 153.09C638.511 153.09 648.111 155.357 656.511 159.89C664.911 164.423 671.444 170.89 676.111 179.29C680.911 187.69 683.311 197.49 683.311 208.69ZM648.311 199.69C648.311 193.823 646.311 189.157 642.311 185.69C638.311 182.223 633.311 180.49 627.311 180.49C621.578 180.49 616.711 182.157 612.711 185.49C608.844 188.823 606.444 193.557 605.511 199.69H648.311ZM735.553 118.29V266.29H701.353V118.29H735.553ZM754.537 195.89C754.537 182.023 757.538 169.69 763.538 158.89C769.538 147.957 777.871 139.49 788.538 133.49C799.338 127.357 811.538 124.29 825.138 124.29C841.804 124.29 856.071 128.69 867.938 137.49C879.804 146.29 887.738 158.29 891.738 173.49H854.138C851.338 167.623 847.338 163.157 842.138 160.09C837.071 157.023 831.271 155.49 824.738 155.49C814.204 155.49 805.671 159.157 799.138 166.49C792.604 173.823 789.338 183.623 789.338 195.89C789.338 208.157 792.604 217.957 799.138 225.29C805.671 232.623 814.204 236.29 824.738 236.29C831.271 236.29 837.071 234.757 842.138 231.69C847.338 228.623 851.338 224.157 854.138 218.29H891.738C887.738 233.49 879.804 245.49 867.938 254.29C856.071 262.957 841.804 267.29 825.138 267.29C811.538 267.29 799.338 264.29 788.538 258.29C777.871 252.157 769.538 243.69 763.538 232.89C757.538 222.09 754.537 209.757 754.537 195.89ZM981.281 153.49C994.081 153.49 1004.35 157.757 1012.08 166.29C1019.81 174.69 1023.68 186.29 1023.68 201.09V266.29H989.681V205.69C989.681 198.223 987.748 192.423 983.881 188.29C980.015 184.157 974.815 182.09 968.281 182.09C961.748 182.09 956.548 184.157 952.681 188.29C948.815 192.423 946.881 198.223 946.881 205.69V266.29H912.681V118.29H946.881V169.69C950.348 164.757 955.081 160.823 961.081 157.89C967.081 154.957 973.815 153.49 981.281 153.49ZM1040.65 210.29C1040.65 198.823 1042.78 188.757 1047.05 180.09C1051.45 171.423 1057.38 164.757 1064.85 160.09C1072.31 155.423 1080.65 153.09 1089.85 153.09C1097.71 153.09 1104.58 154.69 1110.45 157.89C1116.45 161.09 1121.05 165.29 1124.25 170.49V154.69H1158.45V266.29H1124.25V250.49C1120.91 255.69 1116.25 259.89 1110.25 263.09C1104.38 266.29 1097.51 267.89 1089.65 267.89C1080.58 267.89 1072.31 265.557 1064.85 260.89C1057.38 256.09 1051.45 249.357 1047.05 240.69C1042.78 231.89 1040.65 221.757 1040.65 210.29ZM1124.25 210.49C1124.25 201.957 1121.85 195.223 1117.05 190.29C1112.38 185.357 1106.65 182.89 1099.85 182.89C1093.05 182.89 1087.25 185.357 1082.45 190.29C1077.78 195.09 1075.45 201.757 1075.45 210.29C1075.45 218.823 1077.78 225.623 1082.45 230.69C1087.25 235.623 1093.05 238.09 1099.85 238.09C1106.65 238.09 1112.38 235.623 1117.05 230.69C1121.85 225.757 1124.25 219.023 1124.25 210.49ZM1200.39 143.09C1194.39 143.09 1189.46 141.357 1185.59 137.89C1181.86 134.29 1179.99 129.89 1179.99 124.69C1179.99 119.357 1181.86 114.957 1185.59 111.49C1189.46 107.89 1194.39 106.09 1200.39 106.09C1206.26 106.09 1211.06 107.89 1214.79 111.49C1218.66 114.957 1220.59 119.357 1220.59 124.69C1220.59 129.89 1218.66 134.29 1214.79 137.89C1211.06 141.357 1206.26 143.09 1200.39 143.09ZM1217.39 154.69V266.29H1183.19V154.69H1217.39ZM1310.17 153.49C1323.24 153.49 1333.64 157.757 1341.37 166.29C1349.24 174.69 1353.17 186.29 1353.17 201.09V266.29H1319.17V205.69C1319.17 198.223 1317.24 192.423 1313.37 188.29C1309.51 184.157 1304.31 182.09 1297.77 182.09C1291.24 182.09 1286.04 184.157 1282.17 188.29C1278.31 192.423 1276.37 198.223 1276.37 205.69V266.29H1242.17V154.69H1276.37V169.49C1279.84 164.557 1284.51 160.69 1290.37 157.89C1296.24 154.957 1302.84 153.49 1310.17 153.49Z" fill="white"/>
</g>
<defs>
<clipPath id="clip0">
<rect width="1365.78" height="339.71" fill="white"/>
</clipPath>
</defs>
</svg>
