<svg xmlns="http://www.w3.org/2000/svg" viewBox="0 0 115.63 96.68"><defs><style>.cls-1{fill:#fff;}</style></defs><g id="Layer_2" data-name="Layer 2"><g id="Layer_1-2" data-name="Layer 1"><path class="cls-1" d="M115.63,38.33c-.28,1.9-.48,3.81-.84,5.69A36.44,36.44,0,0,1,85.54,72.46a41.62,41.62,0,0,1-14.64,0c-.75-.14-1.48-.4-2.33-.64,4.8-4.1,5.64-8.78,2.48-14.14a22.86,22.86,0,0,0,28.93-13A22.41,22.41,0,0,0,59.19,26.25c0-.6-.06-.95-.06-1.31,0-4.59,0-9.19,0-13.79a8,8,0,0,0-.19-2.4c-.34-1,.1-1.49.86-2A32.1,32.1,0,0,1,75.24.31L78.35,0h1.48c1.76.2,3.53.35,5.28.62a36.37,36.37,0,0,1,29.67,28.45c.37,1.88.57,3.79.85,5.68Z"/><path class="cls-1" d="M0,61.5c.14-.5.28-1,.43-1.5a9.72,9.72,0,0,1,9.26-7.11q25,0,50,0a9.82,9.82,0,0,1,.81,19.58c-.66.06-1.32.1-2,.1H10.72q-8.55,0-10.56-8.29A.76.76,0,0,0,0,64Z"/><path class="cls-1" d="M47,96.68a10,10,0,0,1-4.21-2.4,7.24,7.24,0,0,1-2.12-4.91c0-4.41,0-8.83,0-13.25a3,3,0,0,1,.07-.44H56.2V87.86c0,4.77-1.81,7.25-6.33,8.69a.48.48,0,0,0-.16.13Z"/><path class="cls-1" d="M53.94,49.11c-6.17,0-12.34,0-18.52,0A9.84,9.84,0,0,1,30.08,31a9.47,9.47,0,0,1,5.17-1.5c12.49,0,25,0,37.47,0a9.8,9.8,0,0,1,.38,19.59c-6.39.06-12.77,0-19.16,0Z"/><path class="cls-1" d="M56.14,26H40.7c0-.32-.08-.62-.08-.92,0-5,0-10,0-15A7.76,7.76,0,0,1,55.87,8a8.36,8.36,0,0,1,.31,2.28c0,5,0,10,0,15C56.19,25.48,56.16,25.68,56.14,26Z"/></g></g></svg>