<svg xmlns="http://www.w3.org/2000/svg" viewBox="0 0 268.07 393.93"><defs><style>.cls-1{fill:#fff;}</style></defs><g id="Layer_2" data-name="Layer 2"><g id="Layer_1-2" data-name="Layer 1"><path class="cls-1" d="M141.15,0l2.6.47a29.29,29.29,0,0,1,24.32,30.11A27.81,27.81,0,0,1,156.16,53c-8.49,6.17-13,14.56-12.56,25.08.39,9.09,4.2,16.61,11.9,22a28.48,28.48,0,0,1,12.35,21c1.08,9.26-1.85,17.16-8.09,23.91a29.25,29.25,0,0,1-4.75,3.88c-6.55,4.58-10,11-11.13,18.73-1.34,9.21,1.51,17.2,7.68,24a28,28,0,0,0,4.31,3.64c8.38,6.14,12.36,14.48,12.24,24.75-.17,14-11.33,26.37-25.24,28.15-16.16,2.07-30.46-8.12-33.14-24.09-2-11.88,2.22-21.57,11.77-28.89,7.69-5.9,11.89-13.5,12-23.33a28.21,28.21,0,0,0-8.73-21c-2.26-2.26-5.11-3.93-7.37-6.18-10.2-10.17-11-27.56-1.79-38.61a31.8,31.8,0,0,1,6-5.73A26.58,26.58,0,0,0,133,82.49c2.1-12-1.78-21.87-11.57-29.24a29.1,29.1,0,0,1-12-20.48A29.45,29.45,0,0,1,133.55.48c.87-.15,1.74-.32,2.6-.48Z"/><path class="cls-1" d="M189.73,142.1A29.29,29.29,0,0,1,218.78,168a28.1,28.1,0,0,1-10,25.7c-3.13,2.72-6.53,5.07-9,8.5-7.95,10.89-6.81,27.2,2.76,36.71,1.79,1.79,3.88,3.28,5.85,4.89a28.52,28.52,0,0,1,10.27,18.1,29.38,29.38,0,0,1-16.45,31.14c-18.05,8.67-39.77-3.41-41.84-23.22a29.31,29.31,0,0,1,8.08-23.91c1.83-2,4.21-3.42,6.24-5.23a27.66,27.66,0,0,0,9.69-19.75c.58-11.24-4.07-19.85-13.1-26.46a26.92,26.92,0,0,1-10.71-18,28.66,28.66,0,0,1,8.43-26A28.23,28.23,0,0,1,189.73,142.1Z"/><path class="cls-1" d="M29.46,343.23A29,29,0,0,1,.3,317.32C-1,306.23,3.06,297.15,11.89,290.38,18.49,285.31,23,279,24,270.7c1.36-11.32-2.26-20.84-11.57-27.74C4.13,236.78-.16,228.54.05,218.3a29.05,29.05,0,0,1,27.3-28.57c12.73-.66,22.18,4.82,28.29,15.88,5.41,9.79,4,23.09-3.3,31.75a30.61,30.61,0,0,1-5.71,5.25C31.77,253.1,30,274.87,43.23,287.36c2.33,2.2,5.13,3.91,7.39,6.17,10.26,10.23,11,27.58,1.74,38.76A28.93,28.93,0,0,1,29.46,343.23Z"/><path class="cls-1" d="M117.27,77c0,8.79-3.36,16-9.58,21.84-1.24,1.17-2.77,2-4.11,3.1C91,112,89.15,131,99.66,143.06a40.35,40.35,0,0,0,5.74,5.26c7.63,5.9,11.75,13.51,11.83,23.25.09,10.62-4.35,18.9-13,24.8a29,29,0,0,1-35.37-2.15,29.39,29.39,0,0,1-.69-44.12c1.71-1.58,3.71-2.83,5.41-4.41a27.84,27.84,0,0,0,9.18-23.93,28.32,28.32,0,0,0-8.94-18.45,26.54,26.54,0,0,0-3.08-2.53,29.37,29.37,0,1,1,35.71-46.62A28,28,0,0,1,117.27,77Z"/><path class="cls-1" d="M117.25,268.52c.12,9.85-3.39,17.12-9.85,23-1.38,1.27-3,2.26-4.47,3.45-11.66,9.54-13.54,28.2-3.89,39.82a44.11,44.11,0,0,0,6.78,6.31c7.56,6,11.44,13.72,11.43,23.3a29.32,29.32,0,0,1-26.53,29.35C75.6,395.34,61.2,384.39,59,369.34c-1.77-11.91,2.3-21.66,12-28.81,13.2-9.72,16-28.68,5.71-41.48a35.73,35.73,0,0,0-6.53-6.11c-13.49-10-15.52-30.27-4.29-42.78,5.92-6.59,13.33-10.09,22-10C105.45,240.22,117.67,254.55,117.25,268.52Z"/><path class="cls-1" d="M168.14,317.15c-.23,15.81-12.38,29.28-29.45,29.28-16.79,0-29.24-13-29.47-29.42-.23-16.25,13.22-29.44,29.6-29.42A29.45,29.45,0,0,1,168.14,317.15Z"/><path class="cls-1" d="M209.34,218.86a29.37,29.37,0,1,1,29.08,29.52C222.28,248.37,208.92,234.72,209.34,218.86Z"/><path class="cls-1" d="M29.34,153.81a29.36,29.36,0,1,1,29.5-29.28A29.09,29.09,0,0,1,29.34,153.81Z"/></g></g></svg>