<svg width="500" height="500" viewBox="0 0 500 500" fill="none" xmlns="http://www.w3.org/2000/svg">
<path d="M390.486 159.811C389.815 164.517 389.314 169.223 388.441 173.878C381.794 209.207 352.288 238.443 317.491 244.206C305.664 246.168 293.804 246.538 281.984 244.206C280.163 243.844 278.398 243.203 276.353 242.621C287.985 232.484 290.016 220.9 282.368 207.647C316.241 219.025 344.064 198.321 352.522 175.37C362.087 149.41 351.581 120.033 327.909 106.885C303.054 93.0957 269.511 100.604 253.575 129.927C253.508 128.457 253.43 127.581 253.43 126.705C253.43 115.338 253.43 103.967 253.405 92.5961C253.405 90.6086 253.526 88.4981 252.936 86.6627C252.112 84.1033 253.188 82.963 255.02 81.5946C266.297 73.2683 278.508 67.3205 292.519 65.7638C295.029 65.4851 297.543 65.2534 300.057 65H303.622C307.901 65.4996 312.2 65.8543 316.451 66.5241C351.876 72.1063 381.513 101.078 388.409 136.895C389.303 141.536 389.797 146.261 390.475 150.949L390.486 159.811Z" fill="#f15e5a"/>
<path d="M110 217.11L111.033 213.385C113.874 203.122 123.042 195.823 133.505 195.809C173.952 195.753 214.398 195.753 254.843 195.809C267.213 195.834 277.517 206.307 278.011 218.952C278.515 231.945 269.291 242.95 256.813 244.213C255.209 244.376 253.589 244.467 251.977 244.467C213.318 244.481 174.659 244.481 136.002 244.467C122.179 244.467 113.632 237.589 110.398 223.966C110.299 223.736 110.165 223.523 110 223.336V217.11Z" fill="#f15e5a"/>
<path d="M223.931 304.097C220.206 302.693 216.513 301.277 213.715 298.168C210.601 294.718 208.631 290.732 208.585 286.04C208.471 275.115 208.545 264.189 208.553 253.26C208.584 252.894 208.644 252.531 208.73 252.174H246.318V282.297C246.318 294.102 241.94 300.217 230.961 303.779C230.815 303.826 230.702 303.989 230.574 304.097H223.931Z" fill="#f15e5a"/>
<path d="M240.853 186.451C225.876 186.451 210.9 186.513 195.923 186.433C184.756 186.371 175.766 179.41 172.79 168.756C171.372 163.714 171.597 158.34 173.431 153.439C175.265 148.539 178.608 144.377 182.959 141.58C186.705 139.127 191.067 137.833 195.518 137.855C225.813 137.855 256.107 137.797 286.416 137.884C299.152 137.923 309.385 148.353 309.91 160.893C310.514 175.294 299.29 186.234 287.328 186.35C271.84 186.498 256.355 186.386 240.867 186.386L240.853 186.451Z" fill="#f15e5a"/>
<path d="M246.168 129.203H208.712C208.648 128.403 208.538 127.657 208.538 126.911C208.538 114.603 208.492 102.262 208.538 89.9353C208.577 80.237 215.352 72.1968 224.46 70.8754C234.11 69.4853 242.966 75.3282 245.529 84.8997C246.018 86.7412 246.27 88.6395 246.279 90.5471C246.342 102.855 246.314 115.196 246.307 127.523C246.311 128.012 246.225 128.515 246.168 129.203Z" fill="#f15e5a"/>
<path d="M21.6455 379.545H25.1318C28.3903 379.545 30.8285 378.907 32.4463 377.631C34.0641 376.332 34.873 374.452 34.873 371.991C34.873 369.507 34.1895 367.673 32.8223 366.488C31.4779 365.303 29.3587 364.711 26.4648 364.711H21.6455V379.545ZM45.5713 371.615C45.5713 376.993 43.8851 381.106 40.5127 383.954C37.1631 386.802 32.3893 388.227 26.1914 388.227H21.6455V406H11.0498V356.029H27.0117C33.0729 356.029 37.6758 357.34 40.8203 359.96C43.9876 362.558 45.5713 366.443 45.5713 371.615ZM78.4521 406L76.4355 400.805H76.1621C74.4076 403.015 72.596 404.553 70.7275 405.419C68.8818 406.262 66.4665 406.684 63.4814 406.684C59.8128 406.684 56.9189 405.635 54.7998 403.539C52.7035 401.443 51.6553 398.458 51.6553 394.584C51.6553 390.528 53.068 387.543 55.8936 385.629C58.7419 383.692 63.0257 382.621 68.7451 382.416L75.376 382.211V380.536C75.376 376.662 73.3936 374.726 69.4287 374.726C66.3753 374.726 62.7865 375.648 58.6621 377.494L55.21 370.453C59.6077 368.152 64.484 367.001 69.8389 367.001C74.9658 367.001 78.8965 368.118 81.6309 370.351C84.3652 372.584 85.7324 375.979 85.7324 380.536V406H78.4521ZM75.376 388.295L71.3428 388.432C68.3122 388.523 66.0563 389.07 64.5752 390.072C63.0941 391.075 62.3535 392.602 62.3535 394.652C62.3535 397.592 64.0397 399.062 67.4121 399.062C69.8275 399.062 71.7529 398.367 73.1885 396.977C74.6468 395.587 75.376 393.741 75.376 391.439V388.295ZM117.827 367.069C119.24 367.069 120.413 367.172 121.348 367.377L120.562 377.152C119.718 376.924 118.693 376.811 117.485 376.811C114.159 376.811 111.561 377.665 109.692 379.374C107.847 381.083 106.924 383.476 106.924 386.552V406H96.499V367.787H104.395L105.933 374.213H106.445C107.63 372.071 109.225 370.351 111.23 369.052C113.258 367.73 115.457 367.069 117.827 367.069ZM152.554 406L150.537 400.805H150.264C148.509 403.015 146.698 404.553 144.829 405.419C142.983 406.262 140.568 406.684 137.583 406.684C133.914 406.684 131.021 405.635 128.901 403.539C126.805 401.443 125.757 398.458 125.757 394.584C125.757 390.528 127.17 387.543 129.995 385.629C132.843 383.692 137.127 382.621 142.847 382.416L149.478 382.211V380.536C149.478 376.662 147.495 374.726 143.53 374.726C140.477 374.726 136.888 375.648 132.764 377.494L129.312 370.453C133.709 368.152 138.586 367.001 143.94 367.001C149.067 367.001 152.998 368.118 155.732 370.351C158.467 372.584 159.834 375.979 159.834 380.536V406H152.554ZM149.478 388.295L145.444 388.432C142.414 388.523 140.158 389.07 138.677 390.072C137.196 391.075 136.455 392.602 136.455 394.652C136.455 397.592 138.141 399.062 141.514 399.062C143.929 399.062 145.854 398.367 147.29 396.977C148.748 395.587 149.478 393.741 149.478 391.439V388.295ZM181.025 406H170.601V352.816H181.025V406ZM202.422 406H191.997V352.816H202.422V406ZM229.219 374.486C227.008 374.486 225.277 375.193 224.023 376.605C222.77 377.995 222.052 379.978 221.87 382.553H236.499C236.453 379.978 235.781 377.995 234.482 376.605C233.184 375.193 231.429 374.486 229.219 374.486ZM230.688 406.684C224.536 406.684 219.728 404.986 216.265 401.591C212.801 398.196 211.069 393.388 211.069 387.167C211.069 380.764 212.664 375.819 215.854 372.333C219.067 368.824 223.499 367.069 229.15 367.069C234.551 367.069 238.755 368.607 241.763 371.684C244.771 374.76 246.274 379.009 246.274 384.433V389.491H221.631C221.745 392.453 222.622 394.766 224.263 396.43C225.903 398.093 228.205 398.925 231.167 398.925C233.468 398.925 235.645 398.686 237.695 398.207C239.746 397.729 241.888 396.965 244.121 395.917V403.983C242.298 404.895 240.35 405.567 238.276 406C236.203 406.456 233.674 406.684 230.688 406.684ZM265.176 406H254.751V352.816H265.176V406ZM325.64 406H313.574L306.807 379.75C306.556 378.816 306.123 376.89 305.508 373.974C304.915 371.034 304.574 369.063 304.482 368.061C304.346 369.291 304.004 371.273 303.457 374.008C302.91 376.719 302.489 378.656 302.192 379.818L295.459 406H283.428L270.679 356.029H281.104L287.495 383.305C288.612 388.34 289.421 392.704 289.922 396.396C290.059 395.097 290.366 393.091 290.845 390.38C291.346 387.646 291.813 385.526 292.246 384.022L299.526 356.029H309.541L316.821 384.022C317.14 385.276 317.539 387.19 318.018 389.765C318.496 392.34 318.861 394.55 319.111 396.396C319.339 394.618 319.704 392.408 320.205 389.765C320.706 387.099 321.162 384.945 321.572 383.305L327.93 356.029H338.354L325.64 406ZM368.091 406L366.074 400.805H365.801C364.046 403.015 362.235 404.553 360.366 405.419C358.521 406.262 356.105 406.684 353.12 406.684C349.451 406.684 346.558 405.635 344.438 403.539C342.342 401.443 341.294 398.458 341.294 394.584C341.294 390.528 342.707 387.543 345.532 385.629C348.381 383.692 352.664 382.621 358.384 382.416L365.015 382.211V380.536C365.015 376.662 363.032 374.726 359.067 374.726C356.014 374.726 352.425 375.648 348.301 377.494L344.849 370.453C349.246 368.152 354.123 367.001 359.478 367.001C364.604 367.001 368.535 368.118 371.27 370.351C374.004 372.584 375.371 375.979 375.371 380.536V406H368.091ZM365.015 388.295L360.981 388.432C357.951 388.523 355.695 389.07 354.214 390.072C352.733 391.075 351.992 392.602 351.992 394.652C351.992 397.592 353.678 399.062 357.051 399.062C359.466 399.062 361.392 398.367 362.827 396.977C364.285 395.587 365.015 393.741 365.015 391.439V388.295ZM396.562 406H386.138V352.816H396.562V406ZM417.959 406H407.534V352.816H417.959V406ZM444.756 374.486C442.546 374.486 440.814 375.193 439.561 376.605C438.307 377.995 437.59 379.978 437.407 382.553H452.036C451.991 379.978 451.318 377.995 450.02 376.605C448.721 375.193 446.966 374.486 444.756 374.486ZM446.226 406.684C440.073 406.684 435.265 404.986 431.802 401.591C428.338 398.196 426.606 393.388 426.606 387.167C426.606 380.764 428.201 375.819 431.392 372.333C434.604 368.824 439.036 367.069 444.688 367.069C450.088 367.069 454.292 368.607 457.3 371.684C460.308 374.76 461.812 379.009 461.812 384.433V389.491H437.168C437.282 392.453 438.159 394.766 439.8 396.43C441.44 398.093 443.742 398.925 446.704 398.925C449.006 398.925 451.182 398.686 453.232 398.207C455.283 397.729 457.425 396.965 459.658 395.917V403.983C457.835 404.895 455.887 405.567 453.813 406C451.74 406.456 449.211 406.684 446.226 406.684ZM486.387 398.378C488.21 398.378 490.397 397.979 492.949 397.182V404.94C490.352 406.103 487.161 406.684 483.379 406.684C479.209 406.684 476.167 405.635 474.253 403.539C472.362 401.42 471.416 398.253 471.416 394.037V375.614H466.426V371.205L472.168 367.719L475.176 359.652H481.841V367.787H492.539V375.614H481.841V394.037C481.841 395.518 482.251 396.612 483.071 397.318C483.914 398.025 485.02 398.378 486.387 398.378Z" fill="black"/>
</svg>
