<svg width="500" height="500" viewBox="0 0 500 500" fill="none" xmlns="http://www.w3.org/2000/svg">
<g clip-path="url(#clip0)">
<path d="M19.6455 417.545H23.1318C26.3903 417.545 28.8285 416.907 30.4463 415.631C32.0641 414.332 32.873 412.452 32.873 409.991C32.873 407.507 32.1895 405.673 30.8223 404.488C29.4779 403.303 27.3587 402.711 24.4648 402.711H19.6455V417.545ZM43.5713 409.615C43.5713 414.993 41.8851 419.106 38.5127 421.954C35.1631 424.802 30.3893 426.227 24.1914 426.227H19.6455V444H9.0498V394.029H25.0117C31.0729 394.029 35.6758 395.34 38.8203 397.96C41.9876 400.558 43.5713 404.443 43.5713 409.615ZM76.4521 444L74.4355 438.805H74.1621C72.4076 441.015 70.596 442.553 68.7275 443.419C66.8818 444.262 64.4665 444.684 61.4814 444.684C57.8128 444.684 54.9189 443.635 52.7998 441.539C50.7035 439.443 49.6553 436.458 49.6553 432.584C49.6553 428.528 51.068 425.543 53.8936 423.629C56.7419 421.692 61.0257 420.621 66.7451 420.416L73.376 420.211V418.536C73.376 414.662 71.3936 412.726 67.4287 412.726C64.3753 412.726 60.7865 413.648 56.6621 415.494L53.21 408.453C57.6077 406.152 62.484 405.001 67.8389 405.001C72.9658 405.001 76.8965 406.118 79.6309 408.351C82.3652 410.584 83.7324 413.979 83.7324 418.536V444H76.4521ZM73.376 426.295L69.3428 426.432C66.3122 426.523 64.0563 427.07 62.5752 428.072C61.0941 429.075 60.3535 430.602 60.3535 432.652C60.3535 435.592 62.0397 437.062 65.4121 437.062C67.8275 437.062 69.7529 436.367 71.1885 434.977C72.6468 433.587 73.376 431.741 73.376 429.439V426.295ZM115.827 405.069C117.24 405.069 118.413 405.172 119.348 405.377L118.562 415.152C117.718 414.924 116.693 414.811 115.485 414.811C112.159 414.811 109.561 415.665 107.692 417.374C105.847 419.083 104.924 421.476 104.924 424.552V444H94.499V405.787H102.395L103.933 412.213H104.445C105.63 410.071 107.225 408.351 109.23 407.052C111.258 405.73 113.457 405.069 115.827 405.069ZM150.554 444L148.537 438.805H148.264C146.509 441.015 144.698 442.553 142.829 443.419C140.983 444.262 138.568 444.684 135.583 444.684C131.914 444.684 129.021 443.635 126.901 441.539C124.805 439.443 123.757 436.458 123.757 432.584C123.757 428.528 125.17 425.543 127.995 423.629C130.843 421.692 135.127 420.621 140.847 420.416L147.478 420.211V418.536C147.478 414.662 145.495 412.726 141.53 412.726C138.477 412.726 134.888 413.648 130.764 415.494L127.312 408.453C131.709 406.152 136.586 405.001 141.94 405.001C147.067 405.001 150.998 406.118 153.732 408.351C156.467 410.584 157.834 413.979 157.834 418.536V444H150.554ZM147.478 426.295L143.444 426.432C140.414 426.523 138.158 427.07 136.677 428.072C135.196 429.075 134.455 430.602 134.455 432.652C134.455 435.592 136.141 437.062 139.514 437.062C141.929 437.062 143.854 436.367 145.29 434.977C146.748 433.587 147.478 431.741 147.478 429.439V426.295ZM179.025 444H168.601V390.816H179.025V444ZM200.422 444H189.997V390.816H200.422V444ZM227.219 412.486C225.008 412.486 223.277 413.193 222.023 414.605C220.77 415.995 220.052 417.978 219.87 420.553H234.499C234.453 417.978 233.781 415.995 232.482 414.605C231.184 413.193 229.429 412.486 227.219 412.486ZM228.688 444.684C222.536 444.684 217.728 442.986 214.265 439.591C210.801 436.196 209.069 431.388 209.069 425.167C209.069 418.764 210.664 413.819 213.854 410.333C217.067 406.824 221.499 405.069 227.15 405.069C232.551 405.069 236.755 406.607 239.763 409.684C242.771 412.76 244.274 417.009 244.274 422.433V427.491H219.631C219.745 430.453 220.622 432.766 222.263 434.43C223.903 436.093 226.205 436.925 229.167 436.925C231.468 436.925 233.645 436.686 235.695 436.207C237.746 435.729 239.888 434.965 242.121 433.917V441.983C240.298 442.895 238.35 443.567 236.276 444C234.203 444.456 231.674 444.684 228.688 444.684ZM263.176 444H252.751V390.816H263.176V444ZM323.64 444H311.574L304.807 417.75C304.556 416.816 304.123 414.89 303.508 411.974C302.915 409.034 302.574 407.063 302.482 406.061C302.346 407.291 302.004 409.273 301.457 412.008C300.91 414.719 300.489 416.656 300.192 417.818L293.459 444H281.428L268.679 394.029H279.104L285.495 421.305C286.612 426.34 287.421 430.704 287.922 434.396C288.059 433.097 288.366 431.091 288.845 428.38C289.346 425.646 289.813 423.526 290.246 422.022L297.526 394.029H307.541L314.821 422.022C315.14 423.276 315.539 425.19 316.018 427.765C316.496 430.34 316.861 432.55 317.111 434.396C317.339 432.618 317.704 430.408 318.205 427.765C318.706 425.099 319.162 422.945 319.572 421.305L325.93 394.029H336.354L323.64 444ZM366.091 444L364.074 438.805H363.801C362.046 441.015 360.235 442.553 358.366 443.419C356.521 444.262 354.105 444.684 351.12 444.684C347.451 444.684 344.558 443.635 342.438 441.539C340.342 439.443 339.294 436.458 339.294 432.584C339.294 428.528 340.707 425.543 343.532 423.629C346.381 421.692 350.664 420.621 356.384 420.416L363.015 420.211V418.536C363.015 414.662 361.032 412.726 357.067 412.726C354.014 412.726 350.425 413.648 346.301 415.494L342.849 408.453C347.246 406.152 352.123 405.001 357.478 405.001C362.604 405.001 366.535 406.118 369.27 408.351C372.004 410.584 373.371 413.979 373.371 418.536V444H366.091ZM363.015 426.295L358.981 426.432C355.951 426.523 353.695 427.07 352.214 428.072C350.733 429.075 349.992 430.602 349.992 432.652C349.992 435.592 351.678 437.062 355.051 437.062C357.466 437.062 359.392 436.367 360.827 434.977C362.285 433.587 363.015 431.741 363.015 429.439V426.295ZM394.562 444H384.138V390.816H394.562V444ZM415.959 444H405.534V390.816H415.959V444ZM442.756 412.486C440.546 412.486 438.814 413.193 437.561 414.605C436.307 415.995 435.59 417.978 435.407 420.553H450.036C449.991 417.978 449.318 415.995 448.02 414.605C446.721 413.193 444.966 412.486 442.756 412.486ZM444.226 444.684C438.073 444.684 433.265 442.986 429.802 439.591C426.338 436.196 424.606 431.388 424.606 425.167C424.606 418.764 426.201 413.819 429.392 410.333C432.604 406.824 437.036 405.069 442.688 405.069C448.088 405.069 452.292 406.607 455.3 409.684C458.308 412.76 459.812 417.009 459.812 422.433V427.491H435.168C435.282 430.453 436.159 432.766 437.8 434.43C439.44 436.093 441.742 436.925 444.704 436.925C447.006 436.925 449.182 436.686 451.232 436.207C453.283 435.729 455.425 434.965 457.658 433.917V441.983C455.835 442.895 453.887 443.567 451.813 444C449.74 444.456 447.211 444.684 444.226 444.684ZM484.387 436.378C486.21 436.378 488.397 435.979 490.949 435.182V442.94C488.352 444.103 485.161 444.684 481.379 444.684C477.209 444.684 474.167 443.635 472.253 441.539C470.362 439.42 469.416 436.253 469.416 432.037V413.614H464.426V409.205L470.168 405.719L473.176 397.652H479.841V405.787H490.539V413.614H479.841V432.037C479.841 433.518 480.251 434.612 481.071 435.318C481.914 436.025 483.02 436.378 484.387 436.378Z" fill="black"/>
<path d="M393.486 180.811C392.815 185.517 392.314 190.223 391.441 194.878C384.794 230.207 355.288 259.443 320.491 265.206C308.664 267.168 296.804 267.538 284.984 265.206C283.163 264.844 281.398 264.203 279.353 263.621C290.985 253.484 293.016 241.9 285.368 228.647C319.241 240.025 347.064 219.321 355.522 196.37C365.087 170.41 354.581 141.033 330.909 127.885C306.054 114.096 272.511 121.604 256.575 150.927C256.508 149.457 256.43 148.581 256.43 147.705C256.43 136.338 256.43 124.967 256.405 113.596C256.405 111.609 256.526 109.498 255.936 107.663C255.112 105.103 256.188 103.963 258.02 102.595C269.297 94.2683 281.508 88.3205 295.519 86.7638C298.029 86.4851 300.543 86.2534 303.057 86H306.622C310.901 86.4996 315.2 86.8543 319.451 87.5241C354.876 93.1063 384.513 122.078 391.409 157.895C392.303 162.536 392.797 167.261 393.475 171.949L393.486 180.811Z" fill="#f15e5a"/>
<path d="M113 238.11L114.033 234.385C116.874 224.122 126.042 216.823 136.505 216.809C176.952 216.753 217.398 216.753 257.843 216.809C270.213 216.834 280.517 227.307 281.011 239.952C281.515 252.945 272.291 263.95 259.813 265.213C258.209 265.376 256.589 265.467 254.977 265.467C216.318 265.481 177.659 265.481 139.002 265.467C125.179 265.467 116.632 258.589 113.398 244.966C113.299 244.736 113.165 244.523 113 244.336V238.11Z" fill="#f15e5a"/>
<path d="M226.931 325.097C223.206 323.693 219.513 322.277 216.715 319.168C213.601 315.718 211.631 311.732 211.585 307.04C211.471 296.115 211.545 285.189 211.553 274.26C211.584 273.894 211.644 273.531 211.73 273.174H249.318V303.297C249.318 315.102 244.94 321.217 233.961 324.779C233.815 324.826 233.702 324.989 233.574 325.097H226.931Z" fill="#f15e5a"/>
<path d="M243.853 207.451C228.876 207.451 213.9 207.513 198.923 207.433C187.756 207.371 178.766 200.41 175.79 189.756C174.372 184.714 174.597 179.34 176.431 174.439C178.265 169.539 181.608 165.377 185.959 162.58C189.705 160.127 194.067 158.833 198.518 158.855C228.813 158.855 259.107 158.797 289.416 158.884C302.152 158.923 312.385 169.353 312.91 181.893C313.514 196.294 302.29 207.234 290.328 207.35C274.84 207.498 259.355 207.386 243.867 207.386L243.853 207.451Z" fill="#f15e5a"/>
<path d="M249.168 150.203H211.712C211.648 149.403 211.538 148.657 211.538 147.911C211.538 135.603 211.492 123.262 211.538 110.935C211.577 101.237 218.352 93.1968 227.46 91.8754C237.11 90.4853 245.966 96.3282 248.529 105.9C249.018 107.741 249.27 109.64 249.279 111.547C249.342 123.855 249.314 136.196 249.307 148.523C249.311 149.012 249.225 149.515 249.168 150.203Z" fill="#f15e5a"/>
</g>
<defs>
<clipPath id="clip0">
<rect width="500" height="500" fill="white"/>
</clipPath>
</defs>
</svg>
