<svg xmlns="http://www.w3.org/2000/svg" viewBox="0 0 150 100"><defs><style>.cls-1{fill:none;}.cls-2{fill:#27496d;}.cls-3{fill:#00909e;}</style></defs><g id="Layer_2" data-name="Layer 2"><g id="Layer_1-2" data-name="Layer 1"><rect class="cls-1" width="150" height="100"/><g id="Layer_2-2" data-name="Layer 2"><g id="Layer_1-2-2" data-name="Layer 1-2"><path class="cls-2" d="M75,76.78a3.24,3.24,0,0,1-2.43-1.11c-.69-.8-1.37-1.58-2-2.34-1.56-1.73-3-3.36-4.39-5.1A88.3,88.3,0,0,1,54,49.47,44.65,44.65,0,0,1,50.07,37a25.2,25.2,0,0,1,49.8-7.76c.06.43.12.87.17,1.3a32,32,0,0,1-2,14.15,68.13,68.13,0,0,1-8.27,15.76,113.76,113.76,0,0,1-11.86,14.6l-.38.5a3.22,3.22,0,0,1-2.47,1.23Zm0-62.24a12.26,12.26,0,0,0-1.81.09,18.76,18.76,0,0,0-16.84,20.5c0,.32.07.62.11.93a38.46,38.46,0,0,0,3.34,10.68A82.59,82.59,0,0,0,71.11,64.13c1.25,1.51,2.54,3,3.9,4.54a108,108,0,0,0,9.38-11.85A61.72,61.72,0,0,0,91.9,42.56a25.8,25.8,0,0,0,1.68-11.34A18.72,18.72,0,0,0,75,14.54Z"/><path class="cls-3" d="M75,92.08c-20.31,0-35.64-8-35.64-18.53,0-4.64,3.06-9,8.6-12.27a3.24,3.24,0,1,1,3.31,5.56c-2,1.18-5.41,3.67-5.41,6.71,0,5.68,12.47,12,29.16,12s29.16-6.37,29.16-12c0-2.57-2.51-5.31-6.9-7.54a3.24,3.24,0,0,1,2.68-5.9l.25.13c6.74,3.42,10.45,8.15,10.45,13.31C110.62,84.11,95.31,92.08,75,92.08Z"/><path class="cls-3" d="M81.72,47.32a3,3,0,0,1-1.45-.41l-7.5-4.43A2.91,2.91,0,0,1,71.33,40V24.12a2.89,2.89,0,1,1,5.77,0V38.36L83.16,42a2.89,2.89,0,0,1-1.44,5.37Z"/></g></g></g></g></svg>