<svg xmlns="http://www.w3.org/2000/svg" viewBox="0 0 150 100"><defs><style>.cls-1{fill:none;}.cls-2{fill:#00909e;}.cls-3{fill:#27496d;}</style></defs><g id="Layer_2" data-name="Layer 2"><g id="Layer_1-2" data-name="Layer 1"><rect class="cls-1" width="150" height="100"/><g id="Layer_2-2" data-name="Layer 2"><path class="cls-2" d="M41.68,37.55a1,1,0,1,0,1,1.05,1,1,0,0,0-1-1.05Z"/><path class="cls-2" d="M52.17,37.55a1,1,0,0,0-1,1v0a1.09,1.09,0,0,0,1,1,1,1,0,0,0,1-1v0a1,1,0,0,0-1-1Z"/><path class="cls-2" d="M46.93,16A34,34,0,1,0,81,50h0A34,34,0,0,0,46.93,16ZM34.47,55.9a2.51,2.51,0,1,1-5,0h0V45.18a2.49,2.49,0,1,1,4.94.09V55.85Zm23.9,3.74a2.71,2.71,0,0,1-2.11,2.71,10.5,10.5,0,0,1-1.68.07c-.94,0-.84,0-.84.81v4.69a2.52,2.52,0,0,1-5,.52,2.64,2.64,0,0,1,0-.28v-5c0-.66,0-.69-.67-.69H45.71c-.52,0-.57,0-.57.57v5a2.48,2.48,0,0,1-2.35,2.58,2.68,2.68,0,0,1-1-.17A2.45,2.45,0,0,1,40.11,68V63.08c0-.66,0-.66-.67-.66H38.22a2.71,2.71,0,0,1-2.71-2.71V43.28H58.4v.56ZM35.44,42.2a10.56,10.56,0,0,1,5.89-9.13c-.09-.19-.16-.36-.25-.53-.44-.82-.88-1.64-1.36-2.45a.63.63,0,0,1-.15-.32.54.54,0,0,1,.14-.36.46.46,0,0,1,.36.09,1.15,1.15,0,0,1,.22.35l1.35,2.44.32.5a12.59,12.59,0,0,1,10,0c.13-.21.25-.38.34-.56l1.36-2.45.08-.13c.11-.19.23-.4.49-.26s.17.35,0,.54l-1,1.9L52.55,33a10.64,10.64,0,0,1,5.85,9.15ZM64.36,56a2.51,2.51,0,0,1-2.48,2.51H61.8a2.52,2.52,0,0,1-2.46-2.56V45.27a2.51,2.51,0,0,1,5,0Z"/><path class="cls-3" d="M103.09,16h0a34,34,0,1,0,34,34A34,34,0,0,0,103.09,16Zm7.39,12h0c.59,5.44-4.47,10.52-8.57,10.06A9.32,9.32,0,0,1,110.48,28Zm8.93,32.22a30.08,30.08,0,0,1-3.72,6.55,10.48,10.48,0,0,1-2.6,2.46,5.08,5.08,0,0,1-4.84.56,14.09,14.09,0,0,1-1.79-.75,7.52,7.52,0,0,0-3.76-.76,8.22,8.22,0,0,0-3.48.81,11.69,11.69,0,0,1-1.91.76,4.79,4.79,0,0,1-4.15-.47,11.67,11.67,0,0,1-3.57-3.46,27.64,27.64,0,0,1-5-11.07,18.32,18.32,0,0,1,.52-10.06,10.93,10.93,0,0,1,4.93-6,10,10,0,0,1,8.46-.6l2.6.91a4.88,4.88,0,0,0,3.18-.07,39.8,39.8,0,0,1,4.15-1.28,9.91,9.91,0,0,1,10.12,3.43c.12.15.23.32.34.47-.58.55-1.17,1.07-1.73,1.63a9.12,9.12,0,0,0-2.76,5.1,8.79,8.79,0,0,0,4.74,9.77l.89.45C119.84,59.15,119.64,59.67,119.41,60.18Z"/></g></g></g></svg>