<svg xmlns="http://www.w3.org/2000/svg" viewBox="0 0 150 100"><defs><style>.cls-1{fill:none;}.cls-2{fill:#27496d;}.cls-3{fill:#00909e;}</style></defs><g id="Layer_2" data-name="Layer 2"><g id="Layer_1-2" data-name="Layer 1"><rect class="cls-1" width="150" height="100"/><g id="Layer_2-2" data-name="Layer 2"><g id="Layer_2-2-2" data-name="Layer 2-2"><path class="cls-2" d="M91.86,25.14c0-4.82-3.11-9.27-8.73-12.51a32.6,32.6,0,0,0-8.7-3.35,46.23,46.23,0,0,0-20-.33,34,34,0,0,0-10.14,3.71c-5.57,3.22-8.66,7.61-8.66,12.39V36.68h0a1.21,1.21,0,0,0,0,.38V48.29a1.34,1.34,0,0,0,0,.4V71.52c0,4.85,3.08,9.25,8.74,12.59.67.37,1.43.74,2,1l.58.27.28.11,1.07.46a.64.64,0,0,0,.24.1c.91.34,1.9.68,3,1l.27.08.46.12h.21c.56.16,1.14.3,1.74.43h.44a3.87,3.87,0,0,1,.68.11l1.42.24h1l.87.1.8.09a1.69,1.69,0,0,1,.45,0h6.12a8.3,8.3,0,0,0,1.76-.12h1c.9-.08,1.87-.21,3-.41l1.6-.31,1.09-.23.9-.26h.12a39.89,39.89,0,0,1-3.34-3.29l-.76.15H71q-1.44.25-2.73.39h-1c-.53,0-1.07.08-1.6.1H60.37l-.62-.07-1.27,0h-.77l-.37-.07-1.43-.26-.28-.21h-.56c-.51-.1-1-.23-1.54-.37L53,83.11,52.69,83c-.9-.27-1.74-.54-2.6-.87H50l-1.09-.47-.26-.12a2.2,2.2,0,0,1-.39-.17c-.6-.27-1.18-.6-1.72-.9-4.27-2.58-6.59-5.72-6.59-9V69.15a22,22,0,0,0,4.45,3.34c.65.38,1.34.74,2,1.08l.49.21.51.23.94.4.17.07c.93.36,1.92.69,2.94,1l.27.08.47.12h.23c.56.15,1.13.3,1.81.45h.35l.44.09h.24l1.43.24H58l1.36.16h1.25a8.88,8.88,0,0,1,1.43.08H65.9l1.61-.1c-.31-.58-.63-1.17-.93-1.77s-.77-1.59-1.11-2.39H62.15l-1.26-.07-1.14-.1c-.41,0-.83-.09-1.24-.13L57.41,72l-1.31.24-1-.21c-.51-.1-1-.23-1.51-.37l-.78-.26c-.93-.27-1.82-.57-2.6-.88H50l-.79-.34-.6-.26-.32-.14c-.6-.29-1.19-.6-1.75-.92-4.27-2.48-6.64-5.59-6.64-8.8V57.54l.08.08A21.57,21.57,0,0,0,43,60l.4.26c.32.2.62.41,1,.61.65.37,1.34.73,2,1.07l.49.29.51.23.94.4h.17c.93.35,1.93.68,2.94,1l.27.09.47.12h.23c.56.16,1.13.3,1.81.46h.35l.45.09h.23l1.43.24H58l1.36.14h1.25a7.9,7.9,0,0,1,1.43.09h1.17c-.31-1.42-.56-2.84-.73-4.28H60.94l-1.15-.1-1.31.24-1-.13-1.3-.23a3.87,3.87,0,0,1-1-.21c-.33-.09-1-.23-1.53-.37h-.24l-.57-.26a24,24,0,0,1-2.6-.87L49,58.35l-.31-.14-.3-.13c-.61-.29-1.2-.6-1.76-.92-4.29-2.46-6.64-5.6-6.64-8.84h0V45.91L40,46a21.71,21.71,0,0,0,3,2.4l.4.25c.33.2.62.42,1,.62.65.37,1.34.72,2,1.07l.49.21.51.23.94.4.17.07c.93.36,1.93.7,2.94,1l.27.1.46.12h.24l1.81.44.35.09.44.07h.24l1.43.25H58l1.36.15h2.85V49.15H61l-1.18.24a12.18,12.18,0,0,1-1.23-.13l-1.11-.16-1.3-.22c-.34-.08-.69-.13-1-.22s-1-.23-1.53-.37h-.24l-.57-.17c-.92-.27-1.8-.57-2.6-.88-.43-.16-.83-.35-1.23-.53l-.33-.17-.31-.13c-.61-.29-1.2-.6-1.75-.91-4.27-2.43-6.62-5.57-6.62-8.81h0V34.28c.18.19.4.36.6.54l.22.22q.74.63,1.53,1.2l.34.24c.56.38,1.15.75,1.76,1.11h0l1,.5c.37.19.72.39,1.1.57l.16.07.33.15.23.1,1.42.6h.23c.69.27,1.43.51,2.18.75h.1l.45.14.71.19h.23l.94.24h.11l.66.16,1.13.23,1.42.24c.42.07.81.13,1.23.17l1.35.16,1.27.1L62,42h.14V38.93a7.53,7.53,0,0,1,0-1H60.91l-1.14-.1a12.18,12.18,0,0,1-1.23-.13l-1.11-.16-1.3-.23-1-.2c-.52-.11-1-.24-1.53-.38h-.26l-.55-.23-1.27-.4h-.16l-1.17-.43c-.43-.15-.83-.34-1.23-.51l-.31-.14-.3-.13c-.61-.29-1.2-.6-1.76-.91s-1-.63-1.51-1l-.44-.34c-.3-.23-.6-.44-.87-.67s-.43-.38-.63-.59-.35-.31-.5-.47l-.57-.65-.37-.45c-.11-.14-.28-.44-.43-.67s-.21-.31-.3-.47a6.65,6.65,0,0,1-.34-.77c0-.15-.15-.33-.23-.5a6.24,6.24,0,0,1-.17-.63c0-.21-.11-.37-.14-.55s0-.4,0-.6v-.57c0-3.2,2.3-6.29,6.46-8.7a32.69,32.69,0,0,1,12.58-3.9,42.84,42.84,0,0,1,4.67-.25,40.36,40.36,0,0,1,8.69.94l.51.1h0a29.88,29.88,0,0,1,8.06,3.09c4.38,2.54,6.76,5.89,6.55,9.25h0v.72a2.21,2.21,0,0,1-.07.3l-.1.35a4.12,4.12,0,0,1-.13.47l-.13.31L87,28l-.13.27,2-.4a7.78,7.78,0,0,1,1.53-.15,7.59,7.59,0,0,1,1.42.14V25.21h0Z"/><path class="cls-2" d="M114.34,48.93V38.68a2.18,2.18,0,0,0-1.84-2.3L91.85,32.27l-.76-.16a4.23,4.23,0,0,0-1.42,0L81.31,33.7,68.47,36.29c-1.16.25-1.77.7-2,1.59a3.45,3.45,0,0,0-.12,1V56.42a41.6,41.6,0,0,0,.3,4.74,36.55,36.55,0,0,0,.77,4.28,38.48,38.48,0,0,0,2.45,7l.45.9c.52,1.07,1.11,2.1,1.71,3.1a38.47,38.47,0,0,0,4.52,6A39,39,0,0,0,80,85.67a44.29,44.29,0,0,0,9.34,6,2.32,2.32,0,0,0,2.17,0,42,42,0,0,0,10.66-7.33,37.9,37.9,0,0,0,12.14-27.67C114.39,54.07,114.34,51.5,114.34,48.93Zm-4.4,7.45a33.39,33.39,0,0,1-9.76,23.79,37.23,37.23,0,0,1-9.46,7,.88.88,0,0,1-.64,0,43.31,43.31,0,0,1-5.82-3.74,38.29,38.29,0,0,1-3.38-2.85,32.65,32.65,0,0,1-4.28-5.18,31.08,31.08,0,0,1-2.23-3.83,35.12,35.12,0,0,1-2.49-6.66v-.2a31.92,31.92,0,0,1-.77-4,34.12,34.12,0,0,1-.32-4.17V40.4l4-.81L82.56,38l5-1,2.24-.43a4.24,4.24,0,0,1,1.84.14h.21L110,40.33v.6C110,46.09,110,51.23,109.94,56.38Z"/><path class="cls-3" d="M78,57v1.43h1.88a1.82,1.82,0,0,1-1.78,1.84l-.25,0a2.44,2.44,0,0,1-.54,0,1.62,1.62,0,0,1-.48-.17,1.41,1.41,0,0,1-.36-.24.28.28,0,0,1-.1-.09.46.46,0,0,1-.16-.18v-.07h-.07a3.41,3.41,0,0,1-.54-2.13,3.46,3.46,0,0,1,.53-2,2,2,0,0,1,1.77-.89,1.82,1.82,0,0,1,1.15.35,1.69,1.69,0,0,1,.64,1.06h1.79a3.12,3.12,0,0,0-1.26-2.17,3.74,3.74,0,0,0-2.37-.77,3.91,3.91,0,0,0-2.78,1l-.27.27a5.1,5.1,0,0,0-.41,5.71,2.78,2.78,0,0,0,.41.56,4.35,4.35,0,0,0,.64.57,4,4,0,0,0,2.41.71,2.85,2.85,0,0,0,2.33-1.17l.2,1h1.18V57Z"/><path class="cls-3" d="M89.47,54.1a3.63,3.63,0,0,0-2.74-1H83.06v8.47h4.31a3.44,3.44,0,0,0,2.22-1.18,4.69,4.69,0,0,0,1-3.06A4.33,4.33,0,0,0,89.47,54.1ZM88,59.39a1.4,1.4,0,0,1-.51.36h0a2.38,2.38,0,0,1-1,.2H84.93V54.63h1.33a2.28,2.28,0,0,1,1.92.75,3.35,3.35,0,0,1,.53,2,2.71,2.71,0,0,1-.66,2Z"/><path class="cls-3" d="M91.86,61.53V53.06h3.83a2.92,2.92,0,0,1,2.25.84,2.66,2.66,0,0,1,.67,1.88,2.62,2.62,0,0,1-.67,1.87,2.84,2.84,0,0,1-2.25.84h-2v3Zm1.86-7v2.54h1.42a2.4,2.4,0,0,0,1.15-.23,1.13,1.13,0,0,0,.49-1,1.11,1.11,0,0,0-.49-1,2.29,2.29,0,0,0-1.15-.23Z"/><path class="cls-3" d="M107.07,61.53a2.27,2.27,0,0,1-.29-1v-1c-.07-1.06-.42-1.7-1.08-1.93h-.14l.14-.07a2.07,2.07,0,0,0,1.2-2.05,2.29,2.29,0,0,0-.67-1.66,1.69,1.69,0,0,0-.49-.35,2.36,2.36,0,0,0-1.32-.33H99.85V61.6h1.86V58.22h1.86a1.43,1.43,0,0,1,1,.3,1.58,1.58,0,0,1,.42,1,3.85,3.85,0,0,0,.1,1.06,3.49,3.49,0,0,0,.2,1h1.78Zm-3.4-4.64h-2V54.5h2c.86,0,1.29.4,1.29,1.18S104.53,56.89,103.67,56.89Z"/></g></g></g></g></svg>