<svg xmlns="http://www.w3.org/2000/svg" viewBox="0 0 150 100"><defs><style>.cls-1{fill:#fff;}.cls-2{fill:#27496d;}.cls-3{fill:#00909e;}</style></defs><g id="Layer_2" data-name="Layer 2"><g id="Layer_1-2" data-name="Layer 1"><rect class="cls-1" width="150" height="100"/><rect class="cls-2" x="58.51" y="15.91" width="31.51" height="31.51" rx="5.24"/><rect class="cls-1" x="66.17" y="26.36" width="16.2" height="3.97" rx="1.66" transform="translate(45.92 102.62) rotate(-90)"/><circle class="cls-1" cx="74.27" cy="41.1" r="1.99"/><rect class="cls-2" x="20.48" y="52.58" width="31.51" height="31.51" rx="5.24"/><rect class="cls-1" x="28.13" y="63.03" width="16.2" height="3.97" rx="1.66" transform="translate(-28.79 101.25) rotate(-90)"/><circle class="cls-1" cx="36.23" cy="77.77" r="1.99"/><path class="cls-2" d="M112.57,48.62a17,17,0,1,1,17-17A17,17,0,0,1,112.57,48.62Zm0-31.51a14.56,14.56,0,1,0,0,29.11h0a14.56,14.56,0,0,0,0-29.11Z"/><path class="cls-3" d="M74.27,85.29a17,17,0,1,1,17-17A17,17,0,0,1,74.27,85.29Zm0-31.51A14.56,14.56,0,1,0,88.82,68.34,14.57,14.57,0,0,0,74.27,53.78Z"/><path class="cls-3" d="M48.42,48.15H24.05a3.47,3.47,0,0,1-3.14-4.94l12.18-26a3.47,3.47,0,0,1,6.29,0l12.18,26a3.47,3.47,0,0,1-3.14,4.94ZM35.26,18.2l-12.18,26a1,1,0,0,0,.06,1,1.08,1.08,0,0,0,.91.5H48.42a1.07,1.07,0,0,0,1-1.52L37.2,18.2a1.07,1.07,0,0,0-1.94,0Z"/><path class="cls-2" d="M124.75,84.82H100.38a3.47,3.47,0,0,1-3.14-4.94l12.18-26a3.47,3.47,0,0,1,6.29,0l12.18,26a3.47,3.47,0,0,1-3.14,4.94ZM112.57,54.25a1,1,0,0,0-1,.62l-12.19,26a1.07,1.07,0,0,0,1,1.52h24.37a1.08,1.08,0,0,0,.91-.5,1,1,0,0,0,.06-1l-12.18-26A1,1,0,0,0,112.57,54.25Z"/></g></g></svg>