<svg xmlns="http://www.w3.org/2000/svg" xmlns:xlink="http://www.w3.org/1999/xlink" viewBox="0 0 374.44 246.99"><defs><style>.cls-1{fill:url(#linear-gradient);}.cls-2{fill:url(#linear-gradient-2);}.cls-3{fill:url(#linear-gradient-3);}.cls-4{fill:url(#linear-gradient-4);}.cls-5{fill:url(#linear-gradient-5);}.cls-6{fill:url(#linear-gradient-6);}.cls-7{fill:url(#linear-gradient-7);}.cls-8{fill:url(#linear-gradient-9);}.cls-9{fill:#212121;}</style><linearGradient id="linear-gradient" x1="277.19" y1="14.2" x2="184.17" y2="142.71" gradientUnits="userSpaceOnUse"><stop offset="0" stop-color="#00f9df"/><stop offset="0.54" stop-color="#0a818f"/><stop offset="1" stop-color="#003e4f"/></linearGradient><linearGradient id="linear-gradient-2" x1="273.87" y1="11.8" x2="180.85" y2="140.3" xlink:href="#linear-gradient"/><linearGradient id="linear-gradient-3" x1="217.77" y1="-28.81" x2="124.75" y2="99.69" xlink:href="#linear-gradient"/><linearGradient id="linear-gradient-4" x1="234.07" y1="-17.02" x2="141.05" y2="111.49" xlink:href="#linear-gradient"/><linearGradient id="linear-gradient-5" x1="250.76" y1="-4.93" x2="157.74" y2="123.58" xlink:href="#linear-gradient"/><linearGradient id="linear-gradient-6" x1="-3.93" y1="44.88" x2="159.97" y2="44.88" gradientTransform="matrix(1, 0, 0, -1, 0, 273.42)" gradientUnits="userSpaceOnUse"><stop offset="0" stop-color="#00909e"/><stop offset="1" stop-color="#27496d"/></linearGradient><linearGradient id="linear-gradient-7" x1="-3.93" y1="51.1" x2="159.97" y2="51.1" xlink:href="#linear-gradient-6"/><linearGradient id="linear-gradient-9" x1="-3.93" y1="50.89" x2="159.97" y2="50.89" xlink:href="#linear-gradient-6"/></defs><g id="Layer_2" data-name="Layer 2"><g id="Layer_1-2" data-name="Layer 1"><path class="cls-1" d="M235.71,37.25A97.09,97.09,0,0,0,191.22,48a102.56,102.56,0,0,1,47.21,86.37c0,2.27-.08,4.53-.22,6.76l17.88-12.87,4-88A97.73,97.73,0,0,0,235.71,37.25Z"/><path class="cls-2" d="M187.16,123.39a102.94,102.94,0,0,1-59.94,13.36l59.56,42.14,46.61-33.54c.4-3.57-.4-7.25-.4-10.95a97.26,97.26,0,0,0-10.77-44.51A103.13,103.13,0,0,1,187.16,123.39Z"/><path class="cls-3" d="M110.59,21.19l4.88,107.1,2.39,1.73a97.81,97.81,0,0,0,18,1.67,97.34,97.34,0,0,0,44.52-10.78,102.58,102.58,0,0,1-47.23-86.38c0-2.72.11-5.45.32-8.12A61.45,61.45,0,0,1,110.59,21.19Z"/><path class="cls-4" d="M235,26.42A60.62,60.62,0,0,1,185.78,0a60.7,60.7,0,0,1-46.87,26.33c-.23,2.7-.35,5.45-.35,8.2A97.06,97.06,0,0,0,149.35,79a102.71,102.71,0,0,1,111-44.24L261,21.19a61.34,61.34,0,0,1-24.81,5.25C235.75,26.44,235.37,26.44,235,26.42Z"/><circle class="cls-5" cx="185.78" cy="84.84" r="17.96"/><path class="cls-6" d="M25.25,211.82a14,14,0,0,1,6,5.12A16.94,16.94,0,0,1,34,224.08a46.27,46.27,0,0,1,.3,6.86H9.1c.14,3.47,1.35,5.91,3.62,7.3a9.1,9.1,0,0,0,5,1.3,7.63,7.63,0,0,0,5-1.59,7.5,7.5,0,0,0,1.83-2.35h9.23a11.26,11.26,0,0,1-3.35,6.25q-4.65,5-13,5a18.85,18.85,0,0,1-12.17-4.25Q0,238.36,0,228.77q0-9,4.76-13.77c3.17-3.2,7.29-4.79,12.36-4.8A19.75,19.75,0,0,1,25.25,211.82Zm-13.52,7.81A9.34,9.34,0,0,0,9.33,225H24.91a7.56,7.56,0,0,0-2.41-5.46,7.92,7.92,0,0,0-5.37-1.87A7.08,7.08,0,0,0,11.73,219.63Z"/><path class="cls-7" d="M39.76,198.94h9.59V218.2l18.06-19.26H80.05L60.87,218.17,81,245.69H68.46L54.05,225.27l-4.7,4.78v15.63H39.76Z"/><path class="cls-7" d="M113.16,198.94h11.07l-15.64,29.22v17.53H98.82V228.16L82.65,198.94H94.16l9.71,20.37Z"/><path class="cls-8" d="M134.28,203.83a19.22,19.22,0,0,1,14.37-5.77q11.67,0,17.06,7.73a17,17,0,0,1,3.23,8.72h-9.79a13.31,13.31,0,0,0-2.39-5.07q-2.61-3-7.74-3.05a9.54,9.54,0,0,0-8.23,4.3q-3,4.31-3,12.17T141,234.64a10,10,0,0,0,8.06,3.92,9.18,9.18,0,0,0,7.67-3.37,14.88,14.88,0,0,0,2.42-5.42h9.7a21,21,0,0,1-6.42,12.43q-5.16,4.8-13.22,4.79-10,0-15.69-6.45t-5.69-17.83Q127.78,210.46,134.28,203.83Z"/><path class="cls-9" d="M175.69,223.3h17.69v8.57H175.69Z"/><path class="cls-9" d="M207.61,203.83A19.22,19.22,0,0,1,222,198.06q11.67,0,17.07,7.73a16.88,16.88,0,0,1,3.19,8.72h-9.76a13.16,13.16,0,0,0-2.4-5.07c-1.74-2-4.31-3.05-7.73-3.05a9.56,9.56,0,0,0-8.24,4.3q-3,4.31-3,12.17t3.18,11.78a10,10,0,0,0,8.08,3.92,9.18,9.18,0,0,0,7.67-3.37,14.55,14.55,0,0,0,2.41-5.42h9.71a21.09,21.09,0,0,1-6.42,12.43q-5.16,4.8-13.22,4.79-10,0-15.69-6.45t-5.71-17.83Q201.11,210.46,207.61,203.83Z"/><path class="cls-9" d="M274.16,211.31a10.1,10.1,0,0,1,4.3,3.4,9,9,0,0,1,1.74,4,49.79,49.79,0,0,1,.31,6.69v20.31h-9.24V224.64a9.38,9.38,0,0,0-.95-4.51c-.82-1.6-2.37-2.41-4.66-2.41a6.39,6.39,0,0,0-5.4,2.4c-1.22,1.59-1.83,3.88-1.83,6.84v18.73h-9.05V199.1h9.05v16.49a11.05,11.05,0,0,1,4.53-4.2,12.78,12.78,0,0,1,5.41-1.19A14.53,14.53,0,0,1,274.16,211.31Z"/><path class="cls-9" d="M302.69,224.67a14.5,14.5,0,0,0,3.61-.8,2.72,2.72,0,0,0,1.95-2.57,3,3,0,0,0-1.5-2.93,10,10,0,0,0-4.39-.81c-2.15,0-3.7.54-4.6,1.58a6.62,6.62,0,0,0-1.28,3.18h-8.73a13.33,13.33,0,0,1,2.56-7.46q3.6-4.56,12.35-4.56a21.94,21.94,0,0,1,10.13,2.25q4.44,2.25,4.43,8.5v15.86q0,1.65.06,4a5,5,0,0,0,.54,2.41,3.23,3.23,0,0,0,1.33,1.07v1.33h-9.83a9.57,9.57,0,0,1-.57-2c-.11-.62-.19-1.32-.26-2.09a18.53,18.53,0,0,1-4.33,3.45,13.1,13.1,0,0,1-6.64,1.68,11.43,11.43,0,0,1-7.8-2.68,9.58,9.58,0,0,1-3.08-7.6q0-6.37,5-9.23a22.34,22.34,0,0,1,8-2.22Zm5.52,4.21a10.24,10.24,0,0,1-1.75.88,14.4,14.4,0,0,1-2.43.61l-2,.38a13.69,13.69,0,0,0-4.16,1.24,4.14,4.14,0,0,0-2.15,3.84,4,4,0,0,0,1.31,3.34,4.92,4.92,0,0,0,3.17,1,9.42,9.42,0,0,0,5.46-1.71c1.66-1.14,2.53-3.22,2.59-6.25Z"/><path class="cls-9" d="M334.41,207h-9.16v-8.34h9.16Zm-9.16,4.12h9.16v34.57h-9.16Z"/><path class="cls-9" d="M371,213.11c2.26,1.86,3.4,5,3.4,9.3v23.28h-9.26v-21a9.67,9.67,0,0,0-.73-4.19q-1.32-2.68-5-2.69a6.24,6.24,0,0,0-6.27,3.9,13.73,13.73,0,0,0-.89,5.27v18.71h-9V211.19H352v5a14.93,14.93,0,0,1,3.29-3.84,11.32,11.32,0,0,1,7-2.09A13.23,13.23,0,0,1,371,213.11Z"/></g></g></svg>