<svg xmlns="http://www.w3.org/2000/svg" viewBox="0 0 150.37 178.89"><defs><style>.cls-1{fill:#fff;}</style></defs><g id="Layer_2" data-name="Layer 2"><g id="Layer_1-2" data-name="Layer 1"><path class="cls-1" d="M125.12,37.25A97.06,97.06,0,0,0,80.63,48a103.21,103.21,0,0,1,33.48,35.08,102.56,102.56,0,0,1,13.72,51.29c0,2.27-.07,4.53-.21,6.76l17.87-12.87,4-88A97.73,97.73,0,0,0,125.12,37.25Z"/><path class="cls-1" d="M76.56,123.39a102.91,102.91,0,0,1-59.93,13.36l59.55,42.14,46.62-33.54c.4-3.57-.4-7.25-.4-10.95a97.26,97.26,0,0,0-10.77-44.51A103.16,103.16,0,0,1,76.56,123.39Z"/><path class="cls-1" d="M0,21.19l4.87,107.1L7.27,130a97.73,97.73,0,0,0,18,1.67,97.37,97.37,0,0,0,44.52-10.78A102.58,102.58,0,0,1,22.54,34.53c0-2.72.1-5.45.32-8.12A61.41,61.41,0,0,1,0,21.19Z"/><path class="cls-1" d="M124.39,26.42A60.63,60.63,0,0,1,75.18,0,60.69,60.69,0,0,1,28.32,26.33c-.24,2.7-.35,5.45-.35,8.2A97.06,97.06,0,0,0,38.76,79a102.71,102.71,0,0,1,111-44.24l.62-13.61a61.36,61.36,0,0,1-24.82,5.25C125.16,26.44,124.78,26.44,124.39,26.42Z"/><circle class="cls-1" cx="75.18" cy="84.84" r="17.96"/></g></g></svg>