<svg xmlns="http://www.w3.org/2000/svg" viewBox="0 0 150 100"><defs><style>.cls-1,.cls-2{fill:#27496d;}.cls-1{stroke:#27496d;stroke-miterlimit:10;}.cls-3{fill:#00909e;}.cls-4{fill:none;}</style></defs><g id="Layer_2" data-name="Layer 2"><g id="Layer_1-2" data-name="Layer 1"><g id="Layer_2-2" data-name="Layer 2"><g id="Layer_2-2-2" data-name="Layer 2-2"><path class="cls-1" d="M83.73,54.16V64.94H75.89v5.62H74.37v4H70.12v1.69h4.25v.54h.55v5.63H70.49V80.33h-.37V92.1A40.33,40.33,0,0,1,59.4,90.78a44.52,44.52,0,0,1-18.11-10A58.38,58.38,0,0,1,35.82,75v-.33a1.43,1.43,0,0,0,.09-.27A40.69,40.69,0,0,1,37.41,68a33.6,33.6,0,0,1,15.93-19.7l.79.79a22.61,22.61,0,0,0,16,6.74A24.41,24.41,0,0,0,73,55.7a22.34,22.34,0,0,0,5.62-1.5Z"/><path class="cls-2" d="M75.63,10.32v.77c-.62-.17-1.24-.32-1.88-.43s-1.51-.23-2.26-.34Z"/><rect class="cls-2" x="74.93" y="13.6" width="0.69" height="3.28"/><rect class="cls-2" x="70.12" y="19.63" width="2.51" height="7.8"/><rect class="cls-2" x="74.37" y="70.62" width="1.52" height="3.97"/><rect class="cls-2" x="85.06" y="54.16" width="6.19" height="6.19"/><rect class="cls-3" x="87.53" y="61.39" width="6.19" height="6.19"/><rect class="cls-3" x="74.37" y="70.62" width="6.19" height="6.2"/><rect class="cls-2" x="70.12" y="80.4" width="0.43" height="6.2"/><rect class="cls-2" x="70.12" y="80.4" width="0.43" height="2.06"/><rect class="cls-2" x="74.37" y="76.28" width="0.54" height="0.52"/><rect class="cls-2" x="96.43" y="64.06" width="6.19" height="6.19"/><rect class="cls-2" x="101.33" y="73.67" width="3.86" height="3.86"/><rect class="cls-2" x="92.7" y="72.94" width="3.86" height="3.86"/><rect class="cls-2" x="88.69" y="85.7" width="3.86" height="3.86"/><rect class="cls-3" x="106.48" y="82.31" width="3.86" height="3.86"/><rect class="cls-3" x="89.42" y="74.29" width="4.69" height="4.69"/><rect class="cls-2" x="81.38" y="81.9" width="4.69" height="4.69"/><rect class="cls-2" x="84.55" y="69.19" width="6.19" height="6.19"/><rect class="cls-3" x="73.66" y="85.7" width="6.19" height="6.19"/><rect class="cls-2" x="74.93" y="13.6" width="5.08" height="5.08"/><rect class="cls-3" x="74.52" y="27.62" width="5.08" height="5.08"/><rect class="cls-3" x="84.32" y="25.97" width="5.08" height="5.08"/><rect class="cls-3" x="71.37" y="17.18" width="7.14" height="7.14"/><path class="cls-2" d="M77.86,35.62v2.55h.64v3H76.12v-1H71.37V34.67H70.12v5.51h1.25v1h4.75v9.18A19.66,19.66,0,0,1,73.4,51H66.57a5.7,5.7,0,0,1-1.23-.24,20.34,20.34,0,0,1-10.16-6A19.5,19.5,0,0,1,49.87,33,19.91,19.91,0,0,1,55.5,16.48a19.83,19.83,0,0,1,12.12-6l1.11-.15h2.68c.75.11,1.52.19,2.27.34s1.25.26,1.87.43v2.53h-.69V16.9H70.12V30.8h1.57v1.26H73v2H78.5v1.61Z"/><rect class="cls-4" x="71.37" y="40.14" width="4.76" height="1.01"/><rect class="cls-2" x="77.86" y="35.62" width="0.64" height="2.55"/><rect class="cls-2" x="79.13" y="17.18" width="3.92" height="3.92"/><rect class="cls-2" x="78.5" y="24.73" width="3.92" height="3.92"/><rect class="cls-2" x="80.28" y="30.52" width="3.92" height="3.92"/><rect class="cls-2" x="80.01" y="37.22" width="3.92" height="3.92"/><rect class="cls-2" x="76.13" y="42.73" width="4.37" height="6.04"/><rect class="cls-2" x="71.69" y="30.75" width="1.27" height="1.27"/><rect class="cls-3" x="83.8" y="14.87" width="2.55" height="2.55"/><rect class="cls-3" x="85.6" y="21.77" width="2.55" height="2.55"/><rect class="cls-2" x="99.28" y="25.09" width="2.55" height="2.55"/><rect class="cls-2" x="73.66" y="24.69" width="2.55" height="2.55"/><rect class="cls-3" x="83.03" y="33.07" width="2.55" height="2.55"/><rect class="cls-2" x="82.53" y="29.29" width="2.55" height="2.55"/><rect class="cls-2" x="78.33" y="29.29" width="2.55" height="2.55"/><rect class="cls-3" x="85.84" y="40.61" width="2.83" height="2.83"/><rect class="cls-3" x="77.86" y="35.62" width="2.55" height="2.55"/><rect class="cls-2" x="71.69" y="29.47" width="2.55" height="2.55"/><rect class="cls-2" x="87.49" y="12.57" width="4.61" height="4.61"/><rect class="cls-2" x="90.62" y="30.17" width="4.61" height="4.61"/><rect class="cls-2" x="87.1" y="35.85" width="3.11" height="3.11"/><rect class="cls-2" x="82.24" y="43.87" width="3.11" height="3.11"/><rect class="cls-3" x="94.65" y="38.17" width="3.11" height="3.11"/><rect class="cls-2" x="95.23" y="54.53" width="3.11" height="3.11"/><rect class="cls-2" x="82.99" y="66.92" width="3.11" height="3.11"/><rect class="cls-3" x="99.54" y="59.01" width="2.29" height="2.29"/><rect class="cls-2" x="91.24" y="68.89" width="2.29" height="2.29"/><rect class="cls-2" x="76.72" y="79.26" width="2.29" height="2.29"/><rect class="cls-2" x="81.1" y="77.08" width="2.29" height="2.29"/><rect class="cls-3" x="82.66" y="78.11" width="2.29" height="2.29"/><rect class="cls-2" x="89.03" y="82.24" width="2.29" height="2.29"/><rect class="cls-2" x="90.53" y="80.87" width="2.29" height="2.29"/><rect class="cls-2" x="103.87" y="56.5" width="2.29" height="2.29"/><rect class="cls-3" x="111.9" y="63.77" width="2.29" height="2.29"/><rect class="cls-3" x="97.75" y="83.1" width="2.29" height="2.29"/><rect class="cls-3" x="90.62" y="56.09" width="3.11" height="3.11"/><rect class="cls-2" x="78.46" y="69.44" width="3.11" height="3.11"/><rect class="cls-3" x="77.05" y="8.31" width="4.03" height="4.03"/><line class="cls-4" x1="70.12" y1="10.32" x2="70.12" y2="7.9"/></g></g><rect class="cls-4" width="150" height="100"/></g></g></svg>