<svg xmlns="http://www.w3.org/2000/svg" viewBox="0 0 150 100"><defs><style>.cls-1{fill:#00909e;}.cls-2{fill:#27496d;}.cls-3{fill:none;}</style></defs><g id="Layer_2" data-name="Layer 2"><g id="Layer_1-2" data-name="Layer 1"><g id="Layer_2-2" data-name="Layer 2"><g id="Layer_2-2-2" data-name="Layer 2-2"><path class="cls-1" d="M32.72,64.67H27a1.05,1.05,0,0,1-1.05-1s0,0,0-.06V57.68a1.1,1.1,0,0,1,2.19,0v4.8h4.61a1.1,1.1,0,1,1,0,2.19Z"/><path class="cls-1" d="M53,64.67H47.21a1.1,1.1,0,0,1,0-2.19H51.9v-5.1a1.1,1.1,0,0,1,2.19,0v6.19a1,1,0,0,1-1,1.1Z"/><path class="cls-1" d="M53,43.93a1,1,0,0,1-1.1-1V38.67H47.21a1.1,1.1,0,0,1,0-2.19H53a1,1,0,0,1,1,1v5.36a1,1,0,0,1-1,1Z"/><path class="cls-1" d="M27,43.93a1,1,0,0,1-1.05-1s0,0,0,0V37.53a1,1,0,0,1,1-1.09h5.51a1.1,1.1,0,1,1,0,2.19H28.05V42.8a1,1,0,0,1-.94,1.13Z"/><path class="cls-1" d="M40.17,57.4a6.24,6.24,0,0,1-4.52-1.79,1.57,1.57,0,0,1-.21-.24.62.62,0,0,1,.22-.84.6.6,0,0,1,.67,0c.2.15.38.34.57.49a5.36,5.36,0,0,0,6.81-.25l.27-.22a.57.57,0,0,1,.79,0,.58.58,0,0,1,0,.81l0,0a4.37,4.37,0,0,1-.49.47,6.25,6.25,0,0,1-2.55,1.3,5.4,5.4,0,0,1-.7.13A3.83,3.83,0,0,1,40.17,57.4Z"/><path class="cls-1" d="M41.06,48.75v2A2.21,2.21,0,0,1,39.21,53a2.29,2.29,0,0,1-.64,0,.58.58,0,0,1-.53-.61.6.6,0,0,1,.56-.6,2.31,2.31,0,0,0,.46-.05,1,1,0,0,0,.71-.82,2.28,2.28,0,0,0,0-.37v-4a.61.61,0,0,1,.69-.53.62.62,0,0,1,.53.53v.57Z"/><path class="cls-1" d="M33.77,47.56v-1a.77.77,0,0,1,1.39-.47.94.94,0,0,1,.16.4v2.08a.67.67,0,0,1-.54.65.79.79,0,0,1-.84-.24.67.67,0,0,1-.17-.49Z"/><path class="cls-1" d="M44.57,47.55v-1a.78.78,0,0,1,.77-.79.86.86,0,0,1,.27.05.74.74,0,0,1,.53.71v2a.8.8,0,0,1-.7.88.79.79,0,0,1-.87-.7.54.54,0,0,1,0-.18v-1Z"/><path class="cls-2" d="M95.58,48.72a2.17,2.17,0,1,0-2.15-2.18h0A2.17,2.17,0,0,0,95.58,48.72Z"/><path class="cls-2" d="M123.84,38.39H89.67a3.31,3.31,0,0,0-3.31,3.31h0V59.37a3.32,3.32,0,0,0,3.3,3.33h34.18a3.32,3.32,0,0,0,3.32-3.32h0V41.74a3.31,3.31,0,0,0-3.27-3.35ZM95.58,42.82a3.73,3.73,0,1,1-3.72,3.74h0A3.73,3.73,0,0,1,95.58,42.82ZM101,58.29a.78.78,0,0,1-.78-.79A4.63,4.63,0,1,0,91,57.07a3.09,3.09,0,0,0,0,.43.8.8,0,0,1-.88.7.79.79,0,0,1-.7-.7A6.26,6.26,0,1,1,101.8,56a6.44,6.44,0,0,1,0,1.52.79.79,0,0,1-.79.79Zm18.27-1H106.74a.74.74,0,0,1-.74-.74.73.73,0,0,1,.73-.73h12.52a.74.74,0,0,1,.74.72h0a.74.74,0,0,1-.73.75h0Zm0-4.26H106.74a.74.74,0,0,1-.74-.74.73.73,0,0,1,.73-.73h12.52a.73.73,0,0,1,.74.72h0A.74.74,0,0,1,119.25,53Zm0-4.29H106.74A.74.74,0,0,1,106,48a.72.72,0,0,1,.73-.73h12.52a.73.73,0,0,1,.74.71v0a.73.73,0,0,1-.74.71Zm0-4.3H106.74a.74.74,0,0,1-.74-.74.73.73,0,0,1,.73-.73h12.52a.74.74,0,0,1,.74.72h0a.74.74,0,0,1-.74.72Z"/><path class="cls-1" d="M90.61,44.75h-.22a.67.67,0,0,1-.44-.6V42.83a2,2,0,0,1,.82-1.65,2.07,2.07,0,0,1,1.37-.46h1a.65.65,0,0,1,.62.39.62.62,0,0,1,0,.53.56.56,0,0,1-.67.36H92a.8.8,0,0,0-.76.63.29.29,0,0,0,0,.13V44a.68.68,0,0,1-.19.51A.62.62,0,0,1,90.61,44.75Z"/><path class="cls-1" d="M90.34,43.39v-.55a1.72,1.72,0,0,1,1.71-1.72h1.14a.26.26,0,0,1,.27.15.26.26,0,0,1-.11.34l0,0H92a1.17,1.17,0,0,0-1.13.94.81.81,0,0,0,0,.22V44a.29.29,0,0,1-.07.24.22.22,0,0,1-.27.08.27.27,0,0,1-.19-.24v-.69Z"/><path class="cls-1" d="M100.58,44.75a.67.67,0,0,1-.62-.44,1.22,1.22,0,0,1,0-.27V42.82a.78.78,0,0,0-.72-.77v0H97.79a.68.68,0,0,1-.5-.67.69.69,0,0,1,.56-.62H99.1a2.14,2.14,0,0,1,2.16,2.12V44.1a.65.65,0,0,1-.37.62A.66.66,0,0,1,100.58,44.75Z"/><path class="cls-1" d="M100.31,43.41v-.59a1.19,1.19,0,0,0-1-1.16H97.89a.26.26,0,0,1-.2-.27.27.27,0,0,1,.23-.25H99.1a1.71,1.71,0,0,1,1.67,1.26,1.49,1.49,0,0,1,.07.47v1.21a.28.28,0,0,1-.17.27.25.25,0,0,1-.34-.11s0,0,0,0a.38.38,0,0,1,0-.15v-.64Z"/><path class="cls-1" d="M98,52a.57.57,0,0,1-.26,0,.64.64,0,0,1-.42-.81.65.65,0,0,1,.48-.44h1.35a.8.8,0,0,0,.74-.65V49a1,1,0,0,1,0-.24.62.62,0,0,1,.61-.48h0a.67.67,0,0,1,.64.46,1,1,0,0,1,0,.24v1a2.1,2.1,0,0,1-1.71,2,2.29,2.29,0,0,1-.37,0H98Z"/><path class="cls-1" d="M98.61,51.08h.56a1.18,1.18,0,0,0,1.12-1,1.31,1.31,0,0,0,0-.28v-1a.29.29,0,0,1,0-.13.26.26,0,0,1,.23-.2.29.29,0,0,1,.27.19v1.17a1.73,1.73,0,0,1-1.35,1.68h-1.5a.27.27,0,0,1-.17-.34.29.29,0,0,1,.17-.17h.67Z"/><path class="cls-1" d="M92.34,52a4.51,4.51,0,0,1-.52,0,2,2,0,0,1-1.48-.86,2,2,0,0,1-.4-1.16V48.81a.63.63,0,0,1,.2-.5.67.67,0,0,1,.45-.18.66.66,0,0,1,.65.56v1.16a.77.77,0,0,0,.49.74.6.6,0,0,0,.27.07h1.19a.57.57,0,0,1,.26,0,.67.67,0,0,1,.47.62.72.72,0,0,1-.71.66h-.83Z"/><path class="cls-1" d="M92.57,51.63h-.72a1.72,1.72,0,0,1-1.2-.73,1.57,1.57,0,0,1-.31-.93V48.84a.32.32,0,0,1,.08-.21.23.23,0,0,1,.26-.06.22.22,0,0,1,.18.22.14.14,0,0,1,0,.09v1a1.14,1.14,0,0,0,.7,1,1,1,0,0,0,.45.1h1.33a.28.28,0,0,1,.19.25.24.24,0,0,1-.19.24h-.73Z"/><path class="cls-2" d="M69.21,32.45l-4.35,2.81c-.34-.42-.68-.8-1-1.22a26.64,26.64,0,0,0-32-9.21,27.12,27.12,0,0,0-11,42c10.71,13.55,29.52,14,41.45,1.44a43.52,43.52,0,0,0,8.85-14.67c1.85-4.83,3.41-9.79,5.68-14.41,5.15-10.47,13-18.08,24.7-20.64,12-2.59,22.24.86,30.51,10a30.2,30.2,0,0,1,7.89,17.58A31.71,31.71,0,0,1,132.6,70.7a32.17,32.17,0,0,1-51.82-3.32L85,64.71a62.06,62.06,0,0,0,5.35,5.65c8.55,7.18,18.17,8.71,28.42,4.38C137,67,140.61,42.42,125.64,29.5,113.84,19.32,98,20.39,87.5,32.05a44,44,0,0,0-8.63,14.81C76.79,52.7,74.93,58.6,71.67,64c-5.5,9-13,15.24-23.49,17.46A31.89,31.89,0,0,1,11,58.54,32.32,32.32,0,0,1,69.21,32.45Z"/></g></g><rect class="cls-3" width="150" height="100"/></g></g></svg>