<svg xmlns="http://www.w3.org/2000/svg" viewBox="0 0 150 100"><defs><style>.cls-1{fill:none;}.cls-2{fill:#27496d;}.cls-3{fill:#00909e;}</style></defs><g id="Layer_2" data-name="Layer 2"><g id="Layer_1-2" data-name="Layer 1"><rect class="cls-1" width="150" height="100"/><g id="Layer_2-2" data-name="Layer 2"><g id="Layer_2-2-2" data-name="Layer 2-2"><path class="cls-2" d="M34,26.76V22.4a13.12,13.12,0,0,1,5.26-10.52A13.27,13.27,0,0,1,47.78,9h8.58a2.12,2.12,0,0,1,2.1,1.23,2,2,0,0,1-.94,2.67,1.48,1.48,0,0,1-.27.1,3.47,3.47,0,0,1-1.2.15H47.24a9.2,9.2,0,0,0-8.84,7.34,8.23,8.23,0,0,0-.17,1.64V31.7a2.44,2.44,0,0,1-.59,1.9,1.87,1.87,0,0,1-2.15.61,2,2,0,0,1-1.42-1.89V29.48Z"/><path class="cls-2" d="M111.83,26.89V22.21a9.24,9.24,0,0,0-8.2-9,11.69,11.69,0,0,0-1.45,0H94a4.16,4.16,0,0,1-1-.1A2.08,2.08,0,0,1,91.41,11a2.14,2.14,0,0,1,1.73-2h9.26a13.43,13.43,0,0,1,13,9.85,14.86,14.86,0,0,1,.57,3.64V32a2.16,2.16,0,0,1-1.24,2.12,2,2,0,0,1-2.65-.94,1.57,1.57,0,0,1-.09-.23,3.75,3.75,0,0,1-.17-1.2V26.89Z"/><path class="cls-2" d="M98.58,86.77h4.36a9.22,9.22,0,0,0,8.73-7.5,14.57,14.57,0,0,0,.16-2.19V69.64a5.35,5.35,0,0,1,.12-1.13,2,2,0,0,1,3.88,0,3.3,3.3,0,0,1,.15,1v8.2a13.59,13.59,0,0,1-11.29,13.12,16.32,16.32,0,0,1-2.42.18H94a3.59,3.59,0,0,1-1.13-.16,2,2,0,0,1,.23-4,5.35,5.35,0,0,1,1,0Z"/><path class="cls-2" d="M51.46,91a51.94,51.94,0,0,1-5.58-.2,12.8,12.8,0,0,1-9.38-5.51A12.37,12.37,0,0,1,34,78V69.3a2.08,2.08,0,0,1,.6-1.64,2,2,0,0,1,2-.51,2.06,2.06,0,0,1,1.44,1.64,4.82,4.82,0,0,1,0,.76v8a9.12,9.12,0,0,0,5.5,8.43,7.78,7.78,0,0,0,3.54.84H56a5.29,5.29,0,0,1,1.19.13,2.08,2.08,0,0,1,1.41,2,2,2,0,0,1-1.41,1.88,3.6,3.6,0,0,1-1.13.17H51.46Z"/><path class="cls-3" d="M52.74,48.69a12.35,12.35,0,0,1,.16-1.33,21.51,21.51,0,0,1,2.41-7.69c.4-.72.84-1.41,1.27-2.12a2.62,2.62,0,0,1,.24-.34,26.5,26.5,0,0,0,5.06,2.58c-.33,1.64-.69,3.28-.92,4.92s-.28,3.28-.41,5H52.67Z"/><path class="cls-3" d="M62.68,49.78a34.48,34.48,0,0,1,1.23-9.32A37.94,37.94,0,0,0,74,42.1v7.74Z"/><path class="cls-3" d="M76,49.78V42.11c1.64-.18,3.36-.29,5-.54s3.28-.65,4.92-1a33.31,33.31,0,0,1,1.18,9.21Z"/><path class="cls-3" d="M87.91,39.85a26.78,26.78,0,0,0,5.27-2.64,22.29,22.29,0,0,1,4.08,12.57h-8a3.38,3.38,0,0,1,0-.45c-.1-1.46-.16-2.92-.31-4.36a33,33,0,0,0-.87-4.64A1.5,1.5,0,0,1,87.91,39.85Z"/><path class="cls-3" d="M74,60V72.19L73.15,72a9.39,9.39,0,0,1-4.25-2.65,18.88,18.88,0,0,1-3.74-5.91c-.27-.66-.51-1.33-.79-2A36.38,36.38,0,0,1,74,60Z"/><path class="cls-3" d="M74,27.79V40.05a35.53,35.53,0,0,1-9.61-1.48c.26-.67.49-1.34.77-2a18.83,18.83,0,0,1,3.74-5.94A9.38,9.38,0,0,1,73.11,28Z"/><path class="cls-3" d="M76,60a36.47,36.47,0,0,1,9.45,1.43v.21a23.36,23.36,0,0,1-3.19,6.3,11.82,11.82,0,0,1-3.9,3.44,6.79,6.79,0,0,1-2.36.79Z"/><path class="cls-3" d="M76,40V27.84a5.46,5.46,0,0,1,1.64.44,10.38,10.38,0,0,1,3.92,3,21.61,21.61,0,0,1,3.87,7.25.24.24,0,0,1,0,.12A32.7,32.7,0,0,1,76,40Z"/><path class="cls-3" d="M74,51.81V58A38.52,38.52,0,0,0,63.84,59.6a36.81,36.81,0,0,1-1.14-7.74Z"/><path class="cls-3" d="M76,58V51.81H87.19A36.55,36.55,0,0,1,86,59.52,40.18,40.18,0,0,0,76,58Z"/><path class="cls-3" d="M97.18,51.81a22,22,0,0,1-4,11,26.75,26.75,0,0,0-5.29-2.66,39.67,39.67,0,0,0,1.27-8.33Z"/><path class="cls-3" d="M62,60.19a26.51,26.51,0,0,0-5.15,2.61,22.14,22.14,0,0,1-4-10.94c.34-.11,7.38-.13,7.86,0,.15,1.41.24,2.82.46,4.22S61.68,58.78,62,60.19Z"/><path class="cls-3" d="M92,35.67A20.8,20.8,0,0,1,87.34,38,23.69,23.69,0,0,0,82,28.92,22,22,0,0,1,92,35.67Z"/><path class="cls-3" d="M82,71.07a20,20,0,0,0,3.15-4.22,28,28,0,0,0,2.15-4.92A22.18,22.18,0,0,1,92,64.23,21.86,21.86,0,0,1,82,71.07Z"/><path class="cls-3" d="M58,35.68A22.11,22.11,0,0,1,67.81,29a24.16,24.16,0,0,0-5.2,9A21.73,21.73,0,0,1,58,35.68Z"/><path class="cls-3" d="M62.56,62a24,24,0,0,0,5.21,9,22,22,0,0,1-9.85-6.68A22.49,22.49,0,0,1,62.56,62Z"/></g></g></g></g></svg>