<svg xmlns="http://www.w3.org/2000/svg" viewBox="0 0 150 100"><defs><style>.cls-1{fill:none;}.cls-2{fill:#00909e;}.cls-3{fill:#27496d;}</style></defs><g id="Layer_2" data-name="Layer 2"><g id="Layer_1-2" data-name="Layer 1"><rect class="cls-1" width="150" height="100"/><g id="Layer_2-2" data-name="Layer 2"><g id="Layer_2-2-2" data-name="Layer 2-2"><polygon class="cls-2" points="47.2 70.32 22.94 70.32 22.94 65.43 41.7 65.43 41.7 40.79 47.2 40.79 47.2 70.32"/><polygon class="cls-2" points="25.74 59.32 9.12 67.88 25.74 76.41 25.74 59.32"/><polygon class="cls-2" points="127.06 70.32 102.8 70.32 102.8 40.79 108.3 40.79 108.3 65.43 127.06 65.43 127.06 70.32"/><polygon class="cls-2" points="124.26 76.41 140.88 67.88 124.26 59.32 124.26 76.41"/><rect class="cls-2" x="72.24" y="37.38" width="5.5" height="33.84"/><polygon class="cls-2" points="65.4 68.71 74.99 83.51 84.59 68.71 65.4 68.71"/><path class="cls-3" d="M106.88,29.18a1.68,1.68,0,0,0-1,.36,2,2,0,0,0-.69,1.69,2.31,2.31,0,0,0,.51,1.54,1.61,1.61,0,0,0,1.29.59,1.43,1.43,0,0,0,1.21-.58,2.37,2.37,0,0,0,.44-1.48,2.18,2.18,0,0,0-.49-1.57A1.6,1.6,0,0,0,106.88,29.18Z"/><path class="cls-3" d="M23.47,20.62V37.75a4.12,4.12,0,0,0,4.13,4.12h98.08a4.12,4.12,0,0,0,4.12-4.12V20.62a4.13,4.13,0,0,0-4.12-4.13H27.6A4.13,4.13,0,0,0,23.47,20.62ZM51.14,28H49.49l-.64,2.36H50.5l-.37,1.38H48.5l-.88,3.19H46l.86-3.23H45.53l-.87,3.23H43.09L44,31.7H42.34l.35-1.38h1.64L45,28H43.33l.35-1.38h1.65l.91-3.21h1.6l-.91,3.28H48.3l.83-3.28h1.59l-.86,3.25h1.63Zm7.45,6.87H56.22v-8H53.47V25.3A11,11,0,0,0,55,25.17a2.19,2.19,0,0,0,1.12-.62,2.1,2.1,0,0,0,.46-.84,2.43,2.43,0,0,0,.08-.47h2Zm12.26,0h-8a5.55,5.55,0,0,1,.55-2.29,6.4,6.4,0,0,1,2.31-2.48,17.9,17.9,0,0,0,2.06-1.62,2.41,2.41,0,0,0,.72-1.68,1.9,1.9,0,0,0-.41-1.23,1.67,1.67,0,0,0-2.36,0,2.37,2.37,0,0,0-.23.3,3.79,3.79,0,0,0-.26,1.37H63a5.69,5.69,0,0,1,.54-2.4,3.34,3.34,0,0,1,3.34-1.69,4.09,4.09,0,0,1,2.94,1A3.54,3.54,0,0,1,70.91,27a3.7,3.7,0,0,1-.77,2.29,7.26,7.26,0,0,1-1.68,1.5l-.92.65c-.58.41-1,.7-1.18.88a3.06,3.06,0,0,0-.54.65h5Zm9-.83a3.86,3.86,0,0,1-3,1.12,3.65,3.65,0,0,1-3.44-1.62,4.78,4.78,0,0,1-.56-2.25H75a2.68,2.68,0,0,0,.22,1.15,1.56,1.56,0,0,0,1.53.85A1.63,1.63,0,0,0,78,32.83a1.7,1.7,0,0,0,.51-1.38,1.52,1.52,0,0,0-.94-1.54,5.19,5.19,0,0,0-1.66-.21V28.15a4.28,4.28,0,0,0,1.55-.22,1.36,1.36,0,0,0,.76-1.37,1.52,1.52,0,0,0-.39-1.1,1.37,1.37,0,0,0-1.1-.42,1.39,1.39,0,0,0-1.18.53,2.08,2.08,0,0,0-.37,1.37H73a5.79,5.79,0,0,1,.3-1.65A3.35,3.35,0,0,1,74.17,24a2.83,2.83,0,0,1,1.07-.66,4.4,4.4,0,0,1,1.53-.22,4.07,4.07,0,0,1,2.75.86,2.91,2.91,0,0,1,1,2.33,2.63,2.63,0,0,1-.62,1.74,2.28,2.28,0,0,1-.8.61,1.64,1.64,0,0,1,.9.53,2.92,2.92,0,0,1,.88,2.23,3.73,3.73,0,0,1-1.09,2.64ZM91,32.36H89.6v2.51H87.41V32.41H82.78v-2l4.3-7h2.57v7.3H91ZM99.87,34a3.73,3.73,0,0,1-3.11,1.28A4.08,4.08,0,0,1,94,34.34a3.42,3.42,0,0,1-1.18-2.55h2.28A2.27,2.27,0,0,0,95.63,33a1.52,1.52,0,0,0,1.13.4,1.45,1.45,0,0,0,1.29-.6,2.38,2.38,0,0,0,.44-1.5,2.58,2.58,0,0,0-.42-1.51,1.38,1.38,0,0,0-1.3-.62,1.86,1.86,0,0,0-.73.11,1.38,1.38,0,0,0-.81.71l-2.06-.09L94,23.39h6.42v2h-4.8l-.41,2.55a6,6,0,0,1,.82-.46,3.6,3.6,0,0,1,4.83,3.63A4.42,4.42,0,0,1,99.87,34ZM110,34a3.55,3.55,0,0,1-3,1.25,3.5,3.5,0,0,1-3.26-1.84,7.61,7.61,0,0,1-.81-3.72,19.24,19.24,0,0,1,0-2.15,6.85,6.85,0,0,1,.79-2.49,4.08,4.08,0,0,1,1.37-1.37,3.51,3.51,0,0,1,1.94-.51,3.82,3.82,0,0,1,2.6.84,3.16,3.16,0,0,1,1.09,2.21h-2.37a1.26,1.26,0,0,0-.2-.62,1.28,1.28,0,0,0-1.13-.55,1.67,1.67,0,0,0-1.6,1.25,8.47,8.47,0,0,0-.35,2.05,2.89,2.89,0,0,1,1-.74,3.35,3.35,0,0,1,1.29-.23A3.4,3.4,0,0,1,110,28.38a3.82,3.82,0,0,1,1,2.75A4.58,4.58,0,0,1,110,34Z"/><polygon class="cls-3" points="45.93 30.36 47.26 30.36 47.89 28 46.57 28 45.93 30.36"/><polygon class="cls-3" points="87.41 30.61 87.41 25.58 84.49 30.61 87.41 30.61"/></g></g></g></g></svg>