<?xml version="1.0" encoding="utf-8"?>
<!-- Generator: Adobe Illustrator 25.1.0, SVG Export Plug-In . SVG Version: 6.00 Build 0)  -->
<svg version="1.1" id="Layer_1" xmlns="http://www.w3.org/2000/svg" xmlns:xlink="http://www.w3.org/1999/xlink" x="0px" y="0px"
	 viewBox="0 0 150 100" style="enable-background:new 0 0 150 100;" xml:space="preserve">
<style type="text/css">
	.st0{fill:none;}
	.st1{fill:#27496D;}
	.st2{fill:#00909E;}
	.st3{fill:#FFFFFF;}
	.st4{fill:none;stroke:#27496D;stroke-width:2;stroke-miterlimit:10;}
	.st5{fill:none;stroke:#00909E;stroke-width:2;stroke-miterlimit:10;}
</style>
<g id="Layer_2_1_">
	<g id="Layer_1-2">
		<rect class="st0" width="150" height="100"/>
		<g id="Layer_2-2">
			<g id="Layer_1-2-2">
				<path class="st1" d="M104.6,85.2H91.7c-0.3,1.3-0.9,2.6-1.7,3.7h18.3L104.6,85.2z M118.2,24.4c-1-1.1-2-2.1-3-3.2l-7.1-7.4
					c-1.6-1.7-3.8-2.7-6.1-2.6H65.2c-3.9,0.2-7.1,3.3-7.2,7.2v28.3h3.7V19c-0.2-1.7,0.8-3.3,2.4-3.9c0.6-0.2,1.2-0.3,1.8-0.3h34.4
					c1.3,0,2.5,0.9,2.7,2.2c0.1,0.7,0.2,1.3,0.2,2v6.2c-0.2,2.1,1.4,4,3.5,4.2c0.2,0,0.4,0,0.6,0h5.7c1.8-0.1,3.4,1.3,3.5,3.1
					c0,0,0,0,0,0c0,0.1,0,0.2,0,0.3v40.3l3.7,3.7V30C120.4,27.9,119.6,25.9,118.2,24.4z"/>
				<path class="st1" d="M94.2,26H67.4c-1.2,0-2.1-0.9-2.1-2.1c0-1.2,0.9-2.1,2.1-2.1c0,0,0,0,0,0h26.8c1.2,0,2.1,0.9,2.1,2.1
					C96.3,25.1,95.4,26,94.2,26C94.2,26,94.2,26,94.2,26z"/>
				<path class="st1" d="M96.4,36.7c0,0.5-0.2,1-0.6,1.4c-1.5-0.3-2.9-0.4-4.4-0.4c-2.4,0-4.7,0.4-7,1.1h-17c-1.2,0-2.1-0.9-2.1-2.1
					c0-1.2,0.9-2.1,2.1-2.1h26.8c1.2,0,2.1,0.8,2.2,2V36.7z"/>
				<path class="st1" d="M103.8,73c-1.2,1.2-2.5,2.1-4,2.9l1.7-1.1C102.3,74.3,103,73.7,103.8,73L103.8,73z"/>
				<path class="st1" d="M107.5,75.2c0,0.1,0,0.1,0,0.2c-0.6,0.7-1.3,1.3-2,1.8h-0.2C106.1,76.5,106.8,75.9,107.5,75.2z"/>
				<path class="st1" d="M78.2,77.8c-0.2,0.4-0.6,0.7-1.1,0.7H56.2c-0.7-0.1-1.2-0.7-1.1-1.4c0.1-0.6,0.5-1,1.1-1.1h20
					c-1.1-1-2-2.1-2.9-3.2H56.2c-0.7,0-1.2-0.6-1.2-1.2c0-0.7,0.5-1.2,1.2-1.2c0,0,0,0,0,0h15.5c-0.6-1-1-2.1-1.4-3.3H56.2
					c-0.7,0-1.2-0.5-1.2-1.2s0.5-1.2,1.2-1.2h13.5c-0.2-1.1-0.4-2.2-0.5-3.3h-13c-0.7,0-1.2-0.5-1.2-1.2c0-0.6,0.5-1.2,1.2-1.2h12.9
					c0.1-2.3,0.5-4.5,1.3-6.6H33.3c-2,0-3.7,1.6-3.7,3.6v27.3c0,2,1.6,3.7,3.7,3.7c0,0,0,0,0,0h49.3c2,0,3.7-1.7,3.7-3.7
					c0,0,0,0,0,0v-1.7C83.4,80.9,80.6,79.6,78.2,77.8z M40.6,61.5c0.9-0.9,2-1.3,3.2-1.3l0,0c2.5,0,4.6,2.1,4.6,4.6
					c0,2.5-2.1,4.6-4.6,4.6l0,0c-2.5,0-4.6-2.1-4.6-4.7C39.3,63.5,39.8,62.4,40.6,61.5L40.6,61.5z M50.9,79.1
					c-0.5,0-0.8-0.4-0.8-0.8c0,0,0,0,0,0l0,0c0.2-3.4-2.4-6.3-5.9-6.5c-3.4-0.2-6.3,2.4-6.5,5.8l0,0c0,0.2,0,0.4,0,0.7
					c0,0.5-0.4,0.8-0.8,0.8h0l0,0c-0.5,0-0.8-0.4-0.8-0.8c0.2-4.3,3.8-7.7,8.1-7.6c4.1,0.1,7.4,3.5,7.6,7.6
					C51.7,78.7,51.3,79.1,50.9,79.1L50.9,79.1L50.9,79.1z"/>
				<path class="st1" d="M46.8,64.8c0,0.8-0.3,1.5-0.9,2.1c-0.6,0.5-1.3,0.8-2.1,0.8l0,0c-1.6-0.1-2.9-1.4-2.9-3
					c0-0.7,0.3-1.5,0.8-2c0.5-0.5,1.3-0.8,2-0.8l0,0c0.8,0,1.5,0.3,2.1,0.8C46.4,63.3,46.8,64,46.8,64.8z"/>
				<path class="st2" d="M106.3,69.9c-0.8,1.1-1.6,2.2-2.6,3.1c-0.7,0.7-1.5,1.3-2.3,1.8L99.7,76c1.5-0.8,2.9-1.8,4.1-2.9
					c1.5-1.4,2.7-3,3.7-4.8L106.3,69.9z"/>
				<path class="st2" d="M108.4,54l-3.4,3.4c0.2,0.8,0.2,1.7,0.3,2.5v0.2c0,1.4-0.3,2.9-0.8,4.2c-1.4,4-4.5,7.2-8.4,8.6
					c-1.3,0.5-2.7,0.7-4.1,0.8h-0.5c-1.8,0-3.5-0.3-5.1-1c-4.8-1.9-8.2-6.3-8.7-11.4v-2.8c0.1-1.2,0.4-2.4,0.8-3.5
					c0.3-0.9,0.8-1.8,1.3-2.7c3.7-5.7,11.1-7.9,17.3-5c0.3,0.2,0.7,0.3,1,0.5l3-3c-8.3-5.4-19.5-3-24.9,5.3
					c-1.7,2.6-2.7,5.7-2.9,8.8v1c0,0.5,0,1,0,1.5c0.2,3.2,1.4,6.3,3.3,8.9c0.4,0.7,0.9,1.3,1.5,1.8c2.2,2.4,5,4.1,8.1,5
					c1.7,0.5,3.4,0.8,5.2,0.8c1.7,0,3.4-0.2,5-0.7c1.1-0.3,2.2-0.8,3.2-1.3l0,0l1.7-1.1c0.8-0.6,1.6-1.2,2.3-1.9
					c1-0.9,1.9-2,2.6-3.1l1.1-1.7l0,0c2.3-4.4,2.6-9.5,1-14.1L108.4,54z"/>
				<path class="st2" d="M107.4,68.2c-1,1.8-2.2,3.4-3.7,4.8c-1.2,1.2-2.5,2.1-4,2.9l1.7-1.1c0.8-0.5,1.6-1.1,2.3-1.8
					c1-0.9,1.9-2,2.6-3.1L107.4,68.2z"/>
				<path class="st2" d="M105.4,77.2c-0.5,0.4-1,0.8-1.6,1.2h-0.1c0.5-0.3,1-0.7,1.5-1.1c0.8-0.6,1.5-1.3,2.2-2.1l0,0
					c0.9-0.9,1.6-1.9,2.3-2.9h0.1c-0.7,1.1-1.5,2.1-2.4,3C106.8,76,106.1,76.7,105.4,77.2z"/>
				<path class="st2" d="M120.3,84.6c0,2.4-1.9,4.3-4.3,4.3c-0.4,0-0.8-0.1-1.2-0.2c-0.7-0.2-1.3-0.6-1.8-1.1l-2.3-2.4l-6.8-6.8
					c0.6-0.4,1.1-0.8,1.6-1.2c0.7-0.6,1.4-1.2,2-1.8c0.9-0.9,1.7-1.9,2.4-3l6.8,6.8l2.4,2.4C119.9,82.4,120.4,83.5,120.3,84.6
					L120.3,84.6z"/>
				<path class="st2" d="M109.9,72.3c-0.7,1.1-1.5,2.1-2.4,3c-0.6,0.7-1.3,1.3-2,1.8c-0.5,0.4-1,0.8-1.6,1.2h-0.1
					c0.5-0.3,1-0.7,1.5-1.1c0.8-0.6,1.5-1.3,2.2-2.1l0,0C108.3,74.3,109.1,73.3,109.9,72.3L109.9,72.3z"/>
				<polygon class="st2" points="111.2,46 106.2,51.1 102.9,54.3 90.8,66.4 81.6,57.2 84.5,54.2 90.8,60.5 100.8,50.5 103.8,47.5 
					108.3,43 				"/>
			</g>
		</g>
	</g>
</g>
<rect x="-181.5" y="-30.6" class="st3" width="150" height="100"/>
<g>
	<path class="st1" d="M-103.1,13.1h-15.8c-2.9,0-5.2-2.3-5.2-5.2V-7.9c0-2.9,2.3-5.2,5.2-5.2h15.8c2.9,0,5.2,2.3,5.2,5.2V7.9
		C-97.8,10.8-100.2,13.1-103.1,13.1z"/>
	<g>
		<path class="st3" d="M-112.6-7.9V2.3c0,0.9,0.7,1.7,1.7,1.7h0c0.9,0,1.7-0.7,1.7-1.7V-7.9c0-0.9-0.7-1.7-1.7-1.7h0
			C-111.9-9.5-112.6-8.8-112.6-7.9z"/>
		<circle class="st3" cx="-111" cy="7.9" r="1.7"/>
	</g>
</g>
<g>
	<path class="st1" d="M-134.8,43.7h-15.8c-2.9,0-5.2-2.3-5.2-5.2V22.7c0-2.9,2.3-5.2,5.2-5.2h15.8c2.9,0,5.2,2.3,5.2,5.2v15.8
		C-129.5,41.4-131.9,43.7-134.8,43.7z"/>
	<g>
		<path class="st3" d="M-144.3,22.7v10.2c0,0.9,0.7,1.7,1.7,1.7h0c0.9,0,1.7-0.7,1.7-1.7V22.7c0-0.9-0.7-1.7-1.7-1.7h0
			C-143.6,21-144.3,21.8-144.3,22.7z"/>
		<circle class="st3" cx="-142.7" cy="38.4" r="1.7"/>
	</g>
</g>
<path class="st4" d="M-79,13.1L-79,13.1c-7.3,0-13.1-5.9-13.1-13.1v0c0-7.3,5.9-13.1,13.1-13.1h0c7.3,0,13.1,5.9,13.1,13.1v0
	C-65.9,7.3-71.8,13.1-79,13.1z"/>
<path class="st5" d="M-111,43.7L-111,43.7c-7.3,0-13.1-5.9-13.1-13.1v0c0-7.3,5.9-13.1,13.1-13.1h0c7.3,0,13.1,5.9,13.1,13.1v0
	C-97.8,37.8-103.7,43.7-111,43.7z"/>
<path class="st5" d="M-144.4-11.7L-154.5,10c-0.6,1.3,0.3,2.7,1.7,2.7l20.3,0c1.4,0,2.3-1.4,1.7-2.7L-141-11.7
	C-141.6-13.1-143.7-13.1-144.4-11.7z"/>
<path class="st4" d="M-80.8,18.9l-10.2,21.7c-0.6,1.3,0.3,2.7,1.7,2.7l20.3,0c1.4,0,2.3-1.4,1.7-2.7l-10.2-21.7
	C-78,17.5-80.1,17.5-80.8,18.9z"/>
</svg>
