<svg width="564" height="578" viewBox="0 0 564 578" fill="none" xmlns="http://www.w3.org/2000/svg">
<path d="M257 33.3729C394.559 14.9418 521.014 111.514 539.445 249.073" stroke="#94EECB" stroke-width="12"/>
<path d="M306.73 148.07C320.236 148.07 331.184 137.131 331.184 123.637C331.184 110.144 320.236 99.2053 306.73 99.2053C293.225 99.2053 282.277 110.144 282.277 123.637C282.277 137.131 293.225 148.07 306.73 148.07Z" fill="#94EECB" fill-opacity="0.9"/>
<path d="M380.289 454.011C388.95 454.011 395.971 446.99 395.971 438.329C395.971 429.668 388.95 422.647 380.289 422.647C371.629 422.647 364.607 429.668 364.607 438.329C364.607 446.99 371.629 454.011 380.289 454.011Z" fill="#94EECB"/>
<path d="M280.027 541.213C147.238 541.213 39.2051 433.277 39.2051 300.605C39.2051 167.935 147.238 60.0002 280.027 60.0002C412.816 60.0002 520.846 167.935 520.846 300.605C520.846 433.277 412.816 541.213 280.027 541.213ZM280.027 70.8905C153.247 70.8905 50.105 173.939 50.105 300.605C50.105 427.274 153.247 530.322 280.027 530.322C406.807 530.322 509.946 427.274 509.946 300.605C509.946 173.939 406.807 70.8905 280.027 70.8905Z" fill="#94EECB" fill-opacity="0.5"/>
<path d="M279.739 417.34C215.154 417.34 162.613 364.846 162.613 300.317C162.613 235.792 215.154 183.297 279.739 183.297C344.318 183.297 396.859 235.792 396.859 300.317C396.859 364.846 344.318 417.34 279.739 417.34ZM279.739 188.742C218.161 188.742 168.063 238.794 168.063 300.317C168.063 361.841 218.161 411.895 279.739 411.895C341.317 411.895 391.409 361.841 391.409 300.317C391.409 238.794 341.317 188.742 279.739 188.742Z" fill="#94EECB" fill-opacity="0.5"/>
<path d="M279.494 477.534C181.584 477.534 101.933 397.953 101.933 300.129C101.933 202.31 181.584 122.728 279.494 122.728C377.396 122.728 457.047 202.31 457.047 300.129C457.047 397.953 377.396 477.534 279.494 477.534ZM279.494 130.983C186.143 130.983 110.195 206.86 110.195 300.129C110.195 393.399 186.143 469.28 279.494 469.28C372.845 469.28 448.785 393.399 448.785 300.129C448.785 206.86 372.845 130.983 279.494 130.983Z" fill="#94EECB" fill-opacity="0.5"/>
<path d="M530.448 293.838C511.975 293.838 497 278.876 497 260.419C497 241.962 511.975 227 530.448 227C548.921 227 563.897 241.962 563.897 260.419C563.897 278.876 548.921 293.838 530.448 293.838Z" fill="#94EECB" fill-opacity="0.9"/>
<path fill-rule="evenodd" clip-rule="evenodd" d="M287.47 449.499C246.692 529.628 165.837 577.507 165.837 577.507C165.837 577.507 84.9825 529.628 44.2049 449.499C2.08587 366.732 0 267.148 0 267.148L165.837 208.98L331.675 267.148C331.675 267.148 329.589 366.732 287.47 449.499Z" fill="white" fill-opacity="0.85"/>
<path fill-rule="evenodd" clip-rule="evenodd" d="M165.802 529.599C142.01 511.91 100.58 476.413 76.4672 428.836C51.879 380.316 42.3599 324.089 38.7189 291.08L165.839 246.308L292.959 291.08C289.322 324.064 279.806 380.301 255.211 428.832C231.219 476.181 189.602 511.851 165.802 529.599Z" fill="#94EECB"/>
<path opacity="0.08" fill-rule="evenodd" clip-rule="evenodd" d="M165.837 208.98L0 267.148C0 267.148 2.08587 366.732 44.2049 449.499C84.9825 529.628 165.837 577.507 165.837 577.507V208.98Z" fill="black"/>
<path d="M98.4257 354C97.4757 352.25 96.1007 350.925 94.3007 350.025C92.5507 349.075 90.4757 348.6 88.0757 348.6C83.9257 348.6 80.6007 349.975 78.1007 352.725C75.6007 355.425 74.3507 359.05 74.3507 363.6C74.3507 368.45 75.6507 372.25 78.2507 375C80.9007 377.7 84.5257 379.05 89.1257 379.05C92.2757 379.05 94.9257 378.25 97.0757 376.65C99.2757 375.05 100.876 372.75 101.876 369.75H85.6007V360.3H113.501V372.225C112.551 375.425 110.926 378.4 108.626 381.15C106.376 383.9 103.501 386.125 100.001 387.825C96.5007 389.525 92.5507 390.375 88.1507 390.375C82.9507 390.375 78.3007 389.25 74.2007 387C70.1507 384.7 66.9757 381.525 64.6757 377.475C62.4257 373.425 61.3007 368.8 61.3007 363.6C61.3007 358.4 62.4257 353.775 64.6757 349.725C66.9757 345.625 70.1507 342.45 74.2007 340.2C78.2507 337.9 82.8757 336.75 88.0757 336.75C94.3757 336.75 99.6757 338.275 103.976 341.325C108.326 344.375 111.201 348.6 112.601 354H98.4257ZM140.33 337.35C145.88 337.35 150.73 338.45 154.88 340.65C159.03 342.85 162.23 345.95 164.48 349.95C166.78 353.9 167.93 358.475 167.93 363.675C167.93 368.825 166.78 373.4 164.48 377.4C162.23 381.4 159.005 384.5 154.805 386.7C150.655 388.9 145.83 390 140.33 390H120.605V337.35H140.33ZM139.505 378.9C144.355 378.9 148.13 377.575 150.83 374.925C153.53 372.275 154.88 368.525 154.88 363.675C154.88 358.825 153.53 355.05 150.83 352.35C148.13 349.65 144.355 348.3 139.505 348.3H133.43V378.9H139.505ZM215.222 354.3C215.222 357.35 214.522 360.15 213.122 362.7C211.722 365.2 209.572 367.225 206.672 368.775C203.772 370.325 200.172 371.1 195.872 371.1H187.922V390H175.097V337.35H195.872C200.072 337.35 203.622 338.075 206.522 339.525C209.422 340.975 211.597 342.975 213.047 345.525C214.497 348.075 215.222 351 215.222 354.3ZM194.897 360.9C197.347 360.9 199.172 360.325 200.372 359.175C201.572 358.025 202.172 356.4 202.172 354.3C202.172 352.2 201.572 350.575 200.372 349.425C199.172 348.275 197.347 347.7 194.897 347.7H187.922V360.9H194.897ZM248.749 390L237.799 370.125H234.724V390H221.899V337.35H243.424C247.574 337.35 251.099 338.075 253.999 339.525C256.949 340.975 259.149 342.975 260.599 345.525C262.049 348.025 262.774 350.825 262.774 353.925C262.774 357.425 261.774 360.55 259.774 363.3C257.824 366.05 254.924 368 251.074 369.15L263.224 390H248.749ZM234.724 361.05H242.674C245.024 361.05 246.774 360.475 247.924 359.325C249.124 358.175 249.724 356.55 249.724 354.45C249.724 352.45 249.124 350.875 247.924 349.725C246.774 348.575 245.024 348 242.674 348H234.724V361.05Z" fill="white"/>
</svg>
