<svg width="684" height="488" viewBox="0 0 684 488" fill="none" xmlns="http://www.w3.org/2000/svg">
<path d="M104.43 308.06L363.82 437.76M363.89 178.34L614 304M139.48 326.05L86.7799 352.66M191.59 351.97L85.0999 405.5M73.2999 349.87C62.7699 349.87 54.2299 354.14 54.2299 359.41C54.2299 364.68 62.7699 368.94 73.2999 368.94C83.8299 368.94 92.3699 364.67 92.3699 359.41C92.3699 354.15 83.8199 349.87 73.2999 349.87ZM69.7399 401.76C59.2099 401.76 50.6699 406.04 50.6699 411.3C50.6699 416.56 59.2099 420.83 69.7399 420.83C80.2699 420.83 88.8099 416.56 88.8099 411.3C88.8099 406.04 80.2599 401.76 69.7399 401.76Z" stroke="white" stroke-width="4" stroke-linecap="round" stroke-linejoin="round"/>
<path d="M366 177L106 307" stroke="white" stroke-width="4"/>
<path fill-rule="evenodd" clip-rule="evenodd" d="M142.23 487.89L124.34 478.95L178.01 452.12L195.9 461.06L142.23 487.89Z" fill="white"/>
<path d="M333.34 422.87L244.57 467.17" stroke="white" stroke-width="4" stroke-linecap="round" stroke-linejoin="round"/>
<path fill-rule="evenodd" clip-rule="evenodd" d="M226.69 485.14L208.8 476.2L262.46 449.36L280.35 458.31L226.69 485.14Z" fill="white"/>
<path d="M244.14 378.27L91.95 454.23" stroke="white" stroke-width="4" stroke-linecap="round" stroke-linejoin="round"/>
<path fill-rule="evenodd" clip-rule="evenodd" d="M55.89 481.34L38 472.39L91.67 445.56L109.55 454.5L55.89 481.34Z" fill="white"/>
<path d="M196.21 305.95L355.83 385.76L515.45 305.95L355.83 226.1L196.21 305.95ZM171.21 306.32L355.57 398.5L539.93 306.32L355.57 214.1L171.21 306.32Z" stroke="white" stroke-width="4" stroke-linecap="round" stroke-linejoin="round"/>
<path d="M615.5 305L364.5 438.5" stroke="white" stroke-width="4"/>
<path d="M368.735 280.45L573.677 177.739M389.932 42.9452L594.873 145.657L389.932 42.9452ZM606.806 142.803C615.117 142.803 621.871 146.192 621.871 150.357C621.871 154.522 615.117 157.867 606.806 157.867C598.494 157.867 591.749 154.522 591.749 150.357C591.749 146.192 598.503 142.803 606.823 142.803H606.806ZM305.129 43.0522L100.188 145.764L305.129 43.0522ZM88.2552 142.91C79.944 142.91 73.1901 146.29 73.1901 150.464C73.1901 154.638 79.944 158.01 88.2552 158.01C96.5664 158.01 103.329 154.629 103.329 150.464C103.329 146.299 96.5753 142.91 88.2552 142.91ZM121.384 177.739L326.325 280.45L121.384 177.739ZM411.11 32.3226L552.445 103.363L411.11 32.3226ZM564.475 100.357C572.796 100.357 579.55 103.737 579.55 107.912C579.55 112.086 572.796 115.457 564.475 115.457C556.155 115.457 549.41 112.077 549.41 107.912C549.41 103.746 556.164 100.357 564.475 100.357ZM283.924 32.3226L142.589 103.363L283.924 32.3226ZM130.559 100.357C122.239 100.357 115.485 103.737 115.485 107.912C115.485 112.086 122.239 115.457 130.559 115.457C138.879 115.457 145.624 112.077 145.624 107.912C145.624 103.746 138.87 100.357 130.559 100.357V100.357Z" stroke="#94EECB" stroke-width="4" stroke-linecap="round" stroke-linejoin="round"/>
<path fill-rule="evenodd" clip-rule="evenodd" d="M573.57 170.603L587.701 177.685L545.299 198.939L531.169 191.857L573.57 170.603Z" fill="#94EECB"/>
<path d="M100.081 188.192L305.022 290.912M640.762 207.814L471.255 292.875L640.762 207.814ZM435.919 317.661L421.788 310.579L464.19 289.325L478.32 296.415L435.919 317.661V317.661ZM36.5817 220.345L206.089 305.397L36.5817 220.345ZM241.425 330.192L255.556 323.11L213.154 301.856L199.024 308.938L241.425 330.192Z" stroke="#94EECB" stroke-width="4" stroke-linecap="round" stroke-linejoin="round"/>
<path fill-rule="evenodd" clip-rule="evenodd" d="M128.45 209.615L142.589 202.534L100.188 181.28L86.0484 188.361L128.45 209.615Z" fill="#94EECB"/>
<path d="M432.333 269.828L594.873 188.361M121.384 156.494L326.325 53.7819L121.384 156.494Z" stroke="#94EECB" stroke-width="4" stroke-linecap="round" stroke-linejoin="round"/>
<path fill-rule="evenodd" clip-rule="evenodd" d="M594.775 181.226L608.906 188.317L566.504 209.562L552.374 202.48L594.775 181.226Z" fill="#94EECB"/>
<path d="M241.425 280.504L78.8762 199.046" stroke="#94EECB" stroke-width="4" stroke-linecap="round" stroke-linejoin="round"/>
<path fill-rule="evenodd" clip-rule="evenodd" d="M78.983 191.911L64.8522 198.993L107.253 220.238L121.384 213.156L78.983 191.911Z" fill="#94EECB"/>
<path d="M495.939 259.196L616.185 199.046" stroke="#94EECB" stroke-width="4" stroke-linecap="round" stroke-linejoin="round"/>
<path fill-rule="evenodd" clip-rule="evenodd" d="M616.078 191.911L630.209 198.993L587.807 220.238L573.677 213.156L616.078 191.911Z" fill="#94EECB"/>
<path d="M177.907 269.819L57.6622 209.66" stroke="#94EECB" stroke-width="4" stroke-linecap="round" stroke-linejoin="round"/>
<path d="M432.333 21.9052L517.136 64.4044L432.333 21.9052ZM529.068 61.5414C537.38 61.5414 544.134 64.9217 544.134 69.0869C544.134 73.2521 537.38 76.7038 529.068 76.7038C520.757 76.7038 513.994 73.3235 513.994 69.1494C513.994 64.9753 520.748 61.5414 529.068 61.5414ZM262.728 21.7001L177.97 64.2171L262.728 21.7001ZM166.037 61.3631C157.726 61.3631 150.972 64.7523 150.972 68.9175C150.972 73.0827 157.726 76.463 166.037 76.463C174.348 76.463 181.111 73.0827 181.111 68.9175C181.111 64.7523 174.357 61.3631 166.037 61.3631V61.3631ZM142.634 167.134L347.53 269.828L552.472 167.116L347.53 64.4044L142.589 167.116L142.634 167.134Z" stroke="#94EECB" stroke-width="4" stroke-linecap="round" stroke-linejoin="round"/>
<path fill-rule="evenodd" clip-rule="evenodd" d="M248.597 163.575L262.728 170.657L234.333 184.892L220.451 177.676L248.597 163.575Z" fill="#94EECB"/>
<path fill-rule="evenodd" clip-rule="evenodd" d="M375.667 99.7595L389.807 106.841L361.537 121.014L347.406 113.923L375.667 99.7595Z" fill="#94EECB"/>
<path fill-rule="evenodd" clip-rule="evenodd" d="M319.393 99.7595L305.254 106.841L333.4 120.942L347.53 113.861L319.393 99.7595Z" fill="#94EECB"/>
<path fill-rule="evenodd" clip-rule="evenodd" d="M453.725 167.08L439.594 174.171L467.927 188.361L482.058 181.28L453.725 167.08Z" fill="#94EECB"/>
<path fill-rule="evenodd" clip-rule="evenodd" d="M290.616 113.923L276.476 121.014L305.005 135.302L319.135 128.22L290.616 113.923Z" fill="#94EECB"/>
<path fill-rule="evenodd" clip-rule="evenodd" d="M425.33 181.315L411.199 188.397L439.398 202.534L453.538 195.452L425.33 181.315Z" fill="#94EECB"/>
<path fill-rule="evenodd" clip-rule="evenodd" d="M262.345 128.095L248.206 135.177L276.734 149.474L290.865 142.384L262.345 128.095Z" fill="#94EECB"/>
<path fill-rule="evenodd" clip-rule="evenodd" d="M397.059 195.479L382.929 202.56L411.137 216.697L425.268 209.615L397.059 195.479Z" fill="#94EECB"/>
<path fill-rule="evenodd" clip-rule="evenodd" d="M234.333 142.134L220.193 149.216L248.597 163.441L262.728 156.36L234.333 142.134Z" fill="#94EECB"/>
<path fill-rule="evenodd" clip-rule="evenodd" d="M368.798 209.651L354.658 216.733L382.866 230.869L396.997 223.779L368.798 209.651Z" fill="#94EECB"/>
<path fill-rule="evenodd" clip-rule="evenodd" d="M276.859 177.739L290.998 184.82L262.852 198.93L248.722 191.84L276.859 177.739Z" fill="#94EECB"/>
<path fill-rule="evenodd" clip-rule="evenodd" d="M403.938 113.923L418.069 121.014L389.807 135.177L375.667 128.095L403.938 113.923Z" fill="#94EECB"/>
<path fill-rule="evenodd" clip-rule="evenodd" d="M305.129 191.911L319.26 198.993L291.123 213.094L276.992 206.012L305.129 191.911Z" fill="#94EECB"/>
<path fill-rule="evenodd" clip-rule="evenodd" d="M432.484 127.953L446.615 135.043L418.069 149.34L403.938 142.259L432.484 127.953Z" fill="#94EECB"/>
<path fill-rule="evenodd" clip-rule="evenodd" d="M333.266 206.012L347.406 213.094L319.26 227.195L305.129 220.113L333.266 206.012Z" fill="#94EECB"/>
<path fill-rule="evenodd" clip-rule="evenodd" d="M460.621 142.062L474.752 149.144L446.215 163.441L432.075 156.36L460.621 142.062Z" fill="#94EECB"/>
</svg>
