<svg width="678" height="678" viewBox="0 0 678 678" fill="none" xmlns="http://www.w3.org/2000/svg">
<path d="M104 542.69L358.46 676L622.79 542.69L363.38 413L104 542.69ZM168.46 541.35L358.46 636.35L548.46 541.35L358.46 446.35L168.46 541.35ZM136.15 541.49L359.41 653.12L582.67 541.45L359.41 429.87L136.15 541.45V541.49Z" stroke="#94EECB" stroke-width="4" stroke-linecap="round" stroke-linejoin="round"/>
<path d="M32 308.805L137 445.305L513.5 511.805L646 348.805C466 180.159 246.5 168.158 32 308.805Z" fill="url(#paint0_linear)"/>
<circle cx="207" cy="184" r="43" stroke="#94EECB" stroke-width="2" stroke-dasharray="4 4"/>
<path d="M96.0001 158.261C96.4177 109.516 136.272 70.3383 185.018 70.7559" stroke="#94EECB" stroke-width="15"/>
<path d="M97 181.5C97 242.527 146.473 292 207.5 292C268.527 292 318 242.527 318 181.5C318 120.473 268.527 71 207.5 71" stroke="#94EECB" stroke-width="4" stroke-linecap="round"/>
<path d="M206.558 269.189C184.269 269.189 161.982 260.706 145.013 243.737C111.076 209.8 111.076 154.585 145.013 120.648C178.95 86.7111 234.166 86.7111 268.103 120.648C302.04 154.585 302.04 209.8 268.103 243.737C251.134 260.706 228.847 269.189 206.558 269.189ZM206.558 100.687C185.677 100.687 164.795 108.636 148.897 124.531C117.103 156.326 117.103 208.06 148.897 239.854C180.694 271.646 232.422 271.646 264.219 239.854C296.013 208.06 296.013 156.326 264.219 124.531C248.321 108.636 227.439 100.687 206.558 100.687Z" fill="white" fill-opacity="0.8"/>
<path d="M206.557 246.747C189.315 246.747 173.103 240.031 160.911 227.839C148.719 215.647 142.003 199.435 142.003 182.193C142.003 164.951 148.719 148.739 160.911 136.547C173.103 124.355 189.315 117.639 206.557 117.639C223.799 117.639 240.011 124.355 252.203 136.547C264.395 148.739 271.111 164.951 271.111 182.193C271.111 199.435 264.395 215.647 252.203 227.839C240.011 240.031 223.799 246.747 206.557 246.747ZM206.557 123.159C191.434 123.159 176.308 128.917 164.794 140.43C141.767 163.457 141.767 200.929 164.794 223.956C187.821 246.983 225.293 246.983 248.32 223.956C271.347 200.929 271.347 163.457 248.32 140.43C236.806 128.917 221.68 123.159 206.557 123.159Z" fill="white" fill-opacity="0.6"/>
<path d="M203.927 205.854C197.798 205.854 191.668 203.52 187.001 198.853C177.666 189.521 177.666 174.332 187.001 165.001C196.336 155.666 211.518 155.666 220.853 165.001C230.187 174.332 230.187 189.521 220.853 198.853C216.185 203.52 210.056 205.854 203.927 205.854ZM203.927 164.709C199.515 164.709 195.107 166.391 191.747 169.747C185.031 176.463 185.031 187.391 191.747 194.106C198.466 200.819 209.387 200.819 216.106 194.106C222.822 187.391 222.822 176.463 216.106 169.747C212.747 166.391 208.338 164.709 203.927 164.709Z" fill="white" fill-opacity="0.6"/>
<path d="M243.37 276.059H214.623V163.908C214.623 156.455 221.011 150.067 228.819 150.067C236.627 150.067 243.015 156.455 243.015 163.908L243.37 276.059Z" fill="#8DB3AC"/>
<path d="M229.178 150.422C230.243 150.422 230.952 150.422 231.662 150.777C224.919 151.841 219.95 157.52 219.95 164.263V276.414H214.982V163.908C214.627 156.455 221.015 150.422 229.178 150.422Z" fill="#94EECB"/>
<path d="M275.668 276.059H243.727V154.681C243.727 145.453 250.825 138 259.698 138C268.57 138 275.668 145.453 275.668 154.681V276.059Z" fill="#8DB3AC"/>
<path d="M259.345 138C260.055 138 261.119 138 261.829 138.355C254.021 139.42 248.343 146.518 248.343 154.681V276.059H243.374V154.681C243.374 145.453 250.472 138 259.345 138Z" fill="#94EECB"/>
<path d="M303.354 276.059H275.316V161.779C275.316 153.971 281.705 147.228 289.158 147.228C296.966 147.228 302.999 153.616 302.999 161.779L303.354 276.059Z" fill="#8DB3AC"/>
<path d="M289.513 147.228C290.223 147.228 291.287 147.228 291.997 147.583C285.609 148.647 280.285 154.681 280.285 161.779V276.059H275.316V161.779C275.671 153.616 281.705 147.228 289.513 147.228Z" fill="#94EECB"/>
<path d="M316.126 164.263C323.224 164.263 328.902 170.296 328.902 177.749V276.059H303.349V177.749C303.349 170.296 309.028 164.263 316.126 164.263Z" fill="#8DB3AC"/>
<path d="M316.126 164.263C316.836 164.263 317.9 164.263 318.61 164.618C312.577 165.683 308.318 171.361 308.318 177.749V276.059H303.349V177.749C303.349 170.296 309.028 164.263 316.126 164.263Z" fill="#94EECB"/>
<path d="M187.296 238.085C202.557 239.504 207.526 251.216 209.3 257.25L210.01 260.089C210.01 260.089 211.785 261.864 213.914 265.058H214.624C214.624 265.058 221.367 254.41 221.012 232.406L243.371 234.181L248.34 237.73L275.668 237.375L280.282 242.344L303.706 240.924L308.675 245.538C308.675 245.538 328.904 245.538 329.259 247.667C331.034 255.12 332.808 265.413 329.259 295.58C320.741 368.336 227.046 355.204 207.881 322.908C204.331 316.874 190.49 299.839 190.49 299.839C188.361 298.064 186.941 295.225 186.586 291.676C185.521 281.384 183.037 268.607 175.939 253.701C173.1 247.312 176.649 237.02 187.296 238.085Z" fill="#8DB3AC"/>
<path d="M178.426 240.923C177.716 243.408 178.071 245.892 178.781 247.667C185.879 262.573 188.363 275.349 189.428 285.642C189.783 289.191 191.203 293.095 193.332 295.224C203.624 305.872 218.885 346.331 255.441 346.331C295.901 346.331 315.421 327.876 321.454 320.068C316.84 331.425 297.675 350.59 255.086 350.59C215.336 350.59 204.689 314.744 190.493 298.773C188.008 295.579 186.944 294.16 186.589 290.611C185.524 280.318 183.04 267.541 175.941 252.635C174.167 249.441 174.877 244.118 178.426 240.923Z" fill="#94EECB"/>
<path d="M210.722 279.252C210.722 279.252 206.108 264.701 204.334 257.958C202.914 252.279 197.59 241.987 188.363 238.083C202.559 239.858 207.528 251.57 209.302 257.248L210.012 260.087C210.012 260.087 212.497 261.862 214.626 265.056C214.626 265.056 210.012 271.444 210.722 279.252Z" fill="#94EECB"/>
<path d="M241.956 226.372C242.666 228.146 243.73 229.921 244.795 231.34C245.86 232.76 246.925 234.535 247.989 236.309C249.054 238.084 249.764 240.213 249.764 242.343C249.764 244.472 249.054 246.601 247.989 248.376C247.989 246.247 247.634 244.472 247.28 242.697C246.925 240.923 246.215 239.503 245.15 237.729C244.44 235.954 243.376 234.535 242.666 232.405C241.601 230.631 241.246 228.501 241.956 226.372Z" fill="#94EECB"/>
<path d="M274.251 228.857C274.961 230.632 276.026 232.406 277.091 233.826C278.155 235.245 279.22 237.02 280.285 238.794C281.349 240.569 282.059 242.698 282.059 244.828C282.059 246.957 281.349 249.087 280.285 250.861C280.285 248.732 279.93 246.957 279.575 245.183C279.22 243.408 278.51 241.989 277.445 240.214C276.736 238.44 275.671 237.02 274.961 234.89C273.896 233.116 273.541 230.632 274.251 228.857Z" fill="#94EECB"/>
<path d="M301.934 232.406C302.644 234.181 303.709 235.955 304.774 237.375C305.838 238.794 306.903 240.569 307.968 242.343C309.033 244.118 309.742 246.247 309.742 248.377C309.742 250.506 309.033 252.636 307.968 254.41C307.968 252.281 307.613 250.506 307.258 248.732C306.903 246.957 306.193 245.538 305.129 243.763C304.419 241.989 303.354 240.569 302.644 238.439C301.579 236.665 301.225 234.181 301.934 232.406Z" fill="#94EECB"/>
<path fill-rule="evenodd" clip-rule="evenodd" d="M410.9 606.318C438.76 593.718 529.47 547.158 553.56 534.988C555.09 534.218 556.79 532.438 556.8 530.438C556.8 529.208 556.8 519.348 556.8 519.348C556.8 519.348 314.37 405.718 268.32 383.918C265.688 382.664 262.807 382.021 259.891 382.034C256.975 382.048 254.101 382.719 251.48 383.998C222.88 398.448 105.48 447.828 105.48 447.828C105.48 447.828 105.34 458.258 105.48 459.828C105.62 461.398 106.82 462.698 108.96 463.768C157.01 487.888 343.01 580.608 394.11 606.278C400.66 609.568 405.8 608.628 410.9 606.278V606.318Z" fill="#004E43"/>
<path fill-rule="evenodd" clip-rule="evenodd" d="M410.9 595.068C438.76 582.508 529.51 535.898 553.56 523.738C556.04 522.478 559.56 518.548 553.38 515.388C511.45 493.788 314.38 394.458 268.32 372.668C265.688 371.413 262.807 370.767 259.892 370.779C256.976 370.792 254.101 371.461 251.48 372.738C222.88 387.198 130.48 433.178 108.91 444.108C104.11 446.538 104.47 450.288 108.91 452.528C157.01 476.638 343.01 569.348 394.11 595.028C400.66 598.318 405.8 597.378 410.9 595.028V595.068Z" fill="#8DB3AC"/>
<path fill-rule="evenodd" clip-rule="evenodd" d="M385.79 574.027L511.64 511.227L259.94 385.357L134.09 448.147L385.79 574.027Z" fill="white"/>
<path fill-rule="evenodd" clip-rule="evenodd" d="M385.149 558.718L482.629 510.018L261.079 399.248L163.609 447.928L385.149 558.718Z" fill="white"/>
<path d="M360.543 486.558L360.536 486.556C361.014 484.856 359.763 482.699 357.007 480.752C351.11 476.583 344.221 472.993 335.946 470.146C327.631 467.437 319.97 466.154 312.745 465.928C309.372 465.823 307.088 466.796 306.439 468.438L306.433 468.436L294.987 502.612C294.349 504.516 295.722 507.261 300.194 510.314C304.814 513.471 311.407 516.719 319.446 519.411C327.485 522.103 334.705 523.481 340.294 523.744C345.965 524.012 348.6 522.488 349.188 520.461L360.543 486.558Z" fill="#94EECB"/>
<path d="M328.467 510.38L327.821 502.133C328.85 502.002 329.821 501.584 330.623 500.926C331.424 500.268 332.024 499.397 332.353 498.414C333.322 495.521 331.759 492.394 328.872 491.427C325.985 490.46 322.852 492.021 321.885 494.908C321.233 496.853 321.729 498.909 323.004 500.338L317.662 506.814C316.985 507.634 317.345 508.871 318.348 509.207L326.483 511.931C327.507 512.274 328.555 511.456 328.467 510.38Z" fill="#8DB3AC"/>
<path d="M328.405 509.616L318.175 506.19L317.662 506.815C316.985 507.635 317.345 508.872 318.348 509.208L326.483 511.932C327.513 512.277 328.555 511.457 328.467 510.38L328.405 509.616Z" fill="#004E43"/>
<path d="M323.929 499.115C324.171 498.801 324.169 498.376 323.942 498.057C323.633 497.619 323.259 496.902 323.194 495.939C322.949 492.457 324.912 491.604 324.912 491.604C324.202 491.91 323.565 492.362 323.042 492.931C322.519 493.5 322.122 494.173 321.878 494.906C321.226 496.851 321.722 498.907 322.997 500.336L323.929 499.115Z" fill="#004E43"/>
<path d="M332.046 494.168C332.046 494.168 332.537 497.687 330.17 499.042C329.364 499.501 328.749 499.682 328.324 499.729C327.905 499.779 327.597 500.154 327.647 500.573L327.833 502.123C328.862 501.992 329.833 501.573 330.634 500.916C331.436 500.258 332.036 499.387 332.365 498.404C333.101 496.184 332.046 494.168 332.046 494.168Z" fill="#004E43"/>
<path d="M356.012 479.918C350.391 476.032 343.853 472.666 336.012 469.971C328.13 467.4 320.876 466.147 314.056 465.866C307.219 465.588 305.088 469.891 313.102 475.262C317.498 478.206 323.763 481.254 331.379 483.804C338.995 486.355 345.832 487.696 351.114 487.993C360.747 488.532 361.639 483.806 356.012 479.918Z" fill="#94EECB"/>
<path d="M352.814 483.598C352.814 483.598 352.169 484.687 348.859 483.579C345.549 482.47 345.239 481.061 345.239 481.061L350.279 466.013C352.569 459.175 349.209 451.872 342.787 449.721C336.365 447.571 329.282 451.384 326.994 458.215L321.952 473.27C321.952 473.27 320.119 473.961 317.499 473.083C314.878 472.206 314.384 470.735 314.384 470.735L319.426 455.68C323.115 444.666 334.733 438.599 345.324 442.146C355.915 445.693 361.534 457.54 357.847 468.548L352.807 483.596L352.814 483.598Z" fill="#8DB3AC" stroke="#8DB3AC" stroke-width="1.958" stroke-miterlimit="10"/>
<path d="M334.229 446.52C330.022 447.434 329.01 448.666 327.817 448.987C326.934 449.223 326.099 448.518 327.282 447.07C328.297 445.831 330.494 443.577 334.421 442.592C341.183 440.895 345.933 442.668 344.761 445.304C343.736 447.64 338.721 445.55 334.229 446.52Z" fill="white" fill-opacity="0.85"/>
<path d="M411.944 325.481H408.418C408.418 250.052 469.746 188.688 545.132 188.688V192.216C471.692 192.216 411.944 251.999 411.944 325.481Z" fill="white" fill-opacity="0.8"/>
<path d="M432.502 325.481H428.976C428.976 261.398 481.083 209.261 545.129 209.261V212.789C483.025 212.789 432.502 263.342 432.502 325.481Z" fill="white" fill-opacity="0.8"/>
<path d="M463.348 325.481H459.822C459.822 278.416 498.093 240.122 545.132 240.122V243.651C500.036 243.651 463.348 280.359 463.348 325.481Z" fill="white" fill-opacity="0.8"/>
<path d="M579.5 246C582.538 246 585 243.538 585 240.5C585 237.462 582.538 235 579.5 235C576.462 235 574 237.462 574 240.5C574 243.538 576.462 246 579.5 246Z" fill="#94EECB"/>
<path d="M432.791 308.567H432.791C427.936 308.567 424 304.634 424 299.783V299.783C424 294.932 427.936 291 432.791 291H432.791C437.646 291 441.582 294.932 441.582 299.783V299.783C441.582 304.634 437.646 308.567 432.791 308.567Z" fill="#94EECB"/>
<path d="M436.172 217.323C442.895 217.323 448.345 211.878 448.345 205.161C448.345 198.445 442.895 193 436.172 193C429.45 193 424 198.445 424 205.161C424 211.878 429.45 217.323 436.172 217.323Z" fill="#94EECB"/>
<circle cx="549.5" cy="329.5" r="65.5" stroke="#94EECB" stroke-width="6" stroke-dasharray="4 4"/>
<path d="M563.833 391.323C563.833 395.789 558.792 395.999 552.571 395.999H550.942C544.721 395.999 539.679 395.803 539.679 391.323V357.03C539.679 352.564 544.721 348.927 550.942 348.927H552.571C558.792 348.927 563.833 352.55 563.833 357.03V391.323Z" fill="#94EECB"/>
<path d="M539.089 350.178H549.229V396H539.089V350.178Z" fill="#546563"/>
<path d="M560.282 381.716C560.282 383.373 558.948 384.707 557.291 384.721C556.497 384.721 555.734 384.407 555.171 383.846C554.608 383.286 554.29 382.525 554.286 381.73L554.216 341.09C554.216 339.432 555.55 338.098 557.207 338.084C558.864 338.084 560.198 339.418 560.212 341.076L560.282 381.716Z" fill="white" fill-opacity="0.8"/>
<path d="M535.611 338.839L559.473 333.451L564.658 356.407L540.796 361.797L535.611 338.839Z" fill="#546E7A"/>
<path d="M564.652 356.412C567.474 355.775 568.601 350.119 567.169 343.779C565.737 337.44 562.289 332.817 559.467 333.454C556.645 334.092 555.519 339.748 556.95 346.087C558.382 352.427 561.831 357.05 564.652 356.412Z" fill="#546E7A"/>
<path d="M540.79 361.791C543.612 361.154 544.739 355.498 543.307 349.158C541.875 342.818 538.427 338.196 535.605 338.833C532.783 339.47 531.657 345.126 533.088 351.466C534.52 357.806 537.969 362.428 540.79 361.791Z" fill="#546563"/>
<path d="M539.755 357.201C540.875 356.948 541.086 353.658 540.226 349.853C539.367 346.048 537.763 343.168 536.643 343.421C535.523 343.674 535.312 346.963 536.172 350.769C537.031 354.574 538.636 357.454 539.755 357.201Z" fill="white"/>
<path d="M559.424 333.452L535.564 338.845C538.387 338.213 541.842 342.833 543.274 349.167C544.706 355.5 543.583 361.159 540.76 361.791L564.619 356.399C567.442 355.767 568.566 350.108 567.133 343.774C565.701 337.441 562.246 332.821 559.424 333.452Z" fill="#546563"/>
<path d="M580.195 297.739C586.135 317.386 575.055 334.28 556.729 339.813L548.991 342.144C530.679 347.677 512.072 339.756 506.132 320.096L488.606 262.098C482.68 242.48 493.76 225.586 512.072 220.053L519.81 217.722C538.122 212.189 556.743 220.109 562.683 239.756L580.195 297.739Z" fill="#94EECB"/>
<path d="M551.66 302.527C561.602 335.444 559.398 348.701 544.217 353.279L539.344 354.753C527.829 358.236 513.154 343.364 505.065 316.598L489.617 265.425C482.231 240.976 486.682 221.976 498.198 218.507L503.071 217.033C514.586 213.55 526.158 218.114 536.198 251.354L551.66 302.527Z" fill="#8DB3AC"/>
<path d="M540.186 246.413C540.663 247.999 539.764 249.671 538.192 250.148L506.244 259.796C504.657 260.273 502.986 259.374 502.508 257.802C502.031 256.215 502.929 254.544 504.502 254.066L536.45 244.419C538.037 243.941 539.708 244.826 540.186 246.413Z" fill="#546563"/>
<path d="M545.257 263.208C545.734 264.795 544.836 266.466 543.263 266.943L511.315 276.591C509.728 277.068 508.057 276.17 507.579 274.597C507.102 273.01 508.001 271.339 509.573 270.861L541.521 261.214C543.108 260.736 544.779 261.621 545.257 263.208Z" fill="#546563"/>
<path d="M550.326 280.004C550.803 281.591 549.905 283.262 548.332 283.739L516.384 293.387C514.797 293.864 513.126 292.966 512.648 291.393C512.171 289.806 513.07 288.135 514.643 287.657L546.591 278.01C548.177 277.532 549.849 278.431 550.326 280.004Z" fill="#546563"/>
<path d="M555.408 296.799C555.886 298.385 554.987 300.057 553.414 300.534L521.466 310.196C519.879 310.673 518.208 309.774 517.73 308.202C517.253 306.615 518.152 304.944 519.725 304.466L551.673 294.819C553.259 294.327 554.931 295.226 555.408 296.799Z" fill="#546563"/>
<path d="M560.479 313.609C560.957 315.196 560.058 316.867 558.485 317.344L526.537 326.992C524.95 327.469 523.279 326.57 522.802 324.998C522.324 323.411 523.223 321.74 524.796 321.262L556.744 311.6C558.331 311.123 560.002 312.022 560.479 313.609Z" fill="#546563"/>
<path d="M567.122 298.611C567.599 300.198 566.7 301.869 565.128 302.346C563.541 302.824 561.87 301.925 561.392 300.352L544.695 245.065C544.217 243.478 545.116 241.807 546.689 241.329C548.276 240.852 549.947 241.751 550.424 243.323L567.122 298.611Z" fill="#546563"/>
<path d="M632.5 140C615.103 140 601 125.897 601 108.5C601 91.1031 615.103 77 632.5 77C649.897 77 664 91.103 664 108.5C664 125.897 649.897 140 632.5 140Z" fill="#94EECB" fill-opacity="0.8"/>
<path d="M21 254C9.40205 254 0 244.598 0 233C0 221.402 9.40201 212 21 212C32.5979 212 42 221.402 42 233C42 244.598 32.598 254 21 254Z" fill="#94EECB" fill-opacity="0.8"/>
<path d="M407 42C395.402 42 386 32.598 386 21C386 9.40205 395.402 0 407 0C418.598 0 428 9.40201 428 21C428 32.5979 418.598 42 407 42Z" fill="#94EECB" fill-opacity="0.8"/>
<defs>
<linearGradient id="paint0_linear" x1="339" y1="234.605" x2="339" y2="511.803" gradientUnits="userSpaceOnUse">
<stop stop-color="#94EECB" stop-opacity="0.06"/>
<stop offset="1" stop-color="#94EECB"/>
</linearGradient>
</defs>
</svg>
