<svg width="592" height="500" viewBox="0 0 592 500" fill="none" xmlns="http://www.w3.org/2000/svg">
<path d="M2 346.949L290.407 498L590 346.949L295.983 200L2 346.949ZM75.0593 345.431L290.407 453.073L505.754 345.431L290.407 237.788L75.0593 345.431Z" stroke="#94EECB" stroke-width="4" stroke-linecap="round" stroke-linejoin="round"/>
<path d="M296 0V198.803L1.5 345.5V133L296 0Z" fill="url(#paint0_linear)"/>
<path d="M296 0V198.803L589.5 347V121.5L296 0Z" fill="url(#paint1_linear)"/>
<path d="M362.47 293.04L397.57 310.59M254.43 418.57L290.87 400.35L326.22 418.45L362.43 400.35M469.8 346.7L433.58 364.37L397.81 346.48L434 328.81L469.8 346.7ZM255.14 275.15L290.91 293.04L326.26 275.36L290.91 257.3L255.14 275.15ZM219.36 328.85L255.14 310.96L219.36 293.08L183.58 310.96L219.36 328.85ZM255.14 382.52L290.91 364.63L255.14 346.7L290.91 328.81L255.14 382.52ZM183.58 347.37L147.81 329.48L112 347.37L182.88 382.81L219 364.76L183.58 347.37ZM326.66 310.92L362.44 328.81L326.23 346.81L362.23 364.23L326.66 310.92Z" stroke="#546563" stroke-width="4" stroke-linecap="round" stroke-linejoin="round"/>
<path fill-rule="evenodd" clip-rule="evenodd" d="M287.5 322C294.949 322 301 324.902 301 328.477C301 332.052 294.949 335 287.5 335C280.051 335 274 332.098 274 328.523C274 324.948 280.051 322.045 287.5 322.045V322Z" fill="#94EECB"/>
<path fill-rule="evenodd" clip-rule="evenodd" d="M261.5 373C268.949 373 275 375.914 275 379.505C275 383.095 268.949 386 261.5 386C254.051 386 248 383.086 248 379.505C248 375.923 254.051 373 261.5 373Z" fill="#94EECB"/>
<path fill-rule="evenodd" clip-rule="evenodd" d="M228.505 358C235.957 358 242 361.138 242 365.005C242 368.871 235.957 372 228.505 372C221.053 372 215 368.862 215 365.005C215 361.148 221.043 358 228.505 358Z" fill="#94EECB"/>
<path fill-rule="evenodd" clip-rule="evenodd" d="M192.5 341C199.949 341 206 343.912 206 347.491C206 351.07 199.949 354 192.5 354C185.051 354 179 351.088 179 347.5C179 343.912 185.051 341.009 192.5 341.009V341Z" fill="#94EECB"/>
<path fill-rule="evenodd" clip-rule="evenodd" d="M186.495 303C193.957 303 200 306.138 200 310.005C200 313.871 193.957 317 186.495 317C179.034 317 173 313.862 173 310.005C173 306.148 179.043 303 186.495 303Z" fill="#94EECB"/>
<path fill-rule="evenodd" clip-rule="evenodd" d="M219.5 322C226.949 322 233 324.685 233 328C233 331.315 226.949 334 219.5 334C212.051 334 206 331.315 206 328C206 324.685 212.051 322 219.5 322Z" fill="#94EECB"/>
<path fill-rule="evenodd" clip-rule="evenodd" d="M257.505 269C264.957 269 271 271.914 271 275.505C271 279.095 264.957 282 257.505 282C250.053 282 244 279.095 244 275.505C244 271.914 250.043 269 257.505 269Z" fill="#94EECB"/>
<path fill-rule="evenodd" clip-rule="evenodd" d="M289.5 251C296.949 251 303 253.914 303 257.505C303 261.095 296.949 264 289.5 264C282.051 264 276 261.095 276 257.505C276 253.914 282.051 251 289.5 251Z" fill="#94EECB"/>
<path fill-rule="evenodd" clip-rule="evenodd" d="M365.5 289C372.949 289 379 292.129 379 295.995C379 299.862 372.949 303 365.5 303C358.051 303 352 299.862 352 295.995C352 292.129 358.051 289 365.5 289Z" fill="#94EECB"/>
<path fill-rule="evenodd" clip-rule="evenodd" d="M398.5 305C405.949 305 412 307.914 412 311.505C412 315.095 405.949 318 398.5 318C391.051 318 385 315.086 385 311.505C385 307.923 391.051 305 398.5 305Z" fill="#94EECB"/>
<path fill-rule="evenodd" clip-rule="evenodd" d="M432.505 322C439.957 322 446 325.138 446 328.995C446 332.852 439.957 336 432.505 336C425.053 336 419 332.862 419 328.995C419 325.129 425.053 322 432.505 322Z" fill="#94EECB"/>
<path fill-rule="evenodd" clip-rule="evenodd" d="M467.505 340C474.957 340 481 343.129 481 346.995C481 350.862 474.957 354 467.505 354C460.053 354 454 350.862 454 346.995C454 343.129 460.043 340 467.505 340Z" fill="#94EECB"/>
<path fill-rule="evenodd" clip-rule="evenodd" d="M361.5 356C368.949 356 375 359.129 375 362.995C375 366.862 368.949 370 361.5 370C354.051 370 348 366.862 348 362.995C348 359.129 354.051 356 361.5 356Z" fill="#94EECB"/>
<path fill-rule="evenodd" clip-rule="evenodd" d="M329.5 307C336.949 307 343 309.905 343 313.495C343 317.086 336.949 320 329.5 320C322.051 320 316 317.086 316 313.495C316 309.905 322.051 307 329.5 307Z" fill="#94EECB"/>
<path fill-rule="evenodd" clip-rule="evenodd" d="M363.49 392C370.945 392 377 395.147 377 399.025C377 402.902 370.945 406 363.49 406C356.036 406 350 402.902 350 399.025C350 395.147 356.055 392 363.51 392H363.49Z" fill="#94EECB"/>
<path fill-rule="evenodd" clip-rule="evenodd" d="M260.5 408C267.949 408 274 411.136 274 415C274 418.864 267.949 422 260.5 422C253.051 422 247 418.864 247 415C247 411.136 253.051 408 260.5 408Z" fill="#94EECB"/>
<path d="M77.1935 233.218C89.4312 197.53 142.127 250.231 159.94 236.046C177.752 221.862 156.439 185.723 174.251 171.538C192.063 157.354 213.575 165.691 231.387 151.507C249.199 137.323 226.296 117.568 256.096 90.7546" stroke="white" stroke-width="6" stroke-linecap="round" stroke-dasharray="8 8"/>
<path d="M266.32 66.3735L268.155 103.567L235.027 86.5598L266.32 66.3735Z" fill="#94EECB" fill-opacity="0.8"/>
<defs>
<linearGradient id="paint0_linear" x1="166.5" y1="0" x2="166.5" y2="328" gradientUnits="userSpaceOnUse">
<stop stop-color="#94EECB" stop-opacity="0"/>
<stop offset="1" stop-color="#94EECB"/>
</linearGradient>
<linearGradient id="paint1_linear" x1="425.5" y1="0" x2="425.5" y2="328" gradientUnits="userSpaceOnUse">
<stop stop-color="#94EECB" stop-opacity="0"/>
<stop offset="1" stop-color="#94EECB"/>
</linearGradient>
</defs>
</svg>
