<svg width="1145" height="947" viewBox="0 0 1145 947" fill="none" xmlns="http://www.w3.org/2000/svg">
<g filter="url(#filter0_f)">
<path d="M947 473.5C947 625.654 823.654 749 671.5 749C519.346 749 396 625.654 396 473.5C396 321.346 519.346 198 671.5 198C823.654 198 947 321.346 947 473.5Z" fill="url(#paint0_linear)" fill-opacity="0.5"/>
</g>
<ellipse cx="298.5" cy="648.5" rx="184.5" ry="57.5" fill="#8DB3AC"/>
<path d="M260.14 307.55L155.5 378.27L112 485.18L157.12 587.44L264 656.25L422.88 625.91L485 510.61L446.29 390.84L354.38 318.46L260.14 307.55ZM239.28 384.55L260.14 307.55L156.47 378L239.28 384.57V384.55ZM112 485.18L223.53 463.69L156.47 378L112 485.18ZM239.28 384.57L223.53 463.69L156.47 378L239.28 384.57ZM446.28 390.84L366 392.47L354.8 318.67L446.29 390.84H446.28ZM260.14 307.55L302.48 360.72L354.8 318.72L260.14 307.55ZM239.28 384.55L302.48 360.7L260.14 307.55L239.28 384.55ZM366 392.47L302.48 360.72L354.8 318.72L366 392.47ZM260.14 654.32L223.53 592.16L157.12 587.44L260.12 654.32H260.14ZM223.53 463.69L186.79 522.57L112 485.18L223.53 463.69ZM223.53 592.16L186.79 522.57L157.12 587.44L223.53 592.16V592.16ZM423.33 625.91L431.33 537.48L485 510.61L423.3 625.91H423.33ZM224 591.93L301.92 486.53L334.24 603.94L224 591.93ZM415.8 466.74L354.8 513.64L301.9 486.53L415.78 466.74H415.8ZM334.22 602.28L354.8 513.64L302.8 487.35L334.17 602.28H334.22ZM224 591.59L291.78 561.24L301 486.06L224 591.59ZM334.24 604.94L291.78 561.24L223.55 591.37L334.24 604.94ZM308.44 418.94L415.21 466.48L366 392.35L308.45 418.91L308.44 418.94ZM302.5 485.56L307.96 418.7L414.6 466.74L302.48 485.53L302.5 485.56ZM446.29 392.82L415.67 466.68L485 510.61L446.29 392.82ZM431.29 537.48L485 510.61L415.64 466.68L431.27 537.48H431.29ZM366.42 392.69L446.29 390.84L415.67 466.68L366.42 392.68V392.69ZM239.28 384.57L307.47 418.67L366.47 392.13L302.48 359.59L239.28 384.59V384.57ZM431.28 537.48L334.2 603.94L415.9 466.8L431.3 537.48H431.28ZM263.68 656.09L334.22 603.94L423.1 626L263.68 656.09ZM223.42 463.63L308.42 419.14L302.85 486.06L223.42 463.63V463.63ZM334.22 603.94L430.6 537.83L423.6 625.56L334.24 603.94H334.22ZM334.22 603.94L223.53 592.16L263.68 656.56L334.22 603.94V603.94ZM302.48 486.24L186.79 522.57L224 463.91L302.5 486.24H302.48Z" stroke="#94EECB" stroke-width="4" stroke-linecap="round" stroke-linejoin="round"/>
<path fill-rule="evenodd" clip-rule="evenodd" d="M308 405.89C310.551 405.89 313.045 406.647 315.167 408.064C317.288 409.482 318.942 411.496 319.918 413.853C320.894 416.211 321.15 418.804 320.652 421.307C320.154 423.809 318.926 426.108 317.122 427.912C315.318 429.716 313.019 430.944 310.517 431.442C308.014 431.94 305.421 431.684 303.063 430.708C300.706 429.732 298.691 428.078 297.274 425.957C295.857 423.835 295.1 421.341 295.1 418.79C295.103 415.37 296.463 412.09 298.881 409.671C301.3 407.253 304.579 405.893 308 405.89Z" fill="#94EECB"/>
<path fill-rule="evenodd" clip-rule="evenodd" d="M186.68 510.59C189.231 510.59 191.725 511.347 193.847 512.764C195.968 514.182 197.622 516.196 198.598 518.553C199.574 520.911 199.83 523.504 199.332 526.007C198.834 528.509 197.606 530.808 195.802 532.612C193.998 534.416 191.699 535.644 189.197 536.142C186.694 536.64 184.101 536.384 181.743 535.408C179.386 534.432 177.372 532.778 175.954 530.657C174.537 528.535 173.78 526.041 173.78 523.49C173.783 520.07 175.143 516.79 177.561 514.371C179.98 511.953 183.26 510.593 186.68 510.59Z" fill="#94EECB"/>
<path fill-rule="evenodd" clip-rule="evenodd" d="M354 505.81C355.563 505.808 357.091 506.27 358.392 507.137C359.692 508.003 360.706 509.237 361.306 510.68C361.905 512.123 362.063 513.712 361.759 515.245C361.456 516.778 360.704 518.187 359.6 519.293C358.495 520.398 357.088 521.152 355.555 521.457C354.022 521.763 352.433 521.607 350.989 521.01C349.545 520.412 348.311 519.399 347.442 518.1C346.574 516.801 346.11 515.273 346.11 513.71C346.11 511.617 346.941 509.609 348.42 508.127C349.9 506.646 351.907 505.813 354 505.81Z" fill="#94EECB"/>
<path fill-rule="evenodd" clip-rule="evenodd" d="M239.2 376.52C240.763 376.518 242.291 376.98 243.592 377.847C244.892 378.713 245.906 379.946 246.506 381.39C247.105 382.833 247.263 384.422 246.959 385.955C246.656 387.488 245.904 388.897 244.8 390.003C243.695 391.108 242.288 391.862 240.755 392.167C239.222 392.473 237.633 392.317 236.189 391.72C234.745 391.122 233.511 390.109 232.642 388.81C231.774 387.511 231.31 385.983 231.31 384.42C231.31 382.327 232.141 380.319 233.62 378.837C235.1 377.356 237.107 376.523 239.2 376.52Z" fill="#94EECB"/>
<path fill-rule="evenodd" clip-rule="evenodd" d="M430.57 531.72C432.133 531.72 433.661 532.184 434.96 533.052C436.259 533.921 437.272 535.155 437.87 536.599C438.467 538.043 438.623 539.632 438.318 541.165C438.012 542.698 437.258 544.105 436.153 545.21C435.047 546.314 433.638 547.066 432.105 547.369C430.572 547.673 428.983 547.515 427.54 546.916C426.097 546.316 424.863 545.302 423.997 544.002C423.13 542.701 422.668 541.173 422.67 539.61C422.67 538.573 422.874 537.546 423.272 536.588C423.669 535.63 424.251 534.76 424.985 534.027C425.718 533.295 426.589 532.714 427.548 532.318C428.506 531.922 429.533 531.719 430.57 531.72Z" fill="#94EECB"/>
<path fill-rule="evenodd" clip-rule="evenodd" d="M222.75 583.34C224.313 583.338 225.841 583.8 227.142 584.667C228.442 585.533 229.456 586.767 230.056 588.21C230.655 589.653 230.813 591.242 230.509 592.775C230.206 594.308 229.454 595.717 228.35 596.823C227.245 597.928 225.838 598.682 224.305 598.987C222.772 599.293 221.183 599.137 219.739 598.54C218.295 597.942 217.061 596.929 216.192 595.63C215.324 594.331 214.86 592.803 214.86 591.24C214.86 589.147 215.691 587.139 217.17 585.657C218.65 584.176 220.657 583.343 222.75 583.34Z" fill="#94EECB"/>
<path fill-rule="evenodd" clip-rule="evenodd" d="M158.46 372C160.023 371.998 161.552 372.46 162.853 373.327C164.153 374.195 165.168 375.428 165.767 376.872C166.366 378.316 166.523 379.905 166.219 381.439C165.914 382.972 165.162 384.381 164.056 385.486C162.951 386.592 161.542 387.344 160.009 387.649C158.475 387.953 156.886 387.796 155.442 387.197C153.998 386.598 152.765 385.583 151.897 384.283C151.03 382.982 150.568 381.453 150.57 379.89C150.573 377.798 151.405 375.793 152.884 374.314C154.363 372.835 156.368 372.003 158.46 372Z" fill="#94EECB"/>
<path fill-rule="evenodd" clip-rule="evenodd" d="M445.69 383.15C447.252 383.15 448.779 383.614 450.078 384.483C451.376 385.351 452.387 386.586 452.983 388.03C453.579 389.474 453.733 391.062 453.425 392.594C453.118 394.126 452.362 395.531 451.255 396.633C450.147 397.735 448.738 398.483 447.205 398.783C445.671 399.083 444.084 398.921 442.643 398.318C441.202 397.715 439.972 396.697 439.11 395.394C438.248 394.092 437.792 392.562 437.8 391C437.803 388.908 438.635 386.903 440.114 385.424C441.593 383.945 443.598 383.113 445.69 383.11V383.15Z" fill="#94EECB"/>
<path d="M615 334C595.67 334 580 318.33 580 299C580 279.67 595.67 264 615 264C634.33 264 650 279.67 650 299C650 318.33 634.33 334 615 334Z" fill="#94EECB" fill-opacity="0.8"/>
<path d="M535.5 769C520.312 769 508 756.688 508 741.5C508 726.312 520.312 714 535.5 714C550.688 714 563 726.312 563 741.5C563 756.688 550.688 769 535.5 769Z" fill="#94EECB" fill-opacity="0.8"/>
<path d="M21 548C9.40205 548 0 538.598 0 527C0 515.402 9.40201 506 21 506C32.5979 506 42 515.402 42 527C42 538.598 32.598 548 21 548Z" fill="#94EECB" fill-opacity="0.8"/>
<path d="M104 285C96.8203 285 91 279.18 91 272C91 264.82 96.8203 259 104 259C111.18 259 117 264.82 117 272C117 279.18 111.18 285 104 285Z" fill="#94EECB" fill-opacity="0.8"/>
<defs>
<filter id="filter0_f" x="198.627" y="0.626862" width="945.746" height="945.746" filterUnits="userSpaceOnUse" color-interpolation-filters="sRGB">
<feFlood flood-opacity="0" result="BackgroundImageFix"/>
<feBlend mode="normal" in="SourceGraphic" in2="BackgroundImageFix" result="shape"/>
<feGaussianBlur stdDeviation="98.6866" result="effect1_foregroundBlur"/>
</filter>
<linearGradient id="paint0_linear" x1="478.524" y1="-167.039" x2="1074.6" y2="-94.241" gradientUnits="userSpaceOnUse">
<stop stop-color="#9DE7BD" stop-opacity="0.4"/>
<stop offset="1" stop-color="white"/>
</linearGradient>
</defs>
</svg>
