<svg id="email_icon_blue" xmlns="http://www.w3.org/2000/svg" width="24" height="16.093" viewBox="0 0 24 16.093">
  <path id="路径_19" data-name="路径 19" d="M2277.828,644.9q1.278,1.376,2.578,2.73c.66.683,1.339,1.347,2.017,2.011a30.4,30.4,0,0,0,2.613,2.314,7.586,7.586,0,0,0,.98.68,1.9,1.9,0,0,0,2.137-.137,13.476,13.476,0,0,0,1.557-1.328c.871-.831,1.711-1.693,2.534-2.572.434-.463.87-.924,1.3-1.391q1.2-1.3,2.392-2.616l2.011-2.2c.022-.025.04-.053.067-.09-.064-.028-.115-.052-.167-.072a1.941,1.941,0,0,0-.7-.106h-20.394c-.039,0-.079,0-.118,0a1.561,1.561,0,0,0-.528.085,1.3,1.3,0,0,0-.479.261c.055.064.1.115.139.164C2276.455,643.39,2277.134,644.151,2277.828,644.9Z" transform="translate(-2274.855 -642.124)" fill="#f15e5a"/>
  <path id="路径_20" data-name="路径 20" d="M2295.227,659.448c-.821-.625-1.632-1.266-2.444-1.9s-1.612-1.277-2.418-1.916c-.032-.026-.069-.047-.1-.071l-.08.069a16.32,16.32,0,0,1-1.267,1.061,3.11,3.11,0,0,1-3.5.212,12.845,12.845,0,0,1-1.5-1.106c-.111-.09-.22-.181-.333-.274-2.643,1.881-5.238,3.8-7.81,5.749.01.021.011.031.017.036a.517.517,0,0,0,.064.044,1.786,1.786,0,0,0,.882.216h19.728c.284,0,.569.009.853,0a3.771,3.771,0,0,0,.49-.076.314.314,0,0,0,.083-.048l-.115-.088C2296.925,660.715,2296.07,660.089,2295.227,659.448Z" transform="translate(-2274.891 -645.473)" fill="#f15e5a"/>
  <path id="路径_21" data-name="路径 21" d="M2303.986,644.1c-.02-.16-.052-.318-.083-.476a.413.413,0,0,0-.051-.092c-.038.044-.066.078-.094.109l-.379.418q-1.234,1.352-2.469,2.705c-.715.781-1.429,1.564-2.154,2.335s-1.447,1.51-2.172,2.264c-.13.135-.264.266-.406.409.036.034.057.055.08.074,1.4,1.1,2.788,2.217,4.2,3.306,1.066.823,2.157,1.616,3.237,2.422.033.024.07.044.111.07.023-.045.041-.075.054-.107a1.781,1.781,0,0,0,.134-.716q0-6.217,0-12.435A2.373,2.373,0,0,0,2303.986,644.1Z" transform="translate(-2279.992 -642.476)" fill="#f15e5a"/>
  <path id="路径_22" data-name="路径 22" d="M2274.669,643.761a1.427,1.427,0,0,0-.072.464q0,6.348,0,12.7a3.117,3.117,0,0,0,.056.454.991.991,0,0,0,.054.149c2.557-1.939,5.122-3.835,7.727-5.7C2279.688,649.286,2277.181,646.54,2274.669,643.761Z" transform="translate(-2274.597 -642.533)" fill="#f15e5a"/>
</svg>
