<svg id="phone_icon_blue" xmlns="http://www.w3.org/2000/svg" width="22.153" height="24" viewBox="0 0 22.153 24">
  <path id="路径_18" data-name="路径 18" d="M1165.951,297.208c.372-.321.735-.651,1.116-.959.338-.272.686-.532,1.047-.773a1.438,1.438,0,0,1,1.242-.192,23.694,23.694,0,0,1,4.011,1.443c.137.067.269.145.4.221a1.551,1.551,0,0,1,.684.75,6.021,6.021,0,0,1,.477,1.335,1.86,1.86,0,0,1-.382,1.565,8.443,8.443,0,0,1-2.233,2.006c-.187.11-.383.2-.58.3a1.685,1.685,0,0,1-.678.145,13.42,13.42,0,0,1-4.2-.626,18.42,18.42,0,0,1-6.1-3.139,20.443,20.443,0,0,1-3.637-3.648,20.717,20.717,0,0,1-2.922-5.145,20.942,20.942,0,0,1-1.219-4.555,16.461,16.461,0,0,1-.151-3.031,2.4,2.4,0,0,1,.468-1.369,8.522,8.522,0,0,1,2.417-2.19,2.007,2.007,0,0,1,2.03-.033,8.96,8.96,0,0,1,1.077.641,1.427,1.427,0,0,1,.462.693,13.065,13.065,0,0,1,.71,2.451c.142.684.262,1.372.378,2.061a1.3,1.3,0,0,1-.2.992,3.507,3.507,0,0,1-.4.513q-.715.7-1.455,1.376c-.28.256-.294.249-.158.609a13,13,0,0,0,1.166,2.271,14.925,14.925,0,0,0,1.764,2.382c.59.626,1.2,1.233,1.848,1.8.578.509,1.2.969,1.826,1.422.337.244.716.429,1.077.639A.809.809,0,0,0,1165.951,297.208Z" transform="translate(-1152.811 -279.051)" fill="#f15e5a"/>
</svg>
