<svg xmlns="http://www.w3.org/2000/svg" width="72" height="72" viewBox="0 0 72 72">
  <defs>
    <style>
      .cls-1 {
        fill: #00b8ba;
      }

      .cls-2 {
        fill: #fff;
      }
    </style>
  </defs>
  <g id="Group_72" data-name="Group 72" transform="translate(-989 -1293)">
    <g id="Group_41" data-name="Group 41" transform="translate(989 1293)">
      <rect id="Rectangle_80" data-name="Rectangle 80" class="cls-1" width="72" height="72" rx="4"/>
      <path id="Path_101" data-name="Path 101" class="cls-2" d="M256.941,193.38c-4.652,3.852-5.6,8.871-5.276,14.578-2.428-1.216-2.658-3.292-2.934-5.365-3.6,3.9-3.419,10.48.589,15.112a13.588,13.588,0,0,1-6.6-5.114c-3.964-5.5-3.894-12.808.118-18.825.66-.989,1.387-1.935,2.118-2.874,5.3-6.8,5.732-7.823,6.908-16.387,5.7,1.347,10.711,9.811,11.327,19.406a6.045,6.045,0,0,0,2.775-4.481c4.184,5.847,6.775,16.279,1.77,23.013a13.314,13.314,0,0,1-6.541,5.069c4.735-5.23,3.207-10.471-.053-14.548-3-3.752-3.112-4.188-4.2-9.583" transform="translate(-219.629 -159.675)"/>
    </g>
  </g>
</svg>
