<svg xmlns="http://www.w3.org/2000/svg" xmlns:xlink="http://www.w3.org/1999/xlink" width="72" height="72" viewBox="0 0 72 72">
  <defs>
    <style>
      .cls-1 {
        fill: #fff;
      }

      .cls-2 {
        fill: #4384ff;
      }

      .cls-3 {
        clip-path: url(#clip-path);
      }
    </style>
    <clipPath id="clip-path">
      <rect id="Rectangle_93" data-name="Rectangle 93" class="cls-1" width="43.2" height="29.24"/>
    </clipPath>
  </defs>
  <g id="Group_71" data-name="Group 71" transform="translate(-1333 -1293)">
    <g id="Group_42" data-name="Group 42" transform="translate(1333 1293)">
      <rect id="Rectangle_81" data-name="Rectangle 81" class="cls-2" width="72" height="72" rx="4"/>
      <g id="Group_89" data-name="Group 89" transform="translate(14 21)">
        <g id="Group_89-2" data-name="Group 89" class="cls-3">
          <path id="Path_140" data-name="Path 140" class="cls-1" d="M146.157,60.756a7.672,7.672,0,0,0,.618-4.612,7.489,7.489,0,0,0,9.235-1.979,2.376,2.376,0,0,1,.309.121c.6.328,1.219.641,1.805,1a5.576,5.576,0,0,1,2.51,3.33,12.653,12.653,0,0,1,.5,3.189,2.968,2.968,0,0,1-3.07,3.177c-2.237.008-4.474,0-6.712,0-.14,0-.279-.011-.438-.019a6.257,6.257,0,0,0-2.023-2.489c-.871-.6-1.794-1.129-2.736-1.714" transform="translate(-117.938 -43.708)"/>
          <path id="Path_141" data-name="Path 141" class="cls-1" d="M148.389,5.893a5.785,5.785,0,0,1-5.723,5.872A5.884,5.884,0,1,1,142.494,0a5.821,5.821,0,0,1,5.895,5.893" transform="translate(-110.251 0)"/>
          <path id="Path_142" data-name="Path 142" class="cls-1" d="M60.244,95.159a7.447,7.447,0,0,0,11.644.01,12.879,12.879,0,0,1,2.988,1.812,6.214,6.214,0,0,1,1.868,3.7,16.371,16.371,0,0,1,.265,2.138,3,3,0,0,1-3.066,3.2c-1.611.014-3.223.009-4.834.008q-5.421,0-10.842-.006A3.077,3.077,0,0,1,55.881,105a2.787,2.787,0,0,1-.76-2.153,23.883,23.883,0,0,1,.441-2.868,5.7,5.7,0,0,1,3-3.937c.559-.306,1.128-.6,1.681-.888" transform="translate(-44.47 -76.786)"/>
          <path id="Path_143" data-name="Path 143" class="cls-1" d="M87.264,52.913a5.875,5.875,0,0,1-.031-11.751,5.875,5.875,0,1,1,.031,11.751" transform="translate(-65.663 -33.215)"/>
          <path id="Path_144" data-name="Path 144" class="cls-1" d="M14.362,56.063a7.65,7.65,0,0,0,.647,4.671c-1.959,1-3.847,2.022-4.775,4.166H8.244q-2.6,0-5.2-.005A2.945,2.945,0,0,1,0,61.839a11.287,11.287,0,0,1,.748-3.985A5.337,5.337,0,0,1,2.71,55.4,16.764,16.764,0,0,1,5.1,54.063a7.514,7.514,0,0,0,9.258,2" transform="translate(0 -43.625)"/>
          <path id="Path_145" data-name="Path 145" class="cls-1" d="M26.2,5.893a5.873,5.873,0,0,1,11.746-.1,5.874,5.874,0,1,1-11.746.1" transform="translate(-21.141 -0.016)"/>
        </g>
      </g>
    </g>
  </g>
</svg>
