<svg xmlns="http://www.w3.org/2000/svg" xmlns:xlink="http://www.w3.org/1999/xlink" width="72" height="72" viewBox="0 0 72 72">
  <defs>
    <style>
      .cls-1 {
        fill: #fff;
      }

      .cls-2 {
        fill: #64ccf5;
      }

      .cls-3 {
        clip-path: url(#clip-path);
      }
    </style>
    <clipPath id="clip-path">
      <rect id="Rectangle_89" data-name="Rectangle 89" class="cls-1" width="43.2" height="41.147"/>
    </clipPath>
  </defs>
  <g id="Group_86" data-name="Group 86" transform="translate(-1333 -1806)">
    <rect id="Rectangle_80" data-name="Rectangle 80" class="cls-2" width="72" height="72" rx="4" transform="translate(1333 1806)"/>
    <g id="Group_81" data-name="Group 81" transform="translate(1347 1821)">
      <g id="Group_80" data-name="Group 80" class="cls-3">
        <path id="Path_137" data-name="Path 137" class="cls-1" d="M13.725,149.374a7.779,7.779,0,0,1,4.413-6.882c.3-.155.388-.262.233-.6A10.984,10.984,0,0,0,9,135.17c-.363-.04-.49.063-.463.43.028.385.008.774.008,1.162a1.435,1.435,0,0,1-2.31,1.2C4.393,136.644,2.546,135.331.714,134a1.418,1.418,0,0,1,.013-2.469c1.823-1.321,3.658-2.626,5.486-3.94a1.433,1.433,0,0,1,2.331,1.2c0,.4.021.8,0,1.2-.02.322.1.42.413.43a14.713,14.713,0,0,1,6.084,1.525,15.585,15.585,0,0,1,8.206,9.432c.084.254.134.48.478.58a7.883,7.883,0,1,1-9.924,8.581c-.048-.34-.045-.687-.073-1.167m7.919-2.943a3.138,3.138,0,0,0-.047,6.276,3.211,3.211,0,0,0,3.17-3.284,3.146,3.146,0,0,0-3.123-2.992" transform="translate(0 -116.285)"/>
        <path id="Path_138" data-name="Path 138" class="cls-1" d="M285.7,136.215c0-1.042,0-1.056-.949-.939a10.878,10.878,0,0,0-7.247,3.955c-.4.476-.51.464-.758-.133a17.711,17.711,0,0,0-1.9-3.5c-.175-.246-.126-.382.07-.573a15.539,15.539,0,0,1,9.4-4.47,8.875,8.875,0,0,1,1.028-.073c.291,0,.369-.121.36-.388-.014-.444,0-.889,0-1.333a1.345,1.345,0,0,1,.779-1.286,1.387,1.387,0,0,1,1.5.131c1.854,1.325,3.709,2.649,5.552,3.99a1.413,1.413,0,0,1,0,2.442c-1.843,1.34-3.7,2.661-5.555,3.986a1.374,1.374,0,0,1-1.5.129,1.36,1.36,0,0,1-.779-1.287c0-.215,0-.43,0-.645" transform="translate(-251.035 -116.326)"/>
        <path id="Path_139" data-name="Path 139" class="cls-1" d="M189.586,11.606c0-.9-.008-1.807,0-2.71,0-.261-.08-.354-.344-.345-.458.016-.918.012-1.377,0A1.392,1.392,0,0,1,186.7,6.382q2.019-2.917,4.133-5.767a1.348,1.348,0,0,1,2.247-.024q2.13,2.863,4.168,5.795a1.394,1.394,0,0,1-1.172,2.165c-.444.014-.89.019-1.333,0-.307-.015-.387.1-.385.395.011,1.735,0,3.471.012,5.206a.683.683,0,0,1-.32.637,13.992,13.992,0,0,0-1.858,1.6c-.172.175-.28.169-.449,0a15.094,15.094,0,0,0-1.932-1.641.54.54,0,0,1-.235-.509c.01-.875,0-1.75,0-2.624" transform="translate(-170.374 0)"/>
      </g>
    </g>
  </g>
</svg>
