<svg xmlns="http://www.w3.org/2000/svg" xmlns:xlink="http://www.w3.org/1999/xlink" width="72" height="72" viewBox="0 0 72 72">
  <defs>
    <style>
      .cls-1 {
        fill: #fff;
      }

      .cls-2 {
        fill: #ff2e63;
      }

      .cls-3 {
        clip-path: url(#clip-path);
      }
    </style>
    <clipPath id="clip-path">
      <rect id="Rectangle_75" data-name="Rectangle 75" class="cls-1" width="43.2" height="43.2"/>
    </clipPath>
  </defs>
  <g id="Group_73" data-name="Group 73" transform="translate(-644 -1293)">
    <g id="Group_40" data-name="Group 40" transform="translate(644 1293)">
      <rect id="Rectangle_79" data-name="Rectangle 79" class="cls-2" width="72" height="72" rx="4"/>
      <g id="Group_34" data-name="Group 34" transform="translate(14.4 14.4)">
        <g id="Group_33" data-name="Group 33" class="cls-3">
          <path id="Path_87" data-name="Path 87" class="cls-1" d="M11.7,166,3.011,174.68a10.307,10.307,0,0,0,0,14.561l.217.217a10.3,10.3,0,0,0,14.564,0l8.358-8.356a13.042,13.042,0,0,1-1.865.134,12.808,12.808,0,0,1-4.963-.992l-5.265,5.263a5.017,5.017,0,0,1-7.1-7.094l8.47-8.468a5.016,5.016,0,0,1,7-.091,1.29,1.29,0,0,1,.1.089,2.483,2.483,0,0,0,3.511,0l1.9-1.9a10.3,10.3,0,0,0-1.458-1.835L26.263,166A10.3,10.3,0,0,0,11.7,166" transform="translate(0 -149.273)"/>
          <path id="Path_88" data-name="Path 88" class="cls-1" d="M206.324,17.794a10.307,10.307,0,0,0,0-14.561l-.217-.217a10.3,10.3,0,0,0-14.565,0l-8.358,8.356a13.037,13.037,0,0,1,1.865-.134,12.814,12.814,0,0,1,4.963.992l5.265-5.263a5.017,5.017,0,0,1,7.1,7.094l-8.47,8.468a5.015,5.015,0,0,1-7,.091,1.225,1.225,0,0,1-.1-.089,2.482,2.482,0,0,0-3.51,0l-1.9,1.9a10.3,10.3,0,0,0,1.458,1.835l.217.217a10.3,10.3,0,0,0,14.564,0Z" transform="translate(-166.069 -0.067)"/>
        </g>
      </g>
    </g>
  </g>
</svg>
