<svg xmlns="http://www.w3.org/2000/svg" xmlns:xlink="http://www.w3.org/1999/xlink" width="72" height="72" viewBox="0 0 72 72">
  <defs>
    <style>
      .cls-1 {
        fill: #fff;
      }

      .cls-2 {
        fill: #64ccf5;
      }

      .cls-3 {
        clip-path: url(#clip-path);
      }
    </style>
    <clipPath id="clip-path">
      <rect id="Rectangle_87" data-name="Rectangle 87" class="cls-1" width="32.127" height="43.2"/>
    </clipPath>
  </defs>
  <g id="Group_77" data-name="Group 77" transform="translate(-300 -1806)">
    <rect id="Rectangle_78" data-name="Rectangle 78" class="cls-2" width="72" height="72" rx="4" transform="translate(300 1806)"/>
    <g id="Group_76" data-name="Group 76" transform="translate(320 1820)">
      <g id="Group_75" data-name="Group 75" class="cls-3">
        <path id="Path_131" data-name="Path 131" class="cls-1" d="M32.125,15.672a4.015,4.015,0,0,1-.96,2.276A6.577,6.577,0,0,0,29.8,22.023a6.688,6.688,0,0,1-.244,1.843,3.289,3.289,0,0,1-2.319,2.3,8.051,8.051,0,0,0-4.312,3.119A3.485,3.485,0,0,1,18.7,30.662a8.007,8.007,0,0,0-5.241.023,3.547,3.547,0,0,1-4.276-1.456,7.339,7.339,0,0,0-3.908-2.868A3.829,3.829,0,0,1,2.384,22.2,6.189,6.189,0,0,0,1.175,18.32,11.347,11.347,0,0,1,.453,17.15,3.369,3.369,0,0,1,.563,13.6a4.369,4.369,0,0,1,.3-.481,7.219,7.219,0,0,0,1.513-4.61A3.7,3.7,0,0,1,5.241,4.594,6.9,6.9,0,0,0,8.972,1.883a3.845,3.845,0,0,1,4.9-1.54,6.058,6.058,0,0,0,4.29,0,3.864,3.864,0,0,1,4.961,1.552,6.768,6.768,0,0,0,3.689,2.632A3.754,3.754,0,0,1,29.729,8.49a7.03,7.03,0,0,0,1.508,4.526,4.148,4.148,0,0,1,.888,2.657M15.949,3.841A11.612,11.612,0,1,0,27.692,15.252,11.575,11.575,0,0,0,15.949,3.841" transform="translate(0 0)"/>
        <path id="Path_132" data-name="Path 132" class="cls-1" d="M31.819,199.78c-.153-.137-.3-.254-.427-.385-.724-.728-1.464-1.443-2.16-2.2a1.075,1.075,0,0,0-1.139-.369c-1.164.239-2.342.408-3.513.614-.6.105-.7-.083-.5-.647,1.106-3.077,2.188-6.163,3.268-9.249.158-.452.293-.855.879-.446a11.915,11.915,0,0,0,6.51,1.945c.962.043.964.09.648.994q-1.588,4.553-3.184,9.1a1.218,1.218,0,0,1-.381.637" transform="translate(-20.09 -156.58)"/>
        <path id="Path_133" data-name="Path 133" class="cls-1" d="M113.455,197.47c-1.076-.183-2.28-.363-3.472-.6a1.091,1.091,0,0,0-1.144.372c-.7.755-1.445,1.461-2.148,2.21-.354.376-.56.437-.758-.131q-1.666-4.787-3.368-9.56c-.153-.429-.057-.608.39-.626.188-.008.375-.065.563-.071a11.331,11.331,0,0,0,6.275-1.888c.486-.337.72-.252.92.331,1.064,3.092,2.169,6.17,3.252,9.255.125.357.425.848-.509.71" transform="translate(-85.855 -156.62)"/>
        <path id="Path_134" data-name="Path 134" class="cls-1" d="M59.586,46.453a9.456,9.456,0,1,1-9.661-9.462,9.478,9.478,0,0,1,9.661,9.462" transform="translate(-34.07 -30.985)"/>
      </g>
    </g>
  </g>
</svg>
