<svg xmlns="http://www.w3.org/2000/svg" xmlns:xlink="http://www.w3.org/1999/xlink" width="72" height="72" viewBox="0 0 72 72">
  <defs>
    <style>
      .cls-1 {
        fill: #fff;
      }

      .cls-2 {
        fill: #64ccf5;
      }

      .cls-3 {
        clip-path: url(#clip-path);
      }
    </style>
    <clipPath id="clip-path">
      <rect id="Rectangle_88" data-name="Rectangle 88" class="cls-1" width="43.2" height="43.2"/>
    </clipPath>
  </defs>
  <g id="Group_86" data-name="Group 86" transform="translate(-817 -1806)">
    <rect id="Rectangle_79" data-name="Rectangle 79" class="cls-2" width="72" height="72" rx="4" transform="translate(817 1806)"/>
    <g id="Group_79" data-name="Group 79" transform="translate(831 1820)">
      <g id="Group_78" data-name="Group 78" class="cls-3">
        <path id="Path_135" data-name="Path 135" class="cls-1" d="M0,19.256a1.855,1.855,0,0,1,.4-.7A1.519,1.519,0,0,1,1.481,18.1c1.423,0,2.848-.029,4.27.011a2.219,2.219,0,0,0,2.066-1.36c.184-.511.418-1,.63-1.5A2.066,2.066,0,0,0,8,12.95Q6.467,11.412,4.93,9.879a1.485,1.485,0,0,1-.474-.943,1.434,1.434,0,0,1,.425-1.179Q6.3,6.327,7.732,4.907A1.435,1.435,0,0,1,9.817,4.9c1.032,1.015,2.067,2.028,3.07,3.071a2.223,2.223,0,0,0,2.468.49A12.52,12.52,0,0,1,16.73,7.9a2.181,2.181,0,0,0,1.377-2.051c-.036-1.431-.013-2.863-.012-4.294A1.518,1.518,0,0,1,18.612.359,1.322,1.322,0,0,1,19.506,0C20.9,0,22.289,0,23.68.005A1.461,1.461,0,0,1,25.1,1.5c.008.72,0,1.439,0,2.159,0,.752.019,1.5-.01,2.255a2.151,2.151,0,0,0,1.343,1.976c.5.179.993.4,1.487.608a2.1,2.1,0,0,0,2.306-.451q1.545-1.543,3.085-3.09a1.452,1.452,0,0,1,1.486-.434,1.426,1.426,0,0,1,.655.383Q36.875,6.33,38.3,7.754a1.476,1.476,0,0,1-.039,2.126c-1.02,1-2.024,2.025-3.04,3.033a2.14,2.14,0,0,0-.633,1.235,1.937,1.937,0,0,0,.126,1.056c.225.538.474,1.067.678,1.614a2.2,2.2,0,0,0,1.962,1.3c1.431-.026,2.863-.009,4.294-.01a1.528,1.528,0,0,1,1.179.5,1.318,1.318,0,0,1,.371.911c0,1.392.008,2.783,0,4.175A1.466,1.466,0,0,1,41.7,25.1c-.576.009-1.152,0-1.727,0l-2.615,0a2.063,2.063,0,0,0-1.909,1.322c-.149.387-.313.767-.464,1.134-.095.035-.127-.02-.164-.058-.656-.656-1.31-1.314-1.968-1.966a.26.26,0,0,1-.059-.3,10.567,10.567,0,0,0,.421-1.893,12.535,12.535,0,0,0,.095-2.319,11.913,11.913,0,0,0-.76-3.548,11.689,11.689,0,0,0-9.719-7.439,11.81,11.81,0,0,0-4.761.468,11.807,11.807,0,0,0-7.853,8.285,11.749,11.749,0,0,0,2.175,10.2,11.532,11.532,0,0,0,7.17,4.275A11.045,11.045,0,0,0,22,33.442a11.9,11.9,0,0,0,3.178-.554.3.3,0,0,1,.359.076c.621.634,1.252,1.259,1.878,1.888.05.05.113.092.126.171-.045.077-.129.09-.2.121q-.486.2-.975.4a2.1,2.1,0,0,0-1.269,1.878q0,2.087,0,4.174a1.515,1.515,0,0,1-1.11,1.577.192.192,0,0,0-.039.027h-4.7a.326.326,0,0,0-.063-.033,1.54,1.54,0,0,1-1.093-1.542c.013-1.4,0-2.8.006-4.2a2.111,2.111,0,0,0-1.241-1.872L15.1,34.833a1.928,1.928,0,0,0-.866-.151,2.178,2.178,0,0,0-1.464.677c-.964.981-1.939,1.95-2.915,2.918a1.456,1.456,0,0,1-2.172-.013q-1.3-1.307-2.611-2.611a3.154,3.154,0,0,1-.357-.387,1.447,1.447,0,0,1,.029-1.723,3.128,3.128,0,0,1,.259-.282Q6.464,31.8,7.922,30.343A2.108,2.108,0,0,0,8.377,28c-.21-.5-.419-1-.615-1.509A2.068,2.068,0,0,0,5.729,25.1c-1.407.008-2.814.005-4.22,0A1.509,1.509,0,0,1,.39,24.638,1.952,1.952,0,0,1,0,23.958Z" transform="translate(-0.001 -0.001)"/>
        <path id="Path_136" data-name="Path 136" class="cls-1" d="M279.795,274.461a4.73,4.73,0,0,1,1-.263,7.691,7.691,0,0,1,5.811,1.194,8.829,8.829,0,0,1,3.208,3.581,8.271,8.271,0,0,1,.8,2.847,8.886,8.886,0,0,1-.445,3.684c-.038.114-.072.229-.108.343a1.141,1.141,0,0,0,.3,1.212q.54.545,1.094,1.077,2.34,2.255,4.684,4.506,1.86,1.786,3.7,3.6a4.212,4.212,0,0,1,.757.955,2.5,2.5,0,0,1,0,2.624,3.5,3.5,0,0,1-1.627,1.472,2.523,2.523,0,0,1-2.428-.2,3.851,3.851,0,0,1-.691-.553l-6.188-5.988q-1.543-1.493-3.059-3.013c-.079-.079-.165-.152-.244-.231a1.421,1.421,0,0,0-1.5-.362c-.491.141-.975.3-1.479.4a7.911,7.911,0,0,1-6.274-1.3,9.123,9.123,0,0,1-3.169-3.653,8.15,8.15,0,0,1-.741-2.86,11.823,11.823,0,0,1,.106-2.414.528.528,0,0,1,.4-.481c.215.2.424.372.611.567.766.794,1.522,1.6,2.287,2.392A5.231,5.231,0,0,0,278.679,285a3.872,3.872,0,0,0,3.505-.452,4.942,4.942,0,0,0,1.855-2.118,3.835,3.835,0,0,0-.292-3.753,6.145,6.145,0,0,0-1-1.221c-.817-.8-1.664-1.569-2.444-2.406a6.477,6.477,0,0,1-.507-.591m16.565,23.851a1.346,1.346,0,0,0,2.691.029,1.346,1.346,0,1,0-2.691-.029" transform="translate(-260.037 -260.89)"/>
      </g>
    </g>
  </g>
</svg>
