<svg xmlns="http://www.w3.org/2000/svg" xmlns:xlink="http://www.w3.org/1999/xlink" viewBox="0 0 676.11 1355.94"><defs><style>.cls-1,.cls-17,.cls-7,.cls-9{fill:#fff;}.cls-2,.cls-3,.cls-4,.cls-5,.cls-6,.cls-8{stroke:#fff;stroke-miterlimit:10;}.cls-2,.cls-3,.cls-4,.cls-5,.cls-6{stroke-width:3px;}.cls-2{fill:url(#linear-gradient);}.cls-3,.cls-8{fill:none;}.cls-4{fill:url(#linear-gradient-2);}.cls-5{fill:url(#linear-gradient-3);}.cls-6{fill:url(#linear-gradient-4);}.cls-7{font-size:24px;}.cls-17,.cls-7,.cls-9{font-family:Verdana;}.cls-8{stroke-linecap:round;stroke-width:2px;}.cls-9{font-size:16px;}.cls-10{letter-spacing:-0.05em;}.cls-11{letter-spacing:-0.04em;}.cls-12{font-size:20px;font-family:Verdana-Bold, Verdana;font-weight:700;}.cls-13{letter-spacing:-0.07em;}.cls-14{letter-spacing:0em;}.cls-15{letter-spacing:-0.07em;}.cls-16{font-size:18px;}.cls-17{font-size:19.87px;}.cls-18{font-size:22.07px;}</style><linearGradient id="linear-gradient" x1="-285.49" y1="656.89" x2="-174.47" y2="656.89" gradientTransform="matrix(0, 1, -1, 0, 1004.64, 597.95)" gradientUnits="userSpaceOnUse"><stop offset="0" stop-color="#010120"/><stop offset="1" stop-color="#03030f"/></linearGradient><linearGradient id="linear-gradient-2" x1="-18.37" y1="656.89" x2="92.65" y2="656.89" xlink:href="#linear-gradient"/><linearGradient id="linear-gradient-3" x1="248.75" y1="656.89" x2="359.77" y2="656.89" xlink:href="#linear-gradient"/><linearGradient id="linear-gradient-4" x1="515.87" y1="656.89" x2="626.89" y2="656.89" xlink:href="#linear-gradient"/></defs><g id="Layer_2" data-name="Layer 2"><g id="Layer_1-2" data-name="Layer 1"><rect class="cls-1" x="-222.76" y="765.96" width="1143.15" height="36.8" rx="15.48" transform="matrix(0, 1, -1, 0, 1134.07, 437.55)"/><circle class="cls-2" cx="348.34" cy="366.29" r="55.51"/><circle class="cls-3" cx="348.34" cy="366.29" r="68.43"/><circle class="cls-4" cx="347.65" cy="633.41" r="55.51"/><circle class="cls-3" cx="347.65" cy="633.41" r="68.43"/><circle class="cls-5" cx="346.97" cy="900.53" r="55.51"/><circle class="cls-3" cx="346.97" cy="900.53" r="68.43"/><circle class="cls-6" cx="346.29" cy="1167.65" r="55.51"/><circle class="cls-3" cx="346.29" cy="1167.65" r="68.43"/><text class="cls-7" transform="translate(331.31 627.24)">Q2<tspan x="-13.44" y="28.8">2021</tspan></text><text class="cls-7" transform="translate(330.57 894.12)">Q3<tspan x="-13.44" y="28.8">2021</tspan></text><text class="cls-7" transform="translate(330.59 1160.36)">Q4<tspan x="-13.44" y="28.8">2021</tspan></text><line class="cls-8" x1="418.11" y1="632.92" x2="467.11" y2="632.92"/><text class="cls-9" transform="translate(534.55 381.19)">MA<tspan class="cls-10" x="24.42" y="0">R</tspan><tspan x="34.77" y="0">-M</tspan><tspan class="cls-11" x="55.52" y="0">A</tspan><tspan x="65.83" y="0">Y</tspan><tspan class="cls-12"><tspan x="-51.55" y="24">XPLL pre-listing</tspan><tspan x="-32.15" y="48">sale phase 2</tspan></tspan></text><text class="cls-9" transform="translate(552.69 605.45)">M<tspan class="cls-11" x="13.48" y="0">A</tspan><tspan x="23.8" y="0">Y</tspan><tspan class="cls-12"><tspan x="-17.33" y="24">Token</tspan><tspan x="-47.61" y="48">generation </tspan><tspan x="-14.64" y="72">event</tspan></tspan></text><text class="cls-9" transform="translate(554.84 479.57)">M<tspan class="cls-11" x="13.48" y="0">A</tspan><tspan x="23.8" y="0">Y</tspan><tspan class="cls-12"><tspan x="-14.31" y="24">XPLL </tspan><tspan x="-51.9" y="48">Whitepaper </tspan><tspan x="-10.93" y="72">v 1.2</tspan></tspan></text><text class="cls-9" transform="translate(533.19 739.33)">M<tspan class="cls-11" x="13.48" y="0">A</tspan><tspan class="cls-13" x="23.8" y="0">Y</tspan><tspan class="cls-10" x="32.55" y="0">-</tspan><tspan x="39.03" y="0">JUN</tspan><tspan class="cls-12"><tspan x="-37.34" y="24">Mass airdrop</tspan><tspan x="-19.36" y="48">campaign</tspan></tspan></text><rect class="cls-8" x="466.11" y="355.92" width="209" height="466" rx="34.73"/><text class="cls-9" transform="translate(88.8 348.17)"><tspan class="cls-14">J</tspan><tspan x="7.2" y="0">AN-MAR</tspan><tspan class="cls-12"><tspan x="-52.93" y="24">XPLL pre-listing</tspan><tspan x="-33.53" y="48">sale phase 1</tspan></tspan></text><line class="cls-8" x1="277.44" y1="369.25" x2="235.28" y2="369.07"/><rect class="cls-8" x="18.78" y="313.74" width="214.68" height="111.4" rx="29.2"/><text class="cls-9" transform="translate(96.7 789.26)"><tspan class="cls-14">A</tspan><tspan x="10.86" y="0">UG</tspan><tspan class="cls-12"><tspan x="-61.06" y="24">ParallelWallet</tspan><tspan x="-35.86" y="48">launches </tspan></tspan><tspan x="-14.05" y="67.2">(target)</tspan></text><text class="cls-9" transform="translate(72.17 927.74)">SEP<tspan x="28.39" y="0">-OCT</tspan><tspan class="cls-12"><tspan x="-49.71" y="24">Public listing on</tspan><tspan x="-58.76" y="48">crypto exchanges</tspan></tspan><tspan class="cls-16"><tspan x="4.66" y="69.6">(target)</tspan></tspan></text><rect class="cls-8" x="1" y="760.36" width="228.44" height="274.67" rx="35.46"/><line class="cls-8" x1="465" y1="1167.47" x2="417.44" y2="1167.92"/><rect class="cls-8" x="466" y="1048.47" width="208.89" height="236.33" rx="30.41"/><text class="cls-9" transform="translate(553.87 1079.5)">NOV<tspan class="cls-12"><tspan x="-75.08" y="21">DTL White-Label</tspan><tspan x="-39.44" y="42">exchange </tspan></tspan><tspan x="-13.79" y="61.2">(target)</tspan></text><text class="cls-9" transform="translate(552.57 1192.32)">DEC<tspan class="cls-12"><tspan x="-64.16" y="21">Ultra-fast AML</tspan><tspan x="-33.62" y="42">available</tspan></tspan><tspan x="-14.73" y="61.2">(target)</tspan></text><text class="cls-17" transform="translate(314.7 50.2)">Q4 2020<tspan class="cls-18"><tspan x="12.5" y="50.33">XPLL </tspan><tspan x="-12.34" y="76.82">Seed Sale</tspan></tspan></text><line class="cls-8" x1="351.48" y1="211.13" x2="351.25" y2="171.36"/><circle class="cls-8" cx="351.46" cy="85" r="84"/><text class="cls-7" transform="translate(331.05 358.15)">Q1<tspan x="-13.44" y="28.8">2021</tspan></text></g></g></svg>