<svg xmlns="http://www.w3.org/2000/svg" viewBox="0 0 289.57 289.57"><defs><style>.cls-1{fill:#da9127;}.cls-2,.cls-3,.cls-4{fill:#fff;}.cls-2{opacity:0.6;}.cls-3{opacity:0.8;}</style></defs><g id="Layer_2" data-name="Layer 2"><g id="Layer_1-2" data-name="Layer 1"><g id="Group_74" data-name="Group 74"><g id="Group_39" data-name="Group 39"><rect id="Rectangle_78" data-name="Rectangle 78" class="cls-1" width="289.57" height="289.57" rx="16.09"/></g></g><path class="cls-2" d="M228.14,48.49c-2.81,3.6-50.16,62.78-129.38,58.75v98.69L96,203.75l-.35-.28a83.59,83.59,0,0,1-32.46-61l-1.86-30.09v-64c20.62,17.5,50.39,28.46,83.49,28.46S207.47,65.87,228.14,48.49Z"/><path class="cls-3" d="M228.3,48.33S211.51,127.11,144.77,141v100.2l-46-35.31V107.24c79.22,4,126.57-55.15,129.38-58.75Z"/><path class="cls-4" d="M228.3,48.33v63.26l-1.94,30.88a83.33,83.33,0,0,1-32.47,61l-49.12,37.77V141C211.51,127.11,228.3,48.33,228.3,48.33Z"/></g></g></svg>