<svg xmlns="http://www.w3.org/2000/svg" xmlns:xlink="http://www.w3.org/1999/xlink" viewBox="0 0 1462.33 515.24">
<defs>
<style>
    .cls-1,.cls-4,.cls-9{fill:#fff;}.cls-2,.cls-3,.cls-5,.cls-6,.cls-7,.cls-8{stroke:#fff;stroke-miterlimit:10;}.cls-2,.cls-3,.cls-5,.cls-6,.cls-7{stroke-width:3px;}.cls-2{fill:url(#linear-gradient);}.cls-3,.cls-8{fill:none;}.cls-4{font-size:24px;font-family:Poppins-Medium, Poppins;font-weight:500;}.cls-5{fill:url(#linear-gradient-2);}.cls-6{fill:url(#linear-gradient-3);}.cls-7{fill:url(#linear-gradient-4);}.cls-8{stroke-linecap:round;stroke-width:2px;}.cls-9{font-size:18px;font-family:Poppins-SemiBold, Poppins;font-weight:600;}.cls-10,.cls-11{font-size:20px;}.cls-11,.cls-12,.cls-13{font-family:Poppins-LightItalic, Poppins;font-weight:300;font-style:italic;}.cls-12,.cls-13{font-size:16px;}.cls-12{letter-spacing:0em;}
</style>
<linearGradient id="linear-gradient" x1="361.59" y1="254.47" x2="472.61" y2="254.47" gradientUnits="userSpaceOnUse"><stop offset="0" stop-color="#010120"/>
<stop offset="1" stop-color="#03030f"/>
</linearGradient>
<linearGradient id="linear-gradient-2" x1="628.71" y1="254.47" x2="739.73" y2="254.47" xlink:href="#linear-gradient"/>
<linearGradient id="linear-gradient-3" x1="895.83" y1="254.47" x2="1006.85" y2="254.47" xlink:href="#linear-gradient"/>
<linearGradient id="linear-gradient-4" x1="1162.95" y1="254.47" x2="1273.97" y2="254.47" xlink:href="#linear-gradient"/>
</defs><g id="Layer_2" data-name="Layer 2">
<g id="Layer_1-2" data-name="Layer 1">
<rect class="cls-1" x="194" y="235.01" width="1268.33" height="30.97" rx="15.48"/><circle class="cls-2" cx="417.1" cy="254.47" r="55.51"/><circle class="cls-3" cx="417.1" cy="254.47" r="68.43"/><text class="cls-4" transform="translate(403.45 247.66)">Q1<tspan x="-12.1" y="28.8">2021</tspan></text><circle class="cls-5" cx="684.22" cy="254.47" r="55.51"/><circle class="cls-3" cx="684.22" cy="254.47" r="68.43"/><circle class="cls-6" cx="951.34" cy="254.47" r="55.51"/><circle class="cls-3" cx="951.34" cy="254.47" r="68.43"/><circle class="cls-7" cx="1218.46" cy="254.47" r="55.51"/><circle class="cls-3" cx="1218.46" cy="254.47" r="68.43"/><text class="cls-4" transform="translate(666.95 247.26)">Q2<tspan x="-9.37" y="28.8">2021</tspan></text><text class="cls-4" transform="translate(932.99 244.49)">Q3<tspan x="-9.17" y="28.8">2021</tspan></text><text class="cls-4" transform="translate(1201.25 244.49)">Q4<tspan x="-8.53" y="28.8">2021</tspan></text><line class="cls-8" x1="684.22" y1="144.82" x2="684.22" y2="182.96"/><text class="cls-9" transform="translate(265.62 29.83)">MAR-MAY<tspan class="cls-10"><tspan x="-32.57" y="45.6">XPLL pre-listing</tspan><tspan x="-17.66" y="69.6">sale phase 2</tspan></tspan></text><text class="cls-9" transform="translate(656.17 29.19)">MAY<tspan class="cls-10"><tspan x="-10.51" y="45.6">Token</tspan><tspan x="-38.32" y="69.6">generation </tspan><tspan x="-8.56" y="93.6">event</tspan></tspan></text><text class="cls-9" transform="translate(484.54 28.35)">MAY<tspan class="cls-10"><tspan x="-4.24" y="45.6">XPLL </tspan><tspan x="-42.35" y="69.6">Whitepaper </tspan><tspan x="-0.07" y="93.6">v 1.2</tspan></tspan></text><text class="cls-9" transform="translate(809.51 30.73)">MAY-JUN<tspan class="cls-10"><tspan x="-23.11" y="45.6">Mass airdrop</tspan><tspan x="-9.49" y="69.6">campaign</tspan></tspan></text><rect class="cls-8" x="200.56" y="1" width="768.47" height="144.27" rx="34.73"/><text class="cls-9" transform="translate(372.69 399.24)">JAN-MAR<tspan class="cls-10"><tspan x="-34.64" y="45.6">XPLL pre-listing</tspan><tspan x="-17.61" y="69.6">sale phase 1</tspan></tspan></text><line class="cls-8" x1="416.43" y1="325.45" x2="416.43" y2="363.58"/><rect class="cls-8" x="315.15" y="364.36" width="202.57" height="149.87" rx="37.09"/><line class="cls-8" x1="952.23" y1="326.45" x2="952.23" y2="364.58"/><text class="cls-9" transform="translate(844.86 393.78)">AUG<tspan class="cls-10"><tspan x="-51.19" y="45.6">ParallelWallet</tspan><tspan x="-29.78" y="69.6">launches </tspan></tspan><tspan class="cls-11"><tspan x="-19.23" y="93.6">(target)</tspan></tspan></text><text class="cls-9" transform="translate(1001.79 393.78)">SEPT-OCT<tspan class="cls-10"><tspan x="-34.51" y="45.6">Public listing on</tspan><tspan x="-46.17" y="69.6">crypto exchanges</tspan></tspan><tspan class="cls-11"><tspan x="6.49" y="93.6">(target)</tspan></tspan></text><rect class="cls-8" x="760.11" y="364.58" width="415.11" height="149.65" rx="35.46"/><line class="cls-8" x1="1221.12" y1="147.27" x2="1221.12" y2="185.4"/><rect class="cls-8" x="1045.19" y="2.11" width="411.81" height="144.27" rx="30.41"/><text class="cls-9" transform="translate(1135.5 30.12)">NOV<tspan class="cls-10"><tspan x="-42.53" y="42">White-Label</tspan><tspan x="-32.84" y="63">exchange </tspan><tspan x="-60.42" y="84">launches </tspan><tspan class="cls-12" x="38.4" y="84">(target)</tspan></tspan></text><text class="cls-9" transform="translate(1342.09 30.16)">DEC<tspan class="cls-10"><tspan x="-54.81" y="42.6">Ultra-fast AML</tspan><tspan x="-29.47" y="63.6">available</tspan></tspan><tspan class="cls-13"><tspan x="-12.93" y="84.6">(target)</tspan></tspan></text><line class="cls-8" x1="171.58" y1="252.69" x2="196.35" y2="252.69"/><text class="cls-9" transform="translate(49.2 216.35)">Q4 2020<tspan class="cls-10"><tspan x="12.63" y="45.6">XPLL </tspan><tspan x="-12.28" y="69.6">Seed Sale</tspan></tspan></text><circle class="cls-8" cx="85" cy="249.79" r="84"/></g></g></svg>