<svg xmlns="http://www.w3.org/2000/svg" xmlns:xlink="http://www.w3.org/1999/xlink" viewBox="0 0 1462.33 550"><defs><style>.cls-1,.cls-4,.cls-9{fill:#fff;}.cls-2,.cls-3,.cls-5,.cls-6,.cls-7,.cls-8{stroke:#fff;stroke-miterlimit:10;}.cls-2,.cls-3,.cls-5,.cls-6,.cls-7{stroke-width:3px;}.cls-2{fill:url(#linear-gradient);}.cls-3,.cls-8{fill:none;}.cls-4{font-size:24px;}.cls-4,.cls-9{font-family:Poppins;}.cls-5{fill:url(#linear-gradient-2);}.cls-6{fill:url(#linear-gradient-3);}.cls-7{fill:url(#linear-gradient-4);}.cls-8{stroke-linecap:round;stroke-width:2px;}.cls-9{font-size:18px;}.cls-10{letter-spacing:-0.05em;}.cls-11{letter-spacing:-0.04em;}.cls-12,.cls-17{font-size:20px;}.cls-12,.cls-16{font-family:Poppins-Bold, Poppins;font-weight:700;}.cls-13{letter-spacing:-0.07em;}.cls-14{letter-spacing:0em;}.cls-15{letter-spacing:-0.07em;}.cls-16{font-size:16px;}</style><linearGradient id="linear-gradient" x1="361.59" y1="254.47" x2="472.61" y2="254.47" gradientUnits="userSpaceOnUse"><stop offset="0" stop-color="#010120"/><stop offset="1" stop-color="#03030f"/></linearGradient><linearGradient id="linear-gradient-2" x1="628.71" y1="254.47" x2="739.73" y2="254.47" xlink:href="#linear-gradient"/><linearGradient id="linear-gradient-3" x1="895.83" y1="254.47" x2="1006.85" y2="254.47" xlink:href="#linear-gradient"/><linearGradient id="linear-gradient-4" x1="1162.95" y1="254.47" x2="1273.97" y2="254.47" xlink:href="#linear-gradient"/></defs><g id="Layer_2" data-name="Layer 2"><g id="Layer_1-2" data-name="Layer 1"><rect class="cls-1" x="194" y="235.01" width="1268.33" height="30.97" rx="15.48"/><circle class="cls-2" cx="417.1" cy="254.47" r="55.51"/><circle class="cls-3" cx="417.1" cy="254.47" r="68.43"/><text class="cls-4" transform="translate(400.02 247.66)">Q1<tspan x="-13.44" y="28.8">2021</tspan></text><circle class="cls-5" cx="684.22" cy="254.47" r="55.51"/><circle class="cls-3" cx="684.22" cy="254.47" r="68.43"/><circle class="cls-6" cx="951.34" cy="254.47" r="55.51"/><circle class="cls-3" cx="951.34" cy="254.47" r="68.43"/><circle class="cls-7" cx="1218.46" cy="254.47" r="55.51"/><circle class="cls-3" cx="1218.46" cy="254.47" r="68.43"/><text class="cls-4" transform="translate(667.25 247.26)">Q2<tspan x="-13.44" y="28.8">2021</tspan></text><text class="cls-4" transform="translate(934.49 245.49)">Q3<tspan x="-13.44" y="28.8">2021</tspan></text><text class="cls-4" transform="translate(1202.38 244.49)">Q4<tspan x="-13.44" y="28.8">2021</tspan></text><line class="cls-8" x1="684.22" y1="144.82" x2="684.22" y2="182.96"/><text class="cls-9" transform="translate(272.86 34.83)">MA<tspan class="cls-10" x="27.47" y="0">R</tspan><tspan x="39.11" y="0">-M</tspan><tspan class="cls-11" x="62.46" y="0">A</tspan><tspan x="74.06" y="0">Y</tspan><tspan class="cls-12"><tspan x="-46.82" y="45.6">XPLL pre-listing</tspan><tspan x="-27.42" y="69.6">sale phase 2</tspan></tspan></text><text class="cls-9" transform="translate(661.51 34.19)">M<tspan class="cls-11" x="15.17" y="0">A</tspan><tspan x="26.77" y="0">Y</tspan><tspan class="cls-12"><tspan x="-15.23" y="45.6">Token</tspan><tspan x="-45.51" y="69.6">generation </tspan><tspan x="-12.54" y="93.6">event</tspan></tspan></text><text class="cls-9" transform="translate(489.87 33.35)">M<tspan class="cls-11" x="15.17" y="0">A</tspan><tspan x="26.77" y="0">Y</tspan><tspan class="cls-12"><tspan x="-12.21" y="45.6">XPLL </tspan><tspan x="-49.79" y="69.6">Whitepaper </tspan><tspan x="-8.83" y="93.6">v 1.2</tspan></tspan></text><text class="cls-9" transform="translate(817.66 35.73)">M<tspan class="cls-11" x="15.17" y="0">A</tspan><tspan class="cls-13" x="26.77" y="0">Y</tspan><tspan class="cls-10" x="36.62" y="0">-</tspan><tspan x="43.91" y="0">JUN</tspan><tspan class="cls-12"><tspan x="-32.96" y="45.6">Mass airdrop</tspan><tspan x="-14.98" y="69.6">campaign</tspan></tspan></text><rect class="cls-8" x="200.56" y="1" width="768.47" height="144.27" rx="34.73"/><text class="cls-9" transform="translate(375.42 399.24)"><tspan class="cls-14">J</tspan><tspan x="8.09" y="0">AN-MAR</tspan><tspan class="cls-12"><tspan x="-48.38" y="45.6">XPLL pre-listing</tspan><tspan x="-28.97" y="69.6">sale phase 1</tspan></tspan></text><line class="cls-8" x1="416.43" y1="325.45" x2="416.43" y2="363.58"/><rect class="cls-8" x="315.15" y="364.36" width="202.57" height="149.87" rx="37.09"/><line class="cls-8" x1="952.23" y1="326.45" x2="952.23" y2="364.58"/><text class="cls-9" transform="translate(844.81 393.78)"><tspan class="cls-14">A</tspan><tspan x="12.22" y="0">UG</tspan><tspan class="cls-12"><tspan x="-58.88" y="45.6">ParallelWallet</tspan><tspan x="-33.67" y="69.6">launches </tspan><tspan x="-25.59" y="93.6">(target)</tspan></tspan></text><text class="cls-9" transform="translate(1018.97 392.63)">SEP<tspan x="34.31" y="0">-OCT</tspan><tspan class="cls-12"><tspan x="-44.69" y="45.6">Public listing on</tspan><tspan x="-53.74" y="69.6">crypto exchanges</tspan><tspan x="-0.11" y="93.6">(target)</tspan></tspan></text><rect class="cls-8" x="760.11" y="364.58" width="415.11" height="149.65" rx="35.46"/><line class="cls-8" x1="1221.12" y1="147.27" x2="1221.12" y2="185.4"/><rect class="cls-8" x="1045.19" y="2.11" width="411.81" height="144.27" rx="30.41"/><text class="cls-9" transform="translate(1133.88 34.92)">NOV<tspan class="cls-12"><tspan x="-72.86" y="42">DTL White-Label</tspan><tspan x="-37.22" y="63">exchange </tspan></tspan><tspan class="cls-16"><tspan x="-16.24" y="84">(target)</tspan></tspan></text><text class="cls-9" transform="translate(1339.33 35.16)">DEC<tspan class="cls-12"><tspan x="-62.06" y="42.6">Ultra-fast AML</tspan><tspan x="-31.52" y="63.6">available</tspan></tspan><tspan class="cls-16"><tspan x="-17.3" y="84.6">(target)</tspan></tspan></text><text class="cls-9" transform="translate(51.48 216.35)">Q4 2020<tspan class="cls-17"><tspan x="11.33" y="45.6">XPLL </tspan><tspan x="-11.18" y="69.6">Seed Sale</tspan></tspan></text><line class="cls-8" x1="171.58" y1="252.69" x2="196.35" y2="252.69"/><circle class="cls-8" cx="85" cy="249.79" r="84"/></g></g></svg>