<svg width="456" height="986" viewBox="0 0 456 986" fill="none" xmlns="http://www.w3.org/2000/svg">
<g clip-path="url(#clip0)">
<rect width="455.357" height="986" rx="48.5714" fill="#353634"/>
<g filter="url(#filter0_d)">
<path d="M24.2857 799C24.2857 788.27 32.9842 779.571 43.7143 779.571H421.357C432.087 779.571 440.786 788.27 440.786 799V828.143C440.786 838.873 432.087 847.571 421.357 847.571H43.7143C32.9842 847.571 24.2857 838.873 24.2857 828.143V799Z" fill="#5D6458" fill-opacity="0.5" shape-rendering="crispEdges"/>
<path d="M195.691 822.741C194.558 822.741 193.538 822.547 192.631 822.158C191.724 821.754 191.012 821.187 190.494 820.458C189.976 819.73 189.717 818.88 189.717 817.908H192.68C192.744 818.637 193.028 819.236 193.53 819.706C194.048 820.175 194.768 820.41 195.691 820.41C196.646 820.41 197.391 820.183 197.925 819.73C198.46 819.26 198.727 818.661 198.727 817.933C198.727 817.366 198.557 816.905 198.217 816.548C197.893 816.192 197.48 815.917 196.978 815.723C196.492 815.528 195.812 815.318 194.938 815.091C193.837 814.8 192.939 814.508 192.242 814.217C191.562 813.909 190.98 813.44 190.494 812.808C190.008 812.177 189.765 811.335 189.765 810.283C189.765 809.311 190.008 808.461 190.494 807.733C190.98 807.004 191.66 806.446 192.534 806.057C193.408 805.668 194.42 805.474 195.57 805.474C197.205 805.474 198.541 805.887 199.577 806.713C200.629 807.522 201.212 808.639 201.325 810.064H198.265C198.217 809.449 197.925 808.923 197.391 808.486C196.857 808.048 196.152 807.83 195.278 807.83C194.485 807.83 193.837 808.032 193.335 808.437C192.833 808.842 192.582 809.425 192.582 810.186C192.582 810.704 192.736 811.133 193.044 811.473C193.368 811.797 193.772 812.056 194.258 812.25C194.744 812.444 195.408 812.655 196.25 812.881C197.367 813.189 198.273 813.497 198.97 813.804C199.682 814.112 200.281 814.589 200.767 815.237C201.269 815.868 201.52 816.718 201.52 817.787C201.52 818.645 201.285 819.455 200.815 820.216C200.362 820.977 199.69 821.592 198.8 822.061C197.925 822.515 196.889 822.741 195.691 822.741ZM205.466 807.417C204.965 807.417 204.544 807.247 204.204 806.907C203.864 806.567 203.694 806.146 203.694 805.644C203.694 805.142 203.864 804.721 204.204 804.381C204.544 804.041 204.965 803.871 205.466 803.871C205.952 803.871 206.365 804.041 206.705 804.381C207.045 804.721 207.215 805.142 207.215 805.644C207.215 806.146 207.045 806.567 206.705 806.907C206.365 807.247 205.952 807.417 205.466 807.417ZM206.826 809.19V822.571H204.058V809.19H206.826ZM215.124 808.971C216.16 808.971 217.075 809.182 217.868 809.603C218.678 810.007 219.309 810.517 219.763 811.133V809.19H222.556V822.79C222.556 824.02 222.297 825.113 221.778 826.068C221.26 827.04 220.508 827.801 219.52 828.351C218.548 828.902 217.383 829.177 216.023 829.177C214.209 829.177 212.704 828.748 211.506 827.89C210.308 827.048 209.628 825.898 209.466 824.441H212.21C212.42 825.137 212.866 825.696 213.546 826.117C214.242 826.554 215.068 826.773 216.023 826.773C217.14 826.773 218.038 826.433 218.718 825.753C219.415 825.073 219.763 824.085 219.763 822.79V820.556C219.293 821.187 218.654 821.721 217.844 822.158C217.051 822.579 216.144 822.79 215.124 822.79C213.958 822.79 212.89 822.498 211.918 821.916C210.963 821.317 210.202 820.491 209.636 819.438C209.085 818.37 208.81 817.164 208.81 815.82C208.81 814.476 209.085 813.286 209.636 812.25C210.202 811.214 210.963 810.412 211.918 809.846C212.89 809.263 213.958 808.971 215.124 808.971ZM219.763 815.868C219.763 814.946 219.568 814.144 219.18 813.464C218.808 812.784 218.314 812.266 217.698 811.91C217.083 811.554 216.419 811.376 215.707 811.376C214.995 811.376 214.331 811.554 213.716 811.91C213.1 812.25 212.598 812.76 212.21 813.44C211.838 814.104 211.651 814.897 211.651 815.82C211.651 816.743 211.838 817.552 212.21 818.248C212.598 818.945 213.1 819.479 213.716 819.851C214.347 820.207 215.011 820.386 215.707 820.386C216.419 820.386 217.083 820.207 217.698 819.851C218.314 819.495 218.808 818.977 219.18 818.297C219.568 817.601 219.763 816.791 219.763 815.868ZM232.215 808.971C233.267 808.971 234.206 809.19 235.032 809.627C235.874 810.064 236.53 810.712 236.999 811.57C237.469 812.428 237.703 813.464 237.703 814.678V822.571H234.959V815.091C234.959 813.893 234.66 812.978 234.061 812.347C233.462 811.699 232.644 811.376 231.608 811.376C230.572 811.376 229.746 811.699 229.131 812.347C228.532 812.978 228.232 813.893 228.232 815.091V822.571H225.463V809.19H228.232V810.72C228.685 810.169 229.26 809.74 229.956 809.433C230.669 809.125 231.422 808.971 232.215 808.971ZM248.831 805.693V816.451C248.831 817.73 249.163 818.694 249.826 819.341C250.506 819.989 251.445 820.313 252.644 820.313C253.858 820.313 254.797 819.989 255.461 819.341C256.141 818.694 256.481 817.73 256.481 816.451V805.693H259.249V816.403C259.249 817.779 258.95 818.945 258.351 819.9C257.752 820.855 256.95 821.567 255.946 822.037C254.943 822.507 253.834 822.741 252.619 822.741C251.405 822.741 250.296 822.507 249.292 822.037C248.304 821.567 247.519 820.855 246.936 819.9C246.354 818.945 246.062 817.779 246.062 816.403V805.693H248.831ZM264.894 811.157C265.363 810.542 266.003 810.024 266.813 809.603C267.622 809.182 268.537 808.971 269.557 808.971C270.723 808.971 271.783 809.263 272.738 809.846C273.71 810.412 274.471 811.214 275.021 812.25C275.572 813.286 275.847 814.476 275.847 815.82C275.847 817.164 275.572 818.37 275.021 819.438C274.471 820.491 273.71 821.317 272.738 821.916C271.783 822.498 270.723 822.79 269.557 822.79C268.537 822.79 267.63 822.587 266.837 822.183C266.043 821.762 265.396 821.244 264.894 820.628V828.934H262.125V809.19H264.894V811.157ZM273.03 815.82C273.03 814.897 272.835 814.104 272.447 813.44C272.074 812.76 271.573 812.25 270.941 811.91C270.326 811.554 269.662 811.376 268.95 811.376C268.253 811.376 267.59 811.554 266.958 811.91C266.343 812.266 265.841 812.784 265.453 813.464C265.08 814.144 264.894 814.946 264.894 815.868C264.894 816.791 265.08 817.601 265.453 818.297C265.841 818.977 266.343 819.495 266.958 819.851C267.59 820.207 268.253 820.386 268.95 820.386C269.662 820.386 270.326 820.207 270.941 819.851C271.573 819.479 272.074 818.945 272.447 818.248C272.835 817.552 273.03 816.743 273.03 815.82Z" fill="white"/>
<path d="M43.7143 780.786H421.357V778.357H43.7143V780.786ZM439.571 799V828.143H442V799H439.571ZM421.357 846.357H43.7143V848.786H421.357V846.357ZM25.5 828.143V799H23.0714V828.143H25.5ZM43.7143 846.357C33.6548 846.357 25.5 838.202 25.5 828.143H23.0714C23.0714 839.543 32.3135 848.786 43.7143 848.786V846.357ZM439.571 828.143C439.571 838.202 431.417 846.357 421.357 846.357V848.786C432.758 848.786 442 839.543 442 828.143H439.571ZM421.357 780.786C431.417 780.786 439.571 788.94 439.571 799H442C442 787.599 432.758 778.357 421.357 778.357V780.786ZM43.7143 778.357C32.3135 778.357 23.0714 787.599 23.0714 799H25.5C25.5 788.94 33.6548 780.786 43.7143 780.786V778.357Z" fill="#A9BA9D"/>
</g>
<rect x="146.643" y="969.928" width="162.714" height="6.07143" rx="3.03571" fill="black"/>
<circle cx="197.929" cy="729.786" r="9.71429" fill="#A9BA9D"/>
<circle cx="261.071" cy="729.786" r="4.85714" fill="#E5EAE2"/>
<circle cx="231.928" cy="729.786" r="4.85714" fill="#E5EAE2"/>
<path d="M76.4973 530.651V535.974H69.2699V557.928H62.6253V535.974H55.3979V530.651H76.4973ZM77.7337 547.048C77.7337 544.821 78.1482 542.865 78.9772 541.181C79.832 539.497 80.9848 538.202 82.4355 537.295C83.8861 536.389 85.5052 535.935 87.2926 535.935C88.821 535.935 90.1551 536.246 91.2949 536.868C92.4606 537.49 93.3543 538.306 93.976 539.316V536.246H100.621V557.928H93.976V554.859C93.3284 555.869 92.4217 556.685 91.256 557.307C90.1162 557.928 88.7821 558.239 87.2537 558.239C85.4922 558.239 83.8861 557.786 82.4355 556.879C80.9848 555.947 79.832 554.639 78.9772 552.955C78.1482 551.245 77.7337 549.276 77.7337 547.048ZM93.976 547.087C93.976 545.429 93.5097 544.121 92.5772 543.163C91.6705 542.204 90.5566 541.725 89.2355 541.725C87.9143 541.725 86.7875 542.204 85.8549 543.163C84.9482 544.095 84.4949 545.391 84.4949 547.048C84.4949 548.706 84.9482 550.028 85.8549 551.012C86.7875 551.97 87.9143 552.45 89.2355 552.45C90.5566 552.45 91.6705 551.97 92.5772 551.012C93.5097 550.053 93.976 548.745 93.976 547.087ZM117.901 557.928L111.295 548.836V557.928H104.651V529.174H111.295V545.067L117.862 536.246H126.061L117.046 547.126L126.139 557.928H117.901ZM148.332 546.738C148.332 547.359 148.293 548.007 148.216 548.68H133.178C133.282 550.028 133.709 551.064 134.46 551.789C135.237 552.488 136.183 552.838 137.297 552.838C138.955 552.838 140.108 552.139 140.755 550.74H147.827C147.465 552.165 146.804 553.447 145.845 554.587C144.913 555.727 143.734 556.62 142.309 557.268C140.885 557.916 139.292 558.239 137.53 558.239C135.406 558.239 133.515 557.786 131.857 556.879C130.199 555.973 128.904 554.677 127.971 552.994C127.039 551.31 126.572 549.341 126.572 547.087C126.572 544.834 127.026 542.865 127.932 541.181C128.865 539.497 130.16 538.202 131.818 537.295C133.476 536.389 135.38 535.935 137.53 535.935C139.628 535.935 141.493 536.376 143.125 537.256C144.757 538.137 146.027 539.394 146.933 541.026C147.866 542.658 148.332 544.562 148.332 546.738ZM141.532 544.989C141.532 543.849 141.144 542.943 140.367 542.269C139.589 541.596 138.618 541.259 137.452 541.259C136.338 541.259 135.393 541.583 134.616 542.23C133.865 542.878 133.398 543.797 133.217 544.989H141.532ZM170.602 552.294V557.928H167.222C164.813 557.928 162.935 557.346 161.587 556.18C160.24 554.988 159.567 553.058 159.567 550.39V541.764H156.925V536.246H159.567V530.962H166.211V536.246H170.563V541.764H166.211V550.468C166.211 551.116 166.367 551.582 166.678 551.867C166.989 552.152 167.507 552.294 168.232 552.294H170.602ZM183.396 558.239C181.272 558.239 179.355 557.786 177.645 556.879C175.961 555.973 174.627 554.677 173.643 552.994C172.684 551.31 172.205 549.341 172.205 547.087C172.205 544.86 172.697 542.904 173.682 541.22C174.666 539.51 176.013 538.202 177.723 537.295C179.433 536.389 181.35 535.935 183.474 535.935C185.598 535.935 187.515 536.389 189.225 537.295C190.934 538.202 192.281 539.51 193.266 541.22C194.25 542.904 194.742 544.86 194.742 547.087C194.742 549.315 194.237 551.284 193.227 552.994C192.243 554.677 190.883 555.973 189.147 556.879C187.437 557.786 185.52 558.239 183.396 558.239ZM183.396 552.488C184.665 552.488 185.74 552.022 186.621 551.09C187.528 550.157 187.981 548.823 187.981 547.087C187.981 545.352 187.541 544.018 186.66 543.085C185.805 542.152 184.743 541.686 183.474 541.686C182.179 541.686 181.103 542.152 180.249 543.085C179.394 543.992 178.966 545.326 178.966 547.087C178.966 548.823 179.381 550.157 180.21 551.09C181.065 552.022 182.127 552.488 183.396 552.488ZM209.575 552.294V557.928H206.194C203.785 557.928 201.907 557.346 200.56 556.18C199.213 554.988 198.539 553.058 198.539 550.39V541.764H195.897V536.246H198.539V530.962H205.184V536.246H209.536V541.764H205.184V550.468C205.184 551.116 205.339 551.582 205.65 551.867C205.961 552.152 206.479 552.294 207.205 552.294H209.575ZM211.178 547.048C211.178 544.821 211.592 542.865 212.421 541.181C213.276 539.497 214.429 538.202 215.879 537.295C217.33 536.389 218.949 535.935 220.737 535.935C222.265 535.935 223.599 536.246 224.739 536.868C225.905 537.49 226.798 538.306 227.42 539.316V536.246H234.065V557.928H227.42V554.859C226.772 555.869 225.866 556.685 224.7 557.307C223.56 557.928 222.226 558.239 220.698 558.239C218.936 558.239 217.33 557.786 215.879 556.879C214.429 555.947 213.276 554.639 212.421 552.955C211.592 551.245 211.178 549.276 211.178 547.048ZM227.42 547.087C227.42 545.429 226.954 544.121 226.021 543.163C225.114 542.204 224.001 541.725 222.679 541.725C221.358 541.725 220.231 542.204 219.299 543.163C218.392 544.095 217.939 545.391 217.939 547.048C217.939 548.706 218.392 550.028 219.299 551.012C220.231 551.97 221.358 552.45 222.679 552.45C224.001 552.45 225.114 551.97 226.021 551.012C226.954 550.053 227.42 548.745 227.42 547.087ZM244.739 529.174V557.928H238.094V529.174H244.739ZM254.913 547.087C254.913 544.834 255.367 542.865 256.273 541.181C257.206 539.497 258.488 538.202 260.12 537.295C261.778 536.389 263.669 535.935 265.793 535.935C268.513 535.935 270.78 536.648 272.593 538.072C274.432 539.497 275.637 541.505 276.207 544.095H269.135C268.539 542.437 267.386 541.608 265.677 541.608C264.459 541.608 263.488 542.088 262.762 543.046C262.037 543.979 261.674 545.326 261.674 547.087C261.674 548.849 262.037 550.209 262.762 551.167C263.488 552.1 264.459 552.566 265.677 552.566C267.386 552.566 268.539 551.737 269.135 550.079H276.207C275.637 552.618 274.432 554.613 272.593 556.063C270.754 557.514 268.487 558.239 265.793 558.239C263.669 558.239 261.778 557.786 260.12 556.879C258.488 555.973 257.206 554.677 256.273 552.994C255.367 551.31 254.913 549.341 254.913 547.087ZM288.854 558.239C286.73 558.239 284.813 557.786 283.103 556.879C281.419 555.973 280.085 554.677 279.101 552.994C278.142 551.31 277.663 549.341 277.663 547.087C277.663 544.86 278.155 542.904 279.139 541.22C280.124 539.51 281.471 538.202 283.181 537.295C284.89 536.389 286.807 535.935 288.931 535.935C291.056 535.935 292.973 536.389 294.682 537.295C296.392 538.202 297.739 539.51 298.723 541.22C299.708 542.904 300.2 544.86 300.2 547.087C300.2 549.315 299.695 551.284 298.685 552.994C297.7 554.677 296.34 555.973 294.605 556.879C292.895 557.786 290.978 558.239 288.854 558.239ZM288.854 552.488C290.123 552.488 291.198 552.022 292.079 551.09C292.986 550.157 293.439 548.823 293.439 547.087C293.439 545.352 292.998 544.018 292.118 543.085C291.263 542.152 290.201 541.686 288.931 541.686C287.636 541.686 286.561 542.152 285.706 543.085C284.851 543.992 284.424 545.326 284.424 547.087C284.424 548.823 284.838 550.157 285.667 551.09C286.522 552.022 287.584 552.488 288.854 552.488ZM316.159 536.013C318.698 536.013 320.719 536.842 322.221 538.5C323.749 540.132 324.514 542.386 324.514 545.261V557.928H317.908V546.155C317.908 544.704 317.532 543.577 316.781 542.774C316.03 541.971 315.02 541.57 313.75 541.57C312.481 541.57 311.471 541.971 310.719 542.774C309.968 543.577 309.593 544.704 309.593 546.155V557.928H302.948V536.246H309.593V539.122C310.266 538.163 311.173 537.412 312.313 536.868C313.452 536.298 314.735 536.013 316.159 536.013ZM340.438 552.294V557.928H337.058C334.649 557.928 332.771 557.346 331.424 556.18C330.076 554.988 329.403 553.058 329.403 550.39V541.764H326.761V536.246H329.403V530.962H336.048V536.246H340.4V541.764H336.048V550.468C336.048 551.116 336.203 551.582 336.514 551.867C336.825 552.152 337.343 552.294 338.068 552.294H340.438ZM350.007 539.86C350.784 538.668 351.756 537.736 352.921 537.062C354.087 536.363 355.382 536.013 356.807 536.013V543.046H354.981C353.323 543.046 352.079 543.409 351.25 544.134C350.421 544.834 350.007 546.077 350.007 547.864V557.928H343.362V536.246H350.007V539.86ZM369.076 558.239C366.951 558.239 365.034 557.786 363.325 556.879C361.641 555.973 360.307 554.677 359.322 552.994C358.364 551.31 357.885 549.341 357.885 547.087C357.885 544.86 358.377 542.904 359.361 541.22C360.346 539.51 361.693 538.202 363.402 537.295C365.112 536.389 367.029 535.935 369.153 535.935C371.277 535.935 373.194 536.389 374.904 537.295C376.614 538.202 377.961 539.51 378.945 541.22C379.93 542.904 380.422 544.86 380.422 547.087C380.422 549.315 379.917 551.284 378.906 552.994C377.922 554.677 376.562 555.973 374.826 556.879C373.117 557.786 371.2 558.239 369.076 558.239ZM369.076 552.488C370.345 552.488 371.42 552.022 372.301 551.09C373.207 550.157 373.661 548.823 373.661 547.087C373.661 545.352 373.22 544.018 372.34 543.085C371.485 542.152 370.423 541.686 369.153 541.686C367.858 541.686 366.783 542.152 365.928 543.085C365.073 543.992 364.646 545.326 364.646 547.087C364.646 548.823 365.06 550.157 365.889 551.09C366.744 552.022 367.806 552.488 369.076 552.488ZM389.814 529.174V557.928H383.17V529.174H389.814ZM105.195 606.239C103.071 606.239 101.154 605.786 99.4444 604.879C97.7606 603.973 96.4265 602.677 95.4421 600.994C94.4837 599.31 94.0044 597.341 94.0044 595.087C94.0044 592.86 94.4966 590.904 95.481 589.22C96.4654 587.51 97.8124 586.202 99.5221 585.295C101.232 584.389 103.149 583.935 105.273 583.935C107.397 583.935 109.314 584.389 111.024 585.295C112.734 586.202 114.081 587.51 115.065 589.22C116.049 590.904 116.542 592.86 116.542 595.087C116.542 597.315 116.036 599.284 115.026 600.994C114.042 602.677 112.682 603.973 110.946 604.879C109.236 605.786 107.319 606.239 105.195 606.239ZM105.195 600.488C106.465 600.488 107.54 600.022 108.42 599.09C109.327 598.157 109.78 596.823 109.78 595.087C109.78 593.352 109.34 592.018 108.459 591.085C107.604 590.152 106.542 589.686 105.273 589.686C103.978 589.686 102.903 590.152 102.048 591.085C101.193 591.992 100.766 593.326 100.766 595.087C100.766 596.823 101.18 598.157 102.009 599.09C102.864 600.022 103.926 600.488 105.195 600.488ZM130.169 589.764H126.595V605.928H119.95V589.764H117.541V584.246H119.95V583.624C119.95 580.956 120.714 578.936 122.243 577.563C123.771 576.164 126.012 575.464 128.965 575.464C129.457 575.464 129.82 575.477 130.053 575.503V581.138C128.784 581.06 127.89 581.241 127.372 581.682C126.854 582.122 126.595 582.912 126.595 584.052V584.246H130.169V589.764ZM162.12 584.246L148.52 616.226H141.371L146.344 605.19L137.524 584.246H144.946L149.958 597.807L154.932 584.246H162.12ZM173.616 606.239C171.492 606.239 169.575 605.786 167.865 604.879C166.181 603.973 164.847 602.677 163.863 600.994C162.904 599.31 162.425 597.341 162.425 595.087C162.425 592.86 162.917 590.904 163.901 589.22C164.886 587.51 166.233 586.202 167.943 585.295C169.652 584.389 171.569 583.935 173.693 583.935C175.818 583.935 177.735 584.389 179.444 585.295C181.154 586.202 182.501 587.51 183.485 589.22C184.47 590.904 184.962 592.86 184.962 595.087C184.962 597.315 184.457 599.284 183.447 600.994C182.462 602.677 181.102 603.973 179.367 604.879C177.657 605.786 175.74 606.239 173.616 606.239ZM173.616 600.488C174.885 600.488 175.96 600.022 176.841 599.09C177.748 598.157 178.201 596.823 178.201 595.087C178.201 593.352 177.76 592.018 176.88 591.085C176.025 590.152 174.963 589.686 173.693 589.686C172.398 589.686 171.323 590.152 170.468 591.085C169.613 591.992 169.186 593.326 169.186 595.087C169.186 596.823 169.6 598.157 170.429 599.09C171.284 600.022 172.346 600.488 173.616 600.488ZM209.12 584.246V605.928H202.476V602.975C201.802 603.934 200.883 604.711 199.717 605.307C198.577 605.877 197.308 606.162 195.909 606.162C194.251 606.162 192.787 605.799 191.518 605.074C190.249 604.322 189.264 603.247 188.565 601.848C187.865 600.45 187.516 598.805 187.516 596.914V584.246H194.121V596.02C194.121 597.471 194.497 598.597 195.248 599.4C195.999 600.204 197.01 600.605 198.279 600.605C199.574 600.605 200.598 600.204 201.349 599.4C202.1 598.597 202.476 597.471 202.476 596.02V584.246H209.12ZM219.76 587.86C220.538 586.668 221.509 585.736 222.675 585.062C223.84 584.363 225.136 584.013 226.56 584.013V591.046H224.734C223.076 591.046 221.833 591.409 221.004 592.134C220.175 592.834 219.76 594.077 219.76 595.864V605.928H213.116V584.246H219.76V587.86ZM235.095 595.048C235.095 592.821 235.51 590.865 236.339 589.181C237.194 587.497 238.346 586.202 239.797 585.295C241.248 584.389 242.867 583.935 244.654 583.935C246.183 583.935 247.517 584.246 248.656 584.868C249.822 585.49 250.716 586.306 251.338 587.316V584.246H257.982V605.928H251.338V602.859C250.69 603.869 249.783 604.685 248.618 605.307C247.478 605.928 246.144 606.239 244.615 606.239C242.854 606.239 241.248 605.786 239.797 604.879C238.346 603.947 237.194 602.639 236.339 600.955C235.51 599.245 235.095 597.276 235.095 595.048ZM251.338 595.087C251.338 593.429 250.871 592.121 249.939 591.163C249.032 590.204 247.918 589.725 246.597 589.725C245.276 589.725 244.149 590.204 243.216 591.163C242.31 592.095 241.856 593.391 241.856 595.048C241.856 596.706 242.31 598.028 243.216 599.012C244.149 599.97 245.276 600.45 246.597 600.45C247.918 600.45 249.032 599.97 249.939 599.012C250.871 598.053 251.338 596.745 251.338 595.087ZM270.833 606.239C268.942 606.239 267.258 605.916 265.781 605.268C264.305 604.62 263.139 603.74 262.284 602.626C261.429 601.486 260.95 600.216 260.846 598.818H267.413C267.491 599.569 267.841 600.178 268.462 600.644C269.084 601.11 269.848 601.343 270.755 601.343C271.584 601.343 272.219 601.188 272.659 600.877C273.125 600.54 273.358 600.113 273.358 599.595C273.358 598.973 273.035 598.52 272.387 598.235C271.739 597.924 270.69 597.587 269.24 597.224C267.685 596.862 266.39 596.486 265.354 596.098C264.318 595.683 263.424 595.048 262.673 594.194C261.921 593.313 261.546 592.134 261.546 590.658C261.546 589.414 261.883 588.287 262.556 587.277C263.256 586.241 264.266 585.425 265.587 584.829C266.934 584.233 268.527 583.935 270.366 583.935C273.086 583.935 275.224 584.609 276.778 585.956C278.358 587.303 279.265 589.09 279.498 591.318H273.358C273.255 590.567 272.918 589.971 272.348 589.531C271.804 589.09 271.079 588.87 270.172 588.87C269.395 588.87 268.799 589.026 268.385 589.336C267.97 589.621 267.763 590.023 267.763 590.541C267.763 591.163 268.087 591.629 268.734 591.94C269.408 592.251 270.444 592.562 271.843 592.872C273.449 593.287 274.757 593.701 275.768 594.116C276.778 594.504 277.659 595.152 278.41 596.059C279.187 596.94 279.588 598.131 279.614 599.634C279.614 600.903 279.252 602.043 278.526 603.053C277.827 604.037 276.804 604.815 275.457 605.384C274.136 605.954 272.594 606.239 270.833 606.239ZM291.723 606.239C289.832 606.239 288.148 605.916 286.672 605.268C285.195 604.62 284.029 603.74 283.174 602.626C282.32 601.486 281.84 600.216 281.737 598.818H288.304C288.381 599.569 288.731 600.178 289.353 600.644C289.974 601.11 290.739 601.343 291.645 601.343C292.474 601.343 293.109 601.188 293.549 600.877C294.016 600.54 294.249 600.113 294.249 599.595C294.249 598.973 293.925 598.52 293.277 598.235C292.63 597.924 291.58 597.587 290.13 597.224C288.576 596.862 287.28 596.486 286.244 596.098C285.208 595.683 284.314 595.048 283.563 594.194C282.812 593.313 282.436 592.134 282.436 590.658C282.436 589.414 282.773 588.287 283.446 587.277C284.146 586.241 285.156 585.425 286.477 584.829C287.824 584.233 289.417 583.935 291.257 583.935C293.977 583.935 296.114 584.609 297.668 585.956C299.248 587.303 300.155 589.09 300.388 591.318H294.249C294.145 590.567 293.808 589.971 293.238 589.531C292.694 589.09 291.969 588.87 291.062 588.87C290.285 588.87 289.689 589.026 289.275 589.336C288.86 589.621 288.653 590.023 288.653 590.541C288.653 591.163 288.977 591.629 289.625 591.94C290.298 592.251 291.334 592.562 292.733 592.872C294.339 593.287 295.648 593.701 296.658 594.116C297.668 594.504 298.549 595.152 299.3 596.059C300.077 596.94 300.479 598.131 300.505 599.634C300.505 600.903 300.142 602.043 299.417 603.053C298.717 604.037 297.694 604.815 296.347 605.384C295.026 605.954 293.484 606.239 291.723 606.239ZM324.231 594.738C324.231 595.359 324.193 596.007 324.115 596.68H309.077C309.181 598.028 309.608 599.064 310.359 599.789C311.137 600.488 312.082 600.838 313.196 600.838C314.854 600.838 316.007 600.139 316.654 598.74H323.726C323.364 600.165 322.703 601.447 321.745 602.587C320.812 603.727 319.633 604.62 318.209 605.268C316.784 605.916 315.191 606.239 313.429 606.239C311.305 606.239 309.414 605.786 307.756 604.879C306.098 603.973 304.803 602.677 303.87 600.994C302.938 599.31 302.471 597.341 302.471 595.087C302.471 592.834 302.925 590.865 303.831 589.181C304.764 587.497 306.059 586.202 307.717 585.295C309.375 584.389 311.279 583.935 313.429 583.935C315.527 583.935 317.393 584.376 319.025 585.256C320.657 586.137 321.926 587.394 322.833 589.026C323.765 590.658 324.231 592.562 324.231 594.738ZM317.431 592.989C317.431 591.849 317.043 590.943 316.266 590.269C315.489 589.596 314.517 589.259 313.351 589.259C312.238 589.259 311.292 589.583 310.515 590.23C309.764 590.878 309.297 591.797 309.116 592.989H317.431ZM339.044 600.294V605.928H335.664C333.255 605.928 331.376 605.346 330.029 604.18C328.682 602.988 328.009 601.058 328.009 598.39V589.764H325.367V584.246H328.009V578.962H334.653V584.246H339.005V589.764H334.653V598.468C334.653 599.116 334.809 599.582 335.12 599.867C335.431 600.152 335.949 600.294 336.674 600.294H339.044ZM350.789 606.239C348.898 606.239 347.214 605.916 345.737 605.268C344.261 604.62 343.095 603.74 342.24 602.626C341.385 601.486 340.906 600.216 340.803 598.818H347.369C347.447 599.569 347.797 600.178 348.419 600.644C349.04 601.11 349.804 601.343 350.711 601.343C351.54 601.343 352.175 601.188 352.615 600.877C353.081 600.54 353.315 600.113 353.315 599.595C353.315 598.973 352.991 598.52 352.343 598.235C351.695 597.924 350.646 597.587 349.196 597.224C347.641 596.862 346.346 596.486 345.31 596.098C344.274 595.683 343.38 595.048 342.629 594.194C341.878 593.313 341.502 592.134 341.502 590.658C341.502 589.414 341.839 588.287 342.512 587.277C343.212 586.241 344.222 585.425 345.543 584.829C346.89 584.233 348.483 583.935 350.323 583.935C353.043 583.935 355.18 584.609 356.734 585.956C358.314 587.303 359.221 589.09 359.454 591.318H353.315C353.211 590.567 352.874 589.971 352.304 589.531C351.76 589.09 351.035 588.87 350.128 588.87C349.351 588.87 348.755 589.026 348.341 589.336C347.926 589.621 347.719 590.023 347.719 590.541C347.719 591.163 348.043 591.629 348.691 591.94C349.364 592.251 350.4 592.562 351.799 592.872C353.405 593.287 354.713 593.701 355.724 594.116C356.734 594.504 357.615 595.152 358.366 596.059C359.143 596.94 359.545 598.131 359.571 599.634C359.571 600.903 359.208 602.043 358.483 603.053C357.783 604.037 356.76 604.815 355.413 605.384C354.092 605.954 352.55 606.239 350.789 606.239Z" fill="white"/>
<path d="M85.2806 644.375C85.2806 643.028 85.572 641.83 86.1548 640.781C86.7377 639.719 87.5472 638.896 88.5834 638.314C89.6326 637.718 90.8177 637.42 92.1388 637.42C93.7579 637.42 95.1438 637.847 96.2966 638.702C97.4493 639.557 98.22 640.723 98.6086 642.199H94.956C94.684 641.629 94.2954 641.195 93.7903 640.898C93.2981 640.6 92.7347 640.451 92.1 640.451C91.0768 640.451 90.2478 640.807 89.6131 641.519C88.9785 642.232 88.6611 643.184 88.6611 644.375C88.6611 645.567 88.9785 646.519 89.6131 647.231C90.2478 647.944 91.0768 648.3 92.1 648.3C92.7347 648.3 93.2981 648.151 93.7903 647.853C94.2954 647.555 94.684 647.121 94.956 646.551H98.6086C98.22 648.028 97.4493 649.194 96.2966 650.048C95.1438 650.89 93.7579 651.311 92.1388 651.311C90.8177 651.311 89.6326 651.02 88.5834 650.437C87.5472 649.841 86.7377 649.019 86.1548 647.97C85.572 646.92 85.2806 645.722 85.2806 644.375ZM103.965 642.18C104.354 641.584 104.84 641.118 105.423 640.781C106.005 640.431 106.653 640.256 107.365 640.256V643.773H106.452C105.623 643.773 105.002 643.954 104.587 644.317C104.173 644.667 103.965 645.288 103.965 646.182V651.214H100.643V640.373H103.965V642.18ZM119.173 645.619C119.173 645.93 119.153 646.253 119.115 646.59H111.596C111.647 647.264 111.861 647.782 112.237 648.144C112.625 648.494 113.098 648.669 113.655 648.669C114.484 648.669 115.06 648.319 115.384 647.62H118.92C118.739 648.332 118.409 648.973 117.929 649.543C117.463 650.113 116.874 650.56 116.161 650.884C115.449 651.208 114.652 651.37 113.772 651.37C112.71 651.37 111.764 651.143 110.935 650.69C110.106 650.236 109.459 649.589 108.992 648.747C108.526 647.905 108.293 646.92 108.293 645.794C108.293 644.667 108.519 643.682 108.973 642.84C109.439 641.998 110.087 641.351 110.916 640.898C111.745 640.444 112.697 640.218 113.772 640.218C114.821 640.218 115.753 640.438 116.569 640.878C117.385 641.318 118.02 641.947 118.473 642.763C118.94 643.579 119.173 644.531 119.173 645.619ZM115.773 644.744C115.773 644.174 115.579 643.721 115.19 643.384C114.801 643.048 114.316 642.879 113.733 642.879C113.176 642.879 112.703 643.041 112.315 643.365C111.939 643.689 111.706 644.149 111.615 644.744H115.773ZM120.265 645.774C120.265 644.66 120.472 643.682 120.887 642.84C121.314 641.998 121.89 641.351 122.616 640.898C123.341 640.444 124.151 640.218 125.044 640.218C125.809 640.218 126.476 640.373 127.045 640.684C127.628 640.995 128.075 641.403 128.386 641.908V640.373H131.708V651.214H128.386V649.679C128.062 650.184 127.609 650.592 127.026 650.903C126.456 651.214 125.789 651.37 125.025 651.37C124.144 651.37 123.341 651.143 122.616 650.69C121.89 650.223 121.314 649.569 120.887 648.727C120.472 647.872 120.265 646.888 120.265 645.774ZM128.386 645.794C128.386 644.965 128.153 644.31 127.687 643.831C127.233 643.352 126.676 643.112 126.016 643.112C125.355 643.112 124.792 643.352 124.325 643.831C123.872 644.298 123.645 644.945 123.645 645.774C123.645 646.603 123.872 647.264 124.325 647.756C124.792 648.235 125.355 648.475 126.016 648.475C126.676 648.475 127.233 648.235 127.687 647.756C128.153 647.277 128.386 646.622 128.386 645.794ZM140.154 648.397V651.214H138.464C137.259 651.214 136.32 650.923 135.647 650.34C134.973 649.744 134.636 648.779 134.636 647.445V643.132H133.315V640.373H134.636V637.731H137.959V640.373H140.135V643.132H137.959V647.484C137.959 647.808 138.036 648.041 138.192 648.183C138.347 648.326 138.606 648.397 138.969 648.397H140.154ZM152.224 645.619C152.224 645.93 152.205 646.253 152.166 646.59H144.647C144.699 647.264 144.913 647.782 145.288 648.144C145.677 648.494 146.149 648.669 146.706 648.669C147.535 648.669 148.112 648.319 148.436 647.62H151.972C151.79 648.332 151.46 648.973 150.981 649.543C150.514 650.113 149.925 650.56 149.213 650.884C148.5 651.208 147.704 651.37 146.823 651.37C145.761 651.37 144.815 651.143 143.986 650.69C143.157 650.236 142.51 649.589 142.044 648.747C141.577 647.905 141.344 646.92 141.344 645.794C141.344 644.667 141.571 643.682 142.024 642.84C142.49 641.998 143.138 641.351 143.967 640.898C144.796 640.444 145.748 640.218 146.823 640.218C147.872 640.218 148.805 640.438 149.621 640.878C150.437 641.318 151.071 641.947 151.525 642.763C151.991 643.579 152.224 644.531 152.224 645.619ZM148.824 644.744C148.824 644.174 148.63 643.721 148.241 643.384C147.853 643.048 147.367 642.879 146.784 642.879C146.227 642.879 145.754 643.041 145.366 643.365C144.99 643.689 144.757 644.149 144.666 644.744H148.824ZM169.168 640.373L162.368 656.363H158.793L161.28 650.845L156.87 640.373H160.581L163.087 647.154L165.574 640.373H169.168ZM175.305 651.37C174.242 651.37 173.284 651.143 172.429 650.69C171.587 650.236 170.92 649.589 170.428 648.747C169.949 647.905 169.709 646.92 169.709 645.794C169.709 644.68 169.955 643.702 170.447 642.86C170.94 642.005 171.613 641.351 172.468 640.898C173.323 640.444 174.281 640.218 175.343 640.218C176.405 640.218 177.364 640.444 178.219 640.898C179.074 641.351 179.747 642.005 180.239 642.86C180.732 643.702 180.978 644.68 180.978 645.794C180.978 646.907 180.725 647.892 180.22 648.747C179.728 649.589 179.048 650.236 178.18 650.69C177.325 651.143 176.367 651.37 175.305 651.37ZM175.305 648.494C175.939 648.494 176.477 648.261 176.917 647.795C177.37 647.328 177.597 646.661 177.597 645.794C177.597 644.926 177.377 644.259 176.937 643.792C176.509 643.326 175.978 643.093 175.343 643.093C174.696 643.093 174.158 643.326 173.731 643.792C173.303 644.246 173.09 644.913 173.09 645.794C173.09 646.661 173.297 647.328 173.711 647.795C174.139 648.261 174.67 648.494 175.305 648.494ZM193.445 640.373V651.214H190.123V649.738C189.786 650.217 189.326 650.605 188.744 650.903C188.174 651.188 187.539 651.331 186.84 651.331C186.011 651.331 185.279 651.149 184.644 650.787C184.01 650.411 183.517 649.874 183.168 649.174C182.818 648.475 182.643 647.652 182.643 646.707V640.373H185.946V646.26C185.946 646.985 186.134 647.549 186.509 647.95C186.885 648.352 187.39 648.552 188.025 648.552C188.672 648.552 189.184 648.352 189.56 647.95C189.935 647.549 190.123 646.985 190.123 646.26V640.373H193.445ZM199.154 642.18C199.543 641.584 200.028 641.118 200.611 640.781C201.194 640.431 201.842 640.256 202.554 640.256V643.773H201.641C200.812 643.773 200.19 643.954 199.776 644.317C199.361 644.667 199.154 645.288 199.154 646.182V651.214H195.832V640.373H199.154V642.18ZM213.194 651.37C212.132 651.37 211.173 651.143 210.319 650.69C209.477 650.236 208.81 649.589 208.317 648.747C207.838 647.905 207.599 646.92 207.599 645.794C207.599 644.68 207.845 643.702 208.337 642.86C208.829 642.005 209.503 641.351 210.357 640.898C211.212 640.444 212.171 640.218 213.233 640.218C214.295 640.218 215.253 640.444 216.108 640.898C216.963 641.351 217.637 642.005 218.129 642.86C218.621 643.702 218.867 644.68 218.867 645.794C218.867 646.907 218.615 647.892 218.109 648.747C217.617 649.589 216.937 650.236 216.069 650.69C215.215 651.143 214.256 651.37 213.194 651.37ZM213.194 648.494C213.829 648.494 214.366 648.261 214.807 647.795C215.26 647.328 215.487 646.661 215.487 645.794C215.487 644.926 215.266 644.259 214.826 643.792C214.399 643.326 213.868 643.093 213.233 643.093C212.585 643.093 212.048 643.326 211.62 643.792C211.193 644.246 210.979 644.913 210.979 645.794C210.979 646.661 211.186 647.328 211.601 647.795C212.028 648.261 212.559 648.494 213.194 648.494ZM236.192 640.373L233.258 651.214H229.586L227.877 644.181L226.109 651.214H222.456L219.503 640.373H222.825L224.36 648.125L226.186 640.373H229.703L231.549 648.086L233.064 640.373H236.192ZM244.065 640.256C245.334 640.256 246.344 640.671 247.096 641.5C247.86 642.316 248.242 643.443 248.242 644.88V651.214H244.939V645.327C244.939 644.602 244.751 644.038 244.376 643.637C244 643.235 243.495 643.035 242.86 643.035C242.225 643.035 241.72 643.235 241.345 643.637C240.969 644.038 240.781 644.602 240.781 645.327V651.214H237.459V640.373H240.781V641.811C241.118 641.331 241.571 640.956 242.141 640.684C242.711 640.399 243.352 640.256 244.065 640.256ZM257.99 641.908C258.301 641.403 258.748 640.995 259.331 640.684C259.913 640.373 260.58 640.218 261.332 640.218C262.225 640.218 263.035 640.444 263.76 640.898C264.486 641.351 265.055 641.998 265.47 642.84C265.897 643.682 266.111 644.66 266.111 645.774C266.111 646.888 265.897 647.872 265.47 648.727C265.055 649.569 264.486 650.223 263.76 650.69C263.035 651.143 262.225 651.37 261.332 651.37C260.567 651.37 259.9 651.221 259.331 650.923C258.761 650.612 258.314 650.204 257.99 649.699V651.214H254.668V636.837H257.99V641.908ZM262.731 645.774C262.731 644.945 262.497 644.298 262.031 643.831C261.578 643.352 261.014 643.112 260.341 643.112C259.68 643.112 259.117 643.352 258.651 643.831C258.197 644.31 257.971 644.965 257.971 645.794C257.971 646.622 258.197 647.277 258.651 647.756C259.117 648.235 259.68 648.475 260.341 648.475C261.001 648.475 261.565 648.235 262.031 647.756C262.497 647.264 262.731 646.603 262.731 645.774ZM271.176 636.837V651.214H267.854V636.837H271.176ZM278.519 651.37C277.457 651.37 276.498 651.143 275.643 650.69C274.801 650.236 274.134 649.589 273.642 648.747C273.163 647.905 272.923 646.92 272.923 645.794C272.923 644.68 273.169 643.702 273.662 642.86C274.154 642.005 274.827 641.351 275.682 640.898C276.537 640.444 277.496 640.218 278.558 640.218C279.62 640.218 280.578 640.444 281.433 640.898C282.288 641.351 282.961 642.005 283.454 642.86C283.946 643.702 284.192 644.68 284.192 645.794C284.192 646.907 283.939 647.892 283.434 648.747C282.942 649.589 282.262 650.236 281.394 650.69C280.539 651.143 279.581 651.37 278.519 651.37ZM278.519 648.494C279.153 648.494 279.691 648.261 280.131 647.795C280.585 647.328 280.811 646.661 280.811 645.794C280.811 644.926 280.591 644.259 280.151 643.792C279.723 643.326 279.192 643.093 278.558 643.093C277.91 643.093 277.373 643.326 276.945 643.792C276.518 644.246 276.304 644.913 276.304 645.794C276.304 646.661 276.511 647.328 276.926 647.795C277.353 648.261 277.884 648.494 278.519 648.494ZM285.294 645.794C285.294 644.667 285.521 643.682 285.974 642.84C286.44 641.998 287.081 641.351 287.897 640.898C288.726 640.444 289.672 640.218 290.734 640.218C292.094 640.218 293.227 640.574 294.134 641.286C295.054 641.998 295.656 643.002 295.941 644.298H292.405C292.107 643.469 291.53 643.054 290.676 643.054C290.067 643.054 289.581 643.294 289.218 643.773C288.856 644.239 288.674 644.913 288.674 645.794C288.674 646.674 288.856 647.354 289.218 647.834C289.581 648.3 290.067 648.533 290.676 648.533C291.53 648.533 292.107 648.118 292.405 647.29H295.941C295.656 648.559 295.054 649.556 294.134 650.282C293.214 651.007 292.081 651.37 290.734 651.37C289.672 651.37 288.726 651.143 287.897 650.69C287.081 650.236 286.44 649.589 285.974 648.747C285.521 647.905 285.294 646.92 285.294 645.794ZM304.343 651.214L301.04 646.668V651.214H297.718V636.837H301.04V644.783L304.324 640.373H308.423L303.916 645.813L308.462 651.214H304.343ZM309.067 645.794C309.067 644.667 309.294 643.682 309.747 642.84C310.214 641.998 310.855 641.351 311.671 640.898C312.5 640.444 313.445 640.218 314.507 640.218C315.867 640.218 317.001 640.574 317.907 641.286C318.827 641.998 319.429 643.002 319.714 644.298H316.178C315.88 643.469 315.304 643.054 314.449 643.054C313.84 643.054 313.355 643.294 312.992 643.773C312.629 644.239 312.448 644.913 312.448 645.794C312.448 646.674 312.629 647.354 312.992 647.834C313.355 648.3 313.84 648.533 314.449 648.533C315.304 648.533 315.88 648.118 316.178 647.29H319.714C319.429 648.559 318.827 649.556 317.907 650.282C316.988 651.007 315.854 651.37 314.507 651.37C313.445 651.37 312.5 651.143 311.671 650.69C310.855 650.236 310.214 649.589 309.747 648.747C309.294 647.905 309.067 646.92 309.067 645.794ZM328.155 640.256C329.399 640.256 330.396 640.671 331.147 641.5C331.899 642.316 332.274 643.443 332.274 644.88V651.214H328.971V645.327C328.971 644.602 328.784 644.038 328.408 643.637C328.032 643.235 327.527 643.035 326.892 643.035C326.258 643.035 325.753 643.235 325.377 643.637C325.001 644.038 324.814 644.602 324.814 645.327V651.214H321.491V636.837H324.814V641.83C325.15 641.351 325.61 640.969 326.193 640.684C326.776 640.399 327.43 640.256 328.155 640.256ZM333.922 645.774C333.922 644.66 334.13 643.682 334.544 642.84C334.971 641.998 335.548 641.351 336.273 640.898C336.998 640.444 337.808 640.218 338.702 640.218C339.466 640.218 340.133 640.373 340.703 640.684C341.286 640.995 341.733 641.403 342.043 641.908V640.373H345.366V651.214H342.043V649.679C341.72 650.184 341.266 650.592 340.683 650.903C340.114 651.214 339.446 651.37 338.682 651.37C337.802 651.37 336.998 651.143 336.273 650.69C335.548 650.223 334.971 649.569 334.544 648.727C334.13 647.872 333.922 646.888 333.922 645.774ZM342.043 645.794C342.043 644.965 341.81 644.31 341.344 643.831C340.891 643.352 340.334 643.112 339.673 643.112C339.013 643.112 338.449 643.352 337.983 643.831C337.53 644.298 337.303 644.945 337.303 645.774C337.303 646.603 337.53 647.264 337.983 647.756C338.449 648.235 339.013 648.475 339.673 648.475C340.334 648.475 340.891 648.235 341.344 647.756C341.81 647.277 342.043 646.622 342.043 645.794ZM349.44 639.246C348.857 639.246 348.378 639.078 348.002 638.741C347.64 638.391 347.458 637.964 347.458 637.459C347.458 636.941 347.64 636.513 348.002 636.176C348.378 635.827 348.857 635.652 349.44 635.652C350.01 635.652 350.476 635.827 350.839 636.176C351.215 636.513 351.402 636.941 351.402 637.459C351.402 637.964 351.215 638.391 350.839 638.741C350.476 639.078 350.01 639.246 349.44 639.246ZM351.092 640.373V651.214H347.769V640.373H351.092ZM360.105 640.256C361.374 640.256 362.384 640.671 363.136 641.5C363.9 642.316 364.282 643.443 364.282 644.88V651.214H360.979V645.327C360.979 644.602 360.791 644.038 360.416 643.637C360.04 643.235 359.535 643.035 358.9 643.035C358.266 643.035 357.76 643.235 357.385 643.637C357.009 644.038 356.821 644.602 356.821 645.327V651.214H353.499V640.373H356.821V641.811C357.158 641.331 357.612 640.956 358.181 640.684C358.751 640.399 359.392 640.256 360.105 640.256ZM86.0846 674.774C86.0846 673.66 86.2919 672.682 86.7064 671.84C87.1338 670.998 87.7102 670.351 88.4355 669.898C89.1608 669.444 89.9704 669.218 90.8641 669.218C91.6283 669.218 92.2953 669.373 92.8652 669.684C93.4481 669.995 93.8949 670.403 94.2058 670.908V669.373H97.5281V680.214H94.2058V678.679C93.882 679.184 93.4287 679.592 92.8458 679.903C92.2759 680.214 91.6088 680.37 90.8446 680.37C89.9639 680.37 89.1608 680.143 88.4355 679.69C87.7102 679.223 87.1338 678.569 86.7064 677.727C86.2919 676.872 86.0846 675.888 86.0846 674.774ZM94.2058 674.794C94.2058 673.965 93.9726 673.31 93.5064 672.831C93.053 672.352 92.4961 672.112 91.8355 672.112C91.1749 672.112 90.6115 672.352 90.1452 672.831C89.6919 673.298 89.4652 673.945 89.4652 674.774C89.4652 675.603 89.6919 676.264 90.1452 676.756C90.6115 677.235 91.1749 677.475 91.8355 677.475C92.4961 677.475 93.053 677.235 93.5064 676.756C93.9726 676.277 94.2058 675.622 94.2058 674.794ZM106.537 669.256C107.807 669.256 108.817 669.671 109.568 670.5C110.332 671.316 110.714 672.443 110.714 673.88V680.214H107.412V674.327C107.412 673.602 107.224 673.038 106.848 672.637C106.473 672.235 105.967 672.035 105.333 672.035C104.698 672.035 104.193 672.235 103.817 672.637C103.442 673.038 103.254 673.602 103.254 674.327V680.214H99.9316V669.373H103.254V670.811C103.591 670.331 104.044 669.956 104.614 669.684C105.184 669.399 105.825 669.256 106.537 669.256ZM112.363 674.774C112.363 673.66 112.57 672.682 112.984 671.84C113.412 670.998 113.988 670.351 114.713 669.898C115.439 669.444 116.248 669.218 117.142 669.218C117.854 669.218 118.502 669.366 119.085 669.664C119.681 669.962 120.147 670.364 120.484 670.869V665.837H123.806V680.214H120.484V678.66C120.173 679.178 119.726 679.592 119.143 679.903C118.573 680.214 117.906 680.37 117.142 680.37C116.248 680.37 115.439 680.143 114.713 679.69C113.988 679.223 113.412 678.569 112.984 677.727C112.57 676.872 112.363 675.888 112.363 674.774ZM120.484 674.794C120.484 673.965 120.251 673.31 119.784 672.831C119.331 672.352 118.774 672.112 118.113 672.112C117.453 672.112 116.889 672.352 116.423 672.831C115.97 673.298 115.743 673.945 115.743 674.774C115.743 675.603 115.97 676.264 116.423 676.756C116.889 677.235 117.453 677.475 118.113 677.475C118.774 677.475 119.331 677.235 119.784 676.756C120.251 676.277 120.484 675.622 120.484 674.794ZM133.649 670.908C133.96 670.403 134.407 669.995 134.99 669.684C135.572 669.373 136.239 669.218 136.991 669.218C137.884 669.218 138.694 669.444 139.419 669.898C140.145 670.351 140.715 670.998 141.129 671.84C141.556 672.682 141.77 673.66 141.77 674.774C141.77 675.888 141.556 676.872 141.129 677.727C140.715 678.569 140.145 679.223 139.419 679.69C138.694 680.143 137.884 680.37 136.991 680.37C136.227 680.37 135.559 680.221 134.99 679.923C134.42 679.612 133.973 679.204 133.649 678.699V680.214H130.327V665.837H133.649V670.908ZM138.39 674.774C138.39 673.945 138.156 673.298 137.69 672.831C137.237 672.352 136.673 672.112 136 672.112C135.339 672.112 134.776 672.352 134.31 672.831C133.856 673.31 133.63 673.965 133.63 674.794C133.63 675.622 133.856 676.277 134.31 676.756C134.776 677.235 135.339 677.475 136 677.475C136.66 677.475 137.224 677.235 137.69 676.756C138.156 676.264 138.39 675.603 138.39 674.774ZM153.733 674.619C153.733 674.93 153.713 675.253 153.674 675.59H146.155C146.207 676.264 146.421 676.782 146.797 677.144C147.185 677.494 147.658 677.669 148.215 677.669C149.044 677.669 149.62 677.319 149.944 676.62H153.48C153.299 677.332 152.968 677.973 152.489 678.543C152.023 679.113 151.433 679.56 150.721 679.884C150.009 680.208 149.212 680.37 148.331 680.37C147.269 680.37 146.324 680.143 145.495 679.69C144.666 679.236 144.018 678.589 143.552 677.747C143.086 676.905 142.853 675.92 142.853 674.794C142.853 673.667 143.079 672.682 143.533 671.84C143.999 670.998 144.646 670.351 145.475 669.898C146.304 669.444 147.256 669.218 148.331 669.218C149.381 669.218 150.313 669.438 151.129 669.878C151.945 670.318 152.58 670.947 153.033 671.763C153.499 672.579 153.733 673.531 153.733 674.619ZM150.333 673.744C150.333 673.174 150.138 672.721 149.75 672.384C149.361 672.048 148.875 671.879 148.293 671.879C147.736 671.879 147.263 672.041 146.874 672.365C146.499 672.689 146.265 673.149 146.175 673.744H150.333ZM154.825 674.794C154.825 673.667 155.051 672.682 155.505 671.84C155.971 670.998 156.612 670.351 157.428 669.898C158.257 669.444 159.203 669.218 160.265 669.218C161.625 669.218 162.758 669.574 163.665 670.286C164.584 670.998 165.187 672.002 165.471 673.298H161.935C161.638 672.469 161.061 672.054 160.206 672.054C159.598 672.054 159.112 672.294 158.749 672.773C158.387 673.239 158.205 673.913 158.205 674.794C158.205 675.674 158.387 676.354 158.749 676.834C159.112 677.3 159.598 677.533 160.206 677.533C161.061 677.533 161.638 677.118 161.935 676.29H165.471C165.187 677.559 164.584 678.556 163.665 679.282C162.745 680.007 161.612 680.37 160.265 680.37C159.203 680.37 158.257 680.143 157.428 679.69C156.612 679.236 155.971 678.589 155.505 677.747C155.051 676.905 154.825 675.92 154.825 674.794ZM172.183 680.37C171.121 680.37 170.163 680.143 169.308 679.69C168.466 679.236 167.799 678.589 167.307 677.747C166.828 676.905 166.588 675.92 166.588 674.794C166.588 673.68 166.834 672.702 167.326 671.86C167.818 671.005 168.492 670.351 169.347 669.898C170.202 669.444 171.16 669.218 172.222 669.218C173.284 669.218 174.243 669.444 175.098 669.898C175.953 670.351 176.626 671.005 177.118 671.86C177.61 672.702 177.857 673.68 177.857 674.794C177.857 675.907 177.604 676.892 177.099 677.747C176.607 678.589 175.927 679.236 175.059 679.69C174.204 680.143 173.246 680.37 172.183 680.37ZM172.183 677.494C172.818 677.494 173.356 677.261 173.796 676.795C174.249 676.328 174.476 675.661 174.476 674.794C174.476 673.926 174.256 673.259 173.815 672.792C173.388 672.326 172.857 672.093 172.222 672.093C171.575 672.093 171.037 672.326 170.61 672.792C170.182 673.246 169.969 673.913 169.969 674.794C169.969 675.661 170.176 676.328 170.59 676.795C171.018 677.261 171.549 677.494 172.183 677.494ZM193.452 669.256C194.799 669.256 195.868 669.664 196.658 670.48C197.461 671.296 197.863 672.43 197.863 673.88V680.214H194.56V674.327C194.56 673.628 194.372 673.09 193.996 672.715C193.634 672.326 193.128 672.132 192.481 672.132C191.833 672.132 191.322 672.326 190.946 672.715C190.583 673.09 190.402 673.628 190.402 674.327V680.214H187.099V674.327C187.099 673.628 186.911 673.09 186.536 672.715C186.173 672.326 185.668 672.132 185.02 672.132C184.373 672.132 183.861 672.326 183.485 672.715C183.123 673.09 182.941 673.628 182.941 674.327V680.214H179.619V669.373H182.941V670.733C183.278 670.28 183.719 669.923 184.263 669.664C184.807 669.392 185.422 669.256 186.108 669.256C186.924 669.256 187.65 669.431 188.284 669.781C188.932 670.131 189.437 670.629 189.8 671.277C190.175 670.681 190.687 670.195 191.335 669.82C191.982 669.444 192.688 669.256 193.452 669.256ZM210.406 674.619C210.406 674.93 210.386 675.253 210.347 675.59H202.828C202.88 676.264 203.094 676.782 203.47 677.144C203.858 677.494 204.331 677.669 204.888 677.669C205.717 677.669 206.293 677.319 206.617 676.62H210.153C209.972 677.332 209.641 677.973 209.162 678.543C208.696 679.113 208.106 679.56 207.394 679.884C206.682 680.208 205.885 680.37 205.004 680.37C203.942 680.37 202.997 680.143 202.168 679.69C201.339 679.236 200.691 678.589 200.225 677.747C199.759 676.905 199.526 675.92 199.526 674.794C199.526 673.667 199.752 672.682 200.206 671.84C200.672 670.998 201.319 670.351 202.148 669.898C202.977 669.444 203.929 669.218 205.004 669.218C206.054 669.218 206.986 669.438 207.802 669.878C208.618 670.318 209.253 670.947 209.706 671.763C210.172 672.579 210.406 673.531 210.406 674.619ZM207.006 673.744C207.006 673.174 206.811 672.721 206.423 672.384C206.034 672.048 205.548 671.879 204.966 671.879C204.409 671.879 203.936 672.041 203.547 672.365C203.172 672.689 202.938 673.149 202.848 673.744H207.006ZM227.35 669.373L220.55 685.363H216.975L219.462 679.845L215.051 669.373H218.762L221.269 676.154L223.755 669.373H227.35ZM233.486 680.37C232.424 680.37 231.465 680.143 230.61 679.69C229.769 679.236 229.101 678.589 228.609 677.747C228.13 676.905 227.89 675.92 227.89 674.794C227.89 673.68 228.137 672.702 228.629 671.86C229.121 671.005 229.794 670.351 230.649 669.898C231.504 669.444 232.463 669.218 233.525 669.218C234.587 669.218 235.545 669.444 236.4 669.898C237.255 670.351 237.929 671.005 238.421 671.86C238.913 672.702 239.159 673.68 239.159 674.794C239.159 675.907 238.906 676.892 238.401 677.747C237.909 678.589 237.229 679.236 236.361 679.69C235.506 680.143 234.548 680.37 233.486 680.37ZM233.486 677.494C234.121 677.494 234.658 677.261 235.098 676.795C235.552 676.328 235.778 675.661 235.778 674.794C235.778 673.926 235.558 673.259 235.118 672.792C234.69 672.326 234.159 672.093 233.525 672.093C232.877 672.093 232.34 672.326 231.912 672.792C231.485 673.246 231.271 673.913 231.271 674.794C231.271 675.661 231.478 676.328 231.893 676.795C232.32 677.261 232.851 677.494 233.486 677.494ZM251.627 669.373V680.214H248.304V678.738C247.968 679.217 247.508 679.605 246.925 679.903C246.355 680.188 245.72 680.331 245.021 680.331C244.192 680.331 243.46 680.149 242.826 679.787C242.191 679.411 241.699 678.874 241.349 678.174C240.999 677.475 240.824 676.652 240.824 675.707V669.373H244.127V675.26C244.127 675.985 244.315 676.549 244.691 676.95C245.066 677.352 245.571 677.552 246.206 677.552C246.854 677.552 247.365 677.352 247.741 676.95C248.117 676.549 248.304 675.985 248.304 675.26V669.373H251.627ZM257.335 671.18C257.724 670.584 258.21 670.118 258.793 669.781C259.375 669.431 260.023 669.256 260.735 669.256V672.773H259.822C258.993 672.773 258.372 672.954 257.957 673.317C257.543 673.667 257.335 674.288 257.335 675.182V680.214H254.013V669.373H257.335V671.18ZM271.375 680.37C270.313 680.37 269.355 680.143 268.5 679.69C267.658 679.236 266.991 678.589 266.499 677.747C266.02 676.905 265.78 675.92 265.78 674.794C265.78 673.68 266.026 672.702 266.518 671.86C267.01 671.005 267.684 670.351 268.539 669.898C269.394 669.444 270.352 669.218 271.414 669.218C272.476 669.218 273.435 669.444 274.29 669.898C275.145 670.351 275.818 671.005 276.31 671.86C276.802 672.702 277.049 673.68 277.049 674.794C277.049 675.907 276.796 676.892 276.291 677.747C275.799 678.589 275.119 679.236 274.251 679.69C273.396 680.143 272.437 680.37 271.375 680.37ZM271.375 677.494C272.01 677.494 272.548 677.261 272.988 676.795C273.441 676.328 273.668 675.661 273.668 674.794C273.668 673.926 273.448 673.259 273.007 672.792C272.58 672.326 272.049 672.093 271.414 672.093C270.767 672.093 270.229 672.326 269.802 672.792C269.374 673.246 269.161 673.913 269.161 674.794C269.161 675.661 269.368 676.328 269.782 676.795C270.21 677.261 270.741 677.494 271.375 677.494ZM294.373 669.373L291.44 680.214H287.768L286.058 673.181L284.29 680.214H280.637L277.684 669.373H281.007L282.541 677.125L284.368 669.373H287.884L289.73 677.086L291.245 669.373H294.373ZM302.246 669.256C303.515 669.256 304.526 669.671 305.277 670.5C306.041 671.316 306.423 672.443 306.423 673.88V680.214H303.12V674.327C303.12 673.602 302.933 673.038 302.557 672.637C302.181 672.235 301.676 672.035 301.041 672.035C300.407 672.035 299.902 672.235 299.526 672.637C299.15 673.038 298.963 673.602 298.963 674.327V680.214H295.64V669.373H298.963V670.811C299.299 670.331 299.753 669.956 300.323 669.684C300.893 669.399 301.534 669.256 302.246 669.256ZM316.171 670.908C316.482 670.403 316.929 669.995 317.512 669.684C318.095 669.373 318.762 669.218 319.513 669.218C320.407 669.218 321.216 669.444 321.942 669.898C322.667 670.351 323.237 670.998 323.651 671.84C324.079 672.682 324.292 673.66 324.292 674.774C324.292 675.888 324.079 676.872 323.651 677.727C323.237 678.569 322.667 679.223 321.942 679.69C321.216 680.143 320.407 680.37 319.513 680.37C318.749 680.37 318.082 680.221 317.512 679.923C316.942 679.612 316.495 679.204 316.171 678.699V680.214H312.849V665.837H316.171V670.908ZM320.912 674.774C320.912 673.945 320.679 673.298 320.212 672.831C319.759 672.352 319.196 672.112 318.522 672.112C317.862 672.112 317.298 672.352 316.832 672.831C316.379 673.31 316.152 673.965 316.152 674.794C316.152 675.622 316.379 676.277 316.832 676.756C317.298 677.235 317.862 677.475 318.522 677.475C319.183 677.475 319.746 677.235 320.212 676.756C320.679 676.264 320.912 675.603 320.912 674.774ZM325.375 674.774C325.375 673.66 325.582 672.682 325.997 671.84C326.424 670.998 327 670.351 327.726 669.898C328.451 669.444 329.261 669.218 330.154 669.218C330.918 669.218 331.586 669.373 332.155 669.684C332.738 669.995 333.185 670.403 333.496 670.908V669.373H336.818V680.214H333.496V678.679C333.172 679.184 332.719 679.592 332.136 679.903C331.566 680.214 330.899 680.37 330.135 680.37C329.254 680.37 328.451 680.143 327.726 679.69C327 679.223 326.424 678.569 325.997 677.727C325.582 676.872 325.375 675.888 325.375 674.774ZM333.496 674.794C333.496 673.965 333.263 673.31 332.797 672.831C332.343 672.352 331.786 672.112 331.126 672.112C330.465 672.112 329.902 672.352 329.435 672.831C328.982 673.298 328.755 673.945 328.755 674.774C328.755 675.603 328.982 676.264 329.435 676.756C329.902 677.235 330.465 677.475 331.126 677.475C331.786 677.475 332.343 677.235 332.797 676.756C333.263 676.277 333.496 675.622 333.496 674.794ZM345.827 669.256C347.097 669.256 348.107 669.671 348.858 670.5C349.623 671.316 350.005 672.443 350.005 673.88V680.214H346.702V674.327C346.702 673.602 346.514 673.038 346.138 672.637C345.763 672.235 345.258 672.035 344.623 672.035C343.988 672.035 343.483 672.235 343.107 672.637C342.732 673.038 342.544 673.602 342.544 674.327V680.214H339.222V669.373H342.544V670.811C342.881 670.331 343.334 669.956 343.904 669.684C344.474 669.399 345.115 669.256 345.827 669.256ZM358.938 680.214L355.636 675.668V680.214H352.313V665.837H355.636V673.783L358.919 669.373H363.018L358.511 674.813L363.057 680.214H358.938ZM365.878 680.37C365.295 680.37 364.816 680.201 364.44 679.864C364.077 679.515 363.896 679.087 363.896 678.582C363.896 678.064 364.077 677.63 364.44 677.28C364.816 676.931 365.295 676.756 365.878 676.756C366.448 676.756 366.914 676.931 367.276 677.28C367.652 677.63 367.84 678.064 367.84 678.582C367.84 679.087 367.652 679.515 367.276 679.864C366.914 680.201 366.448 680.37 365.878 680.37Z" fill="#A9BA9D"/>
<path d="M142.529 311.92C137.281 328.245 102.181 357.232 80.4349 373.339C77.5318 375.49 77.8287 379.957 81.0191 381.653L128.318 406.786L170.41 430.483C178.266 434.906 188.204 432.435 193.631 425.236C211.164 401.977 243.787 366.081 283.47 343.33C331.793 315.625 252.597 262.523 206.959 239.436C223.067 241.046 232.731 254.738 244.812 255.543C256.892 256.349 263.336 249.1 260.919 234.604C258.503 220.107 215.013 187.892 193.268 195.14C162.663 206.415 139.307 236.214 136.086 249.1C132.864 261.986 149.777 289.369 142.529 311.92Z" fill="url(#paint0_linear)"/>
<path d="M368.891 332.781C328.65 346.898 297.235 381.719 288.239 392.746C259.223 284.457 178.339 231.533 141.524 218.608C160.652 205.978 200.2 176.204 228.44 147.792C256.633 209.443 351.538 311.583 368.891 332.781Z" fill="#E5EAE2"/>
<path d="M369.995 332.781C329.753 346.898 298.339 381.719 289.343 392.746C260.327 284.457 179.443 231.533 142.628 218.608C161.756 205.978 201.304 176.204 229.544 147.792C257.736 209.443 352.642 311.583 369.995 332.781Z" fill="url(#paint1_linear)" fill-opacity="0.24" style="mix-blend-mode:multiply"/>
<g style="mix-blend-mode:multiply">
<path d="M368.891 332.781C328.65 346.898 297.235 381.719 288.239 392.746C259.223 284.457 178.339 231.533 141.524 218.608C160.652 205.978 200.2 176.204 228.44 147.792C256.633 209.443 351.538 311.583 368.891 332.781Z" fill="url(#paint2_linear)" fill-opacity="0.08"/>
</g>
<path d="M328.571 340.913C286.047 344.135 246.691 369.639 235.147 377.961C235.147 265.852 170.717 193.797 138.502 171.784C160.247 164.535 206.154 146.012 240.785 125.877C252.06 192.724 317.296 315.947 328.571 340.913Z" fill="#DDE3D8"/>
<ellipse cx="242.068" cy="250.593" rx="16.9214" ry="37.0474" transform="rotate(-26.9804 242.068 250.593)" fill="#A9BA9D"/>
<g style="mix-blend-mode:overlay">
<path d="M328.571 340.913C286.047 344.135 246.691 369.639 235.147 377.961C235.147 265.852 170.717 193.797 138.502 171.784C160.247 164.535 206.154 146.012 240.785 125.877C252.06 192.724 317.296 315.947 328.571 340.913Z" fill="url(#paint3_linear)" fill-opacity="0.64"/>
</g>
<g style="mix-blend-mode:soft-light">
<path d="M328.571 340.913C286.047 344.135 246.691 369.639 235.147 377.961C235.147 265.852 170.717 193.797 138.502 171.784C160.247 164.535 206.154 146.012 240.785 125.877C252.06 192.724 317.296 315.947 328.571 340.913Z" fill="url(#paint4_linear)" fill-opacity="0.64"/>
</g>
<path d="M261.87 182.151C249.1 182.735 234.167 197.636 225.381 208.619C223.94 210.42 223.219 211.321 222.529 212.702C222.002 213.756 221.446 215.418 221.232 216.578C220.952 218.096 220.987 219.303 221.057 221.718C221.597 240.426 226.974 282.042 275.653 300.173C278.212 301.126 279.491 301.603 281.371 301.789C282.786 301.929 284.962 301.77 286.341 301.425C288.174 300.967 289.465 300.257 292.047 298.837C304.21 292.149 326.083 278.674 325.426 268.574C324.519 254.607 280.937 181.278 261.87 182.151Z" fill="#FEE3C8"/>
<path d="M261.87 182.151C249.1 182.735 234.167 197.636 225.381 208.619C223.939 210.421 223.218 211.323 222.528 212.704C222 213.758 221.444 215.421 221.231 216.581C220.951 218.099 220.986 219.305 221.056 221.718C221.59 240.082 226.857 280.39 274.059 300.251L274.059 300.251C276.735 301.377 278.072 301.94 280.038 302.193C281.525 302.384 283.796 302.265 285.255 301.92C287.183 301.463 288.56 300.706 291.313 299.192L291.313 299.192C303.875 292.282 326.079 278.606 325.427 268.574C324.519 254.607 280.937 181.278 261.87 182.151Z" fill="url(#paint5_linear)" fill-opacity="0.64" style="mix-blend-mode:multiply"/>
<g style="mix-blend-mode:overlay" filter="url(#filter1_i)">
<path d="M261.87 182.151C249.1 182.735 234.167 197.636 225.381 208.619C223.969 210.385 223.263 211.267 222.566 212.673C222.042 213.729 221.475 215.457 221.27 216.619C220.998 218.164 221.046 219.351 221.142 221.724C222.005 243.164 228.413 280.941 274.036 300.221C276.726 301.358 278.071 301.926 280.04 302.182C281.533 302.375 283.803 302.258 285.267 301.912C287.199 301.455 288.581 300.695 291.345 299.174L291.345 299.174C303.913 292.259 326.078 278.598 325.427 268.574C324.519 254.607 280.937 181.278 261.87 182.151Z" fill="url(#paint6_linear)" fill-opacity="0.4"/>
</g>
<path d="M314.512 251.357C304.891 262.308 281.708 285.167 265.94 289" stroke="#FFCF99" stroke-width="2.42857" stroke-linecap="round"/>
<path d="M297.512 229.5C287.17 240.451 262.248 263.31 245.297 267.143" stroke="#FFCF99" stroke-width="2.42857" stroke-linecap="round"/>
<path d="M280.512 204C270.651 214.951 246.888 237.81 230.726 241.643" stroke="#FFCF99" stroke-width="2.42857" stroke-linecap="round"/>
<g filter="url(#filter2_i)">
<path d="M137.671 312.114C131.873 330.154 100.149 359.503 79.7463 374L140.893 345.134L175.124 318.864C194.411 304.062 197.908 276.363 182.903 257.232C180.366 253.997 181.502 249.242 185.228 247.504L202.102 239.629C218.209 241.24 227.874 254.932 239.955 255.737C252.035 256.542 258.478 249.294 256.062 234.797C253.646 220.3 210.156 188.085 188.41 195.334C157.806 206.609 134.45 236.408 131.228 249.294C128.007 262.18 144.92 289.563 137.671 312.114Z" fill="#FEE3C8"/>
</g>
<mask id="mask0" style="mask-type:alpha" maskUnits="userSpaceOnUse" x="37" y="92" width="380" height="380">
<rect x="37.6429" y="92.2856" width="378.857" height="378.857" rx="48.5714" fill="#C4C4C4"/>
</mask>
<g mask="url(#mask0)">
</g>
<g filter="url(#filter3_d)">
<path d="M208.66 907.766H214.367V910H205.892V893.121H208.66V907.766ZM221.758 910.219C220.495 910.219 219.354 909.935 218.334 909.369C217.314 908.786 216.513 907.976 215.93 906.94C215.347 905.888 215.055 904.673 215.055 903.297C215.055 901.937 215.355 900.731 215.954 899.679C216.553 898.626 217.371 897.817 218.407 897.25C219.443 896.683 220.601 896.4 221.88 896.4C223.159 896.4 224.316 896.683 225.353 897.25C226.389 897.817 227.206 898.626 227.805 899.679C228.405 900.731 228.704 901.937 228.704 903.297C228.704 904.657 228.396 905.863 227.781 906.916C227.166 907.968 226.324 908.786 225.255 909.369C224.203 909.935 223.037 910.219 221.758 910.219ZM221.758 907.814C222.471 907.814 223.135 907.644 223.75 907.304C224.381 906.964 224.891 906.454 225.28 905.774C225.668 905.094 225.863 904.269 225.863 903.297C225.863 902.326 225.676 901.508 225.304 900.844C224.932 900.164 224.438 899.654 223.823 899.314C223.207 898.974 222.544 898.804 221.831 898.804C221.119 898.804 220.455 898.974 219.84 899.314C219.241 899.654 218.763 900.164 218.407 900.844C218.051 901.508 217.873 902.326 217.873 903.297C217.873 904.738 218.237 905.855 218.965 906.649C219.71 907.426 220.641 907.814 221.758 907.814ZM236.104 896.4C237.14 896.4 238.055 896.61 238.848 897.031C239.658 897.436 240.289 897.946 240.742 898.561V896.619H243.535V910.219C243.535 911.449 243.276 912.542 242.758 913.497C242.24 914.469 241.487 915.23 240.499 915.78C239.528 916.33 238.362 916.606 237.002 916.606C235.189 916.606 233.683 916.177 232.485 915.319C231.287 914.477 230.607 913.327 230.445 911.87H233.189C233.4 912.566 233.845 913.125 234.525 913.546C235.221 913.983 236.047 914.201 237.002 914.201C238.119 914.201 239.018 913.861 239.698 913.181C240.394 912.501 240.742 911.514 240.742 910.219V907.984C240.273 908.616 239.633 909.15 238.824 909.587C238.03 910.008 237.124 910.219 236.104 910.219C234.938 910.219 233.869 909.927 232.898 909.344C231.943 908.745 231.182 907.92 230.615 906.867C230.065 905.799 229.789 904.592 229.789 903.249C229.789 901.905 230.065 900.715 230.615 899.679C231.182 898.642 231.943 897.841 232.898 897.274C233.869 896.691 234.938 896.4 236.104 896.4ZM240.742 903.297C240.742 902.374 240.548 901.573 240.159 900.893C239.787 900.213 239.293 899.695 238.678 899.339C238.063 898.982 237.399 898.804 236.687 898.804C235.974 898.804 235.31 898.982 234.695 899.339C234.08 899.679 233.578 900.189 233.189 900.869C232.817 901.532 232.631 902.326 232.631 903.249C232.631 904.171 232.817 904.981 233.189 905.677C233.578 906.373 234.08 906.908 234.695 907.28C235.327 907.636 235.99 907.814 236.687 907.814C237.399 907.814 238.063 907.636 238.678 907.28C239.293 906.924 239.787 906.406 240.159 905.726C240.548 905.03 240.742 904.22 240.742 903.297ZM247.852 894.846C247.35 894.846 246.929 894.676 246.589 894.336C246.249 893.996 246.079 893.575 246.079 893.073C246.079 892.571 246.249 892.15 246.589 891.81C246.929 891.47 247.35 891.3 247.852 891.3C248.337 891.3 248.75 891.47 249.09 891.81C249.43 892.15 249.6 892.571 249.6 893.073C249.6 893.575 249.43 893.996 249.09 894.336C248.75 894.676 248.337 894.846 247.852 894.846ZM249.212 896.619V910H246.443V896.619H249.212ZM258.869 896.4C259.922 896.4 260.861 896.619 261.687 897.056C262.528 897.493 263.184 898.14 263.654 898.999C264.123 899.857 264.358 900.893 264.358 902.107V910H261.614V902.52C261.614 901.322 261.314 900.407 260.715 899.776C260.116 899.128 259.298 898.804 258.262 898.804C257.226 898.804 256.4 899.128 255.785 899.776C255.186 900.407 254.887 901.322 254.887 902.52V910H252.118V896.619H254.887V898.149C255.34 897.598 255.915 897.169 256.611 896.861C257.323 896.554 258.076 896.4 258.869 896.4Z" fill="white"/>
<path d="M46.2487 868.214H423.892V865.786H46.2487V868.214ZM442.106 886.429V915.571H444.534V886.429H442.106ZM423.892 933.786H46.2487V936.214H423.892V933.786ZM28.0344 915.571V886.429H25.6059V915.571H28.0344ZM46.2487 933.786C36.1892 933.786 28.0344 925.631 28.0344 915.571H25.6059C25.6059 926.972 34.848 936.214 46.2487 936.214V933.786ZM442.106 915.571C442.106 925.631 433.951 933.786 423.892 933.786V936.214C435.292 936.214 444.534 926.972 444.534 915.571H442.106ZM423.892 868.214C433.951 868.214 442.106 876.369 442.106 886.429H444.534C444.534 875.028 435.292 865.786 423.892 865.786V868.214ZM46.2487 865.786C34.848 865.786 25.6059 875.028 25.6059 886.429H28.0344C28.0344 876.369 36.1893 868.214 46.2487 868.214V865.786Z" fill="#A9BA9D"/>
</g>
<rect x="146.643" y="969.928" width="162.714" height="6.07143" rx="3.03571" fill="black"/>
</g>
<defs>
<filter id="filter0_d" x="17" y="772.286" width="440.786" height="92.2857" filterUnits="userSpaceOnUse" color-interpolation-filters="sRGB">
<feFlood flood-opacity="0" result="BackgroundImageFix"/>
<feColorMatrix in="SourceAlpha" type="matrix" values="0 0 0 0 0 0 0 0 0 0 0 0 0 0 0 0 0 0 127 0" result="hardAlpha"/>
<feOffset dx="4.85714" dy="4.85714"/>
<feGaussianBlur stdDeviation="6.07143"/>
<feComposite in2="hardAlpha" operator="out"/>
<feColorMatrix type="matrix" values="0 0 0 0 0 0 0 0 0 0 0 0 0 0 0 0 0 0 0.15 0"/>
<feBlend mode="normal" in2="BackgroundImageFix" result="effect1_dropShadow"/>
<feBlend mode="normal" in="SourceGraphic" in2="effect1_dropShadow" result="shape"/>
</filter>
<filter id="filter1_i" x="221.066" y="172.429" width="114.088" height="129.846" filterUnits="userSpaceOnUse" color-interpolation-filters="sRGB">
<feFlood flood-opacity="0" result="BackgroundImageFix"/>
<feBlend mode="normal" in="SourceGraphic" in2="BackgroundImageFix" result="shape"/>
<feColorMatrix in="SourceAlpha" type="matrix" values="0 0 0 0 0 0 0 0 0 0 0 0 0 0 0 0 0 0 127 0" result="hardAlpha"/>
<feOffset dx="9.71429" dy="-9.71429"/>
<feGaussianBlur stdDeviation="9.71429"/>
<feComposite in2="hardAlpha" operator="arithmetic" k2="-1" k3="1"/>
<feColorMatrix type="matrix" values="0 0 0 0 0 0 0 0 0 0 0 0 0 0 0 0 0 0 0.08 0"/>
<feBlend mode="normal" in2="shape" result="effect1_innerShadow"/>
</filter>
<filter id="filter2_i" x="70.032" y="194.286" width="186.533" height="189.429" filterUnits="userSpaceOnUse" color-interpolation-filters="sRGB">
<feFlood flood-opacity="0" result="BackgroundImageFix"/>
<feBlend mode="normal" in="SourceGraphic" in2="BackgroundImageFix" result="shape"/>
<feColorMatrix in="SourceAlpha" type="matrix" values="0 0 0 0 0 0 0 0 0 0 0 0 0 0 0 0 0 0 127 0" result="hardAlpha"/>
<feOffset dx="-13.3571" dy="12.1429"/>
<feGaussianBlur stdDeviation="4.85714"/>
<feComposite in2="hardAlpha" operator="arithmetic" k2="-1" k3="1"/>
<feColorMatrix type="matrix" values="0 0 0 0 1 0 0 0 0 1 0 0 0 0 1 0 0 0 0.24 0"/>
<feBlend mode="normal" in2="shape" result="effect1_innerShadow"/>
</filter>
<filter id="filter3_d" x="19.5344" y="859.714" width="440.786" height="92.2857" filterUnits="userSpaceOnUse" color-interpolation-filters="sRGB">
<feFlood flood-opacity="0" result="BackgroundImageFix"/>
<feColorMatrix in="SourceAlpha" type="matrix" values="0 0 0 0 0 0 0 0 0 0 0 0 0 0 0 0 0 0 127 0" result="hardAlpha"/>
<feOffset dx="4.85714" dy="4.85714"/>
<feGaussianBlur stdDeviation="6.07143"/>
<feComposite in2="hardAlpha" operator="out"/>
<feColorMatrix type="matrix" values="0 0 0 0 0 0 0 0 0 0 0 0 0 0 0 0 0 0 0.5 0"/>
<feBlend mode="normal" in2="BackgroundImageFix" result="effect1_dropShadow"/>
<feBlend mode="normal" in="SourceGraphic" in2="effect1_dropShadow" result="shape"/>
</filter>
<linearGradient id="paint0_linear" x1="281.054" y1="232.993" x2="194.878" y2="338.497" gradientUnits="userSpaceOnUse">
<stop stop-color="#F9CC9F"/>
<stop offset="1" stop-color="#FEE3C8"/>
</linearGradient>
<linearGradient id="paint1_linear" x1="151.996" y1="174.857" x2="367.532" y2="381.286" gradientUnits="userSpaceOnUse">
<stop stop-color="#5AFF20" stop-opacity="0"/>
<stop offset="0.0001" stop-color="#008826"/>
<stop offset="0.385417" stop-color="#027500" stop-opacity="0.89"/>
<stop offset="0.65625" stop-color="#399500"/>
<stop offset="1" stop-color="#36826E" stop-opacity="0"/>
</linearGradient>
<linearGradient id="paint2_linear" x1="161.858" y1="203.999" x2="354.343" y2="352.994" gradientUnits="userSpaceOnUse">
<stop stop-opacity="0.66"/>
<stop offset="0.651042" stop-opacity="0.67"/>
<stop offset="1" stop-opacity="0.04"/>
</linearGradient>
<linearGradient id="paint3_linear" x1="155.032" y1="160.286" x2="328.675" y2="336.357" gradientUnits="userSpaceOnUse">
<stop stop-color="#76826E"/>
<stop offset="1" stop-color="#70FF00" stop-opacity="0.64"/>
</linearGradient>
<linearGradient id="paint4_linear" x1="178.771" y1="252.322" x2="281.859" y2="244.268" gradientUnits="userSpaceOnUse">
<stop stop-color="white"/>
<stop offset="0.348958" stop-color="#E3E3E3" stop-opacity="0.64"/>
<stop offset="0.583333" stop-color="#636363" stop-opacity="0.32"/>
<stop offset="0.979167" stop-color="white" stop-opacity="0.32"/>
</linearGradient>
<linearGradient id="paint5_linear" x1="306.839" y1="223.665" x2="240.632" y2="281.508" gradientUnits="userSpaceOnUse">
<stop stop-color="#F9DB9F"/>
<stop offset="0.53125" stop-color="#FEE3C8"/>
<stop offset="1" stop-color="#F9DB9F"/>
</linearGradient>
<linearGradient id="paint6_linear" x1="306.36" y1="209.212" x2="240.031" y2="277.292" gradientUnits="userSpaceOnUse">
<stop stop-color="white" stop-opacity="0.963542"/>
<stop offset="1" stop-color="white" stop-opacity="0"/>
</linearGradient>
<clipPath id="clip0">
<rect width="455.357" height="986" rx="48.5714" fill="white"/>
</clipPath>
</defs>
</svg>
