<svg xmlns="http://www.w3.org/2000/svg" viewBox="0 0 206.59 212.27"><defs><style>.cls-1{fill:#fff;}</style></defs><g id="Layer_2" data-name="Layer 2"><g id="Layer_1-2" data-name="Layer 1"><path class="cls-1" d="M102.47,212.27c-7.89-4.32-15.75-8.7-23.68-12.93a4.5,4.5,0,0,1-2.74-4.61c.12-3,.11-6.1,0-9.14a3.3,3.3,0,0,0-1.17-2.33Q62.73,175,50.47,167a3,3,0,0,0-2.54,0q-9.27,4.89-18.42,10A4.15,4.15,0,0,1,25,177q-11.35-6.3-22.78-12.45A3.85,3.85,0,0,1,0,160.77q.06-11.33,0-22.65a4,4,0,0,1,2.27-3.83c6.87-3.86,13.69-7.85,20.56-11.71a2.59,2.59,0,0,0,1.5-2.61q-.08-15,0-29.93a2.5,2.5,0,0,0-1.56-2.56c-6.7-3.6-13.35-7.32-20.07-10.89A4.4,4.4,0,0,1,0,72.19c.09-7.34.08-14.69,0-22A4.24,4.24,0,0,1,2.37,46q11.22-6.3,22.34-12.8a4.56,4.56,0,0,1,5.19.05c7.16,4.2,14.36,8.36,21.63,12.37,2.25,1.24,3.25,2.81,3,5.33-.12,1.16,0,2.34,0,3.91.82-.46,1.39-.74,1.93-1.08C62.49,50,68.5,46.14,74.59,42.42a2.85,2.85,0,0,0,1.49-2.85C76,32.36,76.1,25.16,76,18a4.54,4.54,0,0,1,2.59-4.5q11.06-6.16,22-12.58A4.69,4.69,0,0,1,106,.82q10.92,6.4,22,12.59a4.58,4.58,0,0,1,2.63,4.49q-.12,10.91,0,21.82a3.21,3.21,0,0,0,1.09,2.35c6.4,4.13,12.87,8.14,19.33,12.17.22.14.47.25,1.09.56,0-1.81,0-3.35,0-4.9a3.91,3.91,0,0,1,2.25-3.85Q165.82,39.57,177.22,33a3.84,3.84,0,0,1,4.27,0Q193,39.6,204.55,46.15a3.7,3.7,0,0,1,2,3.56c0,7.62,0,15.24,0,22.86a4,4,0,0,1-2.49,3.91c-6.76,3.63-13.47,7.38-20.25,11a2.64,2.64,0,0,0-1.6,2.74c.06,9.84.08,19.68,0,29.52a3,3,0,0,0,1.85,3c6.64,3.72,13.2,7.58,19.85,11.29a4.48,4.48,0,0,1,2.66,4.44q-.14,11,0,22a4.29,4.29,0,0,1-2.58,4.27q-11.17,6-22.24,12.13a4.48,4.48,0,0,1-4.85,0c-6-3.35-12-6.58-18-9.91a2.45,2.45,0,0,0-3,0q-11.88,8-23.86,15.88a3.1,3.1,0,0,0-1.56,3.06c.08,3,0,6,.05,8.93a4.26,4.26,0,0,1-2.57,4.3c-8,4.29-15.91,8.68-23.86,13ZM30.14,104.91c0,5,0,10,0,15a2.53,2.53,0,0,0,1.44,2.64c6.1,3.4,12.16,6.89,18.2,10.41a2.28,2.28,0,0,0,2.94,0c7.32-5.23,14.72-10.36,22-15.61A3.32,3.32,0,0,0,76,115q.16-9.15,0-18.29a3.21,3.21,0,0,0-1.23-2.32q-12-8-24.2-15.74a2.78,2.78,0,0,0-2.36-.05c-5.57,2.94-11.06,6-16.63,9a2.49,2.49,0,0,0-1.47,2.61C30.18,95.07,30.14,100,30.14,104.91Zm146.32.08c0-5,0-10-.06-15a3,3,0,0,0-1.17-2.26q-8.4-4.77-16.94-9.27a2.58,2.58,0,0,0-2.19.09q-12.24,7.85-24.37,15.86a2.78,2.78,0,0,0-1.14,2q-.14,9.36,0,18.71a2.88,2.88,0,0,0,1.06,2q11.24,8.06,22.59,15.92a2.5,2.5,0,0,0,2.15.11q9.44-5.26,18.74-10.74a3.13,3.13,0,0,0,1.28-2.22C176.51,115.11,176.46,110.05,176.46,105ZM76.05,176.78a28.94,28.94,0,0,0,0-3.12c-.31-2.62.83-4.17,3.14-5.43,6.68-3.65,13.25-7.48,19.81-11.34a3.06,3.06,0,0,0,1.35-2.17q.15-10.18,0-20.36A3,3,0,0,0,99,132.2c-6.09-3.43-12.25-6.72-18.36-10.11a2.27,2.27,0,0,0-2.8.14Q67,130,56.1,137.53a3.41,3.41,0,0,0-1.62,3.25q.12,10.18,0,20.36a2.37,2.37,0,0,0,1.22,2.33c6.3,4.14,12.57,8.35,18.85,12.52A15.88,15.88,0,0,0,76.05,176.78Zm54.49-.05a7.1,7.1,0,0,0,1-.4c6.58-4.36,13.16-8.72,19.69-13.14a2.23,2.23,0,0,0,.83-1.64c.05-7.07.07-14.13,0-21.2a3.53,3.53,0,0,0-1.25-2.51c-7.3-5.26-14.69-10.39-22-15.61a2.24,2.24,0,0,0-2.8-.13c-6,3.36-12.11,6.69-18.22,9.93a2.62,2.62,0,0,0-1.56,2.75q.1,9.76,0,19.53a2.7,2.7,0,0,0,1.61,2.75c6.7,3.76,13.3,7.67,20,11.39,2,1.13,3,2.55,2.75,4.83C130.46,174.35,130.54,175.45,130.54,176.73ZM106.21,67c0,3.18-.07,6.37.05,9.55a2.89,2.89,0,0,0,1.16,2.07q9.47,5.59,19.07,11a2.37,2.37,0,0,0,2,0q11.35-7.29,22.61-14.73a2.51,2.51,0,0,0,1-1.79c.09-3.18.13-6.37,0-9.55A3.48,3.48,0,0,0,150.69,61Q138.9,53.45,127,46.11a2.86,2.86,0,0,0-2.39-.1q-8.62,4.56-17.12,9.35a2.87,2.87,0,0,0-1.19,2C106.14,60.58,106.21,63.76,106.21,67Zm-5.82.1c0-3.11-.07-6.23,0-9.34a2.45,2.45,0,0,0-1.49-2.59q-8.34-4.44-16.58-9a2.39,2.39,0,0,0-2.82,0c-7.89,5-15.84,9.91-23.7,14.94a3.19,3.19,0,0,0-1.26,2.27c-.15,3.17-.12,6.37,0,9.55a2.81,2.81,0,0,0,1,2Q66.75,82.23,78,89.43a2.56,2.56,0,0,0,2.18,0q9.51-5.31,18.89-10.84a3.1,3.1,0,0,0,1.23-2.24C100.47,73.29,100.39,70.17,100.39,67.05Zm21.28,104.64c-6-3.46-11.73-6.75-17.46-9.93A2.76,2.76,0,0,0,102,162c-3.63,2-7.21,4.09-10.81,6.15L85,171.69c6,3.28,11.7,6.41,17.43,9.46a2.32,2.32,0,0,0,1.88,0C110,178.09,115.67,175,121.67,171.69ZM8.91,49c6,3.29,11.65,6.41,17.35,9.4a3,3,0,0,0,2.4-.2c4.11-2.14,8.16-4.4,12.23-6.63,1.47-.8,2.94-1.62,4.69-2.59C40,45.77,34.77,42.87,29.65,39.74a4,4,0,0,0-4.83,0C19.69,42.89,14.43,45.8,8.91,49ZM85,93.52c6,3.28,11.69,6.42,17.43,9.45a2.85,2.85,0,0,0,2.24-.18c3.8-2,7.54-4.08,11.3-6.14l5.7-3.15c-6-3.45-11.69-6.73-17.4-10a2,2,0,0,0-1.68-.07C96.77,86.73,91,90,85,93.52ZM161,49c6,3.29,11.65,6.4,17.34,9.4a2.76,2.76,0,0,0,2.23-.08c4.11-2.14,8.16-4.39,12.23-6.61,1.54-.85,3.06-1.72,4.87-2.73-6.07-3.47-11.81-6.78-17.59-10a1.56,1.56,0,0,0-1.3-.07C173,42.12,167.14,45.45,161,49ZM85,16.57C91,19.84,96.63,23,102.37,26a2.85,2.85,0,0,0,2.24-.16c3.68-1.91,7.29-3.94,10.93-5.93l6.09-3.37c-6.07-3.48-11.81-6.79-17.58-10a1.76,1.76,0,0,0-1.49,0C96.79,9.78,91.05,13.08,85,16.57ZM197.72,137.24c-6-3.43-11.63-6.69-17.31-9.82a2.91,2.91,0,0,0-2.39.13c-3.41,1.83-6.74,3.8-10.1,5.73l-6.9,4c6,3.27,11.69,6.4,17.41,9.46a2.07,2.07,0,0,0,1.7.09C185.91,143.71,191.66,140.55,197.72,137.24Zm-188.81,0c6.05,3.31,11.72,6.45,17.47,9.47a3.14,3.14,0,0,0,2.43-.32c4.88-2.58,9.71-5.26,14.56-7.92.67-.37,1.32-.78,2.15-1.28-5.9-3.38-11.53-6.62-17.19-9.8a2.29,2.29,0,0,0-1.87-.15C20.68,130.47,14.94,133.79,8.91,137.24ZM48.69,54.06c-1,.48-1.66.77-2.3,1.11-3.7,2-7.25,4.37-11.12,6-4.15,1.72-5.8,4.19-5.23,8.74.48,3.77.1,7.64.1,11.84,5.2-2.84,9.94-5.68,14.91-8,2.93-1.38,4-3.12,3.71-6.32C48.45,63.07,48.69,58.72,48.69,54.06ZM176.45,81.72c0-5.81.05-11.2,0-16.58a2.67,2.67,0,0,0-1.28-1.78c-5.11-2.87-10.28-5.66-15.44-8.46-.49-.27-1-.45-1.77-.76,0,5.67,0,11,0,16.31a2.07,2.07,0,0,0,.73,1.52C164.45,75.19,170.27,78.34,176.45,81.72Zm0,88.26c0-5.84,0-11.35-.06-16.86,0-.53-.78-1.22-1.36-1.54-5.13-2.87-10.3-5.66-15.46-8.47-.45-.24-.94-.41-1.66-.72,0,3.86.4,7.5-.1,11-.71,5,1.22,7.78,5.79,9.71C168,165,172,167.55,176.45,170ZM30.14,170c4.45-2.42,8.36-5,12.61-6.74,4.88-2,6.76-5,6-10.2-.48-3.43-.09-7-.09-10.86-6.19,3.38-12,6.54-17.78,9.75a1.75,1.75,0,0,0-.73,1.3C30.13,158.71,30.14,164.17,30.14,170ZM6.1,54.11a5.53,5.53,0,0,0-.22,1c0,5.12-.06,10.24,0,15.36a2.72,2.72,0,0,0,1.27,1.8c2.67,1.58,5.43,3,8.16,4.51l9,4.89c0-5.86,0-11.37-.07-16.88,0-.53-.77-1.21-1.35-1.53-3.73-2.1-7.5-4.13-11.27-6.17Zm94.28-4.8c0-5.85,0-11.36,0-16.87,0-.49-.66-1.14-1.17-1.44-3-1.71-6.06-3.34-9.1-5l-8-4.38c-.05,1-.12,1.66-.12,2.32,0,3.67.23,7.36-.07,11-.27,3.19.74,5,3.7,6.37C90.5,43.66,95.24,46.51,100.38,49.31Zm81.9,32a2.14,2.14,0,0,0,.61,0c3.65-2,7.3-3.93,10.93-5.92,2.24-1.22,5.32-2,6.43-3.89s.44-5.08.47-7.69c0-3.15,0-6.3,0-9.44-.4,0-.56-.08-.66,0-5.65,3.06-11.3,6.12-16.92,9.23a1.7,1.7,0,0,0-.83,1.22C182.26,70.32,182.28,75.83,182.28,81.34Zm-76.06,44.94c6.1-3.33,11.91-6.46,17.66-9.72.51-.29.78-1.38.79-2.1.07-4.56,0-9.13,0-13.69,0-.64-.09-1.28-.17-2.18-6,3.3-11.78,6.43-17.5,9.6a1.55,1.55,0,0,0-.78,1C106.2,114.81,106.22,120.37,106.22,126.28ZM24.32,170c0-5.59,0-10.79,0-16a2.47,2.47,0,0,0-1.53-2.57c-5.08-2.69-10.1-5.48-15.14-8.23-.51-.28-1.06-.49-1.81-.83,0,5.68,0,11.08,0,16.48a2,2,0,0,0,.82,1.46C12.45,163.52,18.21,166.65,24.32,170Zm57.57,6.67c0,5.64,0,10.75,0,15.87a2.67,2.67,0,0,0,1.66,2.74c5.08,2.69,10.09,5.48,15.14,8.23.5.27,1,.46,1.74.77,0-4.36-.35-8.48.1-12.52s-1.09-5.92-4.54-7.51C91.27,182.09,86.84,179.37,81.89,176.66ZM124.7,21.57c-5.38,2.94-10.27,5.79-15.34,8.28-2.43,1.2-3.4,2.56-3.23,5.34.29,4.59.08,9.2.08,14.14,6.09-3.32,11.86-6.45,17.58-9.63a2,2,0,0,0,.87-1.46C124.72,32.85,124.7,27.46,124.7,21.57ZM81.89,98.49c0,5.62,0,10.74,0,15.85a2.67,2.67,0,0,0,1.65,2.75c5.07,2.69,10.09,5.48,15.13,8.23.51.28,1.06.47,1.76.78,0-4.62-.26-9,.08-13.34.26-3.27-.9-4.92-3.78-6.29C91.79,104.13,87.09,101.33,81.89,98.49Zm118.84,43.76c-6.13,3.34-11.84,6.41-17.5,9.61a2.67,2.67,0,0,0-.91,2c-.09,3.81,0,7.62,0,11.43V170c6.08-3.33,11.79-6.43,17.46-9.58a2,2,0,0,0,.94-1.4C200.75,153.56,200.73,148.1,200.73,142.25Zm-94.52,62.21c6.11-3.34,11.87-6.45,17.58-9.66a2.56,2.56,0,0,0,.88-1.85c.1-2.55,0-5.11,0-7.67V177a4.45,4.45,0,0,0-.87.18c-5.58,3-11.16,6.06-16.71,9.15a2,2,0,0,0-.88,1.4C106.19,193.16,106.21,198.62,106.21,204.46Z"/></g></g></svg>