<svg xmlns="http://www.w3.org/2000/svg" viewBox="0 0 115.56 115.56"><defs><style>.cls-1{fill:#fff;}</style></defs><g id="Layer_2" data-name="Layer 2"><g id="Layer_1-2" data-name="Layer 1"><rect class="cls-1" width="115.56" height="115.56" rx="12"/><path d="M60.07,9.88c1.49.31,3,.52,4.47.94a23.47,23.47,0,0,1,17,22.44c0,3.61,0,7.23,0,10.84v1c1.54.08,3,0,4.45.26a8.69,8.69,0,0,1,7.29,8.27c.06,2.17,0,4.35,0,6.52q0,17.42,0,34.83a8.76,8.76,0,0,1-6.56,8.71,10.32,10.32,0,0,1-2.54.3q-26.19,0-52.39,0a8.8,8.8,0,0,1-9.09-9.11q0-20.31,0-40.62a8.8,8.8,0,0,1,9.12-9.08h2.64c0-.47,0-.86,0-1.25,0-4.32-.19-8.66.19-13A23.23,23.23,0,0,1,53.06,10.43c1-.22,2-.37,3-.55Zm-2,41.18h-26c-2.31,0-3.44,1.12-3.44,3.42q0,20.13,0,40.25c0,2.24,1.15,3.38,3.4,3.38q26,0,52,0c2.26,0,3.41-1.14,3.41-3.37V54.48c0-2.31-1.13-3.42-3.45-3.42Zm17.52-5.9a1.85,1.85,0,0,0,.08-.33c0-4.11.1-8.22,0-12.32A17.64,17.64,0,0,0,40.4,33.6c0,3.56,0,7.11,0,10.66v.9Z"/><path d="M61,80.93c0,1.44,0,2.87,0,4.31a2.94,2.94,0,1,1-5.87,0c0-2.79,0-5.58,0-8.36a1.25,1.25,0,0,0-.78-1.33,7.76,7.76,0,0,1-3.71-9.4,7.83,7.83,0,0,1,15.25,2.49,7.59,7.59,0,0,1-4.27,7,1,1,0,0,0-.63,1C61,78.11,61,79.52,61,80.93ZM58.07,66.74A2,2,0,1,0,60,68.68,2,2,0,0,0,58.07,66.74Z"/></g></g></svg>