<svg xmlns="http://www.w3.org/2000/svg" viewBox="0 0 194.96 259.89"><defs><style>.cls-1{fill:#fff;}</style></defs><g id="Layer_2" data-name="Layer 2"><g id="Layer_1-2" data-name="Layer 1"><path class="cls-1" d="M103.05,0c4.12.85,8.33,1.42,12.36,2.58a64.85,64.85,0,0,1,47,62c.09,10,0,20,0,29.95v2.74c4.27.23,8.34.12,12.31.71a24,24,0,0,1,20.11,22.83c.18,6,.06,12,.06,18q0,48.09,0,96.19c0,11.66-7.12,21.1-18.1,24a27.14,27.14,0,0,1-7,.86q-72.33.07-144.66,0C10.58,259.87,0,249.29,0,234.71q0-56.09,0-112.17c0-14.54,10.6-25,25.2-25.08H32.5c0-1.32,0-2.4,0-3.48.13-11.92-.51-23.91.54-35.75,2.51-28,23.1-50.64,50.66-56.72C86.4.91,89.15.5,91.89,0ZM97.6,113.7H25.78c-6.39,0-9.52,3.11-9.52,9.45q0,55.57,0,111.15c0,6.18,3.17,9.34,9.39,9.34H169.28c6.22,0,9.4-3.15,9.4-9.33q0-55.58,0-111.15c0-6.38-3.1-9.46-9.52-9.46ZM146,97.4a5,5,0,0,0,.2-.91c0-11.33.29-22.68-.09-34C145.26,37.56,123.91,16.76,99,16.26c-28-.55-50.19,21.16-50.26,49.25,0,9.81,0,19.62,0,29.43V97.4Z"/><path class="cls-1" d="M105.59,196.18c0,4,0,7.94,0,11.92-.06,4.89-3.64,8.55-8.21,8.49a8.2,8.2,0,0,1-8-8.43c0-7.69-.07-15.38,0-23.07a3.44,3.44,0,0,0-2.16-3.67,21.62,21.62,0,1,1,31.87-19.08c-.11,8.65-4.11,15.19-11.78,19.3a2.74,2.74,0,0,0-1.76,2.88C105.65,188.4,105.59,192.29,105.59,196.18Zm-8-39.16a5.41,5.41,0,1,0,5.33,5.35A5.53,5.53,0,0,0,97.54,157Z"/></g></g></svg>