<svg xmlns="http://www.w3.org/2000/svg" viewBox="0 0 250.62 188.35"><defs><style>.cls-1{fill:#fff;}</style></defs><g id="Layer_2" data-name="Layer 2"><g id="Layer_1-2" data-name="Layer 1"><path class="cls-1" d="M250.62,100.56c-.83,5.06-1.41,10.16-2.53,15.15-8.59,38.19-42,67.9-80.86,72.05A94.77,94.77,0,0,1,121,181.48a11,11,0,0,0-4-.69q-30.36-.06-60.7,0a10.78,10.78,0,0,1-2.9-.27,3.59,3.59,0,0,1,.58-7,17.2,17.2,0,0,1,2.69-.08h48.53c-2.89-2.19-5.4-3.92-7.72-5.88-25.21-21.19-37-48.19-34.82-81.13A90.28,90.28,0,0,1,76.32,44.57a12.69,12.69,0,0,1,1.24-1.82A3.39,3.39,0,0,1,82.19,42a3.43,3.43,0,0,1,1.44,4.47,15.73,15.73,0,0,1-1.46,2.54c-32.06,52.19-.17,121.38,60.3,130.87a86.9,86.9,0,0,0,99.12-68.68c9.47-45.54-20.24-91.83-65.78-101.62-32-6.88-59.63,1.86-82.69,25.08a16.45,16.45,0,0,1-1.39,1.38,3.5,3.5,0,0,1-4.88,0,3.39,3.39,0,0,1-.32-5c2.36-2.57,4.89-5,7.45-7.41,1.67-1.55,3.48-3,5.28-4.36A39.6,39.6,0,0,0,104.4,15H56.58a17.2,17.2,0,0,1-2.69-.08,3.32,3.32,0,0,1-3.06-3.27,3.28,3.28,0,0,1,2.5-3.71,10.36,10.36,0,0,1,2.9-.27c20.23,0,40.46,0,60.69-.05a12.52,12.52,0,0,0,4.49-.85A94.24,94.24,0,0,1,249,76.75c.7,3.67,1.1,7.39,1.64,11.09Z"/><path class="cls-1" d="M154.61,21c39.27-.1,70.89,28.57,74.59,66,.07.73.21,1.46.25,2.19.12,2.39-1.24,4.15-3.34,4.36s-3.73-1.27-4-3.73a68.15,68.15,0,0,0-5.89-23.09,65.85,65.85,0,1,0-70.65,92.43c35.19,6.17,69.85-18.44,75.67-53.71.18-1.1.4-2.6,1.14-3.1a6.1,6.1,0,0,1,4.13-1,3,3,0,0,1,2.12,3.88c-1.29,5.29-2.28,10.72-4.23,15.77a73.16,73.16,0,1,1-79.3-99.15C148.85,21.3,152.61,21.18,154.61,21Z"/><path class="cls-1" d="M160.06,90.56h9.72c.9,0,1.8,0,2.69,0a3.68,3.68,0,0,1,3.67,3.52,3.53,3.53,0,0,1-3.49,3.67q-8.18.21-16.37,0c-2.3-.06-3.53-1.58-3.54-3.87q0-15.17,0-30.32a3.7,3.7,0,0,1,3.7-4c2.1,0,3.6,1.64,3.61,4.1,0,8,0,16,0,24Z"/><path class="cls-1" d="M38.41,41.88c-6.19,0-12.39,0-18.59,0-2.84,0-4.52-1.43-4.47-3.7s1.72-3.61,4.37-3.62q18.59,0,37.18,0c2.85,0,4.47,1.46,4.43,3.77s-1.58,3.55-4.57,3.55C50.65,41.89,44.53,41.88,38.41,41.88Z"/><path class="cls-1" d="M38.41,146.52q9.18,0,18.35,0c3,0,4.53,1.23,4.57,3.55s-1.59,3.77-4.42,3.78q-18.6,0-37.19,0c-2.65,0-4.32-1.48-4.37-3.63s1.61-3.68,4.47-3.69C26,146.5,32.21,146.52,38.41,146.52Z"/><path class="cls-1" d="M22.41,85c-5.95,0-11.89,0-17.84,0C1.67,85,0,83.67,0,81.42s1.64-3.72,4.49-3.73q17.83,0,35.68,0c2.89,0,4.52,1.37,4.54,3.65S43.18,85,40.25,85C34.31,85,28.36,85,22.41,85Z"/><path class="cls-1" d="M22.48,103.38c5.87,0,11.74,0,17.6,0,3,0,4.55,1.21,4.63,3.5s-1.6,3.83-4.61,3.83c-11.81,0-23.63,0-35.44,0-2,0-4-.47-4.38-2.65a5.48,5.48,0,0,1,1.22-3.84c.55-.68,2.06-.81,3.14-.83C10.59,103.34,16.54,103.38,22.48,103.38Z"/><path class="cls-1" d="M48.64,66.89c-2.44,0-4.88.06-7.32,0s-3.78-1.46-3.82-3.55a3.54,3.54,0,0,1,3.69-3.72q7.58-.15,15.13,0a3.64,3.64,0,1,1-.12,7.27C53.69,67,51.16,66.89,48.64,66.89Z"/><path class="cls-1" d="M48.85,128.83c-2.44,0-4.88.06-7.32,0s-4-1.51-4-3.65,1.45-3.61,4-3.64q7.32-.09,14.64,0c2.34,0,3.86,1.45,4,3.46a3.76,3.76,0,0,1-3.9,3.82C53.74,128.9,51.29,128.82,48.85,128.83Z"/><path class="cls-1" d="M152.76,43.52a22.19,22.19,0,0,1,0-3.16,3.41,3.41,0,0,1,3.67-3.19A3.37,3.37,0,0,1,160,40.49a45.69,45.69,0,0,1,0,6.08,3.63,3.63,0,0,1-7.25.12,25.77,25.77,0,0,1,0-3.17Z"/><path class="cls-1" d="M118.37,52.44A11.15,11.15,0,0,1,121,53.67a47.15,47.15,0,0,1,4.46,4.48,3.26,3.26,0,0,1-.3,4.81,3.36,3.36,0,0,1-4.85.17,23.71,23.71,0,0,1-4.39-4.51,4.57,4.57,0,0,1-.35-3.77C116,53.8,117.43,53.18,118.37,52.44Z"/><path class="cls-1" d="M198.22,56.13a14.81,14.81,0,0,1-1.5,2.86,44.73,44.73,0,0,1-3.94,4,3.65,3.65,0,0,1-5.06.06,3.51,3.51,0,0,1-.07-5.21,21.57,21.57,0,0,1,4.18-4,5.35,5.35,0,0,1,4-.45C196.8,53.64,197.4,55.1,198.22,56.13Z"/><path class="cls-1" d="M122.41,124.41c2.86,0,4.89,2.89,3.39,5.06a24,24,0,0,1-5.61,5.62c-.81.58-3,.19-3.9-.54s-1.51-2.92-1-3.56a59.75,59.75,0,0,1,6.15-6.39C121.64,124.37,122.18,124.45,122.41,124.41Z"/><path class="cls-1" d="M194.41,136a16.71,16.71,0,0,1-2.86-1.57,42.35,42.35,0,0,1-3.81-3.77c-1.59-1.76-1.6-3.7-.13-5.22a3.63,3.63,0,0,1,5.23,0,22.79,22.79,0,0,1,4,4.19,4.74,4.74,0,0,1,.45,3.78C196.91,134.52,195.45,135.18,194.41,136Z"/><path class="cls-1" d="M160,144.78a23.92,23.92,0,0,1,0,3.17,3.42,3.42,0,0,1-3.59,3.28A3.35,3.35,0,0,1,152.8,148a37.17,37.17,0,0,1,0-6.33,3.46,3.46,0,0,1,3.58-3.31,3.59,3.59,0,0,1,3.66,3.5c.09,1,0,1.95,0,2.92Z"/><path class="cls-1" d="M105.73,98a29.1,29.1,0,0,1-3.3-.21A3.34,3.34,0,0,1,99.38,94a3.23,3.23,0,0,1,3.2-3.34,45.83,45.83,0,0,1,6.31,0,3.24,3.24,0,0,1,3.27,3.52A3.34,3.34,0,0,1,109,97.78C107.94,97.92,106.88,97.9,105.73,98Z"/><path class="cls-1" d="M207,90.59c1,0,1.95-.07,2.91,0,2.2.19,3.56,1.57,3.51,3.58a3.32,3.32,0,0,1-3.23,3.58,36.93,36.93,0,0,1-6.31,0,3.59,3.59,0,0,1,.2-7.17C205.05,90.52,206,90.59,207,90.59Z"/></g></g></svg>