<svg xmlns="http://www.w3.org/2000/svg" viewBox="0 0 106.51 96.68"><defs><style>.cls-1{fill:#fff;}</style></defs><g id="Layer_2" data-name="Layer 2"><g id="Layer_1-2" data-name="Layer 1"><path class="cls-1" d="M0,2A2.65,2.65,0,0,1,2.72,0,113.25,113.25,0,0,1,24.24,1.75,43.81,43.81,0,0,1,38.32,6.87c6.1,3.64,9.2,9.09,10,16a28,28,0,0,1-1.94,14.36c-.66,1.54-1.69,2.92-2.5,4.41a1.41,1.41,0,0,0-.14,1.07A91.77,91.77,0,0,1,51.18,67.6c0,.31.13.61.26,1.2.45-1.45.8-2.63,1.18-3.81a65,65,0,0,1,7.77-16.25,1.46,1.46,0,0,0,0-1.18,28.51,28.51,0,0,1-.67-21.38,18.87,18.87,0,0,1,8.31-9.65c5-3.1,10.57-4.62,16.3-5.59a117.34,117.34,0,0,1,19.37-1.37c1.79,0,2.78.93,2.77,2.65,0,8-.4,16-2.26,23.85a37.78,37.78,0,0,1-5.92,13.74,19,19,0,0,1-12.1,7.6A27.9,27.9,0,0,1,67.34,55a38.62,38.62,0,0,1-3.63-2.41c-.85,1.48-1.77,3-2.57,4.53a68.68,68.68,0,0,0-7,23.57c-.5,4.33-.63,8.7-.89,13.06-.11,1.8-.87,2.84-2.29,2.93a2.28,2.28,0,0,1-2.47-1.89,7.9,7.9,0,0,1-.13-1.45,156.94,156.94,0,0,0-1.74-23.82,92.5,92.5,0,0,0-6.49-23c-.17-.38-.38-.73-.56-1.08-1.63.63-3.16,1.37-4.77,1.83a28.16,28.16,0,0,1-18.35-.56A19,19,0,0,1,7,38.53,41.25,41.25,0,0,1,1.51,22.65C.86,18.3.61,13.9.17,9.53c0-.38-.11-.75-.17-1.12ZM64.11,44c.32-.4.44-.57.58-.72A54.75,54.75,0,0,1,79.44,31.38a31.68,31.68,0,0,1,4.1-2,2.35,2.35,0,0,1,3.3,1.84c.21,1.12-.27,1.94-1.6,2.59a56,56,0,0,0-10.4,6.44,48.12,48.12,0,0,0-8.26,8.36,29.63,29.63,0,0,0,3.26,2.24,23.51,23.51,0,0,0,14.68,1.92,14.4,14.4,0,0,0,11.1-7.68,45.66,45.66,0,0,0,3.35-8c1.84-6.07,2.35-12.37,2.57-18.68,0-1.3,0-2.61,0-3.93a2.29,2.29,0,0,0-.43,0c-5,.36-10,.58-14.91,1.14a39.11,39.11,0,0,0-13.6,3.93c-2.68,1.36-5.23,3-6.85,5.58C62.14,31,62.39,37.24,64.11,44ZM37.25,41A44.09,44.09,0,0,0,26.67,28.42c-2-1.58-4.08-3-6.08-4.53-1.38-1.06-1.59-2.45-.68-3.62s2.23-1.18,3.59-.2c1,.71,2,1.42,3,2.12A49,49,0,0,1,39.92,36c.29.45.59.9,1,1.44.22-.41.39-.67.52-.95A24.06,24.06,0,0,0,43,20.7a14.31,14.31,0,0,0-6.22-9.11A33.51,33.51,0,0,0,25.47,7,91.76,91.76,0,0,0,5.57,4.87a4.66,4.66,0,0,0-.71.1,112,112,0,0,0,1.27,16.2A42.89,42.89,0,0,0,10,34c1.8,3.49,4.12,6.5,7.92,8a23.1,23.1,0,0,0,11.13,1.39A20.13,20.13,0,0,0,37.25,41Z"/></g></g></svg>