<svg xmlns="http://www.w3.org/2000/svg" viewBox="0 0 72.52 96.68"><defs><style>.cls-1{fill:#fff;}</style></defs><g id="Layer_2" data-name="Layer 2"><g id="Layer_1-2" data-name="Layer 1"><path class="cls-1" d="M38.33,0c1.54.31,3.1.53,4.6,1A24.14,24.14,0,0,1,60.42,24c0,3.71,0,7.43,0,11.14v1c1.58.08,3.1,0,4.58.26a8.92,8.92,0,0,1,7.48,8.49c.06,2.24,0,4.47,0,6.71q0,17.88,0,35.78a9,9,0,0,1-6.74,8.93,10,10,0,0,1-2.61.32q-26.89,0-53.81,0A9,9,0,0,1,0,87.31Q0,66.45,0,45.58a9.05,9.05,0,0,1,9.37-9.33h2.71c0-.49,0-.89,0-1.29.05-4.43-.19-8.89.2-13.3A23.85,23.85,0,0,1,31.13.56c1-.22,2-.37,3.05-.56Zm-2,42.29H9.59c-2.38,0-3.54,1.15-3.54,3.51V87.16c0,2.3,1.18,3.47,3.49,3.47H63c2.32,0,3.5-1.17,3.5-3.47V45.81c0-2.37-1.16-3.51-3.54-3.51Zm18-6.06a1.73,1.73,0,0,0,.08-.34c0-4.21.1-8.43,0-12.64a18.12,18.12,0,0,0-36.21,1.12c0,3.65,0,7.3,0,11v.91Z"/><path class="cls-1" d="M39.28,73c0,1.47,0,3,0,4.43a3,3,0,1,1-6,0q0-4.29,0-8.58a1.27,1.27,0,0,0-.8-1.36,8,8,0,0,1-3.81-9.66A8,8,0,0,1,44.3,60.39a7.81,7.81,0,0,1-4.38,7.18,1,1,0,0,0-.65,1.07C39.3,70.08,39.28,71.53,39.28,73Zm-3-14.57a2,2,0,1,0,2,2A2,2,0,0,0,36.28,58.41Z"/></g></g></svg>