<svg xmlns="http://www.w3.org/2000/svg" viewBox="0 0 207.84 207.81"><defs><style>.cls-1{fill:#fff;}</style></defs><g id="Layer_2" data-name="Layer 2"><g id="Layer_1-2" data-name="Layer 1"><path class="cls-1" d="M99.89,207.81c-4.42-.52-8.87-.87-13.26-1.58C47.07,199.77,14,170.15,3.83,131.31-5.26,96.5,1.92,64.94,24.5,36.91L26.05,35c-.79-.06-1.35-.15-1.91-.15-3.86,0-7.72.06-11.57,0-5-.11-8.51-3.64-8.44-8.25s3.6-7.92,8.5-7.95c6.43,0,12.85-.1,19.27,0A24.15,24.15,0,0,1,55.17,41.58c.23,6.68.14,13.39,0,20.08a8.09,8.09,0,1,1-16.17-.07C39,56.25,39,50.9,39,44.91c-2,2.41-3.71,4.33-5.24,6.4A86.41,86.41,0,0,0,17.81,88c-4.32,24.54.75,47.05,15.45,67.19,13.9,19,32.58,30.69,55.74,35a125,125,0,0,0,12.7,1.32c4.6.37,7.75,3,8.27,7.13s-1.9,7.45-6.34,8.89a2.17,2.17,0,0,0-.49.32Z"/><path class="cls-1" d="M207.84,109.17c-.2.48-.41,1-.6,1.46a8.07,8.07,0,0,1-8.64,5.26c-4.16-.68-7-3.78-7-7.91.14-8.9-.46-17.72-2.84-26.31-7.32-26.41-23.34-45.64-48-57.47a84.52,84.52,0,0,0-32.66-8c-6.08-.3-9.76-5.89-7.51-11.25C102,1.63,105-.2,109.06,0a97.27,97.27,0,0,1,29.31,5.74c34.57,13,56.79,37.42,66.38,73.11,1.47,5.44,1.84,11.17,2.73,16.77.09.59.24,1.17.36,1.75Z"/><path class="cls-1" d="M148.59,207.81c-1.05-.18-2.11-.32-3.14-.56a21.72,21.72,0,0,1-10.58-5.67q-12.66-12.29-25.26-24.65c-2.27-2.23-3.34-4.87-2.51-8.09a8,8,0,0,1,12.71-4.48,18.52,18.52,0,0,1,1.81,1.62l23.81,23.23c3.32,3.23,6,3,8.69-.74q19.23-26.86,38.47-53.74c3.42-4.76,9.18-5.56,12.84-1.7,1.07,1.13,1.62,2.75,2.41,4.15v3.24a37.94,37.94,0,0,1-2.15,3.85q-19.49,27.3-39,54.55a20.81,20.81,0,0,1-11.14,8c-1.34.41-2.73.66-4.1,1Z"/><path class="cls-1" d="M99.89,99.77V97.18q0-26.78,0-53.54c0-5.1,3.24-8.68,7.85-8.79a8,8,0,0,1,8.34,7.86c.1,2.29,0,4.59,0,6.89q0,28.4,0,56.79c0,6.47-3.11,9.62-9.53,9.62h-43c-4.36,0-7.44-2-8.66-5.39-1.93-5.41,1.93-10.79,7.9-10.83,11.55-.06,23.11,0,34.67,0Z"/></g></g></svg>