<svg xmlns="http://www.w3.org/2000/svg" viewBox="0 0 96.68 96.68"><defs><style>.cls-1{fill:#fff;}</style></defs><g id="Layer_2" data-name="Layer 2"><g id="Layer_1-2" data-name="Layer 1"><path class="cls-1" d="M71,36.59a11.9,11.9,0,0,1-3.08,6.71c-2.23,2.46-5.07,3.86-7.66,5.57-2.22,1.47-4.44,3-6.63,4.56q-6.63,4.7-12.94,10c-2,1.7-4,3.89-6.15,5.33q-2.37,2.11-4.71,4.28l-2.28,2.13-1.13,1.08c-.21.21-.86,1.07-1.12,1.08a.87.87,0,0,1-.83-.95c0-.82.89-1.16,1.37-1.54.71-.54,1.41-1.11,2.1-1.69A149.65,149.65,0,0,0,44.2,57.24,64,64,0,0,0,50,49.82a21.08,21.08,0,0,0,3.13-6.69c1.13-5.18-3.16-6.08-6.39-5.92-5.76.29-11.14,2.34-16.55,4.88-1,.48-2.34.73-2.34-1,0-1.37,1.21-1.6,2.05-1.79,1.41-.32,2.83-.66,4.23-1,5.28-1.31,10.57-2.83,15.77-4.62,5.82-2,13.61-6.76,19-2a7.12,7.12,0,0,1,1,1A5.48,5.48,0,0,1,71,36.59Z"/><path class="cls-1" d="M95,48.34H93.34A45,45,0,1,1,6.87,30.82,45.25,45.25,0,0,1,23.18,11,45.11,45.11,0,0,1,65.85,6.87,45.27,45.27,0,0,1,85.66,23.18a44.77,44.77,0,0,1,7.68,25.16h3.34a48.35,48.35,0,1,0-8.26,27,48.36,48.36,0,0,0,8.26-27Z"/></g></g></svg>